0
SECTION
2
HEADER
9
$INSUNITS
70
4
9
$ACADVER
1
AC1014
9
$HANDSEED
5
FFFF
0
ENDSEC
0
SECTION
2
TABLES
0
TABLE
2
VPORT
5
8
100
AcDbSymbolTable
0
ENDTAB
0
TABLE
2
LTYPE
5
5
100
AcDbSymbolTable
70
2
0
LTYPE
5
14
100
AcDbSymbolTableRecord
100
AcDbLinetypeTableRecord
2
BYBLOCK
70
0
0
LTYPE
5
15
100
AcDbSymbolTableRecord
100
AcDbLinetypeTableRecord
2
BYLAYER
70
0
0
ENDTAB
0
TABLE
2
LAYER
5
2
100
AcDbSymbolTable
70
3
0
LAYER
5
50
100
AcDbSymbolTableRecord
100
AcDbLayerTableRecord
2
0
70
0
6
CONTINUOUS
0
LAYER
5
51
100
AcDbSymbolTableRecord
100
AcDbLayerTableRecord
2
CUTOUTS
70
0
62
1
6
CONTINUOUS
0
LAYER
5
52
100
AcDbSymbolTableRecord
100
AcDbLayerTableRecord
2
PERIMETER
70
0
62
5
6
CONTINUOUS
0
ENDTAB
0
TABLE
2
STYLE
5
3
100
AcDbSymbolTable
70
1
0
STYLE
5
11
100
AcDbSymbolTableRecord
100
AcDbTextStyleTableRecord
2
STANDARD
70
0
0
ENDTAB
0
TABLE
2
VIEW
5
6
100
AcDbSymbolTable
0
ENDTAB
0
TABLE
2
UCS
5
7
100
AcDbSymbolTable
0
ENDTAB
0
TABLE
2
APPID
5
9
100
AcDbSymbolTable
70
1
0
APPID
5
12
100
AcDbSymbolTableRecord
100
AcDbRegAppTableRecord
2
ACAD
70
0
0
ENDTAB
0
TABLE
2
DIMSTYLE
5
A
100
AcDbSymbolTable
0
ENDTAB
0
TABLE
2
BLOCK_RECORD
5
1
100
AcDbSymbolTable
70
2
0
BLOCK_RECORD
5
1F
100
AcDbSymbolTableRecord
100
AcDbBlockTableRecord
2
*MODEL_SPACE
0
BLOCK_RECORD
5
1B
100
AcDbSymbolTableRecord
100
AcDbBlockTableRecord
2
*PAPER_SPACE
0
ENDTAB
0
ENDSEC
0
SECTION
2
BLOCKS
0
BLOCK
5
20
100
AcDbEntity
100
AcDbBlockBegin
2
*MODEL_SPACE
0
ENDBLK
5
21
100
AcDbEntity
100
AcDbBlockEnd
0
BLOCK
5
1C
100
AcDbEntity
100
AcDbBlockBegin
2
*PAPER_SPACE
0
ENDBLK
5
1D
100
AcDbEntity
100
AcDbBlockEnd
0
ENDSEC
0
SECTION
2
ENTITIES
0
LINE
5
100
100
AcDbEntity
8
CUTOUTS
100
AcDbLine
10
-14.402330167571105
20
-92.98226005990999
30
0
11
-12.142003863692283
21
-96.897260059909939
31
0
0
LINE
5
101
100
AcDbEntity
8
CUTOUTS
100
AcDbLine
10
-12.142003863692283
20
-96.897260059909939
30
0
11
-14.402330167571037
21
-100.81226005990003
31
0
0
LINE
5
102
100
AcDbEntity
8
CUTOUTS
100
AcDbLine
10
-14.402330167571037
20
-100.81226005990003
30
0
11
-18.92298277531896
21
-100.81226005990003
31
0
0
LINE
5
103
100
AcDbEntity
8
CUTOUTS
100
AcDbLine
10
-18.92298277531896
20
-100.81226005990003
30
0
11
-21.18330907919772
21
-96.897260059909939
31
0
0
LINE
5
104
100
AcDbEntity
8
CUTOUTS
100
AcDbLine
10
-21.18330907919772
20
-96.897260059909939
30
0
11
-18.922982775318896
21
-92.98226005990999
31
0
0
LINE
5
105
100
AcDbEntity
8
CUTOUTS
100
AcDbLine
10
-18.922982775318896
20
-92.98226005990999
30
0
11
-14.402330167571105
21
-92.98226005990999
31
0
0
LINE
5
106
100
AcDbEntity
8
CUTOUTS
100
AcDbLine
10
4.1690984038568875
20
-92.98226005990999
30
0
11
6.4294247077347313
21
-96.897260059909939
31
0
0
LINE
5
107
100
AcDbEntity
8
CUTOUTS
100
AcDbLine
10
6.4294247077347313
20
-96.897260059909939
30
0
11
4.1690984038569532
21
-100.81226005990003
31
0
0
LINE
5
108
100
AcDbEntity
8
CUTOUTS
100
AcDbLine
10
4.1690984038569532
20
-100.81226005990003
30
0
11
-0.35155420389793524
21
-100.81226005990003
31
0
0
LINE
5
109
100
AcDbEntity
8
CUTOUTS
100
AcDbLine
10
-0.35155420389793501
20
-100.81226005990003
30
0
11
-2.611880507774738
21
-96.897260059909939
31
0
0
LINE
5
10A
100
AcDbEntity
8
CUTOUTS
100
AcDbLine
10
-2.611880507774738
20
-96.897260059909939
30
0
11
-0.35155420389787945
21
-92.98226005990999
31
0
0
LINE
5
10B
100
AcDbEntity
8
CUTOUTS
100
AcDbLine
10
-0.35155420389787945
20
-92.98226005990999
30
0
11
4.1690984038568875
21
-92.98226005990999
31
0
0
LINE
5
10C
100
AcDbEntity
8
CUTOUTS
100
AcDbLine
10
18.219874367531123
20
-92.98226005990999
30
0
11
22.740526975285889
21
-92.98226005990999
31
0
0
LINE
5
10D
100
AcDbEntity
8
CUTOUTS
100
AcDbLine
10
22.740526975285889
20
-92.98226005990999
30
0
11
25.000853279163731
21
-96.897260059909939
31
0
0
LINE
5
10E
100
AcDbEntity
8
CUTOUTS
100
AcDbLine
10
25.000853279163731
20
-96.897260059909939
30
0
11
22.74052697528596
21
-100.81226005990003
31
0
0
LINE
5
10F
100
AcDbEntity
8
CUTOUTS
100
AcDbLine
10
22.74052697528596
20
-100.81226005990003
30
0
11
18.219874367531062
21
-100.81226005990003
31
0
0
LINE
5
110
100
AcDbEntity
8
CUTOUTS
100
AcDbLine
10
18.219874367531062
20
-100.81226005990003
30
0
11
15.959548063654264
21
-96.897260059909939
31
0
0
LINE
5
111
100
AcDbEntity
8
CUTOUTS
100
AcDbLine
10
15.959548063654264
20
-96.897260059909939
30
0
11
18.219874367531123
21
-92.98226005990999
31
0
0
LINE
5
112
100
AcDbEntity
8
CUTOUTS
100
AcDbLine
10
-14.402330167571101
20
-74.23226005990999
30
0
11
-12.142003863692247
21
-78.147260059909996
31
0
0
LINE
5
113
100
AcDbEntity
8
CUTOUTS
100
AcDbLine
10
-12.142003863692247
20
-78.147260059909996
30
0
11
-14.402330167571101
21
-82.062260059910002
31
0
0
LINE
5
114
100
AcDbEntity
8
CUTOUTS
100
AcDbLine
10
-14.402330167571101
20
-82.062260059910002
30
0
11
-18.922982775318896
21
-82.062260059910002
31
0
0
LINE
5
115
100
AcDbEntity
8
CUTOUTS
100
AcDbLine
10
-18.922982775318896
20
-82.062260059910002
30
0
11
-21.183309079197748
21
-78.147260059909996
31
0
0
LINE
5
116
100
AcDbEntity
8
CUTOUTS
100
AcDbLine
10
-21.183309079197748
20
-78.147260059909996
30
0
11
-18.9229827753189
21
-74.23226005990999
31
0
0
LINE
5
117
100
AcDbEntity
8
CUTOUTS
100
AcDbLine
10
-18.9229827753189
20
-74.23226005990999
30
0
11
-14.402330167571101
21
-74.23226005990999
31
0
0
LINE
5
118
100
AcDbEntity
8
CUTOUTS
100
AcDbLine
10
-0.35155420389787917
20
-82.062260059910002
30
0
11
-2.6118805077747731
21
-78.147260059909996
31
0
0
LINE
5
119
100
AcDbEntity
8
CUTOUTS
100
AcDbLine
10
-2.6118805077747731
20
-78.147260059909996
30
0
11
-0.35155420389787945
21
-74.23226005990999
31
0
0
LINE
5
11A
100
AcDbEntity
8
CUTOUTS
100
AcDbLine
10
-0.35155420389787945
20
-74.23226005990999
30
0
11
4.1690984038568866
21
-74.23226005990999
31
0
0
LINE
5
11B
100
AcDbEntity
8
CUTOUTS
100
AcDbLine
10
4.1690984038568866
20
-74.23226005990999
30
0
11
6.4294247077347606
21
-78.147260059909996
31
0
0
LINE
5
11C
100
AcDbEntity
8
CUTOUTS
100
AcDbLine
10
6.4294247077347606
20
-78.147260059909996
30
0
11
4.1690984038568875
21
-82.062260059910002
31
0
0
LINE
5
11D
100
AcDbEntity
8
CUTOUTS
100
AcDbLine
10
4.1690984038568875
20
-82.062260059910002
30
0
11
-0.35155420389787917
21
-82.062260059910002
31
0
0
LINE
5
11E
100
AcDbEntity
8
CUTOUTS
100
AcDbLine
10
-18.9229827753189
20
-63.312260059910002
30
0
11
-21.183309079197752
21
-59.39726005991001
31
0
0
LINE
5
11F
100
AcDbEntity
8
CUTOUTS
100
AcDbLine
10
-21.183309079197752
20
-59.39726005991001
30
0
11
-18.9229827753189
21
-55.482260059910004
31
0
0
LINE
5
120
100
AcDbEntity
8
CUTOUTS
100
AcDbLine
10
-18.9229827753189
20
-55.482260059910004
30
0
11
-14.402330167571101
21
-55.482260059910004
31
0
0
LINE
5
121
100
AcDbEntity
8
CUTOUTS
100
AcDbLine
10
-14.402330167571101
20
-55.482260059910004
30
0
11
-12.142003863692247
21
-59.39726005991001
31
0
0
LINE
5
122
100
AcDbEntity
8
CUTOUTS
100
AcDbLine
10
-12.142003863692247
20
-59.39726005991001
30
0
11
-14.402330167571101
21
-63.312260059910002
31
0
0
LINE
5
123
100
AcDbEntity
8
CUTOUTS
100
AcDbLine
10
-14.402330167571101
20
-63.312260059910002
30
0
11
-18.9229827753189
21
-63.312260059910002
31
0
0
LINE
5
124
100
AcDbEntity
8
CUTOUTS
100
AcDbLine
10
4.1690984038568866
20
-55.482260059910004
30
0
11
6.4294247077347606
21
-59.39726005991001
31
0
0
LINE
5
125
100
AcDbEntity
8
CUTOUTS
100
AcDbLine
10
6.4294247077347606
20
-59.39726005991001
30
0
11
4.1690984038568875
21
-63.312260059910002
31
0
0
LINE
5
126
100
AcDbEntity
8
CUTOUTS
100
AcDbLine
10
4.1690984038568875
20
-63.312260059910002
30
0
11
-0.35155420389787917
21
-63.312260059910002
31
0
0
LINE
5
127
100
AcDbEntity
8
CUTOUTS
100
AcDbLine
10
-0.35155420389787917
20
-63.312260059910002
30
0
11
-2.6118805077747727
21
-59.39726005991001
31
0
0
LINE
5
128
100
AcDbEntity
8
CUTOUTS
100
AcDbLine
10
-2.6118805077747727
20
-59.39726005991001
30
0
11
-0.35155420389787945
21
-55.482260059910004
31
0
0
LINE
5
129
100
AcDbEntity
8
CUTOUTS
100
AcDbLine
10
-0.35155420389787945
20
-55.482260059910004
30
0
11
4.1690984038568866
21
-55.482260059910004
31
0
0
LINE
5
12A
100
AcDbEntity
8
CUTOUTS
100
AcDbLine
10
22.740526975285889
20
-74.23226005990999
30
0
11
25.000853279163756
21
-78.147260059909996
31
0
0
LINE
5
12B
100
AcDbEntity
8
CUTOUTS
100
AcDbLine
10
25.000853279163756
20
-78.147260059909996
30
0
11
22.740526975285889
21
-82.062260059910002
31
0
0
LINE
5
12C
100
AcDbEntity
8
CUTOUTS
100
AcDbLine
10
22.740526975285889
20
-82.062260059910002
30
0
11
18.219874367531123
21
-82.062260059910002
31
0
0
LINE
5
12D
100
AcDbEntity
8
CUTOUTS
100
AcDbLine
10
18.219874367531123
20
-82.062260059910002
30
0
11
15.95954806365423
21
-78.147260059909996
31
0
0
LINE
5
12E
100
AcDbEntity
8
CUTOUTS
100
AcDbLine
10
15.95954806365423
20
-78.147260059909996
30
0
11
18.219874367531123
21
-74.23226005990999
31
0
0
LINE
5
12F
100
AcDbEntity
8
CUTOUTS
100
AcDbLine
10
18.219874367531123
20
-74.23226005990999
30
0
11
22.740526975285889
21
-74.23226005990999
31
0
0
LINE
5
130
100
AcDbEntity
8
CUTOUTS
100
AcDbLine
10
18.219874367531123
20
-55.482260059910004
30
0
11
22.740526975285889
21
-55.482260059910004
31
0
0
LINE
5
131
100
AcDbEntity
8
CUTOUTS
100
AcDbLine
10
22.740526975285889
20
-55.482260059910004
30
0
11
25.000853279163756
21
-59.39726005991001
31
0
0
LINE
5
132
100
AcDbEntity
8
CUTOUTS
100
AcDbLine
10
25.000853279163756
20
-59.39726005991001
30
0
11
22.740526975285889
21
-63.312260059910002
31
0
0
LINE
5
133
100
AcDbEntity
8
CUTOUTS
100
AcDbLine
10
22.740526975285889
20
-63.312260059910002
30
0
11
18.219874367531123
21
-63.312260059910002
31
0
0
LINE
5
134
100
AcDbEntity
8
CUTOUTS
100
AcDbLine
10
18.219874367531123
20
-63.312260059910002
30
0
11
15.95954806365423
21
-59.39726005991001
31
0
0
LINE
5
135
100
AcDbEntity
8
CUTOUTS
100
AcDbLine
10
15.95954806365423
20
-59.39726005991001
30
0
11
18.219874367531123
21
-55.482260059910004
31
0
0
LINE
5
136
100
AcDbEntity
8
CUTOUTS
100
AcDbLine
10
41.311955546714934
20
-100.81226005990003
30
0
11
36.791302938960044
21
-100.81226005990003
31
0
0
LINE
5
137
100
AcDbEntity
8
CUTOUTS
100
AcDbLine
10
36.791302938960044
20
-100.81226005990003
30
0
11
34.530976635082268
21
-96.897260059909939
31
0
0
LINE
5
138
100
AcDbEntity
8
CUTOUTS
100
AcDbLine
10
34.530976635082268
20
-96.897260059909939
30
0
11
36.791302938960115
21
-92.98226005990999
31
0
0
LINE
5
139
100
AcDbEntity
8
CUTOUTS
100
AcDbLine
10
36.791302938960115
20
-92.98226005990999
30
0
11
41.311955546714884
21
-92.98226005990999
31
0
0
LINE
5
13A
100
AcDbEntity
8
CUTOUTS
100
AcDbLine
10
41.311955546714884
20
-92.98226005990999
30
0
11
43.572281850591743
21
-96.897260059909939
31
0
0
LINE
5
13B
100
AcDbEntity
8
CUTOUTS
100
AcDbLine
10
43.572281850591743
20
-96.897260059909939
30
0
11
41.311955546714934
21
-100.81226005990003
31
0
0
LINE
5
13C
100
AcDbEntity
8
CUTOUTS
100
AcDbLine
10
59.883384118142899
20
-92.98226005990999
30
0
11
62.143710422020739
21
-96.897260059909939
31
0
0
LINE
5
13D
100
AcDbEntity
8
CUTOUTS
100
AcDbLine
10
62.143710422020739
20
-96.897260059909939
30
0
11
59.883384118142963
21
-100.81226005990003
31
0
0
LINE
5
13E
100
AcDbEntity
8
CUTOUTS
100
AcDbLine
10
59.883384118142963
20
-100.81226005990003
30
0
11
55.362731510388066
21
-100.81226005990003
31
0
0
LINE
5
13F
100
AcDbEntity
8
CUTOUTS
100
AcDbLine
10
55.362731510388066
20
-100.81226005990003
30
0
11
53.102405206511264
21
-96.897260059909939
31
0
0
LINE
5
140
100
AcDbEntity
8
CUTOUTS
100
AcDbLine
10
53.102405206511264
20
-96.897260059909939
30
0
11
55.36273151038813
21
-92.98226005990999
31
0
0
LINE
5
141
100
AcDbEntity
8
CUTOUTS
100
AcDbLine
10
55.36273151038813
20
-92.98226005990999
30
0
11
59.883384118142899
21
-92.98226005990999
31
0
0
LINE
5
142
100
AcDbEntity
8
CUTOUTS
100
AcDbLine
10
78.454812689571881
20
-92.98226005990999
30
0
11
80.715138993448733
21
-96.897260059909925
31
0
0
LINE
5
143
100
AcDbEntity
8
CUTOUTS
100
AcDbLine
10
80.715138993448733
20
-96.897260059909925
30
0
11
78.454812689571924
21
-100.81226005990003
31
0
0
LINE
5
144
100
AcDbEntity
8
CUTOUTS
100
AcDbLine
10
78.454812689571924
20
-100.81226005990003
30
0
11
73.934160081817041
21
-100.81226005990003
31
0
0
LINE
5
145
100
AcDbEntity
8
CUTOUTS
100
AcDbLine
10
73.934160081817041
20
-100.81226005990003
30
0
11
71.673833777939265
21
-96.897260059909939
31
0
0
LINE
5
146
100
AcDbEntity
8
CUTOUTS
100
AcDbLine
10
71.673833777939265
20
-96.897260059909939
30
0
11
73.934160081817112
21
-92.98226005990999
31
0
0
LINE
5
147
100
AcDbEntity
8
CUTOUTS
100
AcDbLine
10
73.934160081817112
20
-92.98226005990999
30
0
11
78.454812689571881
21
-92.98226005990999
31
0
0
LINE
5
148
100
AcDbEntity
8
CUTOUTS
100
AcDbLine
10
97.026241260999882
20
-92.98226005990999
30
0
11
99.286567564877743
21
-96.897260059909968
31
0
0
LINE
5
149
100
AcDbEntity
8
CUTOUTS
100
AcDbLine
10
99.286567564877743
20
-96.897260059909968
30
0
11
97.026241260999967
21
-100.81226005990003
31
0
0
LINE
5
14A
100
AcDbEntity
8
CUTOUTS
100
AcDbLine
10
97.026241260999967
20
-100.81226005990003
30
0
11
92.50558865324507
21
-100.81226005990003
31
0
0
LINE
5
14B
100
AcDbEntity
8
CUTOUTS
100
AcDbLine
10
92.50558865324507
20
-100.81226005990003
30
0
11
90.245262349368275
21
-96.897260059909925
31
0
0
LINE
5
14C
100
AcDbEntity
8
CUTOUTS
100
AcDbLine
10
90.245262349368275
20
-96.897260059909925
30
0
11
92.505588653245127
21
-92.98226005990999
31
0
0
LINE
5
14D
100
AcDbEntity
8
CUTOUTS
100
AcDbLine
10
92.505588653245127
20
-92.98226005990999
30
0
11
97.026241260999882
21
-92.98226005990999
31
0
0
LINE
5
14E
100
AcDbEntity
8
CUTOUTS
100
AcDbLine
10
34.530976635082247
20
-78.147260059909996
30
0
11
36.791302938960115
21
-74.23226005990999
31
0
0
LINE
5
14F
100
AcDbEntity
8
CUTOUTS
100
AcDbLine
10
36.791302938960115
20
-74.23226005990999
30
0
11
41.311955546714884
21
-74.23226005990999
31
0
0
LINE
5
150
100
AcDbEntity
8
CUTOUTS
100
AcDbLine
10
41.311955546714884
20
-74.23226005990999
30
0
11
43.572281850591779
21
-78.147260059909996
31
0
0
LINE
5
151
100
AcDbEntity
8
CUTOUTS
100
AcDbLine
10
43.572281850591779
20
-78.147260059909996
30
0
11
41.311955546714884
21
-82.062260059910002
31
0
0
LINE
5
152
100
AcDbEntity
8
CUTOUTS
100
AcDbLine
10
41.311955546714884
20
-82.062260059910002
30
0
11
36.791302938960115
21
-82.062260059910002
31
0
0
LINE
5
153
100
AcDbEntity
8
CUTOUTS
100
AcDbLine
10
36.791302938960115
20
-82.062260059910002
30
0
11
34.530976635082247
21
-78.147260059909996
31
0
0
LINE
5
154
100
AcDbEntity
8
CUTOUTS
100
AcDbLine
10
59.883384118142892
20
-82.062260059910002
30
0
11
55.362731510388123
21
-82.062260059910002
31
0
0
LINE
5
155
100
AcDbEntity
8
CUTOUTS
100
AcDbLine
10
55.362731510388123
20
-82.062260059910002
30
0
11
53.102405206511222
21
-78.147260059909996
31
0
0
LINE
5
156
100
AcDbEntity
8
CUTOUTS
100
AcDbLine
10
53.102405206511222
20
-78.147260059909996
30
0
11
55.362731510388123
21
-74.23226005990999
31
0
0
LINE
5
157
100
AcDbEntity
8
CUTOUTS
100
AcDbLine
10
55.362731510388123
20
-74.23226005990999
30
0
11
59.883384118142899
21
-74.23226005990999
31
0
0
LINE
5
158
100
AcDbEntity
8
CUTOUTS
100
AcDbLine
10
59.883384118142899
20
-74.23226005990999
30
0
11
62.14371042202076
21
-78.147260059909996
31
0
0
LINE
5
159
100
AcDbEntity
8
CUTOUTS
100
AcDbLine
10
62.14371042202076
20
-78.147260059909996
30
0
11
59.883384118142892
21
-82.062260059910002
31
0
0
LINE
5
15A
100
AcDbEntity
8
CUTOUTS
100
AcDbLine
10
43.572281850591779
20
-59.39726005991001
30
0
11
41.311955546714884
21
-63.312260059910002
31
0
0
LINE
5
15B
100
AcDbEntity
8
CUTOUTS
100
AcDbLine
10
41.311955546714884
20
-63.312260059910002
30
0
11
36.791302938960115
21
-63.312260059910002
31
0
0
LINE
5
15C
100
AcDbEntity
8
CUTOUTS
100
AcDbLine
10
36.791302938960115
20
-63.312260059910002
30
0
11
34.530976635082247
21
-59.39726005991001
31
0
0
LINE
5
15D
100
AcDbEntity
8
CUTOUTS
100
AcDbLine
10
34.530976635082247
20
-59.39726005991001
30
0
11
36.791302938960115
21
-55.482260059910004
31
0
0
LINE
5
15E
100
AcDbEntity
8
CUTOUTS
100
AcDbLine
10
36.791302938960115
20
-55.482260059910004
30
0
11
41.311955546714884
21
-55.482260059910004
31
0
0
LINE
5
15F
100
AcDbEntity
8
CUTOUTS
100
AcDbLine
10
41.311955546714884
20
-55.482260059910004
30
0
11
43.572281850591779
21
-59.39726005991001
31
0
0
LINE
5
160
100
AcDbEntity
8
CUTOUTS
100
AcDbLine
10
59.883384118142899
20
-55.482260059910004
30
0
11
62.14371042202076
21
-59.39726005991001
31
0
0
LINE
5
161
100
AcDbEntity
8
CUTOUTS
100
AcDbLine
10
62.14371042202076
20
-59.39726005991001
30
0
11
59.883384118142899
21
-63.312260059910002
31
0
0
LINE
5
162
100
AcDbEntity
8
CUTOUTS
100
AcDbLine
10
59.883384118142899
20
-63.312260059910002
30
0
11
55.362731510388123
21
-63.312260059910002
31
0
0
LINE
5
163
100
AcDbEntity
8
CUTOUTS
100
AcDbLine
10
55.362731510388123
20
-63.312260059910002
30
0
11
53.102405206511222
21
-59.39726005991001
31
0
0
LINE
5
164
100
AcDbEntity
8
CUTOUTS
100
AcDbLine
10
53.102405206511222
20
-59.39726005991001
30
0
11
55.362731510388123
21
-55.482260059910004
31
0
0
LINE
5
165
100
AcDbEntity
8
CUTOUTS
100
AcDbLine
10
55.362731510388123
20
-55.482260059910004
30
0
11
59.883384118142899
21
-55.482260059910004
31
0
0
LINE
5
166
100
AcDbEntity
8
CUTOUTS
100
AcDbLine
10
73.934160081817112
20
-74.23226005990999
30
0
11
78.454812689571881
21
-74.23226005990999
31
0
0
LINE
5
167
100
AcDbEntity
8
CUTOUTS
100
AcDbLine
10
78.454812689571881
20
-74.23226005990999
30
0
11
80.715138993448775
21
-78.147260059909996
31
0
0
LINE
5
168
100
AcDbEntity
8
CUTOUTS
100
AcDbLine
10
80.715138993448775
20
-78.147260059909996
30
0
11
78.454812689571881
21
-82.062260059910002
31
0
0
LINE
5
169
100
AcDbEntity
8
CUTOUTS
100
AcDbLine
10
78.454812689571881
20
-82.062260059910002
30
0
11
73.934160081817112
21
-82.062260059910002
31
0
0
LINE
5
16A
100
AcDbEntity
8
CUTOUTS
100
AcDbLine
10
73.934160081817112
20
-82.062260059910002
30
0
11
71.673833777939237
21
-78.147260059909996
31
0
0
LINE
5
16B
100
AcDbEntity
8
CUTOUTS
100
AcDbLine
10
71.673833777939237
20
-78.147260059909996
30
0
11
73.934160081817112
21
-74.23226005990999
31
0
0
LINE
5
16C
100
AcDbEntity
8
CUTOUTS
100
AcDbLine
10
90.245262349368232
20
-78.147260059909996
30
0
11
92.505588653245127
21
-74.23226005990999
31
0
0
LINE
5
16D
100
AcDbEntity
8
CUTOUTS
100
AcDbLine
10
92.505588653245127
20
-74.23226005990999
30
0
11
97.026241260999882
21
-74.23226005990999
31
0
0
LINE
5
16E
100
AcDbEntity
8
CUTOUTS
100
AcDbLine
10
97.026241260999882
20
-74.23226005990999
30
0
11
99.286567564877757
21
-78.14726005991001
31
0
0
LINE
5
16F
100
AcDbEntity
8
CUTOUTS
100
AcDbLine
10
99.286567564877757
20
-78.14726005991001
30
0
11
97.026241260999882
21
-82.062260059910002
31
0
0
LINE
5
170
100
AcDbEntity
8
CUTOUTS
100
AcDbLine
10
97.026241260999882
20
-82.062260059910002
30
0
11
92.505588653245127
21
-82.062260059910002
31
0
0
LINE
5
171
100
AcDbEntity
8
CUTOUTS
100
AcDbLine
10
92.505588653245127
20
-82.062260059910002
30
0
11
90.245262349368232
21
-78.147260059909996
31
0
0
LINE
5
172
100
AcDbEntity
8
CUTOUTS
100
AcDbLine
10
73.934160081817112
20
-55.482260059910004
30
0
11
78.454812689571881
21
-55.482260059910004
31
0
0
LINE
5
173
100
AcDbEntity
8
CUTOUTS
100
AcDbLine
10
78.454812689571881
20
-55.482260059910004
30
0
11
80.715138993448775
21
-59.39726005991001
31
0
0
LINE
5
174
100
AcDbEntity
8
CUTOUTS
100
AcDbLine
10
80.715138993448775
20
-59.39726005991001
30
0
11
78.454812689571881
21
-63.312260059910002
31
0
0
LINE
5
175
100
AcDbEntity
8
CUTOUTS
100
AcDbLine
10
78.454812689571881
20
-63.312260059910002
30
0
11
73.934160081817112
21
-63.312260059910002
31
0
0
LINE
5
176
100
AcDbEntity
8
CUTOUTS
100
AcDbLine
10
73.934160081817112
20
-63.312260059910002
30
0
11
71.673833777939237
21
-59.39726005991001
31
0
0
LINE
5
177
100
AcDbEntity
8
CUTOUTS
100
AcDbLine
10
71.673833777939237
20
-59.39726005991001
30
0
11
73.934160081817112
21
-55.482260059910004
31
0
0
LINE
5
178
100
AcDbEntity
8
CUTOUTS
100
AcDbLine
10
99.286567564877757
20
-59.397260059910018
30
0
11
97.026241260999882
21
-63.312260059909995
31
0
0
LINE
5
179
100
AcDbEntity
8
CUTOUTS
100
AcDbLine
10
97.026241260999882
20
-63.312260059909995
30
0
11
92.505588653245127
21
-63.312260059910002
31
0
0
LINE
5
17A
100
AcDbEntity
8
CUTOUTS
100
AcDbLine
10
92.505588653245127
20
-63.312260059910002
30
0
11
90.245262349368232
21
-59.39726005991001
31
0
0
LINE
5
17B
100
AcDbEntity
8
CUTOUTS
100
AcDbLine
10
90.245262349368232
20
-59.39726005991001
30
0
11
92.505588653245127
21
-55.482260059910004
31
0
0
LINE
5
17C
100
AcDbEntity
8
CUTOUTS
100
AcDbLine
10
92.505588653245127
20
-55.482260059910004
30
0
11
97.026241260999882
21
-55.482260059910004
31
0
0
LINE
5
17D
100
AcDbEntity
8
CUTOUTS
100
AcDbLine
10
97.026241260999882
20
-55.482260059910004
30
0
11
99.286567564877757
21
-59.397260059910018
31
0
0
LINE
5
17E
100
AcDbEntity
8
CUTOUTS
100
AcDbLine
10
-14.402330167571103
20
-36.732260059910004
30
0
11
-12.142003863692249
21
-40.64726005991001
31
0
0
LINE
5
17F
100
AcDbEntity
8
CUTOUTS
100
AcDbLine
10
-12.142003863692249
20
-40.64726005991001
30
0
11
-14.402330167571101
21
-44.562260059910002
31
0
0
LINE
5
180
100
AcDbEntity
8
CUTOUTS
100
AcDbLine
10
-14.402330167571101
20
-44.562260059910002
30
0
11
-18.9229827753189
21
-44.562260059910002
31
0
0
LINE
5
181
100
AcDbEntity
8
CUTOUTS
100
AcDbLine
10
-18.9229827753189
20
-44.562260059910002
30
0
11
-21.183309079197752
21
-40.64726005991001
31
0
0
LINE
5
182
100
AcDbEntity
8
CUTOUTS
100
AcDbLine
10
-21.183309079197752
20
-40.64726005991001
30
0
11
-18.9229827753189
21
-36.732260059910004
31
0
0
LINE
5
183
100
AcDbEntity
8
CUTOUTS
100
AcDbLine
10
-18.9229827753189
20
-36.732260059910004
30
0
11
-14.402330167571103
21
-36.732260059910004
31
0
0
LINE
5
184
100
AcDbEntity
8
CUTOUTS
100
AcDbLine
10
4.1690984038568866
20
-36.732260059910004
30
0
11
6.4294247077347606
21
-40.64726005991001
31
0
0
LINE
5
185
100
AcDbEntity
8
CUTOUTS
100
AcDbLine
10
6.4294247077347606
20
-40.64726005991001
30
0
11
4.1690984038568875
21
-44.562260059910002
31
0
0
LINE
5
186
100
AcDbEntity
8
CUTOUTS
100
AcDbLine
10
4.1690984038568875
20
-44.562260059910002
30
0
11
-0.35155420389787917
21
-44.562260059910002
31
0
0
LINE
5
187
100
AcDbEntity
8
CUTOUTS
100
AcDbLine
10
-0.35155420389787917
20
-44.562260059910002
30
0
11
-2.6118805077747727
21
-40.64726005991001
31
0
0
LINE
5
188
100
AcDbEntity
8
CUTOUTS
100
AcDbLine
10
-2.6118805077747727
20
-40.64726005991001
30
0
11
-0.35155420389787945
21
-36.732260059910004
31
0
0
LINE
5
189
100
AcDbEntity
8
CUTOUTS
100
AcDbLine
10
-0.35155420389787945
20
-36.732260059910004
30
0
11
4.1690984038568866
21
-36.732260059910004
31
0
0
LINE
5
18A
100
AcDbEntity
8
CUTOUTS
100
AcDbLine
10
18.219874367531123
20
-44.562260059910002
30
0
11
15.95954806365423
21
-40.64726005991001
31
0
0
LINE
5
18B
100
AcDbEntity
8
CUTOUTS
100
AcDbLine
10
15.95954806365423
20
-40.64726005991001
30
0
11
18.219874367531123
21
-36.732260059910004
31
0
0
LINE
5
18C
100
AcDbEntity
8
CUTOUTS
100
AcDbLine
10
18.219874367531123
20
-36.732260059910004
30
0
11
22.740526975285889
21
-36.732260059910004
31
0
0
LINE
5
18D
100
AcDbEntity
8
CUTOUTS
100
AcDbLine
10
22.740526975285889
20
-36.732260059910004
30
0
11
25.000853279163756
21
-40.64726005991001
31
0
0
LINE
5
18E
100
AcDbEntity
8
CUTOUTS
100
AcDbLine
10
25.000853279163756
20
-40.64726005991001
30
0
11
22.740526975285889
21
-44.562260059910002
31
0
0
LINE
5
18F
100
AcDbEntity
8
CUTOUTS
100
AcDbLine
10
22.740526975285889
20
-44.562260059910002
30
0
11
18.219874367531123
21
-44.562260059910002
31
0
0
LINE
5
190
100
AcDbEntity
8
CUTOUTS
100
AcDbLine
10
-18.922982775318896
20
-25.812260059910002
30
0
11
-21.183309079197741
21
-21.89726005991
31
0
0
LINE
5
191
100
AcDbEntity
8
CUTOUTS
100
AcDbLine
10
-21.183309079197741
20
-21.89726005991
30
0
11
-18.922982775318896
21
-17.982260059910004
31
0
0
LINE
5
192
100
AcDbEntity
8
CUTOUTS
100
AcDbLine
10
-18.922982775318896
20
-17.982260059910004
30
0
11
-14.402330167571105
21
-17.982260059910004
31
0
0
LINE
5
193
100
AcDbEntity
8
CUTOUTS
100
AcDbLine
10
-14.402330167571105
20
-17.982260059910004
30
0
11
-12.142003863692254
21
-21.89726005991
31
0
0
LINE
5
194
100
AcDbEntity
8
CUTOUTS
100
AcDbLine
10
-12.142003863692254
20
-21.89726005991
30
0
11
-14.402330167571105
21
-25.812260059910002
31
0
0
LINE
5
195
100
AcDbEntity
8
CUTOUTS
100
AcDbLine
10
-14.402330167571105
20
-25.812260059910002
30
0
11
-18.922982775318896
21
-25.812260059910002
31
0
0
LINE
5
196
100
AcDbEntity
8
CUTOUTS
100
AcDbLine
10
-2.6118805077747664
20
-21.89726005991
30
0
11
-0.35155420389787473
21
-17.982260059910004
31
0
0
LINE
5
197
100
AcDbEntity
8
CUTOUTS
100
AcDbLine
10
-0.35155420389787473
20
-17.982260059910004
30
0
11
4.1690984038568866
21
-17.982260059910004
31
0
0
LINE
5
198
100
AcDbEntity
8
CUTOUTS
100
AcDbLine
10
4.1690984038568866
20
-17.982260059910004
30
0
11
6.429424707734757
21
-21.89726005991
31
0
0
LINE
5
199
100
AcDbEntity
8
CUTOUTS
100
AcDbLine
10
6.429424707734757
20
-21.89726005991
30
0
11
4.1690984038568866
21
-25.812260059910002
31
0
0
LINE
5
19A
100
AcDbEntity
8
CUTOUTS
100
AcDbLine
10
4.1690984038568866
20
-25.812260059910002
30
0
11
-0.35155420389787528
21
-25.812260059910002
31
0
0
LINE
5
19B
100
AcDbEntity
8
CUTOUTS
100
AcDbLine
10
-0.35155420389787528
20
-25.812260059910002
30
0
11
-2.6118805077747664
21
-21.89726005991
31
0
0
LINE
5
19C
100
AcDbEntity
8
CUTOUTS
100
AcDbLine
10
15.959548063654236
20
-21.89726005991
30
0
11
18.219874367531126
21
-17.982260059910004
31
0
0
LINE
5
19D
100
AcDbEntity
8
CUTOUTS
100
AcDbLine
10
18.219874367531126
20
-17.982260059910004
30
0
11
22.740526975285889
21
-17.982260059910004
31
0
0
LINE
5
19E
100
AcDbEntity
8
CUTOUTS
100
AcDbLine
10
22.740526975285889
20
-17.982260059910004
30
0
11
25.000853279163753
21
-21.89726005991
31
0
0
LINE
5
19F
100
AcDbEntity
8
CUTOUTS
100
AcDbLine
10
25.000853279163753
20
-21.89726005991
30
0
11
22.740526975285889
21
-25.812260059910006
31
0
0
LINE
5
1A0
100
AcDbEntity
8
CUTOUTS
100
AcDbLine
10
22.740526975285889
20
-25.812260059910006
30
0
11
18.219874367531126
21
-25.812260059910002
31
0
0
LINE
5
1A1
100
AcDbEntity
8
CUTOUTS
100
AcDbLine
10
18.219874367531126
20
-25.812260059910002
30
0
11
15.959548063654236
21
-21.89726005991
31
0
0
LINE
5
1A2
100
AcDbEntity
8
CUTOUTS
100
AcDbLine
10
41.311955546714884
20
-36.732260059910004
30
0
11
43.572281850591779
21
-40.64726005991001
31
0
0
LINE
5
1A3
100
AcDbEntity
8
CUTOUTS
100
AcDbLine
10
43.572281850591779
20
-40.64726005991001
30
0
11
41.311955546714884
21
-44.562260059910002
31
0
0
LINE
5
1A4
100
AcDbEntity
8
CUTOUTS
100
AcDbLine
10
41.311955546714884
20
-44.562260059910002
30
0
11
36.791302938960115
21
-44.562260059910002
31
0
0
LINE
5
1A5
100
AcDbEntity
8
CUTOUTS
100
AcDbLine
10
36.791302938960115
20
-44.562260059910002
30
0
11
34.530976635082247
21
-40.64726005991001
31
0
0
LINE
5
1A6
100
AcDbEntity
8
CUTOUTS
100
AcDbLine
10
34.530976635082247
20
-40.64726005991001
30
0
11
36.791302938960115
21
-36.732260059910004
31
0
0
LINE
5
1A7
100
AcDbEntity
8
CUTOUTS
100
AcDbLine
10
36.791302938960115
20
-36.732260059910004
30
0
11
41.311955546714884
21
-36.732260059910004
31
0
0
LINE
5
1A8
100
AcDbEntity
8
CUTOUTS
100
AcDbLine
10
55.362731510388123
20
-36.732260059910004
30
0
11
59.883384118142899
21
-36.732260059910004
31
0
0
LINE
5
1A9
100
AcDbEntity
8
CUTOUTS
100
AcDbLine
10
59.883384118142899
20
-36.732260059910004
30
0
11
62.14371042202076
21
-40.64726005991001
31
0
0
LINE
5
1AA
100
AcDbEntity
8
CUTOUTS
100
AcDbLine
10
62.14371042202076
20
-40.64726005991001
30
0
11
59.883384118142899
21
-44.562260059910002
31
0
0
LINE
5
1AB
100
AcDbEntity
8
CUTOUTS
100
AcDbLine
10
59.883384118142899
20
-44.562260059910002
30
0
11
55.362731510388123
21
-44.562260059910002
31
0
0
LINE
5
1AC
100
AcDbEntity
8
CUTOUTS
100
AcDbLine
10
55.362731510388123
20
-44.562260059910002
30
0
11
53.102405206511222
21
-40.64726005991001
31
0
0
LINE
5
1AD
100
AcDbEntity
8
CUTOUTS
100
AcDbLine
10
53.102405206511222
20
-40.64726005991001
30
0
11
55.362731510388123
21
-36.732260059910004
31
0
0
LINE
5
1AE
100
AcDbEntity
8
CUTOUTS
100
AcDbLine
10
78.454812689571881
20
-36.732260059910004
30
0
11
80.715138993448775
21
-40.64726005991001
31
0
0
LINE
5
1AF
100
AcDbEntity
8
CUTOUTS
100
AcDbLine
10
80.715138993448775
20
-40.64726005991001
30
0
11
78.454812689571881
21
-44.562260059910002
31
0
0
LINE
5
1B0
100
AcDbEntity
8
CUTOUTS
100
AcDbLine
10
78.454812689571881
20
-44.562260059910002
30
0
11
73.934160081817112
21
-44.562260059910002
31
0
0
LINE
5
1B1
100
AcDbEntity
8
CUTOUTS
100
AcDbLine
10
73.934160081817112
20
-44.562260059910002
30
0
11
71.673833777939237
21
-40.64726005991001
31
0
0
LINE
5
1B2
100
AcDbEntity
8
CUTOUTS
100
AcDbLine
10
71.673833777939237
20
-40.64726005991001
30
0
11
73.934160081817112
21
-36.732260059909997
31
0
0
LINE
5
1B3
100
AcDbEntity
8
CUTOUTS
100
AcDbLine
10
73.934160081817112
20
-36.732260059909997
30
0
11
78.454812689571881
21
-36.732260059910004
31
0
0
LINE
5
1B4
100
AcDbEntity
8
CUTOUTS
100
AcDbLine
10
97.026241260999882
20
-36.732260059910004
30
0
11
99.286567564877757
21
-40.64726005991001
31
0
0
LINE
5
1B5
100
AcDbEntity
8
CUTOUTS
100
AcDbLine
10
99.286567564877757
20
-40.64726005991001
30
0
11
97.026241260999882
21
-44.562260059910002
31
0
0
LINE
5
1B6
100
AcDbEntity
8
CUTOUTS
100
AcDbLine
10
97.026241260999882
20
-44.562260059910002
30
0
11
92.505588653245127
21
-44.562260059910002
31
0
0
LINE
5
1B7
100
AcDbEntity
8
CUTOUTS
100
AcDbLine
10
92.505588653245127
20
-44.562260059910002
30
0
11
90.245262349368232
21
-40.64726005991001
31
0
0
LINE
5
1B8
100
AcDbEntity
8
CUTOUTS
100
AcDbLine
10
90.245262349368232
20
-40.64726005991001
30
0
11
92.505588653245127
21
-36.732260059910004
31
0
0
LINE
5
1B9
100
AcDbEntity
8
CUTOUTS
100
AcDbLine
10
92.505588653245127
20
-36.732260059910004
30
0
11
97.026241260999882
21
-36.732260059910004
31
0
0
LINE
5
1BA
100
AcDbEntity
8
CUTOUTS
100
AcDbLine
10
36.791302938960122
20
-17.982260059910001
30
0
11
41.31195554671487
21
-17.982260059910004
31
0
0
LINE
5
1BB
100
AcDbEntity
8
CUTOUTS
100
AcDbLine
10
41.31195554671487
20
-17.982260059910004
30
0
11
43.572281850591764
21
-21.89726005991
31
0
0
LINE
5
1BC
100
AcDbEntity
8
CUTOUTS
100
AcDbLine
10
43.572281850591764
20
-21.89726005991
30
0
11
41.311955546714863
21
-25.812260059910006
31
0
0
LINE
5
1BD
100
AcDbEntity
8
CUTOUTS
100
AcDbLine
10
41.311955546714863
20
-25.812260059910006
30
0
11
36.791302938960115
21
-25.812260059910002
31
0
0
LINE
5
1BE
100
AcDbEntity
8
CUTOUTS
100
AcDbLine
10
36.791302938960115
20
-25.812260059910002
30
0
11
34.530976635082247
21
-21.89726005991
31
0
0
LINE
5
1BF
100
AcDbEntity
8
CUTOUTS
100
AcDbLine
10
34.530976635082247
20
-21.89726005991
30
0
11
36.791302938960122
21
-17.982260059910001
31
0
0
LINE
5
1C0
100
AcDbEntity
8
CUTOUTS
100
AcDbLine
10
55.362731510388137
20
-17.982260059910001
30
0
11
59.883384118142892
21
-17.982260059910004
31
0
0
LINE
5
1C1
100
AcDbEntity
8
CUTOUTS
100
AcDbLine
10
59.883384118142892
20
-17.982260059910004
30
0
11
62.143710422020753
21
-21.89726005991
31
0
0
LINE
5
1C2
100
AcDbEntity
8
CUTOUTS
100
AcDbLine
10
62.143710422020753
20
-21.89726005991
30
0
11
59.883384118142892
21
-25.812260059910002
31
0
0
LINE
5
1C3
100
AcDbEntity
8
CUTOUTS
100
AcDbLine
10
59.883384118142892
20
-25.812260059910002
30
0
11
55.36273151038813
21
-25.812260059910002
31
0
0
LINE
5
1C4
100
AcDbEntity
8
CUTOUTS
100
AcDbLine
10
55.36273151038813
20
-25.812260059910002
30
0
11
53.102405206511243
21
-21.89726005991
31
0
0
LINE
5
1C5
100
AcDbEntity
8
CUTOUTS
100
AcDbLine
10
53.102405206511243
20
-21.89726005991
30
0
11
55.362731510388137
21
-17.982260059910001
31
0
0
LINE
5
1C6
100
AcDbEntity
8
CUTOUTS
100
AcDbLine
10
73.934160081817112
20
-25.812260059910002
30
0
11
71.673833777939251
21
-21.89726005991
31
0
0
LINE
5
1C7
100
AcDbEntity
8
CUTOUTS
100
AcDbLine
10
71.673833777939251
20
-21.89726005991
30
0
11
73.934160081817112
21
-17.982260059910004
31
0
0
LINE
5
1C8
100
AcDbEntity
8
CUTOUTS
100
AcDbLine
10
73.934160081817112
20
-17.982260059910004
30
0
11
78.454812689571881
21
-17.982260059910004
31
0
0
LINE
5
1C9
100
AcDbEntity
8
CUTOUTS
100
AcDbLine
10
78.454812689571881
20
-17.982260059910004
30
0
11
80.715138993448775
21
-21.89726005991001
31
0
0
LINE
5
1CA
100
AcDbEntity
8
CUTOUTS
100
AcDbLine
10
80.715138993448775
20
-21.89726005991001
30
0
11
78.454812689571881
21
-25.812260059910002
31
0
0
LINE
5
1CB
100
AcDbEntity
8
CUTOUTS
100
AcDbLine
10
78.454812689571881
20
-25.812260059910002
30
0
11
73.934160081817112
21
-25.812260059910002
31
0
0
LINE
5
1CC
100
AcDbEntity
8
CUTOUTS
100
AcDbLine
10
92.505588653245127
20
-17.982260059910001
30
0
11
97.026241260999882
21
-17.982260059910004
31
0
0
LINE
5
1CD
100
AcDbEntity
8
CUTOUTS
100
AcDbLine
10
97.026241260999882
20
-17.982260059910004
30
0
11
99.286567564877757
21
-21.897260059910003
31
0
0
LINE
5
1CE
100
AcDbEntity
8
CUTOUTS
100
AcDbLine
10
99.286567564877757
20
-21.897260059910003
30
0
11
97.026241260999882
21
-25.812260059910006
31
0
0
LINE
5
1CF
100
AcDbEntity
8
CUTOUTS
100
AcDbLine
10
97.026241260999882
20
-25.812260059910006
30
0
11
92.505588653245127
21
-25.812260059910002
31
0
0
LINE
5
1D0
100
AcDbEntity
8
CUTOUTS
100
AcDbLine
10
92.505588653245127
20
-25.812260059910002
30
0
11
90.245262349368232
21
-21.89726005991
31
0
0
LINE
5
1D1
100
AcDbEntity
8
CUTOUTS
100
AcDbLine
10
90.245262349368232
20
-21.89726005991
30
0
11
92.505588653245127
21
-17.982260059910001
31
0
0
LINE
5
1D2
100
AcDbEntity
8
PERIMETER
100
AcDbLine
10
105.80354137503001
20
-114.9822600599
30
0
11
105.80354137503001
21
-14.812260059909992
31
0
0
LINE
5
1D3
100
AcDbEntity
8
PERIMETER
100
AcDbLine
10
105.80354137503001
20
-14.812260059909992
30
0
11
-24.366458624960003
21
-14.812260059910001
31
0
0
LINE
5
1D4
100
AcDbEntity
8
PERIMETER
100
AcDbLine
10
-24.366458624960003
20
-14.812260059910001
30
0
11
-24.36645862496
21
-114.98226005990003
31
0
0
LINE
5
1D5
100
AcDbEntity
8
PERIMETER
100
AcDbLine
10
-24.36645862496
20
-114.98226005990003
30
0
11
105.80354137503001
21
-114.9822600599
31
0
0
ENDSEC
0
SECTION
2
OBJECTS
0
DICTIONARY
5
C
100
AcDbDictionary
3
ACAD_GROUP
350
D
3
ACAD_MLINESTYLE
350
17
0
DICTIONARY
5
D
100
AcDbDictionary
0
DICTIONARY
5
1A
330
C
100
AcDbDictionary
0
DICTIONARY
5
17
100
AcDbDictionary
0
ENDSEC
0
EOF
