0
SECTION
2
HEADER
9
$INSUNITS
70
4
9
$ACADVER
1
AC1014
9
$HANDSEED
5
FFFF
0
ENDSEC
0
SECTION
2
TABLES
0
TABLE
2
VPORT
5
8
100
AcDbSymbolTable
0
ENDTAB
0
TABLE
2
LTYPE
5
5
100
AcDbSymbolTable
70
2
0
LTYPE
5
14
100
AcDbSymbolTableRecord
100
AcDbLinetypeTableRecord
2
BYBLOCK
70
0
0
LTYPE
5
15
100
AcDbSymbolTableRecord
100
AcDbLinetypeTableRecord
2
BYLAYER
70
0
0
ENDTAB
0
TABLE
2
LAYER
5
2
100
AcDbSymbolTable
70
3
0
LAYER
5
50
100
AcDbSymbolTableRecord
100
AcDbLayerTableRecord
2
0
70
0
6
CONTINUOUS
0
LAYER
5
51
100
AcDbSymbolTableRecord
100
AcDbLayerTableRecord
2
CUTOUTS
70
0
62
1
6
CONTINUOUS
0
LAYER
5
52
100
AcDbSymbolTableRecord
100
AcDbLayerTableRecord
2
PERIMETER
70
0
62
5
6
CONTINUOUS
0
ENDTAB
0
TABLE
2
STYLE
5
3
100
AcDbSymbolTable
70
1
0
STYLE
5
11
100
AcDbSymbolTableRecord
100
AcDbTextStyleTableRecord
2
STANDARD
70
0
0
ENDTAB
0
TABLE
2
VIEW
5
6
100
AcDbSymbolTable
0
ENDTAB
0
TABLE
2
UCS
5
7
100
AcDbSymbolTable
0
ENDTAB
0
TABLE
2
APPID
5
9
100
AcDbSymbolTable
70
1
0
APPID
5
12
100
AcDbSymbolTableRecord
100
AcDbRegAppTableRecord
2
ACAD
70
0
0
ENDTAB
0
TABLE
2
DIMSTYLE
5
A
100
AcDbSymbolTable
0
ENDTAB
0
TABLE
2
BLOCK_RECORD
5
1
100
AcDbSymbolTable
70
2
0
BLOCK_RECORD
5
1F
100
AcDbSymbolTableRecord
100
AcDbBlockTableRecord
2
*MODEL_SPACE
0
BLOCK_RECORD
5
1B
100
AcDbSymbolTableRecord
100
AcDbBlockTableRecord
2
*PAPER_SPACE
0
ENDTAB
0
ENDSEC
0
SECTION
2
BLOCKS
0
BLOCK
5
20
100
AcDbEntity
100
AcDbBlockBegin
2
*MODEL_SPACE
0
ENDBLK
5
21
100
AcDbEntity
100
AcDbBlockEnd
0
BLOCK
5
1C
100
AcDbEntity
100
AcDbBlockBegin
2
*PAPER_SPACE
0
ENDBLK
5
1D
100
AcDbEntity
100
AcDbBlockEnd
0
ENDSEC
0
SECTION
2
ENTITIES
0
LINE
5
100
100
AcDbEntity
8
CUTOUTS
100
AcDbLine
10
-14.558214740246855
20
-93.012260059909991
30
0
11
-12.361396965983607
21
-96.817260059909941
31
0
0
LINE
5
101
100
AcDbEntity
8
CUTOUTS
100
AcDbLine
10
-12.361396965983607
20
-96.817260059909941
30
0
11
-14.558214740246772
21
-100.6222600599
31
0
0
LINE
5
102
100
AcDbEntity
8
CUTOUTS
100
AcDbLine
10
-14.558214740246772
20
-100.6222600599
30
0
11
-18.951850288783231
21
-100.6222600599
31
0
0
LINE
5
103
100
AcDbEntity
8
CUTOUTS
100
AcDbLine
10
-18.951850288783231
20
-100.6222600599
30
0
11
-21.148668063046394
21
-96.817260059909941
31
0
0
LINE
5
104
100
AcDbEntity
8
CUTOUTS
100
AcDbLine
10
-21.148668063046394
20
-96.817260059909941
30
0
11
-18.951850288783142
21
-93.012260059909991
31
0
0
LINE
5
105
100
AcDbEntity
8
CUTOUTS
100
AcDbLine
10
-18.951850288783142
20
-93.012260059909991
30
0
11
-14.558214740246855
21
-93.012260059909991
31
0
0
LINE
5
106
100
AcDbEntity
8
CUTOUTS
100
AcDbLine
10
4.0132138311761913
20
-93.012260059909991
30
0
11
6.2100316054423548
21
-96.817260059909941
31
0
0
LINE
5
107
100
AcDbEntity
8
CUTOUTS
100
AcDbLine
10
6.2100316054423548
20
-96.817260059909941
30
0
11
4.0132138311762775
21
-100.6222600599
31
0
0
LINE
5
108
100
AcDbEntity
8
CUTOUTS
100
AcDbLine
10
4.0132138311762775
20
-100.6222600599
30
0
11
-0.3804217173572777
21
-100.6222600599
31
0
0
LINE
5
109
100
AcDbEntity
8
CUTOUTS
100
AcDbLine
10
-0.38042171735727759
20
-100.6222600599
30
0
11
-2.5772394916233532
21
-96.817260059909941
31
0
0
LINE
5
10A
100
AcDbEntity
8
CUTOUTS
100
AcDbLine
10
-2.5772394916233532
20
-96.817260059909941
30
0
11
-0.38042171735719027
21
-93.012260059909991
31
0
0
LINE
5
10B
100
AcDbEntity
8
CUTOUTS
100
AcDbLine
10
-0.38042171735719027
20
-93.012260059909991
30
0
11
4.0132138311761913
21
-93.012260059909991
31
0
0
LINE
5
10C
100
AcDbEntity
8
CUTOUTS
100
AcDbLine
10
22.584642402605191
20
-93.012260059909991
30
0
11
24.781460176871356
21
-96.817260059909941
31
0
0
LINE
5
10D
100
AcDbEntity
8
CUTOUTS
100
AcDbLine
10
24.781460176871356
20
-96.817260059909941
30
0
11
22.584642402605276
21
-100.6222600599
31
0
0
LINE
5
10E
100
AcDbEntity
8
CUTOUTS
100
AcDbLine
10
22.584642402605276
20
-100.6222600599
30
0
11
18.191006854071723
21
-100.6222600599
31
0
0
LINE
5
10F
100
AcDbEntity
8
CUTOUTS
100
AcDbLine
10
18.191006854071723
20
-100.6222600599
30
0
11
15.994189079805651
21
-96.817260059909941
31
0
0
LINE
5
110
100
AcDbEntity
8
CUTOUTS
100
AcDbLine
10
15.994189079805651
20
-96.817260059909941
30
0
11
18.191006854071809
21
-93.012260059909991
31
0
0
LINE
5
111
100
AcDbEntity
8
CUTOUTS
100
AcDbLine
10
18.191006854071809
20
-93.012260059909991
30
0
11
22.584642402605191
21
-93.012260059909991
31
0
0
LINE
5
112
100
AcDbEntity
8
CUTOUTS
100
AcDbLine
10
-18.951850288783142
20
-74.262260059909991
30
0
11
-14.558214740246855
21
-74.262260059909991
31
0
0
LINE
5
113
100
AcDbEntity
8
CUTOUTS
100
AcDbLine
10
-14.558214740246855
20
-74.262260059909991
30
0
11
-12.361396965983564
21
-78.067260059909998
31
0
0
LINE
5
114
100
AcDbEntity
8
CUTOUTS
100
AcDbLine
10
-12.361396965983564
20
-78.067260059909998
30
0
11
-14.558214740246855
21
-81.872260059910005
31
0
0
LINE
5
115
100
AcDbEntity
8
CUTOUTS
100
AcDbLine
10
-14.558214740246855
20
-81.872260059910005
30
0
11
-18.951850288783145
21
-81.872260059910005
31
0
0
LINE
5
116
100
AcDbEntity
8
CUTOUTS
100
AcDbLine
10
-18.951850288783145
20
-81.872260059910005
30
0
11
-21.148668063046436
21
-78.067260059909998
31
0
0
LINE
5
117
100
AcDbEntity
8
CUTOUTS
100
AcDbLine
10
-21.148668063046436
20
-78.067260059909998
30
0
11
-18.951850288783142
21
-74.262260059909991
31
0
0
LINE
5
118
100
AcDbEntity
8
CUTOUTS
100
AcDbLine
10
4.0132138311761896
20
-74.262260059909991
30
0
11
6.2100316054423939
21
-78.067260059909998
31
0
0
LINE
5
119
100
AcDbEntity
8
CUTOUTS
100
AcDbLine
10
6.2100316054423939
20
-78.067260059909998
30
0
11
4.0132138311761905
21
-81.872260059910005
31
0
0
LINE
5
11A
100
AcDbEntity
8
CUTOUTS
100
AcDbLine
10
4.0132138311761905
20
-81.872260059910005
30
0
11
-0.38042171735719055
21
-81.872260059910005
31
0
0
LINE
5
11B
100
AcDbEntity
8
CUTOUTS
100
AcDbLine
10
-0.38042171735719066
20
-81.872260059910005
30
0
11
-2.5772394916233936
21
-78.067260059909998
31
0
0
LINE
5
11C
100
AcDbEntity
8
CUTOUTS
100
AcDbLine
10
-2.5772394916233936
20
-78.067260059909998
30
0
11
-0.38042171735719083
21
-74.262260059909991
31
0
0
LINE
5
11D
100
AcDbEntity
8
CUTOUTS
100
AcDbLine
10
-0.38042171735719083
20
-74.262260059909991
30
0
11
4.0132138311761896
21
-74.262260059909991
31
0
0
LINE
5
11E
100
AcDbEntity
8
CUTOUTS
100
AcDbLine
10
-14.558214740246855
20
-63.122260059910005
30
0
11
-18.951850288783145
21
-63.122260059910005
31
0
0
LINE
5
11F
100
AcDbEntity
8
CUTOUTS
100
AcDbLine
10
-18.951850288783145
20
-63.122260059910005
30
0
11
-21.148668063046436
21
-59.317260059909998
31
0
0
LINE
5
120
100
AcDbEntity
8
CUTOUTS
100
AcDbLine
10
-21.148668063046436
20
-59.317260059909998
30
0
11
-18.951850288783142
21
-55.512260059910005
31
0
0
LINE
5
121
100
AcDbEntity
8
CUTOUTS
100
AcDbLine
10
-18.951850288783142
20
-55.512260059910005
30
0
11
-14.558214740246855
21
-55.512260059910005
31
0
0
LINE
5
122
100
AcDbEntity
8
CUTOUTS
100
AcDbLine
10
-14.558214740246855
20
-55.512260059910005
30
0
11
-12.361396965983564
21
-59.317260059909998
31
0
0
LINE
5
123
100
AcDbEntity
8
CUTOUTS
100
AcDbLine
10
-12.361396965983564
20
-59.317260059909998
30
0
11
-14.558214740246855
21
-63.122260059910005
31
0
0
LINE
5
124
100
AcDbEntity
8
CUTOUTS
100
AcDbLine
10
4.0132138311761913
20
-55.512260059910005
30
0
11
6.2100316054423939
21
-59.317260059909998
31
0
0
LINE
5
125
100
AcDbEntity
8
CUTOUTS
100
AcDbLine
10
6.2100316054423939
20
-59.317260059909998
30
0
11
4.0132138311761905
21
-63.122260059910005
31
0
0
LINE
5
126
100
AcDbEntity
8
CUTOUTS
100
AcDbLine
10
4.0132138311761905
20
-63.122260059910005
30
0
11
-0.38042171735719055
21
-63.122260059910005
31
0
0
LINE
5
127
100
AcDbEntity
8
CUTOUTS
100
AcDbLine
10
-0.38042171735719066
20
-63.122260059910005
30
0
11
-2.5772394916233936
21
-59.317260059909998
31
0
0
LINE
5
128
100
AcDbEntity
8
CUTOUTS
100
AcDbLine
10
-2.5772394916233936
20
-59.317260059909998
30
0
11
-0.38042171735719083
21
-55.512260059910005
31
0
0
LINE
5
129
100
AcDbEntity
8
CUTOUTS
100
AcDbLine
10
-0.38042171735719083
20
-55.512260059910005
30
0
11
4.0132138311761913
21
-55.512260059910005
31
0
0
LINE
5
12A
100
AcDbEntity
8
CUTOUTS
100
AcDbLine
10
18.191006854071809
20
-74.262260059909991
30
0
11
22.584642402605191
21
-74.262260059909991
31
0
0
LINE
5
12B
100
AcDbEntity
8
CUTOUTS
100
AcDbLine
10
22.584642402605191
20
-74.262260059909991
30
0
11
24.781460176871398
21
-78.067260059909998
31
0
0
LINE
5
12C
100
AcDbEntity
8
CUTOUTS
100
AcDbLine
10
24.781460176871398
20
-78.067260059909998
30
0
11
22.584642402605191
21
-81.872260059910005
31
0
0
LINE
5
12D
100
AcDbEntity
8
CUTOUTS
100
AcDbLine
10
22.584642402605191
20
-81.872260059910005
30
0
11
18.191006854071809
21
-81.872260059910005
31
0
0
LINE
5
12E
100
AcDbEntity
8
CUTOUTS
100
AcDbLine
10
18.191006854071809
20
-81.872260059910005
30
0
11
15.994189079805608
21
-78.067260059909998
31
0
0
LINE
5
12F
100
AcDbEntity
8
CUTOUTS
100
AcDbLine
10
15.994189079805608
20
-78.067260059909998
30
0
11
18.191006854071809
21
-74.262260059909991
31
0
0
LINE
5
130
100
AcDbEntity
8
CUTOUTS
100
AcDbLine
10
22.584642402605191
20
-55.512260059910005
30
0
11
24.781460176871395
21
-59.317260059909998
31
0
0
LINE
5
131
100
AcDbEntity
8
CUTOUTS
100
AcDbLine
10
24.781460176871395
20
-59.317260059909998
30
0
11
22.584642402605191
21
-63.122260059910005
31
0
0
LINE
5
132
100
AcDbEntity
8
CUTOUTS
100
AcDbLine
10
22.584642402605191
20
-63.122260059910005
30
0
11
18.191006854071809
21
-63.122260059910005
31
0
0
LINE
5
133
100
AcDbEntity
8
CUTOUTS
100
AcDbLine
10
18.191006854071809
20
-63.122260059910005
30
0
11
15.994189079805608
21
-59.317260059909998
31
0
0
LINE
5
134
100
AcDbEntity
8
CUTOUTS
100
AcDbLine
10
15.994189079805608
20
-59.317260059909998
30
0
11
18.191006854071809
21
-55.512260059910005
31
0
0
LINE
5
135
100
AcDbEntity
8
CUTOUTS
100
AcDbLine
10
18.191006854071809
20
-55.512260059910005
30
0
11
22.584642402605191
21
-55.512260059910005
31
0
0
LINE
5
136
100
AcDbEntity
8
CUTOUTS
100
AcDbLine
10
36.762435425499724
20
-100.6222600599
30
0
11
34.565617651233651
21
-96.817260059909941
31
0
0
LINE
5
137
100
AcDbEntity
8
CUTOUTS
100
AcDbLine
10
34.565617651233651
20
-96.817260059909941
30
0
11
36.76243542549981
21
-93.012260059909991
31
0
0
LINE
5
138
100
AcDbEntity
8
CUTOUTS
100
AcDbLine
10
36.76243542549981
20
-93.012260059909991
30
0
11
41.156070974033199
21
-93.012260059909991
31
0
0
LINE
5
139
100
AcDbEntity
8
CUTOUTS
100
AcDbLine
10
41.156070974033199
20
-93.012260059909991
30
0
11
43.352888748299357
21
-96.817260059909941
31
0
0
LINE
5
13A
100
AcDbEntity
8
CUTOUTS
100
AcDbLine
10
43.352888748299357
20
-96.817260059909941
30
0
11
41.156070974033284
21
-100.6222600599
31
0
0
LINE
5
13B
100
AcDbEntity
8
CUTOUTS
100
AcDbLine
10
41.156070974033284
20
-100.6222600599
30
0
11
36.762435425499724
21
-100.6222600599
31
0
0
LINE
5
13C
100
AcDbEntity
8
CUTOUTS
100
AcDbLine
10
59.727499545462194
20
-93.012260059909991
30
0
11
61.92431731972836
21
-96.817260059909941
31
0
0
LINE
5
13D
100
AcDbEntity
8
CUTOUTS
100
AcDbLine
10
61.92431731972836
20
-96.817260059909941
30
0
11
59.72749954546228
21
-100.6222600599
31
0
0
LINE
5
13E
100
AcDbEntity
8
CUTOUTS
100
AcDbLine
10
59.72749954546228
20
-100.6222600599
30
0
11
55.333863996928727
21
-100.6222600599
31
0
0
LINE
5
13F
100
AcDbEntity
8
CUTOUTS
100
AcDbLine
10
55.333863996928727
20
-100.6222600599
30
0
11
53.137046222662647
21
-96.817260059909941
31
0
0
LINE
5
140
100
AcDbEntity
8
CUTOUTS
100
AcDbLine
10
53.137046222662647
20
-96.817260059909941
30
0
11
55.333863996928812
21
-93.012260059909991
31
0
0
LINE
5
141
100
AcDbEntity
8
CUTOUTS
100
AcDbLine
10
55.333863996928812
20
-93.012260059909991
30
0
11
59.727499545462194
21
-93.012260059909991
31
0
0
LINE
5
142
100
AcDbEntity
8
CUTOUTS
100
AcDbLine
10
71.708474794090662
20
-96.817260059909941
30
0
11
73.905292568357794
21
-93.012260059909991
31
0
0
LINE
5
143
100
AcDbEntity
8
CUTOUTS
100
AcDbLine
10
73.905292568357794
20
-93.012260059909991
30
0
11
78.29892811689021
21
-93.012260059909991
31
0
0
LINE
5
144
100
AcDbEntity
8
CUTOUTS
100
AcDbLine
10
78.29892811689021
20
-93.012260059909991
30
0
11
80.495745891157355
21
-96.817260059909955
31
0
0
LINE
5
145
100
AcDbEntity
8
CUTOUTS
100
AcDbLine
10
80.495745891157355
20
-96.817260059909955
30
0
11
78.298928116890309
21
-100.6222600599
31
0
0
LINE
5
146
100
AcDbEntity
8
CUTOUTS
100
AcDbLine
10
78.298928116890309
20
-100.6222600599
30
0
11
73.905292568357709
21
-100.6222600599
31
0
0
LINE
5
147
100
AcDbEntity
8
CUTOUTS
100
AcDbLine
10
73.905292568357709
20
-100.6222600599
30
0
11
71.708474794090662
21
-96.817260059909941
31
0
0
LINE
5
148
100
AcDbEntity
8
CUTOUTS
100
AcDbLine
10
99.067174462585342
20
-96.817260059909955
30
0
11
96.870356688319276
21
-100.6222600599
31
0
0
LINE
5
149
100
AcDbEntity
8
CUTOUTS
100
AcDbLine
10
96.870356688319276
20
-100.6222600599
30
0
11
92.476721139785724
21
-100.6222600599
31
0
0
LINE
5
14A
100
AcDbEntity
8
CUTOUTS
100
AcDbLine
10
92.476721139785724
20
-100.6222600599
30
0
11
90.279903365519658
21
-96.817260059909941
31
0
0
LINE
5
14B
100
AcDbEntity
8
CUTOUTS
100
AcDbLine
10
90.279903365519658
20
-96.817260059909941
30
0
11
92.476721139785809
21
-93.012260059909991
31
0
0
LINE
5
14C
100
AcDbEntity
8
CUTOUTS
100
AcDbLine
10
92.476721139785809
20
-93.012260059909991
30
0
11
96.870356688319177
21
-93.012260059909991
31
0
0
LINE
5
14D
100
AcDbEntity
8
CUTOUTS
100
AcDbLine
10
96.870356688319177
20
-93.012260059909991
30
0
11
99.067174462585342
21
-96.817260059909955
31
0
0
LINE
5
14E
100
AcDbEntity
8
CUTOUTS
100
AcDbLine
10
41.156070974033199
20
-74.262260059909991
30
0
11
43.352888748299392
21
-78.067260059909998
31
0
0
LINE
5
14F
100
AcDbEntity
8
CUTOUTS
100
AcDbLine
10
43.352888748299392
20
-78.067260059909998
30
0
11
41.156070974033199
21
-81.872260059910005
31
0
0
LINE
5
150
100
AcDbEntity
8
CUTOUTS
100
AcDbLine
10
41.156070974033199
20
-81.872260059910005
30
0
11
36.76243542549981
21
-81.872260059910005
31
0
0
LINE
5
151
100
AcDbEntity
8
CUTOUTS
100
AcDbLine
10
36.76243542549981
20
-81.872260059910005
30
0
11
34.565617651233602
21
-78.067260059909998
31
0
0
LINE
5
152
100
AcDbEntity
8
CUTOUTS
100
AcDbLine
10
34.565617651233602
20
-78.067260059909998
30
0
11
36.76243542549981
21
-74.262260059909991
31
0
0
LINE
5
153
100
AcDbEntity
8
CUTOUTS
100
AcDbLine
10
36.76243542549981
20
-74.262260059909991
30
0
11
41.156070974033199
21
-74.262260059909991
31
0
0
LINE
5
154
100
AcDbEntity
8
CUTOUTS
100
AcDbLine
10
61.924317319728395
20
-78.067260059909998
30
0
11
59.727499545462194
21
-81.872260059910005
31
0
0
LINE
5
155
100
AcDbEntity
8
CUTOUTS
100
AcDbLine
10
59.727499545462194
20
-81.872260059910005
30
0
11
55.333863996928812
21
-81.872260059910005
31
0
0
LINE
5
156
100
AcDbEntity
8
CUTOUTS
100
AcDbLine
10
55.333863996928812
20
-81.872260059910005
30
0
11
53.137046222662612
21
-78.067260059909998
31
0
0
LINE
5
157
100
AcDbEntity
8
CUTOUTS
100
AcDbLine
10
53.137046222662612
20
-78.067260059909998
30
0
11
55.333863996928812
21
-74.262260059909991
31
0
0
LINE
5
158
100
AcDbEntity
8
CUTOUTS
100
AcDbLine
10
55.333863996928812
20
-74.262260059909991
30
0
11
59.727499545462194
21
-74.262260059909991
31
0
0
LINE
5
159
100
AcDbEntity
8
CUTOUTS
100
AcDbLine
10
59.727499545462194
20
-74.262260059909991
30
0
11
61.924317319728395
21
-78.067260059909998
31
0
0
LINE
5
15A
100
AcDbEntity
8
CUTOUTS
100
AcDbLine
10
36.76243542549981
20
-55.512260059910005
30
0
11
41.156070974033199
21
-55.512260059910005
31
0
0
LINE
5
15B
100
AcDbEntity
8
CUTOUTS
100
AcDbLine
10
41.156070974033199
20
-55.512260059910005
30
0
11
43.352888748299392
21
-59.317260059909998
31
0
0
LINE
5
15C
100
AcDbEntity
8
CUTOUTS
100
AcDbLine
10
43.352888748299392
20
-59.317260059909998
30
0
11
41.156070974033199
21
-63.122260059910005
31
0
0
LINE
5
15D
100
AcDbEntity
8
CUTOUTS
100
AcDbLine
10
41.156070974033199
20
-63.122260059910005
30
0
11
36.76243542549981
21
-63.122260059910005
31
0
0
LINE
5
15E
100
AcDbEntity
8
CUTOUTS
100
AcDbLine
10
36.76243542549981
20
-63.122260059910005
30
0
11
34.565617651233609
21
-59.317260059909998
31
0
0
LINE
5
15F
100
AcDbEntity
8
CUTOUTS
100
AcDbLine
10
34.565617651233609
20
-59.317260059909998
30
0
11
36.76243542549981
21
-55.512260059910005
31
0
0
LINE
5
160
100
AcDbEntity
8
CUTOUTS
100
AcDbLine
10
59.727499545462194
20
-55.512260059910005
30
0
11
61.924317319728395
21
-59.317260059909998
31
0
0
LINE
5
161
100
AcDbEntity
8
CUTOUTS
100
AcDbLine
10
61.924317319728395
20
-59.317260059909998
30
0
11
59.727499545462194
21
-63.122260059910005
31
0
0
LINE
5
162
100
AcDbEntity
8
CUTOUTS
100
AcDbLine
10
59.727499545462194
20
-63.122260059910005
30
0
11
55.333863996928812
21
-63.122260059910005
31
0
0
LINE
5
163
100
AcDbEntity
8
CUTOUTS
100
AcDbLine
10
55.333863996928812
20
-63.122260059910005
30
0
11
53.137046222662612
21
-59.317260059909998
31
0
0
LINE
5
164
100
AcDbEntity
8
CUTOUTS
100
AcDbLine
10
53.137046222662612
20
-59.317260059909998
30
0
11
55.333863996928812
21
-55.512260059910005
31
0
0
LINE
5
165
100
AcDbEntity
8
CUTOUTS
100
AcDbLine
10
55.333863996928812
20
-55.512260059910005
30
0
11
59.727499545462194
21
-55.512260059910005
31
0
0
LINE
5
166
100
AcDbEntity
8
CUTOUTS
100
AcDbLine
10
71.708474794090634
20
-78.067260059909998
30
0
11
73.905292568357794
21
-74.262260059909991
31
0
0
LINE
5
167
100
AcDbEntity
8
CUTOUTS
100
AcDbLine
10
73.905292568357794
20
-74.262260059909991
30
0
11
78.29892811689021
21
-74.262260059909991
31
0
0
LINE
5
168
100
AcDbEntity
8
CUTOUTS
100
AcDbLine
10
78.29892811689021
20
-74.262260059909991
30
0
11
80.495745891157384
21
-78.067260059909998
31
0
0
LINE
5
169
100
AcDbEntity
8
CUTOUTS
100
AcDbLine
10
80.495745891157384
20
-78.067260059909998
30
0
11
78.298928116890224
21
-81.872260059910005
31
0
0
LINE
5
16A
100
AcDbEntity
8
CUTOUTS
100
AcDbLine
10
78.298928116890224
20
-81.872260059910005
30
0
11
73.905292568357794
21
-81.872260059910005
31
0
0
LINE
5
16B
100
AcDbEntity
8
CUTOUTS
100
AcDbLine
10
73.905292568357794
20
-81.872260059910005
30
0
11
71.708474794090634
21
-78.067260059909998
31
0
0
LINE
5
16C
100
AcDbEntity
8
CUTOUTS
100
AcDbLine
10
92.476721139785823
20
-81.872260059910005
30
0
11
90.27990336551963
21
-78.067260059909998
31
0
0
LINE
5
16D
100
AcDbEntity
8
CUTOUTS
100
AcDbLine
10
90.27990336551963
20
-78.067260059909998
30
0
11
92.476721139785823
21
-74.262260059909991
31
0
0
LINE
5
16E
100
AcDbEntity
8
CUTOUTS
100
AcDbLine
10
92.476721139785823
20
-74.262260059909991
30
0
11
96.870356688319177
21
-74.262260059909991
31
0
0
LINE
5
16F
100
AcDbEntity
8
CUTOUTS
100
AcDbLine
10
96.870356688319177
20
-74.262260059909991
30
0
11
99.067174462585385
21
-78.067260059910012
31
0
0
LINE
5
170
100
AcDbEntity
8
CUTOUTS
100
AcDbLine
10
99.067174462585385
20
-78.067260059910012
30
0
11
96.870356688319191
21
-81.872260059910005
31
0
0
LINE
5
171
100
AcDbEntity
8
CUTOUTS
100
AcDbLine
10
96.870356688319191
20
-81.872260059910005
30
0
11
92.476721139785823
21
-81.872260059910005
31
0
0
LINE
5
172
100
AcDbEntity
8
CUTOUTS
100
AcDbLine
10
78.298928116890224
20
-63.122260059910005
30
0
11
73.905292568357794
21
-63.122260059910005
31
0
0
LINE
5
173
100
AcDbEntity
8
CUTOUTS
100
AcDbLine
10
73.905292568357794
20
-63.122260059910005
30
0
11
71.708474794090634
21
-59.317260059909998
31
0
0
LINE
5
174
100
AcDbEntity
8
CUTOUTS
100
AcDbLine
10
71.708474794090634
20
-59.317260059909998
30
0
11
73.905292568357794
21
-55.512260059910005
31
0
0
LINE
5
175
100
AcDbEntity
8
CUTOUTS
100
AcDbLine
10
73.905292568357794
20
-55.512260059910005
30
0
11
78.29892811689021
21
-55.512260059910005
31
0
0
LINE
5
176
100
AcDbEntity
8
CUTOUTS
100
AcDbLine
10
78.29892811689021
20
-55.512260059910005
30
0
11
80.495745891157384
21
-59.317260059909998
31
0
0
LINE
5
177
100
AcDbEntity
8
CUTOUTS
100
AcDbLine
10
80.495745891157384
20
-59.317260059909998
30
0
11
78.298928116890224
21
-63.122260059910005
31
0
0
LINE
5
178
100
AcDbEntity
8
CUTOUTS
100
AcDbLine
10
96.870356688319177
20
-55.512260059910005
30
0
11
99.067174462585385
21
-59.317260059910012
31
0
0
LINE
5
179
100
AcDbEntity
8
CUTOUTS
100
AcDbLine
10
99.067174462585385
20
-59.317260059910012
30
0
11
96.870356688319191
21
-63.122260059910005
31
0
0
LINE
5
17A
100
AcDbEntity
8
CUTOUTS
100
AcDbLine
10
96.870356688319191
20
-63.122260059910005
30
0
11
92.476721139785823
21
-63.122260059910005
31
0
0
LINE
5
17B
100
AcDbEntity
8
CUTOUTS
100
AcDbLine
10
92.476721139785823
20
-63.122260059910005
30
0
11
90.27990336551963
21
-59.317260059909998
31
0
0
LINE
5
17C
100
AcDbEntity
8
CUTOUTS
100
AcDbLine
10
90.27990336551963
20
-59.317260059909998
30
0
11
92.476721139785823
21
-55.512260059909991
31
0
0
LINE
5
17D
100
AcDbEntity
8
CUTOUTS
100
AcDbLine
10
92.476721139785823
20
-55.512260059909991
30
0
11
96.870356688319177
21
-55.512260059910005
31
0
0
LINE
5
17E
100
AcDbEntity
8
CUTOUTS
100
AcDbLine
10
-14.558214740246855
20
-36.762260059910005
30
0
11
-12.361396965983564
21
-40.567260059909998
31
0
0
LINE
5
17F
100
AcDbEntity
8
CUTOUTS
100
AcDbLine
10
-12.361396965983564
20
-40.567260059909998
30
0
11
-14.558214740246855
21
-44.372260059910005
31
0
0
LINE
5
180
100
AcDbEntity
8
CUTOUTS
100
AcDbLine
10
-14.558214740246855
20
-44.372260059910005
30
0
11
-18.951850288783145
21
-44.372260059910005
31
0
0
LINE
5
181
100
AcDbEntity
8
CUTOUTS
100
AcDbLine
10
-18.951850288783145
20
-44.372260059910005
30
0
11
-21.148668063046436
21
-40.567260059909998
31
0
0
LINE
5
182
100
AcDbEntity
8
CUTOUTS
100
AcDbLine
10
-21.148668063046436
20
-40.567260059909998
30
0
11
-18.951850288783142
21
-36.762260059910005
31
0
0
LINE
5
183
100
AcDbEntity
8
CUTOUTS
100
AcDbLine
10
-18.951850288783142
20
-36.762260059910005
30
0
11
-14.558214740246855
21
-36.762260059910005
31
0
0
LINE
5
184
100
AcDbEntity
8
CUTOUTS
100
AcDbLine
10
-0.38042171735719083
20
-36.762260059910005
30
0
11
4.0132138311761878
21
-36.762260059910005
31
0
0
LINE
5
185
100
AcDbEntity
8
CUTOUTS
100
AcDbLine
10
4.0132138311761878
20
-36.762260059910005
30
0
11
6.210031605442393
21
-40.567260059909998
31
0
0
LINE
5
186
100
AcDbEntity
8
CUTOUTS
100
AcDbLine
10
6.210031605442393
20
-40.567260059909998
30
0
11
4.0132138311761905
21
-44.372260059910005
31
0
0
LINE
5
187
100
AcDbEntity
8
CUTOUTS
100
AcDbLine
10
4.0132138311761905
20
-44.372260059910005
30
0
11
-0.38042171735719055
21
-44.372260059910005
31
0
0
LINE
5
188
100
AcDbEntity
8
CUTOUTS
100
AcDbLine
10
-0.38042171735719066
20
-44.372260059910005
30
0
11
-2.5772394916233936
21
-40.567260059909998
31
0
0
LINE
5
189
100
AcDbEntity
8
CUTOUTS
100
AcDbLine
10
-2.5772394916233936
20
-40.567260059909998
30
0
11
-0.38042171735719083
21
-36.762260059910005
31
0
0
LINE
5
18A
100
AcDbEntity
8
CUTOUTS
100
AcDbLine
10
22.584642402605187
20
-36.762260059910005
30
0
11
24.781460176871395
21
-40.567260059909998
31
0
0
LINE
5
18B
100
AcDbEntity
8
CUTOUTS
100
AcDbLine
10
24.781460176871395
20
-40.567260059909998
30
0
11
22.584642402605191
21
-44.372260059910005
31
0
0
LINE
5
18C
100
AcDbEntity
8
CUTOUTS
100
AcDbLine
10
22.584642402605191
20
-44.372260059910005
30
0
11
18.191006854071809
21
-44.372260059910005
31
0
0
LINE
5
18D
100
AcDbEntity
8
CUTOUTS
100
AcDbLine
10
18.191006854071809
20
-44.372260059910005
30
0
11
15.994189079805608
21
-40.567260059909998
31
0
0
LINE
5
18E
100
AcDbEntity
8
CUTOUTS
100
AcDbLine
10
15.994189079805608
20
-40.567260059909998
30
0
11
18.191006854071809
21
-36.762260059910005
31
0
0
LINE
5
18F
100
AcDbEntity
8
CUTOUTS
100
AcDbLine
10
18.191006854071809
20
-36.762260059910005
30
0
11
22.584642402605187
21
-36.762260059910005
31
0
0
LINE
5
190
100
AcDbEntity
8
CUTOUTS
100
AcDbLine
10
-14.558214740246855
20
-18.012260059909998
30
0
11
-12.361396965983564
21
-21.817260059910005
31
0
0
LINE
5
191
100
AcDbEntity
8
CUTOUTS
100
AcDbLine
10
-12.361396965983564
20
-21.817260059910005
30
0
11
-14.558214740246855
21
-25.622260059910005
31
0
0
LINE
5
192
100
AcDbEntity
8
CUTOUTS
100
AcDbLine
10
-14.558214740246855
20
-25.622260059910005
30
0
11
-18.951850288783145
21
-25.622260059910005
31
0
0
LINE
5
193
100
AcDbEntity
8
CUTOUTS
100
AcDbLine
10
-18.951850288783145
20
-25.622260059910005
30
0
11
-21.148668063046436
21
-21.817260059910005
31
0
0
LINE
5
194
100
AcDbEntity
8
CUTOUTS
100
AcDbLine
10
-21.148668063046436
20
-21.817260059910005
30
0
11
-18.951850288783142
21
-18.012260059909998
31
0
0
LINE
5
195
100
AcDbEntity
8
CUTOUTS
100
AcDbLine
10
-18.951850288783142
20
-18.012260059909998
30
0
11
-14.558214740246855
21
-18.012260059909998
31
0
0
LINE
5
196
100
AcDbEntity
8
CUTOUTS
100
AcDbLine
10
4.0132138311761878
20
-25.622260059910005
30
0
11
-0.38042171735718833
21
-25.622260059910005
31
0
0
LINE
5
197
100
AcDbEntity
8
CUTOUTS
100
AcDbLine
10
-0.38042171735718827
20
-25.622260059910005
30
0
11
-2.5772394916233923
21
-21.817260059910005
31
0
0
LINE
5
198
100
AcDbEntity
8
CUTOUTS
100
AcDbLine
10
-2.5772394916233923
20
-21.817260059910005
30
0
11
-0.38042171735718805
21
-18.012260059909998
31
0
0
LINE
5
199
100
AcDbEntity
8
CUTOUTS
100
AcDbLine
10
-0.38042171735718805
20
-18.012260059909998
30
0
11
4.0132138311761896
21
-18.012260059909998
31
0
0
LINE
5
19A
100
AcDbEntity
8
CUTOUTS
100
AcDbLine
10
4.0132138311761896
20
-18.012260059909998
30
0
11
6.2100316054423912
21
-21.817260059909998
31
0
0
LINE
5
19B
100
AcDbEntity
8
CUTOUTS
100
AcDbLine
10
6.2100316054423912
20
-21.817260059909998
30
0
11
4.0132138311761878
21
-25.622260059910005
31
0
0
LINE
5
19C
100
AcDbEntity
8
CUTOUTS
100
AcDbLine
10
15.99418907980561
20
-21.817260059910005
30
0
11
18.191006854071812
21
-18.012260059909998
31
0
0
LINE
5
19D
100
AcDbEntity
8
CUTOUTS
100
AcDbLine
10
18.191006854071812
20
-18.012260059909998
30
0
11
22.584642402605187
21
-18.012260059909998
31
0
0
LINE
5
19E
100
AcDbEntity
8
CUTOUTS
100
AcDbLine
10
22.584642402605187
20
-18.012260059909998
30
0
11
24.781460176871395
21
-21.817260059910005
31
0
0
LINE
5
19F
100
AcDbEntity
8
CUTOUTS
100
AcDbLine
10
24.781460176871395
20
-21.817260059910005
30
0
11
22.584642402605187
21
-25.622260059910005
31
0
0
LINE
5
1A0
100
AcDbEntity
8
CUTOUTS
100
AcDbLine
10
22.584642402605187
20
-25.622260059910005
30
0
11
18.191006854071812
21
-25.622260059910005
31
0
0
LINE
5
1A1
100
AcDbEntity
8
CUTOUTS
100
AcDbLine
10
18.191006854071812
20
-25.622260059910005
30
0
11
15.99418907980561
21
-21.817260059910005
31
0
0
LINE
5
1A2
100
AcDbEntity
8
CUTOUTS
100
AcDbLine
10
41.156070974033199
20
-44.372260059910005
30
0
11
36.76243542549981
21
-44.372260059910005
31
0
0
LINE
5
1A3
100
AcDbEntity
8
CUTOUTS
100
AcDbLine
10
36.76243542549981
20
-44.372260059910005
30
0
11
34.565617651233609
21
-40.567260059909998
31
0
0
LINE
5
1A4
100
AcDbEntity
8
CUTOUTS
100
AcDbLine
10
34.565617651233609
20
-40.567260059909998
30
0
11
36.76243542549981
21
-36.762260059910005
31
0
0
LINE
5
1A5
100
AcDbEntity
8
CUTOUTS
100
AcDbLine
10
36.76243542549981
20
-36.762260059910005
30
0
11
41.156070974033199
21
-36.762260059910005
31
0
0
LINE
5
1A6
100
AcDbEntity
8
CUTOUTS
100
AcDbLine
10
41.156070974033199
20
-36.762260059910005
30
0
11
43.352888748299392
21
-40.567260059909998
31
0
0
LINE
5
1A7
100
AcDbEntity
8
CUTOUTS
100
AcDbLine
10
43.352888748299392
20
-40.567260059909998
30
0
11
41.156070974033199
21
-44.372260059910005
31
0
0
LINE
5
1A8
100
AcDbEntity
8
CUTOUTS
100
AcDbLine
10
53.137046222662612
20
-40.567260059909998
30
0
11
55.333863996928812
21
-36.762260059910005
31
0
0
LINE
5
1A9
100
AcDbEntity
8
CUTOUTS
100
AcDbLine
10
55.333863996928812
20
-36.762260059910005
30
0
11
59.727499545462194
21
-36.762260059910005
31
0
0
LINE
5
1AA
100
AcDbEntity
8
CUTOUTS
100
AcDbLine
10
59.727499545462194
20
-36.762260059910005
30
0
11
61.924317319728395
21
-40.567260059909998
31
0
0
LINE
5
1AB
100
AcDbEntity
8
CUTOUTS
100
AcDbLine
10
61.924317319728395
20
-40.567260059909998
30
0
11
59.727499545462194
21
-44.372260059910005
31
0
0
LINE
5
1AC
100
AcDbEntity
8
CUTOUTS
100
AcDbLine
10
59.727499545462194
20
-44.372260059910005
30
0
11
55.333863996928812
21
-44.372260059910005
31
0
0
LINE
5
1AD
100
AcDbEntity
8
CUTOUTS
100
AcDbLine
10
55.333863996928812
20
-44.372260059910005
30
0
11
53.137046222662612
21
-40.567260059909998
31
0
0
LINE
5
1AE
100
AcDbEntity
8
CUTOUTS
100
AcDbLine
10
78.29892811689021
20
-36.762260059910005
30
0
11
80.495745891157384
21
-40.567260059909998
31
0
0
LINE
5
1AF
100
AcDbEntity
8
CUTOUTS
100
AcDbLine
10
80.495745891157384
20
-40.567260059909998
30
0
11
78.298928116890224
21
-44.372260059910005
31
0
0
LINE
5
1B0
100
AcDbEntity
8
CUTOUTS
100
AcDbLine
10
78.298928116890224
20
-44.372260059910005
30
0
11
73.905292568357794
21
-44.372260059910005
31
0
0
LINE
5
1B1
100
AcDbEntity
8
CUTOUTS
100
AcDbLine
10
73.905292568357794
20
-44.372260059910005
30
0
11
71.708474794090634
21
-40.567260059909998
31
0
0
LINE
5
1B2
100
AcDbEntity
8
CUTOUTS
100
AcDbLine
10
71.708474794090634
20
-40.567260059909998
30
0
11
73.905292568357794
21
-36.762260059910005
31
0
0
LINE
5
1B3
100
AcDbEntity
8
CUTOUTS
100
AcDbLine
10
73.905292568357794
20
-36.762260059910005
30
0
11
78.29892811689021
21
-36.762260059910005
31
0
0
LINE
5
1B4
100
AcDbEntity
8
CUTOUTS
100
AcDbLine
10
96.870356688319177
20
-36.762260059910005
30
0
11
99.067174462585385
21
-40.567260059910012
31
0
0
LINE
5
1B5
100
AcDbEntity
8
CUTOUTS
100
AcDbLine
10
99.067174462585385
20
-40.567260059910012
30
0
11
96.870356688319191
21
-44.372260059910005
31
0
0
LINE
5
1B6
100
AcDbEntity
8
CUTOUTS
100
AcDbLine
10
96.870356688319191
20
-44.372260059910005
30
0
11
92.476721139785823
21
-44.372260059910005
31
0
0
LINE
5
1B7
100
AcDbEntity
8
CUTOUTS
100
AcDbLine
10
92.476721139785823
20
-44.372260059910005
30
0
11
90.27990336551963
21
-40.567260059909998
31
0
0
LINE
5
1B8
100
AcDbEntity
8
CUTOUTS
100
AcDbLine
10
90.27990336551963
20
-40.567260059909998
30
0
11
92.476721139785823
21
-36.762260059909998
31
0
0
LINE
5
1B9
100
AcDbEntity
8
CUTOUTS
100
AcDbLine
10
92.476721139785823
20
-36.762260059909998
30
0
11
96.870356688319177
21
-36.762260059910005
31
0
0
LINE
5
1BA
100
AcDbEntity
8
CUTOUTS
100
AcDbLine
10
41.156070974033199
20
-18.012260059909998
30
0
11
43.352888748299392
21
-21.817260059909998
31
0
0
LINE
5
1BB
100
AcDbEntity
8
CUTOUTS
100
AcDbLine
10
43.352888748299392
20
-21.817260059909998
30
0
11
41.156070974033192
21
-25.622260059910008
31
0
0
LINE
5
1BC
100
AcDbEntity
8
CUTOUTS
100
AcDbLine
10
41.156070974033192
20
-25.622260059910008
30
0
11
36.762435425499817
21
-25.622260059910005
31
0
0
LINE
5
1BD
100
AcDbEntity
8
CUTOUTS
100
AcDbLine
10
36.762435425499817
20
-25.622260059910005
30
0
11
34.565617651233609
21
-21.817260059910005
31
0
0
LINE
5
1BE
100
AcDbEntity
8
CUTOUTS
100
AcDbLine
10
34.565617651233609
20
-21.817260059910005
30
0
11
36.762435425499817
21
-18.012260059909998
31
0
0
LINE
5
1BF
100
AcDbEntity
8
CUTOUTS
100
AcDbLine
10
36.762435425499817
20
-18.012260059909998
30
0
11
41.156070974033199
21
-18.012260059909998
31
0
0
LINE
5
1C0
100
AcDbEntity
8
CUTOUTS
100
AcDbLine
10
59.727499545462194
20
-18.012260059909998
30
0
11
61.924317319728395
21
-21.817260059909998
31
0
0
LINE
5
1C1
100
AcDbEntity
8
CUTOUTS
100
AcDbLine
10
61.924317319728395
20
-21.817260059909998
30
0
11
59.72749954546218
21
-25.622260059910008
31
0
0
LINE
5
1C2
100
AcDbEntity
8
CUTOUTS
100
AcDbLine
10
59.72749954546218
20
-25.622260059910008
30
0
11
55.333863996928812
21
-25.622260059910005
31
0
0
LINE
5
1C3
100
AcDbEntity
8
CUTOUTS
100
AcDbLine
10
55.333863996928812
20
-25.622260059910005
30
0
11
53.137046222662612
21
-21.817260059910005
31
0
0
LINE
5
1C4
100
AcDbEntity
8
CUTOUTS
100
AcDbLine
10
53.137046222662612
20
-21.817260059910005
30
0
11
55.333863996928812
21
-18.012260059910002
31
0
0
LINE
5
1C5
100
AcDbEntity
8
CUTOUTS
100
AcDbLine
10
55.333863996928812
20
-18.012260059910002
30
0
11
59.727499545462194
21
-18.012260059909998
31
0
0
LINE
5
1C6
100
AcDbEntity
8
CUTOUTS
100
AcDbLine
10
80.495745891157384
20
-21.817260059910005
30
0
11
78.29892811689021
21
-25.622260059910001
31
0
0
LINE
5
1C7
100
AcDbEntity
8
CUTOUTS
100
AcDbLine
10
78.29892811689021
20
-25.622260059910001
30
0
11
73.905292568357794
21
-25.622260059910005
31
0
0
LINE
5
1C8
100
AcDbEntity
8
CUTOUTS
100
AcDbLine
10
73.905292568357794
20
-25.622260059910005
30
0
11
71.708474794090634
21
-21.817260059910005
31
0
0
LINE
5
1C9
100
AcDbEntity
8
CUTOUTS
100
AcDbLine
10
71.708474794090634
20
-21.817260059910005
30
0
11
73.905292568357794
21
-18.012260059909998
31
0
0
LINE
5
1CA
100
AcDbEntity
8
CUTOUTS
100
AcDbLine
10
73.905292568357794
20
-18.012260059909998
30
0
11
78.29892811689021
21
-18.012260059909998
31
0
0
LINE
5
1CB
100
AcDbEntity
8
CUTOUTS
100
AcDbLine
10
78.29892811689021
20
-18.012260059909998
30
0
11
80.495745891157384
21
-21.817260059910005
31
0
0
LINE
5
1CC
100
AcDbEntity
8
CUTOUTS
100
AcDbLine
10
92.476721139785823
20
-18.012260059909998
30
0
11
96.870356688319177
21
-18.012260059909998
31
0
0
LINE
5
1CD
100
AcDbEntity
8
CUTOUTS
100
AcDbLine
10
96.870356688319177
20
-18.012260059909998
30
0
11
99.067174462585385
21
-21.817260059910009
31
0
0
LINE
5
1CE
100
AcDbEntity
8
CUTOUTS
100
AcDbLine
10
99.067174462585385
20
-21.817260059910009
30
0
11
96.870356688319177
21
-25.622260059910008
31
0
0
LINE
5
1CF
100
AcDbEntity
8
CUTOUTS
100
AcDbLine
10
96.870356688319177
20
-25.622260059910008
30
0
11
92.476721139785823
21
-25.622260059910008
31
0
0
LINE
5
1D0
100
AcDbEntity
8
CUTOUTS
100
AcDbLine
10
92.476721139785823
20
-25.622260059910008
30
0
11
90.27990336551963
21
-21.817260059910005
31
0
0
LINE
5
1D1
100
AcDbEntity
8
CUTOUTS
100
AcDbLine
10
90.27990336551963
20
-21.817260059910005
30
0
11
92.476721139785823
21
-18.012260059909998
31
0
0
LINE
5
1D2
100
AcDbEntity
8
PERIMETER
100
AcDbLine
10
-24.396458624960001
20
-115.01226005990003
30
0
11
105.83354137503001
21
-115.0122600599
31
0
0
LINE
5
1D3
100
AcDbEntity
8
PERIMETER
100
AcDbLine
10
105.83354137503001
20
-115.0122600599
30
0
11
105.83354137503001
21
-14.782260059909991
31
0
0
LINE
5
1D4
100
AcDbEntity
8
PERIMETER
100
AcDbLine
10
105.83354137503001
20
-14.782260059909991
30
0
11
-24.396458624960005
21
-14.78226005991
31
0
0
LINE
5
1D5
100
AcDbEntity
8
PERIMETER
100
AcDbLine
10
-24.396458624960005
20
-14.78226005991
30
0
11
-24.396458624960001
21
-115.01226005990003
31
0
0
ENDSEC
0
SECTION
2
OBJECTS
0
DICTIONARY
5
C
100
AcDbDictionary
3
ACAD_GROUP
350
D
3
ACAD_MLINESTYLE
350
17
0
DICTIONARY
5
D
100
AcDbDictionary
0
DICTIONARY
5
1A
330
C
100
AcDbDictionary
0
DICTIONARY
5
17
100
AcDbDictionary
0
ENDSEC
0
EOF
