0
SECTION
2
HEADER
9
$INSUNITS
70
4
9
$ACADVER
1
AC1014
9
$HANDSEED
5
FFFF
0
ENDSEC
0
SECTION
2
TABLES
0
TABLE
2
VPORT
5
8
100
AcDbSymbolTable
0
ENDTAB
0
TABLE
2
LTYPE
5
5
100
AcDbSymbolTable
70
2
0
LTYPE
5
14
100
AcDbSymbolTableRecord
100
AcDbLinetypeTableRecord
2
BYBLOCK
70
0
0
LTYPE
5
15
100
AcDbSymbolTableRecord
100
AcDbLinetypeTableRecord
2
BYLAYER
70
0
0
ENDTAB
0
TABLE
2
LAYER
5
2
100
AcDbSymbolTable
70
3
0
LAYER
5
50
100
AcDbSymbolTableRecord
100
AcDbLayerTableRecord
2
0
70
0
6
CONTINUOUS
0
LAYER
5
51
100
AcDbSymbolTableRecord
100
AcDbLayerTableRecord
2
CUTOUTS
70
0
62
1
6
CONTINUOUS
0
LAYER
5
52
100
AcDbSymbolTableRecord
100
AcDbLayerTableRecord
2
PERIMETER
70
0
62
5
6
CONTINUOUS
0
ENDTAB
0
TABLE
2
STYLE
5
3
100
AcDbSymbolTable
70
1
0
STYLE
5
11
100
AcDbSymbolTableRecord
100
AcDbTextStyleTableRecord
2
STANDARD
70
0
0
ENDTAB
0
TABLE
2
VIEW
5
6
100
AcDbSymbolTable
0
ENDTAB
0
TABLE
2
UCS
5
7
100
AcDbSymbolTable
0
ENDTAB
0
TABLE
2
APPID
5
9
100
AcDbSymbolTable
70
1
0
APPID
5
12
100
AcDbSymbolTableRecord
100
AcDbRegAppTableRecord
2
ACAD
70
0
0
ENDTAB
0
TABLE
2
DIMSTYLE
5
A
100
AcDbSymbolTable
0
ENDTAB
0
TABLE
2
BLOCK_RECORD
5
1
100
AcDbSymbolTable
70
2
0
BLOCK_RECORD
5
1F
100
AcDbSymbolTableRecord
100
AcDbBlockTableRecord
2
*MODEL_SPACE
0
BLOCK_RECORD
5
1B
100
AcDbSymbolTableRecord
100
AcDbBlockTableRecord
2
*PAPER_SPACE
0
ENDTAB
0
ENDSEC
0
SECTION
2
BLOCKS
0
BLOCK
5
20
100
AcDbEntity
100
AcDbBlockBegin
2
*MODEL_SPACE
0
ENDBLK
5
21
100
AcDbEntity
100
AcDbBlockEnd
0
BLOCK
5
1C
100
AcDbEntity
100
AcDbBlockBegin
2
*PAPER_SPACE
0
ENDBLK
5
1D
100
AcDbEntity
100
AcDbBlockEnd
0
ENDSEC
0
SECTION
2
ENTITIES
0
LINE
5
100
100
AcDbEntity
8
CUTOUTS
100
AcDbLine
10
-14.535120729479258
20
-92.972260059909999
30
0
11
-12.31520894444845
21
-96.817260059909955
31
0
0
LINE
5
101
100
AcDbEntity
8
CUTOUTS
100
AcDbLine
10
-12.31520894444845
20
-96.817260059909955
30
0
11
-14.535120729479205
21
-100.66226005990001
31
0
0
LINE
5
102
100
AcDbEntity
8
CUTOUTS
100
AcDbLine
10
-14.535120729479205
20
-100.66226005990001
30
0
11
-18.974944299550796
21
-100.66226005990001
31
0
0
LINE
5
103
100
AcDbEntity
8
CUTOUTS
100
AcDbLine
10
-18.974944299550796
20
-100.66226005990001
30
0
11
-21.194856084581556
21
-96.817260059909955
31
0
0
LINE
5
104
100
AcDbEntity
8
CUTOUTS
100
AcDbLine
10
-21.194856084581556
20
-96.817260059909955
30
0
11
-18.974944299550739
21
-92.972260059909999
31
0
0
LINE
5
105
100
AcDbEntity
8
CUTOUTS
100
AcDbLine
10
-18.974944299550739
20
-92.972260059909999
30
0
11
-14.535120729479258
21
-92.972260059909999
31
0
0
LINE
5
106
100
AcDbEntity
8
CUTOUTS
100
AcDbLine
10
4.0363078419438274
20
-100.66226005990001
30
0
11
-0.40351572812482694
21
-100.66226005990001
31
0
0
LINE
5
107
100
AcDbEntity
8
CUTOUTS
100
AcDbLine
10
-0.40351572812482683
20
-100.66226005990001
30
0
11
-2.6234275131585285
21
-96.817260059909955
31
0
0
LINE
5
108
100
AcDbEntity
8
CUTOUTS
100
AcDbLine
10
-2.6234275131585285
20
-96.817260059909955
30
0
11
-0.40351572812477032
21
-92.972260059909999
31
0
0
LINE
5
109
100
AcDbEntity
8
CUTOUTS
100
AcDbLine
10
-0.40351572812477032
20
-92.972260059909999
30
0
11
4.0363078419437715
21
-92.972260059909999
31
0
0
LINE
5
10A
100
AcDbEntity
8
CUTOUTS
100
AcDbLine
10
4.0363078419437715
20
-92.972260059909999
30
0
11
6.2562196269775239
21
-96.817260059909955
31
0
0
LINE
5
10B
100
AcDbEntity
8
CUTOUTS
100
AcDbLine
10
6.2562196269775239
20
-96.817260059909955
30
0
11
4.0363078419438274
21
-100.66226005990001
31
0
0
LINE
5
10C
100
AcDbEntity
8
CUTOUTS
100
AcDbLine
10
18.167912843304233
20
-92.972260059909999
30
0
11
22.60773641337277
21
-92.972260059909999
31
0
0
LINE
5
10D
100
AcDbEntity
8
CUTOUTS
100
AcDbLine
10
22.60773641337277
20
-92.972260059909999
30
0
11
24.827648198406528
21
-96.817260059909955
31
0
0
LINE
5
10E
100
AcDbEntity
8
CUTOUTS
100
AcDbLine
10
24.827648198406528
20
-96.817260059909955
30
0
11
22.607736413372827
21
-100.66226005990001
31
0
0
LINE
5
10F
100
AcDbEntity
8
CUTOUTS
100
AcDbLine
10
22.607736413372827
20
-100.66226005990001
30
0
11
18.167912843304176
21
-100.66226005990001
31
0
0
LINE
5
110
100
AcDbEntity
8
CUTOUTS
100
AcDbLine
10
18.167912843304176
20
-100.66226005990001
30
0
11
15.948001058270474
21
-96.817260059909955
31
0
0
LINE
5
111
100
AcDbEntity
8
CUTOUTS
100
AcDbLine
10
15.948001058270474
20
-96.817260059909955
30
0
11
18.167912843304233
21
-92.972260059909999
31
0
0
LINE
5
112
100
AcDbEntity
8
CUTOUTS
100
AcDbLine
10
-14.535120729479253
20
-74.222260059909999
30
0
11
-12.315208944448415
21
-78.067260059909998
31
0
0
LINE
5
113
100
AcDbEntity
8
CUTOUTS
100
AcDbLine
10
-12.315208944448415
20
-78.067260059909998
30
0
11
-14.535120729479253
21
-81.912260059909997
31
0
0
LINE
5
114
100
AcDbEntity
8
CUTOUTS
100
AcDbLine
10
-14.535120729479253
20
-81.912260059909997
30
0
11
-18.974944299550742
21
-81.912260059909997
31
0
0
LINE
5
115
100
AcDbEntity
8
CUTOUTS
100
AcDbLine
10
-18.974944299550742
20
-81.912260059909997
30
0
11
-21.194856084581581
21
-78.067260059909998
31
0
0
LINE
5
116
100
AcDbEntity
8
CUTOUTS
100
AcDbLine
10
-21.194856084581581
20
-78.067260059909998
30
0
11
-18.974944299550746
21
-74.222260059909999
31
0
0
LINE
5
117
100
AcDbEntity
8
CUTOUTS
100
AcDbLine
10
-18.974944299550746
20
-74.222260059909999
30
0
11
-14.535120729479253
21
-74.222260059909999
31
0
0
LINE
5
118
100
AcDbEntity
8
CUTOUTS
100
AcDbLine
10
-0.40351572812477143
20
-74.222260059909999
30
0
11
4.0363078419437706
21
-74.222260059909999
31
0
0
LINE
5
119
100
AcDbEntity
8
CUTOUTS
100
AcDbLine
10
4.0363078419437706
20
-74.222260059909999
30
0
11
6.2562196269775541
21
-78.067260059909998
31
0
0
LINE
5
11A
100
AcDbEntity
8
CUTOUTS
100
AcDbLine
10
6.2562196269775541
20
-78.067260059909998
30
0
11
4.0363078419437715
21
-81.912260059909997
31
0
0
LINE
5
11B
100
AcDbEntity
8
CUTOUTS
100
AcDbLine
10
4.0363078419437715
20
-81.912260059909997
30
0
11
-0.40351572812477088
21
-81.912260059909997
31
0
0
LINE
5
11C
100
AcDbEntity
8
CUTOUTS
100
AcDbLine
10
-0.40351572812477099
20
-81.912260059909997
30
0
11
-2.6234275131585534
21
-78.067260059909998
31
0
0
LINE
5
11D
100
AcDbEntity
8
CUTOUTS
100
AcDbLine
10
-2.6234275131585534
20
-78.067260059909998
30
0
11
-0.40351572812477143
21
-74.222260059909999
31
0
0
LINE
5
11E
100
AcDbEntity
8
CUTOUTS
100
AcDbLine
10
-21.194856084581588
20
-59.317260059909998
30
0
11
-18.974944299550746
21
-55.472260059910006
31
0
0
LINE
5
11F
100
AcDbEntity
8
CUTOUTS
100
AcDbLine
10
-18.974944299550746
20
-55.472260059910006
30
0
11
-14.535120729479253
21
-55.472260059910006
31
0
0
LINE
5
120
100
AcDbEntity
8
CUTOUTS
100
AcDbLine
10
-14.535120729479253
20
-55.472260059910006
30
0
11
-12.315208944448415
21
-59.317260059909998
31
0
0
LINE
5
121
100
AcDbEntity
8
CUTOUTS
100
AcDbLine
10
-12.315208944448415
20
-59.317260059909998
30
0
11
-14.535120729479253
21
-63.162260059909997
31
0
0
LINE
5
122
100
AcDbEntity
8
CUTOUTS
100
AcDbLine
10
-14.535120729479253
20
-63.162260059909997
30
0
11
-18.974944299550746
21
-63.162260059909997
31
0
0
LINE
5
123
100
AcDbEntity
8
CUTOUTS
100
AcDbLine
10
-18.974944299550746
20
-63.162260059909997
30
0
11
-21.194856084581588
21
-59.317260059909998
31
0
0
LINE
5
124
100
AcDbEntity
8
CUTOUTS
100
AcDbLine
10
4.0363078419437715
20
-63.162260059909997
30
0
11
-0.40351572812477088
21
-63.162260059909997
31
0
0
LINE
5
125
100
AcDbEntity
8
CUTOUTS
100
AcDbLine
10
-0.40351572812477099
20
-63.162260059909997
30
0
11
-2.6234275131585534
21
-59.317260059909998
31
0
0
LINE
5
126
100
AcDbEntity
8
CUTOUTS
100
AcDbLine
10
-2.6234275131585534
20
-59.317260059909998
30
0
11
-0.40351572812477088
21
-55.472260059910006
31
0
0
LINE
5
127
100
AcDbEntity
8
CUTOUTS
100
AcDbLine
10
-0.40351572812477088
20
-55.472260059910006
30
0
11
4.0363078419437706
21
-55.472260059910006
31
0
0
LINE
5
128
100
AcDbEntity
8
CUTOUTS
100
AcDbLine
10
4.0363078419437706
20
-55.472260059910006
30
0
11
6.256219626977555
21
-59.317260059909998
31
0
0
LINE
5
129
100
AcDbEntity
8
CUTOUTS
100
AcDbLine
10
6.256219626977555
20
-59.317260059909998
30
0
11
4.0363078419437715
21
-63.162260059909997
31
0
0
LINE
5
12A
100
AcDbEntity
8
CUTOUTS
100
AcDbLine
10
18.167912843304233
20
-81.912260059909997
30
0
11
15.948001058270449
21
-78.067260059909998
31
0
0
LINE
5
12B
100
AcDbEntity
8
CUTOUTS
100
AcDbLine
10
15.948001058270449
20
-78.067260059909998
30
0
11
18.167912843304229
21
-74.222260059909999
31
0
0
LINE
5
12C
100
AcDbEntity
8
CUTOUTS
100
AcDbLine
10
18.167912843304229
20
-74.222260059909999
30
0
11
22.60773641337277
21
-74.222260059909999
31
0
0
LINE
5
12D
100
AcDbEntity
8
CUTOUTS
100
AcDbLine
10
22.60773641337277
20
-74.222260059909999
30
0
11
24.827648198406553
21
-78.067260059909998
31
0
0
LINE
5
12E
100
AcDbEntity
8
CUTOUTS
100
AcDbLine
10
24.827648198406553
20
-78.067260059909998
30
0
11
22.60773641337277
21
-81.912260059909997
31
0
0
LINE
5
12F
100
AcDbEntity
8
CUTOUTS
100
AcDbLine
10
22.60773641337277
20
-81.912260059909997
30
0
11
18.167912843304233
21
-81.912260059909997
31
0
0
LINE
5
130
100
AcDbEntity
8
CUTOUTS
100
AcDbLine
10
22.60773641337277
20
-55.472260059910006
30
0
11
24.827648198406553
21
-59.317260059909998
31
0
0
LINE
5
131
100
AcDbEntity
8
CUTOUTS
100
AcDbLine
10
24.827648198406553
20
-59.317260059909998
30
0
11
22.60773641337277
21
-63.162260059909997
31
0
0
LINE
5
132
100
AcDbEntity
8
CUTOUTS
100
AcDbLine
10
22.60773641337277
20
-63.162260059909997
30
0
11
18.167912843304233
21
-63.162260059909997
31
0
0
LINE
5
133
100
AcDbEntity
8
CUTOUTS
100
AcDbLine
10
18.167912843304233
20
-63.162260059909997
30
0
11
15.948001058270449
21
-59.317260059909998
31
0
0
LINE
5
134
100
AcDbEntity
8
CUTOUTS
100
AcDbLine
10
15.948001058270449
20
-59.317260059909998
30
0
11
18.167912843304229
21
-55.472260059910006
31
0
0
LINE
5
135
100
AcDbEntity
8
CUTOUTS
100
AcDbLine
10
18.167912843304229
20
-55.472260059910006
30
0
11
22.60773641337277
21
-55.472260059910006
31
0
0
LINE
5
136
100
AcDbEntity
8
CUTOUTS
100
AcDbLine
10
34.519429629698472
20
-96.817260059909955
30
0
11
36.73934141473223
21
-92.972260059909999
31
0
0
LINE
5
137
100
AcDbEntity
8
CUTOUTS
100
AcDbLine
10
36.73934141473223
20
-92.972260059909999
30
0
11
41.179164984800778
21
-92.972260059909999
31
0
0
LINE
5
138
100
AcDbEntity
8
CUTOUTS
100
AcDbLine
10
41.179164984800778
20
-92.972260059909999
30
0
11
43.399076769834522
21
-96.817260059909955
31
0
0
LINE
5
139
100
AcDbEntity
8
CUTOUTS
100
AcDbLine
10
43.399076769834522
20
-96.817260059909955
30
0
11
41.179164984800835
21
-100.66226005990001
31
0
0
LINE
5
13A
100
AcDbEntity
8
CUTOUTS
100
AcDbLine
10
41.179164984800835
20
-100.66226005990001
30
0
11
36.739341414732174
21
-100.66226005990001
31
0
0
LINE
5
13B
100
AcDbEntity
8
CUTOUTS
100
AcDbLine
10
36.739341414732174
20
-100.66226005990001
30
0
11
34.519429629698472
21
-96.817260059909955
31
0
0
LINE
5
13C
100
AcDbEntity
8
CUTOUTS
100
AcDbLine
10
59.750593556229774
20
-92.972260059909999
30
0
11
61.970505341263532
21
-96.817260059909955
31
0
0
LINE
5
13D
100
AcDbEntity
8
CUTOUTS
100
AcDbLine
10
61.970505341263532
20
-96.817260059909955
30
0
11
59.750593556229823
21
-100.66226005990001
31
0
0
LINE
5
13E
100
AcDbEntity
8
CUTOUTS
100
AcDbLine
10
59.750593556229823
20
-100.66226005990001
30
0
11
55.310769986161183
21
-100.66226005990001
31
0
0
LINE
5
13F
100
AcDbEntity
8
CUTOUTS
100
AcDbLine
10
55.310769986161183
20
-100.66226005990001
30
0
11
53.090858201127482
21
-96.817260059909955
31
0
0
LINE
5
140
100
AcDbEntity
8
CUTOUTS
100
AcDbLine
10
53.090858201127482
20
-96.817260059909955
30
0
11
55.310769986161233
21
-92.972260059909999
31
0
0
LINE
5
141
100
AcDbEntity
8
CUTOUTS
100
AcDbLine
10
55.310769986161233
20
-92.972260059909999
30
0
11
59.750593556229774
21
-92.972260059909999
31
0
0
LINE
5
142
100
AcDbEntity
8
CUTOUTS
100
AcDbLine
10
78.322022127657789
20
-92.972260059909999
30
0
11
80.541933912692528
21
-96.81726005990997
31
0
0
LINE
5
143
100
AcDbEntity
8
CUTOUTS
100
AcDbLine
10
80.541933912692528
20
-96.81726005990997
30
0
11
78.322022127657846
21
-100.66226005990001
31
0
0
LINE
5
144
100
AcDbEntity
8
CUTOUTS
100
AcDbLine
10
78.322022127657846
20
-100.66226005990001
30
0
11
73.882198557590172
21
-100.66226005990001
31
0
0
LINE
5
145
100
AcDbEntity
8
CUTOUTS
100
AcDbLine
10
73.882198557590172
20
-100.66226005990001
30
0
11
71.66228677255549
21
-96.817260059909955
31
0
0
LINE
5
146
100
AcDbEntity
8
CUTOUTS
100
AcDbLine
10
71.66228677255549
20
-96.817260059909955
30
0
11
73.882198557590215
21
-92.972260059909999
31
0
0
LINE
5
147
100
AcDbEntity
8
CUTOUTS
100
AcDbLine
10
73.882198557590215
20
-92.972260059909999
30
0
11
78.322022127657789
21
-92.972260059909999
31
0
0
LINE
5
148
100
AcDbEntity
8
CUTOUTS
100
AcDbLine
10
96.89345069908677
20
-92.972260059909999
30
0
11
99.113362484120529
21
-96.817260059909955
31
0
0
LINE
5
149
100
AcDbEntity
8
CUTOUTS
100
AcDbLine
10
99.113362484120529
20
-96.817260059909955
30
0
11
96.893450699086827
21
-100.66226005990001
31
0
0
LINE
5
14A
100
AcDbEntity
8
CUTOUTS
100
AcDbLine
10
96.893450699086827
20
-100.66226005990001
30
0
11
92.453627129018173
21
-100.66226005990001
31
0
0
LINE
5
14B
100
AcDbEntity
8
CUTOUTS
100
AcDbLine
10
92.453627129018173
20
-100.66226005990001
30
0
11
90.233715343984485
21
-96.817260059909955
31
0
0
LINE
5
14C
100
AcDbEntity
8
CUTOUTS
100
AcDbLine
10
90.233715343984485
20
-96.817260059909955
30
0
11
92.45362712901823
21
-92.972260059909999
31
0
0
LINE
5
14D
100
AcDbEntity
8
CUTOUTS
100
AcDbLine
10
92.45362712901823
20
-92.972260059909999
30
0
11
96.89345069908677
21
-92.972260059909999
31
0
0
LINE
5
14E
100
AcDbEntity
8
CUTOUTS
100
AcDbLine
10
43.399076769834565
20
-78.067260059909998
30
0
11
41.179164984800778
21
-81.912260059909997
31
0
0
LINE
5
14F
100
AcDbEntity
8
CUTOUTS
100
AcDbLine
10
41.179164984800778
20
-81.912260059909997
30
0
11
36.73934141473223
21
-81.912260059909997
31
0
0
LINE
5
150
100
AcDbEntity
8
CUTOUTS
100
AcDbLine
10
36.73934141473223
20
-81.912260059909997
30
0
11
34.51942962969845
21
-78.067260059909998
31
0
0
LINE
5
151
100
AcDbEntity
8
CUTOUTS
100
AcDbLine
10
34.51942962969845
20
-78.067260059909998
30
0
11
36.739341414732237
21
-74.222260059909999
31
0
0
LINE
5
152
100
AcDbEntity
8
CUTOUTS
100
AcDbLine
10
36.739341414732237
20
-74.222260059909999
30
0
11
41.179164984800778
21
-74.222260059909999
31
0
0
LINE
5
153
100
AcDbEntity
8
CUTOUTS
100
AcDbLine
10
41.179164984800778
20
-74.222260059909999
30
0
11
43.399076769834565
21
-78.067260059909998
31
0
0
LINE
5
154
100
AcDbEntity
8
CUTOUTS
100
AcDbLine
10
55.310769986161226
20
-74.222260059909999
30
0
11
59.750593556229774
21
-74.222260059909999
31
0
0
LINE
5
155
100
AcDbEntity
8
CUTOUTS
100
AcDbLine
10
59.750593556229774
20
-74.222260059909999
30
0
11
61.970505341263561
21
-78.067260059909998
31
0
0
LINE
5
156
100
AcDbEntity
8
CUTOUTS
100
AcDbLine
10
61.970505341263561
20
-78.067260059909998
30
0
11
59.750593556229781
21
-81.912260059909997
31
0
0
LINE
5
157
100
AcDbEntity
8
CUTOUTS
100
AcDbLine
10
59.750593556229781
20
-81.912260059909997
30
0
11
55.310769986161233
21
-81.912260059909997
31
0
0
LINE
5
158
100
AcDbEntity
8
CUTOUTS
100
AcDbLine
10
55.310769986161233
20
-81.912260059909997
30
0
11
53.090858201127446
21
-78.067260059909998
31
0
0
LINE
5
159
100
AcDbEntity
8
CUTOUTS
100
AcDbLine
10
53.090858201127446
20
-78.067260059909998
30
0
11
55.310769986161226
21
-74.222260059909999
31
0
0
LINE
5
15A
100
AcDbEntity
8
CUTOUTS
100
AcDbLine
10
41.179164984800778
20
-55.472260059910006
30
0
11
43.399076769834565
21
-59.317260059909998
31
0
0
LINE
5
15B
100
AcDbEntity
8
CUTOUTS
100
AcDbLine
10
43.399076769834565
20
-59.317260059909998
30
0
11
41.179164984800778
21
-63.162260059909997
31
0
0
LINE
5
15C
100
AcDbEntity
8
CUTOUTS
100
AcDbLine
10
41.179164984800778
20
-63.162260059909997
30
0
11
36.73934141473223
21
-63.162260059909997
31
0
0
LINE
5
15D
100
AcDbEntity
8
CUTOUTS
100
AcDbLine
10
36.73934141473223
20
-63.162260059909997
30
0
11
34.51942962969845
21
-59.317260059909998
31
0
0
LINE
5
15E
100
AcDbEntity
8
CUTOUTS
100
AcDbLine
10
34.51942962969845
20
-59.317260059909998
30
0
11
36.739341414732237
21
-55.472260059910006
31
0
0
LINE
5
15F
100
AcDbEntity
8
CUTOUTS
100
AcDbLine
10
36.739341414732237
20
-55.472260059910006
30
0
11
41.179164984800778
21
-55.472260059910006
31
0
0
LINE
5
160
100
AcDbEntity
8
CUTOUTS
100
AcDbLine
10
55.310769986161233
20
-63.162260059909997
30
0
11
53.090858201127446
21
-59.317260059909998
31
0
0
LINE
5
161
100
AcDbEntity
8
CUTOUTS
100
AcDbLine
10
53.090858201127446
20
-59.317260059909998
30
0
11
55.310769986161233
21
-55.472260059910006
31
0
0
LINE
5
162
100
AcDbEntity
8
CUTOUTS
100
AcDbLine
10
55.310769986161233
20
-55.472260059910006
30
0
11
59.750593556229774
21
-55.472260059910006
31
0
0
LINE
5
163
100
AcDbEntity
8
CUTOUTS
100
AcDbLine
10
59.750593556229774
20
-55.472260059910006
30
0
11
61.970505341263561
21
-59.317260059909998
31
0
0
LINE
5
164
100
AcDbEntity
8
CUTOUTS
100
AcDbLine
10
61.970505341263561
20
-59.317260059909998
30
0
11
59.750593556229774
21
-63.162260059909997
31
0
0
LINE
5
165
100
AcDbEntity
8
CUTOUTS
100
AcDbLine
10
59.750593556229774
20
-63.162260059909997
30
0
11
55.310769986161233
21
-63.162260059909997
31
0
0
LINE
5
166
100
AcDbEntity
8
CUTOUTS
100
AcDbLine
10
78.322022127657789
20
-74.222260059909999
30
0
11
80.541933912692542
21
-78.067260059909998
31
0
0
LINE
5
167
100
AcDbEntity
8
CUTOUTS
100
AcDbLine
10
80.541933912692542
20
-78.067260059909998
30
0
11
78.322022127657789
21
-81.912260059909997
31
0
0
LINE
5
168
100
AcDbEntity
8
CUTOUTS
100
AcDbLine
10
78.322022127657789
20
-81.912260059909997
30
0
11
73.882198557590215
21
-81.912260059909997
31
0
0
LINE
5
169
100
AcDbEntity
8
CUTOUTS
100
AcDbLine
10
73.882198557590215
20
-81.912260059909997
30
0
11
71.662286772555461
21
-78.067260059910012
31
0
0
LINE
5
16A
100
AcDbEntity
8
CUTOUTS
100
AcDbLine
10
71.662286772555461
20
-78.067260059910012
30
0
11
73.882198557590215
21
-74.222260059909999
31
0
0
LINE
5
16B
100
AcDbEntity
8
CUTOUTS
100
AcDbLine
10
73.882198557590215
20
-74.222260059909999
30
0
11
78.322022127657789
21
-74.222260059909999
31
0
0
LINE
5
16C
100
AcDbEntity
8
CUTOUTS
100
AcDbLine
10
96.89345069908677
20
-74.222260059909999
30
0
11
99.113362484120557
21
-78.067260059909998
31
0
0
LINE
5
16D
100
AcDbEntity
8
CUTOUTS
100
AcDbLine
10
99.113362484120557
20
-78.067260059909998
30
0
11
96.89345069908677
21
-81.912260059909997
31
0
0
LINE
5
16E
100
AcDbEntity
8
CUTOUTS
100
AcDbLine
10
96.89345069908677
20
-81.912260059909997
30
0
11
92.45362712901823
21
-81.912260059909997
31
0
0
LINE
5
16F
100
AcDbEntity
8
CUTOUTS
100
AcDbLine
10
92.45362712901823
20
-81.912260059909997
30
0
11
90.233715343984443
21
-78.067260059909998
31
0
0
LINE
5
170
100
AcDbEntity
8
CUTOUTS
100
AcDbLine
10
90.233715343984443
20
-78.067260059909998
30
0
11
92.45362712901823
21
-74.222260059909999
31
0
0
LINE
5
171
100
AcDbEntity
8
CUTOUTS
100
AcDbLine
10
92.45362712901823
20
-74.222260059909999
30
0
11
96.89345069908677
21
-74.222260059909999
31
0
0
LINE
5
172
100
AcDbEntity
8
CUTOUTS
100
AcDbLine
10
78.322022127657789
20
-55.472260059910006
30
0
11
80.541933912692542
21
-59.317260059909998
31
0
0
LINE
5
173
100
AcDbEntity
8
CUTOUTS
100
AcDbLine
10
80.541933912692542
20
-59.317260059909998
30
0
11
78.322022127657789
21
-63.162260059909997
31
0
0
LINE
5
174
100
AcDbEntity
8
CUTOUTS
100
AcDbLine
10
78.322022127657789
20
-63.162260059909997
30
0
11
73.882198557590215
21
-63.162260059909997
31
0
0
LINE
5
175
100
AcDbEntity
8
CUTOUTS
100
AcDbLine
10
73.882198557590215
20
-63.162260059909997
30
0
11
71.662286772555461
21
-59.317260059909998
31
0
0
LINE
5
176
100
AcDbEntity
8
CUTOUTS
100
AcDbLine
10
71.662286772555461
20
-59.317260059909998
30
0
11
73.882198557590215
21
-55.472260059910006
31
0
0
LINE
5
177
100
AcDbEntity
8
CUTOUTS
100
AcDbLine
10
73.882198557590215
20
-55.472260059910006
30
0
11
78.322022127657789
21
-55.472260059910006
31
0
0
LINE
5
178
100
AcDbEntity
8
CUTOUTS
100
AcDbLine
10
90.233715343984443
20
-59.317260059909998
30
0
11
92.45362712901823
21
-55.472260059910006
31
0
0
LINE
5
179
100
AcDbEntity
8
CUTOUTS
100
AcDbLine
10
92.45362712901823
20
-55.472260059910006
30
0
11
96.89345069908677
21
-55.472260059910006
31
0
0
LINE
5
17A
100
AcDbEntity
8
CUTOUTS
100
AcDbLine
10
96.89345069908677
20
-55.472260059910006
30
0
11
99.113362484120557
21
-59.317260059909998
31
0
0
LINE
5
17B
100
AcDbEntity
8
CUTOUTS
100
AcDbLine
10
99.113362484120557
20
-59.317260059909998
30
0
11
96.89345069908677
21
-63.162260059909997
31
0
0
LINE
5
17C
100
AcDbEntity
8
CUTOUTS
100
AcDbLine
10
96.89345069908677
20
-63.162260059909997
30
0
11
92.45362712901823
21
-63.162260059909997
31
0
0
LINE
5
17D
100
AcDbEntity
8
CUTOUTS
100
AcDbLine
10
92.45362712901823
20
-63.162260059909997
30
0
11
90.233715343984443
21
-59.317260059909998
31
0
0
LINE
5
17E
100
AcDbEntity
8
CUTOUTS
100
AcDbLine
10
-21.194856084581588
20
-40.567260059909998
30
0
11
-18.974944299550746
21
-36.722260059910006
31
0
0
LINE
5
17F
100
AcDbEntity
8
CUTOUTS
100
AcDbLine
10
-18.974944299550746
20
-36.722260059910006
30
0
11
-14.535120729479257
21
-36.722260059910006
31
0
0
LINE
5
180
100
AcDbEntity
8
CUTOUTS
100
AcDbLine
10
-14.535120729479257
20
-36.722260059910006
30
0
11
-12.315208944448417
21
-40.567260059909998
31
0
0
LINE
5
181
100
AcDbEntity
8
CUTOUTS
100
AcDbLine
10
-12.315208944448417
20
-40.567260059909998
30
0
11
-14.535120729479253
21
-44.412260059909997
31
0
0
LINE
5
182
100
AcDbEntity
8
CUTOUTS
100
AcDbLine
10
-14.535120729479253
20
-44.412260059909997
30
0
11
-18.974944299550746
21
-44.412260059909997
31
0
0
LINE
5
183
100
AcDbEntity
8
CUTOUTS
100
AcDbLine
10
-18.974944299550746
20
-44.412260059909997
30
0
11
-21.194856084581588
21
-40.567260059909998
31
0
0
LINE
5
184
100
AcDbEntity
8
CUTOUTS
100
AcDbLine
10
-0.40351572812477099
20
-44.412260059909997
30
0
11
-2.6234275131585534
21
-40.567260059909998
31
0
0
LINE
5
185
100
AcDbEntity
8
CUTOUTS
100
AcDbLine
10
-2.6234275131585534
20
-40.567260059909998
30
0
11
-0.40351572812477088
21
-36.722260059910006
31
0
0
LINE
5
186
100
AcDbEntity
8
CUTOUTS
100
AcDbLine
10
-0.40351572812477088
20
-36.722260059910006
30
0
11
4.0363078419437741
21
-36.722260059910006
31
0
0
LINE
5
187
100
AcDbEntity
8
CUTOUTS
100
AcDbLine
10
4.0363078419437741
20
-36.722260059910006
30
0
11
6.2562196269775576
21
-40.567260059909998
31
0
0
LINE
5
188
100
AcDbEntity
8
CUTOUTS
100
AcDbLine
10
6.2562196269775576
20
-40.567260059909998
30
0
11
4.0363078419437715
21
-44.412260059909997
31
0
0
LINE
5
189
100
AcDbEntity
8
CUTOUTS
100
AcDbLine
10
4.0363078419437715
20
-44.412260059909997
30
0
11
-0.40351572812477088
21
-44.412260059909997
31
0
0
LINE
5
18A
100
AcDbEntity
8
CUTOUTS
100
AcDbLine
10
22.60773641337277
20
-36.722260059910006
30
0
11
24.827648198406557
21
-40.567260059909998
31
0
0
LINE
5
18B
100
AcDbEntity
8
CUTOUTS
100
AcDbLine
10
24.827648198406557
20
-40.567260059909998
30
0
11
22.60773641337277
21
-44.412260059909997
31
0
0
LINE
5
18C
100
AcDbEntity
8
CUTOUTS
100
AcDbLine
10
22.60773641337277
20
-44.412260059909997
30
0
11
18.167912843304233
21
-44.412260059909997
31
0
0
LINE
5
18D
100
AcDbEntity
8
CUTOUTS
100
AcDbLine
10
18.167912843304233
20
-44.412260059909997
30
0
11
15.948001058270449
21
-40.567260059909998
31
0
0
LINE
5
18E
100
AcDbEntity
8
CUTOUTS
100
AcDbLine
10
15.948001058270449
20
-40.567260059909998
30
0
11
18.167912843304229
21
-36.722260059910006
31
0
0
LINE
5
18F
100
AcDbEntity
8
CUTOUTS
100
AcDbLine
10
18.167912843304229
20
-36.722260059910006
30
0
11
22.60773641337277
21
-36.722260059910006
31
0
0
LINE
5
190
100
AcDbEntity
8
CUTOUTS
100
AcDbLine
10
-14.535120729479253
20
-17.972260059909999
30
0
11
-12.315208944448413
21
-21.817260059910005
31
0
0
LINE
5
191
100
AcDbEntity
8
CUTOUTS
100
AcDbLine
10
-12.315208944448413
20
-21.817260059910005
30
0
11
-14.535120729479253
21
-25.662260059910004
31
0
0
LINE
5
192
100
AcDbEntity
8
CUTOUTS
100
AcDbLine
10
-14.535120729479253
20
-25.662260059910004
30
0
11
-18.974944299550746
21
-25.662260059910004
31
0
0
LINE
5
193
100
AcDbEntity
8
CUTOUTS
100
AcDbLine
10
-18.974944299550746
20
-25.662260059910004
30
0
11
-21.194856084581588
21
-21.817260059910005
31
0
0
LINE
5
194
100
AcDbEntity
8
CUTOUTS
100
AcDbLine
10
-21.194856084581588
20
-21.817260059910005
30
0
11
-18.974944299550746
21
-17.972260059909999
31
0
0
LINE
5
195
100
AcDbEntity
8
CUTOUTS
100
AcDbLine
10
-18.974944299550746
20
-17.972260059909999
30
0
11
-14.535120729479253
21
-17.972260059909999
31
0
0
LINE
5
196
100
AcDbEntity
8
CUTOUTS
100
AcDbLine
10
-0.40351572812477488
20
-25.662260059910004
30
0
11
-2.6234275131585605
21
-21.817260059910005
31
0
0
LINE
5
197
100
AcDbEntity
8
CUTOUTS
100
AcDbLine
10
-2.6234275131585605
20
-21.817260059910005
30
0
11
-0.40351572812477532
21
-17.972260059909999
31
0
0
LINE
5
198
100
AcDbEntity
8
CUTOUTS
100
AcDbLine
10
-0.40351572812477532
20
-17.972260059909999
30
0
11
4.0363078419437759
21
-17.972260059909999
31
0
0
LINE
5
199
100
AcDbEntity
8
CUTOUTS
100
AcDbLine
10
4.0363078419437759
20
-17.972260059909999
30
0
11
6.2562196269775594
21
-21.817260059909998
31
0
0
LINE
5
19A
100
AcDbEntity
8
CUTOUTS
100
AcDbLine
10
6.2562196269775594
20
-21.817260059909998
30
0
11
4.0363078419437741
21
-25.662260059910004
31
0
0
LINE
5
19B
100
AcDbEntity
8
CUTOUTS
100
AcDbLine
10
4.0363078419437741
20
-25.662260059910004
30
0
11
-0.40351572812477476
21
-25.662260059910004
31
0
0
LINE
5
19C
100
AcDbEntity
8
CUTOUTS
100
AcDbLine
10
22.607736413372773
20
-17.972260059909999
30
0
11
24.827648198406564
21
-21.817260059910005
31
0
0
LINE
5
19D
100
AcDbEntity
8
CUTOUTS
100
AcDbLine
10
24.827648198406564
20
-21.817260059910005
30
0
11
22.607736413372773
21
-25.662260059910004
31
0
0
LINE
5
19E
100
AcDbEntity
8
CUTOUTS
100
AcDbLine
10
22.607736413372773
20
-25.662260059910004
30
0
11
18.167912843304229
21
-25.662260059910004
31
0
0
LINE
5
19F
100
AcDbEntity
8
CUTOUTS
100
AcDbLine
10
18.167912843304229
20
-25.662260059910004
30
0
11
15.948001058270442
21
-21.817260059910005
31
0
0
LINE
5
1A0
100
AcDbEntity
8
CUTOUTS
100
AcDbLine
10
15.948001058270442
20
-21.817260059910005
30
0
11
18.167912843304226
21
-17.972260059909999
31
0
0
LINE
5
1A1
100
AcDbEntity
8
CUTOUTS
100
AcDbLine
10
18.167912843304226
20
-17.972260059909999
30
0
11
22.607736413372773
21
-17.972260059909999
31
0
0
LINE
5
1A2
100
AcDbEntity
8
CUTOUTS
100
AcDbLine
10
41.179164984800785
20
-36.722260059910006
30
0
11
43.399076769834565
21
-40.567260059909991
31
0
0
LINE
5
1A3
100
AcDbEntity
8
CUTOUTS
100
AcDbLine
10
43.399076769834565
20
-40.567260059909991
30
0
11
41.179164984800778
21
-44.412260059909997
31
0
0
LINE
5
1A4
100
AcDbEntity
8
CUTOUTS
100
AcDbLine
10
41.179164984800778
20
-44.412260059909997
30
0
11
36.73934141473223
21
-44.412260059909997
31
0
0
LINE
5
1A5
100
AcDbEntity
8
CUTOUTS
100
AcDbLine
10
36.73934141473223
20
-44.412260059909997
30
0
11
34.51942962969845
21
-40.567260059909998
31
0
0
LINE
5
1A6
100
AcDbEntity
8
CUTOUTS
100
AcDbLine
10
34.51942962969845
20
-40.567260059909998
30
0
11
36.739341414732237
21
-36.722260059910006
31
0
0
LINE
5
1A7
100
AcDbEntity
8
CUTOUTS
100
AcDbLine
10
36.739341414732237
20
-36.722260059910006
30
0
11
41.179164984800785
21
-36.722260059910006
31
0
0
LINE
5
1A8
100
AcDbEntity
8
CUTOUTS
100
AcDbLine
10
59.750593556229781
20
-36.722260059910006
30
0
11
61.970505341263561
21
-40.567260059909991
31
0
0
LINE
5
1A9
100
AcDbEntity
8
CUTOUTS
100
AcDbLine
10
61.970505341263561
20
-40.567260059909991
30
0
11
59.750593556229774
21
-44.412260059909997
31
0
0
LINE
5
1AA
100
AcDbEntity
8
CUTOUTS
100
AcDbLine
10
59.750593556229774
20
-44.412260059909997
30
0
11
55.310769986161233
21
-44.412260059909997
31
0
0
LINE
5
1AB
100
AcDbEntity
8
CUTOUTS
100
AcDbLine
10
55.310769986161233
20
-44.412260059909997
30
0
11
53.090858201127446
21
-40.567260059909998
31
0
0
LINE
5
1AC
100
AcDbEntity
8
CUTOUTS
100
AcDbLine
10
53.090858201127446
20
-40.567260059909998
30
0
11
55.310769986161233
21
-36.722260059910006
31
0
0
LINE
5
1AD
100
AcDbEntity
8
CUTOUTS
100
AcDbLine
10
55.310769986161233
20
-36.722260059910006
30
0
11
59.750593556229781
21
-36.722260059910006
31
0
0
LINE
5
1AE
100
AcDbEntity
8
CUTOUTS
100
AcDbLine
10
73.882198557590215
20
-36.722260059910006
30
0
11
78.322022127657789
21
-36.722260059910006
31
0
0
LINE
5
1AF
100
AcDbEntity
8
CUTOUTS
100
AcDbLine
10
78.322022127657789
20
-36.722260059910006
30
0
11
80.541933912692542
21
-40.567260059909998
31
0
0
LINE
5
1B0
100
AcDbEntity
8
CUTOUTS
100
AcDbLine
10
80.541933912692542
20
-40.567260059909998
30
0
11
78.322022127657789
21
-44.412260059909997
31
0
0
LINE
5
1B1
100
AcDbEntity
8
CUTOUTS
100
AcDbLine
10
78.322022127657789
20
-44.412260059909997
30
0
11
73.882198557590215
21
-44.412260059909997
31
0
0
LINE
5
1B2
100
AcDbEntity
8
CUTOUTS
100
AcDbLine
10
73.882198557590215
20
-44.412260059909997
30
0
11
71.662286772555461
21
-40.567260059909998
31
0
0
LINE
5
1B3
100
AcDbEntity
8
CUTOUTS
100
AcDbLine
10
71.662286772555461
20
-40.567260059909998
30
0
11
73.882198557590215
21
-36.722260059910006
31
0
0
LINE
5
1B4
100
AcDbEntity
8
CUTOUTS
100
AcDbLine
10
96.89345069908677
20
-36.722260059910006
30
0
11
99.113362484120557
21
-40.567260059909998
31
0
0
LINE
5
1B5
100
AcDbEntity
8
CUTOUTS
100
AcDbLine
10
99.113362484120557
20
-40.567260059909998
30
0
11
96.89345069908677
21
-44.412260059909997
31
0
0
LINE
5
1B6
100
AcDbEntity
8
CUTOUTS
100
AcDbLine
10
96.89345069908677
20
-44.412260059909997
30
0
11
92.45362712901823
21
-44.412260059909997
31
0
0
LINE
5
1B7
100
AcDbEntity
8
CUTOUTS
100
AcDbLine
10
92.45362712901823
20
-44.412260059909997
30
0
11
90.233715343984443
21
-40.567260059909998
31
0
0
LINE
5
1B8
100
AcDbEntity
8
CUTOUTS
100
AcDbLine
10
90.233715343984443
20
-40.567260059909998
30
0
11
92.45362712901823
21
-36.722260059910006
31
0
0
LINE
5
1B9
100
AcDbEntity
8
CUTOUTS
100
AcDbLine
10
92.45362712901823
20
-36.722260059910006
30
0
11
96.89345069908677
21
-36.722260059910006
31
0
0
LINE
5
1BA
100
AcDbEntity
8
CUTOUTS
100
AcDbLine
10
36.739341414732223
20
-17.972260059909999
30
0
11
41.179164984800778
21
-17.972260059909999
31
0
0
LINE
5
1BB
100
AcDbEntity
8
CUTOUTS
100
AcDbLine
10
41.179164984800778
20
-17.972260059909999
30
0
11
43.399076769834565
21
-21.817260059910005
31
0
0
LINE
5
1BC
100
AcDbEntity
8
CUTOUTS
100
AcDbLine
10
43.399076769834565
20
-21.817260059910005
30
0
11
41.179164984800778
21
-25.662260059910004
31
0
0
LINE
5
1BD
100
AcDbEntity
8
CUTOUTS
100
AcDbLine
10
41.179164984800778
20
-25.662260059910004
30
0
11
36.739341414732223
21
-25.662260059910004
31
0
0
LINE
5
1BE
100
AcDbEntity
8
CUTOUTS
100
AcDbLine
10
36.739341414732223
20
-25.662260059910004
30
0
11
34.519429629698443
21
-21.817260059910005
31
0
0
LINE
5
1BF
100
AcDbEntity
8
CUTOUTS
100
AcDbLine
10
34.519429629698443
20
-21.817260059910005
30
0
11
36.739341414732223
21
-17.972260059909999
31
0
0
LINE
5
1C0
100
AcDbEntity
8
CUTOUTS
100
AcDbLine
10
59.750593556229774
20
-17.972260059909999
30
0
11
61.970505341263561
21
-21.817260059910005
31
0
0
LINE
5
1C1
100
AcDbEntity
8
CUTOUTS
100
AcDbLine
10
61.970505341263561
20
-21.817260059910005
30
0
11
59.750593556229774
21
-25.662260059910004
31
0
0
LINE
5
1C2
100
AcDbEntity
8
CUTOUTS
100
AcDbLine
10
59.750593556229774
20
-25.662260059910004
30
0
11
55.310769986161233
21
-25.662260059910004
31
0
0
LINE
5
1C3
100
AcDbEntity
8
CUTOUTS
100
AcDbLine
10
55.310769986161233
20
-25.662260059910004
30
0
11
53.090858201127446
21
-21.817260059910005
31
0
0
LINE
5
1C4
100
AcDbEntity
8
CUTOUTS
100
AcDbLine
10
53.090858201127446
20
-21.817260059910005
30
0
11
55.310769986161233
21
-17.972260059909999
31
0
0
LINE
5
1C5
100
AcDbEntity
8
CUTOUTS
100
AcDbLine
10
55.310769986161233
20
-17.972260059909999
30
0
11
59.750593556229774
21
-17.972260059909999
31
0
0
LINE
5
1C6
100
AcDbEntity
8
CUTOUTS
100
AcDbLine
10
73.882198557590215
20
-25.662260059910004
30
0
11
71.662286772555447
21
-21.817260059910005
31
0
0
LINE
5
1C7
100
AcDbEntity
8
CUTOUTS
100
AcDbLine
10
71.662286772555447
20
-21.817260059910005
30
0
11
73.882198557590215
21
-17.972260059909999
31
0
0
LINE
5
1C8
100
AcDbEntity
8
CUTOUTS
100
AcDbLine
10
73.882198557590215
20
-17.972260059909999
30
0
11
78.322022127657803
21
-17.972260059909999
31
0
0
LINE
5
1C9
100
AcDbEntity
8
CUTOUTS
100
AcDbLine
10
78.322022127657803
20
-17.972260059909999
30
0
11
80.541933912692542
21
-21.817260059909994
31
0
0
LINE
5
1CA
100
AcDbEntity
8
CUTOUTS
100
AcDbLine
10
80.541933912692542
20
-21.817260059909994
30
0
11
78.322022127657789
21
-25.662260059910011
31
0
0
LINE
5
1CB
100
AcDbEntity
8
CUTOUTS
100
AcDbLine
10
78.322022127657789
20
-25.662260059910011
30
0
11
73.882198557590215
21
-25.662260059910004
31
0
0
LINE
5
1CC
100
AcDbEntity
8
CUTOUTS
100
AcDbLine
10
90.233715343984443
20
-21.817260059910005
30
0
11
92.45362712901823
21
-17.972260059909999
31
0
0
LINE
5
1CD
100
AcDbEntity
8
CUTOUTS
100
AcDbLine
10
92.45362712901823
20
-17.972260059909999
30
0
11
96.89345069908677
21
-17.972260059909999
31
0
0
LINE
5
1CE
100
AcDbEntity
8
CUTOUTS
100
AcDbLine
10
96.89345069908677
20
-17.972260059909999
30
0
11
99.113362484120557
21
-21.817260059910005
31
0
0
LINE
5
1CF
100
AcDbEntity
8
CUTOUTS
100
AcDbLine
10
99.113362484120557
20
-21.817260059910005
30
0
11
96.89345069908677
21
-25.662260059910004
31
0
0
LINE
5
1D0
100
AcDbEntity
8
CUTOUTS
100
AcDbLine
10
96.89345069908677
20
-25.662260059910004
30
0
11
92.45362712901823
21
-25.662260059910004
31
0
0
LINE
5
1D1
100
AcDbEntity
8
CUTOUTS
100
AcDbLine
10
92.45362712901823
20
-25.662260059910004
30
0
11
90.233715343984443
21
-21.817260059910005
31
0
0
LINE
5
1D2
100
AcDbEntity
8
PERIMETER
100
AcDbLine
10
105.79354137503002
20
-114.97226005990001
30
0
11
105.79354137503002
21
-14.822260059910004
31
0
0
LINE
5
1D3
100
AcDbEntity
8
PERIMETER
100
AcDbLine
10
105.79354137503002
20
-14.822260059910004
30
0
11
-24.356458624960009
21
-14.822260059910001
31
0
0
LINE
5
1D4
100
AcDbEntity
8
PERIMETER
100
AcDbLine
10
-24.356458624960009
20
-14.822260059910001
30
0
11
-24.356458624960005
21
-114.97226005990001
31
0
0
LINE
5
1D5
100
AcDbEntity
8
PERIMETER
100
AcDbLine
10
-24.356458624960005
20
-114.97226005990001
30
0
11
105.79354137503002
21
-114.97226005990001
31
0
0
ENDSEC
0
SECTION
2
OBJECTS
0
DICTIONARY
5
C
100
AcDbDictionary
3
ACAD_GROUP
350
D
3
ACAD_MLINESTYLE
350
17
0
DICTIONARY
5
D
100
AcDbDictionary
0
DICTIONARY
5
1A
330
C
100
AcDbDictionary
0
DICTIONARY
5
17
100
AcDbDictionary
0
ENDSEC
0
EOF
