0
SECTION
2
HEADER
9
$INSUNITS
70
4
9
$ACADVER
1
AC1014
9
$HANDSEED
5
FFFF
0
ENDSEC
0
SECTION
2
TABLES
0
TABLE
2
VPORT
5
8
100
AcDbSymbolTable
0
ENDTAB
0
TABLE
2
LTYPE
5
5
100
AcDbSymbolTable
70
2
0
LTYPE
5
14
100
AcDbSymbolTableRecord
100
AcDbLinetypeTableRecord
2
BYBLOCK
70
0
0
LTYPE
5
15
100
AcDbSymbolTableRecord
100
AcDbLinetypeTableRecord
2
BYLAYER
70
0
0
ENDTAB
0
TABLE
2
LAYER
5
2
100
AcDbSymbolTable
70
3
0
LAYER
5
50
100
AcDbSymbolTableRecord
100
AcDbLayerTableRecord
2
0
70
0
6
CONTINUOUS
0
LAYER
5
51
100
AcDbSymbolTableRecord
100
AcDbLayerTableRecord
2
CUTOUTS
70
0
62
1
6
CONTINUOUS
0
LAYER
5
52
100
AcDbSymbolTableRecord
100
AcDbLayerTableRecord
2
PERIMETER
70
0
62
5
6
CONTINUOUS
0
ENDTAB
0
TABLE
2
STYLE
5
3
100
AcDbSymbolTable
70
1
0
STYLE
5
11
100
AcDbSymbolTableRecord
100
AcDbTextStyleTableRecord
2
STANDARD
70
0
0
ENDTAB
0
TABLE
2
VIEW
5
6
100
AcDbSymbolTable
0
ENDTAB
0
TABLE
2
UCS
5
7
100
AcDbSymbolTable
0
ENDTAB
0
TABLE
2
APPID
5
9
100
AcDbSymbolTable
70
1
0
APPID
5
12
100
AcDbSymbolTableRecord
100
AcDbRegAppTableRecord
2
ACAD
70
0
0
ENDTAB
0
TABLE
2
DIMSTYLE
5
A
100
AcDbSymbolTable
0
ENDTAB
0
TABLE
2
BLOCK_RECORD
5
1
100
AcDbSymbolTable
70
2
0
BLOCK_RECORD
5
1F
100
AcDbSymbolTableRecord
100
AcDbBlockTableRecord
2
*MODEL_SPACE
0
BLOCK_RECORD
5
1B
100
AcDbSymbolTableRecord
100
AcDbBlockTableRecord
2
*PAPER_SPACE
0
ENDTAB
0
ENDSEC
0
SECTION
2
BLOCKS
0
BLOCK
5
20
100
AcDbEntity
100
AcDbBlockBegin
2
*MODEL_SPACE
0
ENDBLK
5
21
100
AcDbEntity
100
AcDbBlockEnd
0
BLOCK
5
1C
100
AcDbEntity
100
AcDbBlockBegin
2
*PAPER_SPACE
0
ENDBLK
5
1D
100
AcDbEntity
100
AcDbBlockEnd
0
ENDSEC
0
SECTION
2
ENTITIES
0
LINE
5
100
100
AcDbEntity
8
CUTOUTS
100
AcDbLine
10
-14.42542417833868
20
-93.022260059909996
30
0
11
-12.188191885227466
21
-96.897260059909925
31
0
0
LINE
5
101
100
AcDbEntity
8
CUTOUTS
100
AcDbLine
10
-12.188191885227466
20
-96.897260059909925
30
0
11
-14.425424178338584
21
-100.77226005990002
31
0
0
LINE
5
102
100
AcDbEntity
8
CUTOUTS
100
AcDbLine
10
-14.425424178338584
20
-100.77226005990002
30
0
11
-18.899888764551417
21
-100.77226005990002
31
0
0
LINE
5
103
100
AcDbEntity
8
CUTOUTS
100
AcDbLine
10
-18.899888764551417
20
-100.77226005990002
30
0
11
-21.137121057662533
21
-96.897260059909925
31
0
0
LINE
5
104
100
AcDbEntity
8
CUTOUTS
100
AcDbLine
10
-21.137121057662533
20
-96.897260059909925
30
0
11
-18.899888764551317
21
-93.022260059909996
31
0
0
LINE
5
105
100
AcDbEntity
8
CUTOUTS
100
AcDbLine
10
-18.899888764551317
20
-93.022260059909996
30
0
11
-14.42542417833868
21
-93.022260059909996
31
0
0
LINE
5
106
100
AcDbEntity
8
CUTOUTS
100
AcDbLine
10
4.1460043930893047
20
-93.022260059909996
30
0
11
6.383236686199548
21
-96.897260059909925
31
0
0
LINE
5
107
100
AcDbEntity
8
CUTOUTS
100
AcDbLine
10
6.383236686199548
20
-96.897260059909925
30
0
11
4.1460043930894006
21
-100.77226005990002
31
0
0
LINE
5
108
100
AcDbEntity
8
CUTOUTS
100
AcDbLine
10
4.1460043930894006
20
-100.77226005990002
30
0
11
-0.32846019313038322
21
-100.77226005990002
31
0
0
LINE
5
109
100
AcDbEntity
8
CUTOUTS
100
AcDbLine
10
-0.32846019313038316
20
-100.77226005990002
30
0
11
-2.5656924862395689
21
-96.897260059909911
31
0
0
LINE
5
10A
100
AcDbEntity
8
CUTOUTS
100
AcDbLine
10
-2.5656924862395689
20
-96.897260059909911
30
0
11
-0.32846019313029717
21
-93.022260059909996
31
0
0
LINE
5
10B
100
AcDbEntity
8
CUTOUTS
100
AcDbLine
10
-0.32846019313029717
20
-93.022260059909996
30
0
11
4.1460043930893047
21
-93.022260059909996
31
0
0
LINE
5
10C
100
AcDbEntity
8
CUTOUTS
100
AcDbLine
10
22.717432964518309
20
-93.022260059909996
30
0
11
24.954665257628548
21
-96.897260059909925
31
0
0
LINE
5
10D
100
AcDbEntity
8
CUTOUTS
100
AcDbLine
10
24.954665257628548
20
-96.897260059909925
30
0
11
22.717432964518409
21
-100.77226005990002
31
0
0
LINE
5
10E
100
AcDbEntity
8
CUTOUTS
100
AcDbLine
10
22.717432964518409
20
-100.77226005990002
30
0
11
18.24296837829862
21
-100.77226005990002
31
0
0
LINE
5
10F
100
AcDbEntity
8
CUTOUTS
100
AcDbLine
10
18.24296837829862
20
-100.77226005990002
30
0
11
16.005736085189433
21
-96.897260059909911
31
0
0
LINE
5
110
100
AcDbEntity
8
CUTOUTS
100
AcDbLine
10
16.005736085189433
20
-96.897260059909911
30
0
11
18.242968378298702
21
-93.022260059909996
31
0
0
LINE
5
111
100
AcDbEntity
8
CUTOUTS
100
AcDbLine
10
18.242968378298702
20
-93.022260059909996
30
0
11
22.717432964518309
21
-93.022260059909996
31
0
0
LINE
5
112
100
AcDbEntity
8
CUTOUTS
100
AcDbLine
10
-14.425424178338675
20
-74.272260059909996
30
0
11
-12.188191885227422
21
-78.147260059909996
31
0
0
LINE
5
113
100
AcDbEntity
8
CUTOUTS
100
AcDbLine
10
-12.188191885227422
20
-78.147260059909996
30
0
11
-14.425424178338675
21
-82.02226005991001
31
0
0
LINE
5
114
100
AcDbEntity
8
CUTOUTS
100
AcDbLine
10
-14.425424178338675
20
-82.02226005991001
30
0
11
-18.899888764551317
21
-82.02226005991001
31
0
0
LINE
5
115
100
AcDbEntity
8
CUTOUTS
100
AcDbLine
10
-18.899888764551317
20
-82.02226005991001
30
0
11
-21.137121057662576
21
-78.147260059909996
31
0
0
LINE
5
116
100
AcDbEntity
8
CUTOUTS
100
AcDbLine
10
-21.137121057662576
20
-78.147260059909996
30
0
11
-18.899888764551324
21
-74.272260059909996
31
0
0
LINE
5
117
100
AcDbEntity
8
CUTOUTS
100
AcDbLine
10
-18.899888764551324
20
-74.272260059909996
30
0
11
-14.425424178338675
21
-74.272260059909996
31
0
0
LINE
5
118
100
AcDbEntity
8
CUTOUTS
100
AcDbLine
10
6.3832366861995951
20
-78.147260059909996
30
0
11
4.1460043930893091
21
-82.02226005991001
31
0
0
LINE
5
119
100
AcDbEntity
8
CUTOUTS
100
AcDbLine
10
4.1460043930893091
20
-82.02226005991001
30
0
11
-0.32846019313029717
21
-82.02226005991001
31
0
0
LINE
5
11A
100
AcDbEntity
8
CUTOUTS
100
AcDbLine
10
-0.32846019313029728
20
-82.02226005991001
30
0
11
-2.5656924862396129
21
-78.147260059909996
31
0
0
LINE
5
11B
100
AcDbEntity
8
CUTOUTS
100
AcDbLine
10
-2.5656924862396129
20
-78.147260059909996
30
0
11
-0.3284601931302919
21
-74.272260059909996
31
0
0
LINE
5
11C
100
AcDbEntity
8
CUTOUTS
100
AcDbLine
10
-0.3284601931302919
20
-74.272260059909996
30
0
11
4.14600439308931
21
-74.272260059909996
31
0
0
LINE
5
11D
100
AcDbEntity
8
CUTOUTS
100
AcDbLine
10
4.14600439308931
20
-74.272260059909996
30
0
11
6.3832366861995951
21
-78.147260059909996
31
0
0
LINE
5
11E
100
AcDbEntity
8
CUTOUTS
100
AcDbLine
10
-18.899888764551317
20
-55.52226005991001
30
0
11
-14.425424178338682
21
-55.52226005991001
31
0
0
LINE
5
11F
100
AcDbEntity
8
CUTOUTS
100
AcDbLine
10
-14.425424178338682
20
-55.52226005991001
30
0
11
-12.188191885227432
21
-59.39726005991001
31
0
0
LINE
5
120
100
AcDbEntity
8
CUTOUTS
100
AcDbLine
10
-12.188191885227432
20
-59.39726005991001
30
0
11
-14.425424178338682
21
-63.272260059910003
31
0
0
LINE
5
121
100
AcDbEntity
8
CUTOUTS
100
AcDbLine
10
-14.425424178338682
20
-63.272260059910003
30
0
11
-18.899888764551317
21
-63.272260059910003
31
0
0
LINE
5
122
100
AcDbEntity
8
CUTOUTS
100
AcDbLine
10
-18.899888764551317
20
-63.272260059910003
30
0
11
-21.137121057662569
21
-59.39726005991001
31
0
0
LINE
5
123
100
AcDbEntity
8
CUTOUTS
100
AcDbLine
10
-21.137121057662569
20
-59.39726005991001
30
0
11
-18.899888764551317
21
-55.52226005991001
31
0
0
LINE
5
124
100
AcDbEntity
8
CUTOUTS
100
AcDbLine
10
6.3832366861995826
20
-59.39726005991001
30
0
11
4.1460043930893029
21
-63.272260059910003
31
0
0
LINE
5
125
100
AcDbEntity
8
CUTOUTS
100
AcDbLine
10
4.1460043930893029
20
-63.272260059910003
30
0
11
-0.32846019313028996
21
-63.272260059910003
31
0
0
LINE
5
126
100
AcDbEntity
8
CUTOUTS
100
AcDbLine
10
-0.32846019313028985
20
-63.272260059910003
30
0
11
-2.5656924862396009
21
-59.39726005991001
31
0
0
LINE
5
127
100
AcDbEntity
8
CUTOUTS
100
AcDbLine
10
-2.5656924862396009
20
-59.39726005991001
30
0
11
-0.3284601931302894
21
-55.52226005991001
31
0
0
LINE
5
128
100
AcDbEntity
8
CUTOUTS
100
AcDbLine
10
-0.3284601931302894
20
-55.52226005991001
30
0
11
4.146004393089302
21
-55.52226005991001
31
0
0
LINE
5
129
100
AcDbEntity
8
CUTOUTS
100
AcDbLine
10
4.146004393089302
20
-55.52226005991001
30
0
11
6.3832366861995826
21
-59.39726005991001
31
0
0
LINE
5
12A
100
AcDbEntity
8
CUTOUTS
100
AcDbLine
10
16.005736085189394
20
-78.14726005991001
30
0
11
18.242968378298706
21
-74.272260059909996
31
0
0
LINE
5
12B
100
AcDbEntity
8
CUTOUTS
100
AcDbLine
10
18.242968378298706
20
-74.272260059909996
30
0
11
22.717432964518313
21
-74.272260059909996
31
0
0
LINE
5
12C
100
AcDbEntity
8
CUTOUTS
100
AcDbLine
10
22.717432964518313
20
-74.272260059909996
30
0
11
24.954665257628594
21
-78.147260059909996
31
0
0
LINE
5
12D
100
AcDbEntity
8
CUTOUTS
100
AcDbLine
10
24.954665257628594
20
-78.147260059909996
30
0
11
22.717432964518313
21
-82.02226005991001
31
0
0
LINE
5
12E
100
AcDbEntity
8
CUTOUTS
100
AcDbLine
10
22.717432964518313
20
-82.02226005991001
30
0
11
18.242968378298702
21
-82.02226005991001
31
0
0
LINE
5
12F
100
AcDbEntity
8
CUTOUTS
100
AcDbLine
10
18.242968378298702
20
-82.02226005991001
30
0
11
16.005736085189394
21
-78.14726005991001
31
0
0
LINE
5
130
100
AcDbEntity
8
CUTOUTS
100
AcDbLine
10
22.717432964518306
20
-55.52226005991001
30
0
11
24.95466525762858
21
-59.39726005991001
31
0
0
LINE
5
131
100
AcDbEntity
8
CUTOUTS
100
AcDbLine
10
24.95466525762858
20
-59.39726005991001
30
0
11
22.717432964518306
21
-63.272260059910003
31
0
0
LINE
5
132
100
AcDbEntity
8
CUTOUTS
100
AcDbLine
10
22.717432964518306
20
-63.272260059910003
30
0
11
18.242968378298713
21
-63.272260059910003
31
0
0
LINE
5
133
100
AcDbEntity
8
CUTOUTS
100
AcDbLine
10
18.242968378298713
20
-63.272260059910003
30
0
11
16.005736085189405
21
-59.39726005991001
31
0
0
LINE
5
134
100
AcDbEntity
8
CUTOUTS
100
AcDbLine
10
16.005736085189405
20
-59.39726005991001
30
0
11
18.242968378298713
21
-55.52226005991001
31
0
0
LINE
5
135
100
AcDbEntity
8
CUTOUTS
100
AcDbLine
10
18.242968378298713
20
-55.52226005991001
30
0
11
22.717432964518306
21
-55.52226005991001
31
0
0
LINE
5
136
100
AcDbEntity
8
CUTOUTS
100
AcDbLine
10
41.288861535947291
20
-93.022260059909996
30
0
11
43.526093829056563
21
-96.897260059909925
31
0
0
LINE
5
137
100
AcDbEntity
8
CUTOUTS
100
AcDbLine
10
43.526093829056563
20
-96.897260059909925
30
0
11
41.288861535947383
21
-100.77226005990002
31
0
0
LINE
5
138
100
AcDbEntity
8
CUTOUTS
100
AcDbLine
10
41.288861535947383
20
-100.77226005990002
30
0
11
36.814396949727602
21
-100.77226005990002
31
0
0
LINE
5
139
100
AcDbEntity
8
CUTOUTS
100
AcDbLine
10
36.814396949727602
20
-100.77226005990002
30
0
11
34.577164656617455
21
-96.897260059909925
31
0
0
LINE
5
13A
100
AcDbEntity
8
CUTOUTS
100
AcDbLine
10
34.577164656617455
20
-96.897260059909925
30
0
11
36.814396949727694
21
-93.022260059909996
31
0
0
LINE
5
13B
100
AcDbEntity
8
CUTOUTS
100
AcDbLine
10
36.814396949727694
20
-93.022260059909996
30
0
11
41.288861535947291
21
-93.022260059909996
31
0
0
LINE
5
13C
100
AcDbEntity
8
CUTOUTS
100
AcDbLine
10
55.385825521155624
20
-100.77226005990002
30
0
11
53.148593228046437
21
-96.897260059909925
31
0
0
LINE
5
13D
100
AcDbEntity
8
CUTOUTS
100
AcDbLine
10
53.148593228046437
20
-96.897260059909925
30
0
11
55.385825521155709
21
-93.022260059909996
31
0
0
LINE
5
13E
100
AcDbEntity
8
CUTOUTS
100
AcDbLine
10
55.385825521155709
20
-93.022260059909996
30
0
11
59.860290107375313
21
-93.022260059909996
31
0
0
LINE
5
13F
100
AcDbEntity
8
CUTOUTS
100
AcDbLine
10
59.860290107375313
20
-93.022260059909996
30
0
11
62.097522400485552
21
-96.897260059909925
31
0
0
LINE
5
140
100
AcDbEntity
8
CUTOUTS
100
AcDbLine
10
62.097522400485552
20
-96.897260059909925
30
0
11
59.860290107375405
21
-100.77226005990002
31
0
0
LINE
5
141
100
AcDbEntity
8
CUTOUTS
100
AcDbLine
10
59.860290107375405
20
-100.77226005990002
30
0
11
55.385825521155624
21
-100.77226005990002
31
0
0
LINE
5
142
100
AcDbEntity
8
CUTOUTS
100
AcDbLine
10
71.720021799474452
20
-96.897260059909925
30
0
11
73.957254092584691
21
-93.022260059909996
31
0
0
LINE
5
143
100
AcDbEntity
8
CUTOUTS
100
AcDbLine
10
73.957254092584691
20
-93.022260059909996
30
0
11
78.431718678804302
21
-93.022260059909996
31
0
0
LINE
5
144
100
AcDbEntity
8
CUTOUTS
100
AcDbLine
10
78.431718678804302
20
-93.022260059909996
30
0
11
80.66895097191356
21
-96.897260059909911
31
0
0
LINE
5
145
100
AcDbEntity
8
CUTOUTS
100
AcDbLine
10
80.66895097191356
20
-96.897260059909911
30
0
11
78.431718678804373
21
-100.77226005990002
31
0
0
LINE
5
146
100
AcDbEntity
8
CUTOUTS
100
AcDbLine
10
78.431718678804373
20
-100.77226005990002
30
0
11
73.957254092584591
21
-100.77226005990002
31
0
0
LINE
5
147
100
AcDbEntity
8
CUTOUTS
100
AcDbLine
10
73.957254092584591
20
-100.77226005990002
30
0
11
71.720021799474452
21
-96.897260059909925
31
0
0
LINE
5
148
100
AcDbEntity
8
CUTOUTS
100
AcDbLine
10
97.003147250232303
20
-93.022260059909996
30
0
11
99.240379543342542
21
-96.897260059909925
31
0
0
LINE
5
149
100
AcDbEntity
8
CUTOUTS
100
AcDbLine
10
99.240379543342542
20
-96.897260059909925
30
0
11
97.003147250232402
21
-100.77226005990002
31
0
0
LINE
5
14A
100
AcDbEntity
8
CUTOUTS
100
AcDbLine
10
97.003147250232402
20
-100.77226005990002
30
0
11
92.528682664012621
21
-100.77226005990002
31
0
0
LINE
5
14B
100
AcDbEntity
8
CUTOUTS
100
AcDbLine
10
92.528682664012621
20
-100.77226005990002
30
0
11
90.291450370903448
21
-96.897260059909925
31
0
0
LINE
5
14C
100
AcDbEntity
8
CUTOUTS
100
AcDbLine
10
90.291450370903448
20
-96.897260059909925
30
0
11
92.52868266401272
21
-93.022260059909996
31
0
0
LINE
5
14D
100
AcDbEntity
8
CUTOUTS
100
AcDbLine
10
92.52868266401272
20
-93.022260059909996
30
0
11
97.003147250232303
21
-93.022260059909996
31
0
0
LINE
5
14E
100
AcDbEntity
8
CUTOUTS
100
AcDbLine
10
41.288861535947291
20
-74.272260059909996
30
0
11
43.526093829056613
21
-78.147260059909996
31
0
0
LINE
5
14F
100
AcDbEntity
8
CUTOUTS
100
AcDbLine
10
43.526093829056613
20
-78.147260059909996
30
0
11
41.288861535947291
21
-82.02226005991001
31
0
0
LINE
5
150
100
AcDbEntity
8
CUTOUTS
100
AcDbLine
10
41.288861535947291
20
-82.02226005991001
30
0
11
36.814396949727694
21
-82.02226005991001
31
0
0
LINE
5
151
100
AcDbEntity
8
CUTOUTS
100
AcDbLine
10
36.814396949727694
20
-82.02226005991001
30
0
11
34.577164656617406
21
-78.147260059909996
31
0
0
LINE
5
152
100
AcDbEntity
8
CUTOUTS
100
AcDbLine
10
34.577164656617406
20
-78.147260059909996
30
0
11
36.814396949727694
21
-74.272260059909996
31
0
0
LINE
5
153
100
AcDbEntity
8
CUTOUTS
100
AcDbLine
10
36.814396949727694
20
-74.272260059909996
30
0
11
41.288861535947291
21
-74.272260059909996
31
0
0
LINE
5
154
100
AcDbEntity
8
CUTOUTS
100
AcDbLine
10
59.860290107375313
20
-74.272260059909996
30
0
11
62.097522400485595
21
-78.147260059909996
31
0
0
LINE
5
155
100
AcDbEntity
8
CUTOUTS
100
AcDbLine
10
62.097522400485595
20
-78.147260059909996
30
0
11
59.860290107375313
21
-82.02226005991001
31
0
0
LINE
5
156
100
AcDbEntity
8
CUTOUTS
100
AcDbLine
10
59.860290107375313
20
-82.02226005991001
30
0
11
55.385825521155709
21
-82.02226005991001
31
0
0
LINE
5
157
100
AcDbEntity
8
CUTOUTS
100
AcDbLine
10
55.385825521155709
20
-82.02226005991001
30
0
11
53.148593228046394
21
-78.147260059909996
31
0
0
LINE
5
158
100
AcDbEntity
8
CUTOUTS
100
AcDbLine
10
53.148593228046394
20
-78.147260059909996
30
0
11
55.385825521155709
21
-74.272260059909996
31
0
0
LINE
5
159
100
AcDbEntity
8
CUTOUTS
100
AcDbLine
10
55.385825521155709
20
-74.272260059909996
30
0
11
59.860290107375313
21
-74.272260059909996
31
0
0
LINE
5
15A
100
AcDbEntity
8
CUTOUTS
100
AcDbLine
10
41.288861535947284
20
-55.52226005991001
30
0
11
43.526093829056606
21
-59.39726005991001
31
0
0
LINE
5
15B
100
AcDbEntity
8
CUTOUTS
100
AcDbLine
10
43.526093829056606
20
-59.39726005991001
30
0
11
41.288861535947284
21
-63.272260059910003
31
0
0
LINE
5
15C
100
AcDbEntity
8
CUTOUTS
100
AcDbLine
10
41.288861535947284
20
-63.272260059910003
30
0
11
36.814396949727701
21
-63.272260059910003
31
0
0
LINE
5
15D
100
AcDbEntity
8
CUTOUTS
100
AcDbLine
10
36.814396949727701
20
-63.272260059910003
30
0
11
34.57716465661742
21
-59.39726005991001
31
0
0
LINE
5
15E
100
AcDbEntity
8
CUTOUTS
100
AcDbLine
10
34.57716465661742
20
-59.39726005991001
30
0
11
36.814396949727701
21
-55.52226005991001
31
0
0
LINE
5
15F
100
AcDbEntity
8
CUTOUTS
100
AcDbLine
10
36.814396949727701
20
-55.52226005991001
30
0
11
41.288861535947284
21
-55.52226005991001
31
0
0
LINE
5
160
100
AcDbEntity
8
CUTOUTS
100
AcDbLine
10
53.148593228046401
20
-59.39726005991001
30
0
11
55.385825521155716
21
-55.52226005991001
31
0
0
LINE
5
161
100
AcDbEntity
8
CUTOUTS
100
AcDbLine
10
55.385825521155716
20
-55.52226005991001
30
0
11
59.860290107375306
21
-55.52226005991001
31
0
0
LINE
5
162
100
AcDbEntity
8
CUTOUTS
100
AcDbLine
10
59.860290107375306
20
-55.52226005991001
30
0
11
62.09752240048558
21
-59.39726005991001
31
0
0
LINE
5
163
100
AcDbEntity
8
CUTOUTS
100
AcDbLine
10
62.09752240048558
20
-59.39726005991001
30
0
11
59.860290107375306
21
-63.272260059910003
31
0
0
LINE
5
164
100
AcDbEntity
8
CUTOUTS
100
AcDbLine
10
59.860290107375306
20
-63.272260059910003
30
0
11
55.385825521155716
21
-63.272260059910003
31
0
0
LINE
5
165
100
AcDbEntity
8
CUTOUTS
100
AcDbLine
10
55.385825521155716
20
-63.272260059910003
30
0
11
53.148593228046401
21
-59.39726005991001
31
0
0
LINE
5
166
100
AcDbEntity
8
CUTOUTS
100
AcDbLine
10
73.957254092584691
20
-82.02226005991001
30
0
11
71.720021799474424
21
-78.147260059909996
31
0
0
LINE
5
167
100
AcDbEntity
8
CUTOUTS
100
AcDbLine
10
71.720021799474424
20
-78.147260059909996
30
0
11
73.957254092584691
21
-74.272260059909996
31
0
0
LINE
5
168
100
AcDbEntity
8
CUTOUTS
100
AcDbLine
10
73.957254092584691
20
-74.272260059909996
30
0
11
78.431718678804287
21
-74.272260059909996
31
0
0
LINE
5
169
100
AcDbEntity
8
CUTOUTS
100
AcDbLine
10
78.431718678804287
20
-74.272260059909996
30
0
11
80.668950971913617
21
-78.147260059909996
31
0
0
LINE
5
16A
100
AcDbEntity
8
CUTOUTS
100
AcDbLine
10
80.668950971913617
20
-78.147260059909996
30
0
11
78.431718678804273
21
-82.02226005991001
31
0
0
LINE
5
16B
100
AcDbEntity
8
CUTOUTS
100
AcDbLine
10
78.431718678804273
20
-82.02226005991001
30
0
11
73.957254092584691
21
-82.02226005991001
31
0
0
LINE
5
16C
100
AcDbEntity
8
CUTOUTS
100
AcDbLine
10
97.003147250232317
20
-74.272260059909996
30
0
11
99.240379543342598
21
-78.147260059909996
31
0
0
LINE
5
16D
100
AcDbEntity
8
CUTOUTS
100
AcDbLine
10
99.240379543342598
20
-78.147260059909996
30
0
11
97.003147250232303
21
-82.02226005991001
31
0
0
LINE
5
16E
100
AcDbEntity
8
CUTOUTS
100
AcDbLine
10
97.003147250232303
20
-82.02226005991001
30
0
11
92.528682664012706
21
-82.02226005991001
31
0
0
LINE
5
16F
100
AcDbEntity
8
CUTOUTS
100
AcDbLine
10
92.528682664012706
20
-82.02226005991001
30
0
11
90.291450370903419
21
-78.147260059909996
31
0
0
LINE
5
170
100
AcDbEntity
8
CUTOUTS
100
AcDbLine
10
90.291450370903419
20
-78.147260059909996
30
0
11
92.52868266401272
21
-74.272260059909996
31
0
0
LINE
5
171
100
AcDbEntity
8
CUTOUTS
100
AcDbLine
10
92.52868266401272
20
-74.272260059909996
30
0
11
97.003147250232317
21
-74.272260059909996
31
0
0
LINE
5
172
100
AcDbEntity
8
CUTOUTS
100
AcDbLine
10
71.720021799474424
20
-59.39726005991001
30
0
11
73.957254092584705
21
-55.52226005991001
31
0
0
LINE
5
173
100
AcDbEntity
8
CUTOUTS
100
AcDbLine
10
73.957254092584705
20
-55.52226005991001
30
0
11
78.431718678804287
21
-55.52226005991001
31
0
0
LINE
5
174
100
AcDbEntity
8
CUTOUTS
100
AcDbLine
10
78.431718678804287
20
-55.52226005991001
30
0
11
80.668950971913603
21
-59.39726005991001
31
0
0
LINE
5
175
100
AcDbEntity
8
CUTOUTS
100
AcDbLine
10
80.668950971913603
20
-59.39726005991001
30
0
11
78.431718678804287
21
-63.272260059910003
31
0
0
LINE
5
176
100
AcDbEntity
8
CUTOUTS
100
AcDbLine
10
78.431718678804287
20
-63.272260059910003
30
0
11
73.957254092584705
21
-63.272260059910003
31
0
0
LINE
5
177
100
AcDbEntity
8
CUTOUTS
100
AcDbLine
10
73.957254092584705
20
-63.272260059910003
30
0
11
71.720021799474424
21
-59.39726005991001
31
0
0
LINE
5
178
100
AcDbEntity
8
CUTOUTS
100
AcDbLine
10
99.240379543342584
20
-59.39726005991001
30
0
11
97.003147250232317
21
-63.272260059910003
31
0
0
LINE
5
179
100
AcDbEntity
8
CUTOUTS
100
AcDbLine
10
97.003147250232317
20
-63.272260059910003
30
0
11
92.528682664012706
21
-63.272260059910003
31
0
0
LINE
5
17A
100
AcDbEntity
8
CUTOUTS
100
AcDbLine
10
92.528682664012706
20
-63.272260059910003
30
0
11
90.291450370903419
21
-59.39726005991001
31
0
0
LINE
5
17B
100
AcDbEntity
8
CUTOUTS
100
AcDbLine
10
90.291450370903419
20
-59.39726005991001
30
0
11
92.52868266401272
21
-55.52226005991001
31
0
0
LINE
5
17C
100
AcDbEntity
8
CUTOUTS
100
AcDbLine
10
92.52868266401272
20
-55.52226005991001
30
0
11
97.003147250232317
21
-55.52226005991001
31
0
0
LINE
5
17D
100
AcDbEntity
8
CUTOUTS
100
AcDbLine
10
97.003147250232317
20
-55.52226005991001
30
0
11
99.240379543342584
21
-59.39726005991001
31
0
0
LINE
5
17E
100
AcDbEntity
8
CUTOUTS
100
AcDbLine
10
-18.899888764551317
20
-36.77226005991001
30
0
11
-14.425424178338682
21
-36.77226005991001
31
0
0
LINE
5
17F
100
AcDbEntity
8
CUTOUTS
100
AcDbLine
10
-14.425424178338682
20
-36.77226005991001
30
0
11
-12.188191885227432
21
-40.64726005991001
31
0
0
LINE
5
180
100
AcDbEntity
8
CUTOUTS
100
AcDbLine
10
-12.188191885227432
20
-40.64726005991001
30
0
11
-14.425424178338682
21
-44.522260059910003
31
0
0
LINE
5
181
100
AcDbEntity
8
CUTOUTS
100
AcDbLine
10
-14.425424178338682
20
-44.522260059910003
30
0
11
-18.899888764551317
21
-44.522260059910003
31
0
0
LINE
5
182
100
AcDbEntity
8
CUTOUTS
100
AcDbLine
10
-18.899888764551317
20
-44.522260059910003
30
0
11
-21.137121057662569
21
-40.64726005991001
31
0
0
LINE
5
183
100
AcDbEntity
8
CUTOUTS
100
AcDbLine
10
-21.137121057662569
20
-40.64726005991001
30
0
11
-18.899888764551317
21
-36.77226005991001
31
0
0
LINE
5
184
100
AcDbEntity
8
CUTOUTS
100
AcDbLine
10
-0.3284601931302894
20
-36.77226005991001
30
0
11
4.1460043930893056
21
-36.77226005991001
31
0
0
LINE
5
185
100
AcDbEntity
8
CUTOUTS
100
AcDbLine
10
4.1460043930893056
20
-36.77226005991001
30
0
11
6.3832366861995844
21
-40.64726005991001
31
0
0
LINE
5
186
100
AcDbEntity
8
CUTOUTS
100
AcDbLine
10
6.3832366861995844
20
-40.64726005991001
30
0
11
4.1460043930893029
21
-44.522260059910003
31
0
0
LINE
5
187
100
AcDbEntity
8
CUTOUTS
100
AcDbLine
10
4.1460043930893029
20
-44.522260059910003
30
0
11
-0.32846019313028996
21
-44.522260059910003
31
0
0
LINE
5
188
100
AcDbEntity
8
CUTOUTS
100
AcDbLine
10
-0.32846019313028985
20
-44.522260059910003
30
0
11
-2.5656924862396009
21
-40.64726005991001
31
0
0
LINE
5
189
100
AcDbEntity
8
CUTOUTS
100
AcDbLine
10
-2.5656924862396009
20
-40.64726005991001
30
0
11
-0.3284601931302894
21
-36.77226005991001
31
0
0
LINE
5
18A
100
AcDbEntity
8
CUTOUTS
100
AcDbLine
10
18.242968378298713
20
-44.522260059910003
30
0
11
16.005736085189405
21
-40.64726005991001
31
0
0
LINE
5
18B
100
AcDbEntity
8
CUTOUTS
100
AcDbLine
10
16.005736085189405
20
-40.64726005991001
30
0
11
18.242968378298713
21
-36.77226005991001
31
0
0
LINE
5
18C
100
AcDbEntity
8
CUTOUTS
100
AcDbLine
10
18.242968378298713
20
-36.77226005991001
30
0
11
22.717432964518309
21
-36.77226005991001
31
0
0
LINE
5
18D
100
AcDbEntity
8
CUTOUTS
100
AcDbLine
10
22.717432964518309
20
-36.77226005991001
30
0
11
24.954665257628584
21
-40.64726005991001
31
0
0
LINE
5
18E
100
AcDbEntity
8
CUTOUTS
100
AcDbLine
10
24.954665257628584
20
-40.64726005991001
30
0
11
22.717432964518309
21
-44.522260059910003
31
0
0
LINE
5
18F
100
AcDbEntity
8
CUTOUTS
100
AcDbLine
10
22.717432964518309
20
-44.522260059910003
30
0
11
18.242968378298713
21
-44.522260059910003
31
0
0
LINE
5
190
100
AcDbEntity
8
CUTOUTS
100
AcDbLine
10
-21.137121057662569
20
-21.89726005991
30
0
11
-18.899888764551317
21
-18.022260059910003
31
0
0
LINE
5
191
100
AcDbEntity
8
CUTOUTS
100
AcDbLine
10
-18.899888764551317
20
-18.022260059910003
30
0
11
-14.425424178338684
21
-18.022260059910003
31
0
0
LINE
5
192
100
AcDbEntity
8
CUTOUTS
100
AcDbLine
10
-14.425424178338684
20
-18.022260059910003
30
0
11
-12.188191885227432
21
-21.89726005991
31
0
0
LINE
5
193
100
AcDbEntity
8
CUTOUTS
100
AcDbLine
10
-12.188191885227432
20
-21.89726005991
30
0
11
-14.425424178338682
21
-25.772260059910003
31
0
0
LINE
5
194
100
AcDbEntity
8
CUTOUTS
100
AcDbLine
10
-14.425424178338682
20
-25.772260059910003
30
0
11
-18.899888764551317
21
-25.772260059910003
31
0
0
LINE
5
195
100
AcDbEntity
8
CUTOUTS
100
AcDbLine
10
-18.899888764551317
20
-25.772260059910003
30
0
11
-21.137121057662569
21
-21.89726005991
31
0
0
LINE
5
196
100
AcDbEntity
8
CUTOUTS
100
AcDbLine
10
-2.5656924862395987
20
-21.89726005991
30
0
11
-0.3284601931302869
21
-18.022260059910003
31
0
0
LINE
5
197
100
AcDbEntity
8
CUTOUTS
100
AcDbLine
10
-0.3284601931302869
20
-18.022260059910003
30
0
11
4.1460043930893029
21
-18.022260059910003
31
0
0
LINE
5
198
100
AcDbEntity
8
CUTOUTS
100
AcDbLine
10
4.1460043930893029
20
-18.022260059910003
30
0
11
6.3832366861995835
21
-21.89726005991
31
0
0
LINE
5
199
100
AcDbEntity
8
CUTOUTS
100
AcDbLine
10
6.3832366861995835
20
-21.89726005991
30
0
11
4.1460043930893047
21
-25.772260059910003
31
0
0
LINE
5
19A
100
AcDbEntity
8
CUTOUTS
100
AcDbLine
10
4.1460043930893047
20
-25.772260059910003
30
0
11
-0.32846019313028718
21
-25.772260059910003
31
0
0
LINE
5
19B
100
AcDbEntity
8
CUTOUTS
100
AcDbLine
10
-0.32846019313028713
20
-25.772260059910003
30
0
11
-2.5656924862395987
21
-21.89726005991
31
0
0
LINE
5
19C
100
AcDbEntity
8
CUTOUTS
100
AcDbLine
10
22.717432964518306
20
-18.022260059910003
30
0
11
24.954665257628584
21
-21.897260059910003
31
0
0
LINE
5
19D
100
AcDbEntity
8
CUTOUTS
100
AcDbLine
10
24.954665257628584
20
-21.897260059910003
30
0
11
22.717432964518309
21
-25.772260059910003
31
0
0
LINE
5
19E
100
AcDbEntity
8
CUTOUTS
100
AcDbLine
10
22.717432964518309
20
-25.772260059910003
30
0
11
18.242968378298713
21
-25.772260059910003
31
0
0
LINE
5
19F
100
AcDbEntity
8
CUTOUTS
100
AcDbLine
10
18.242968378298713
20
-25.772260059910003
30
0
11
16.005736085189405
21
-21.89726005991
31
0
0
LINE
5
1A0
100
AcDbEntity
8
CUTOUTS
100
AcDbLine
10
16.005736085189405
20
-21.89726005991
30
0
11
18.242968378298713
21
-18.022260059910003
31
0
0
LINE
5
1A1
100
AcDbEntity
8
CUTOUTS
100
AcDbLine
10
18.242968378298713
20
-18.022260059910003
30
0
11
22.717432964518306
21
-18.022260059910003
31
0
0
LINE
5
1A2
100
AcDbEntity
8
CUTOUTS
100
AcDbLine
10
41.288861535947284
20
-36.77226005991001
30
0
11
43.526093829056606
21
-40.64726005991001
31
0
0
LINE
5
1A3
100
AcDbEntity
8
CUTOUTS
100
AcDbLine
10
43.526093829056606
20
-40.64726005991001
30
0
11
41.288861535947284
21
-44.522260059910003
31
0
0
LINE
5
1A4
100
AcDbEntity
8
CUTOUTS
100
AcDbLine
10
41.288861535947284
20
-44.522260059910003
30
0
11
36.814396949727701
21
-44.522260059910003
31
0
0
LINE
5
1A5
100
AcDbEntity
8
CUTOUTS
100
AcDbLine
10
36.814396949727701
20
-44.522260059910003
30
0
11
34.57716465661742
21
-40.64726005991001
31
0
0
LINE
5
1A6
100
AcDbEntity
8
CUTOUTS
100
AcDbLine
10
34.57716465661742
20
-40.64726005991001
30
0
11
36.814396949727701
21
-36.77226005991001
31
0
0
LINE
5
1A7
100
AcDbEntity
8
CUTOUTS
100
AcDbLine
10
36.814396949727701
20
-36.77226005991001
30
0
11
41.288861535947284
21
-36.77226005991001
31
0
0
LINE
5
1A8
100
AcDbEntity
8
CUTOUTS
100
AcDbLine
10
59.860290107375306
20
-36.77226005991001
30
0
11
62.09752240048558
21
-40.64726005991001
31
0
0
LINE
5
1A9
100
AcDbEntity
8
CUTOUTS
100
AcDbLine
10
62.09752240048558
20
-40.64726005991001
30
0
11
59.860290107375306
21
-44.522260059910003
31
0
0
LINE
5
1AA
100
AcDbEntity
8
CUTOUTS
100
AcDbLine
10
59.860290107375306
20
-44.522260059910003
30
0
11
55.385825521155716
21
-44.522260059910003
31
0
0
LINE
5
1AB
100
AcDbEntity
8
CUTOUTS
100
AcDbLine
10
55.385825521155716
20
-44.522260059910003
30
0
11
53.148593228046401
21
-40.64726005991001
31
0
0
LINE
5
1AC
100
AcDbEntity
8
CUTOUTS
100
AcDbLine
10
53.148593228046401
20
-40.64726005991001
30
0
11
55.385825521155716
21
-36.77226005991001
31
0
0
LINE
5
1AD
100
AcDbEntity
8
CUTOUTS
100
AcDbLine
10
55.385825521155716
20
-36.77226005991001
30
0
11
59.860290107375306
21
-36.77226005991001
31
0
0
LINE
5
1AE
100
AcDbEntity
8
CUTOUTS
100
AcDbLine
10
78.431718678804287
20
-36.77226005991001
30
0
11
80.668950971913603
21
-40.64726005991001
31
0
0
LINE
5
1AF
100
AcDbEntity
8
CUTOUTS
100
AcDbLine
10
80.668950971913603
20
-40.64726005991001
30
0
11
78.431718678804287
21
-44.522260059910003
31
0
0
LINE
5
1B0
100
AcDbEntity
8
CUTOUTS
100
AcDbLine
10
78.431718678804287
20
-44.522260059910003
30
0
11
73.957254092584705
21
-44.522260059910003
31
0
0
LINE
5
1B1
100
AcDbEntity
8
CUTOUTS
100
AcDbLine
10
73.957254092584705
20
-44.522260059910003
30
0
11
71.720021799474424
21
-40.64726005991001
31
0
0
LINE
5
1B2
100
AcDbEntity
8
CUTOUTS
100
AcDbLine
10
71.720021799474424
20
-40.64726005991001
30
0
11
73.957254092584705
21
-36.77226005991001
31
0
0
LINE
5
1B3
100
AcDbEntity
8
CUTOUTS
100
AcDbLine
10
73.957254092584705
20
-36.77226005991001
30
0
11
78.431718678804287
21
-36.77226005991001
31
0
0
LINE
5
1B4
100
AcDbEntity
8
CUTOUTS
100
AcDbLine
10
92.52868266401272
20
-36.772260059910003
30
0
11
97.003147250232317
21
-36.77226005991001
31
0
0
LINE
5
1B5
100
AcDbEntity
8
CUTOUTS
100
AcDbLine
10
97.003147250232317
20
-36.77226005991001
30
0
11
99.240379543342598
21
-40.647260059909996
31
0
0
LINE
5
1B6
100
AcDbEntity
8
CUTOUTS
100
AcDbLine
10
99.240379543342598
20
-40.647260059909996
30
0
11
97.003147250232317
21
-44.522260059910003
31
0
0
LINE
5
1B7
100
AcDbEntity
8
CUTOUTS
100
AcDbLine
10
97.003147250232317
20
-44.522260059910003
30
0
11
92.528682664012706
21
-44.522260059910003
31
0
0
LINE
5
1B8
100
AcDbEntity
8
CUTOUTS
100
AcDbLine
10
92.528682664012706
20
-44.522260059910003
30
0
11
90.291450370903419
21
-40.64726005991001
31
0
0
LINE
5
1B9
100
AcDbEntity
8
CUTOUTS
100
AcDbLine
10
90.291450370903419
20
-40.64726005991001
30
0
11
92.52868266401272
21
-36.772260059910003
31
0
0
LINE
5
1BA
100
AcDbEntity
8
CUTOUTS
100
AcDbLine
10
43.526093829056606
20
-21.89726005991
30
0
11
41.288861535947284
21
-25.772260059910003
31
0
0
LINE
5
1BB
100
AcDbEntity
8
CUTOUTS
100
AcDbLine
10
41.288861535947284
20
-25.772260059910003
30
0
11
36.814396949727694
21
-25.772260059910003
31
0
0
LINE
5
1BC
100
AcDbEntity
8
CUTOUTS
100
AcDbLine
10
36.814396949727694
20
-25.772260059910003
30
0
11
34.577164656617413
21
-21.89726005991
31
0
0
LINE
5
1BD
100
AcDbEntity
8
CUTOUTS
100
AcDbLine
10
34.577164656617413
20
-21.89726005991
30
0
11
36.814396949727694
21
-18.022260059910003
31
0
0
LINE
5
1BE
100
AcDbEntity
8
CUTOUTS
100
AcDbLine
10
36.814396949727694
20
-18.022260059910003
30
0
11
41.288861535947284
21
-18.022260059910003
31
0
0
LINE
5
1BF
100
AcDbEntity
8
CUTOUTS
100
AcDbLine
10
41.288861535947284
20
-18.022260059910003
30
0
11
43.526093829056606
21
-21.89726005991
31
0
0
LINE
5
1C0
100
AcDbEntity
8
CUTOUTS
100
AcDbLine
10
59.860290107375306
20
-18.022260059910003
30
0
11
62.097522400485587
21
-21.897260059910003
31
0
0
LINE
5
1C1
100
AcDbEntity
8
CUTOUTS
100
AcDbLine
10
62.097522400485587
20
-21.897260059910003
30
0
11
59.860290107375306
21
-25.772260059910003
31
0
0
LINE
5
1C2
100
AcDbEntity
8
CUTOUTS
100
AcDbLine
10
59.860290107375306
20
-25.772260059910003
30
0
11
55.385825521155716
21
-25.772260059910003
31
0
0
LINE
5
1C3
100
AcDbEntity
8
CUTOUTS
100
AcDbLine
10
55.385825521155716
20
-25.772260059910003
30
0
11
53.148593228046408
21
-21.89726005991
31
0
0
LINE
5
1C4
100
AcDbEntity
8
CUTOUTS
100
AcDbLine
10
53.148593228046408
20
-21.89726005991
30
0
11
55.385825521155716
21
-18.02226005991
31
0
0
LINE
5
1C5
100
AcDbEntity
8
CUTOUTS
100
AcDbLine
10
55.385825521155716
20
-18.02226005991
30
0
11
59.860290107375306
21
-18.022260059910003
31
0
0
LINE
5
1C6
100
AcDbEntity
8
CUTOUTS
100
AcDbLine
10
78.431718678804287
20
-18.022260059910003
30
0
11
80.668950971913603
21
-21.89726005991
31
0
0
LINE
5
1C7
100
AcDbEntity
8
CUTOUTS
100
AcDbLine
10
80.668950971913603
20
-21.89726005991
30
0
11
78.431718678804287
21
-25.772260059910003
31
0
0
LINE
5
1C8
100
AcDbEntity
8
CUTOUTS
100
AcDbLine
10
78.431718678804287
20
-25.772260059910003
30
0
11
73.957254092584705
21
-25.772260059910003
31
0
0
LINE
5
1C9
100
AcDbEntity
8
CUTOUTS
100
AcDbLine
10
73.957254092584705
20
-25.772260059910003
30
0
11
71.720021799474424
21
-21.89726005991
31
0
0
LINE
5
1CA
100
AcDbEntity
8
CUTOUTS
100
AcDbLine
10
71.720021799474424
20
-21.89726005991
30
0
11
73.957254092584705
21
-18.02226005991
31
0
0
LINE
5
1CB
100
AcDbEntity
8
CUTOUTS
100
AcDbLine
10
73.957254092584705
20
-18.02226005991
30
0
11
78.431718678804287
21
-18.022260059910003
31
0
0
LINE
5
1CC
100
AcDbEntity
8
CUTOUTS
100
AcDbLine
10
97.003147250232317
20
-18.022260059910003
30
0
11
99.240379543342598
21
-21.897260059910003
31
0
0
LINE
5
1CD
100
AcDbEntity
8
CUTOUTS
100
AcDbLine
10
99.240379543342598
20
-21.897260059910003
30
0
11
97.003147250232317
21
-25.772260059910003
31
0
0
LINE
5
1CE
100
AcDbEntity
8
CUTOUTS
100
AcDbLine
10
97.003147250232317
20
-25.772260059910003
30
0
11
92.52868266401272
21
-25.772260059910007
31
0
0
LINE
5
1CF
100
AcDbEntity
8
CUTOUTS
100
AcDbLine
10
92.52868266401272
20
-25.772260059910007
30
0
11
90.291450370903419
21
-21.89726005991
31
0
0
LINE
5
1D0
100
AcDbEntity
8
CUTOUTS
100
AcDbLine
10
90.291450370903419
20
-21.89726005991
30
0
11
92.52868266401272
21
-18.022260059909996
31
0
0
LINE
5
1D1
100
AcDbEntity
8
CUTOUTS
100
AcDbLine
10
92.52868266401272
20
-18.022260059909996
30
0
11
97.003147250232317
21
-18.022260059910003
31
0
0
LINE
5
1D2
100
AcDbEntity
8
PERIMETER
100
AcDbLine
10
105.84354137503
20
-115.02226005989999
30
0
11
105.84354137503
21
-14.772260059909996
31
0
0
LINE
5
1D3
100
AcDbEntity
8
PERIMETER
100
AcDbLine
10
105.84354137503
20
-14.772260059909996
30
0
11
-24.406458624959999
21
-14.77226005991
31
0
0
LINE
5
1D4
100
AcDbEntity
8
PERIMETER
100
AcDbLine
10
-24.40645862496001
20
-14.77226005991
30
0
11
-24.406458624960003
21
-115.02226005989999
31
0
0
LINE
5
1D5
100
AcDbEntity
8
PERIMETER
100
AcDbLine
10
-24.406458624960003
20
-115.02226005989999
30
0
11
105.84354137503
21
-115.02226005989999
31
0
0
ENDSEC
0
SECTION
2
OBJECTS
0
DICTIONARY
5
C
100
AcDbDictionary
3
ACAD_GROUP
350
D
3
ACAD_MLINESTYLE
350
17
0
DICTIONARY
5
D
100
AcDbDictionary
0
DICTIONARY
5
1A
330
C
100
AcDbDictionary
0
DICTIONARY
5
17
100
AcDbDictionary
0
ENDSEC
0
EOF
