0
SECTION
2
HEADER
9
$INSUNITS
70
4
9
$ACADVER
1
AC1014
9
$HANDSEED
5
FFFF
0
ENDSEC
0
SECTION
2
TABLES
0
TABLE
2
VPORT
5
8
100
AcDbSymbolTable
0
ENDTAB
0
TABLE
2
LTYPE
5
5
100
AcDbSymbolTable
70
2
0
LTYPE
5
14
100
AcDbSymbolTableRecord
100
AcDbLinetypeTableRecord
2
BYBLOCK
70
0
0
LTYPE
5
15
100
AcDbSymbolTableRecord
100
AcDbLinetypeTableRecord
2
BYLAYER
70
0
0
ENDTAB
0
TABLE
2
LAYER
5
2
100
AcDbSymbolTable
70
3
0
LAYER
5
50
100
AcDbSymbolTableRecord
100
AcDbLayerTableRecord
2
0
70
0
6
CONTINUOUS
0
LAYER
5
51
100
AcDbSymbolTableRecord
100
AcDbLayerTableRecord
2
CUTOUTS
70
0
62
1
6
CONTINUOUS
0
LAYER
5
52
100
AcDbSymbolTableRecord
100
AcDbLayerTableRecord
2
PERIMETER
70
0
62
5
6
CONTINUOUS
0
ENDTAB
0
TABLE
2
STYLE
5
3
100
AcDbSymbolTable
70
1
0
STYLE
5
11
100
AcDbSymbolTableRecord
100
AcDbTextStyleTableRecord
2
STANDARD
70
0
0
ENDTAB
0
TABLE
2
VIEW
5
6
100
AcDbSymbolTable
0
ENDTAB
0
TABLE
2
UCS
5
7
100
AcDbSymbolTable
0
ENDTAB
0
TABLE
2
APPID
5
9
100
AcDbSymbolTable
70
1
0
APPID
5
12
100
AcDbSymbolTableRecord
100
AcDbRegAppTableRecord
2
ACAD
70
0
0
ENDTAB
0
TABLE
2
DIMSTYLE
5
A
100
AcDbSymbolTable
0
ENDTAB
0
TABLE
2
BLOCK_RECORD
5
1
100
AcDbSymbolTable
70
2
0
BLOCK_RECORD
5
1F
100
AcDbSymbolTableRecord
100
AcDbBlockTableRecord
2
*MODEL_SPACE
0
BLOCK_RECORD
5
1B
100
AcDbSymbolTableRecord
100
AcDbBlockTableRecord
2
*PAPER_SPACE
0
ENDTAB
0
ENDSEC
0
SECTION
2
BLOCKS
0
BLOCK
5
20
100
AcDbEntity
100
AcDbBlockBegin
2
*MODEL_SPACE
0
ENDBLK
5
21
100
AcDbEntity
100
AcDbBlockEnd
0
BLOCK
5
1C
100
AcDbEntity
100
AcDbBlockBegin
2
*PAPER_SPACE
0
ENDBLK
5
1D
100
AcDbEntity
100
AcDbBlockEnd
0
ENDSEC
0
SECTION
2
ENTITIES
0
CIRCLE
5
100
100
AcDbEntity
8
CUTOUTS
100
AcDbCircle
10
-195
20
-95
30
0
40
3.8875000000000171
210
0
220
0
230
1
0
LINE
5
101
100
AcDbEntity
8
CUTOUTS
100
AcDbLine
10
-33.004743085866494
20
-83.522499999999994
30
0
11
-37.4938504027335
21
-83.522499999999994
31
0
0
LINE
5
102
100
AcDbEntity
8
CUTOUTS
100
AcDbLine
10
-37.4938504027335
20
-83.522499999999994
30
0
11
-39.738684113600058
21
-79.635000000000005
31
0
0
LINE
5
103
100
AcDbEntity
8
CUTOUTS
100
AcDbLine
10
-39.738684113600058
20
-79.635000000000005
30
0
11
-37.4938504027335
21
-75.747500000000002
31
0
0
LINE
5
104
100
AcDbEntity
8
CUTOUTS
100
AcDbLine
10
-37.4938504027335
20
-75.747500000000002
30
0
11
-33.004743085866501
21
-75.747500000000002
31
0
0
LINE
5
105
100
AcDbEntity
8
CUTOUTS
100
AcDbLine
10
-33.004743085866501
20
-75.747500000000002
30
0
11
-30.759909374999935
21
-79.635000000000005
31
0
0
LINE
5
106
100
AcDbEntity
8
CUTOUTS
100
AcDbLine
10
-30.759909374999935
20
-79.635000000000005
30
0
11
-33.004743085866494
21
-83.522499999999994
31
0
0
LINE
5
107
100
AcDbEntity
8
CUTOUTS
100
AcDbLine
10
-18.004743085866494
20
-83.522499999999994
30
0
11
-22.4938504027335
21
-83.522499999999994
31
0
0
LINE
5
108
100
AcDbEntity
8
CUTOUTS
100
AcDbLine
10
-22.4938504027335
20
-83.522499999999994
30
0
11
-24.738684113600058
21
-79.635000000000005
31
0
0
LINE
5
109
100
AcDbEntity
8
CUTOUTS
100
AcDbLine
10
-24.738684113600058
20
-79.635000000000005
30
0
11
-22.493850402733496
21
-75.747500000000002
31
0
0
LINE
5
10A
100
AcDbEntity
8
CUTOUTS
100
AcDbLine
10
-22.493850402733496
20
-75.747500000000002
30
0
11
-18.004743085866501
21
-75.747500000000002
31
0
0
LINE
5
10B
100
AcDbEntity
8
CUTOUTS
100
AcDbLine
10
-18.004743085866501
20
-75.747500000000002
30
0
11
-15.759909374999934
21
-79.635000000000005
31
0
0
LINE
5
10C
100
AcDbEntity
8
CUTOUTS
100
AcDbLine
10
-15.759909374999934
20
-79.635000000000005
30
0
11
-18.004743085866494
21
-83.522499999999994
31
0
0
LINE
5
10D
100
AcDbEntity
8
CUTOUTS
100
AcDbLine
10
-3.0047430858714215
20
-83.522499999999994
30
0
11
-7.49385040273856
21
-83.522499999999994
31
0
0
LINE
5
10E
100
AcDbEntity
8
CUTOUTS
100
AcDbLine
10
-7.49385040273856
20
-83.522499999999994
30
0
11
-9.7386841136090077
21
-79.635000000000005
31
0
0
LINE
5
10F
100
AcDbEntity
8
CUTOUTS
100
AcDbLine
10
-9.7386841136090077
20
-79.635000000000005
30
0
11
-7.49385040273856
21
-75.747500000000002
31
0
0
LINE
5
110
100
AcDbEntity
8
CUTOUTS
100
AcDbLine
10
-7.49385040273856
20
-75.747500000000002
30
0
11
-3.0047430858714268
21
-75.747500000000002
31
0
0
LINE
5
111
100
AcDbEntity
8
CUTOUTS
100
AcDbLine
10
-3.0047430858714268
20
-75.747500000000002
30
0
11
-0.75990937500000189
21
-79.635000000000005
31
0
0
LINE
5
112
100
AcDbEntity
8
CUTOUTS
100
AcDbLine
10
-0.75990937500000189
20
-79.635000000000005
30
0
11
-3.0047430858714215
21
-83.522499999999994
31
0
0
LINE
5
113
100
AcDbEntity
8
CUTOUTS
100
AcDbLine
10
-33.004743085866494
20
-60.747500000000002
30
0
11
-30.759909374999932
21
-64.635000000000005
31
0
0
LINE
5
114
100
AcDbEntity
8
CUTOUTS
100
AcDbLine
10
-30.759909374999932
20
-64.635000000000005
30
0
11
-33.004743085866494
21
-68.522500000000008
31
0
0
LINE
5
115
100
AcDbEntity
8
CUTOUTS
100
AcDbLine
10
-33.004743085866494
20
-68.522500000000008
30
0
11
-37.493850402733507
21
-68.522500000000008
31
0
0
LINE
5
116
100
AcDbEntity
8
CUTOUTS
100
AcDbLine
10
-37.493850402733507
20
-68.522500000000008
30
0
11
-39.738684113600073
21
-64.635000000000005
31
0
0
LINE
5
117
100
AcDbEntity
8
CUTOUTS
100
AcDbLine
10
-39.738684113600073
20
-64.635000000000005
30
0
11
-37.493850402733507
21
-60.747500000000002
31
0
0
LINE
5
118
100
AcDbEntity
8
CUTOUTS
100
AcDbLine
10
-37.493850402733507
20
-60.747500000000002
30
0
11
-33.004743085866494
21
-60.747500000000002
31
0
0
LINE
5
119
100
AcDbEntity
8
CUTOUTS
100
AcDbLine
10
-15.759909374999934
20
-64.635000000000005
30
0
11
-18.004743085866501
21
-68.522500000000008
31
0
0
LINE
5
11A
100
AcDbEntity
8
CUTOUTS
100
AcDbLine
10
-18.004743085866501
20
-68.522500000000008
30
0
11
-22.4938504027335
21
-68.522500000000008
31
0
0
LINE
5
11B
100
AcDbEntity
8
CUTOUTS
100
AcDbLine
10
-22.4938504027335
20
-68.522500000000008
30
0
11
-24.738684113600065
21
-64.635000000000005
31
0
0
LINE
5
11C
100
AcDbEntity
8
CUTOUTS
100
AcDbLine
10
-24.738684113600065
20
-64.635000000000005
30
0
11
-22.493850402733496
21
-60.747500000000002
31
0
0
LINE
5
11D
100
AcDbEntity
8
CUTOUTS
100
AcDbLine
10
-22.493850402733496
20
-60.747500000000002
30
0
11
-18.004743085866501
21
-60.747500000000002
31
0
0
LINE
5
11E
100
AcDbEntity
8
CUTOUTS
100
AcDbLine
10
-18.004743085866501
20
-60.747500000000002
30
0
11
-15.759909374999934
21
-64.635000000000005
31
0
0
LINE
5
11F
100
AcDbEntity
8
CUTOUTS
100
AcDbLine
10
-7.4938504027385573
20
-68.522500000000008
30
0
11
-9.7386841136090041
21
-64.635000000000005
31
0
0
LINE
5
120
100
AcDbEntity
8
CUTOUTS
100
AcDbLine
10
-9.7386841136090041
20
-64.635000000000005
30
0
11
-7.4938504027385573
21
-60.747500000000009
31
0
0
LINE
5
121
100
AcDbEntity
8
CUTOUTS
100
AcDbLine
10
-7.4938504027385573
20
-60.747500000000009
30
0
11
-3.0047430858714295
21
-60.747500000000009
31
0
0
LINE
5
122
100
AcDbEntity
8
CUTOUTS
100
AcDbLine
10
-3.0047430858714295
20
-60.747500000000009
30
0
11
-0.75990937500000943
21
-64.635000000000005
31
0
0
LINE
5
123
100
AcDbEntity
8
CUTOUTS
100
AcDbLine
10
-0.75990937500000943
20
-64.635000000000005
30
0
11
-3.0047430858714295
21
-68.522500000000008
31
0
0
LINE
5
124
100
AcDbEntity
8
CUTOUTS
100
AcDbLine
10
-3.0047430858714295
20
-68.522500000000008
30
0
11
-7.4938504027385573
21
-68.522500000000008
31
0
0
LINE
5
125
100
AcDbEntity
8
CUTOUTS
100
AcDbLine
10
-33.004743085866501
20
-53.522500000000008
30
0
11
-37.4938504027335
21
-53.522500000000008
31
0
0
LINE
5
126
100
AcDbEntity
8
CUTOUTS
100
AcDbLine
10
-37.4938504027335
20
-53.522500000000008
30
0
11
-39.738684113600065
21
-49.634999999999998
31
0
0
LINE
5
127
100
AcDbEntity
8
CUTOUTS
100
AcDbLine
10
-39.738684113600065
20
-49.634999999999998
30
0
11
-37.4938504027335
21
-45.747500000000002
31
0
0
LINE
5
128
100
AcDbEntity
8
CUTOUTS
100
AcDbLine
10
-37.4938504027335
20
-45.747500000000002
30
0
11
-33.004743085866501
21
-45.747500000000002
31
0
0
LINE
5
129
100
AcDbEntity
8
CUTOUTS
100
AcDbLine
10
-33.004743085866501
20
-45.747500000000002
30
0
11
-30.759909374999935
21
-49.634999999999998
31
0
0
LINE
5
12A
100
AcDbEntity
8
CUTOUTS
100
AcDbLine
10
-30.759909374999935
20
-49.634999999999998
30
0
11
-33.004743085866501
21
-53.522500000000008
31
0
0
LINE
5
12B
100
AcDbEntity
8
CUTOUTS
100
AcDbLine
10
-18.004743085866497
20
-53.522499999999994
30
0
11
-22.493850402733507
21
-53.522499999999994
31
0
0
LINE
5
12C
100
AcDbEntity
8
CUTOUTS
100
AcDbLine
10
-22.493850402733507
20
-53.522499999999994
30
0
11
-24.738684113600065
21
-49.634999999999998
31
0
0
LINE
5
12D
100
AcDbEntity
8
CUTOUTS
100
AcDbLine
10
-24.738684113600065
20
-49.634999999999998
30
0
11
-22.493850402733507
21
-45.747500000000009
31
0
0
LINE
5
12E
100
AcDbEntity
8
CUTOUTS
100
AcDbLine
10
-22.493850402733507
20
-45.747500000000009
30
0
11
-18.004743085866497
21
-45.747500000000009
31
0
0
LINE
5
12F
100
AcDbEntity
8
CUTOUTS
100
AcDbLine
10
-18.004743085866497
20
-45.747500000000009
30
0
11
-15.759909374999935
21
-49.634999999999998
31
0
0
LINE
5
130
100
AcDbEntity
8
CUTOUTS
100
AcDbLine
10
-15.759909374999935
20
-49.634999999999998
30
0
11
-18.004743085866497
21
-53.522499999999994
31
0
0
LINE
5
131
100
AcDbEntity
8
CUTOUTS
100
AcDbLine
10
-0.7599093750000091
20
-49.634999999999998
30
0
11
-3.0047430858714295
21
-53.522499999999994
31
0
0
LINE
5
132
100
AcDbEntity
8
CUTOUTS
100
AcDbLine
10
-3.0047430858714295
20
-53.522499999999994
30
0
11
-7.4938504027385626
21
-53.522499999999994
31
0
0
LINE
5
133
100
AcDbEntity
8
CUTOUTS
100
AcDbLine
10
-7.4938504027385626
20
-53.522499999999994
30
0
11
-9.7386841136090077
21
-49.634999999999998
31
0
0
LINE
5
134
100
AcDbEntity
8
CUTOUTS
100
AcDbLine
10
-9.7386841136090077
20
-49.634999999999998
30
0
11
-7.4938504027385573
21
-45.747500000000009
31
0
0
LINE
5
135
100
AcDbEntity
8
CUTOUTS
100
AcDbLine
10
-7.4938504027385573
20
-45.747500000000009
30
0
11
-3.0047430858714286
21
-45.747500000000009
31
0
0
LINE
5
136
100
AcDbEntity
8
CUTOUTS
100
AcDbLine
10
-3.0047430858714286
20
-45.747500000000009
30
0
11
-0.7599093750000091
21
-49.634999999999998
31
0
0
LINE
5
137
100
AcDbEntity
8
CUTOUTS
100
AcDbLine
10
-183.12014959716652
20
-23.522499999999987
30
0
11
-187.60925691403489
21
-23.522499999999987
31
0
0
LINE
5
138
100
AcDbEntity
8
CUTOUTS
100
AcDbLine
10
-187.60925691403489
20
-23.522499999999987
30
0
11
-189.85409062499866
21
-19.635000000000002
31
0
0
LINE
5
139
100
AcDbEntity
8
CUTOUTS
100
AcDbLine
10
-189.85409062499866
20
-19.635000000000002
30
0
11
-187.60925691403489
21
-15.747500000000015
31
0
0
LINE
5
13A
100
AcDbEntity
8
CUTOUTS
100
AcDbLine
10
-187.60925691403489
20
-15.747500000000015
30
0
11
-183.12014959716652
21
-15.747500000000015
31
0
0
LINE
5
13B
100
AcDbEntity
8
CUTOUTS
100
AcDbLine
10
-183.12014959716652
20
-15.747500000000015
30
0
11
-180.87531588629997
21
-19.635000000000005
31
0
0
LINE
5
13C
100
AcDbEntity
8
CUTOUTS
100
AcDbLine
10
-180.87531588629997
20
-19.635000000000005
30
0
11
-183.12014959716652
21
-23.522499999999987
31
0
0
LINE
5
13D
100
AcDbEntity
8
CUTOUTS
100
AcDbLine
10
-168.12014959716652
20
-15.747500000000015
30
0
11
-165.87531588629997
21
-19.635000000000005
31
0
0
LINE
5
13E
100
AcDbEntity
8
CUTOUTS
100
AcDbLine
10
-165.87531588629997
20
-19.635000000000005
30
0
11
-168.12014959716652
21
-23.522499999999987
31
0
0
LINE
5
13F
100
AcDbEntity
8
CUTOUTS
100
AcDbLine
10
-168.12014959716652
20
-23.522499999999987
30
0
11
-172.60925691403489
21
-23.522499999999987
31
0
0
LINE
5
140
100
AcDbEntity
8
CUTOUTS
100
AcDbLine
10
-172.60925691403489
20
-23.522499999999987
30
0
11
-174.85409062499866
21
-19.635000000000002
31
0
0
LINE
5
141
100
AcDbEntity
8
CUTOUTS
100
AcDbLine
10
-174.85409062499866
20
-19.635000000000002
30
0
11
-172.60925691403489
21
-15.747500000000015
31
0
0
LINE
5
142
100
AcDbEntity
8
CUTOUTS
100
AcDbLine
10
-172.60925691403489
20
-15.747500000000015
30
0
11
-168.12014959716652
21
-15.747500000000015
31
0
0
LINE
5
143
100
AcDbEntity
8
CUTOUTS
100
AcDbLine
10
-153.12014959716652
20
-15.747500000000002
30
0
11
-150.87531588629994
21
-19.635000000000005
31
0
0
LINE
5
144
100
AcDbEntity
8
CUTOUTS
100
AcDbLine
10
-150.87531588629994
20
-19.635000000000005
30
0
11
-153.12014959716652
21
-23.522499999999997
31
0
0
LINE
5
145
100
AcDbEntity
8
CUTOUTS
100
AcDbLine
10
-153.12014959716652
20
-23.522499999999997
30
0
11
-157.60925691403492
21
-23.522499999999997
31
0
0
LINE
5
146
100
AcDbEntity
8
CUTOUTS
100
AcDbLine
10
-157.60925691403492
20
-23.522499999999997
30
0
11
-159.85409062499866
21
-19.635000000000005
31
0
0
LINE
5
147
100
AcDbEntity
8
CUTOUTS
100
AcDbLine
10
-159.85409062499866
20
-19.635000000000005
30
0
11
-157.60925691403492
21
-15.747500000000002
31
0
0
LINE
5
148
100
AcDbEntity
8
CUTOUTS
100
AcDbLine
10
-157.60925691403492
20
-15.747500000000002
30
0
11
-153.12014959716652
21
-15.747500000000002
31
0
0
LINE
5
149
100
AcDbEntity
8
CUTOUTS
100
AcDbLine
10
-180.87531588629997
20
-4.6350000000000016
30
0
11
-183.12014959716652
21
-8.5224999999999884
31
0
0
LINE
5
14A
100
AcDbEntity
8
CUTOUTS
100
AcDbLine
10
-183.12014959716652
20
-8.5224999999999884
30
0
11
-187.60925691403489
21
-8.5224999999999884
31
0
0
LINE
5
14B
100
AcDbEntity
8
CUTOUTS
100
AcDbLine
10
-187.60925691403489
20
-8.5224999999999884
30
0
11
-189.85409062499866
21
-4.6349999999999971
31
0
0
LINE
5
14C
100
AcDbEntity
8
CUTOUTS
100
AcDbLine
10
-189.85409062499866
20
-4.6349999999999971
30
0
11
-187.60925691403489
21
-0.74750000000001204
31
0
0
LINE
5
14D
100
AcDbEntity
8
CUTOUTS
100
AcDbLine
10
-187.60925691403489
20
-0.74750000000001215
30
0
11
-183.12014959716652
21
-0.74750000000001215
31
0
0
LINE
5
14E
100
AcDbEntity
8
CUTOUTS
100
AcDbLine
10
-183.12014959716652
20
-0.74750000000001215
30
0
11
-180.87531588629997
21
-4.6350000000000016
31
0
0
LINE
5
14F
100
AcDbEntity
8
CUTOUTS
100
AcDbLine
10
-172.60925691403489
20
-8.5224999999999902
30
0
11
-174.85409062499866
21
-4.6349999999999971
31
0
0
LINE
5
150
100
AcDbEntity
8
CUTOUTS
100
AcDbLine
10
-174.85409062499866
20
-4.6349999999999971
30
0
11
-172.60925691403489
21
-0.74750000000000982
31
0
0
LINE
5
151
100
AcDbEntity
8
CUTOUTS
100
AcDbLine
10
-172.60925691403489
20
-0.74750000000000971
30
0
11
-168.12014959716649
21
-0.74750000000000971
31
0
0
LINE
5
152
100
AcDbEntity
8
CUTOUTS
100
AcDbLine
10
-168.12014959716649
20
-0.74750000000000971
30
0
11
-165.87531588629992
21
-4.6350000000000016
31
0
0
LINE
5
153
100
AcDbEntity
8
CUTOUTS
100
AcDbLine
10
-165.87531588629992
20
-4.6350000000000016
30
0
11
-168.12014959716649
21
-8.5224999999999902
31
0
0
LINE
5
154
100
AcDbEntity
8
CUTOUTS
100
AcDbLine
10
-168.12014959716649
20
-8.5224999999999902
30
0
11
-172.60925691403489
21
-8.5224999999999902
31
0
0
LINE
5
155
100
AcDbEntity
8
CUTOUTS
100
AcDbLine
10
-153.12014959716649
20
-8.5225000000000009
30
0
11
-157.60925691403492
21
-8.5225000000000044
31
0
0
LINE
5
156
100
AcDbEntity
8
CUTOUTS
100
AcDbLine
10
-157.60925691403492
20
-8.5225000000000044
30
0
11
-159.85409062499866
21
-4.6350000000000051
31
0
0
LINE
5
157
100
AcDbEntity
8
CUTOUTS
100
AcDbLine
10
-159.85409062499866
20
-4.6350000000000051
30
0
11
-157.60925691403492
21
-0.7474999999999965
31
0
0
LINE
5
158
100
AcDbEntity
8
CUTOUTS
100
AcDbLine
10
-157.60925691403492
20
-0.74749999999999672
30
0
11
-153.12014959716649
21
-0.74749999999999672
31
0
0
LINE
5
159
100
AcDbEntity
8
CUTOUTS
100
AcDbLine
10
-153.12014959716649
20
-0.74749999999999672
30
0
11
-150.87531588629992
21
-4.6349999999999989
31
0
0
LINE
5
15A
100
AcDbEntity
8
CUTOUTS
100
AcDbLine
10
-150.87531588629992
20
-4.6349999999999989
30
0
11
-153.12014959716649
21
-8.5225000000000009
31
0
0
LINE
5
15B
100
AcDbEntity
8
CUTOUTS
100
AcDbLine
10
-142.60925691403492
20
-23.522499999999997
30
0
11
-144.85409062499866
21
-19.635000000000005
31
0
0
LINE
5
15C
100
AcDbEntity
8
CUTOUTS
100
AcDbLine
10
-144.85409062499866
20
-19.635000000000005
30
0
11
-142.60925691403492
21
-15.747500000000002
31
0
0
LINE
5
15D
100
AcDbEntity
8
CUTOUTS
100
AcDbLine
10
-142.60925691403492
20
-15.747500000000002
30
0
11
-138.12014959716652
21
-15.747500000000002
31
0
0
LINE
5
15E
100
AcDbEntity
8
CUTOUTS
100
AcDbLine
10
-138.12014959716652
20
-15.747500000000002
30
0
11
-135.87531588629994
21
-19.635000000000005
31
0
0
LINE
5
15F
100
AcDbEntity
8
CUTOUTS
100
AcDbLine
10
-135.87531588629994
20
-19.635000000000005
30
0
11
-138.12014959716652
21
-23.522499999999997
31
0
0
LINE
5
160
100
AcDbEntity
8
CUTOUTS
100
AcDbLine
10
-138.12014959716652
20
-23.522499999999997
30
0
11
-142.60925691403492
21
-23.522499999999997
31
0
0
LINE
5
161
100
AcDbEntity
8
CUTOUTS
100
AcDbLine
10
-123.1201495971665
20
-23.522500000000001
30
0
11
-127.60925691403493
21
-23.522500000000001
31
0
0
LINE
5
162
100
AcDbEntity
8
CUTOUTS
100
AcDbLine
10
-127.60925691403493
20
-23.522500000000001
30
0
11
-129.85409062499866
21
-19.635000000000005
31
0
0
LINE
5
163
100
AcDbEntity
8
CUTOUTS
100
AcDbLine
10
-129.85409062499866
20
-19.635000000000005
30
0
11
-127.60925691403493
21
-15.747499999999999
31
0
0
LINE
5
164
100
AcDbEntity
8
CUTOUTS
100
AcDbLine
10
-127.60925691403493
20
-15.747499999999999
30
0
11
-123.1201495971665
21
-15.747499999999999
31
0
0
LINE
5
165
100
AcDbEntity
8
CUTOUTS
100
AcDbLine
10
-123.1201495971665
20
-15.747499999999999
30
0
11
-120.87531588629993
21
-19.635000000000002
31
0
0
LINE
5
166
100
AcDbEntity
8
CUTOUTS
100
AcDbLine
10
-120.87531588629993
20
-19.635000000000002
30
0
11
-123.1201495971665
21
-23.522500000000001
31
0
0
LINE
5
167
100
AcDbEntity
8
CUTOUTS
100
AcDbLine
10
-112.60925691403493
20
-23.522500000000001
30
0
11
-114.85409062499866
21
-19.635000000000005
31
0
0
LINE
5
168
100
AcDbEntity
8
CUTOUTS
100
AcDbLine
10
-114.85409062499866
20
-19.635000000000005
30
0
11
-112.60925691403493
21
-15.7475
31
0
0
LINE
5
169
100
AcDbEntity
8
CUTOUTS
100
AcDbLine
10
-112.60925691403493
20
-15.7475
30
0
11
-108.1201495971665
21
-15.7475
31
0
0
LINE
5
16A
100
AcDbEntity
8
CUTOUTS
100
AcDbLine
10
-108.1201495971665
20
-15.7475
30
0
11
-105.87531588629993
21
-19.635000000000005
31
0
0
LINE
5
16B
100
AcDbEntity
8
CUTOUTS
100
AcDbLine
10
-105.87531588629993
20
-19.635000000000005
30
0
11
-108.1201495971665
21
-23.522500000000001
31
0
0
LINE
5
16C
100
AcDbEntity
8
CUTOUTS
100
AcDbLine
10
-108.1201495971665
20
-23.522500000000001
30
0
11
-112.60925691403493
21
-23.522500000000001
31
0
0
LINE
5
16D
100
AcDbEntity
8
CUTOUTS
100
AcDbLine
10
-138.12014959716649
20
-8.5225000000000009
30
0
11
-142.60925691403492
21
-8.5225000000000026
31
0
0
LINE
5
16E
100
AcDbEntity
8
CUTOUTS
100
AcDbLine
10
-142.60925691403492
20
-8.5225000000000026
30
0
11
-144.85409062499866
21
-4.6350000000000042
31
0
0
LINE
5
16F
100
AcDbEntity
8
CUTOUTS
100
AcDbLine
10
-144.85409062499866
20
-4.6350000000000042
30
0
11
-142.60925691403492
21
-0.74749999999999706
31
0
0
LINE
5
170
100
AcDbEntity
8
CUTOUTS
100
AcDbLine
10
-142.60925691403492
20
-0.74749999999999739
30
0
11
-138.12014959716649
21
-0.74749999999999739
31
0
0
LINE
5
171
100
AcDbEntity
8
CUTOUTS
100
AcDbLine
10
-138.12014959716649
20
-0.74749999999999739
30
0
11
-135.87531588629992
21
-4.6349999999999989
31
0
0
LINE
5
172
100
AcDbEntity
8
CUTOUTS
100
AcDbLine
10
-135.87531588629992
20
-4.6349999999999989
30
0
11
-138.12014959716649
21
-8.5225000000000009
31
0
0
LINE
5
173
100
AcDbEntity
8
CUTOUTS
100
AcDbLine
10
-120.87531588629993
20
-4.6349999999999998
30
0
11
-123.1201495971665
21
-8.5225000000000009
31
0
0
LINE
5
174
100
AcDbEntity
8
CUTOUTS
100
AcDbLine
10
-123.1201495971665
20
-8.5225000000000009
30
0
11
-127.60925691403493
21
-8.5225000000000009
31
0
0
LINE
5
175
100
AcDbEntity
8
CUTOUTS
100
AcDbLine
10
-127.60925691403493
20
-8.5225000000000009
30
0
11
-129.85409062499866
21
-4.6350000000000042
31
0
0
LINE
5
176
100
AcDbEntity
8
CUTOUTS
100
AcDbLine
10
-129.85409062499866
20
-4.6350000000000042
30
0
11
-127.60925691403493
21
-0.74749999999999817
31
0
0
LINE
5
177
100
AcDbEntity
8
CUTOUTS
100
AcDbLine
10
-127.60925691403493
20
-0.7474999999999985
30
0
11
-123.1201495971665
21
-0.7474999999999985
31
0
0
LINE
5
178
100
AcDbEntity
8
CUTOUTS
100
AcDbLine
10
-123.1201495971665
20
-0.7474999999999985
30
0
11
-120.87531588629993
21
-4.6349999999999998
31
0
0
LINE
5
179
100
AcDbEntity
8
CUTOUTS
100
AcDbLine
10
-108.1201495971665
20
-8.5224999999999991
30
0
11
-112.60925691403493
21
-8.5224999999999991
31
0
0
LINE
5
17A
100
AcDbEntity
8
CUTOUTS
100
AcDbLine
10
-112.60925691403493
20
-8.5224999999999991
30
0
11
-114.85409062499866
21
-4.6350000000000033
31
0
0
LINE
5
17B
100
AcDbEntity
8
CUTOUTS
100
AcDbLine
10
-114.85409062499866
20
-4.6350000000000033
30
0
11
-112.60925691403493
21
-0.74750000000000094
31
0
0
LINE
5
17C
100
AcDbEntity
8
CUTOUTS
100
AcDbLine
10
-112.60925691403493
20
-0.74750000000000094
30
0
11
-108.1201495971665
21
-0.74750000000000094
31
0
0
LINE
5
17D
100
AcDbEntity
8
CUTOUTS
100
AcDbLine
10
-108.1201495971665
20
-0.74750000000000094
30
0
11
-105.87531588629993
21
-4.6349999999999998
31
0
0
LINE
5
17E
100
AcDbEntity
8
CUTOUTS
100
AcDbLine
10
-105.87531588629993
20
-4.6349999999999998
30
0
11
-108.1201495971665
21
-8.5224999999999991
31
0
0
LINE
5
17F
100
AcDbEntity
8
CUTOUTS
100
AcDbLine
10
-33.004743085866501
20
-38.522500000000001
30
0
11
-37.4938504027335
21
-38.522500000000001
31
0
0
LINE
5
180
100
AcDbEntity
8
CUTOUTS
100
AcDbLine
10
-37.4938504027335
20
-38.522500000000001
30
0
11
-39.738684113600058
21
-34.634999999999998
31
0
0
LINE
5
181
100
AcDbEntity
8
CUTOUTS
100
AcDbLine
10
-39.738684113600058
20
-34.634999999999998
30
0
11
-37.4938504027335
21
-30.747500000000002
31
0
0
LINE
5
182
100
AcDbEntity
8
CUTOUTS
100
AcDbLine
10
-37.4938504027335
20
-30.747500000000002
30
0
11
-33.004743085866501
21
-30.747500000000002
31
0
0
LINE
5
183
100
AcDbEntity
8
CUTOUTS
100
AcDbLine
10
-33.004743085866501
20
-30.747500000000002
30
0
11
-30.759909374999943
21
-34.634999999999998
31
0
0
LINE
5
184
100
AcDbEntity
8
CUTOUTS
100
AcDbLine
10
-30.759909374999943
20
-34.634999999999998
30
0
11
-33.004743085866501
21
-38.522500000000001
31
0
0
LINE
5
185
100
AcDbEntity
8
CUTOUTS
100
AcDbLine
10
-22.4938504027335
20
-38.522500000000001
30
0
11
-24.738684113600065
21
-34.634999999999998
31
0
0
LINE
5
186
100
AcDbEntity
8
CUTOUTS
100
AcDbLine
10
-24.738684113600065
20
-34.634999999999998
30
0
11
-22.4938504027335
21
-30.747500000000002
31
0
0
LINE
5
187
100
AcDbEntity
8
CUTOUTS
100
AcDbLine
10
-22.4938504027335
20
-30.747500000000002
30
0
11
-18.004743085866497
21
-30.747500000000002
31
0
0
LINE
5
188
100
AcDbEntity
8
CUTOUTS
100
AcDbLine
10
-18.004743085866497
20
-30.747500000000002
30
0
11
-15.759909374999934
21
-34.634999999999998
31
0
0
LINE
5
189
100
AcDbEntity
8
CUTOUTS
100
AcDbLine
10
-15.759909374999934
20
-34.634999999999998
30
0
11
-18.004743085866497
21
-38.522500000000001
31
0
0
LINE
5
18A
100
AcDbEntity
8
CUTOUTS
100
AcDbLine
10
-18.004743085866497
20
-38.522500000000001
30
0
11
-22.4938504027335
21
-38.522500000000001
31
0
0
LINE
5
18B
100
AcDbEntity
8
CUTOUTS
100
AcDbLine
10
-9.7386841136090059
20
-34.634999999999998
30
0
11
-7.4938504027385573
21
-30.747500000000002
31
0
0
LINE
5
18C
100
AcDbEntity
8
CUTOUTS
100
AcDbLine
10
-7.4938504027385573
20
-30.747500000000002
30
0
11
-3.004743085871429
21
-30.747500000000002
31
0
0
LINE
5
18D
100
AcDbEntity
8
CUTOUTS
100
AcDbLine
10
-3.004743085871429
20
-30.747500000000002
30
0
11
-0.75990937500000688
21
-34.634999999999998
31
0
0
LINE
5
18E
100
AcDbEntity
8
CUTOUTS
100
AcDbLine
10
-0.75990937500000688
20
-34.634999999999998
30
0
11
-3.0047430858714295
21
-38.522500000000001
31
0
0
LINE
5
18F
100
AcDbEntity
8
CUTOUTS
100
AcDbLine
10
-3.0047430858714295
20
-38.522500000000001
30
0
11
-7.4938504027385573
21
-38.522500000000001
31
0
0
LINE
5
190
100
AcDbEntity
8
CUTOUTS
100
AcDbLine
10
-7.4938504027385573
20
-38.522500000000001
30
0
11
-9.7386841136090059
21
-34.634999999999998
31
0
0
LINE
5
191
100
AcDbEntity
8
CUTOUTS
100
AcDbLine
10
-90.965315886389945
20
-19.635000000000002
30
0
11
-93.210149597256503
21
-23.522500000000001
31
0
0
LINE
5
192
100
AcDbEntity
8
CUTOUTS
100
AcDbLine
10
-93.210149597256503
20
-23.522500000000001
30
0
11
-97.699256914123652
21
-23.522500000000001
31
0
0
LINE
5
193
100
AcDbEntity
8
CUTOUTS
100
AcDbLine
10
-97.699256914123652
20
-23.522500000000001
30
0
11
-99.944090624999916
21
-19.635000000000002
31
0
0
LINE
5
194
100
AcDbEntity
8
CUTOUTS
100
AcDbLine
10
-99.944090624999916
20
-19.635000000000002
30
0
11
-97.699256914123652
21
-15.7475
31
0
0
LINE
5
195
100
AcDbEntity
8
CUTOUTS
100
AcDbLine
10
-97.699256914123652
20
-15.7475
30
0
11
-93.210149597256503
21
-15.7475
31
0
0
LINE
5
196
100
AcDbEntity
8
CUTOUTS
100
AcDbLine
10
-93.210149597256503
20
-15.7475
30
0
11
-90.965315886389945
21
-19.635000000000002
31
0
0
LINE
5
197
100
AcDbEntity
8
CUTOUTS
100
AcDbLine
10
-82.699256914123652
20
-15.7475
30
0
11
-78.210149597256503
21
-15.7475
31
0
0
LINE
5
198
100
AcDbEntity
8
CUTOUTS
100
AcDbLine
10
-78.210149597256503
20
-15.7475
30
0
11
-75.965315886389945
21
-19.635000000000002
31
0
0
LINE
5
199
100
AcDbEntity
8
CUTOUTS
100
AcDbLine
10
-75.965315886389945
20
-19.635000000000002
30
0
11
-78.210149597256503
21
-23.522500000000001
31
0
0
LINE
5
19A
100
AcDbEntity
8
CUTOUTS
100
AcDbLine
10
-78.210149597256503
20
-23.522500000000001
30
0
11
-82.699256914123652
21
-23.522500000000001
31
0
0
LINE
5
19B
100
AcDbEntity
8
CUTOUTS
100
AcDbLine
10
-82.699256914123652
20
-23.522500000000001
30
0
11
-84.944090624999916
21
-19.635000000000002
31
0
0
LINE
5
19C
100
AcDbEntity
8
CUTOUTS
100
AcDbLine
10
-84.944090624999916
20
-19.635000000000002
30
0
11
-82.699256914123652
21
-15.7475
31
0
0
LINE
5
19D
100
AcDbEntity
8
CUTOUTS
100
AcDbLine
10
-63.210149597256503
20
-15.7475
30
0
11
-60.965315886389931
21
-19.635000000000002
31
0
0
LINE
5
19E
100
AcDbEntity
8
CUTOUTS
100
AcDbLine
10
-60.965315886389931
20
-19.635000000000002
30
0
11
-63.210149597256503
21
-23.522500000000001
31
0
0
LINE
5
19F
100
AcDbEntity
8
CUTOUTS
100
AcDbLine
10
-63.210149597256503
20
-23.522500000000001
30
0
11
-67.699256914123652
21
-23.522500000000001
31
0
0
LINE
5
1A0
100
AcDbEntity
8
CUTOUTS
100
AcDbLine
10
-67.699256914123652
20
-23.522500000000001
30
0
11
-69.94409062499993
21
-19.635000000000002
31
0
0
LINE
5
1A1
100
AcDbEntity
8
CUTOUTS
100
AcDbLine
10
-69.94409062499993
20
-19.635000000000002
30
0
11
-67.699256914123652
21
-15.7475
31
0
0
LINE
5
1A2
100
AcDbEntity
8
CUTOUTS
100
AcDbLine
10
-67.699256914123652
20
-15.7475
30
0
11
-63.210149597256503
21
-15.7475
31
0
0
LINE
5
1A3
100
AcDbEntity
8
CUTOUTS
100
AcDbLine
10
-48.210149597256503
20
-15.7475
30
0
11
-45.965315886389931
21
-19.635000000000002
31
0
0
LINE
5
1A4
100
AcDbEntity
8
CUTOUTS
100
AcDbLine
10
-45.965315886389931
20
-19.635000000000002
30
0
11
-48.210149597256503
21
-23.522500000000001
31
0
0
LINE
5
1A5
100
AcDbEntity
8
CUTOUTS
100
AcDbLine
10
-48.210149597256503
20
-23.522500000000001
30
0
11
-52.699256914123644
21
-23.522500000000001
31
0
0
LINE
5
1A6
100
AcDbEntity
8
CUTOUTS
100
AcDbLine
10
-52.699256914123644
20
-23.522500000000001
30
0
11
-54.94409062499993
21
-19.635000000000002
31
0
0
LINE
5
1A7
100
AcDbEntity
8
CUTOUTS
100
AcDbLine
10
-54.94409062499993
20
-19.635000000000002
30
0
11
-52.699256914123644
21
-15.7475
31
0
0
LINE
5
1A8
100
AcDbEntity
8
CUTOUTS
100
AcDbLine
10
-52.699256914123644
20
-15.7475
30
0
11
-48.210149597256503
21
-15.7475
31
0
0
LINE
5
1A9
100
AcDbEntity
8
CUTOUTS
100
AcDbLine
10
-93.210149597256503
20
-0.74749999999999983
30
0
11
-90.965315886389945
21
-4.6349999999999989
31
0
0
LINE
5
1AA
100
AcDbEntity
8
CUTOUTS
100
AcDbLine
10
-90.965315886389945
20
-4.6349999999999989
30
0
11
-93.210149597256503
21
-8.5224999999999991
31
0
0
LINE
5
1AB
100
AcDbEntity
8
CUTOUTS
100
AcDbLine
10
-93.210149597256503
20
-8.5224999999999991
30
0
11
-97.699256914123652
21
-8.5225000000000009
31
0
0
LINE
5
1AC
100
AcDbEntity
8
CUTOUTS
100
AcDbLine
10
-97.699256914123652
20
-8.5225000000000009
30
0
11
-99.944090624999916
21
-4.6350000000000016
31
0
0
LINE
5
1AD
100
AcDbEntity
8
CUTOUTS
100
AcDbLine
10
-99.944090624999916
20
-4.6350000000000016
30
0
11
-97.699256914123652
21
-0.74750000000000094
31
0
0
LINE
5
1AE
100
AcDbEntity
8
CUTOUTS
100
AcDbLine
10
-97.699256914123652
20
-0.74750000000000094
30
0
11
-93.210149597256503
21
-0.74749999999999983
31
0
0
LINE
5
1AF
100
AcDbEntity
8
CUTOUTS
100
AcDbLine
10
-82.699256914123652
20
-8.5225000000000009
30
0
11
-84.944090624999916
21
-4.6350000000000016
31
0
0
LINE
5
1B0
100
AcDbEntity
8
CUTOUTS
100
AcDbLine
10
-84.944090624999916
20
-4.6350000000000016
30
0
11
-82.699256914123652
21
-0.74750000000000094
31
0
0
LINE
5
1B1
100
AcDbEntity
8
CUTOUTS
100
AcDbLine
10
-82.699256914123652
20
-0.74750000000000094
30
0
11
-78.210149597256503
21
-0.74749999999999983
31
0
0
LINE
5
1B2
100
AcDbEntity
8
CUTOUTS
100
AcDbLine
10
-78.210149597256503
20
-0.74749999999999983
30
0
11
-75.965315886389945
21
-4.6350000000000016
31
0
0
LINE
5
1B3
100
AcDbEntity
8
CUTOUTS
100
AcDbLine
10
-75.965315886389945
20
-4.6350000000000016
30
0
11
-78.210149597256503
21
-8.5225000000000009
31
0
0
LINE
5
1B4
100
AcDbEntity
8
CUTOUTS
100
AcDbLine
10
-78.210149597256503
20
-8.5225000000000009
30
0
11
-82.699256914123652
21
-8.5225000000000009
31
0
0
LINE
5
1B5
100
AcDbEntity
8
CUTOUTS
100
AcDbLine
10
-63.210149597256503
20
-0.74749999999999983
30
0
11
-60.965315886389931
21
-4.6350000000000016
31
0
0
LINE
5
1B6
100
AcDbEntity
8
CUTOUTS
100
AcDbLine
10
-60.965315886389931
20
-4.6350000000000016
30
0
11
-63.210149597256503
21
-8.5225000000000009
31
0
0
LINE
5
1B7
100
AcDbEntity
8
CUTOUTS
100
AcDbLine
10
-63.210149597256503
20
-8.5225000000000009
30
0
11
-67.699256914123652
21
-8.5225000000000009
31
0
0
LINE
5
1B8
100
AcDbEntity
8
CUTOUTS
100
AcDbLine
10
-67.699256914123652
20
-8.5225000000000009
30
0
11
-69.94409062499993
21
-4.6350000000000016
31
0
0
LINE
5
1B9
100
AcDbEntity
8
CUTOUTS
100
AcDbLine
10
-69.94409062499993
20
-4.6350000000000016
30
0
11
-67.699256914123652
21
-0.74750000000000094
31
0
0
LINE
5
1BA
100
AcDbEntity
8
CUTOUTS
100
AcDbLine
10
-67.699256914123652
20
-0.74750000000000094
30
0
11
-63.210149597256503
21
-0.74749999999999983
31
0
0
LINE
5
1BB
100
AcDbEntity
8
CUTOUTS
100
AcDbLine
10
-48.210149597256503
20
-0.74749999999999983
30
0
11
-45.965315886389931
21
-4.6350000000000016
31
0
0
LINE
5
1BC
100
AcDbEntity
8
CUTOUTS
100
AcDbLine
10
-45.965315886389931
20
-4.6350000000000016
30
0
11
-48.210149597256503
21
-8.5225000000000009
31
0
0
LINE
5
1BD
100
AcDbEntity
8
CUTOUTS
100
AcDbLine
10
-48.210149597256503
20
-8.5225000000000009
30
0
11
-52.699256914123644
21
-8.5225000000000009
31
0
0
LINE
5
1BE
100
AcDbEntity
8
CUTOUTS
100
AcDbLine
10
-52.699256914123644
20
-8.5225000000000009
30
0
11
-54.94409062499993
21
-4.6349999999999998
31
0
0
LINE
5
1BF
100
AcDbEntity
8
CUTOUTS
100
AcDbLine
10
-54.94409062499993
20
-4.6349999999999998
30
0
11
-52.699256914123644
21
-0.74750000000000039
31
0
0
LINE
5
1C0
100
AcDbEntity
8
CUTOUTS
100
AcDbLine
10
-52.699256914123644
20
-0.74750000000000039
30
0
11
-48.210149597256503
21
-0.74749999999999983
31
0
0
LINE
5
1C1
100
AcDbEntity
8
CUTOUTS
100
AcDbLine
10
-33.004743085866501
20
-23.522500000000001
30
0
11
-37.4938504027335
21
-23.522500000000001
31
0
0
LINE
5
1C2
100
AcDbEntity
8
CUTOUTS
100
AcDbLine
10
-37.4938504027335
20
-23.522500000000001
30
0
11
-39.738684113600058
21
-19.635000000000002
31
0
0
LINE
5
1C3
100
AcDbEntity
8
CUTOUTS
100
AcDbLine
10
-39.738684113600058
20
-19.635000000000002
30
0
11
-37.4938504027335
21
-15.7475
31
0
0
LINE
5
1C4
100
AcDbEntity
8
CUTOUTS
100
AcDbLine
10
-37.4938504027335
20
-15.7475
30
0
11
-33.004743085866501
21
-15.7475
31
0
0
LINE
5
1C5
100
AcDbEntity
8
CUTOUTS
100
AcDbLine
10
-33.004743085866501
20
-15.7475
30
0
11
-30.759909374999935
21
-19.635000000000002
31
0
0
LINE
5
1C6
100
AcDbEntity
8
CUTOUTS
100
AcDbLine
10
-30.759909374999935
20
-19.635000000000002
30
0
11
-33.004743085866501
21
-23.522500000000001
31
0
0
LINE
5
1C7
100
AcDbEntity
8
CUTOUTS
100
AcDbLine
10
-22.4938504027335
20
-23.522500000000001
30
0
11
-24.738684113600065
21
-19.635000000000002
31
0
0
LINE
5
1C8
100
AcDbEntity
8
CUTOUTS
100
AcDbLine
10
-24.738684113600065
20
-19.635000000000002
30
0
11
-22.4938504027335
21
-15.7475
31
0
0
LINE
5
1C9
100
AcDbEntity
8
CUTOUTS
100
AcDbLine
10
-22.4938504027335
20
-15.7475
30
0
11
-18.004743085866501
21
-15.7475
31
0
0
LINE
5
1CA
100
AcDbEntity
8
CUTOUTS
100
AcDbLine
10
-18.004743085866501
20
-15.7475
30
0
11
-15.759909374999935
21
-19.635000000000002
31
0
0
LINE
5
1CB
100
AcDbEntity
8
CUTOUTS
100
AcDbLine
10
-15.759909374999935
20
-19.635000000000002
30
0
11
-18.004743085866497
21
-23.522500000000001
31
0
0
LINE
5
1CC
100
AcDbEntity
8
CUTOUTS
100
AcDbLine
10
-18.004743085866497
20
-23.522500000000001
30
0
11
-22.4938504027335
21
-23.522500000000001
31
0
0
LINE
5
1CD
100
AcDbEntity
8
CUTOUTS
100
AcDbLine
10
-3.0047430858714281
20
-15.7475
30
0
11
-0.75990937500000522
21
-19.635000000000002
31
0
0
LINE
5
1CE
100
AcDbEntity
8
CUTOUTS
100
AcDbLine
10
-0.75990937500000522
20
-19.635000000000002
30
0
11
-3.0047430858714281
21
-23.522500000000001
31
0
0
LINE
5
1CF
100
AcDbEntity
8
CUTOUTS
100
AcDbLine
10
-3.0047430858714281
20
-23.522500000000001
30
0
11
-7.4938504027385573
21
-23.522500000000001
31
0
0
LINE
5
1D0
100
AcDbEntity
8
CUTOUTS
100
AcDbLine
10
-7.4938504027385573
20
-23.522500000000001
30
0
11
-9.7386841136090077
21
-19.635000000000002
31
0
0
LINE
5
1D1
100
AcDbEntity
8
CUTOUTS
100
AcDbLine
10
-9.7386841136090077
20
-19.635000000000002
30
0
11
-7.4938504027385591
21
-15.7475
31
0
0
LINE
5
1D2
100
AcDbEntity
8
CUTOUTS
100
AcDbLine
10
-7.4938504027385591
20
-15.7475
30
0
11
-3.0047430858714281
21
-15.7475
31
0
0
LINE
5
1D3
100
AcDbEntity
8
CUTOUTS
100
AcDbLine
10
-33.004743085866501
20
-8.5224999999999991
30
0
11
-37.4938504027335
21
-8.5224999999999991
31
0
0
LINE
5
1D4
100
AcDbEntity
8
CUTOUTS
100
AcDbLine
10
-37.4938504027335
20
-8.5224999999999991
30
0
11
-39.738684113600058
21
-4.6350000000000016
31
0
0
LINE
5
1D5
100
AcDbEntity
8
CUTOUTS
100
AcDbLine
10
-39.738684113600058
20
-4.6350000000000016
30
0
11
-37.4938504027335
21
-0.74750000000000094
31
0
0
LINE
5
1D6
100
AcDbEntity
8
CUTOUTS
100
AcDbLine
10
-37.4938504027335
20
-0.74750000000000072
30
0
11
-33.004743085866501
21
-0.74750000000000072
31
0
0
LINE
5
1D7
100
AcDbEntity
8
CUTOUTS
100
AcDbLine
10
-33.004743085866501
20
-0.74750000000000072
30
0
11
-30.759909374999943
21
-4.6349999999999989
31
0
0
LINE
5
1D8
100
AcDbEntity
8
CUTOUTS
100
AcDbLine
10
-30.759909374999943
20
-4.6349999999999989
30
0
11
-33.004743085866501
21
-8.5224999999999991
31
0
0
LINE
5
1D9
100
AcDbEntity
8
CUTOUTS
100
AcDbLine
10
-18.004743085866501
20
-8.5224999999999991
30
0
11
-22.4938504027335
21
-8.5224999999999991
31
0
0
LINE
5
1DA
100
AcDbEntity
8
CUTOUTS
100
AcDbLine
10
-22.4938504027335
20
-8.5224999999999991
30
0
11
-24.738684113600058
21
-4.6350000000000016
31
0
0
LINE
5
1DB
100
AcDbEntity
8
CUTOUTS
100
AcDbLine
10
-24.738684113600058
20
-4.6350000000000016
30
0
11
-22.4938504027335
21
-0.74750000000000094
31
0
0
LINE
5
1DC
100
AcDbEntity
8
CUTOUTS
100
AcDbLine
10
-22.4938504027335
20
-0.74750000000000072
30
0
11
-18.004743085866501
21
-0.74750000000000072
31
0
0
LINE
5
1DD
100
AcDbEntity
8
CUTOUTS
100
AcDbLine
10
-18.004743085866501
20
-0.74750000000000072
30
0
11
-15.759909374999939
21
-4.6349999999999998
31
0
0
LINE
5
1DE
100
AcDbEntity
8
CUTOUTS
100
AcDbLine
10
-15.759909374999939
20
-4.6349999999999998
30
0
11
-18.004743085866501
21
-8.5224999999999991
31
0
0
LINE
5
1DF
100
AcDbEntity
8
CUTOUTS
100
AcDbLine
10
-7.49385040273856
20
-0.74749999999999983
30
0
11
-3.0047430858714281
21
-0.74749999999999983
31
0
0
LINE
5
1E0
100
AcDbEntity
8
CUTOUTS
100
AcDbLine
10
-3.0047430858714281
20
-0.74749999999999983
30
0
11
-0.7599093750000061
21
-4.6349999999999998
31
0
0
LINE
5
1E1
100
AcDbEntity
8
CUTOUTS
100
AcDbLine
10
-0.7599093750000061
20
-4.6349999999999998
30
0
11
-3.0047430858714286
21
-8.5225000000000009
31
0
0
LINE
5
1E2
100
AcDbEntity
8
CUTOUTS
100
AcDbLine
10
-3.0047430858714286
20
-8.5225000000000009
30
0
11
-7.4938504027385573
21
-8.5225000000000009
31
0
0
LINE
5
1E3
100
AcDbEntity
8
CUTOUTS
100
AcDbLine
10
-7.4938504027385573
20
-8.5225000000000009
30
0
11
-9.7386841136090077
21
-4.6349999999999998
31
0
0
LINE
5
1E4
100
AcDbEntity
8
CUTOUTS
100
AcDbLine
10
-9.7386841136090077
20
-4.6349999999999998
30
0
11
-7.49385040273856
21
-0.74749999999999983
31
0
0
LINE
5
1E5
100
AcDbEntity
8
CUTOUTS
100
AcDbLine
10
14.240090624999993
20
-79.635000000000005
30
0
11
11.995256914128573
21
-83.522499999999994
31
0
0
LINE
5
1E6
100
AcDbEntity
8
CUTOUTS
100
AcDbLine
10
11.995256914128573
20
-83.522499999999994
30
0
11
7.5061495972614427
21
-83.522499999999994
31
0
0
LINE
5
1E7
100
AcDbEntity
8
CUTOUTS
100
AcDbLine
10
7.5061495972614427
20
-83.522499999999994
30
0
11
5.2613158863909959
21
-79.635000000000005
31
0
0
LINE
5
1E8
100
AcDbEntity
8
CUTOUTS
100
AcDbLine
10
5.2613158863909959
20
-79.635000000000005
30
0
11
7.5061495972614436
21
-75.747500000000016
31
0
0
LINE
5
1E9
100
AcDbEntity
8
CUTOUTS
100
AcDbLine
10
7.5061495972614436
20
-75.747500000000016
30
0
11
11.995256914128573
21
-75.747500000000016
31
0
0
LINE
5
1EA
100
AcDbEntity
8
CUTOUTS
100
AcDbLine
10
11.995256914128573
20
-75.747500000000016
30
0
11
14.240090624999993
21
-79.635000000000005
31
0
0
LINE
5
1EB
100
AcDbEntity
8
CUTOUTS
100
AcDbLine
10
26.995256914128575
20
-83.522499999999994
30
0
11
22.506149597261448
21
-83.522499999999994
31
0
0
LINE
5
1EC
100
AcDbEntity
8
CUTOUTS
100
AcDbLine
10
22.506149597261448
20
-83.522499999999994
30
0
11
20.261315886390996
21
-79.635000000000005
31
0
0
LINE
5
1ED
100
AcDbEntity
8
CUTOUTS
100
AcDbLine
10
20.261315886390996
20
-79.635000000000005
30
0
11
22.506149597261448
21
-75.747500000000016
31
0
0
LINE
5
1EE
100
AcDbEntity
8
CUTOUTS
100
AcDbLine
10
22.506149597261448
20
-75.747500000000016
30
0
11
26.995256914128575
21
-75.747500000000016
31
0
0
LINE
5
1EF
100
AcDbEntity
8
CUTOUTS
100
AcDbLine
10
26.995256914128575
20
-75.747500000000016
30
0
11
29.240090624999993
21
-79.635000000000005
31
0
0
LINE
5
1F0
100
AcDbEntity
8
CUTOUTS
100
AcDbLine
10
29.240090624999993
20
-79.635000000000005
30
0
11
26.995256914128575
21
-83.522499999999994
31
0
0
LINE
5
1F1
100
AcDbEntity
8
CUTOUTS
100
AcDbLine
10
41.995256914128575
20
-83.522499999999994
30
0
11
37.506149597261448
21
-83.522499999999994
31
0
0
LINE
5
1F2
100
AcDbEntity
8
CUTOUTS
100
AcDbLine
10
37.506149597261448
20
-83.522499999999994
30
0
11
35.261315886390996
21
-79.635000000000005
31
0
0
LINE
5
1F3
100
AcDbEntity
8
CUTOUTS
100
AcDbLine
10
35.261315886390996
20
-79.635000000000005
30
0
11
37.506149597261448
21
-75.747500000000016
31
0
0
LINE
5
1F4
100
AcDbEntity
8
CUTOUTS
100
AcDbLine
10
37.506149597261448
20
-75.747500000000016
30
0
11
41.995256914128575
21
-75.747500000000016
31
0
0
LINE
5
1F5
100
AcDbEntity
8
CUTOUTS
100
AcDbLine
10
41.995256914128575
20
-75.747500000000016
30
0
11
44.240090624999993
21
-79.635000000000005
31
0
0
LINE
5
1F6
100
AcDbEntity
8
CUTOUTS
100
AcDbLine
10
44.240090624999993
20
-79.635000000000005
30
0
11
41.995256914128575
21
-83.522499999999994
31
0
0
LINE
5
1F7
100
AcDbEntity
8
CUTOUTS
100
AcDbLine
10
56.905256914128579
20
-83.522499999999994
30
0
11
52.416149597261452
21
-83.522499999999994
31
0
0
LINE
5
1F8
100
AcDbEntity
8
CUTOUTS
100
AcDbLine
10
52.416149597261452
20
-83.522499999999994
30
0
11
50.171315886391
21
-79.635000000000005
31
0
0
LINE
5
1F9
100
AcDbEntity
8
CUTOUTS
100
AcDbLine
10
50.171315886391
20
-79.635000000000005
30
0
11
52.416149597261452
21
-75.747500000000016
31
0
0
LINE
5
1FA
100
AcDbEntity
8
CUTOUTS
100
AcDbLine
10
52.416149597261452
20
-75.747500000000016
30
0
11
56.905256914128579
21
-75.747500000000016
31
0
0
LINE
5
1FB
100
AcDbEntity
8
CUTOUTS
100
AcDbLine
10
56.905256914128579
20
-75.747500000000016
30
0
11
59.150090625000004
21
-79.635000000000005
31
0
0
LINE
5
1FC
100
AcDbEntity
8
CUTOUTS
100
AcDbLine
10
59.150090625000004
20
-79.635000000000005
30
0
11
56.905256914128579
21
-83.522499999999994
31
0
0
LINE
5
1FD
100
AcDbEntity
8
CUTOUTS
100
AcDbLine
10
74.150090625000004
20
-79.635000000000005
30
0
11
71.905256914128572
21
-83.522499999999994
31
0
0
LINE
5
1FE
100
AcDbEntity
8
CUTOUTS
100
AcDbLine
10
71.905256914128572
20
-83.522499999999994
30
0
11
67.416149597261452
21
-83.522499999999994
31
0
0
LINE
5
1FF
100
AcDbEntity
8
CUTOUTS
100
AcDbLine
10
67.416149597261452
20
-83.522499999999994
30
0
11
65.171315886391
21
-79.635000000000005
31
0
0
LINE
5
200
100
AcDbEntity
8
CUTOUTS
100
AcDbLine
10
65.171315886391
20
-79.635000000000005
30
0
11
67.416149597261452
21
-75.747500000000016
31
0
0
LINE
5
201
100
AcDbEntity
8
CUTOUTS
100
AcDbLine
10
67.416149597261452
20
-75.747500000000016
30
0
11
71.905256914128572
21
-75.747500000000016
31
0
0
LINE
5
202
100
AcDbEntity
8
CUTOUTS
100
AcDbLine
10
71.905256914128572
20
-75.747500000000016
30
0
11
74.150090625000004
21
-79.635000000000005
31
0
0
LINE
5
203
100
AcDbEntity
8
CUTOUTS
100
AcDbLine
10
82.416149597261438
20
-83.522499999999994
30
0
11
80.171315886391014
21
-79.635000000000005
31
0
0
LINE
5
204
100
AcDbEntity
8
CUTOUTS
100
AcDbLine
10
80.171315886391014
20
-79.635000000000005
30
0
11
82.416149597261438
21
-75.747500000000016
31
0
0
LINE
5
205
100
AcDbEntity
8
CUTOUTS
100
AcDbLine
10
82.416149597261438
20
-75.747500000000016
30
0
11
86.905256914128572
21
-75.747500000000016
31
0
0
LINE
5
206
100
AcDbEntity
8
CUTOUTS
100
AcDbLine
10
86.905256914128572
20
-75.747500000000016
30
0
11
89.15009062499999
21
-79.635000000000005
31
0
0
LINE
5
207
100
AcDbEntity
8
CUTOUTS
100
AcDbLine
10
89.15009062499999
20
-79.635000000000005
30
0
11
86.905256914128572
21
-83.522499999999994
31
0
0
LINE
5
208
100
AcDbEntity
8
CUTOUTS
100
AcDbLine
10
86.905256914128572
20
-83.522499999999994
30
0
11
82.416149597261438
21
-83.522499999999994
31
0
0
LINE
5
209
100
AcDbEntity
8
CUTOUTS
100
AcDbLine
10
14.240090624999997
20
-64.635000000000005
30
0
11
11.995256914128573
21
-68.522500000000008
31
0
0
LINE
5
20A
100
AcDbEntity
8
CUTOUTS
100
AcDbLine
10
11.995256914128573
20
-68.522500000000008
30
0
11
7.5061495972614427
21
-68.522500000000008
31
0
0
LINE
5
20B
100
AcDbEntity
8
CUTOUTS
100
AcDbLine
10
7.5061495972614427
20
-68.522500000000008
30
0
11
5.2613158863909888
21
-64.635000000000005
31
0
0
LINE
5
20C
100
AcDbEntity
8
CUTOUTS
100
AcDbLine
10
5.2613158863909888
20
-64.635000000000005
30
0
11
7.5061495972614427
21
-60.747500000000002
31
0
0
LINE
5
20D
100
AcDbEntity
8
CUTOUTS
100
AcDbLine
10
7.5061495972614427
20
-60.747500000000002
30
0
11
11.995256914128573
21
-60.747500000000002
31
0
0
LINE
5
20E
100
AcDbEntity
8
CUTOUTS
100
AcDbLine
10
11.995256914128573
20
-60.747500000000002
30
0
11
14.240090624999997
21
-64.635000000000005
31
0
0
LINE
5
20F
100
AcDbEntity
8
CUTOUTS
100
AcDbLine
10
26.995256914128575
20
-68.522500000000008
30
0
11
22.506149597261444
21
-68.522500000000008
31
0
0
LINE
5
210
100
AcDbEntity
8
CUTOUTS
100
AcDbLine
10
22.506149597261444
20
-68.522500000000008
30
0
11
20.261315886390992
21
-64.635000000000005
31
0
0
LINE
5
211
100
AcDbEntity
8
CUTOUTS
100
AcDbLine
10
20.261315886390992
20
-64.635000000000005
30
0
11
22.506149597261444
21
-60.747500000000009
31
0
0
LINE
5
212
100
AcDbEntity
8
CUTOUTS
100
AcDbLine
10
22.506149597261444
20
-60.747500000000009
30
0
11
26.995256914128575
21
-60.747500000000009
31
0
0
LINE
5
213
100
AcDbEntity
8
CUTOUTS
100
AcDbLine
10
26.995256914128575
20
-60.747500000000009
30
0
11
29.240090624999993
21
-64.635000000000005
31
0
0
LINE
5
214
100
AcDbEntity
8
CUTOUTS
100
AcDbLine
10
29.240090624999993
20
-64.635000000000005
30
0
11
26.995256914128575
21
-68.522500000000008
31
0
0
LINE
5
215
100
AcDbEntity
8
CUTOUTS
100
AcDbLine
10
41.995256914128575
20
-68.522500000000008
30
0
11
37.506149597261441
21
-68.522500000000008
31
0
0
LINE
5
216
100
AcDbEntity
8
CUTOUTS
100
AcDbLine
10
37.506149597261441
20
-68.522500000000008
30
0
11
35.261315886390989
21
-64.635000000000005
31
0
0
LINE
5
217
100
AcDbEntity
8
CUTOUTS
100
AcDbLine
10
35.261315886390989
20
-64.635000000000005
30
0
11
37.506149597261441
21
-60.747500000000002
31
0
0
LINE
5
218
100
AcDbEntity
8
CUTOUTS
100
AcDbLine
10
37.506149597261441
20
-60.747500000000002
30
0
11
41.995256914128575
21
-60.747500000000002
31
0
0
LINE
5
219
100
AcDbEntity
8
CUTOUTS
100
AcDbLine
10
41.995256914128575
20
-60.747500000000002
30
0
11
44.240090624999993
21
-64.635000000000005
31
0
0
LINE
5
21A
100
AcDbEntity
8
CUTOUTS
100
AcDbLine
10
44.240090624999993
20
-64.635000000000005
30
0
11
41.995256914128575
21
-68.522500000000008
31
0
0
LINE
5
21B
100
AcDbEntity
8
CUTOUTS
100
AcDbLine
10
7.5061495972614374
20
-53.522499999999994
30
0
11
5.2613158863909888
21
-49.634999999999998
31
0
0
LINE
5
21C
100
AcDbEntity
8
CUTOUTS
100
AcDbLine
10
5.2613158863909888
20
-49.634999999999998
30
0
11
7.5061495972614365
21
-45.747500000000009
31
0
0
LINE
5
21D
100
AcDbEntity
8
CUTOUTS
100
AcDbLine
10
7.5061495972614365
20
-45.747500000000009
30
0
11
11.995256914128573
21
-45.747500000000009
31
0
0
LINE
5
21E
100
AcDbEntity
8
CUTOUTS
100
AcDbLine
10
11.995256914128573
20
-45.747500000000009
30
0
11
14.240090624999993
21
-49.634999999999998
31
0
0
LINE
5
21F
100
AcDbEntity
8
CUTOUTS
100
AcDbLine
10
14.240090624999993
20
-49.634999999999998
30
0
11
11.995256914128573
21
-53.522499999999994
31
0
0
LINE
5
220
100
AcDbEntity
8
CUTOUTS
100
AcDbLine
10
11.995256914128573
20
-53.522499999999994
30
0
11
7.5061495972614374
21
-53.522499999999994
31
0
0
LINE
5
221
100
AcDbEntity
8
CUTOUTS
100
AcDbLine
10
26.995256914128575
20
-45.747500000000009
30
0
11
29.240090624999993
21
-49.634999999999998
31
0
0
LINE
5
222
100
AcDbEntity
8
CUTOUTS
100
AcDbLine
10
29.240090624999993
20
-49.634999999999998
30
0
11
26.995256914128575
21
-53.522499999999994
31
0
0
LINE
5
223
100
AcDbEntity
8
CUTOUTS
100
AcDbLine
10
26.995256914128575
20
-53.522499999999994
30
0
11
22.506149597261444
21
-53.522499999999994
31
0
0
LINE
5
224
100
AcDbEntity
8
CUTOUTS
100
AcDbLine
10
22.506149597261444
20
-53.522499999999994
30
0
11
20.261315886390992
21
-49.634999999999998
31
0
0
LINE
5
225
100
AcDbEntity
8
CUTOUTS
100
AcDbLine
10
20.261315886390992
20
-49.634999999999998
30
0
11
22.506149597261444
21
-45.747500000000009
31
0
0
LINE
5
226
100
AcDbEntity
8
CUTOUTS
100
AcDbLine
10
22.506149597261444
20
-45.747500000000009
30
0
11
26.995256914128575
21
-45.747500000000009
31
0
0
LINE
5
227
100
AcDbEntity
8
CUTOUTS
100
AcDbLine
10
41.995256914128575
20
-45.747500000000002
30
0
11
44.240090624999993
21
-49.634999999999998
31
0
0
LINE
5
228
100
AcDbEntity
8
CUTOUTS
100
AcDbLine
10
44.240090624999993
20
-49.634999999999998
30
0
11
41.995256914128575
21
-53.522500000000008
31
0
0
LINE
5
229
100
AcDbEntity
8
CUTOUTS
100
AcDbLine
10
41.995256914128575
20
-53.522500000000008
30
0
11
37.506149597261441
21
-53.522500000000008
31
0
0
LINE
5
22A
100
AcDbEntity
8
CUTOUTS
100
AcDbLine
10
37.506149597261441
20
-53.522500000000008
30
0
11
35.261315886390989
21
-49.634999999999998
31
0
0
LINE
5
22B
100
AcDbEntity
8
CUTOUTS
100
AcDbLine
10
35.261315886390989
20
-49.634999999999998
30
0
11
37.506149597261441
21
-45.747500000000002
31
0
0
LINE
5
22C
100
AcDbEntity
8
CUTOUTS
100
AcDbLine
10
37.506149597261441
20
-45.747500000000002
30
0
11
41.995256914128575
21
-45.747500000000002
31
0
0
LINE
5
22D
100
AcDbEntity
8
CUTOUTS
100
AcDbLine
10
52.416149597261459
20
-68.522500000000008
30
0
11
50.171315886391014
21
-64.635000000000005
31
0
0
LINE
5
22E
100
AcDbEntity
8
CUTOUTS
100
AcDbLine
10
50.171315886391014
20
-64.635000000000005
30
0
11
52.416149597261459
21
-60.747500000000009
31
0
0
LINE
5
22F
100
AcDbEntity
8
CUTOUTS
100
AcDbLine
10
52.416149597261459
20
-60.747500000000009
30
0
11
56.905256914128579
21
-60.747500000000009
31
0
0
LINE
5
230
100
AcDbEntity
8
CUTOUTS
100
AcDbLine
10
56.905256914128579
20
-60.747500000000009
30
0
11
59.150090625000004
21
-64.635000000000005
31
0
0
LINE
5
231
100
AcDbEntity
8
CUTOUTS
100
AcDbLine
10
59.150090625000004
20
-64.635000000000005
30
0
11
56.905256914128579
21
-68.522500000000008
31
0
0
LINE
5
232
100
AcDbEntity
8
CUTOUTS
100
AcDbLine
10
56.905256914128579
20
-68.522500000000008
30
0
11
52.416149597261459
21
-68.522500000000008
31
0
0
LINE
5
233
100
AcDbEntity
8
CUTOUTS
100
AcDbLine
10
71.905256914128572
20
-68.522500000000008
30
0
11
67.416149597261466
21
-68.522500000000008
31
0
0
LINE
5
234
100
AcDbEntity
8
CUTOUTS
100
AcDbLine
10
67.416149597261466
20
-68.522500000000008
30
0
11
65.171315886391014
21
-64.635000000000005
31
0
0
LINE
5
235
100
AcDbEntity
8
CUTOUTS
100
AcDbLine
10
65.171315886391014
20
-64.635000000000005
30
0
11
67.416149597261466
21
-60.747500000000009
31
0
0
LINE
5
236
100
AcDbEntity
8
CUTOUTS
100
AcDbLine
10
67.416149597261466
20
-60.747500000000009
30
0
11
71.905256914128572
21
-60.747500000000009
31
0
0
LINE
5
237
100
AcDbEntity
8
CUTOUTS
100
AcDbLine
10
71.905256914128572
20
-60.747500000000009
30
0
11
74.150090625000004
21
-64.635000000000005
31
0
0
LINE
5
238
100
AcDbEntity
8
CUTOUTS
100
AcDbLine
10
74.150090625000004
20
-64.635000000000005
30
0
11
71.905256914128572
21
-68.522500000000008
31
0
0
LINE
5
239
100
AcDbEntity
8
CUTOUTS
100
AcDbLine
10
82.416149597261438
20
-68.522500000000008
30
0
11
80.171315886391014
21
-64.635000000000019
31
0
0
LINE
5
23A
100
AcDbEntity
8
CUTOUTS
100
AcDbLine
10
80.171315886391014
20
-64.635000000000019
30
0
11
82.416149597261438
21
-60.747500000000002
31
0
0
LINE
5
23B
100
AcDbEntity
8
CUTOUTS
100
AcDbLine
10
82.416149597261438
20
-60.747500000000002
30
0
11
86.905256914128572
21
-60.747500000000009
31
0
0
LINE
5
23C
100
AcDbEntity
8
CUTOUTS
100
AcDbLine
10
86.905256914128572
20
-60.747500000000009
30
0
11
89.15009062499999
21
-64.635000000000005
31
0
0
LINE
5
23D
100
AcDbEntity
8
CUTOUTS
100
AcDbLine
10
89.15009062499999
20
-64.635000000000005
30
0
11
86.905256914128572
21
-68.522500000000008
31
0
0
LINE
5
23E
100
AcDbEntity
8
CUTOUTS
100
AcDbLine
10
86.905256914128572
20
-68.522500000000008
30
0
11
82.416149597261438
21
-68.522500000000008
31
0
0
LINE
5
23F
100
AcDbEntity
8
CUTOUTS
100
AcDbLine
10
50.171315886391014
20
-49.634999999999998
30
0
11
52.416149597261459
21
-45.747500000000009
31
0
0
LINE
5
240
100
AcDbEntity
8
CUTOUTS
100
AcDbLine
10
52.416149597261459
20
-45.747500000000009
30
0
11
56.905256914128579
21
-45.747500000000009
31
0
0
LINE
5
241
100
AcDbEntity
8
CUTOUTS
100
AcDbLine
10
56.905256914128579
20
-45.747500000000009
30
0
11
59.150090625000004
21
-49.634999999999998
31
0
0
LINE
5
242
100
AcDbEntity
8
CUTOUTS
100
AcDbLine
10
59.150090625000004
20
-49.634999999999998
30
0
11
56.905256914128579
21
-53.522499999999994
31
0
0
LINE
5
243
100
AcDbEntity
8
CUTOUTS
100
AcDbLine
10
56.905256914128579
20
-53.522499999999994
30
0
11
52.416149597261459
21
-53.522499999999994
31
0
0
LINE
5
244
100
AcDbEntity
8
CUTOUTS
100
AcDbLine
10
52.416149597261459
20
-53.522499999999994
30
0
11
50.171315886391014
21
-49.634999999999998
31
0
0
LINE
5
245
100
AcDbEntity
8
CUTOUTS
100
AcDbLine
10
67.416149597261466
20
-53.522499999999994
30
0
11
65.171315886391014
21
-49.634999999999998
31
0
0
LINE
5
246
100
AcDbEntity
8
CUTOUTS
100
AcDbLine
10
65.171315886391014
20
-49.634999999999998
30
0
11
67.416149597261466
21
-45.747500000000009
31
0
0
LINE
5
247
100
AcDbEntity
8
CUTOUTS
100
AcDbLine
10
67.416149597261466
20
-45.747500000000009
30
0
11
71.905256914128572
21
-45.747500000000009
31
0
0
LINE
5
248
100
AcDbEntity
8
CUTOUTS
100
AcDbLine
10
71.905256914128572
20
-45.747500000000009
30
0
11
74.150090625000004
21
-49.634999999999998
31
0
0
LINE
5
249
100
AcDbEntity
8
CUTOUTS
100
AcDbLine
10
74.150090625000004
20
-49.634999999999998
30
0
11
71.905256914128572
21
-53.522499999999994
31
0
0
LINE
5
24A
100
AcDbEntity
8
CUTOUTS
100
AcDbLine
10
71.905256914128572
20
-53.522499999999994
30
0
11
67.416149597261466
21
-53.522499999999994
31
0
0
LINE
5
24B
100
AcDbEntity
8
CUTOUTS
100
AcDbLine
10
82.416149597261438
20
-53.522499999999994
30
0
11
80.171315886391014
21
-49.634999999999998
31
0
0
LINE
5
24C
100
AcDbEntity
8
CUTOUTS
100
AcDbLine
10
80.171315886391014
20
-49.634999999999998
30
0
11
82.416149597261438
21
-45.747500000000009
31
0
0
LINE
5
24D
100
AcDbEntity
8
CUTOUTS
100
AcDbLine
10
82.416149597261438
20
-45.747500000000009
30
0
11
86.905256914128572
21
-45.747500000000009
31
0
0
LINE
5
24E
100
AcDbEntity
8
CUTOUTS
100
AcDbLine
10
86.905256914128572
20
-45.747500000000009
30
0
11
89.15009062499999
21
-49.634999999999998
31
0
0
LINE
5
24F
100
AcDbEntity
8
CUTOUTS
100
AcDbLine
10
89.15009062499999
20
-49.634999999999998
30
0
11
86.905256914128572
21
-53.522499999999994
31
0
0
LINE
5
250
100
AcDbEntity
8
CUTOUTS
100
AcDbLine
10
86.905256914128572
20
-53.522499999999994
30
0
11
82.416149597261438
21
-53.522499999999994
31
0
0
LINE
5
251
100
AcDbEntity
8
CUTOUTS
100
AcDbLine
10
97.416149597261438
20
-83.522499999999994
30
0
11
95.171315886391014
21
-79.635000000000005
31
0
0
LINE
5
252
100
AcDbEntity
8
CUTOUTS
100
AcDbLine
10
95.171315886391014
20
-79.635000000000005
30
0
11
97.416149597261438
21
-75.747500000000016
31
0
0
LINE
5
253
100
AcDbEntity
8
CUTOUTS
100
AcDbLine
10
97.416149597261438
20
-75.747500000000016
30
0
11
101.90525691412363
21
-75.747500000000016
31
0
0
LINE
5
254
100
AcDbEntity
8
CUTOUTS
100
AcDbLine
10
101.90525691412363
20
-75.747500000000016
30
0
11
104.15009062499992
21
-79.635000000000005
31
0
0
LINE
5
255
100
AcDbEntity
8
CUTOUTS
100
AcDbLine
10
104.15009062499992
20
-79.635000000000005
30
0
11
101.90525691412363
21
-83.522499999999994
31
0
0
LINE
5
256
100
AcDbEntity
8
CUTOUTS
100
AcDbLine
10
101.90525691412363
20
-83.522499999999994
30
0
11
97.416149597261438
21
-83.522499999999994
31
0
0
LINE
5
257
100
AcDbEntity
8
CUTOUTS
100
AcDbLine
10
112.41614959725651
20
-83.522499999999994
30
0
11
110.17131588638995
21
-79.635000000000005
31
0
0
LINE
5
258
100
AcDbEntity
8
CUTOUTS
100
AcDbLine
10
110.17131588638995
20
-79.635000000000005
30
0
11
112.41614959725651
21
-75.747500000000016
31
0
0
LINE
5
259
100
AcDbEntity
8
CUTOUTS
100
AcDbLine
10
112.41614959725651
20
-75.747500000000016
30
0
11
116.90525691412363
21
-75.747500000000016
31
0
0
LINE
5
25A
100
AcDbEntity
8
CUTOUTS
100
AcDbLine
10
116.90525691412363
20
-75.747500000000016
30
0
11
119.15009062499992
21
-79.635000000000005
31
0
0
LINE
5
25B
100
AcDbEntity
8
CUTOUTS
100
AcDbLine
10
119.15009062499992
20
-79.635000000000005
30
0
11
116.90525691412363
21
-83.522499999999994
31
0
0
LINE
5
25C
100
AcDbEntity
8
CUTOUTS
100
AcDbLine
10
116.90525691412363
20
-83.522499999999994
30
0
11
112.41614959725651
21
-83.522499999999994
31
0
0
LINE
5
25D
100
AcDbEntity
8
CUTOUTS
100
AcDbLine
10
127.41614959725651
20
-83.522499999999994
30
0
11
125.17131588638995
21
-79.635000000000005
31
0
0
LINE
5
25E
100
AcDbEntity
8
CUTOUTS
100
AcDbLine
10
125.17131588638995
20
-79.635000000000005
30
0
11
127.41614959725651
21
-75.747500000000016
31
0
0
LINE
5
25F
100
AcDbEntity
8
CUTOUTS
100
AcDbLine
10
127.41614959725651
20
-75.747500000000016
30
0
11
131.90525691412364
21
-75.747500000000016
31
0
0
LINE
5
260
100
AcDbEntity
8
CUTOUTS
100
AcDbLine
10
131.90525691412364
20
-75.747500000000016
30
0
11
134.15009062499993
21
-79.635000000000005
31
0
0
LINE
5
261
100
AcDbEntity
8
CUTOUTS
100
AcDbLine
10
134.15009062499993
20
-79.635000000000005
30
0
11
131.90525691412364
21
-83.522499999999994
31
0
0
LINE
5
262
100
AcDbEntity
8
CUTOUTS
100
AcDbLine
10
131.90525691412364
20
-83.522499999999994
30
0
11
127.41614959725651
21
-83.522499999999994
31
0
0
LINE
5
263
100
AcDbEntity
8
CUTOUTS
100
AcDbLine
10
142.41614959725649
20
-83.522499999999994
30
0
11
140.17131588638995
21
-79.635000000000005
31
0
0
LINE
5
264
100
AcDbEntity
8
CUTOUTS
100
AcDbLine
10
140.17131588638995
20
-79.635000000000005
30
0
11
142.41614959725649
21
-75.747500000000016
31
0
0
LINE
5
265
100
AcDbEntity
8
CUTOUTS
100
AcDbLine
10
142.41614959725649
20
-75.747500000000016
30
0
11
146.90525691412364
21
-75.747500000000016
31
0
0
LINE
5
266
100
AcDbEntity
8
CUTOUTS
100
AcDbLine
10
146.90525691412364
20
-75.747500000000016
30
0
11
149.15009062499993
21
-79.635000000000005
31
0
0
LINE
5
267
100
AcDbEntity
8
CUTOUTS
100
AcDbLine
10
149.15009062499993
20
-79.635000000000005
30
0
11
146.90525691412364
21
-83.522499999999994
31
0
0
LINE
5
268
100
AcDbEntity
8
CUTOUTS
100
AcDbLine
10
146.90525691412364
20
-83.522499999999994
30
0
11
142.41614959725649
21
-83.522499999999994
31
0
0
CIRCLE
5
269
100
AcDbEntity
8
CUTOUTS
100
AcDbCircle
10
195
20
-95
30
0
40
3.8875000000000171
210
0
220
0
230
1
0
LINE
5
26A
100
AcDbEntity
8
CUTOUTS
100
AcDbLine
10
155.08131588638994
20
-79.635000000000005
30
0
11
157.32614959725649
21
-75.747500000000016
31
0
0
LINE
5
26B
100
AcDbEntity
8
CUTOUTS
100
AcDbLine
10
157.32614959725649
20
-75.747500000000016
30
0
11
161.81525691412364
21
-75.747500000000016
31
0
0
LINE
5
26C
100
AcDbEntity
8
CUTOUTS
100
AcDbLine
10
161.81525691412364
20
-75.747500000000016
30
0
11
164.06009062499993
21
-79.635000000000005
31
0
0
LINE
5
26D
100
AcDbEntity
8
CUTOUTS
100
AcDbLine
10
164.06009062499993
20
-79.635000000000005
30
0
11
161.81525691412364
21
-83.522499999999994
31
0
0
LINE
5
26E
100
AcDbEntity
8
CUTOUTS
100
AcDbLine
10
161.81525691412364
20
-83.522499999999994
30
0
11
157.32614959725649
21
-83.522499999999994
31
0
0
LINE
5
26F
100
AcDbEntity
8
CUTOUTS
100
AcDbLine
10
157.32614959725649
20
-83.522499999999994
30
0
11
155.08131588638994
21
-79.635000000000005
31
0
0
LINE
5
270
100
AcDbEntity
8
CUTOUTS
100
AcDbLine
10
176.81525691412364
20
-83.522499999999994
30
0
11
172.32614959725649
21
-83.522499999999994
31
0
0
LINE
5
271
100
AcDbEntity
8
CUTOUTS
100
AcDbLine
10
172.32614959725649
20
-83.522499999999994
30
0
11
170.08131588638992
21
-79.635000000000005
31
0
0
LINE
5
272
100
AcDbEntity
8
CUTOUTS
100
AcDbLine
10
170.08131588638992
20
-79.635000000000005
30
0
11
172.32614959725649
21
-75.747500000000016
31
0
0
LINE
5
273
100
AcDbEntity
8
CUTOUTS
100
AcDbLine
10
172.32614959725649
20
-75.747500000000016
30
0
11
176.81525691412364
21
-75.747500000000016
31
0
0
LINE
5
274
100
AcDbEntity
8
CUTOUTS
100
AcDbLine
10
176.81525691412364
20
-75.747500000000016
30
0
11
179.06009062499993
21
-79.635000000000005
31
0
0
LINE
5
275
100
AcDbEntity
8
CUTOUTS
100
AcDbLine
10
179.06009062499993
20
-79.635000000000005
30
0
11
176.81525691412364
21
-83.522499999999994
31
0
0
LINE
5
276
100
AcDbEntity
8
CUTOUTS
100
AcDbLine
10
101.90525691412363
20
-60.747500000000009
30
0
11
104.15009062499992
21
-64.635000000000005
31
0
0
LINE
5
277
100
AcDbEntity
8
CUTOUTS
100
AcDbLine
10
104.15009062499992
20
-64.635000000000005
30
0
11
101.90525691412363
21
-68.522500000000008
31
0
0
LINE
5
278
100
AcDbEntity
8
CUTOUTS
100
AcDbLine
10
101.90525691412363
20
-68.522500000000008
30
0
11
97.416149597261438
21
-68.522500000000008
31
0
0
LINE
5
279
100
AcDbEntity
8
CUTOUTS
100
AcDbLine
10
97.416149597261438
20
-68.522500000000008
30
0
11
95.171315886391014
21
-64.635000000000019
31
0
0
LINE
5
27A
100
AcDbEntity
8
CUTOUTS
100
AcDbLine
10
95.171315886391014
20
-64.635000000000019
30
0
11
97.416149597261438
21
-60.747500000000002
31
0
0
LINE
5
27B
100
AcDbEntity
8
CUTOUTS
100
AcDbLine
10
97.416149597261438
20
-60.747500000000002
30
0
11
101.90525691412363
21
-60.747500000000009
31
0
0
LINE
5
27C
100
AcDbEntity
8
CUTOUTS
100
AcDbLine
10
112.41614959725651
20
-60.747500000000009
30
0
11
116.90525691412363
21
-60.747500000000009
31
0
0
LINE
5
27D
100
AcDbEntity
8
CUTOUTS
100
AcDbLine
10
116.90525691412363
20
-60.747500000000009
30
0
11
119.15009062499992
21
-64.635000000000005
31
0
0
LINE
5
27E
100
AcDbEntity
8
CUTOUTS
100
AcDbLine
10
119.15009062499992
20
-64.635000000000005
30
0
11
116.90525691412363
21
-68.522500000000008
31
0
0
LINE
5
27F
100
AcDbEntity
8
CUTOUTS
100
AcDbLine
10
116.90525691412363
20
-68.522500000000008
30
0
11
112.41614959725651
21
-68.522500000000008
31
0
0
LINE
5
280
100
AcDbEntity
8
CUTOUTS
100
AcDbLine
10
112.41614959725651
20
-68.522500000000008
30
0
11
110.17131588638995
21
-64.635000000000005
31
0
0
LINE
5
281
100
AcDbEntity
8
CUTOUTS
100
AcDbLine
10
110.17131588638995
20
-64.635000000000005
30
0
11
112.41614959725651
21
-60.747500000000009
31
0
0
LINE
5
282
100
AcDbEntity
8
CUTOUTS
100
AcDbLine
10
127.41614959725651
20
-68.522500000000008
30
0
11
125.17131588638995
21
-64.635000000000005
31
0
0
LINE
5
283
100
AcDbEntity
8
CUTOUTS
100
AcDbLine
10
125.17131588638995
20
-64.635000000000005
30
0
11
127.41614959725651
21
-60.747500000000009
31
0
0
LINE
5
284
100
AcDbEntity
8
CUTOUTS
100
AcDbLine
10
127.41614959725651
20
-60.747500000000009
30
0
11
131.90525691412364
21
-60.747500000000009
31
0
0
LINE
5
285
100
AcDbEntity
8
CUTOUTS
100
AcDbLine
10
131.90525691412364
20
-60.747500000000009
30
0
11
134.15009062499993
21
-64.635000000000005
31
0
0
LINE
5
286
100
AcDbEntity
8
CUTOUTS
100
AcDbLine
10
134.15009062499993
20
-64.635000000000005
30
0
11
131.90525691412364
21
-68.522500000000008
31
0
0
LINE
5
287
100
AcDbEntity
8
CUTOUTS
100
AcDbLine
10
131.90525691412364
20
-68.522500000000008
30
0
11
127.41614959725651
21
-68.522500000000008
31
0
0
LINE
5
288
100
AcDbEntity
8
CUTOUTS
100
AcDbLine
10
146.90525691412364
20
-60.747500000000009
30
0
11
149.15009062499993
21
-64.635000000000005
31
0
0
LINE
5
289
100
AcDbEntity
8
CUTOUTS
100
AcDbLine
10
149.15009062499993
20
-64.635000000000005
30
0
11
146.90525691412364
21
-68.522500000000008
31
0
0
LINE
5
28A
100
AcDbEntity
8
CUTOUTS
100
AcDbLine
10
146.90525691412364
20
-68.522500000000008
30
0
11
142.41614959725649
21
-68.522500000000008
31
0
0
LINE
5
28B
100
AcDbEntity
8
CUTOUTS
100
AcDbLine
10
142.41614959725649
20
-68.522500000000008
30
0
11
140.17131588638995
21
-64.635000000000005
31
0
0
LINE
5
28C
100
AcDbEntity
8
CUTOUTS
100
AcDbLine
10
140.17131588638995
20
-64.635000000000005
30
0
11
142.41614959725649
21
-60.747500000000009
31
0
0
LINE
5
28D
100
AcDbEntity
8
CUTOUTS
100
AcDbLine
10
142.41614959725649
20
-60.747500000000009
30
0
11
146.90525691412364
21
-60.747500000000009
31
0
0
LINE
5
28E
100
AcDbEntity
8
CUTOUTS
100
AcDbLine
10
97.416149597261438
20
-53.522499999999994
30
0
11
95.171315886391014
21
-49.634999999999998
31
0
0
LINE
5
28F
100
AcDbEntity
8
CUTOUTS
100
AcDbLine
10
95.171315886391014
20
-49.634999999999998
30
0
11
97.416149597261438
21
-45.747500000000009
31
0
0
LINE
5
290
100
AcDbEntity
8
CUTOUTS
100
AcDbLine
10
97.416149597261438
20
-45.747500000000009
30
0
11
101.90525691412363
21
-45.747500000000009
31
0
0
LINE
5
291
100
AcDbEntity
8
CUTOUTS
100
AcDbLine
10
101.90525691412363
20
-45.747500000000009
30
0
11
104.15009062499992
21
-49.634999999999998
31
0
0
LINE
5
292
100
AcDbEntity
8
CUTOUTS
100
AcDbLine
10
104.15009062499992
20
-49.634999999999998
30
0
11
101.90525691412363
21
-53.522499999999994
31
0
0
LINE
5
293
100
AcDbEntity
8
CUTOUTS
100
AcDbLine
10
101.90525691412363
20
-53.522499999999994
30
0
11
97.416149597261438
21
-53.522499999999994
31
0
0
LINE
5
294
100
AcDbEntity
8
CUTOUTS
100
AcDbLine
10
110.17131588638995
20
-49.634999999999998
30
0
11
112.41614959725651
21
-45.747500000000009
31
0
0
LINE
5
295
100
AcDbEntity
8
CUTOUTS
100
AcDbLine
10
112.41614959725651
20
-45.747500000000009
30
0
11
116.90525691412363
21
-45.747500000000009
31
0
0
LINE
5
296
100
AcDbEntity
8
CUTOUTS
100
AcDbLine
10
116.90525691412363
20
-45.747500000000009
30
0
11
119.15009062499992
21
-49.634999999999998
31
0
0
LINE
5
297
100
AcDbEntity
8
CUTOUTS
100
AcDbLine
10
119.15009062499992
20
-49.634999999999998
30
0
11
116.90525691412363
21
-53.522499999999994
31
0
0
LINE
5
298
100
AcDbEntity
8
CUTOUTS
100
AcDbLine
10
116.90525691412363
20
-53.522499999999994
30
0
11
112.41614959725651
21
-53.522499999999994
31
0
0
LINE
5
299
100
AcDbEntity
8
CUTOUTS
100
AcDbLine
10
112.41614959725651
20
-53.522499999999994
30
0
11
110.17131588638995
21
-49.634999999999998
31
0
0
LINE
5
29A
100
AcDbEntity
8
CUTOUTS
100
AcDbLine
10
127.41614959725651
20
-53.522499999999994
30
0
11
125.17131588638995
21
-49.634999999999998
31
0
0
LINE
5
29B
100
AcDbEntity
8
CUTOUTS
100
AcDbLine
10
125.17131588638995
20
-49.634999999999998
30
0
11
127.41614959725651
21
-45.747500000000009
31
0
0
LINE
5
29C
100
AcDbEntity
8
CUTOUTS
100
AcDbLine
10
127.41614959725651
20
-45.747500000000009
30
0
11
131.90525691412364
21
-45.747500000000009
31
0
0
LINE
5
29D
100
AcDbEntity
8
CUTOUTS
100
AcDbLine
10
131.90525691412364
20
-45.747500000000009
30
0
11
134.15009062499993
21
-49.634999999999998
31
0
0
LINE
5
29E
100
AcDbEntity
8
CUTOUTS
100
AcDbLine
10
134.15009062499993
20
-49.634999999999998
30
0
11
131.90525691412364
21
-53.522499999999994
31
0
0
LINE
5
29F
100
AcDbEntity
8
CUTOUTS
100
AcDbLine
10
131.90525691412364
20
-53.522499999999994
30
0
11
127.41614959725651
21
-53.522499999999994
31
0
0
LINE
5
2A0
100
AcDbEntity
8
CUTOUTS
100
AcDbLine
10
142.41614959725649
20
-53.522499999999994
30
0
11
140.17131588638995
21
-49.634999999999998
31
0
0
LINE
5
2A1
100
AcDbEntity
8
CUTOUTS
100
AcDbLine
10
140.17131588638995
20
-49.634999999999998
30
0
11
142.41614959725649
21
-45.747500000000009
31
0
0
LINE
5
2A2
100
AcDbEntity
8
CUTOUTS
100
AcDbLine
10
142.41614959725649
20
-45.747500000000009
30
0
11
146.90525691412364
21
-45.747500000000009
31
0
0
LINE
5
2A3
100
AcDbEntity
8
CUTOUTS
100
AcDbLine
10
146.90525691412364
20
-45.747500000000009
30
0
11
149.15009062499993
21
-49.634999999999998
31
0
0
LINE
5
2A4
100
AcDbEntity
8
CUTOUTS
100
AcDbLine
10
149.15009062499993
20
-49.634999999999998
30
0
11
146.90525691412364
21
-53.522499999999994
31
0
0
LINE
5
2A5
100
AcDbEntity
8
CUTOUTS
100
AcDbLine
10
146.90525691412364
20
-53.522499999999994
30
0
11
142.41614959725649
21
-53.522499999999994
31
0
0
LINE
5
2A6
100
AcDbEntity
8
CUTOUTS
100
AcDbLine
10
161.81525691412364
20
-60.747500000000009
30
0
11
164.06009062499993
21
-64.635000000000005
31
0
0
LINE
5
2A7
100
AcDbEntity
8
CUTOUTS
100
AcDbLine
10
164.06009062499993
20
-64.635000000000005
30
0
11
161.81525691412364
21
-68.522500000000008
31
0
0
LINE
5
2A8
100
AcDbEntity
8
CUTOUTS
100
AcDbLine
10
161.81525691412364
20
-68.522500000000008
30
0
11
157.32614959725649
21
-68.522500000000008
31
0
0
LINE
5
2A9
100
AcDbEntity
8
CUTOUTS
100
AcDbLine
10
157.32614959725649
20
-68.522500000000008
30
0
11
155.08131588638994
21
-64.635000000000005
31
0
0
LINE
5
2AA
100
AcDbEntity
8
CUTOUTS
100
AcDbLine
10
155.08131588638994
20
-64.635000000000005
30
0
11
157.32614959725649
21
-60.747500000000009
31
0
0
LINE
5
2AB
100
AcDbEntity
8
CUTOUTS
100
AcDbLine
10
157.32614959725649
20
-60.747500000000009
30
0
11
161.81525691412364
21
-60.747500000000009
31
0
0
LINE
5
2AC
100
AcDbEntity
8
CUTOUTS
100
AcDbLine
10
172.32614959725649
20
-60.747500000000009
30
0
11
176.81525691412364
21
-60.747500000000009
31
0
0
LINE
5
2AD
100
AcDbEntity
8
CUTOUTS
100
AcDbLine
10
176.81525691412364
20
-60.747500000000009
30
0
11
179.06009062499993
21
-64.635000000000005
31
0
0
LINE
5
2AE
100
AcDbEntity
8
CUTOUTS
100
AcDbLine
10
179.06009062499993
20
-64.635000000000005
30
0
11
176.81525691412364
21
-68.522500000000008
31
0
0
LINE
5
2AF
100
AcDbEntity
8
CUTOUTS
100
AcDbLine
10
176.81525691412364
20
-68.522500000000008
30
0
11
172.32614959725649
21
-68.522500000000008
31
0
0
LINE
5
2B0
100
AcDbEntity
8
CUTOUTS
100
AcDbLine
10
172.32614959725649
20
-68.522500000000008
30
0
11
170.08131588638992
21
-64.635000000000005
31
0
0
LINE
5
2B1
100
AcDbEntity
8
CUTOUTS
100
AcDbLine
10
170.08131588638992
20
-64.635000000000005
30
0
11
172.32614959725649
21
-60.747500000000009
31
0
0
LINE
5
2B2
100
AcDbEntity
8
CUTOUTS
100
AcDbLine
10
161.81525691412364
20
-45.747500000000009
30
0
11
164.06009062499993
21
-49.634999999999998
31
0
0
LINE
5
2B3
100
AcDbEntity
8
CUTOUTS
100
AcDbLine
10
164.06009062499993
20
-49.634999999999998
30
0
11
161.81525691412364
21
-53.522499999999994
31
0
0
LINE
5
2B4
100
AcDbEntity
8
CUTOUTS
100
AcDbLine
10
161.81525691412364
20
-53.522499999999994
30
0
11
157.32614959725649
21
-53.522499999999994
31
0
0
LINE
5
2B5
100
AcDbEntity
8
CUTOUTS
100
AcDbLine
10
157.32614959725649
20
-53.522499999999994
30
0
11
155.08131588638994
21
-49.634999999999998
31
0
0
LINE
5
2B6
100
AcDbEntity
8
CUTOUTS
100
AcDbLine
10
155.08131588638994
20
-49.634999999999998
30
0
11
157.32614959725649
21
-45.747500000000009
31
0
0
LINE
5
2B7
100
AcDbEntity
8
CUTOUTS
100
AcDbLine
10
157.32614959725649
20
-45.747500000000009
30
0
11
161.81525691412364
21
-45.747500000000009
31
0
0
LINE
5
2B8
100
AcDbEntity
8
CUTOUTS
100
AcDbLine
10
176.81525691412364
20
-45.747500000000009
30
0
11
179.06009062499993
21
-49.634999999999998
31
0
0
LINE
5
2B9
100
AcDbEntity
8
CUTOUTS
100
AcDbLine
10
179.06009062499993
20
-49.634999999999998
30
0
11
176.81525691412364
21
-53.522499999999994
31
0
0
LINE
5
2BA
100
AcDbEntity
8
CUTOUTS
100
AcDbLine
10
176.81525691412364
20
-53.522499999999994
30
0
11
172.32614959725649
21
-53.522499999999994
31
0
0
LINE
5
2BB
100
AcDbEntity
8
CUTOUTS
100
AcDbLine
10
172.32614959725649
20
-53.522499999999994
30
0
11
170.08131588638992
21
-49.634999999999998
31
0
0
LINE
5
2BC
100
AcDbEntity
8
CUTOUTS
100
AcDbLine
10
170.08131588638992
20
-49.634999999999998
30
0
11
172.32614959725649
21
-45.747500000000009
31
0
0
LINE
5
2BD
100
AcDbEntity
8
CUTOUTS
100
AcDbLine
10
172.32614959725649
20
-45.747500000000009
30
0
11
176.81525691412364
21
-45.747500000000009
31
0
0
LINE
5
2BE
100
AcDbEntity
8
CUTOUTS
100
AcDbLine
10
11.995256914128575
20
-38.522500000000001
30
0
11
7.5061495972614427
21
-38.522500000000001
31
0
0
LINE
5
2BF
100
AcDbEntity
8
CUTOUTS
100
AcDbLine
10
7.5061495972614427
20
-38.522500000000001
30
0
11
5.2613158863909906
21
-34.634999999999998
31
0
0
LINE
5
2C0
100
AcDbEntity
8
CUTOUTS
100
AcDbLine
10
5.2613158863909906
20
-34.634999999999998
30
0
11
7.5061495972614409
21
-30.747500000000002
31
0
0
LINE
5
2C1
100
AcDbEntity
8
CUTOUTS
100
AcDbLine
10
7.5061495972614409
20
-30.747500000000002
30
0
11
11.995256914128575
21
-30.747500000000002
31
0
0
LINE
5
2C2
100
AcDbEntity
8
CUTOUTS
100
AcDbLine
10
11.995256914128575
20
-30.747500000000002
30
0
11
14.240090624999997
21
-34.634999999999998
31
0
0
LINE
5
2C3
100
AcDbEntity
8
CUTOUTS
100
AcDbLine
10
14.240090624999997
20
-34.634999999999998
30
0
11
11.995256914128575
21
-38.522500000000001
31
0
0
LINE
5
2C4
100
AcDbEntity
8
CUTOUTS
100
AcDbLine
10
26.995256914128575
20
-38.522500000000001
30
0
11
22.506149597261444
21
-38.522500000000001
31
0
0
LINE
5
2C5
100
AcDbEntity
8
CUTOUTS
100
AcDbLine
10
22.506149597261444
20
-38.522500000000001
30
0
11
20.261315886390992
21
-34.634999999999998
31
0
0
LINE
5
2C6
100
AcDbEntity
8
CUTOUTS
100
AcDbLine
10
20.261315886390992
20
-34.634999999999998
30
0
11
22.506149597261444
21
-30.747500000000002
31
0
0
LINE
5
2C7
100
AcDbEntity
8
CUTOUTS
100
AcDbLine
10
22.506149597261444
20
-30.747500000000002
30
0
11
26.995256914128575
21
-30.747500000000002
31
0
0
LINE
5
2C8
100
AcDbEntity
8
CUTOUTS
100
AcDbLine
10
26.995256914128575
20
-30.747500000000002
30
0
11
29.240090624999997
21
-34.634999999999998
31
0
0
LINE
5
2C9
100
AcDbEntity
8
CUTOUTS
100
AcDbLine
10
29.240090624999997
20
-34.634999999999998
30
0
11
26.995256914128575
21
-38.522500000000001
31
0
0
LINE
5
2CA
100
AcDbEntity
8
CUTOUTS
100
AcDbLine
10
41.995256914128575
20
-38.522500000000001
30
0
11
37.506149597261441
21
-38.522500000000001
31
0
0
LINE
5
2CB
100
AcDbEntity
8
CUTOUTS
100
AcDbLine
10
37.506149597261441
20
-38.522500000000001
30
0
11
35.261315886390989
21
-34.634999999999998
31
0
0
LINE
5
2CC
100
AcDbEntity
8
CUTOUTS
100
AcDbLine
10
35.261315886390989
20
-34.634999999999998
30
0
11
37.506149597261441
21
-30.747500000000002
31
0
0
LINE
5
2CD
100
AcDbEntity
8
CUTOUTS
100
AcDbLine
10
37.506149597261441
20
-30.747500000000002
30
0
11
41.995256914128575
21
-30.747500000000002
31
0
0
LINE
5
2CE
100
AcDbEntity
8
CUTOUTS
100
AcDbLine
10
41.995256914128575
20
-30.747500000000002
30
0
11
44.240090624999993
21
-34.634999999999998
31
0
0
LINE
5
2CF
100
AcDbEntity
8
CUTOUTS
100
AcDbLine
10
44.240090624999993
20
-34.634999999999998
30
0
11
41.995256914128575
21
-38.522500000000001
31
0
0
LINE
5
2D0
100
AcDbEntity
8
CUTOUTS
100
AcDbLine
10
52.416149597261438
20
-38.522500000000001
30
0
11
50.171315886390992
21
-34.634999999999998
31
0
0
LINE
5
2D1
100
AcDbEntity
8
CUTOUTS
100
AcDbLine
10
50.171315886390992
20
-34.634999999999998
30
0
11
52.416149597261438
21
-30.747500000000002
31
0
0
LINE
5
2D2
100
AcDbEntity
8
CUTOUTS
100
AcDbLine
10
52.416149597261438
20
-30.747500000000002
30
0
11
56.905256914128579
21
-30.747500000000002
31
0
0
LINE
5
2D3
100
AcDbEntity
8
CUTOUTS
100
AcDbLine
10
56.905256914128579
20
-30.747500000000002
30
0
11
59.150090625000004
21
-34.634999999999998
31
0
0
LINE
5
2D4
100
AcDbEntity
8
CUTOUTS
100
AcDbLine
10
59.150090625000004
20
-34.634999999999998
30
0
11
56.905256914128579
21
-38.522500000000001
31
0
0
LINE
5
2D5
100
AcDbEntity
8
CUTOUTS
100
AcDbLine
10
56.905256914128579
20
-38.522500000000001
30
0
11
52.416149597261438
21
-38.522500000000001
31
0
0
LINE
5
2D6
100
AcDbEntity
8
CUTOUTS
100
AcDbLine
10
71.905256914128572
20
-38.522500000000001
30
0
11
67.416149597261438
21
-38.522500000000001
31
0
0
LINE
5
2D7
100
AcDbEntity
8
CUTOUTS
100
AcDbLine
10
67.416149597261438
20
-38.522500000000001
30
0
11
65.171315886391
21
-34.634999999999998
31
0
0
LINE
5
2D8
100
AcDbEntity
8
CUTOUTS
100
AcDbLine
10
65.171315886391
20
-34.634999999999998
30
0
11
67.416149597261438
21
-30.747500000000002
31
0
0
LINE
5
2D9
100
AcDbEntity
8
CUTOUTS
100
AcDbLine
10
67.416149597261438
20
-30.747500000000002
30
0
11
71.905256914128572
21
-30.747500000000002
31
0
0
LINE
5
2DA
100
AcDbEntity
8
CUTOUTS
100
AcDbLine
10
71.905256914128572
20
-30.747500000000002
30
0
11
74.150090625000004
21
-34.634999999999998
31
0
0
LINE
5
2DB
100
AcDbEntity
8
CUTOUTS
100
AcDbLine
10
74.150090625000004
20
-34.634999999999998
30
0
11
71.905256914128572
21
-38.522500000000001
31
0
0
LINE
5
2DC
100
AcDbEntity
8
CUTOUTS
100
AcDbLine
10
82.416149597261438
20
-38.522500000000001
30
0
11
80.171315886391014
21
-34.634999999999998
31
0
0
LINE
5
2DD
100
AcDbEntity
8
CUTOUTS
100
AcDbLine
10
80.171315886391014
20
-34.634999999999998
30
0
11
82.416149597261438
21
-30.747500000000009
31
0
0
LINE
5
2DE
100
AcDbEntity
8
CUTOUTS
100
AcDbLine
10
82.416149597261438
20
-30.747500000000009
30
0
11
86.905256914128586
21
-30.747500000000002
31
0
0
LINE
5
2DF
100
AcDbEntity
8
CUTOUTS
100
AcDbLine
10
86.905256914128586
20
-30.747500000000002
30
0
11
89.150090625000018
21
-34.634999999999998
31
0
0
LINE
5
2E0
100
AcDbEntity
8
CUTOUTS
100
AcDbLine
10
89.150090625000018
20
-34.634999999999998
30
0
11
86.905256914128586
21
-38.522500000000001
31
0
0
LINE
5
2E1
100
AcDbEntity
8
CUTOUTS
100
AcDbLine
10
86.905256914128586
20
-38.522500000000001
30
0
11
82.416149597261438
21
-38.522500000000001
31
0
0
LINE
5
2E2
100
AcDbEntity
8
CUTOUTS
100
AcDbLine
10
7.5061495972614427
20
-23.522500000000001
30
0
11
5.2613158863909915
21
-19.635000000000002
31
0
0
LINE
5
2E3
100
AcDbEntity
8
CUTOUTS
100
AcDbLine
10
5.2613158863909915
20
-19.635000000000002
30
0
11
7.5061495972614427
21
-15.7475
31
0
0
LINE
5
2E4
100
AcDbEntity
8
CUTOUTS
100
AcDbLine
10
7.5061495972614427
20
-15.7475
30
0
11
11.995256914128573
21
-15.7475
31
0
0
LINE
5
2E5
100
AcDbEntity
8
CUTOUTS
100
AcDbLine
10
11.995256914128573
20
-15.7475
30
0
11
14.240090624999995
21
-19.635000000000002
31
0
0
LINE
5
2E6
100
AcDbEntity
8
CUTOUTS
100
AcDbLine
10
14.240090624999995
20
-19.635000000000002
30
0
11
11.995256914128573
21
-23.522500000000001
31
0
0
LINE
5
2E7
100
AcDbEntity
8
CUTOUTS
100
AcDbLine
10
11.995256914128573
20
-23.522500000000001
30
0
11
7.5061495972614427
21
-23.522500000000001
31
0
0
LINE
5
2E8
100
AcDbEntity
8
CUTOUTS
100
AcDbLine
10
26.995256914128575
20
-23.522500000000001
30
0
11
22.506149597261444
21
-23.522500000000001
31
0
0
LINE
5
2E9
100
AcDbEntity
8
CUTOUTS
100
AcDbLine
10
22.506149597261444
20
-23.522500000000001
30
0
11
20.261315886390992
21
-19.635000000000002
31
0
0
LINE
5
2EA
100
AcDbEntity
8
CUTOUTS
100
AcDbLine
10
20.261315886390992
20
-19.635000000000002
30
0
11
22.506149597261444
21
-15.7475
31
0
0
LINE
5
2EB
100
AcDbEntity
8
CUTOUTS
100
AcDbLine
10
22.506149597261444
20
-15.7475
30
0
11
26.995256914128575
21
-15.7475
31
0
0
LINE
5
2EC
100
AcDbEntity
8
CUTOUTS
100
AcDbLine
10
26.995256914128575
20
-15.7475
30
0
11
29.240090624999997
21
-19.635000000000002
31
0
0
LINE
5
2ED
100
AcDbEntity
8
CUTOUTS
100
AcDbLine
10
29.240090624999997
20
-19.635000000000002
30
0
11
26.995256914128575
21
-23.522500000000001
31
0
0
LINE
5
2EE
100
AcDbEntity
8
CUTOUTS
100
AcDbLine
10
41.995256914128575
20
-15.747499999999999
30
0
11
44.240090624999993
21
-19.635000000000002
31
0
0
LINE
5
2EF
100
AcDbEntity
8
CUTOUTS
100
AcDbLine
10
44.240090624999993
20
-19.635000000000002
30
0
11
41.995256914128575
21
-23.522500000000001
31
0
0
LINE
5
2F0
100
AcDbEntity
8
CUTOUTS
100
AcDbLine
10
41.995256914128575
20
-23.522500000000001
30
0
11
37.506149597261441
21
-23.522500000000001
31
0
0
LINE
5
2F1
100
AcDbEntity
8
CUTOUTS
100
AcDbLine
10
37.506149597261441
20
-23.522500000000001
30
0
11
35.261315886390989
21
-19.635000000000002
31
0
0
LINE
5
2F2
100
AcDbEntity
8
CUTOUTS
100
AcDbLine
10
35.261315886390989
20
-19.635000000000002
30
0
11
37.506149597261441
21
-15.747499999999999
31
0
0
LINE
5
2F3
100
AcDbEntity
8
CUTOUTS
100
AcDbLine
10
37.506149597261441
20
-15.747499999999999
30
0
11
41.995256914128575
21
-15.747499999999999
31
0
0
LINE
5
2F4
100
AcDbEntity
8
CUTOUTS
100
AcDbLine
10
11.995256914128573
20
-8.5225000000000009
30
0
11
7.5061495972614427
21
-8.5225000000000009
31
0
0
LINE
5
2F5
100
AcDbEntity
8
CUTOUTS
100
AcDbLine
10
7.5061495972614427
20
-8.5225000000000009
30
0
11
5.2613158863909915
21
-4.6350000000000016
31
0
0
LINE
5
2F6
100
AcDbEntity
8
CUTOUTS
100
AcDbLine
10
5.2613158863909915
20
-4.6350000000000016
30
0
11
7.5061495972614409
21
-0.74749999999999872
31
0
0
LINE
5
2F7
100
AcDbEntity
8
CUTOUTS
100
AcDbLine
10
7.5061495972614409
20
-0.74749999999999883
30
0
11
11.995256914128573
21
-0.74749999999999883
31
0
0
LINE
5
2F8
100
AcDbEntity
8
CUTOUTS
100
AcDbLine
10
11.995256914128573
20
-0.74749999999999883
30
0
11
14.240090624999997
21
-4.6349999999999998
31
0
0
LINE
5
2F9
100
AcDbEntity
8
CUTOUTS
100
AcDbLine
10
14.240090624999997
20
-4.6349999999999998
30
0
11
11.995256914128573
21
-8.5225000000000009
31
0
0
LINE
5
2FA
100
AcDbEntity
8
CUTOUTS
100
AcDbLine
10
26.995256914128575
20
-8.5225000000000009
30
0
11
22.506149597261444
21
-8.5225000000000009
31
0
0
LINE
5
2FB
100
AcDbEntity
8
CUTOUTS
100
AcDbLine
10
22.506149597261444
20
-8.5225000000000009
30
0
11
20.261315886390989
21
-4.6349999999999998
31
0
0
LINE
5
2FC
100
AcDbEntity
8
CUTOUTS
100
AcDbLine
10
20.261315886390989
20
-4.6349999999999998
30
0
11
22.506149597261444
21
-0.74749999999999817
31
0
0
LINE
5
2FD
100
AcDbEntity
8
CUTOUTS
100
AcDbLine
10
22.506149597261444
20
-0.74749999999999828
30
0
11
26.995256914128575
21
-0.74749999999999828
31
0
0
LINE
5
2FE
100
AcDbEntity
8
CUTOUTS
100
AcDbLine
10
26.995256914128575
20
-0.74749999999999828
30
0
11
29.240090624999997
21
-4.6349999999999998
31
0
0
LINE
5
2FF
100
AcDbEntity
8
CUTOUTS
100
AcDbLine
10
29.240090624999997
20
-4.6349999999999998
30
0
11
26.995256914128575
21
-8.5225000000000009
31
0
0
LINE
5
300
100
AcDbEntity
8
CUTOUTS
100
AcDbLine
10
41.995256914128575
20
-8.5225000000000009
30
0
11
37.506149597261441
21
-8.5225000000000009
31
0
0
LINE
5
301
100
AcDbEntity
8
CUTOUTS
100
AcDbLine
10
37.506149597261441
20
-8.5225000000000009
30
0
11
35.261315886390989
21
-4.6350000000000016
31
0
0
LINE
5
302
100
AcDbEntity
8
CUTOUTS
100
AcDbLine
10
35.261315886390989
20
-4.6350000000000016
30
0
11
37.506149597261441
21
-0.74749999999999983
31
0
0
LINE
5
303
100
AcDbEntity
8
CUTOUTS
100
AcDbLine
10
37.506149597261441
20
-0.74749999999999994
30
0
11
41.995256914128575
21
-0.74749999999999994
31
0
0
LINE
5
304
100
AcDbEntity
8
CUTOUTS
100
AcDbLine
10
41.995256914128575
20
-0.74749999999999994
30
0
11
44.240090624999993
21
-4.6349999999999998
31
0
0
LINE
5
305
100
AcDbEntity
8
CUTOUTS
100
AcDbLine
10
44.240090624999993
20
-4.6349999999999998
30
0
11
41.995256914128575
21
-8.5225000000000009
31
0
0
LINE
5
306
100
AcDbEntity
8
CUTOUTS
100
AcDbLine
10
52.416149597261452
20
-23.522500000000001
30
0
11
50.171315886390992
21
-19.635000000000002
31
0
0
LINE
5
307
100
AcDbEntity
8
CUTOUTS
100
AcDbLine
10
50.171315886390992
20
-19.635000000000002
30
0
11
52.416149597261452
21
-15.747499999999999
31
0
0
LINE
5
308
100
AcDbEntity
8
CUTOUTS
100
AcDbLine
10
52.416149597261452
20
-15.747499999999999
30
0
11
56.905256914128579
21
-15.7475
31
0
0
LINE
5
309
100
AcDbEntity
8
CUTOUTS
100
AcDbLine
10
56.905256914128579
20
-15.7475
30
0
11
59.150090625000004
21
-19.635000000000002
31
0
0
LINE
5
30A
100
AcDbEntity
8
CUTOUTS
100
AcDbLine
10
59.150090625000004
20
-19.635000000000002
30
0
11
56.905256914128579
21
-23.522500000000001
31
0
0
LINE
5
30B
100
AcDbEntity
8
CUTOUTS
100
AcDbLine
10
56.905256914128579
20
-23.522500000000001
30
0
11
52.416149597261452
21
-23.522500000000001
31
0
0
LINE
5
30C
100
AcDbEntity
8
CUTOUTS
100
AcDbLine
10
67.416149597261452
20
-23.522500000000001
30
0
11
65.171315886391
21
-19.635000000000002
31
0
0
LINE
5
30D
100
AcDbEntity
8
CUTOUTS
100
AcDbLine
10
65.171315886391
20
-19.635000000000002
30
0
11
67.416149597261452
21
-15.747499999999999
31
0
0
LINE
5
30E
100
AcDbEntity
8
CUTOUTS
100
AcDbLine
10
67.416149597261452
20
-15.747499999999999
30
0
11
71.905256914128572
21
-15.7475
31
0
0
LINE
5
30F
100
AcDbEntity
8
CUTOUTS
100
AcDbLine
10
71.905256914128572
20
-15.7475
30
0
11
74.150090625000004
21
-19.635000000000002
31
0
0
LINE
5
310
100
AcDbEntity
8
CUTOUTS
100
AcDbLine
10
74.150090625000004
20
-19.635000000000002
30
0
11
71.905256914128572
21
-23.522500000000001
31
0
0
LINE
5
311
100
AcDbEntity
8
CUTOUTS
100
AcDbLine
10
71.905256914128572
20
-23.522500000000001
30
0
11
67.416149597261452
21
-23.522500000000001
31
0
0
LINE
5
312
100
AcDbEntity
8
CUTOUTS
100
AcDbLine
10
86.905256914128586
20
-15.7475
30
0
11
89.150090625000018
21
-19.635000000000002
31
0
0
LINE
5
313
100
AcDbEntity
8
CUTOUTS
100
AcDbLine
10
89.150090625000018
20
-19.635000000000002
30
0
11
86.905256914128586
21
-23.522500000000001
31
0
0
LINE
5
314
100
AcDbEntity
8
CUTOUTS
100
AcDbLine
10
86.905256914128586
20
-23.522500000000001
30
0
11
82.416149597261438
21
-23.522500000000001
31
0
0
LINE
5
315
100
AcDbEntity
8
CUTOUTS
100
AcDbLine
10
82.416149597261438
20
-23.522500000000001
30
0
11
80.171315886391014
21
-19.635000000000005
31
0
0
LINE
5
316
100
AcDbEntity
8
CUTOUTS
100
AcDbLine
10
80.171315886391014
20
-19.635000000000005
30
0
11
82.416149597261438
21
-15.747499999999995
31
0
0
LINE
5
317
100
AcDbEntity
8
CUTOUTS
100
AcDbLine
10
82.416149597261438
20
-15.747499999999995
30
0
11
86.905256914128586
21
-15.7475
31
0
0
LINE
5
318
100
AcDbEntity
8
CUTOUTS
100
AcDbLine
10
52.416149597261452
20
-8.5225000000000009
30
0
11
50.171315886390992
21
-4.6349999999999989
31
0
0
LINE
5
319
100
AcDbEntity
8
CUTOUTS
100
AcDbLine
10
50.171315886390992
20
-4.6349999999999989
30
0
11
52.416149597261438
21
-0.74750000000000205
31
0
0
LINE
5
31A
100
AcDbEntity
8
CUTOUTS
100
AcDbLine
10
52.416149597261438
20
-0.74750000000000205
30
0
11
56.905256914128579
21
-0.74750000000000028
31
0
0
LINE
5
31B
100
AcDbEntity
8
CUTOUTS
100
AcDbLine
10
56.905256914128579
20
-0.74750000000000028
30
0
11
59.150090625000004
21
-4.6349999999999998
31
0
0
LINE
5
31C
100
AcDbEntity
8
CUTOUTS
100
AcDbLine
10
59.150090625000004
20
-4.6349999999999998
30
0
11
56.905256914128579
21
-8.5225000000000009
31
0
0
LINE
5
31D
100
AcDbEntity
8
CUTOUTS
100
AcDbLine
10
56.905256914128579
20
-8.5225000000000009
30
0
11
52.416149597261452
21
-8.5225000000000009
31
0
0
LINE
5
31E
100
AcDbEntity
8
CUTOUTS
100
AcDbLine
10
71.905256914128572
20
-8.5225000000000009
30
0
11
67.416149597261452
21
-8.5225000000000009
31
0
0
LINE
5
31F
100
AcDbEntity
8
CUTOUTS
100
AcDbLine
10
67.416149597261452
20
-8.5225000000000009
30
0
11
65.171315886391
21
-4.6349999999999989
31
0
0
LINE
5
320
100
AcDbEntity
8
CUTOUTS
100
AcDbLine
10
65.171315886391
20
-4.6349999999999989
30
0
11
67.416149597261438
21
-0.74750000000000205
31
0
0
LINE
5
321
100
AcDbEntity
8
CUTOUTS
100
AcDbLine
10
67.416149597261438
20
-0.74750000000000205
30
0
11
71.905256914128572
21
-0.74750000000000028
31
0
0
LINE
5
322
100
AcDbEntity
8
CUTOUTS
100
AcDbLine
10
71.905256914128572
20
-0.74750000000000028
30
0
11
74.150090625000004
21
-4.6349999999999998
31
0
0
LINE
5
323
100
AcDbEntity
8
CUTOUTS
100
AcDbLine
10
74.150090625000004
20
-4.6349999999999998
30
0
11
71.905256914128572
21
-8.5225000000000009
31
0
0
LINE
5
324
100
AcDbEntity
8
CUTOUTS
100
AcDbLine
10
89.150090625000018
20
-4.6349999999999998
30
0
11
86.905256914128586
21
-8.5225000000000009
31
0
0
LINE
5
325
100
AcDbEntity
8
CUTOUTS
100
AcDbLine
10
86.905256914128586
20
-8.5225000000000009
30
0
11
82.416149597261438
21
-8.5225000000000009
31
0
0
LINE
5
326
100
AcDbEntity
8
CUTOUTS
100
AcDbLine
10
82.416149597261438
20
-8.5225000000000009
30
0
11
80.171315886391014
21
-4.6350000000000025
31
0
0
LINE
5
327
100
AcDbEntity
8
CUTOUTS
100
AcDbLine
10
80.171315886391014
20
-4.6350000000000025
30
0
11
82.416149597261438
21
-0.74750000000000205
31
0
0
LINE
5
328
100
AcDbEntity
8
CUTOUTS
100
AcDbLine
10
82.416149597261438
20
-0.74750000000000205
30
0
11
86.905256914128586
21
-0.74750000000000028
31
0
0
LINE
5
329
100
AcDbEntity
8
CUTOUTS
100
AcDbLine
10
86.905256914128586
20
-0.74750000000000028
30
0
11
89.150090625000018
21
-4.6349999999999998
31
0
0
LINE
5
32A
100
AcDbEntity
8
CUTOUTS
100
AcDbLine
10
101.90525691412364
20
-30.747500000000002
30
0
11
104.15009062499993
21
-34.634999999999984
31
0
0
LINE
5
32B
100
AcDbEntity
8
CUTOUTS
100
AcDbLine
10
104.15009062499993
20
-34.634999999999984
30
0
11
101.90525691412363
21
-38.522500000000001
31
0
0
LINE
5
32C
100
AcDbEntity
8
CUTOUTS
100
AcDbLine
10
101.90525691412363
20
-38.522500000000001
30
0
11
97.416149597261438
21
-38.522500000000001
31
0
0
LINE
5
32D
100
AcDbEntity
8
CUTOUTS
100
AcDbLine
10
97.416149597261438
20
-38.522500000000001
30
0
11
95.171315886391014
21
-34.634999999999998
31
0
0
LINE
5
32E
100
AcDbEntity
8
CUTOUTS
100
AcDbLine
10
95.171315886391014
20
-34.634999999999998
30
0
11
97.416149597261438
21
-30.747500000000009
31
0
0
LINE
5
32F
100
AcDbEntity
8
CUTOUTS
100
AcDbLine
10
97.416149597261438
20
-30.747500000000009
30
0
11
101.90525691412364
21
-30.747500000000002
31
0
0
LINE
5
330
100
AcDbEntity
8
CUTOUTS
100
AcDbLine
10
116.90525691412364
20
-30.747500000000002
30
0
11
119.15009062499993
21
-34.634999999999984
31
0
0
LINE
5
331
100
AcDbEntity
8
CUTOUTS
100
AcDbLine
10
119.15009062499993
20
-34.634999999999984
30
0
11
116.90525691412363
21
-38.522500000000001
31
0
0
LINE
5
332
100
AcDbEntity
8
CUTOUTS
100
AcDbLine
10
116.90525691412363
20
-38.522500000000001
30
0
11
112.41614959725649
21
-38.522500000000001
31
0
0
LINE
5
333
100
AcDbEntity
8
CUTOUTS
100
AcDbLine
10
112.41614959725649
20
-38.522500000000001
30
0
11
110.17131588638992
21
-34.634999999999998
31
0
0
LINE
5
334
100
AcDbEntity
8
CUTOUTS
100
AcDbLine
10
110.17131588638992
20
-34.634999999999998
30
0
11
112.41614959725649
21
-30.747500000000002
31
0
0
LINE
5
335
100
AcDbEntity
8
CUTOUTS
100
AcDbLine
10
112.41614959725649
20
-30.747500000000002
30
0
11
116.90525691412364
21
-30.747500000000002
31
0
0
LINE
5
336
100
AcDbEntity
8
CUTOUTS
100
AcDbLine
10
127.41614959725649
20
-30.747500000000002
30
0
11
131.90525691412364
21
-30.747500000000002
31
0
0
LINE
5
337
100
AcDbEntity
8
CUTOUTS
100
AcDbLine
10
131.90525691412364
20
-30.747500000000002
30
0
11
134.15009062499993
21
-34.634999999999984
31
0
0
LINE
5
338
100
AcDbEntity
8
CUTOUTS
100
AcDbLine
10
134.15009062499993
20
-34.634999999999984
30
0
11
131.90525691412364
21
-38.522500000000001
31
0
0
LINE
5
339
100
AcDbEntity
8
CUTOUTS
100
AcDbLine
10
131.90525691412364
20
-38.522500000000001
30
0
11
127.41614959725649
21
-38.522500000000001
31
0
0
LINE
5
33A
100
AcDbEntity
8
CUTOUTS
100
AcDbLine
10
127.41614959725649
20
-38.522500000000001
30
0
11
125.17131588638992
21
-34.634999999999998
31
0
0
LINE
5
33B
100
AcDbEntity
8
CUTOUTS
100
AcDbLine
10
125.17131588638992
20
-34.634999999999998
30
0
11
127.41614959725649
21
-30.747500000000002
31
0
0
LINE
5
33C
100
AcDbEntity
8
CUTOUTS
100
AcDbLine
10
146.90525691412364
20
-30.747500000000002
30
0
11
149.15009062499993
21
-34.634999999999984
31
0
0
LINE
5
33D
100
AcDbEntity
8
CUTOUTS
100
AcDbLine
10
149.15009062499993
20
-34.634999999999984
30
0
11
146.90525691412364
21
-38.522500000000001
31
0
0
LINE
5
33E
100
AcDbEntity
8
CUTOUTS
100
AcDbLine
10
146.90525691412364
20
-38.522500000000001
30
0
11
142.41614959725649
21
-38.522500000000001
31
0
0
LINE
5
33F
100
AcDbEntity
8
CUTOUTS
100
AcDbLine
10
142.41614959725649
20
-38.522500000000001
30
0
11
140.17131588638992
21
-34.634999999999998
31
0
0
LINE
5
340
100
AcDbEntity
8
CUTOUTS
100
AcDbLine
10
140.17131588638992
20
-34.634999999999998
30
0
11
142.41614959725649
21
-30.747500000000002
31
0
0
LINE
5
341
100
AcDbEntity
8
CUTOUTS
100
AcDbLine
10
142.41614959725649
20
-30.747500000000002
30
0
11
146.90525691412364
21
-30.747500000000002
31
0
0
LINE
5
342
100
AcDbEntity
8
CUTOUTS
100
AcDbLine
10
164.06009062499993
20
-34.634999999999998
30
0
11
161.81525691412364
21
-38.522500000000001
31
0
0
LINE
5
343
100
AcDbEntity
8
CUTOUTS
100
AcDbLine
10
161.81525691412364
20
-38.522500000000001
30
0
11
157.32614959725649
21
-38.522500000000001
31
0
0
LINE
5
344
100
AcDbEntity
8
CUTOUTS
100
AcDbLine
10
157.32614959725649
20
-38.522500000000001
30
0
11
155.08131588638992
21
-34.634999999999998
31
0
0
LINE
5
345
100
AcDbEntity
8
CUTOUTS
100
AcDbLine
10
155.08131588638992
20
-34.634999999999998
30
0
11
157.32614959725649
21
-30.747500000000002
31
0
0
LINE
5
346
100
AcDbEntity
8
CUTOUTS
100
AcDbLine
10
157.32614959725649
20
-30.747500000000002
30
0
11
161.81525691412364
21
-30.747500000000002
31
0
0
LINE
5
347
100
AcDbEntity
8
CUTOUTS
100
AcDbLine
10
161.81525691412364
20
-30.747500000000002
30
0
11
164.06009062499993
21
-34.634999999999998
31
0
0
LINE
5
348
100
AcDbEntity
8
CUTOUTS
100
AcDbLine
10
176.81525691412364
20
-30.747500000000002
30
0
11
179.06009062499993
21
-34.634999999999998
31
0
0
LINE
5
349
100
AcDbEntity
8
CUTOUTS
100
AcDbLine
10
179.06009062499993
20
-34.634999999999998
30
0
11
176.81525691412364
21
-38.522500000000001
31
0
0
LINE
5
34A
100
AcDbEntity
8
CUTOUTS
100
AcDbLine
10
176.81525691412364
20
-38.522500000000001
30
0
11
172.32614959725649
21
-38.522500000000001
31
0
0
LINE
5
34B
100
AcDbEntity
8
CUTOUTS
100
AcDbLine
10
172.32614959725649
20
-38.522500000000001
30
0
11
170.08131588638992
21
-34.634999999999998
31
0
0
LINE
5
34C
100
AcDbEntity
8
CUTOUTS
100
AcDbLine
10
170.08131588638992
20
-34.634999999999998
30
0
11
172.32614959725649
21
-30.747500000000002
31
0
0
LINE
5
34D
100
AcDbEntity
8
CUTOUTS
100
AcDbLine
10
172.32614959725649
20
-30.747500000000002
30
0
11
176.81525691412364
21
-30.747500000000002
31
0
0
LINE
5
34E
100
AcDbEntity
8
CUTOUTS
100
AcDbLine
10
101.90525691412363
20
-23.522500000000001
30
0
11
97.416149597261438
21
-23.522500000000001
31
0
0
LINE
5
34F
100
AcDbEntity
8
CUTOUTS
100
AcDbLine
10
97.416149597261438
20
-23.522500000000001
30
0
11
95.171315886391014
21
-19.635000000000005
31
0
0
LINE
5
350
100
AcDbEntity
8
CUTOUTS
100
AcDbLine
10
95.171315886391014
20
-19.635000000000005
30
0
11
97.416149597261438
21
-15.747499999999995
31
0
0
LINE
5
351
100
AcDbEntity
8
CUTOUTS
100
AcDbLine
10
97.416149597261438
20
-15.747499999999995
30
0
11
101.90525691412363
21
-15.7475
31
0
0
LINE
5
352
100
AcDbEntity
8
CUTOUTS
100
AcDbLine
10
101.90525691412363
20
-15.7475
30
0
11
104.15009062499992
21
-19.635000000000002
31
0
0
LINE
5
353
100
AcDbEntity
8
CUTOUTS
100
AcDbLine
10
104.15009062499992
20
-19.635000000000002
30
0
11
101.90525691412363
21
-23.522500000000001
31
0
0
LINE
5
354
100
AcDbEntity
8
CUTOUTS
100
AcDbLine
10
112.41614959725649
20
-23.522500000000001
30
0
11
110.17131588638992
21
-19.635000000000002
31
0
0
LINE
5
355
100
AcDbEntity
8
CUTOUTS
100
AcDbLine
10
110.17131588638992
20
-19.635000000000002
30
0
11
112.41614959725649
21
-15.7475
31
0
0
LINE
5
356
100
AcDbEntity
8
CUTOUTS
100
AcDbLine
10
112.41614959725649
20
-15.7475
30
0
11
116.90525691412363
21
-15.7475
31
0
0
LINE
5
357
100
AcDbEntity
8
CUTOUTS
100
AcDbLine
10
116.90525691412363
20
-15.7475
30
0
11
119.15009062499992
21
-19.635000000000002
31
0
0
LINE
5
358
100
AcDbEntity
8
CUTOUTS
100
AcDbLine
10
119.15009062499992
20
-19.635000000000002
30
0
11
116.90525691412363
21
-23.522500000000001
31
0
0
LINE
5
359
100
AcDbEntity
8
CUTOUTS
100
AcDbLine
10
116.90525691412363
20
-23.522500000000001
30
0
11
112.41614959725649
21
-23.522500000000001
31
0
0
LINE
5
35A
100
AcDbEntity
8
CUTOUTS
100
AcDbLine
10
127.41614959725649
20
-15.7475
30
0
11
131.90525691412364
21
-15.7475
31
0
0
LINE
5
35B
100
AcDbEntity
8
CUTOUTS
100
AcDbLine
10
131.90525691412364
20
-15.7475
30
0
11
134.15009062499993
21
-19.635000000000002
31
0
0
LINE
5
35C
100
AcDbEntity
8
CUTOUTS
100
AcDbLine
10
134.15009062499993
20
-19.635000000000002
30
0
11
131.90525691412364
21
-23.522500000000001
31
0
0
LINE
5
35D
100
AcDbEntity
8
CUTOUTS
100
AcDbLine
10
131.90525691412364
20
-23.522500000000001
30
0
11
127.41614959725649
21
-23.522500000000001
31
0
0
LINE
5
35E
100
AcDbEntity
8
CUTOUTS
100
AcDbLine
10
127.41614959725649
20
-23.522500000000001
30
0
11
125.17131588638992
21
-19.635000000000002
31
0
0
LINE
5
35F
100
AcDbEntity
8
CUTOUTS
100
AcDbLine
10
125.17131588638992
20
-19.635000000000002
30
0
11
127.41614959725649
21
-15.7475
31
0
0
LINE
5
360
100
AcDbEntity
8
CUTOUTS
100
AcDbLine
10
142.41614959725649
20
-23.522500000000001
30
0
11
140.17131588638992
21
-19.635000000000002
31
0
0
LINE
5
361
100
AcDbEntity
8
CUTOUTS
100
AcDbLine
10
140.17131588638992
20
-19.635000000000002
30
0
11
142.41614959725649
21
-15.7475
31
0
0
LINE
5
362
100
AcDbEntity
8
CUTOUTS
100
AcDbLine
10
142.41614959725649
20
-15.7475
30
0
11
146.90525691412364
21
-15.7475
31
0
0
LINE
5
363
100
AcDbEntity
8
CUTOUTS
100
AcDbLine
10
146.90525691412364
20
-15.7475
30
0
11
149.15009062499993
21
-19.635000000000002
31
0
0
LINE
5
364
100
AcDbEntity
8
CUTOUTS
100
AcDbLine
10
149.15009062499993
20
-19.635000000000002
30
0
11
146.90525691412364
21
-23.522500000000001
31
0
0
LINE
5
365
100
AcDbEntity
8
CUTOUTS
100
AcDbLine
10
146.90525691412364
20
-23.522500000000001
30
0
11
142.41614959725649
21
-23.522500000000001
31
0
0
LINE
5
366
100
AcDbEntity
8
CUTOUTS
100
AcDbLine
10
104.15009062499992
20
-4.6349999999999998
30
0
11
101.90525691412363
21
-8.5224999999999991
31
0
0
LINE
5
367
100
AcDbEntity
8
CUTOUTS
100
AcDbLine
10
101.90525691412363
20
-8.5224999999999991
30
0
11
97.416149597261438
21
-8.5225000000000009
31
0
0
LINE
5
368
100
AcDbEntity
8
CUTOUTS
100
AcDbLine
10
97.416149597261438
20
-8.5225000000000009
30
0
11
95.171315886391014
21
-4.6350000000000025
31
0
0
LINE
5
369
100
AcDbEntity
8
CUTOUTS
100
AcDbLine
10
95.171315886391014
20
-4.6350000000000025
30
0
11
97.416149597261438
21
-0.74750000000000205
31
0
0
LINE
5
36A
100
AcDbEntity
8
CUTOUTS
100
AcDbLine
10
97.416149597261438
20
-0.74750000000000205
30
0
11
101.90525691412363
21
-0.74750000000000039
31
0
0
LINE
5
36B
100
AcDbEntity
8
CUTOUTS
100
AcDbLine
10
101.90525691412363
20
-0.74750000000000039
30
0
11
104.15009062499992
21
-4.6349999999999998
31
0
0
LINE
5
36C
100
AcDbEntity
8
CUTOUTS
100
AcDbLine
10
112.41614959725649
20
-8.5225000000000009
30
0
11
110.17131588638992
21
-4.6350000000000016
31
0
0
LINE
5
36D
100
AcDbEntity
8
CUTOUTS
100
AcDbLine
10
110.17131588638992
20
-4.6350000000000016
30
0
11
112.41614959725649
21
-0.7475000000000015
31
0
0
LINE
5
36E
100
AcDbEntity
8
CUTOUTS
100
AcDbLine
10
112.41614959725649
20
-0.7475000000000015
30
0
11
116.90525691412363
21
-0.74750000000000039
31
0
0
LINE
5
36F
100
AcDbEntity
8
CUTOUTS
100
AcDbLine
10
116.90525691412363
20
-0.74750000000000039
30
0
11
119.15009062499992
21
-4.6349999999999998
31
0
0
LINE
5
370
100
AcDbEntity
8
CUTOUTS
100
AcDbLine
10
119.15009062499992
20
-4.6349999999999998
30
0
11
116.90525691412363
21
-8.5224999999999991
31
0
0
LINE
5
371
100
AcDbEntity
8
CUTOUTS
100
AcDbLine
10
116.90525691412363
20
-8.5224999999999991
30
0
11
112.41614959725649
21
-8.5225000000000009
31
0
0
LINE
5
372
100
AcDbEntity
8
CUTOUTS
100
AcDbLine
10
131.90525691412364
20
-0.74750000000000039
30
0
11
134.15009062499993
21
-4.6349999999999998
31
0
0
LINE
5
373
100
AcDbEntity
8
CUTOUTS
100
AcDbLine
10
134.15009062499993
20
-4.6349999999999998
30
0
11
131.90525691412364
21
-8.5224999999999991
31
0
0
LINE
5
374
100
AcDbEntity
8
CUTOUTS
100
AcDbLine
10
131.90525691412364
20
-8.5224999999999991
30
0
11
127.41614959725649
21
-8.5225000000000009
31
0
0
LINE
5
375
100
AcDbEntity
8
CUTOUTS
100
AcDbLine
10
127.41614959725649
20
-8.5225000000000009
30
0
11
125.17131588638992
21
-4.6350000000000016
31
0
0
LINE
5
376
100
AcDbEntity
8
CUTOUTS
100
AcDbLine
10
125.17131588638992
20
-4.6350000000000016
30
0
11
127.41614959725649
21
-0.7475000000000015
31
0
0
LINE
5
377
100
AcDbEntity
8
CUTOUTS
100
AcDbLine
10
127.41614959725649
20
-0.7475000000000015
30
0
11
131.90525691412364
21
-0.74750000000000039
31
0
0
LINE
5
378
100
AcDbEntity
8
CUTOUTS
100
AcDbLine
10
142.41614959725649
20
-8.5225000000000009
30
0
11
140.17131588638992
21
-4.6350000000000016
31
0
0
LINE
5
379
100
AcDbEntity
8
CUTOUTS
100
AcDbLine
10
140.17131588638992
20
-4.6350000000000016
30
0
11
142.41614959725649
21
-0.7475000000000015
31
0
0
LINE
5
37A
100
AcDbEntity
8
CUTOUTS
100
AcDbLine
10
142.41614959725649
20
-0.7475000000000015
30
0
11
146.90525691412364
21
-0.74750000000000039
31
0
0
LINE
5
37B
100
AcDbEntity
8
CUTOUTS
100
AcDbLine
10
146.90525691412364
20
-0.74750000000000039
30
0
11
149.15009062499993
21
-4.6349999999999998
31
0
0
LINE
5
37C
100
AcDbEntity
8
CUTOUTS
100
AcDbLine
10
149.15009062499993
20
-4.6349999999999998
30
0
11
146.90525691412364
21
-8.5224999999999991
31
0
0
LINE
5
37D
100
AcDbEntity
8
CUTOUTS
100
AcDbLine
10
146.90525691412364
20
-8.5224999999999991
30
0
11
142.41614959725649
21
-8.5225000000000009
31
0
0
LINE
5
37E
100
AcDbEntity
8
CUTOUTS
100
AcDbLine
10
161.81525691412364
20
-15.7475
30
0
11
164.06009062499993
21
-19.635000000000002
31
0
0
LINE
5
37F
100
AcDbEntity
8
CUTOUTS
100
AcDbLine
10
164.06009062499993
20
-19.635000000000002
30
0
11
161.81525691412364
21
-23.522500000000001
31
0
0
LINE
5
380
100
AcDbEntity
8
CUTOUTS
100
AcDbLine
10
161.81525691412364
20
-23.522500000000001
30
0
11
157.32614959725649
21
-23.522500000000001
31
0
0
LINE
5
381
100
AcDbEntity
8
CUTOUTS
100
AcDbLine
10
157.32614959725649
20
-23.522500000000001
30
0
11
155.08131588638992
21
-19.635000000000002
31
0
0
LINE
5
382
100
AcDbEntity
8
CUTOUTS
100
AcDbLine
10
155.08131588638992
20
-19.635000000000002
30
0
11
157.32614959725649
21
-15.7475
31
0
0
LINE
5
383
100
AcDbEntity
8
CUTOUTS
100
AcDbLine
10
157.32614959725649
20
-15.7475
30
0
11
161.81525691412364
21
-15.7475
31
0
0
LINE
5
384
100
AcDbEntity
8
CUTOUTS
100
AcDbLine
10
176.81525691412364
20
-15.7475
30
0
11
179.06009062499993
21
-19.635000000000002
31
0
0
LINE
5
385
100
AcDbEntity
8
CUTOUTS
100
AcDbLine
10
179.06009062499993
20
-19.635000000000002
30
0
11
176.81525691412364
21
-23.522500000000001
31
0
0
LINE
5
386
100
AcDbEntity
8
CUTOUTS
100
AcDbLine
10
176.81525691412364
20
-23.522500000000001
30
0
11
172.32614959725649
21
-23.522500000000001
31
0
0
LINE
5
387
100
AcDbEntity
8
CUTOUTS
100
AcDbLine
10
172.32614959725649
20
-23.522500000000001
30
0
11
170.08131588638992
21
-19.635000000000002
31
0
0
LINE
5
388
100
AcDbEntity
8
CUTOUTS
100
AcDbLine
10
170.08131588638992
20
-19.635000000000002
30
0
11
172.32614959725649
21
-15.7475
31
0
0
LINE
5
389
100
AcDbEntity
8
CUTOUTS
100
AcDbLine
10
172.32614959725649
20
-15.7475
30
0
11
176.81525691412364
21
-15.7475
31
0
0
LINE
5
38A
100
AcDbEntity
8
CUTOUTS
100
AcDbLine
10
161.81525691412364
20
-0.74749999999999983
30
0
11
164.06009062499993
21
-4.6349999999999998
31
0
0
LINE
5
38B
100
AcDbEntity
8
CUTOUTS
100
AcDbLine
10
164.06009062499993
20
-4.6349999999999998
30
0
11
161.81525691412364
21
-8.5224999999999991
31
0
0
LINE
5
38C
100
AcDbEntity
8
CUTOUTS
100
AcDbLine
10
161.81525691412364
20
-8.5224999999999991
30
0
11
157.32614959725649
21
-8.5225000000000009
31
0
0
LINE
5
38D
100
AcDbEntity
8
CUTOUTS
100
AcDbLine
10
157.32614959725649
20
-8.5225000000000009
30
0
11
155.08131588638992
21
-4.6350000000000007
31
0
0
LINE
5
38E
100
AcDbEntity
8
CUTOUTS
100
AcDbLine
10
155.08131588638992
20
-4.6350000000000007
30
0
11
157.32614959725649
21
-0.7475000000000015
31
0
0
LINE
5
38F
100
AcDbEntity
8
CUTOUTS
100
AcDbLine
10
157.32614959725649
20
-0.7475000000000015
30
0
11
161.81525691412364
21
-0.74749999999999983
31
0
0
LINE
5
390
100
AcDbEntity
8
CUTOUTS
100
AcDbLine
10
170.08131588638992
20
-4.6350000000000007
30
0
11
172.32614959725649
21
-0.7475000000000015
31
0
0
LINE
5
391
100
AcDbEntity
8
CUTOUTS
100
AcDbLine
10
172.32614959725649
20
-0.7475000000000015
30
0
11
176.81525691412364
21
-0.74749999999999983
31
0
0
LINE
5
392
100
AcDbEntity
8
CUTOUTS
100
AcDbLine
10
176.81525691412364
20
-0.74749999999999983
30
0
11
179.06009062499993
21
-4.6349999999999998
31
0
0
LINE
5
393
100
AcDbEntity
8
CUTOUTS
100
AcDbLine
10
179.06009062499993
20
-4.6349999999999998
30
0
11
176.81525691412364
21
-8.5224999999999991
31
0
0
LINE
5
394
100
AcDbEntity
8
CUTOUTS
100
AcDbLine
10
176.81525691412364
20
-8.5224999999999991
30
0
11
172.32614959725649
21
-8.5225000000000009
31
0
0
LINE
5
395
100
AcDbEntity
8
CUTOUTS
100
AcDbLine
10
172.32614959725649
20
-8.5225000000000009
30
0
11
170.08131588638992
21
-4.6350000000000007
31
0
0
CIRCLE
5
396
100
AcDbEntity
8
CUTOUTS
100
AcDbCircle
10
-195
20
-7.100000000000001e-15
30
0
40
3.8875000000000171
210
0
220
0
230
1
0
LINE
5
397
100
AcDbEntity
8
CUTOUTS
100
AcDbLine
10
-183.12014959716649
20
14.252499999999991
30
0
11
-180.87531588629992
21
10.364999999999995
31
0
0
LINE
5
398
100
AcDbEntity
8
CUTOUTS
100
AcDbLine
10
-180.87531588629992
20
10.364999999999995
30
0
11
-183.12014959716649
21
6.4775000000000098
31
0
0
LINE
5
399
100
AcDbEntity
8
CUTOUTS
100
AcDbLine
10
-183.12014959716649
20
6.4775000000000098
30
0
11
-187.60925691403489
21
6.4775000000000107
31
0
0
LINE
5
39A
100
AcDbEntity
8
CUTOUTS
100
AcDbLine
10
-187.60925691403489
20
6.4775000000000107
30
0
11
-189.85409062499866
21
10.365000000000002
31
0
0
LINE
5
39B
100
AcDbEntity
8
CUTOUTS
100
AcDbLine
10
-189.85409062499866
20
10.365000000000002
30
0
11
-187.60925691403489
21
14.252499999999991
31
0
0
LINE
5
39C
100
AcDbEntity
8
CUTOUTS
100
AcDbLine
10
-187.60925691403489
20
14.252499999999991
30
0
11
-183.12014959716649
21
14.252499999999991
31
0
0
LINE
5
39D
100
AcDbEntity
8
CUTOUTS
100
AcDbLine
10
-168.12014959716652
20
6.4775000000000134
30
0
11
-172.60925691403489
21
6.4775000000000134
31
0
0
LINE
5
39E
100
AcDbEntity
8
CUTOUTS
100
AcDbLine
10
-172.60925691403489
20
6.4775000000000134
30
0
11
-174.85409062499866
21
10.365000000000004
31
0
0
LINE
5
39F
100
AcDbEntity
8
CUTOUTS
100
AcDbLine
10
-174.85409062499866
20
10.365000000000004
30
0
11
-172.60925691403489
21
14.252499999999987
31
0
0
LINE
5
3A0
100
AcDbEntity
8
CUTOUTS
100
AcDbLine
10
-172.60925691403489
20
14.252499999999987
30
0
11
-168.12014959716652
21
14.252499999999987
31
0
0
LINE
5
3A1
100
AcDbEntity
8
CUTOUTS
100
AcDbLine
10
-168.12014959716652
20
14.252499999999987
30
0
11
-165.87531588629997
21
10.364999999999995
31
0
0
LINE
5
3A2
100
AcDbEntity
8
CUTOUTS
100
AcDbLine
10
-165.87531588629997
20
10.364999999999995
30
0
11
-168.12014959716652
21
6.4775000000000134
31
0
0
LINE
5
3A3
100
AcDbEntity
8
CUTOUTS
100
AcDbLine
10
-153.12014959716652
20
6.4775000000000009
30
0
11
-157.60925691403492
21
6.4775000000000018
31
0
0
LINE
5
3A4
100
AcDbEntity
8
CUTOUTS
100
AcDbLine
10
-157.60925691403492
20
6.4775000000000018
30
0
11
-159.85409062499866
21
10.364999999999995
31
0
0
LINE
5
3A5
100
AcDbEntity
8
CUTOUTS
100
AcDbLine
10
-159.85409062499866
20
10.364999999999995
30
0
11
-157.60925691403492
21
14.2525
31
0
0
LINE
5
3A6
100
AcDbEntity
8
CUTOUTS
100
AcDbLine
10
-157.60925691403492
20
14.2525
30
0
11
-153.12014959716652
21
14.2525
31
0
0
LINE
5
3A7
100
AcDbEntity
8
CUTOUTS
100
AcDbLine
10
-153.12014959716652
20
14.2525
30
0
11
-150.87531588629994
21
10.364999999999998
31
0
0
LINE
5
3A8
100
AcDbEntity
8
CUTOUTS
100
AcDbLine
10
-150.87531588629994
20
10.364999999999998
30
0
11
-153.12014959716652
21
6.4775000000000009
31
0
0
LINE
5
3A9
100
AcDbEntity
8
CUTOUTS
100
AcDbLine
10
-138.12014959716652
20
6.4775000000000027
30
0
11
-142.60925691403492
21
6.4775000000000027
31
0
0
LINE
5
3AA
100
AcDbEntity
8
CUTOUTS
100
AcDbLine
10
-142.60925691403492
20
6.4775000000000027
30
0
11
-144.85409062499866
21
10.364999999999998
31
0
0
LINE
5
3AB
100
AcDbEntity
8
CUTOUTS
100
AcDbLine
10
-144.85409062499866
20
10.364999999999998
30
0
11
-142.60925691403492
21
14.2525
31
0
0
LINE
5
3AC
100
AcDbEntity
8
CUTOUTS
100
AcDbLine
10
-142.60925691403492
20
14.2525
30
0
11
-138.12014959716652
21
14.2525
31
0
0
LINE
5
3AD
100
AcDbEntity
8
CUTOUTS
100
AcDbLine
10
-138.12014959716652
20
14.2525
30
0
11
-135.87531588629994
21
10.365
31
0
0
LINE
5
3AE
100
AcDbEntity
8
CUTOUTS
100
AcDbLine
10
-135.87531588629994
20
10.365
30
0
11
-138.12014959716652
21
6.4775000000000027
31
0
0
LINE
5
3AF
100
AcDbEntity
8
CUTOUTS
100
AcDbLine
10
-123.1201495971665
20
6.4774999999999983
30
0
11
-127.60925691403493
21
6.4774999999999983
31
0
0
LINE
5
3B0
100
AcDbEntity
8
CUTOUTS
100
AcDbLine
10
-127.60925691403493
20
6.4774999999999983
30
0
11
-129.85409062499866
21
10.364999999999998
31
0
0
LINE
5
3B1
100
AcDbEntity
8
CUTOUTS
100
AcDbLine
10
-129.85409062499866
20
10.364999999999998
30
0
11
-127.60925691403493
21
14.252500000000003
31
0
0
LINE
5
3B2
100
AcDbEntity
8
CUTOUTS
100
AcDbLine
10
-127.60925691403493
20
14.252500000000003
30
0
11
-123.1201495971665
21
14.252500000000003
31
0
0
LINE
5
3B3
100
AcDbEntity
8
CUTOUTS
100
AcDbLine
10
-123.1201495971665
20
14.252500000000003
30
0
11
-120.87531588629993
21
10.365
31
0
0
LINE
5
3B4
100
AcDbEntity
8
CUTOUTS
100
AcDbLine
10
-120.87531588629993
20
10.365
30
0
11
-123.1201495971665
21
6.4774999999999983
31
0
0
LINE
5
3B5
100
AcDbEntity
8
CUTOUTS
100
AcDbLine
10
-105.87531588629993
20
10.365
30
0
11
-108.1201495971665
21
6.4775000000000009
31
0
0
LINE
5
3B6
100
AcDbEntity
8
CUTOUTS
100
AcDbLine
10
-108.1201495971665
20
6.4775000000000009
30
0
11
-112.60925691403493
21
6.4775000000000009
31
0
0
LINE
5
3B7
100
AcDbEntity
8
CUTOUTS
100
AcDbLine
10
-112.60925691403493
20
6.4775000000000009
30
0
11
-114.85409062499866
21
10.364999999999995
31
0
0
LINE
5
3B8
100
AcDbEntity
8
CUTOUTS
100
AcDbLine
10
-114.85409062499866
20
10.364999999999995
30
0
11
-112.60925691403493
21
14.252500000000001
31
0
0
LINE
5
3B9
100
AcDbEntity
8
CUTOUTS
100
AcDbLine
10
-112.60925691403493
20
14.252500000000001
30
0
11
-108.1201495971665
21
14.252500000000001
31
0
0
LINE
5
3BA
100
AcDbEntity
8
CUTOUTS
100
AcDbLine
10
-108.1201495971665
20
14.252500000000001
30
0
11
-105.87531588629993
21
10.365
31
0
0
LINE
5
3BB
100
AcDbEntity
8
CUTOUTS
100
AcDbLine
10
-183.12014959716649
20
21.477500000000006
30
0
11
-187.60925691403489
21
21.477500000000006
31
0
0
LINE
5
3BC
100
AcDbEntity
8
CUTOUTS
100
AcDbLine
10
-187.60925691403489
20
21.477500000000006
30
0
11
-189.85409062499866
21
25.365000000000006
31
0
0
LINE
5
3BD
100
AcDbEntity
8
CUTOUTS
100
AcDbLine
10
-189.85409062499866
20
25.365000000000006
30
0
11
-187.60925691403489
21
29.252499999999991
31
0
0
LINE
5
3BE
100
AcDbEntity
8
CUTOUTS
100
AcDbLine
10
-187.60925691403489
20
29.252499999999991
30
0
11
-183.12014959716649
21
29.252499999999991
31
0
0
LINE
5
3BF
100
AcDbEntity
8
CUTOUTS
100
AcDbLine
10
-183.12014959716649
20
29.252499999999991
30
0
11
-180.87531588629992
21
25.365000000000002
31
0
0
LINE
5
3C0
100
AcDbEntity
8
CUTOUTS
100
AcDbLine
10
-180.87531588629992
20
25.365000000000002
30
0
11
-183.12014959716649
21
21.477500000000006
31
0
0
LINE
5
3C1
100
AcDbEntity
8
CUTOUTS
100
AcDbLine
10
-172.60925691403489
20
29.252499999999991
30
0
11
-168.12014959716649
21
29.252499999999991
31
0
0
LINE
5
3C2
100
AcDbEntity
8
CUTOUTS
100
AcDbLine
10
-168.12014959716649
20
29.252499999999991
30
0
11
-165.87531588629992
21
25.365000000000002
31
0
0
LINE
5
3C3
100
AcDbEntity
8
CUTOUTS
100
AcDbLine
10
-165.87531588629992
20
25.365000000000002
30
0
11
-168.12014959716649
21
21.477500000000006
31
0
0
LINE
5
3C4
100
AcDbEntity
8
CUTOUTS
100
AcDbLine
10
-168.12014959716649
20
21.477500000000006
30
0
11
-172.60925691403489
21
21.477500000000006
31
0
0
LINE
5
3C5
100
AcDbEntity
8
CUTOUTS
100
AcDbLine
10
-172.60925691403489
20
21.477500000000006
30
0
11
-174.85409062499866
21
25.365000000000006
31
0
0
LINE
5
3C6
100
AcDbEntity
8
CUTOUTS
100
AcDbLine
10
-174.85409062499866
20
25.365000000000006
30
0
11
-172.60925691403489
21
29.252499999999991
31
0
0
LINE
5
3C7
100
AcDbEntity
8
CUTOUTS
100
AcDbLine
10
-157.60925691403492
20
29.252500000000001
30
0
11
-153.12014959716652
21
29.252500000000001
31
0
0
LINE
5
3C8
100
AcDbEntity
8
CUTOUTS
100
AcDbLine
10
-153.12014959716652
20
29.252500000000001
30
0
11
-150.87531588629994
21
25.365000000000002
31
0
0
LINE
5
3C9
100
AcDbEntity
8
CUTOUTS
100
AcDbLine
10
-150.87531588629994
20
25.365000000000002
30
0
11
-153.12014959716652
21
21.477499999999999
31
0
0
LINE
5
3CA
100
AcDbEntity
8
CUTOUTS
100
AcDbLine
10
-153.12014959716652
20
21.477499999999999
30
0
11
-157.60925691403492
21
21.477499999999999
31
0
0
LINE
5
3CB
100
AcDbEntity
8
CUTOUTS
100
AcDbLine
10
-157.60925691403492
20
21.477499999999999
30
0
11
-159.85409062499866
21
25.365000000000002
31
0
0
LINE
5
3CC
100
AcDbEntity
8
CUTOUTS
100
AcDbLine
10
-159.85409062499866
20
25.365000000000002
30
0
11
-157.60925691403492
21
29.252500000000001
31
0
0
LINE
5
3CD
100
AcDbEntity
8
CUTOUTS
100
AcDbLine
10
-183.12014959716652
20
36.477500000000013
30
0
11
-187.60925691403489
21
36.477500000000013
31
0
0
LINE
5
3CE
100
AcDbEntity
8
CUTOUTS
100
AcDbLine
10
-187.60925691403489
20
36.477500000000013
30
0
11
-189.85409062499866
21
40.365000000000009
31
0
0
LINE
5
3CF
100
AcDbEntity
8
CUTOUTS
100
AcDbLine
10
-189.85409062499866
20
40.365000000000009
30
0
11
-187.60925691403489
21
44.252499999999991
31
0
0
LINE
5
3D0
100
AcDbEntity
8
CUTOUTS
100
AcDbLine
10
-187.60925691403489
20
44.252499999999991
30
0
11
-183.12014959716652
21
44.252499999999991
31
0
0
LINE
5
3D1
100
AcDbEntity
8
CUTOUTS
100
AcDbLine
10
-183.12014959716652
20
44.252499999999991
30
0
11
-180.87531588629997
21
40.365000000000002
31
0
0
LINE
5
3D2
100
AcDbEntity
8
CUTOUTS
100
AcDbLine
10
-180.87531588629997
20
40.365000000000002
30
0
11
-183.12014959716652
21
36.477500000000013
31
0
0
LINE
5
3D3
100
AcDbEntity
8
CUTOUTS
100
AcDbLine
10
-168.12014959716652
20
36.477500000000013
30
0
11
-172.60925691403489
21
36.477500000000013
31
0
0
LINE
5
3D4
100
AcDbEntity
8
CUTOUTS
100
AcDbLine
10
-172.60925691403489
20
36.477500000000013
30
0
11
-174.85409062499866
21
40.365000000000009
31
0
0
LINE
5
3D5
100
AcDbEntity
8
CUTOUTS
100
AcDbLine
10
-174.85409062499866
20
40.365000000000009
30
0
11
-172.60925691403489
21
44.252499999999991
31
0
0
LINE
5
3D6
100
AcDbEntity
8
CUTOUTS
100
AcDbLine
10
-172.60925691403489
20
44.252499999999991
30
0
11
-168.12014959716652
21
44.252499999999991
31
0
0
LINE
5
3D7
100
AcDbEntity
8
CUTOUTS
100
AcDbLine
10
-168.12014959716652
20
44.252499999999991
30
0
11
-165.87531588629997
21
40.365000000000002
31
0
0
LINE
5
3D8
100
AcDbEntity
8
CUTOUTS
100
AcDbLine
10
-165.87531588629997
20
40.365000000000002
30
0
11
-168.12014959716652
21
36.477500000000013
31
0
0
LINE
5
3D9
100
AcDbEntity
8
CUTOUTS
100
AcDbLine
10
-153.12014959716649
20
36.477499999999999
30
0
11
-157.60925691403492
21
36.477499999999999
31
0
0
LINE
5
3DA
100
AcDbEntity
8
CUTOUTS
100
AcDbLine
10
-157.60925691403492
20
36.477499999999999
30
0
11
-159.85409062499866
21
40.365000000000002
31
0
0
LINE
5
3DB
100
AcDbEntity
8
CUTOUTS
100
AcDbLine
10
-159.85409062499866
20
40.365000000000002
30
0
11
-157.60925691403492
21
44.252500000000012
31
0
0
LINE
5
3DC
100
AcDbEntity
8
CUTOUTS
100
AcDbLine
10
-157.60925691403492
20
44.252500000000012
30
0
11
-153.12014959716649
21
44.252500000000012
31
0
0
LINE
5
3DD
100
AcDbEntity
8
CUTOUTS
100
AcDbLine
10
-153.12014959716649
20
44.252500000000012
30
0
11
-150.87531588629992
21
40.365000000000002
31
0
0
LINE
5
3DE
100
AcDbEntity
8
CUTOUTS
100
AcDbLine
10
-150.87531588629992
20
40.365000000000002
30
0
11
-153.12014959716649
21
36.477499999999999
31
0
0
LINE
5
3DF
100
AcDbEntity
8
CUTOUTS
100
AcDbLine
10
-138.12014959716649
20
21.477499999999992
30
0
11
-142.60925691403492
21
21.477499999999992
31
0
0
LINE
5
3E0
100
AcDbEntity
8
CUTOUTS
100
AcDbLine
10
-142.60925691403492
20
21.477499999999992
30
0
11
-144.85409062499866
21
25.365000000000002
31
0
0
LINE
5
3E1
100
AcDbEntity
8
CUTOUTS
100
AcDbLine
10
-144.85409062499866
20
25.365000000000002
30
0
11
-142.60925691403492
21
29.252500000000005
31
0
0
LINE
5
3E2
100
AcDbEntity
8
CUTOUTS
100
AcDbLine
10
-142.60925691403492
20
29.252500000000005
30
0
11
-138.12014959716649
21
29.252500000000005
31
0
0
LINE
5
3E3
100
AcDbEntity
8
CUTOUTS
100
AcDbLine
10
-138.12014959716649
20
29.252500000000005
30
0
11
-135.87531588629992
21
25.365000000000002
31
0
0
LINE
5
3E4
100
AcDbEntity
8
CUTOUTS
100
AcDbLine
10
-135.87531588629992
20
25.365000000000002
30
0
11
-138.12014959716649
21
21.477499999999992
31
0
0
LINE
5
3E5
100
AcDbEntity
8
CUTOUTS
100
AcDbLine
10
-123.1201495971665
20
29.252500000000005
30
0
11
-120.87531588629993
21
25.365000000000002
31
0
0
LINE
5
3E6
100
AcDbEntity
8
CUTOUTS
100
AcDbLine
10
-120.87531588629993
20
25.365000000000002
30
0
11
-123.1201495971665
21
21.477499999999992
31
0
0
LINE
5
3E7
100
AcDbEntity
8
CUTOUTS
100
AcDbLine
10
-123.1201495971665
20
21.477499999999992
30
0
11
-127.60925691403493
21
21.477499999999992
31
0
0
LINE
5
3E8
100
AcDbEntity
8
CUTOUTS
100
AcDbLine
10
-127.60925691403493
20
21.477499999999992
30
0
11
-129.85409062499866
21
25.364999999999998
31
0
0
LINE
5
3E9
100
AcDbEntity
8
CUTOUTS
100
AcDbLine
10
-129.85409062499866
20
25.364999999999998
30
0
11
-127.60925691403493
21
29.252500000000005
31
0
0
LINE
5
3EA
100
AcDbEntity
8
CUTOUTS
100
AcDbLine
10
-127.60925691403493
20
29.252500000000005
30
0
11
-123.1201495971665
21
29.252500000000005
31
0
0
LINE
5
3EB
100
AcDbEntity
8
CUTOUTS
100
AcDbLine
10
-108.1201495971665
20
21.477499999999999
30
0
11
-112.60925691403493
21
21.477499999999999
31
0
0
LINE
5
3EC
100
AcDbEntity
8
CUTOUTS
100
AcDbLine
10
-112.60925691403493
20
21.477499999999999
30
0
11
-114.85409062499866
21
25.364999999999998
31
0
0
LINE
5
3ED
100
AcDbEntity
8
CUTOUTS
100
AcDbLine
10
-114.85409062499866
20
25.364999999999998
30
0
11
-112.60925691403493
21
29.252500000000001
31
0
0
LINE
5
3EE
100
AcDbEntity
8
CUTOUTS
100
AcDbLine
10
-112.60925691403493
20
29.252500000000001
30
0
11
-108.1201495971665
21
29.252500000000001
31
0
0
LINE
5
3EF
100
AcDbEntity
8
CUTOUTS
100
AcDbLine
10
-108.1201495971665
20
29.252500000000001
30
0
11
-105.87531588629993
21
25.365000000000002
31
0
0
LINE
5
3F0
100
AcDbEntity
8
CUTOUTS
100
AcDbLine
10
-105.87531588629993
20
25.365000000000002
30
0
11
-108.1201495971665
21
21.477499999999999
31
0
0
LINE
5
3F1
100
AcDbEntity
8
CUTOUTS
100
AcDbLine
10
-135.87531588629994
20
40.365000000000002
30
0
11
-138.12014959716652
21
36.477500000000006
31
0
0
LINE
5
3F2
100
AcDbEntity
8
CUTOUTS
100
AcDbLine
10
-138.12014959716652
20
36.477500000000006
30
0
11
-142.60925691403492
21
36.477500000000006
31
0
0
LINE
5
3F3
100
AcDbEntity
8
CUTOUTS
100
AcDbLine
10
-142.60925691403492
20
36.477500000000006
30
0
11
-144.85409062499866
21
40.365000000000002
31
0
0
LINE
5
3F4
100
AcDbEntity
8
CUTOUTS
100
AcDbLine
10
-144.85409062499866
20
40.365000000000002
30
0
11
-142.60925691403492
21
44.252499999999998
31
0
0
LINE
5
3F5
100
AcDbEntity
8
CUTOUTS
100
AcDbLine
10
-142.60925691403492
20
44.252499999999998
30
0
11
-138.12014959716652
21
44.252499999999998
31
0
0
LINE
5
3F6
100
AcDbEntity
8
CUTOUTS
100
AcDbLine
10
-138.12014959716652
20
44.252499999999998
30
0
11
-135.87531588629994
21
40.365000000000002
31
0
0
LINE
5
3F7
100
AcDbEntity
8
CUTOUTS
100
AcDbLine
10
-120.87531588629993
20
40.365000000000002
30
0
11
-123.1201495971665
21
36.477499999999999
31
0
0
LINE
5
3F8
100
AcDbEntity
8
CUTOUTS
100
AcDbLine
10
-123.1201495971665
20
36.477499999999999
30
0
11
-127.60925691403493
21
36.477499999999999
31
0
0
LINE
5
3F9
100
AcDbEntity
8
CUTOUTS
100
AcDbLine
10
-127.60925691403493
20
36.477499999999999
30
0
11
-129.85409062499866
21
40.365000000000002
31
0
0
LINE
5
3FA
100
AcDbEntity
8
CUTOUTS
100
AcDbLine
10
-129.85409062499866
20
40.365000000000002
30
0
11
-127.60925691403493
21
44.252500000000012
31
0
0
LINE
5
3FB
100
AcDbEntity
8
CUTOUTS
100
AcDbLine
10
-127.60925691403493
20
44.252500000000012
30
0
11
-123.1201495971665
21
44.252500000000012
31
0
0
LINE
5
3FC
100
AcDbEntity
8
CUTOUTS
100
AcDbLine
10
-123.1201495971665
20
44.252500000000012
30
0
11
-120.87531588629993
21
40.365000000000002
31
0
0
LINE
5
3FD
100
AcDbEntity
8
CUTOUTS
100
AcDbLine
10
-112.60925691403493
20
44.252500000000012
30
0
11
-108.1201495971665
21
44.252500000000012
31
0
0
LINE
5
3FE
100
AcDbEntity
8
CUTOUTS
100
AcDbLine
10
-108.1201495971665
20
44.252500000000012
30
0
11
-105.87531588629993
21
40.365000000000002
31
0
0
LINE
5
3FF
100
AcDbEntity
8
CUTOUTS
100
AcDbLine
10
-105.87531588629993
20
40.365000000000002
30
0
11
-108.1201495971665
21
36.477500000000006
31
0
0
LINE
5
400
100
AcDbEntity
8
CUTOUTS
100
AcDbLine
10
-108.1201495971665
20
36.477500000000006
30
0
11
-112.60925691403493
21
36.477500000000006
31
0
0
LINE
5
401
100
AcDbEntity
8
CUTOUTS
100
AcDbLine
10
-112.60925691403493
20
36.477500000000006
30
0
11
-114.85409062499866
21
40.365000000000002
31
0
0
LINE
5
402
100
AcDbEntity
8
CUTOUTS
100
AcDbLine
10
-114.85409062499866
20
40.365000000000002
30
0
11
-112.60925691403493
21
44.252500000000012
31
0
0
LINE
5
403
100
AcDbEntity
8
CUTOUTS
100
AcDbLine
10
-99.944090624999916
20
10.365
30
0
11
-97.699256914123652
21
14.252500000000001
31
0
0
LINE
5
404
100
AcDbEntity
8
CUTOUTS
100
AcDbLine
10
-97.699256914123652
20
14.252500000000001
30
0
11
-93.210149597256503
21
14.252500000000001
31
0
0
LINE
5
405
100
AcDbEntity
8
CUTOUTS
100
AcDbLine
10
-93.210149597256503
20
14.252500000000001
30
0
11
-90.965315886389945
21
10.364999999999998
31
0
0
LINE
5
406
100
AcDbEntity
8
CUTOUTS
100
AcDbLine
10
-90.965315886389945
20
10.364999999999998
30
0
11
-93.210149597256503
21
6.4775000000000009
31
0
0
LINE
5
407
100
AcDbEntity
8
CUTOUTS
100
AcDbLine
10
-93.210149597256503
20
6.4775000000000009
30
0
11
-97.699256914123652
21
6.4775000000000009
31
0
0
LINE
5
408
100
AcDbEntity
8
CUTOUTS
100
AcDbLine
10
-97.699256914123652
20
6.4775000000000009
30
0
11
-99.944090624999916
21
10.365
31
0
0
LINE
5
409
100
AcDbEntity
8
CUTOUTS
100
AcDbLine
10
-84.944090624999916
20
10.365
30
0
11
-82.699256914123652
21
14.252500000000001
31
0
0
LINE
5
40A
100
AcDbEntity
8
CUTOUTS
100
AcDbLine
10
-82.699256914123652
20
14.252500000000001
30
0
11
-78.210149597256503
21
14.252500000000001
31
0
0
LINE
5
40B
100
AcDbEntity
8
CUTOUTS
100
AcDbLine
10
-78.210149597256503
20
14.252500000000001
30
0
11
-75.965315886389945
21
10.365
31
0
0
LINE
5
40C
100
AcDbEntity
8
CUTOUTS
100
AcDbLine
10
-75.965315886389945
20
10.365
30
0
11
-78.210149597256503
21
6.4775000000000009
31
0
0
LINE
5
40D
100
AcDbEntity
8
CUTOUTS
100
AcDbLine
10
-78.210149597256503
20
6.4775000000000009
30
0
11
-82.699256914123652
21
6.4775000000000009
31
0
0
LINE
5
40E
100
AcDbEntity
8
CUTOUTS
100
AcDbLine
10
-82.699256914123652
20
6.4775000000000009
30
0
11
-84.944090624999916
21
10.365
31
0
0
LINE
5
40F
100
AcDbEntity
8
CUTOUTS
100
AcDbLine
10
-60.965315886389931
20
10.365
30
0
11
-63.210149597256503
21
6.4775000000000009
31
0
0
LINE
5
410
100
AcDbEntity
8
CUTOUTS
100
AcDbLine
10
-63.210149597256503
20
6.4775000000000009
30
0
11
-67.699256914123652
21
6.4775000000000009
31
0
0
LINE
5
411
100
AcDbEntity
8
CUTOUTS
100
AcDbLine
10
-67.699256914123652
20
6.4775000000000009
30
0
11
-69.94409062499993
21
10.365
31
0
0
LINE
5
412
100
AcDbEntity
8
CUTOUTS
100
AcDbLine
10
-69.94409062499993
20
10.365
30
0
11
-67.699256914123652
21
14.252500000000001
31
0
0
LINE
5
413
100
AcDbEntity
8
CUTOUTS
100
AcDbLine
10
-67.699256914123652
20
14.252500000000001
30
0
11
-63.210149597256503
21
14.252500000000001
31
0
0
LINE
5
414
100
AcDbEntity
8
CUTOUTS
100
AcDbLine
10
-63.210149597256503
20
14.252500000000001
30
0
11
-60.965315886389931
21
10.365
31
0
0
LINE
5
415
100
AcDbEntity
8
CUTOUTS
100
AcDbLine
10
-52.699256914123644
20
14.252500000000001
30
0
11
-48.210149597256503
21
14.252500000000001
31
0
0
LINE
5
416
100
AcDbEntity
8
CUTOUTS
100
AcDbLine
10
-48.210149597256503
20
14.252500000000001
30
0
11
-45.965315886389931
21
10.365
31
0
0
LINE
5
417
100
AcDbEntity
8
CUTOUTS
100
AcDbLine
10
-45.965315886389931
20
10.365
30
0
11
-48.210149597256503
21
6.4775000000000009
31
0
0
LINE
5
418
100
AcDbEntity
8
CUTOUTS
100
AcDbLine
10
-48.210149597256503
20
6.4775000000000009
30
0
11
-52.699256914123644
21
6.4775000000000009
31
0
0
LINE
5
419
100
AcDbEntity
8
CUTOUTS
100
AcDbLine
10
-52.699256914123644
20
6.4775000000000009
30
0
11
-54.94409062499993
21
10.365000000000002
31
0
0
LINE
5
41A
100
AcDbEntity
8
CUTOUTS
100
AcDbLine
10
-54.94409062499993
20
10.365000000000002
30
0
11
-52.699256914123644
21
14.252500000000001
31
0
0
LINE
5
41B
100
AcDbEntity
8
CUTOUTS
100
AcDbLine
10
-37.4938504027335
20
14.252500000000001
30
0
11
-33.004743085866501
21
14.252500000000001
31
0
0
LINE
5
41C
100
AcDbEntity
8
CUTOUTS
100
AcDbLine
10
-33.004743085866501
20
14.252500000000001
30
0
11
-30.759909374999935
21
10.365
31
0
0
LINE
5
41D
100
AcDbEntity
8
CUTOUTS
100
AcDbLine
10
-30.759909374999935
20
10.365
30
0
11
-33.004743085866501
21
6.4775000000000018
31
0
0
LINE
5
41E
100
AcDbEntity
8
CUTOUTS
100
AcDbLine
10
-33.004743085866501
20
6.4775000000000018
30
0
11
-37.4938504027335
21
6.4775000000000018
31
0
0
LINE
5
41F
100
AcDbEntity
8
CUTOUTS
100
AcDbLine
10
-37.4938504027335
20
6.4775000000000018
30
0
11
-39.738684113600065
21
10.365000000000002
31
0
0
LINE
5
420
100
AcDbEntity
8
CUTOUTS
100
AcDbLine
10
-39.738684113600065
20
10.365000000000002
30
0
11
-37.4938504027335
21
14.252500000000001
31
0
0
LINE
5
421
100
AcDbEntity
8
CUTOUTS
100
AcDbLine
10
-22.4938504027335
20
6.4775000000000018
30
0
11
-24.738684113600065
21
10.365000000000002
31
0
0
LINE
5
422
100
AcDbEntity
8
CUTOUTS
100
AcDbLine
10
-24.738684113600065
20
10.365000000000002
30
0
11
-22.4938504027335
21
14.252500000000001
31
0
0
LINE
5
423
100
AcDbEntity
8
CUTOUTS
100
AcDbLine
10
-22.4938504027335
20
14.252500000000001
30
0
11
-18.004743085866501
21
14.252500000000001
31
0
0
LINE
5
424
100
AcDbEntity
8
CUTOUTS
100
AcDbLine
10
-18.004743085866501
20
14.252500000000001
30
0
11
-15.759909374999939
21
10.365
31
0
0
LINE
5
425
100
AcDbEntity
8
CUTOUTS
100
AcDbLine
10
-15.759909374999939
20
10.365
30
0
11
-18.004743085866501
21
6.4775000000000018
31
0
0
LINE
5
426
100
AcDbEntity
8
CUTOUTS
100
AcDbLine
10
-18.004743085866501
20
6.4775000000000018
30
0
11
-22.4938504027335
21
6.4775000000000018
31
0
0
LINE
5
427
100
AcDbEntity
8
CUTOUTS
100
AcDbLine
10
-3.0047430858714281
20
6.4775000000000009
30
0
11
-7.4938504027385573
21
6.4775000000000009
31
0
0
LINE
5
428
100
AcDbEntity
8
CUTOUTS
100
AcDbLine
10
-7.4938504027385573
20
6.4775000000000009
30
0
11
-9.7386841136090077
21
10.365
31
0
0
LINE
5
429
100
AcDbEntity
8
CUTOUTS
100
AcDbLine
10
-9.7386841136090077
20
10.365
30
0
11
-7.4938504027385591
21
14.252500000000001
31
0
0
LINE
5
42A
100
AcDbEntity
8
CUTOUTS
100
AcDbLine
10
-7.4938504027385591
20
14.252500000000001
30
0
11
-3.0047430858714281
21
14.252500000000001
31
0
0
LINE
5
42B
100
AcDbEntity
8
CUTOUTS
100
AcDbLine
10
-3.0047430858714281
20
14.252500000000001
30
0
11
-0.75990937500000522
21
10.365
31
0
0
LINE
5
42C
100
AcDbEntity
8
CUTOUTS
100
AcDbLine
10
-0.75990937500000522
20
10.365
30
0
11
-3.0047430858714281
21
6.4775000000000009
31
0
0
LINE
5
42D
100
AcDbEntity
8
CUTOUTS
100
AcDbLine
10
-93.210149597256503
20
29.252500000000001
30
0
11
-90.965315886389945
21
25.365000000000002
31
0
0
LINE
5
42E
100
AcDbEntity
8
CUTOUTS
100
AcDbLine
10
-90.965315886389945
20
25.365000000000002
30
0
11
-93.210149597256503
21
21.477499999999999
31
0
0
LINE
5
42F
100
AcDbEntity
8
CUTOUTS
100
AcDbLine
10
-93.210149597256503
20
21.477499999999999
30
0
11
-97.699256914123652
21
21.477499999999999
31
0
0
LINE
5
430
100
AcDbEntity
8
CUTOUTS
100
AcDbLine
10
-97.699256914123652
20
21.477499999999999
30
0
11
-99.944090624999916
21
25.365000000000002
31
0
0
LINE
5
431
100
AcDbEntity
8
CUTOUTS
100
AcDbLine
10
-99.944090624999916
20
25.365000000000002
30
0
11
-97.699256914123652
21
29.252500000000001
31
0
0
LINE
5
432
100
AcDbEntity
8
CUTOUTS
100
AcDbLine
10
-97.699256914123652
20
29.252500000000001
30
0
11
-93.210149597256503
21
29.252500000000001
31
0
0
LINE
5
433
100
AcDbEntity
8
CUTOUTS
100
AcDbLine
10
-78.210149597256503
20
21.477499999999999
30
0
11
-82.699256914123652
21
21.477499999999999
31
0
0
LINE
5
434
100
AcDbEntity
8
CUTOUTS
100
AcDbLine
10
-82.699256914123652
20
21.477499999999999
30
0
11
-84.944090624999916
21
25.365000000000002
31
0
0
LINE
5
435
100
AcDbEntity
8
CUTOUTS
100
AcDbLine
10
-84.944090624999916
20
25.365000000000002
30
0
11
-82.699256914123652
21
29.252500000000001
31
0
0
LINE
5
436
100
AcDbEntity
8
CUTOUTS
100
AcDbLine
10
-82.699256914123652
20
29.252500000000001
30
0
11
-78.210149597256503
21
29.252500000000001
31
0
0
LINE
5
437
100
AcDbEntity
8
CUTOUTS
100
AcDbLine
10
-78.210149597256503
20
29.252500000000001
30
0
11
-75.965315886389945
21
25.365000000000002
31
0
0
LINE
5
438
100
AcDbEntity
8
CUTOUTS
100
AcDbLine
10
-75.965315886389945
20
25.365000000000002
30
0
11
-78.210149597256503
21
21.477499999999999
31
0
0
LINE
5
439
100
AcDbEntity
8
CUTOUTS
100
AcDbLine
10
-63.210149597256503
20
21.477499999999999
30
0
11
-67.699256914123652
21
21.477499999999999
31
0
0
LINE
5
43A
100
AcDbEntity
8
CUTOUTS
100
AcDbLine
10
-67.699256914123652
20
21.477499999999999
30
0
11
-69.94409062499993
21
25.365000000000002
31
0
0
LINE
5
43B
100
AcDbEntity
8
CUTOUTS
100
AcDbLine
10
-69.94409062499993
20
25.365000000000002
30
0
11
-67.699256914123652
21
29.252500000000001
31
0
0
LINE
5
43C
100
AcDbEntity
8
CUTOUTS
100
AcDbLine
10
-67.699256914123652
20
29.252500000000001
30
0
11
-63.210149597256503
21
29.252500000000001
31
0
0
LINE
5
43D
100
AcDbEntity
8
CUTOUTS
100
AcDbLine
10
-63.210149597256503
20
29.252500000000001
30
0
11
-60.965315886389931
21
25.365000000000002
31
0
0
LINE
5
43E
100
AcDbEntity
8
CUTOUTS
100
AcDbLine
10
-60.965315886389931
20
25.365000000000002
30
0
11
-63.210149597256503
21
21.477499999999999
31
0
0
LINE
5
43F
100
AcDbEntity
8
CUTOUTS
100
AcDbLine
10
-48.210149597256503
20
29.252500000000001
30
0
11
-45.965315886389931
21
25.365000000000002
31
0
0
LINE
5
440
100
AcDbEntity
8
CUTOUTS
100
AcDbLine
10
-45.965315886389931
20
25.365000000000002
30
0
11
-48.210149597256503
21
21.477499999999999
31
0
0
LINE
5
441
100
AcDbEntity
8
CUTOUTS
100
AcDbLine
10
-48.210149597256503
20
21.477499999999999
30
0
11
-52.699256914123644
21
21.477499999999999
31
0
0
LINE
5
442
100
AcDbEntity
8
CUTOUTS
100
AcDbLine
10
-52.699256914123644
20
21.477499999999999
30
0
11
-54.94409062499993
21
25.365000000000002
31
0
0
LINE
5
443
100
AcDbEntity
8
CUTOUTS
100
AcDbLine
10
-54.94409062499993
20
25.365000000000002
30
0
11
-52.699256914123644
21
29.252500000000001
31
0
0
LINE
5
444
100
AcDbEntity
8
CUTOUTS
100
AcDbLine
10
-52.699256914123644
20
29.252500000000001
30
0
11
-48.210149597256503
21
29.252500000000001
31
0
0
CIRCLE
5
445
100
AcDbEntity
8
CUTOUTS
100
AcDbCircle
10
-98.804000000000016
20
47.800000000000004
30
0
40
1.0875000000000057
210
0
220
0
230
1
0
CIRCLE
5
446
100
AcDbEntity
8
CUTOUTS
100
AcDbCircle
10
-82.657000000000011
20
44.497999999999998
30
0
40
1.4874999999999972
210
0
220
0
230
1
0
LINE
5
447
100
AcDbEntity
8
CUTOUTS
100
AcDbLine
10
-37.4938504027335
20
29.252500000000001
30
0
11
-33.004743085866501
21
29.252500000000001
31
0
0
LINE
5
448
100
AcDbEntity
8
CUTOUTS
100
AcDbLine
10
-33.004743085866501
20
29.252500000000001
30
0
11
-30.759909374999943
21
25.365000000000002
31
0
0
LINE
5
449
100
AcDbEntity
8
CUTOUTS
100
AcDbLine
10
-30.759909374999943
20
25.365000000000002
30
0
11
-33.004743085866501
21
21.477499999999999
31
0
0
LINE
5
44A
100
AcDbEntity
8
CUTOUTS
100
AcDbLine
10
-33.004743085866501
20
21.477499999999999
30
0
11
-37.4938504027335
21
21.477499999999999
31
0
0
LINE
5
44B
100
AcDbEntity
8
CUTOUTS
100
AcDbLine
10
-37.4938504027335
20
21.477499999999999
30
0
11
-39.738684113600058
21
25.365000000000002
31
0
0
LINE
5
44C
100
AcDbEntity
8
CUTOUTS
100
AcDbLine
10
-39.738684113600058
20
25.365000000000002
30
0
11
-37.4938504027335
21
29.252500000000001
31
0
0
LINE
5
44D
100
AcDbEntity
8
CUTOUTS
100
AcDbLine
10
-18.004743085866497
20
21.477499999999999
30
0
11
-22.4938504027335
21
21.477499999999999
31
0
0
LINE
5
44E
100
AcDbEntity
8
CUTOUTS
100
AcDbLine
10
-22.4938504027335
20
21.477499999999999
30
0
11
-24.738684113600065
21
25.365000000000002
31
0
0
LINE
5
44F
100
AcDbEntity
8
CUTOUTS
100
AcDbLine
10
-24.738684113600065
20
25.365000000000002
30
0
11
-22.4938504027335
21
29.252500000000001
31
0
0
LINE
5
450
100
AcDbEntity
8
CUTOUTS
100
AcDbLine
10
-22.4938504027335
20
29.252500000000001
30
0
11
-18.004743085866494
21
29.252500000000001
31
0
0
LINE
5
451
100
AcDbEntity
8
CUTOUTS
100
AcDbLine
10
-18.004743085866494
20
29.252500000000001
30
0
11
-15.759909374999934
21
25.365000000000002
31
0
0
LINE
5
452
100
AcDbEntity
8
CUTOUTS
100
AcDbLine
10
-15.759909374999934
20
25.365000000000002
30
0
11
-18.004743085866497
21
21.477499999999999
31
0
0
LINE
5
453
100
AcDbEntity
8
CUTOUTS
100
AcDbLine
10
-7.4938504027385591
20
29.252500000000001
30
0
11
-3.0047430858714281
21
29.252500000000001
31
0
0
LINE
5
454
100
AcDbEntity
8
CUTOUTS
100
AcDbLine
10
-3.0047430858714281
20
29.252500000000001
30
0
11
-0.7599093750000061
21
25.365000000000002
31
0
0
LINE
5
455
100
AcDbEntity
8
CUTOUTS
100
AcDbLine
10
-0.7599093750000061
20
25.365000000000002
30
0
11
-3.0047430858714286
21
21.477499999999999
31
0
0
LINE
5
456
100
AcDbEntity
8
CUTOUTS
100
AcDbLine
10
-3.0047430858714286
20
21.477499999999999
30
0
11
-7.4938504027385573
21
21.477499999999999
31
0
0
LINE
5
457
100
AcDbEntity
8
CUTOUTS
100
AcDbLine
10
-7.4938504027385573
20
21.477499999999999
30
0
11
-9.7386841136090077
21
25.365000000000002
31
0
0
LINE
5
458
100
AcDbEntity
8
CUTOUTS
100
AcDbLine
10
-9.7386841136090077
20
25.365000000000002
30
0
11
-7.4938504027385591
21
29.252500000000001
31
0
0
CIRCLE
5
459
100
AcDbEntity
8
CUTOUTS
100
AcDbCircle
10
-42.656999999999996
20
44.497999999999998
30
0
40
1.4874999999999972
210
0
220
0
230
1
0
CIRCLE
5
45A
100
AcDbEntity
8
CUTOUTS
100
AcDbCircle
10
-2.657
20
44.497999999999998
30
0
40
1.4875000000000003
210
0
220
0
230
1
0
LINE
5
45B
100
AcDbEntity
8
CUTOUTS
100
AcDbLine
10
-180.87531588629997
20
55.365000000000002
30
0
11
-183.12014959716652
21
51.47750000000002
31
0
0
LINE
5
45C
100
AcDbEntity
8
CUTOUTS
100
AcDbLine
10
-183.12014959716652
20
51.47750000000002
30
0
11
-187.60925691403489
21
51.47750000000002
31
0
0
LINE
5
45D
100
AcDbEntity
8
CUTOUTS
100
AcDbLine
10
-187.60925691403489
20
51.47750000000002
30
0
11
-189.85409062499866
21
55.365000000000009
31
0
0
LINE
5
45E
100
AcDbEntity
8
CUTOUTS
100
AcDbLine
10
-189.85409062499866
20
55.365000000000009
30
0
11
-187.60925691403489
21
59.252499999999991
31
0
0
LINE
5
45F
100
AcDbEntity
8
CUTOUTS
100
AcDbLine
10
-187.60925691403489
20
59.252499999999991
30
0
11
-183.12014959716652
21
59.252499999999991
31
0
0
LINE
5
460
100
AcDbEntity
8
CUTOUTS
100
AcDbLine
10
-183.12014959716652
20
59.252499999999991
30
0
11
-180.87531588629997
21
55.365000000000002
31
0
0
LINE
5
461
100
AcDbEntity
8
CUTOUTS
100
AcDbLine
10
-174.85409062499866
20
55.365000000000009
30
0
11
-172.60925691403489
21
59.252499999999991
31
0
0
LINE
5
462
100
AcDbEntity
8
CUTOUTS
100
AcDbLine
10
-172.60925691403489
20
59.252499999999991
30
0
11
-168.12014959716652
21
59.252499999999991
31
0
0
LINE
5
463
100
AcDbEntity
8
CUTOUTS
100
AcDbLine
10
-168.12014959716652
20
59.252499999999991
30
0
11
-165.87531588629997
21
55.365000000000002
31
0
0
LINE
5
464
100
AcDbEntity
8
CUTOUTS
100
AcDbLine
10
-165.87531588629997
20
55.365000000000002
30
0
11
-168.12014959716652
21
51.47750000000002
31
0
0
LINE
5
465
100
AcDbEntity
8
CUTOUTS
100
AcDbLine
10
-168.12014959716652
20
51.47750000000002
30
0
11
-172.60925691403489
21
51.47750000000002
31
0
0
LINE
5
466
100
AcDbEntity
8
CUTOUTS
100
AcDbLine
10
-172.60925691403489
20
51.47750000000002
30
0
11
-174.85409062499866
21
55.365000000000009
31
0
0
LINE
5
467
100
AcDbEntity
8
CUTOUTS
100
AcDbLine
10
-153.12014959716649
20
51.477500000000006
30
0
11
-157.60925691403492
21
51.477500000000006
31
0
0
LINE
5
468
100
AcDbEntity
8
CUTOUTS
100
AcDbLine
10
-157.60925691403492
20
51.477500000000006
30
0
11
-159.85409062499866
21
55.365000000000002
31
0
0
LINE
5
469
100
AcDbEntity
8
CUTOUTS
100
AcDbLine
10
-159.85409062499866
20
55.365000000000002
30
0
11
-157.60925691403492
21
59.252500000000012
31
0
0
LINE
5
46A
100
AcDbEntity
8
CUTOUTS
100
AcDbLine
10
-157.60925691403492
20
59.252500000000012
30
0
11
-153.12014959716649
21
59.252500000000012
31
0
0
LINE
5
46B
100
AcDbEntity
8
CUTOUTS
100
AcDbLine
10
-153.12014959716649
20
59.252500000000012
30
0
11
-150.87531588629992
21
55.365000000000002
31
0
0
LINE
5
46C
100
AcDbEntity
8
CUTOUTS
100
AcDbLine
10
-150.87531588629992
20
55.365000000000002
30
0
11
-153.12014959716649
21
51.477500000000006
31
0
0
LINE
5
46D
100
AcDbEntity
8
CUTOUTS
100
AcDbLine
10
-180.87531588629992
20
70.365000000000009
30
0
11
-183.12014959716649
21
66.477500000000006
31
0
0
LINE
5
46E
100
AcDbEntity
8
CUTOUTS
100
AcDbLine
10
-183.12014959716649
20
66.477500000000006
30
0
11
-187.60925691403489
21
66.477500000000006
31
0
0
LINE
5
46F
100
AcDbEntity
8
CUTOUTS
100
AcDbLine
10
-187.60925691403489
20
66.477500000000006
30
0
11
-189.85409062499866
21
70.365000000000009
31
0
0
LINE
5
470
100
AcDbEntity
8
CUTOUTS
100
AcDbLine
10
-189.85409062499866
20
70.365000000000009
30
0
11
-187.60925691403489
21
74.252499999999984
31
0
0
LINE
5
471
100
AcDbEntity
8
CUTOUTS
100
AcDbLine
10
-187.60925691403489
20
74.252499999999984
30
0
11
-183.12014959716649
21
74.252499999999984
31
0
0
LINE
5
472
100
AcDbEntity
8
CUTOUTS
100
AcDbLine
10
-183.12014959716649
20
74.252499999999984
30
0
11
-180.87531588629992
21
70.365000000000009
31
0
0
LINE
5
473
100
AcDbEntity
8
CUTOUTS
100
AcDbLine
10
-168.12014959716652
20
66.477500000000006
30
0
11
-172.60925691403489
21
66.477500000000006
31
0
0
LINE
5
474
100
AcDbEntity
8
CUTOUTS
100
AcDbLine
10
-172.60925691403489
20
66.477500000000006
30
0
11
-174.85409062499866
21
70.365000000000009
31
0
0
LINE
5
475
100
AcDbEntity
8
CUTOUTS
100
AcDbLine
10
-174.85409062499866
20
70.365000000000009
30
0
11
-172.60925691403489
21
74.252499999999984
31
0
0
LINE
5
476
100
AcDbEntity
8
CUTOUTS
100
AcDbLine
10
-172.60925691403489
20
74.252499999999984
30
0
11
-168.12014959716652
21
74.252499999999984
31
0
0
LINE
5
477
100
AcDbEntity
8
CUTOUTS
100
AcDbLine
10
-168.12014959716652
20
74.252499999999984
30
0
11
-165.87531588629997
21
70.365000000000009
31
0
0
LINE
5
478
100
AcDbEntity
8
CUTOUTS
100
AcDbLine
10
-165.87531588629997
20
70.365000000000009
30
0
11
-168.12014959716652
21
66.477500000000006
31
0
0
LINE
5
479
100
AcDbEntity
8
CUTOUTS
100
AcDbLine
10
-153.12014959716649
20
66.477499999999992
30
0
11
-157.60925691403492
21
66.477499999999992
31
0
0
LINE
5
47A
100
AcDbEntity
8
CUTOUTS
100
AcDbLine
10
-157.60925691403492
20
66.477499999999992
30
0
11
-159.85409062499866
21
70.365000000000009
31
0
0
LINE
5
47B
100
AcDbEntity
8
CUTOUTS
100
AcDbLine
10
-159.85409062499866
20
70.365000000000009
30
0
11
-157.60925691403492
21
74.252499999999998
31
0
0
LINE
5
47C
100
AcDbEntity
8
CUTOUTS
100
AcDbLine
10
-157.60925691403492
20
74.252499999999998
30
0
11
-153.12014959716649
21
74.252499999999998
31
0
0
LINE
5
47D
100
AcDbEntity
8
CUTOUTS
100
AcDbLine
10
-153.12014959716649
20
74.252499999999998
30
0
11
-150.87531588629992
21
70.365000000000009
31
0
0
LINE
5
47E
100
AcDbEntity
8
CUTOUTS
100
AcDbLine
10
-150.87531588629992
20
70.365000000000009
30
0
11
-153.12014959716649
21
66.477499999999992
31
0
0
LINE
5
47F
100
AcDbEntity
8
CUTOUTS
100
AcDbLine
10
-142.60925691403492
20
51.477500000000006
30
0
11
-144.85409062499866
21
55.365000000000002
31
0
0
LINE
5
480
100
AcDbEntity
8
CUTOUTS
100
AcDbLine
10
-144.85409062499866
20
55.365000000000002
30
0
11
-142.60925691403492
21
59.252500000000012
31
0
0
LINE
5
481
100
AcDbEntity
8
CUTOUTS
100
AcDbLine
10
-142.60925691403492
20
59.252500000000012
30
0
11
-138.12014959716649
21
59.252500000000012
31
0
0
LINE
5
482
100
AcDbEntity
8
CUTOUTS
100
AcDbLine
10
-138.12014959716649
20
59.252500000000012
30
0
11
-135.87531588629992
21
55.365000000000002
31
0
0
LINE
5
483
100
AcDbEntity
8
CUTOUTS
100
AcDbLine
10
-135.87531588629992
20
55.365000000000002
30
0
11
-138.12014959716649
21
51.477500000000006
31
0
0
LINE
5
484
100
AcDbEntity
8
CUTOUTS
100
AcDbLine
10
-138.12014959716649
20
51.477500000000006
30
0
11
-142.60925691403492
21
51.477500000000006
31
0
0
LINE
5
485
100
AcDbEntity
8
CUTOUTS
100
AcDbLine
10
-123.1201495971665
20
51.477500000000006
30
0
11
-127.60925691403493
21
51.477500000000006
31
0
0
LINE
5
486
100
AcDbEntity
8
CUTOUTS
100
AcDbLine
10
-127.60925691403493
20
51.477500000000006
30
0
11
-129.85409062499866
21
55.365000000000002
31
0
0
LINE
5
487
100
AcDbEntity
8
CUTOUTS
100
AcDbLine
10
-129.85409062499866
20
55.365000000000002
30
0
11
-127.60925691403493
21
59.252500000000012
31
0
0
LINE
5
488
100
AcDbEntity
8
CUTOUTS
100
AcDbLine
10
-127.60925691403493
20
59.252500000000012
30
0
11
-123.1201495971665
21
59.252500000000012
31
0
0
LINE
5
489
100
AcDbEntity
8
CUTOUTS
100
AcDbLine
10
-123.1201495971665
20
59.252500000000012
30
0
11
-120.87531588629993
21
55.365000000000002
31
0
0
LINE
5
48A
100
AcDbEntity
8
CUTOUTS
100
AcDbLine
10
-120.87531588629993
20
55.365000000000002
30
0
11
-123.1201495971665
21
51.477500000000006
31
0
0
LINE
5
48B
100
AcDbEntity
8
CUTOUTS
100
AcDbLine
10
-108.1201495971665
20
51.477500000000006
30
0
11
-112.60925691403493
21
51.477500000000006
31
0
0
LINE
5
48C
100
AcDbEntity
8
CUTOUTS
100
AcDbLine
10
-112.60925691403493
20
51.477500000000006
30
0
11
-114.85409062499866
21
55.365000000000002
31
0
0
LINE
5
48D
100
AcDbEntity
8
CUTOUTS
100
AcDbLine
10
-114.85409062499866
20
55.365000000000002
30
0
11
-112.60925691403493
21
59.252500000000012
31
0
0
LINE
5
48E
100
AcDbEntity
8
CUTOUTS
100
AcDbLine
10
-112.60925691403493
20
59.252500000000012
30
0
11
-108.1201495971665
21
59.252500000000012
31
0
0
LINE
5
48F
100
AcDbEntity
8
CUTOUTS
100
AcDbLine
10
-108.1201495971665
20
59.252500000000012
30
0
11
-105.87531588629993
21
55.365000000000002
31
0
0
LINE
5
490
100
AcDbEntity
8
CUTOUTS
100
AcDbLine
10
-105.87531588629993
20
55.365000000000002
30
0
11
-108.1201495971665
21
51.477500000000006
31
0
0
LINE
5
491
100
AcDbEntity
8
CUTOUTS
100
AcDbLine
10
-142.60925691403492
20
74.252499999999998
30
0
11
-138.12014959716649
21
74.252499999999998
31
0
0
LINE
5
492
100
AcDbEntity
8
CUTOUTS
100
AcDbLine
10
-138.12014959716649
20
74.252499999999998
30
0
11
-135.87531588629992
21
70.365000000000009
31
0
0
LINE
5
493
100
AcDbEntity
8
CUTOUTS
100
AcDbLine
10
-135.87531588629992
20
70.365000000000009
30
0
11
-138.12014959716649
21
66.477499999999992
31
0
0
LINE
5
494
100
AcDbEntity
8
CUTOUTS
100
AcDbLine
10
-138.12014959716649
20
66.477499999999992
30
0
11
-142.60925691403492
21
66.477499999999992
31
0
0
LINE
5
495
100
AcDbEntity
8
CUTOUTS
100
AcDbLine
10
-142.60925691403492
20
66.477499999999992
30
0
11
-144.85409062499866
21
70.365000000000009
31
0
0
LINE
5
496
100
AcDbEntity
8
CUTOUTS
100
AcDbLine
10
-144.85409062499866
20
70.365000000000009
30
0
11
-142.60925691403492
21
74.252499999999998
31
0
0
LINE
5
497
100
AcDbEntity
8
CUTOUTS
100
AcDbLine
10
-127.60925691403493
20
74.252499999999998
30
0
11
-123.1201495971665
21
74.252499999999998
31
0
0
LINE
5
498
100
AcDbEntity
8
CUTOUTS
100
AcDbLine
10
-123.1201495971665
20
74.252499999999998
30
0
11
-120.87531588629993
21
70.365000000000009
31
0
0
LINE
5
499
100
AcDbEntity
8
CUTOUTS
100
AcDbLine
10
-120.87531588629993
20
70.365000000000009
30
0
11
-123.1201495971665
21
66.477499999999992
31
0
0
LINE
5
49A
100
AcDbEntity
8
CUTOUTS
100
AcDbLine
10
-123.1201495971665
20
66.477499999999992
30
0
11
-127.60925691403493
21
66.477499999999992
31
0
0
LINE
5
49B
100
AcDbEntity
8
CUTOUTS
100
AcDbLine
10
-127.60925691403493
20
66.477499999999992
30
0
11
-129.85409062499866
21
70.365000000000009
31
0
0
LINE
5
49C
100
AcDbEntity
8
CUTOUTS
100
AcDbLine
10
-129.85409062499866
20
70.365000000000009
30
0
11
-127.60925691403493
21
74.252499999999998
31
0
0
CIRCLE
5
49D
100
AcDbEntity
8
CUTOUTS
100
AcDbCircle
10
-100.541
20
63.820000000000007
30
0
40
4.8874999999999957
210
0
220
0
230
1
0
LINE
5
49E
100
AcDbEntity
8
CUTOUTS
100
AcDbLine
10
-108.1201495971665
20
66.477499999999992
30
0
11
-112.60925691403493
21
66.477499999999992
31
0
0
LINE
5
49F
100
AcDbEntity
8
CUTOUTS
100
AcDbLine
10
-112.60925691403493
20
66.477499999999992
30
0
11
-114.85409062499866
21
70.365000000000009
31
0
0
LINE
5
4A0
100
AcDbEntity
8
CUTOUTS
100
AcDbLine
10
-114.85409062499866
20
70.365000000000009
30
0
11
-112.60925691403493
21
74.252499999999998
31
0
0
LINE
5
4A1
100
AcDbEntity
8
CUTOUTS
100
AcDbLine
10
-112.60925691403493
20
74.252499999999998
30
0
11
-108.1201495971665
21
74.252499999999998
31
0
0
LINE
5
4A2
100
AcDbEntity
8
CUTOUTS
100
AcDbLine
10
-108.1201495971665
20
74.252499999999998
30
0
11
-105.87531588629993
21
70.365000000000009
31
0
0
LINE
5
4A3
100
AcDbEntity
8
CUTOUTS
100
AcDbLine
10
-105.87531588629993
20
70.365000000000009
30
0
11
-108.1201495971665
21
66.477499999999992
31
0
0
LINE
5
4A4
100
AcDbEntity
8
CUTOUTS
100
AcDbLine
10
-187.60925691403489
20
89.252499999999998
30
0
11
-183.12014959716649
21
89.252499999999998
31
0
0
LINE
5
4A5
100
AcDbEntity
8
CUTOUTS
100
AcDbLine
10
-183.12014959716649
20
89.252499999999998
30
0
11
-180.87531588629992
21
85.365000000000009
31
0
0
LINE
5
4A6
100
AcDbEntity
8
CUTOUTS
100
AcDbLine
10
-180.87531588629992
20
85.365000000000009
30
0
11
-183.12014959716649
21
81.477500000000006
31
0
0
LINE
5
4A7
100
AcDbEntity
8
CUTOUTS
100
AcDbLine
10
-183.12014959716649
20
81.477500000000006
30
0
11
-187.60925691403489
21
81.477500000000006
31
0
0
LINE
5
4A8
100
AcDbEntity
8
CUTOUTS
100
AcDbLine
10
-187.60925691403489
20
81.477500000000006
30
0
11
-189.85409062499866
21
85.365000000000009
31
0
0
LINE
5
4A9
100
AcDbEntity
8
CUTOUTS
100
AcDbLine
10
-189.85409062499866
20
85.365000000000009
30
0
11
-187.60925691403489
21
89.252499999999998
31
0
0
LINE
5
4AA
100
AcDbEntity
8
CUTOUTS
100
AcDbLine
10
-168.12014959716649
20
81.477500000000006
30
0
11
-172.60925691403489
21
81.477500000000006
31
0
0
LINE
5
4AB
100
AcDbEntity
8
CUTOUTS
100
AcDbLine
10
-172.60925691403489
20
81.477500000000006
30
0
11
-174.85409062499866
21
85.365000000000009
31
0
0
LINE
5
4AC
100
AcDbEntity
8
CUTOUTS
100
AcDbLine
10
-174.85409062499866
20
85.365000000000009
30
0
11
-172.60925691403489
21
89.252499999999998
31
0
0
LINE
5
4AD
100
AcDbEntity
8
CUTOUTS
100
AcDbLine
10
-172.60925691403489
20
89.252499999999998
30
0
11
-168.12014959716649
21
89.252499999999998
31
0
0
LINE
5
4AE
100
AcDbEntity
8
CUTOUTS
100
AcDbLine
10
-168.12014959716649
20
89.252499999999998
30
0
11
-165.87531588629992
21
85.365000000000009
31
0
0
LINE
5
4AF
100
AcDbEntity
8
CUTOUTS
100
AcDbLine
10
-165.87531588629992
20
85.365000000000009
30
0
11
-168.12014959716649
21
81.477500000000006
31
0
0
LINE
5
4B0
100
AcDbEntity
8
CUTOUTS
100
AcDbLine
10
-153.12014959716652
20
81.477500000000006
30
0
11
-157.60925691403492
21
81.477500000000006
31
0
0
LINE
5
4B1
100
AcDbEntity
8
CUTOUTS
100
AcDbLine
10
-157.60925691403492
20
81.477500000000006
30
0
11
-159.85409062499866
21
85.365000000000009
31
0
0
LINE
5
4B2
100
AcDbEntity
8
CUTOUTS
100
AcDbLine
10
-159.85409062499866
20
85.365000000000009
30
0
11
-157.60925691403492
21
89.252499999999998
31
0
0
LINE
5
4B3
100
AcDbEntity
8
CUTOUTS
100
AcDbLine
10
-157.60925691403492
20
89.252499999999998
30
0
11
-153.12014959716652
21
89.252499999999998
31
0
0
LINE
5
4B4
100
AcDbEntity
8
CUTOUTS
100
AcDbLine
10
-153.12014959716652
20
89.252499999999998
30
0
11
-150.87531588629994
21
85.365000000000009
31
0
0
LINE
5
4B5
100
AcDbEntity
8
CUTOUTS
100
AcDbLine
10
-150.87531588629994
20
85.365000000000009
30
0
11
-153.12014959716652
21
81.477500000000006
31
0
0
CIRCLE
5
4B6
100
AcDbEntity
8
CUTOUTS
100
AcDbCircle
10
-195
20
95
30
0
40
3.8875000000000171
210
0
220
0
230
1
0
LINE
5
4B7
100
AcDbEntity
8
CUTOUTS
100
AcDbLine
10
-144.85409062499869
20
85.365000000000009
30
0
11
-142.60925691403492
21
89.252500000000026
31
0
0
LINE
5
4B8
100
AcDbEntity
8
CUTOUTS
100
AcDbLine
10
-142.60925691403492
20
89.252500000000026
30
0
11
-138.12014959716649
21
89.252500000000026
31
0
0
LINE
5
4B9
100
AcDbEntity
8
CUTOUTS
100
AcDbLine
10
-138.12014959716649
20
89.252500000000026
30
0
11
-135.87531588629992
21
85.365000000000009
31
0
0
LINE
5
4BA
100
AcDbEntity
8
CUTOUTS
100
AcDbLine
10
-135.87531588629992
20
85.365000000000009
30
0
11
-138.12014959716649
21
81.477499999999992
31
0
0
LINE
5
4BB
100
AcDbEntity
8
CUTOUTS
100
AcDbLine
10
-138.12014959716649
20
81.477499999999992
30
0
11
-142.60925691403492
21
81.477499999999992
31
0
0
LINE
5
4BC
100
AcDbEntity
8
CUTOUTS
100
AcDbLine
10
-142.60925691403492
20
81.477499999999992
30
0
11
-144.85409062499869
21
85.365000000000009
31
0
0
LINE
5
4BD
100
AcDbEntity
8
CUTOUTS
100
AcDbLine
10
-127.60925691403493
20
89.252500000000026
30
0
11
-123.1201495971665
21
89.252500000000026
31
0
0
LINE
5
4BE
100
AcDbEntity
8
CUTOUTS
100
AcDbLine
10
-123.1201495971665
20
89.252500000000026
30
0
11
-120.87531588629993
21
85.365000000000009
31
0
0
LINE
5
4BF
100
AcDbEntity
8
CUTOUTS
100
AcDbLine
10
-120.87531588629993
20
85.365000000000009
30
0
11
-123.1201495971665
21
81.477499999999992
31
0
0
LINE
5
4C0
100
AcDbEntity
8
CUTOUTS
100
AcDbLine
10
-123.1201495971665
20
81.477499999999992
30
0
11
-127.60925691403493
21
81.477499999999992
31
0
0
LINE
5
4C1
100
AcDbEntity
8
CUTOUTS
100
AcDbLine
10
-127.60925691403493
20
81.477499999999992
30
0
11
-129.85409062499869
21
85.365000000000009
31
0
0
LINE
5
4C2
100
AcDbEntity
8
CUTOUTS
100
AcDbLine
10
-129.85409062499869
20
85.365000000000009
30
0
11
-127.60925691403493
21
89.252500000000026
31
0
0
LINE
5
4C3
100
AcDbEntity
8
CUTOUTS
100
AcDbLine
10
-108.12014959716652
20
81.477500000000006
30
0
11
-112.60925691403493
21
81.477500000000006
31
0
0
LINE
5
4C4
100
AcDbEntity
8
CUTOUTS
100
AcDbLine
10
-112.60925691403493
20
81.477500000000006
30
0
11
-114.85409062499866
21
85.365000000000009
31
0
0
LINE
5
4C5
100
AcDbEntity
8
CUTOUTS
100
AcDbLine
10
-114.85409062499866
20
85.365000000000009
30
0
11
-112.60925691403493
21
89.252499999999998
31
0
0
LINE
5
4C6
100
AcDbEntity
8
CUTOUTS
100
AcDbLine
10
-112.60925691403493
20
89.252499999999998
30
0
11
-108.12014959716652
21
89.252499999999998
31
0
0
LINE
5
4C7
100
AcDbEntity
8
CUTOUTS
100
AcDbLine
10
-108.12014959716652
20
89.252499999999998
30
0
11
-105.87531588629994
21
85.365000000000009
31
0
0
LINE
5
4C8
100
AcDbEntity
8
CUTOUTS
100
AcDbLine
10
-105.87531588629994
20
85.365000000000009
30
0
11
-108.12014959716652
21
81.477500000000006
31
0
0
CIRCLE
5
4C9
100
AcDbEntity
8
CUTOUTS
100
AcDbCircle
10
-98.804000000000016
20
54.286999999999999
30
0
40
1.0875000000000057
210
0
220
0
230
1
0
LINE
5
4CA
100
AcDbEntity
8
CUTOUTS
100
AcDbLine
10
45.4285
20
55.472500000000011
30
0
11
-91.509500000000003
21
55.472500000000011
31
0
0
LINE
5
4CB
100
AcDbEntity
8
CUTOUTS
100
AcDbLine
10
-91.509500000000003
20
55.472500000000011
30
0
11
-91.509500000000003
21
66.459500000000006
31
0
0
LINE
5
4CC
100
AcDbEntity
8
CUTOUTS
100
AcDbLine
10
-91.509500000000003
20
66.459500000000006
30
0
11
45.4285
21
66.459500000000006
31
0
0
LINE
5
4CD
100
AcDbEntity
8
CUTOUTS
100
AcDbLine
10
45.4285
20
66.459500000000006
30
0
11
45.4285
21
55.472500000000011
31
0
0
LINE
5
4CE
100
AcDbEntity
8
CUTOUTS
100
AcDbLine
10
11.995256914128573
20
14.252500000000001
30
0
11
14.240090624999993
21
10.365000000000002
31
0
0
LINE
5
4CF
100
AcDbEntity
8
CUTOUTS
100
AcDbLine
10
14.240090624999993
20
10.365000000000002
30
0
11
11.995256914128573
21
6.4775000000000009
31
0
0
LINE
5
4D0
100
AcDbEntity
8
CUTOUTS
100
AcDbLine
10
11.995256914128573
20
6.4775000000000009
30
0
11
7.5061495972614427
21
6.4775000000000009
31
0
0
LINE
5
4D1
100
AcDbEntity
8
CUTOUTS
100
AcDbLine
10
7.5061495972614427
20
6.4775000000000009
30
0
11
5.2613158863909915
21
10.365000000000002
31
0
0
LINE
5
4D2
100
AcDbEntity
8
CUTOUTS
100
AcDbLine
10
5.2613158863909915
20
10.365000000000002
30
0
11
7.5061495972614427
21
14.252500000000001
31
0
0
LINE
5
4D3
100
AcDbEntity
8
CUTOUTS
100
AcDbLine
10
7.5061495972614427
20
14.252500000000001
30
0
11
11.995256914128573
21
14.252500000000001
31
0
0
LINE
5
4D4
100
AcDbEntity
8
CUTOUTS
100
AcDbLine
10
26.995256914128575
20
6.4774999999999983
30
0
11
22.506149597261444
21
6.4774999999999991
31
0
0
LINE
5
4D5
100
AcDbEntity
8
CUTOUTS
100
AcDbLine
10
22.506149597261444
20
6.4774999999999991
30
0
11
20.261315886390992
21
10.364999999999998
31
0
0
LINE
5
4D6
100
AcDbEntity
8
CUTOUTS
100
AcDbLine
10
20.261315886390992
20
10.364999999999998
30
0
11
22.506149597261444
21
14.252500000000001
31
0
0
LINE
5
4D7
100
AcDbEntity
8
CUTOUTS
100
AcDbLine
10
22.506149597261444
20
14.252500000000001
30
0
11
26.995256914128575
21
14.252500000000001
31
0
0
LINE
5
4D8
100
AcDbEntity
8
CUTOUTS
100
AcDbLine
10
26.995256914128575
20
14.252500000000001
30
0
11
29.240090624999997
21
10.365000000000002
31
0
0
LINE
5
4D9
100
AcDbEntity
8
CUTOUTS
100
AcDbLine
10
29.240090624999997
20
10.365000000000002
30
0
11
26.995256914128575
21
6.4774999999999983
31
0
0
LINE
5
4DA
100
AcDbEntity
8
CUTOUTS
100
AcDbLine
10
41.995256914128575
20
14.252500000000001
30
0
11
44.240090624999993
21
10.365
31
0
0
LINE
5
4DB
100
AcDbEntity
8
CUTOUTS
100
AcDbLine
10
44.240090624999993
20
10.365
30
0
11
41.995256914128575
21
6.4775000000000009
31
0
0
LINE
5
4DC
100
AcDbEntity
8
CUTOUTS
100
AcDbLine
10
41.995256914128575
20
6.4775000000000009
30
0
11
37.506149597261441
21
6.4774999999999991
31
0
0
LINE
5
4DD
100
AcDbEntity
8
CUTOUTS
100
AcDbLine
10
37.506149597261441
20
6.4774999999999991
30
0
11
35.261315886390989
21
10.364999999999998
31
0
0
LINE
5
4DE
100
AcDbEntity
8
CUTOUTS
100
AcDbLine
10
35.261315886390989
20
10.364999999999998
30
0
11
37.506149597261441
21
14.252500000000001
31
0
0
LINE
5
4DF
100
AcDbEntity
8
CUTOUTS
100
AcDbLine
10
37.506149597261441
20
14.252500000000001
30
0
11
41.995256914128575
21
14.252500000000001
31
0
0
LINE
5
4E0
100
AcDbEntity
8
CUTOUTS
100
AcDbLine
10
56.905256914128579
20
6.4775000000000009
30
0
11
52.416149597261452
21
6.4775000000000009
31
0
0
LINE
5
4E1
100
AcDbEntity
8
CUTOUTS
100
AcDbLine
10
52.416149597261452
20
6.4775000000000009
30
0
11
50.171315886390992
21
10.365000000000004
31
0
0
LINE
5
4E2
100
AcDbEntity
8
CUTOUTS
100
AcDbLine
10
50.171315886390992
20
10.365000000000004
30
0
11
52.416149597261438
21
14.2525
31
0
0
LINE
5
4E3
100
AcDbEntity
8
CUTOUTS
100
AcDbLine
10
52.416149597261438
20
14.2525
30
0
11
56.905256914128579
21
14.252500000000001
31
0
0
LINE
5
4E4
100
AcDbEntity
8
CUTOUTS
100
AcDbLine
10
56.905256914128579
20
14.252500000000001
30
0
11
59.150090625000004
21
10.365
31
0
0
LINE
5
4E5
100
AcDbEntity
8
CUTOUTS
100
AcDbLine
10
59.150090625000004
20
10.365
30
0
11
56.905256914128579
21
6.4775000000000009
31
0
0
LINE
5
4E6
100
AcDbEntity
8
CUTOUTS
100
AcDbLine
10
67.416149597261452
20
6.4775000000000009
30
0
11
65.171315886391
21
10.365000000000004
31
0
0
LINE
5
4E7
100
AcDbEntity
8
CUTOUTS
100
AcDbLine
10
65.171315886391
20
10.365000000000004
30
0
11
67.416149597261438
21
14.2525
31
0
0
LINE
5
4E8
100
AcDbEntity
8
CUTOUTS
100
AcDbLine
10
67.416149597261438
20
14.2525
30
0
11
71.905256914128572
21
14.252500000000001
31
0
0
LINE
5
4E9
100
AcDbEntity
8
CUTOUTS
100
AcDbLine
10
71.905256914128572
20
14.252500000000001
30
0
11
74.150090625000004
21
10.365
31
0
0
LINE
5
4EA
100
AcDbEntity
8
CUTOUTS
100
AcDbLine
10
74.150090625000004
20
10.365
30
0
11
71.905256914128572
21
6.4775000000000009
31
0
0
LINE
5
4EB
100
AcDbEntity
8
CUTOUTS
100
AcDbLine
10
71.905256914128572
20
6.4775000000000009
30
0
11
67.416149597261452
21
6.4775000000000009
31
0
0
LINE
5
4EC
100
AcDbEntity
8
CUTOUTS
100
AcDbLine
10
82.416149597261438
20
6.4775000000000009
30
0
11
80.171315886391014
21
10.364999999999995
31
0
0
LINE
5
4ED
100
AcDbEntity
8
CUTOUTS
100
AcDbLine
10
80.171315886391014
20
10.364999999999995
30
0
11
82.416149597261438
21
14.252500000000005
31
0
0
LINE
5
4EE
100
AcDbEntity
8
CUTOUTS
100
AcDbLine
10
82.416149597261438
20
14.252500000000005
30
0
11
86.905256914128586
21
14.252500000000001
31
0
0
LINE
5
4EF
100
AcDbEntity
8
CUTOUTS
100
AcDbLine
10
86.905256914128586
20
14.252500000000001
30
0
11
89.150090625000018
21
10.365
31
0
0
LINE
5
4F0
100
AcDbEntity
8
CUTOUTS
100
AcDbLine
10
89.150090625000018
20
10.365
30
0
11
86.905256914128586
21
6.4775000000000009
31
0
0
LINE
5
4F1
100
AcDbEntity
8
CUTOUTS
100
AcDbLine
10
86.905256914128586
20
6.4775000000000009
30
0
11
82.416149597261438
21
6.4775000000000009
31
0
0
LINE
5
4F2
100
AcDbEntity
8
CUTOUTS
100
AcDbLine
10
11.995256914128573
20
29.252500000000001
30
0
11
14.240090624999995
21
25.365000000000002
31
0
0
LINE
5
4F3
100
AcDbEntity
8
CUTOUTS
100
AcDbLine
10
14.240090624999995
20
25.365000000000002
30
0
11
11.995256914128573
21
21.477499999999999
31
0
0
LINE
5
4F4
100
AcDbEntity
8
CUTOUTS
100
AcDbLine
10
11.995256914128573
20
21.477499999999999
30
0
11
7.5061495972614445
21
21.477499999999999
31
0
0
LINE
5
4F5
100
AcDbEntity
8
CUTOUTS
100
AcDbLine
10
7.5061495972614445
20
21.477499999999999
30
0
11
5.2613158863909923
21
25.365000000000002
31
0
0
LINE
5
4F6
100
AcDbEntity
8
CUTOUTS
100
AcDbLine
10
5.2613158863909923
20
25.365000000000002
30
0
11
7.5061495972614427
21
29.252500000000001
31
0
0
LINE
5
4F7
100
AcDbEntity
8
CUTOUTS
100
AcDbLine
10
7.5061495972614427
20
29.252500000000001
30
0
11
11.995256914128573
21
29.252500000000001
31
0
0
LINE
5
4F8
100
AcDbEntity
8
CUTOUTS
100
AcDbLine
10
26.995256914128575
20
21.477499999999999
30
0
11
22.506149597261444
21
21.477499999999999
31
0
0
LINE
5
4F9
100
AcDbEntity
8
CUTOUTS
100
AcDbLine
10
22.506149597261444
20
21.477499999999999
30
0
11
20.261315886390992
21
25.365000000000002
31
0
0
LINE
5
4FA
100
AcDbEntity
8
CUTOUTS
100
AcDbLine
10
20.261315886390992
20
25.365000000000002
30
0
11
22.506149597261444
21
29.252500000000001
31
0
0
LINE
5
4FB
100
AcDbEntity
8
CUTOUTS
100
AcDbLine
10
22.506149597261444
20
29.252500000000001
30
0
11
26.995256914128575
21
29.252500000000001
31
0
0
LINE
5
4FC
100
AcDbEntity
8
CUTOUTS
100
AcDbLine
10
26.995256914128575
20
29.252500000000001
30
0
11
29.240090624999997
21
25.365000000000002
31
0
0
LINE
5
4FD
100
AcDbEntity
8
CUTOUTS
100
AcDbLine
10
29.240090624999997
20
25.365000000000002
30
0
11
26.995256914128575
21
21.477499999999999
31
0
0
LINE
5
4FE
100
AcDbEntity
8
CUTOUTS
100
AcDbLine
10
41.995256914128575
20
21.477499999999999
30
0
11
37.506149597261441
21
21.477499999999999
31
0
0
LINE
5
4FF
100
AcDbEntity
8
CUTOUTS
100
AcDbLine
10
37.506149597261441
20
21.477499999999999
30
0
11
35.261315886390989
21
25.365000000000002
31
0
0
LINE
5
500
100
AcDbEntity
8
CUTOUTS
100
AcDbLine
10
35.261315886390989
20
25.365000000000002
30
0
11
37.506149597261441
21
29.252500000000001
31
0
0
LINE
5
501
100
AcDbEntity
8
CUTOUTS
100
AcDbLine
10
37.506149597261441
20
29.252500000000001
30
0
11
41.995256914128575
21
29.252500000000001
31
0
0
LINE
5
502
100
AcDbEntity
8
CUTOUTS
100
AcDbLine
10
41.995256914128575
20
29.252500000000001
30
0
11
44.240090624999993
21
25.365000000000002
31
0
0
LINE
5
503
100
AcDbEntity
8
CUTOUTS
100
AcDbLine
10
44.240090624999993
20
25.365000000000002
30
0
11
41.995256914128575
21
21.477499999999999
31
0
0
CIRCLE
5
504
100
AcDbEntity
8
CUTOUTS
100
AcDbCircle
10
37.343000000000004
20
44.497999999999998
30
0
40
1.4875000000000016
210
0
220
0
230
1
0
LINE
5
505
100
AcDbEntity
8
CUTOUTS
100
AcDbLine
10
59.150090625000004
20
25.365000000000002
30
0
11
56.905256914128579
21
21.477499999999999
31
0
0
LINE
5
506
100
AcDbEntity
8
CUTOUTS
100
AcDbLine
10
56.905256914128579
20
21.477499999999999
30
0
11
52.416149597261438
21
21.477499999999999
31
0
0
LINE
5
507
100
AcDbEntity
8
CUTOUTS
100
AcDbLine
10
52.416149597261438
20
21.477499999999999
30
0
11
50.171315886390992
21
25.365000000000002
31
0
0
LINE
5
508
100
AcDbEntity
8
CUTOUTS
100
AcDbLine
10
50.171315886390992
20
25.365000000000002
30
0
11
52.416149597261438
21
29.252500000000001
31
0
0
LINE
5
509
100
AcDbEntity
8
CUTOUTS
100
AcDbLine
10
52.416149597261438
20
29.252500000000001
30
0
11
56.905256914128579
21
29.252500000000001
31
0
0
LINE
5
50A
100
AcDbEntity
8
CUTOUTS
100
AcDbLine
10
56.905256914128579
20
29.252500000000001
30
0
11
59.150090625000004
21
25.365000000000002
31
0
0
LINE
5
50B
100
AcDbEntity
8
CUTOUTS
100
AcDbLine
10
67.416149597261438
20
21.477499999999999
30
0
11
65.171315886391
21
25.365000000000002
31
0
0
LINE
5
50C
100
AcDbEntity
8
CUTOUTS
100
AcDbLine
10
65.171315886391
20
25.365000000000002
30
0
11
67.416149597261438
21
29.252500000000001
31
0
0
LINE
5
50D
100
AcDbEntity
8
CUTOUTS
100
AcDbLine
10
67.416149597261438
20
29.252500000000001
30
0
11
71.905256914128572
21
29.252500000000001
31
0
0
LINE
5
50E
100
AcDbEntity
8
CUTOUTS
100
AcDbLine
10
71.905256914128572
20
29.252500000000001
30
0
11
74.150090625000004
21
25.365000000000002
31
0
0
LINE
5
50F
100
AcDbEntity
8
CUTOUTS
100
AcDbLine
10
74.150090625000004
20
25.365000000000002
30
0
11
71.905256914128572
21
21.477499999999999
31
0
0
LINE
5
510
100
AcDbEntity
8
CUTOUTS
100
AcDbLine
10
71.905256914128572
20
21.477499999999999
30
0
11
67.416149597261438
21
21.477499999999999
31
0
0
LINE
5
511
100
AcDbEntity
8
CUTOUTS
100
AcDbLine
10
82.416149597261438
20
21.477499999999999
30
0
11
80.171315886391014
21
25.364999999999998
31
0
0
LINE
5
512
100
AcDbEntity
8
CUTOUTS
100
AcDbLine
10
80.171315886391014
20
25.364999999999998
30
0
11
82.416149597261438
21
29.252499999999998
31
0
0
LINE
5
513
100
AcDbEntity
8
CUTOUTS
100
AcDbLine
10
82.416149597261438
20
29.252499999999998
30
0
11
86.905256914128586
21
29.252500000000001
31
0
0
LINE
5
514
100
AcDbEntity
8
CUTOUTS
100
AcDbLine
10
86.905256914128586
20
29.252500000000001
30
0
11
89.150090625000018
21
25.365000000000002
31
0
0
LINE
5
515
100
AcDbEntity
8
CUTOUTS
100
AcDbLine
10
89.150090625000018
20
25.365000000000002
30
0
11
86.905256914128586
21
21.477499999999999
31
0
0
LINE
5
516
100
AcDbEntity
8
CUTOUTS
100
AcDbLine
10
86.905256914128586
20
21.477499999999999
30
0
11
82.416149597261438
21
21.477499999999999
31
0
0
LINE
5
517
100
AcDbEntity
8
CUTOUTS
100
AcDbLine
10
52.416149597261452
20
36.477500000000006
30
0
11
50.171315886391
21
40.365000000000002
31
0
0
LINE
5
518
100
AcDbEntity
8
CUTOUTS
100
AcDbLine
10
50.171315886391
20
40.365000000000002
30
0
11
52.416149597261452
21
44.252499999999998
31
0
0
LINE
5
519
100
AcDbEntity
8
CUTOUTS
100
AcDbLine
10
52.416149597261452
20
44.252499999999998
30
0
11
56.905256914128579
21
44.252499999999998
31
0
0
LINE
5
51A
100
AcDbEntity
8
CUTOUTS
100
AcDbLine
10
56.905256914128579
20
44.252499999999998
30
0
11
59.150090625000004
21
40.365000000000002
31
0
0
LINE
5
51B
100
AcDbEntity
8
CUTOUTS
100
AcDbLine
10
59.150090625000004
20
40.365000000000002
30
0
11
56.905256914128579
21
36.477500000000006
31
0
0
LINE
5
51C
100
AcDbEntity
8
CUTOUTS
100
AcDbLine
10
56.905256914128579
20
36.477500000000006
30
0
11
52.416149597261452
21
36.477500000000006
31
0
0
LINE
5
51D
100
AcDbEntity
8
CUTOUTS
100
AcDbLine
10
67.416149597261452
20
36.477500000000006
30
0
11
65.171315886391
21
40.365000000000002
31
0
0
LINE
5
51E
100
AcDbEntity
8
CUTOUTS
100
AcDbLine
10
65.171315886391
20
40.365000000000002
30
0
11
67.416149597261452
21
44.252499999999998
31
0
0
LINE
5
51F
100
AcDbEntity
8
CUTOUTS
100
AcDbLine
10
67.416149597261452
20
44.252499999999998
30
0
11
71.905256914128572
21
44.252499999999998
31
0
0
LINE
5
520
100
AcDbEntity
8
CUTOUTS
100
AcDbLine
10
71.905256914128572
20
44.252499999999998
30
0
11
74.150090625000004
21
40.365000000000002
31
0
0
LINE
5
521
100
AcDbEntity
8
CUTOUTS
100
AcDbLine
10
74.150090625000004
20
40.365000000000002
30
0
11
71.905256914128572
21
36.477500000000006
31
0
0
LINE
5
522
100
AcDbEntity
8
CUTOUTS
100
AcDbLine
10
71.905256914128572
20
36.477500000000006
30
0
11
67.416149597261452
21
36.477500000000006
31
0
0
CIRCLE
5
523
100
AcDbEntity
8
CUTOUTS
100
AcDbCircle
10
52.696000000000005
20
47.800000000000004
30
0
40
1.0874999999999968
210
0
220
0
230
1
0
LINE
5
524
100
AcDbEntity
8
CUTOUTS
100
AcDbLine
10
82.416149597261438
20
36.477500000000006
30
0
11
80.171315886391014
21
40.365000000000002
31
0
0
LINE
5
525
100
AcDbEntity
8
CUTOUTS
100
AcDbLine
10
80.171315886391014
20
40.365000000000002
30
0
11
82.416149597261438
21
44.252500000000012
31
0
0
LINE
5
526
100
AcDbEntity
8
CUTOUTS
100
AcDbLine
10
82.416149597261438
20
44.252500000000012
30
0
11
86.905256914128572
21
44.252499999999998
31
0
0
LINE
5
527
100
AcDbEntity
8
CUTOUTS
100
AcDbLine
10
86.905256914128572
20
44.252499999999998
30
0
11
89.15009062499999
21
40.365000000000002
31
0
0
LINE
5
528
100
AcDbEntity
8
CUTOUTS
100
AcDbLine
10
89.15009062499999
20
40.365000000000002
30
0
11
86.905256914128572
21
36.477500000000006
31
0
0
LINE
5
529
100
AcDbEntity
8
CUTOUTS
100
AcDbLine
10
86.905256914128572
20
36.477500000000006
30
0
11
82.416149597261438
21
36.477500000000006
31
0
0
LINE
5
52A
100
AcDbEntity
8
CUTOUTS
100
AcDbLine
10
95.171315886391014
20
10.364999999999995
30
0
11
97.416149597261438
21
14.252500000000005
31
0
0
LINE
5
52B
100
AcDbEntity
8
CUTOUTS
100
AcDbLine
10
97.416149597261438
20
14.252500000000005
30
0
11
101.90525691412363
21
14.252500000000001
31
0
0
LINE
5
52C
100
AcDbEntity
8
CUTOUTS
100
AcDbLine
10
101.90525691412363
20
14.252500000000001
30
0
11
104.15009062499992
21
10.365000000000002
31
0
0
LINE
5
52D
100
AcDbEntity
8
CUTOUTS
100
AcDbLine
10
104.15009062499992
20
10.365000000000002
30
0
11
101.90525691412363
21
6.4775000000000009
31
0
0
LINE
5
52E
100
AcDbEntity
8
CUTOUTS
100
AcDbLine
10
101.90525691412363
20
6.4775000000000009
30
0
11
97.416149597261438
21
6.4775000000000009
31
0
0
LINE
5
52F
100
AcDbEntity
8
CUTOUTS
100
AcDbLine
10
97.416149597261438
20
6.4775000000000009
30
0
11
95.171315886391014
21
10.364999999999995
31
0
0
LINE
5
530
100
AcDbEntity
8
CUTOUTS
100
AcDbLine
10
112.41614959725649
20
6.4775000000000009
30
0
11
110.17131588638992
21
10.365
31
0
0
LINE
5
531
100
AcDbEntity
8
CUTOUTS
100
AcDbLine
10
110.17131588638992
20
10.365
30
0
11
112.41614959725649
21
14.252500000000001
31
0
0
LINE
5
532
100
AcDbEntity
8
CUTOUTS
100
AcDbLine
10
112.41614959725649
20
14.252500000000001
30
0
11
116.90525691412363
21
14.252500000000001
31
0
0
LINE
5
533
100
AcDbEntity
8
CUTOUTS
100
AcDbLine
10
116.90525691412363
20
14.252500000000001
30
0
11
119.15009062499992
21
10.365000000000002
31
0
0
LINE
5
534
100
AcDbEntity
8
CUTOUTS
100
AcDbLine
10
119.15009062499992
20
10.365000000000002
30
0
11
116.90525691412363
21
6.4775000000000009
31
0
0
LINE
5
535
100
AcDbEntity
8
CUTOUTS
100
AcDbLine
10
116.90525691412363
20
6.4775000000000009
30
0
11
112.41614959725649
21
6.4775000000000009
31
0
0
LINE
5
536
100
AcDbEntity
8
CUTOUTS
100
AcDbLine
10
127.41614959725649
20
6.4775000000000009
30
0
11
125.17131588638992
21
10.365
31
0
0
LINE
5
537
100
AcDbEntity
8
CUTOUTS
100
AcDbLine
10
125.17131588638992
20
10.365
30
0
11
127.41614959725649
21
14.252500000000001
31
0
0
LINE
5
538
100
AcDbEntity
8
CUTOUTS
100
AcDbLine
10
127.41614959725649
20
14.252500000000001
30
0
11
131.90525691412364
21
14.252500000000001
31
0
0
LINE
5
539
100
AcDbEntity
8
CUTOUTS
100
AcDbLine
10
131.90525691412364
20
14.252500000000001
30
0
11
134.15009062499993
21
10.365000000000002
31
0
0
LINE
5
53A
100
AcDbEntity
8
CUTOUTS
100
AcDbLine
10
134.15009062499993
20
10.365000000000002
30
0
11
131.90525691412364
21
6.4775000000000009
31
0
0
LINE
5
53B
100
AcDbEntity
8
CUTOUTS
100
AcDbLine
10
131.90525691412364
20
6.4775000000000009
30
0
11
127.41614959725649
21
6.4775000000000009
31
0
0
LINE
5
53C
100
AcDbEntity
8
CUTOUTS
100
AcDbLine
10
142.41614959725649
20
6.4775000000000009
30
0
11
140.17131588638992
21
10.365
31
0
0
LINE
5
53D
100
AcDbEntity
8
CUTOUTS
100
AcDbLine
10
140.17131588638992
20
10.365
30
0
11
142.41614959725649
21
14.252500000000001
31
0
0
LINE
5
53E
100
AcDbEntity
8
CUTOUTS
100
AcDbLine
10
142.41614959725649
20
14.252500000000001
30
0
11
146.90525691412364
21
14.252500000000001
31
0
0
LINE
5
53F
100
AcDbEntity
8
CUTOUTS
100
AcDbLine
10
146.90525691412364
20
14.252500000000001
30
0
11
149.15009062499993
21
10.365000000000002
31
0
0
LINE
5
540
100
AcDbEntity
8
CUTOUTS
100
AcDbLine
10
149.15009062499993
20
10.365000000000002
30
0
11
146.90525691412364
21
6.4775000000000009
31
0
0
LINE
5
541
100
AcDbEntity
8
CUTOUTS
100
AcDbLine
10
146.90525691412364
20
6.4775000000000009
30
0
11
142.41614959725649
21
6.4775000000000009
31
0
0
LINE
5
542
100
AcDbEntity
8
CUTOUTS
100
AcDbLine
10
157.32614959725649
20
6.4775000000000009
30
0
11
155.08131588638992
21
10.365
31
0
0
LINE
5
543
100
AcDbEntity
8
CUTOUTS
100
AcDbLine
10
155.08131588638992
20
10.365
30
0
11
157.32614959725649
21
14.252500000000001
31
0
0
LINE
5
544
100
AcDbEntity
8
CUTOUTS
100
AcDbLine
10
157.32614959725649
20
14.252500000000001
30
0
11
161.81525691412364
21
14.252500000000001
31
0
0
LINE
5
545
100
AcDbEntity
8
CUTOUTS
100
AcDbLine
10
161.81525691412364
20
14.252500000000001
30
0
11
164.06009062499993
21
10.365000000000002
31
0
0
LINE
5
546
100
AcDbEntity
8
CUTOUTS
100
AcDbLine
10
164.06009062499993
20
10.365000000000002
30
0
11
161.81525691412364
21
6.4775000000000009
31
0
0
LINE
5
547
100
AcDbEntity
8
CUTOUTS
100
AcDbLine
10
161.81525691412364
20
6.4775000000000009
30
0
11
157.32614959725649
21
6.4775000000000009
31
0
0
CIRCLE
5
548
100
AcDbEntity
8
CUTOUTS
100
AcDbCircle
10
195
20
0
30
0
40
3.8875000000000171
210
0
220
0
230
1
0
LINE
5
549
100
AcDbEntity
8
CUTOUTS
100
AcDbLine
10
176.81525691412364
20
14.252500000000001
30
0
11
179.06009062499993
21
10.365000000000002
31
0
0
LINE
5
54A
100
AcDbEntity
8
CUTOUTS
100
AcDbLine
10
179.06009062499993
20
10.365000000000002
30
0
11
176.81525691412364
21
6.4775000000000009
31
0
0
LINE
5
54B
100
AcDbEntity
8
CUTOUTS
100
AcDbLine
10
176.81525691412364
20
6.4775000000000009
30
0
11
172.32614959725649
21
6.4775000000000009
31
0
0
LINE
5
54C
100
AcDbEntity
8
CUTOUTS
100
AcDbLine
10
172.32614959725649
20
6.4775000000000009
30
0
11
170.08131588638992
21
10.365
31
0
0
LINE
5
54D
100
AcDbEntity
8
CUTOUTS
100
AcDbLine
10
170.08131588638992
20
10.365
30
0
11
172.32614959725649
21
14.252500000000001
31
0
0
LINE
5
54E
100
AcDbEntity
8
CUTOUTS
100
AcDbLine
10
172.32614959725649
20
14.252500000000001
30
0
11
176.81525691412364
21
14.252500000000001
31
0
0
LINE
5
54F
100
AcDbEntity
8
CUTOUTS
100
AcDbLine
10
101.90525691412363
20
21.477499999999999
30
0
11
97.416149597261438
21
21.477499999999999
31
0
0
LINE
5
550
100
AcDbEntity
8
CUTOUTS
100
AcDbLine
10
97.416149597261438
20
21.477499999999999
30
0
11
95.171315886391014
21
25.364999999999998
31
0
0
LINE
5
551
100
AcDbEntity
8
CUTOUTS
100
AcDbLine
10
95.171315886391014
20
25.364999999999998
30
0
11
97.416149597261438
21
29.252499999999998
31
0
0
LINE
5
552
100
AcDbEntity
8
CUTOUTS
100
AcDbLine
10
97.416149597261438
20
29.252499999999998
30
0
11
101.90525691412363
21
29.252500000000001
31
0
0
LINE
5
553
100
AcDbEntity
8
CUTOUTS
100
AcDbLine
10
101.90525691412363
20
29.252500000000001
30
0
11
104.15009062499992
21
25.365000000000002
31
0
0
LINE
5
554
100
AcDbEntity
8
CUTOUTS
100
AcDbLine
10
104.15009062499992
20
25.365000000000002
30
0
11
101.90525691412363
21
21.477499999999999
31
0
0
LINE
5
555
100
AcDbEntity
8
CUTOUTS
100
AcDbLine
10
112.41614959725649
20
21.477499999999999
30
0
11
110.17131588638992
21
25.365000000000002
31
0
0
LINE
5
556
100
AcDbEntity
8
CUTOUTS
100
AcDbLine
10
110.17131588638992
20
25.365000000000002
30
0
11
112.41614959725649
21
29.252500000000001
31
0
0
LINE
5
557
100
AcDbEntity
8
CUTOUTS
100
AcDbLine
10
112.41614959725649
20
29.252500000000001
30
0
11
116.90525691412363
21
29.252500000000001
31
0
0
LINE
5
558
100
AcDbEntity
8
CUTOUTS
100
AcDbLine
10
116.90525691412363
20
29.252500000000001
30
0
11
119.15009062499992
21
25.365000000000002
31
0
0
LINE
5
559
100
AcDbEntity
8
CUTOUTS
100
AcDbLine
10
119.15009062499992
20
25.365000000000002
30
0
11
116.90525691412363
21
21.477499999999999
31
0
0
LINE
5
55A
100
AcDbEntity
8
CUTOUTS
100
AcDbLine
10
116.90525691412363
20
21.477499999999999
30
0
11
112.41614959725649
21
21.477499999999999
31
0
0
LINE
5
55B
100
AcDbEntity
8
CUTOUTS
100
AcDbLine
10
125.17131588638992
20
25.365000000000002
30
0
11
127.41614959725649
21
29.252500000000001
31
0
0
LINE
5
55C
100
AcDbEntity
8
CUTOUTS
100
AcDbLine
10
127.41614959725649
20
29.252500000000001
30
0
11
131.90525691412364
21
29.252500000000001
31
0
0
LINE
5
55D
100
AcDbEntity
8
CUTOUTS
100
AcDbLine
10
131.90525691412364
20
29.252500000000001
30
0
11
134.15009062499993
21
25.365000000000002
31
0
0
LINE
5
55E
100
AcDbEntity
8
CUTOUTS
100
AcDbLine
10
134.15009062499993
20
25.365000000000002
30
0
11
131.90525691412364
21
21.477499999999999
31
0
0
LINE
5
55F
100
AcDbEntity
8
CUTOUTS
100
AcDbLine
10
131.90525691412364
20
21.477499999999999
30
0
11
127.41614959725649
21
21.477499999999999
31
0
0
LINE
5
560
100
AcDbEntity
8
CUTOUTS
100
AcDbLine
10
127.41614959725649
20
21.477499999999999
30
0
11
125.17131588638992
21
25.365000000000002
31
0
0
LINE
5
561
100
AcDbEntity
8
CUTOUTS
100
AcDbLine
10
142.41614959725649
20
29.252500000000001
30
0
11
146.90525691412364
21
29.252500000000001
31
0
0
LINE
5
562
100
AcDbEntity
8
CUTOUTS
100
AcDbLine
10
146.90525691412364
20
29.252500000000001
30
0
11
149.15009062499993
21
25.365000000000002
31
0
0
LINE
5
563
100
AcDbEntity
8
CUTOUTS
100
AcDbLine
10
149.15009062499993
20
25.365000000000002
30
0
11
146.90525691412364
21
21.477499999999999
31
0
0
LINE
5
564
100
AcDbEntity
8
CUTOUTS
100
AcDbLine
10
146.90525691412364
20
21.477499999999999
30
0
11
142.41614959725649
21
21.477499999999999
31
0
0
LINE
5
565
100
AcDbEntity
8
CUTOUTS
100
AcDbLine
10
142.41614959725649
20
21.477499999999999
30
0
11
140.17131588638992
21
25.365000000000002
31
0
0
LINE
5
566
100
AcDbEntity
8
CUTOUTS
100
AcDbLine
10
140.17131588638992
20
25.365000000000002
30
0
11
142.41614959725649
21
29.252500000000001
31
0
0
LINE
5
567
100
AcDbEntity
8
CUTOUTS
100
AcDbLine
10
97.416149597261438
20
36.477500000000006
30
0
11
95.171315886391014
21
40.365000000000002
31
0
0
LINE
5
568
100
AcDbEntity
8
CUTOUTS
100
AcDbLine
10
95.171315886391014
20
40.365000000000002
30
0
11
97.416149597261438
21
44.252500000000012
31
0
0
LINE
5
569
100
AcDbEntity
8
CUTOUTS
100
AcDbLine
10
97.416149597261438
20
44.252500000000012
30
0
11
101.90525691412363
21
44.252499999999998
31
0
0
LINE
5
56A
100
AcDbEntity
8
CUTOUTS
100
AcDbLine
10
101.90525691412363
20
44.252499999999998
30
0
11
104.15009062499992
21
40.365000000000002
31
0
0
LINE
5
56B
100
AcDbEntity
8
CUTOUTS
100
AcDbLine
10
104.15009062499992
20
40.365000000000002
30
0
11
101.90525691412363
21
36.477500000000006
31
0
0
LINE
5
56C
100
AcDbEntity
8
CUTOUTS
100
AcDbLine
10
101.90525691412363
20
36.477500000000006
30
0
11
97.416149597261438
21
36.477500000000006
31
0
0
LINE
5
56D
100
AcDbEntity
8
CUTOUTS
100
AcDbLine
10
112.41614959725651
20
36.477500000000006
30
0
11
110.17131588638995
21
40.365000000000002
31
0
0
LINE
5
56E
100
AcDbEntity
8
CUTOUTS
100
AcDbLine
10
110.17131588638995
20
40.365000000000002
30
0
11
112.41614959725651
21
44.252499999999998
31
0
0
LINE
5
56F
100
AcDbEntity
8
CUTOUTS
100
AcDbLine
10
112.41614959725651
20
44.252499999999998
30
0
11
116.90525691412363
21
44.252499999999998
31
0
0
LINE
5
570
100
AcDbEntity
8
CUTOUTS
100
AcDbLine
10
116.90525691412363
20
44.252499999999998
30
0
11
119.15009062499992
21
40.365000000000002
31
0
0
LINE
5
571
100
AcDbEntity
8
CUTOUTS
100
AcDbLine
10
119.15009062499992
20
40.365000000000002
30
0
11
116.90525691412363
21
36.477500000000006
31
0
0
LINE
5
572
100
AcDbEntity
8
CUTOUTS
100
AcDbLine
10
116.90525691412363
20
36.477500000000006
30
0
11
112.41614959725651
21
36.477500000000006
31
0
0
LINE
5
573
100
AcDbEntity
8
CUTOUTS
100
AcDbLine
10
127.41614959725651
20
36.477500000000006
30
0
11
125.17131588638995
21
40.365000000000002
31
0
0
LINE
5
574
100
AcDbEntity
8
CUTOUTS
100
AcDbLine
10
125.17131588638995
20
40.365000000000002
30
0
11
127.41614959725651
21
44.252499999999998
31
0
0
LINE
5
575
100
AcDbEntity
8
CUTOUTS
100
AcDbLine
10
127.41614959725651
20
44.252499999999998
30
0
11
131.90525691412364
21
44.252499999999998
31
0
0
LINE
5
576
100
AcDbEntity
8
CUTOUTS
100
AcDbLine
10
131.90525691412364
20
44.252499999999998
30
0
11
134.15009062499993
21
40.365000000000002
31
0
0
LINE
5
577
100
AcDbEntity
8
CUTOUTS
100
AcDbLine
10
134.15009062499993
20
40.365000000000002
30
0
11
131.90525691412364
21
36.477500000000006
31
0
0
LINE
5
578
100
AcDbEntity
8
CUTOUTS
100
AcDbLine
10
131.90525691412364
20
36.477500000000006
30
0
11
127.41614959725651
21
36.477500000000006
31
0
0
LINE
5
579
100
AcDbEntity
8
CUTOUTS
100
AcDbLine
10
146.90525691412364
20
44.252499999999998
30
0
11
149.15009062499993
21
40.365000000000002
31
0
0
LINE
5
57A
100
AcDbEntity
8
CUTOUTS
100
AcDbLine
10
149.15009062499993
20
40.365000000000002
30
0
11
146.90525691412364
21
36.477500000000006
31
0
0
LINE
5
57B
100
AcDbEntity
8
CUTOUTS
100
AcDbLine
10
146.90525691412364
20
36.477500000000006
30
0
11
142.41614959725649
21
36.477500000000006
31
0
0
LINE
5
57C
100
AcDbEntity
8
CUTOUTS
100
AcDbLine
10
142.41614959725649
20
36.477500000000006
30
0
11
140.17131588638995
21
40.365000000000002
31
0
0
LINE
5
57D
100
AcDbEntity
8
CUTOUTS
100
AcDbLine
10
140.17131588638995
20
40.365000000000002
30
0
11
142.41614959725649
21
44.252499999999998
31
0
0
LINE
5
57E
100
AcDbEntity
8
CUTOUTS
100
AcDbLine
10
142.41614959725649
20
44.252499999999998
30
0
11
146.90525691412364
21
44.252499999999998
31
0
0
LINE
5
57F
100
AcDbEntity
8
CUTOUTS
100
AcDbLine
10
157.32614959725649
20
21.477499999999999
30
0
11
155.08131588638992
21
25.365000000000002
31
0
0
LINE
5
580
100
AcDbEntity
8
CUTOUTS
100
AcDbLine
10
155.08131588638992
20
25.365000000000002
30
0
11
157.32614959725649
21
29.252500000000001
31
0
0
LINE
5
581
100
AcDbEntity
8
CUTOUTS
100
AcDbLine
10
157.32614959725649
20
29.252500000000001
30
0
11
161.81525691412364
21
29.252500000000001
31
0
0
LINE
5
582
100
AcDbEntity
8
CUTOUTS
100
AcDbLine
10
161.81525691412364
20
29.252500000000001
30
0
11
164.06009062499993
21
25.365000000000002
31
0
0
LINE
5
583
100
AcDbEntity
8
CUTOUTS
100
AcDbLine
10
164.06009062499993
20
25.365000000000002
30
0
11
161.81525691412364
21
21.477499999999999
31
0
0
LINE
5
584
100
AcDbEntity
8
CUTOUTS
100
AcDbLine
10
161.81525691412364
20
21.477499999999999
30
0
11
157.32614959725649
21
21.477499999999999
31
0
0
LINE
5
585
100
AcDbEntity
8
CUTOUTS
100
AcDbLine
10
176.81525691412364
20
29.252500000000001
30
0
11
179.06009062499993
21
25.365000000000002
31
0
0
LINE
5
586
100
AcDbEntity
8
CUTOUTS
100
AcDbLine
10
179.06009062499993
20
25.365000000000002
30
0
11
176.81525691412364
21
21.477499999999999
31
0
0
LINE
5
587
100
AcDbEntity
8
CUTOUTS
100
AcDbLine
10
176.81525691412364
20
21.477499999999999
30
0
11
172.32614959725649
21
21.477499999999999
31
0
0
LINE
5
588
100
AcDbEntity
8
CUTOUTS
100
AcDbLine
10
172.32614959725649
20
21.477499999999999
30
0
11
170.08131588638992
21
25.365000000000002
31
0
0
LINE
5
589
100
AcDbEntity
8
CUTOUTS
100
AcDbLine
10
170.08131588638992
20
25.365000000000002
30
0
11
172.32614959725649
21
29.252500000000001
31
0
0
LINE
5
58A
100
AcDbEntity
8
CUTOUTS
100
AcDbLine
10
172.32614959725649
20
29.252500000000001
30
0
11
176.81525691412364
21
29.252500000000001
31
0
0
LINE
5
58B
100
AcDbEntity
8
CUTOUTS
100
AcDbLine
10
59.150090625000004
20
55.365000000000002
30
0
11
56.905256914128579
21
51.477500000000013
31
0
0
LINE
5
58C
100
AcDbEntity
8
CUTOUTS
100
AcDbLine
10
56.905256914128579
20
51.477500000000013
30
0
11
52.416149597261452
21
51.477500000000013
31
0
0
LINE
5
58D
100
AcDbEntity
8
CUTOUTS
100
AcDbLine
10
52.416149597261452
20
51.477500000000013
30
0
11
50.171315886391
21
55.365000000000002
31
0
0
LINE
5
58E
100
AcDbEntity
8
CUTOUTS
100
AcDbLine
10
50.171315886391
20
55.365000000000002
30
0
11
52.416149597261452
21
59.252499999999998
31
0
0
LINE
5
58F
100
AcDbEntity
8
CUTOUTS
100
AcDbLine
10
52.416149597261452
20
59.252499999999998
30
0
11
56.905256914128579
21
59.252499999999998
31
0
0
LINE
5
590
100
AcDbEntity
8
CUTOUTS
100
AcDbLine
10
56.905256914128579
20
59.252499999999998
30
0
11
59.150090625000004
21
55.365000000000002
31
0
0
LINE
5
591
100
AcDbEntity
8
CUTOUTS
100
AcDbLine
10
67.416149597261452
20
51.477500000000013
30
0
11
65.171315886391
21
55.365000000000002
31
0
0
LINE
5
592
100
AcDbEntity
8
CUTOUTS
100
AcDbLine
10
65.171315886391
20
55.365000000000002
30
0
11
67.416149597261452
21
59.252499999999998
31
0
0
LINE
5
593
100
AcDbEntity
8
CUTOUTS
100
AcDbLine
10
67.416149597261452
20
59.252499999999998
30
0
11
71.905256914128572
21
59.252499999999998
31
0
0
LINE
5
594
100
AcDbEntity
8
CUTOUTS
100
AcDbLine
10
71.905256914128572
20
59.252499999999998
30
0
11
74.150090625000004
21
55.365000000000002
31
0
0
LINE
5
595
100
AcDbEntity
8
CUTOUTS
100
AcDbLine
10
74.150090625000004
20
55.365000000000002
30
0
11
71.905256914128572
21
51.477500000000013
31
0
0
LINE
5
596
100
AcDbEntity
8
CUTOUTS
100
AcDbLine
10
71.905256914128572
20
51.477500000000013
30
0
11
67.416149597261452
21
51.477500000000013
31
0
0
LINE
5
597
100
AcDbEntity
8
CUTOUTS
100
AcDbLine
10
82.416149597261438
20
51.477500000000013
30
0
11
80.171315886391014
21
55.365000000000002
31
0
0
LINE
5
598
100
AcDbEntity
8
CUTOUTS
100
AcDbLine
10
80.171315886391014
20
55.365000000000002
30
0
11
82.416149597261438
21
59.252500000000012
31
0
0
LINE
5
599
100
AcDbEntity
8
CUTOUTS
100
AcDbLine
10
82.416149597261438
20
59.252500000000012
30
0
11
86.905256914128572
21
59.252499999999998
31
0
0
LINE
5
59A
100
AcDbEntity
8
CUTOUTS
100
AcDbLine
10
86.905256914128572
20
59.252499999999998
30
0
11
89.15009062499999
21
55.365000000000002
31
0
0
LINE
5
59B
100
AcDbEntity
8
CUTOUTS
100
AcDbLine
10
89.15009062499999
20
55.365000000000002
30
0
11
86.905256914128572
21
51.477500000000013
31
0
0
LINE
5
59C
100
AcDbEntity
8
CUTOUTS
100
AcDbLine
10
86.905256914128572
20
51.477500000000013
30
0
11
82.416149597261438
21
51.477500000000013
31
0
0
LINE
5
59D
100
AcDbEntity
8
CUTOUTS
100
AcDbLine
10
52.416149597261459
20
66.477500000000006
30
0
11
50.171315886391014
21
70.365000000000009
31
0
0
LINE
5
59E
100
AcDbEntity
8
CUTOUTS
100
AcDbLine
10
50.171315886391014
20
70.365000000000009
30
0
11
52.416149597261459
21
74.252499999999998
31
0
0
LINE
5
59F
100
AcDbEntity
8
CUTOUTS
100
AcDbLine
10
52.416149597261459
20
74.252499999999998
30
0
11
56.905256914128579
21
74.252499999999998
31
0
0
LINE
5
5A0
100
AcDbEntity
8
CUTOUTS
100
AcDbLine
10
56.905256914128579
20
74.252499999999998
30
0
11
59.150090625000004
21
70.365000000000009
31
0
0
LINE
5
5A1
100
AcDbEntity
8
CUTOUTS
100
AcDbLine
10
59.150090625000004
20
70.365000000000009
30
0
11
56.905256914128579
21
66.477500000000006
31
0
0
LINE
5
5A2
100
AcDbEntity
8
CUTOUTS
100
AcDbLine
10
56.905256914128579
20
66.477500000000006
30
0
11
52.416149597261459
21
66.477500000000006
31
0
0
LINE
5
5A3
100
AcDbEntity
8
CUTOUTS
100
AcDbLine
10
67.416149597261466
20
74.252499999999998
30
0
11
71.905256914128572
21
74.252499999999998
31
0
0
LINE
5
5A4
100
AcDbEntity
8
CUTOUTS
100
AcDbLine
10
71.905256914128572
20
74.252499999999998
30
0
11
74.150090625000004
21
70.365000000000009
31
0
0
LINE
5
5A5
100
AcDbEntity
8
CUTOUTS
100
AcDbLine
10
74.150090625000004
20
70.365000000000009
30
0
11
71.905256914128572
21
66.477500000000006
31
0
0
LINE
5
5A6
100
AcDbEntity
8
CUTOUTS
100
AcDbLine
10
71.905256914128572
20
66.477500000000006
30
0
11
67.416149597261466
21
66.477500000000006
31
0
0
LINE
5
5A7
100
AcDbEntity
8
CUTOUTS
100
AcDbLine
10
67.416149597261466
20
66.477500000000006
30
0
11
65.171315886391014
21
70.365000000000009
31
0
0
LINE
5
5A8
100
AcDbEntity
8
CUTOUTS
100
AcDbLine
10
65.171315886391014
20
70.365000000000009
30
0
11
67.416149597261466
21
74.252499999999998
31
0
0
LINE
5
5A9
100
AcDbEntity
8
CUTOUTS
100
AcDbLine
10
86.905256914128572
20
74.252499999999998
30
0
11
89.15009062499999
21
70.365000000000009
31
0
0
LINE
5
5AA
100
AcDbEntity
8
CUTOUTS
100
AcDbLine
10
89.15009062499999
20
70.365000000000009
30
0
11
86.905256914128572
21
66.477500000000006
31
0
0
LINE
5
5AB
100
AcDbEntity
8
CUTOUTS
100
AcDbLine
10
86.905256914128572
20
66.477500000000006
30
0
11
82.416149597261438
21
66.477500000000006
31
0
0
LINE
5
5AC
100
AcDbEntity
8
CUTOUTS
100
AcDbLine
10
82.416149597261438
20
66.477500000000006
30
0
11
80.171315886391014
21
70.365000000000009
31
0
0
LINE
5
5AD
100
AcDbEntity
8
CUTOUTS
100
AcDbLine
10
80.171315886391014
20
70.365000000000009
30
0
11
82.416149597261438
21
74.252499999999998
31
0
0
LINE
5
5AE
100
AcDbEntity
8
CUTOUTS
100
AcDbLine
10
82.416149597261438
20
74.252499999999998
30
0
11
86.905256914128572
21
74.252499999999998
31
0
0
LINE
5
5AF
100
AcDbEntity
8
CUTOUTS
100
AcDbLine
10
52.416149597261459
20
81.477500000000006
30
0
11
50.171315886391014
21
85.365000000000009
31
0
0
LINE
5
5B0
100
AcDbEntity
8
CUTOUTS
100
AcDbLine
10
50.171315886391014
20
85.365000000000009
30
0
11
52.416149597261459
21
89.252499999999998
31
0
0
LINE
5
5B1
100
AcDbEntity
8
CUTOUTS
100
AcDbLine
10
52.416149597261459
20
89.252499999999998
30
0
11
56.905256914128579
21
89.252499999999998
31
0
0
LINE
5
5B2
100
AcDbEntity
8
CUTOUTS
100
AcDbLine
10
56.905256914128579
20
89.252499999999998
30
0
11
59.150090625000004
21
85.365000000000009
31
0
0
LINE
5
5B3
100
AcDbEntity
8
CUTOUTS
100
AcDbLine
10
59.150090625000004
20
85.365000000000009
30
0
11
56.905256914128579
21
81.477500000000006
31
0
0
LINE
5
5B4
100
AcDbEntity
8
CUTOUTS
100
AcDbLine
10
56.905256914128579
20
81.477500000000006
30
0
11
52.416149597261459
21
81.477500000000006
31
0
0
LINE
5
5B5
100
AcDbEntity
8
CUTOUTS
100
AcDbLine
10
67.416149597261466
20
81.477500000000006
30
0
11
65.171315886391014
21
85.365000000000009
31
0
0
LINE
5
5B6
100
AcDbEntity
8
CUTOUTS
100
AcDbLine
10
65.171315886391014
20
85.365000000000009
30
0
11
67.416149597261466
21
89.252499999999998
31
0
0
LINE
5
5B7
100
AcDbEntity
8
CUTOUTS
100
AcDbLine
10
67.416149597261466
20
89.252499999999998
30
0
11
71.905256914128572
21
89.252499999999998
31
0
0
LINE
5
5B8
100
AcDbEntity
8
CUTOUTS
100
AcDbLine
10
71.905256914128572
20
89.252499999999998
30
0
11
74.150090625000004
21
85.365000000000009
31
0
0
LINE
5
5B9
100
AcDbEntity
8
CUTOUTS
100
AcDbLine
10
74.150090625000004
20
85.365000000000009
30
0
11
71.905256914128572
21
81.477500000000006
31
0
0
LINE
5
5BA
100
AcDbEntity
8
CUTOUTS
100
AcDbLine
10
71.905256914128572
20
81.477500000000006
30
0
11
67.416149597261466
21
81.477500000000006
31
0
0
LINE
5
5BB
100
AcDbEntity
8
CUTOUTS
100
AcDbLine
10
86.905256914128572
20
89.252499999999998
30
0
11
89.15009062499999
21
85.365000000000009
31
0
0
LINE
5
5BC
100
AcDbEntity
8
CUTOUTS
100
AcDbLine
10
89.15009062499999
20
85.365000000000009
30
0
11
86.905256914128572
21
81.477500000000006
31
0
0
LINE
5
5BD
100
AcDbEntity
8
CUTOUTS
100
AcDbLine
10
86.905256914128572
20
81.477500000000006
30
0
11
82.416149597261438
21
81.477500000000006
31
0
0
LINE
5
5BE
100
AcDbEntity
8
CUTOUTS
100
AcDbLine
10
82.416149597261438
20
81.477500000000006
30
0
11
80.171315886391014
21
85.365000000000009
31
0
0
LINE
5
5BF
100
AcDbEntity
8
CUTOUTS
100
AcDbLine
10
80.171315886391014
20
85.365000000000009
30
0
11
82.416149597261438
21
89.252499999999998
31
0
0
LINE
5
5C0
100
AcDbEntity
8
CUTOUTS
100
AcDbLine
10
82.416149597261438
20
89.252499999999998
30
0
11
86.905256914128572
21
89.252499999999998
31
0
0
LINE
5
5C1
100
AcDbEntity
8
CUTOUTS
100
AcDbLine
10
97.416149597261438
20
51.477500000000013
30
0
11
95.171315886391014
21
55.365000000000002
31
0
0
LINE
5
5C2
100
AcDbEntity
8
CUTOUTS
100
AcDbLine
10
95.171315886391014
20
55.365000000000002
30
0
11
97.416149597261438
21
59.252500000000012
31
0
0
LINE
5
5C3
100
AcDbEntity
8
CUTOUTS
100
AcDbLine
10
97.416149597261438
20
59.252500000000012
30
0
11
101.90525691412363
21
59.252499999999998
31
0
0
LINE
5
5C4
100
AcDbEntity
8
CUTOUTS
100
AcDbLine
10
101.90525691412363
20
59.252499999999998
30
0
11
104.15009062499992
21
55.365000000000002
31
0
0
LINE
5
5C5
100
AcDbEntity
8
CUTOUTS
100
AcDbLine
10
104.15009062499992
20
55.365000000000002
30
0
11
101.90525691412363
21
51.477500000000013
31
0
0
LINE
5
5C6
100
AcDbEntity
8
CUTOUTS
100
AcDbLine
10
101.90525691412363
20
51.477500000000013
30
0
11
97.416149597261438
21
51.477500000000013
31
0
0
LINE
5
5C7
100
AcDbEntity
8
CUTOUTS
100
AcDbLine
10
112.41614959725651
20
59.252499999999998
30
0
11
116.90525691412363
21
59.252499999999998
31
0
0
LINE
5
5C8
100
AcDbEntity
8
CUTOUTS
100
AcDbLine
10
116.90525691412363
20
59.252499999999998
30
0
11
119.15009062499992
21
55.365000000000002
31
0
0
LINE
5
5C9
100
AcDbEntity
8
CUTOUTS
100
AcDbLine
10
119.15009062499992
20
55.365000000000002
30
0
11
116.90525691412363
21
51.477500000000013
31
0
0
LINE
5
5CA
100
AcDbEntity
8
CUTOUTS
100
AcDbLine
10
116.90525691412363
20
51.477500000000013
30
0
11
112.41614959725651
21
51.477500000000013
31
0
0
LINE
5
5CB
100
AcDbEntity
8
CUTOUTS
100
AcDbLine
10
112.41614959725651
20
51.477500000000013
30
0
11
110.17131588638995
21
55.365000000000002
31
0
0
LINE
5
5CC
100
AcDbEntity
8
CUTOUTS
100
AcDbLine
10
110.17131588638995
20
55.365000000000002
30
0
11
112.41614959725651
21
59.252499999999998
31
0
0
LINE
5
5CD
100
AcDbEntity
8
CUTOUTS
100
AcDbLine
10
134.15009062499993
20
55.365000000000002
30
0
11
131.90525691412364
21
51.477500000000013
31
0
0
LINE
5
5CE
100
AcDbEntity
8
CUTOUTS
100
AcDbLine
10
131.90525691412364
20
51.477500000000013
30
0
11
127.41614959725651
21
51.477500000000013
31
0
0
LINE
5
5CF
100
AcDbEntity
8
CUTOUTS
100
AcDbLine
10
127.41614959725651
20
51.477500000000013
30
0
11
125.17131588638995
21
55.365000000000002
31
0
0
LINE
5
5D0
100
AcDbEntity
8
CUTOUTS
100
AcDbLine
10
125.17131588638995
20
55.365000000000002
30
0
11
127.41614959725651
21
59.252499999999998
31
0
0
LINE
5
5D1
100
AcDbEntity
8
CUTOUTS
100
AcDbLine
10
127.41614959725651
20
59.252499999999998
30
0
11
131.90525691412364
21
59.252499999999998
31
0
0
LINE
5
5D2
100
AcDbEntity
8
CUTOUTS
100
AcDbLine
10
131.90525691412364
20
59.252499999999998
30
0
11
134.15009062499993
21
55.365000000000002
31
0
0
LINE
5
5D3
100
AcDbEntity
8
CUTOUTS
100
AcDbLine
10
142.41614959725649
20
51.477500000000013
30
0
11
140.17131588638995
21
55.365000000000002
31
0
0
LINE
5
5D4
100
AcDbEntity
8
CUTOUTS
100
AcDbLine
10
140.17131588638995
20
55.365000000000002
30
0
11
142.41614959725649
21
59.252499999999998
31
0
0
LINE
5
5D5
100
AcDbEntity
8
CUTOUTS
100
AcDbLine
10
142.41614959725649
20
59.252499999999998
30
0
11
146.90525691412364
21
59.252499999999998
31
0
0
LINE
5
5D6
100
AcDbEntity
8
CUTOUTS
100
AcDbLine
10
146.90525691412364
20
59.252499999999998
30
0
11
149.15009062499993
21
55.365000000000002
31
0
0
LINE
5
5D7
100
AcDbEntity
8
CUTOUTS
100
AcDbLine
10
149.15009062499993
20
55.365000000000002
30
0
11
146.90525691412364
21
51.477500000000013
31
0
0
LINE
5
5D8
100
AcDbEntity
8
CUTOUTS
100
AcDbLine
10
146.90525691412364
20
51.477500000000013
30
0
11
142.41614959725649
21
51.477500000000013
31
0
0
LINE
5
5D9
100
AcDbEntity
8
CUTOUTS
100
AcDbLine
10
97.416149597261438
20
66.477500000000006
30
0
11
95.171315886391014
21
70.365000000000009
31
0
0
LINE
5
5DA
100
AcDbEntity
8
CUTOUTS
100
AcDbLine
10
95.171315886391014
20
70.365000000000009
30
0
11
97.416149597261438
21
74.252499999999998
31
0
0
LINE
5
5DB
100
AcDbEntity
8
CUTOUTS
100
AcDbLine
10
97.416149597261438
20
74.252499999999998
30
0
11
101.90525691412363
21
74.252499999999998
31
0
0
LINE
5
5DC
100
AcDbEntity
8
CUTOUTS
100
AcDbLine
10
101.90525691412363
20
74.252499999999998
30
0
11
104.15009062499992
21
70.365000000000009
31
0
0
LINE
5
5DD
100
AcDbEntity
8
CUTOUTS
100
AcDbLine
10
104.15009062499992
20
70.365000000000009
30
0
11
101.90525691412363
21
66.477500000000006
31
0
0
LINE
5
5DE
100
AcDbEntity
8
CUTOUTS
100
AcDbLine
10
101.90525691412363
20
66.477500000000006
30
0
11
97.416149597261438
21
66.477500000000006
31
0
0
LINE
5
5DF
100
AcDbEntity
8
CUTOUTS
100
AcDbLine
10
112.41614959725651
20
66.477500000000006
30
0
11
110.17131588638995
21
70.365000000000009
31
0
0
LINE
5
5E0
100
AcDbEntity
8
CUTOUTS
100
AcDbLine
10
110.17131588638995
20
70.365000000000009
30
0
11
112.41614959725651
21
74.252499999999998
31
0
0
LINE
5
5E1
100
AcDbEntity
8
CUTOUTS
100
AcDbLine
10
112.41614959725651
20
74.252499999999998
30
0
11
116.90525691412363
21
74.252499999999998
31
0
0
LINE
5
5E2
100
AcDbEntity
8
CUTOUTS
100
AcDbLine
10
116.90525691412363
20
74.252499999999998
30
0
11
119.15009062499992
21
70.365000000000009
31
0
0
LINE
5
5E3
100
AcDbEntity
8
CUTOUTS
100
AcDbLine
10
119.15009062499992
20
70.365000000000009
30
0
11
116.90525691412363
21
66.477500000000006
31
0
0
LINE
5
5E4
100
AcDbEntity
8
CUTOUTS
100
AcDbLine
10
116.90525691412363
20
66.477500000000006
30
0
11
112.41614959725651
21
66.477500000000006
31
0
0
LINE
5
5E5
100
AcDbEntity
8
CUTOUTS
100
AcDbLine
10
131.90525691412364
20
74.252499999999998
30
0
11
134.15009062499993
21
70.365000000000009
31
0
0
LINE
5
5E6
100
AcDbEntity
8
CUTOUTS
100
AcDbLine
10
134.15009062499993
20
70.365000000000009
30
0
11
131.90525691412364
21
66.477500000000006
31
0
0
LINE
5
5E7
100
AcDbEntity
8
CUTOUTS
100
AcDbLine
10
131.90525691412364
20
66.477500000000006
30
0
11
127.41614959725651
21
66.477500000000006
31
0
0
LINE
5
5E8
100
AcDbEntity
8
CUTOUTS
100
AcDbLine
10
127.41614959725651
20
66.477500000000006
30
0
11
125.17131588638995
21
70.365000000000009
31
0
0
LINE
5
5E9
100
AcDbEntity
8
CUTOUTS
100
AcDbLine
10
125.17131588638995
20
70.365000000000009
30
0
11
127.41614959725651
21
74.252499999999998
31
0
0
LINE
5
5EA
100
AcDbEntity
8
CUTOUTS
100
AcDbLine
10
127.41614959725651
20
74.252499999999998
30
0
11
131.90525691412364
21
74.252499999999998
31
0
0
LINE
5
5EB
100
AcDbEntity
8
CUTOUTS
100
AcDbLine
10
146.90525691412364
20
74.252499999999998
30
0
11
149.15009062499993
21
70.365000000000009
31
0
0
LINE
5
5EC
100
AcDbEntity
8
CUTOUTS
100
AcDbLine
10
149.15009062499993
20
70.365000000000009
30
0
11
146.90525691412364
21
66.477500000000006
31
0
0
LINE
5
5ED
100
AcDbEntity
8
CUTOUTS
100
AcDbLine
10
146.90525691412364
20
66.477500000000006
30
0
11
142.41614959725649
21
66.477500000000006
31
0
0
LINE
5
5EE
100
AcDbEntity
8
CUTOUTS
100
AcDbLine
10
142.41614959725649
20
66.477500000000006
30
0
11
140.17131588638995
21
70.365000000000009
31
0
0
LINE
5
5EF
100
AcDbEntity
8
CUTOUTS
100
AcDbLine
10
140.17131588638995
20
70.365000000000009
30
0
11
142.41614959725649
21
74.252499999999998
31
0
0
LINE
5
5F0
100
AcDbEntity
8
CUTOUTS
100
AcDbLine
10
142.41614959725649
20
74.252499999999998
30
0
11
146.90525691412364
21
74.252499999999998
31
0
0
CIRCLE
5
5F1
100
AcDbEntity
8
CUTOUTS
100
AcDbCircle
10
161.26389936218001
20
50.420710678119001
30
0
40
1.4874999999999972
210
0
220
0
230
1
0
CIRCLE
5
5F2
100
AcDbEntity
8
CUTOUTS
100
AcDbCircle
10
192.26389936218001
20
50.420710678119001
30
0
40
1.4874999999999972
210
0
220
0
230
1
0
CIRCLE
5
5F3
100
AcDbEntity
8
CUTOUTS
100
AcDbCircle
10
176.76389936218001
20
65.920710678118994
30
0
40
10.88750000000001
210
0
220
0
230
1
0
LINE
5
5F4
100
AcDbEntity
8
CUTOUTS
100
AcDbLine
10
95.171315886391014
20
85.365000000000009
30
0
11
97.416149597261438
21
89.252499999999998
31
0
0
LINE
5
5F5
100
AcDbEntity
8
CUTOUTS
100
AcDbLine
10
97.416149597261438
20
89.252499999999998
30
0
11
101.90525691412363
21
89.252499999999998
31
0
0
LINE
5
5F6
100
AcDbEntity
8
CUTOUTS
100
AcDbLine
10
101.90525691412363
20
89.252499999999998
30
0
11
104.15009062499992
21
85.365000000000009
31
0
0
LINE
5
5F7
100
AcDbEntity
8
CUTOUTS
100
AcDbLine
10
104.15009062499992
20
85.365000000000009
30
0
11
101.90525691412363
21
81.477500000000006
31
0
0
LINE
5
5F8
100
AcDbEntity
8
CUTOUTS
100
AcDbLine
10
101.90525691412363
20
81.477500000000006
30
0
11
97.416149597261438
21
81.477500000000006
31
0
0
LINE
5
5F9
100
AcDbEntity
8
CUTOUTS
100
AcDbLine
10
97.416149597261438
20
81.477500000000006
30
0
11
95.171315886391014
21
85.365000000000009
31
0
0
LINE
5
5FA
100
AcDbEntity
8
CUTOUTS
100
AcDbLine
10
116.90525691412363
20
89.252499999999998
30
0
11
119.15009062499992
21
85.365000000000009
31
0
0
LINE
5
5FB
100
AcDbEntity
8
CUTOUTS
100
AcDbLine
10
119.15009062499992
20
85.365000000000009
30
0
11
116.90525691412363
21
81.477500000000006
31
0
0
LINE
5
5FC
100
AcDbEntity
8
CUTOUTS
100
AcDbLine
10
116.90525691412363
20
81.477500000000006
30
0
11
112.41614959725651
21
81.477500000000006
31
0
0
LINE
5
5FD
100
AcDbEntity
8
CUTOUTS
100
AcDbLine
10
112.41614959725651
20
81.477500000000006
30
0
11
110.17131588638995
21
85.365000000000009
31
0
0
LINE
5
5FE
100
AcDbEntity
8
CUTOUTS
100
AcDbLine
10
110.17131588638995
20
85.365000000000009
30
0
11
112.41614959725651
21
89.252499999999998
31
0
0
LINE
5
5FF
100
AcDbEntity
8
CUTOUTS
100
AcDbLine
10
112.41614959725651
20
89.252499999999998
30
0
11
116.90525691412363
21
89.252499999999998
31
0
0
LINE
5
600
100
AcDbEntity
8
CUTOUTS
100
AcDbLine
10
134.15009062499993
20
85.365000000000009
30
0
11
131.90525691412364
21
81.477500000000006
31
0
0
LINE
5
601
100
AcDbEntity
8
CUTOUTS
100
AcDbLine
10
131.90525691412364
20
81.477500000000006
30
0
11
127.41614959725651
21
81.477500000000006
31
0
0
LINE
5
602
100
AcDbEntity
8
CUTOUTS
100
AcDbLine
10
127.41614959725651
20
81.477500000000006
30
0
11
125.17131588638995
21
85.365000000000009
31
0
0
LINE
5
603
100
AcDbEntity
8
CUTOUTS
100
AcDbLine
10
125.17131588638995
20
85.365000000000009
30
0
11
127.41614959725651
21
89.252499999999998
31
0
0
LINE
5
604
100
AcDbEntity
8
CUTOUTS
100
AcDbLine
10
127.41614959725651
20
89.252499999999998
30
0
11
131.90525691412364
21
89.252499999999998
31
0
0
LINE
5
605
100
AcDbEntity
8
CUTOUTS
100
AcDbLine
10
131.90525691412364
20
89.252499999999998
30
0
11
134.15009062499993
21
85.365000000000009
31
0
0
LINE
5
606
100
AcDbEntity
8
CUTOUTS
100
AcDbLine
10
142.41614959725649
20
81.477500000000006
30
0
11
140.17131588638995
21
85.365000000000009
31
0
0
LINE
5
607
100
AcDbEntity
8
CUTOUTS
100
AcDbLine
10
140.17131588638995
20
85.365000000000009
30
0
11
142.41614959725649
21
89.252499999999998
31
0
0
LINE
5
608
100
AcDbEntity
8
CUTOUTS
100
AcDbLine
10
142.41614959725649
20
89.252499999999998
30
0
11
146.90525691412364
21
89.252499999999998
31
0
0
LINE
5
609
100
AcDbEntity
8
CUTOUTS
100
AcDbLine
10
146.90525691412364
20
89.252499999999998
30
0
11
149.15009062499993
21
85.365000000000009
31
0
0
LINE
5
60A
100
AcDbEntity
8
CUTOUTS
100
AcDbLine
10
149.15009062499993
20
85.365000000000009
30
0
11
146.90525691412364
21
81.477500000000006
31
0
0
LINE
5
60B
100
AcDbEntity
8
CUTOUTS
100
AcDbLine
10
146.90525691412364
20
81.477500000000006
30
0
11
142.41614959725649
21
81.477500000000006
31
0
0
CIRCLE
5
60C
100
AcDbEntity
8
CUTOUTS
100
AcDbCircle
10
161.26389936218001
20
81.420710678118994
30
0
40
1.4874999999999972
210
0
220
0
230
1
0
CIRCLE
5
60D
100
AcDbEntity
8
CUTOUTS
100
AcDbCircle
10
192.26389936218001
20
81.420710678118994
30
0
40
1.4874999999999972
210
0
220
0
230
1
0
CIRCLE
5
60E
100
AcDbEntity
8
CUTOUTS
100
AcDbCircle
10
195
20
95
30
0
40
3.8875000000000171
210
0
220
0
230
1
0
LINE
5
60F
100
AcDbEntity
8
PERIMETER
100
AcDbLine
10
-200.11250000000001
20
-100.11250000000001
30
0
11
200.11250000000001
21
-100.11250000000001
31
0
0
LINE
5
610
100
AcDbEntity
8
PERIMETER
100
AcDbLine
10
200.11250000000001
20
-100.11250000000001
30
0
11
200.11250000000001
21
100.11250000000001
31
0
0
LINE
5
611
100
AcDbEntity
8
PERIMETER
100
AcDbLine
10
200.11250000000001
20
100.11250000000001
30
0
11
-200.11250000000001
21
100.11250000000001
31
0
0
LINE
5
612
100
AcDbEntity
8
PERIMETER
100
AcDbLine
10
-200.11250000000001
20
100.11250000000001
30
0
11
-200.11250000000001
21
-100.11250000000001
31
0
0
ENDSEC
0
SECTION
2
OBJECTS
0
DICTIONARY
5
C
100
AcDbDictionary
3
ACAD_GROUP
350
D
3
ACAD_MLINESTYLE
350
17
0
DICTIONARY
5
D
100
AcDbDictionary
0
DICTIONARY
5
1A
330
C
100
AcDbDictionary
0
DICTIONARY
5
17
100
AcDbDictionary
0
ENDSEC
0
EOF
