ISO-10303-21;
HEADER;
FILE_DESCRIPTION(('FreeCAD Model'),'2;1');
FILE_NAME('Open CASCADE Shape Model','2025-01-31T13:25:38',('Author'),(
    ''),'Open CASCADE STEP processor 7.7','FreeCAD','Unknown');
FILE_SCHEMA(('AUTOMOTIVE_DESIGN { 1 0 10303 214 1 1 1 1 }'));
ENDSEC;
DATA;
#1 = APPLICATION_PROTOCOL_DEFINITION('international standard',
  'automotive_design',2000,#2);
#2 = APPLICATION_CONTEXT(
  'core data for automotive mechanical design processes');
#3 = SHAPE_DEFINITION_REPRESENTATION(#4,#10);
#4 = PRODUCT_DEFINITION_SHAPE('','',#5);
#5 = PRODUCT_DEFINITION('design','',#6,#9);
#6 = PRODUCT_DEFINITION_FORMATION('','',#7);
#7 = PRODUCT('Body','Body','',(#8));
#8 = PRODUCT_CONTEXT('',#2,'mechanical');
#9 = PRODUCT_DEFINITION_CONTEXT('part definition',#2,'design');
#10 = ADVANCED_BREP_SHAPE_REPRESENTATION('',(#11,#15),#946);
#11 = AXIS2_PLACEMENT_3D('',#12,#13,#14);
#12 = CARTESIAN_POINT('',(0.,0.,0.));
#13 = DIRECTION('',(0.,0.,1.));
#14 = DIRECTION('',(1.,0.,-0.));
#15 = MANIFOLD_SOLID_BREP('',#16);
#16 = CLOSED_SHELL('',(#17,#83,#157,#181,#205,#230,#291,#315,#332,#370,
    #387,#545,#578,#595,#613,#624,#655,#713,#737,#788,#815,#824,#847,
    #872,#889,#917,#929));
#17 = ADVANCED_FACE('',(#18),#78,.T.);
#18 = FACE_BOUND('',#19,.T.);
#19 = EDGE_LOOP('',(#20,#30,#38,#46,#55,#64,#72));
#20 = ORIENTED_EDGE('',*,*,#21,.F.);
#21 = EDGE_CURVE('',#22,#24,#26,.T.);
#22 = VERTEX_POINT('',#23);
#23 = CARTESIAN_POINT('',(-5.75,-14.65,0.));
#24 = VERTEX_POINT('',#25);
#25 = CARTESIAN_POINT('',(-5.75,14.65,0.));
#26 = LINE('',#27,#28);
#27 = CARTESIAN_POINT('',(-5.75,-14.65,0.));
#28 = VECTOR('',#29,1.);
#29 = DIRECTION('',(0.,1.,0.));
#30 = ORIENTED_EDGE('',*,*,#31,.T.);
#31 = EDGE_CURVE('',#22,#32,#34,.T.);
#32 = VERTEX_POINT('',#33);
#33 = CARTESIAN_POINT('',(-5.75,-14.65,24.));
#34 = LINE('',#35,#36);
#35 = CARTESIAN_POINT('',(-5.75,-14.65,0.));
#36 = VECTOR('',#37,1.);
#37 = DIRECTION('',(0.,0.,1.));
#38 = ORIENTED_EDGE('',*,*,#39,.T.);
#39 = EDGE_CURVE('',#32,#40,#42,.T.);
#40 = VERTEX_POINT('',#41);
#41 = CARTESIAN_POINT('',(-5.75,-10.28736603801,24.));
#42 = LINE('',#43,#44);
#43 = CARTESIAN_POINT('',(-5.75,-14.65,24.));
#44 = VECTOR('',#45,1.);
#45 = DIRECTION('',(0.,1.,0.));
#46 = ORIENTED_EDGE('',*,*,#47,.T.);
#47 = EDGE_CURVE('',#40,#48,#50,.T.);
#48 = VERTEX_POINT('',#49);
#49 = CARTESIAN_POINT('',(-5.75,10.3,23.49));
#50 = CIRCLE('',#51,10.3);
#51 = AXIS2_PLACEMENT_3D('',#52,#53,#54);
#52 = CARTESIAN_POINT('',(-5.75,0.,23.49));
#53 = DIRECTION('',(1.,0.,0.));
#54 = DIRECTION('',(0.,1.,0.));
#55 = ORIENTED_EDGE('',*,*,#56,.T.);
#56 = EDGE_CURVE('',#48,#57,#59,.T.);
#57 = VERTEX_POINT('',#58);
#58 = CARTESIAN_POINT('',(-5.75,10.28736603801,24.));
#59 = CIRCLE('',#60,10.3);
#60 = AXIS2_PLACEMENT_3D('',#61,#62,#63);
#61 = CARTESIAN_POINT('',(-5.75,0.,23.49));
#62 = DIRECTION('',(1.,0.,0.));
#63 = DIRECTION('',(0.,1.,0.));
#64 = ORIENTED_EDGE('',*,*,#65,.T.);
#65 = EDGE_CURVE('',#57,#66,#68,.T.);
#66 = VERTEX_POINT('',#67);
#67 = CARTESIAN_POINT('',(-5.75,14.65,24.));
#68 = LINE('',#69,#70);
#69 = CARTESIAN_POINT('',(-5.75,-14.65,24.));
#70 = VECTOR('',#71,1.);
#71 = DIRECTION('',(0.,1.,0.));
#72 = ORIENTED_EDGE('',*,*,#73,.F.);
#73 = EDGE_CURVE('',#24,#66,#74,.T.);
#74 = LINE('',#75,#76);
#75 = CARTESIAN_POINT('',(-5.75,14.65,0.));
#76 = VECTOR('',#77,1.);
#77 = DIRECTION('',(0.,0.,1.));
#78 = PLANE('',#79);
#79 = AXIS2_PLACEMENT_3D('',#80,#81,#82);
#80 = CARTESIAN_POINT('',(-5.75,-14.65,0.));
#81 = DIRECTION('',(-1.,0.,0.));
#82 = DIRECTION('',(0.,1.,0.));
#83 = ADVANCED_FACE('',(#84,#141),#152,.F.);
#84 = FACE_BOUND('',#85,.F.);
#85 = EDGE_LOOP('',(#86,#87,#95,#103,#111,#119,#127,#135));
#86 = ORIENTED_EDGE('',*,*,#21,.F.);
#87 = ORIENTED_EDGE('',*,*,#88,.F.);
#88 = EDGE_CURVE('',#89,#22,#91,.T.);
#89 = VERTEX_POINT('',#90);
#90 = CARTESIAN_POINT('',(5.75,-14.65,0.));
#91 = LINE('',#92,#93);
#92 = CARTESIAN_POINT('',(5.75,-14.65,0.));
#93 = VECTOR('',#94,1.);
#94 = DIRECTION('',(-1.,0.,0.));
#95 = ORIENTED_EDGE('',*,*,#96,.F.);
#96 = EDGE_CURVE('',#97,#89,#99,.T.);
#97 = VERTEX_POINT('',#98);
#98 = CARTESIAN_POINT('',(5.75,-4.,-4.579669976579E-16));
#99 = LINE('',#100,#101);
#100 = CARTESIAN_POINT('',(5.75,14.65,0.));
#101 = VECTOR('',#102,1.);
#102 = DIRECTION('',(0.,-1.,0.));
#103 = ORIENTED_EDGE('',*,*,#104,.F.);
#104 = EDGE_CURVE('',#105,#97,#107,.T.);
#105 = VERTEX_POINT('',#106);
#106 = CARTESIAN_POINT('',(5.5,-4.,-8.881784197001E-16));
#107 = LINE('',#108,#109);
#108 = CARTESIAN_POINT('',(5.5,-4.,-8.881784197001E-16));
#109 = VECTOR('',#110,1.);
#110 = DIRECTION('',(1.,1.110223024625E-16,-1.110223024625E-16));
#111 = ORIENTED_EDGE('',*,*,#112,.F.);
#112 = EDGE_CURVE('',#113,#105,#115,.T.);
#113 = VERTEX_POINT('',#114);
#114 = CARTESIAN_POINT('',(5.5,4.,8.881784197001E-16));
#115 = LINE('',#116,#117);
#116 = CARTESIAN_POINT('',(5.5,4.,8.881784197001E-16));
#117 = VECTOR('',#118,1.);
#118 = DIRECTION('',(4.440892098501E-16,-1.,-2.22044604925E-16));
#119 = ORIENTED_EDGE('',*,*,#120,.T.);
#120 = EDGE_CURVE('',#113,#121,#123,.T.);
#121 = VERTEX_POINT('',#122);
#122 = CARTESIAN_POINT('',(5.75,4.,4.302114220422E-16));
#123 = LINE('',#124,#125);
#124 = CARTESIAN_POINT('',(5.5,4.,8.881784197001E-16));
#125 = VECTOR('',#126,1.);
#126 = DIRECTION('',(1.,1.110223024625E-16,-1.110223024625E-16));
#127 = ORIENTED_EDGE('',*,*,#128,.F.);
#128 = EDGE_CURVE('',#129,#121,#131,.T.);
#129 = VERTEX_POINT('',#130);
#130 = CARTESIAN_POINT('',(5.75,14.65,0.));
#131 = LINE('',#132,#133);
#132 = CARTESIAN_POINT('',(5.75,14.65,0.));
#133 = VECTOR('',#134,1.);
#134 = DIRECTION('',(0.,-1.,0.));
#135 = ORIENTED_EDGE('',*,*,#136,.F.);
#136 = EDGE_CURVE('',#24,#129,#137,.T.);
#137 = LINE('',#138,#139);
#138 = CARTESIAN_POINT('',(-5.75,14.65,0.));
#139 = VECTOR('',#140,1.);
#140 = DIRECTION('',(1.,0.,0.));
#141 = FACE_BOUND('',#142,.F.);
#142 = EDGE_LOOP('',(#143));
#143 = ORIENTED_EDGE('',*,*,#144,.T.);
#144 = EDGE_CURVE('',#145,#145,#147,.T.);
#145 = VERTEX_POINT('',#146);
#146 = CARTESIAN_POINT('',(3.,0.,0.));
#147 = CIRCLE('',#148,3.);
#148 = AXIS2_PLACEMENT_3D('',#149,#150,#151);
#149 = CARTESIAN_POINT('',(0.,0.,0.));
#150 = DIRECTION('',(0.,0.,-1.));
#151 = DIRECTION('',(1.,0.,0.));
#152 = PLANE('',#153);
#153 = AXIS2_PLACEMENT_3D('',#154,#155,#156);
#154 = CARTESIAN_POINT('',(0.,-3.483052626275E-16,0.));
#155 = DIRECTION('',(0.,0.,1.));
#156 = DIRECTION('',(1.,0.,0.));
#157 = ADVANCED_FACE('',(#158),#176,.T.);
#158 = FACE_BOUND('',#159,.T.);
#159 = EDGE_LOOP('',(#160,#161,#169,#175));
#160 = ORIENTED_EDGE('',*,*,#73,.T.);
#161 = ORIENTED_EDGE('',*,*,#162,.T.);
#162 = EDGE_CURVE('',#66,#163,#165,.T.);
#163 = VERTEX_POINT('',#164);
#164 = CARTESIAN_POINT('',(5.75,14.65,24.));
#165 = LINE('',#166,#167);
#166 = CARTESIAN_POINT('',(-5.75,14.65,24.));
#167 = VECTOR('',#168,1.);
#168 = DIRECTION('',(1.,0.,0.));
#169 = ORIENTED_EDGE('',*,*,#170,.F.);
#170 = EDGE_CURVE('',#129,#163,#171,.T.);
#171 = LINE('',#172,#173);
#172 = CARTESIAN_POINT('',(5.75,14.65,0.));
#173 = VECTOR('',#174,1.);
#174 = DIRECTION('',(0.,0.,1.));
#175 = ORIENTED_EDGE('',*,*,#136,.F.);
#176 = PLANE('',#177);
#177 = AXIS2_PLACEMENT_3D('',#178,#179,#180);
#178 = CARTESIAN_POINT('',(-5.75,14.65,0.));
#179 = DIRECTION('',(0.,1.,0.));
#180 = DIRECTION('',(1.,0.,0.));
#181 = ADVANCED_FACE('',(#182),#200,.T.);
#182 = FACE_BOUND('',#183,.T.);
#183 = EDGE_LOOP('',(#184,#185,#193,#199));
#184 = ORIENTED_EDGE('',*,*,#65,.F.);
#185 = ORIENTED_EDGE('',*,*,#186,.T.);
#186 = EDGE_CURVE('',#57,#187,#189,.T.);
#187 = VERTEX_POINT('',#188);
#188 = CARTESIAN_POINT('',(5.75,10.28736603801,24.));
#189 = LINE('',#190,#191);
#190 = CARTESIAN_POINT('',(5.75,10.28736603801,24.));
#191 = VECTOR('',#192,1.);
#192 = DIRECTION('',(1.,0.,0.));
#193 = ORIENTED_EDGE('',*,*,#194,.F.);
#194 = EDGE_CURVE('',#163,#187,#195,.T.);
#195 = LINE('',#196,#197);
#196 = CARTESIAN_POINT('',(5.75,14.65,24.));
#197 = VECTOR('',#198,1.);
#198 = DIRECTION('',(0.,-1.,0.));
#199 = ORIENTED_EDGE('',*,*,#162,.F.);
#200 = PLANE('',#201);
#201 = AXIS2_PLACEMENT_3D('',#202,#203,#204);
#202 = CARTESIAN_POINT('',(0.,-3.483052626275E-16,24.));
#203 = DIRECTION('',(0.,0.,1.));
#204 = DIRECTION('',(1.,0.,0.));
#205 = ADVANCED_FACE('',(#206),#225,.F.);
#206 = FACE_BOUND('',#207,.F.);
#207 = EDGE_LOOP('',(#208,#217,#223,#224));
#208 = ORIENTED_EDGE('',*,*,#209,.F.);
#209 = EDGE_CURVE('',#210,#187,#212,.T.);
#210 = VERTEX_POINT('',#211);
#211 = CARTESIAN_POINT('',(5.75,10.3,23.49));
#212 = CIRCLE('',#213,10.3);
#213 = AXIS2_PLACEMENT_3D('',#214,#215,#216);
#214 = CARTESIAN_POINT('',(5.75,0.,23.49));
#215 = DIRECTION('',(1.,0.,0.));
#216 = DIRECTION('',(0.,1.,0.));
#217 = ORIENTED_EDGE('',*,*,#218,.T.);
#218 = EDGE_CURVE('',#210,#48,#219,.T.);
#219 = LINE('',#220,#221);
#220 = CARTESIAN_POINT('',(5.75,10.3,23.49));
#221 = VECTOR('',#222,1.);
#222 = DIRECTION('',(-1.,-0.,-0.));
#223 = ORIENTED_EDGE('',*,*,#56,.T.);
#224 = ORIENTED_EDGE('',*,*,#186,.T.);
#225 = CYLINDRICAL_SURFACE('',#226,10.3);
#226 = AXIS2_PLACEMENT_3D('',#227,#228,#229);
#227 = CARTESIAN_POINT('',(5.75,0.,23.49));
#228 = DIRECTION('',(1.,0.,0.));
#229 = DIRECTION('',(0.,1.,0.));
#230 = ADVANCED_FACE('',(#231,#250),#286,.F.);
#231 = FACE_BOUND('',#232,.F.);
#232 = EDGE_LOOP('',(#233,#234,#243,#249));
#233 = ORIENTED_EDGE('',*,*,#218,.F.);
#234 = ORIENTED_EDGE('',*,*,#235,.F.);
#235 = EDGE_CURVE('',#236,#210,#238,.T.);
#236 = VERTEX_POINT('',#237);
#237 = CARTESIAN_POINT('',(5.75,-10.28736603801,24.));
#238 = CIRCLE('',#239,10.3);
#239 = AXIS2_PLACEMENT_3D('',#240,#241,#242);
#240 = CARTESIAN_POINT('',(5.75,0.,23.49));
#241 = DIRECTION('',(1.,0.,0.));
#242 = DIRECTION('',(0.,1.,0.));
#243 = ORIENTED_EDGE('',*,*,#244,.F.);
#244 = EDGE_CURVE('',#40,#236,#245,.T.);
#245 = LINE('',#246,#247);
#246 = CARTESIAN_POINT('',(5.75,-10.28736603801,24.));
#247 = VECTOR('',#248,1.);
#248 = DIRECTION('',(1.,0.,0.));
#249 = ORIENTED_EDGE('',*,*,#47,.T.);
#250 = FACE_BOUND('',#251,.F.);
#251 = EDGE_LOOP('',(#252,#262,#271,#279));
#252 = ORIENTED_EDGE('',*,*,#253,.F.);
#253 = EDGE_CURVE('',#254,#256,#258,.T.);
#254 = VERTEX_POINT('',#255);
#255 = CARTESIAN_POINT('',(3.1,-9.665462835052,19.930670261941));
#256 = VERTEX_POINT('',#257);
#257 = CARTESIAN_POINT('',(-2.6,-9.665462835052,19.930670261941));
#258 = LINE('',#259,#260);
#259 = CARTESIAN_POINT('',(-2.6,-9.665462835052,19.930670261941));
#260 = VECTOR('',#261,1.);
#261 = DIRECTION('',(-1.,-0.,-0.));
#262 = ORIENTED_EDGE('',*,*,#263,.T.);
#263 = EDGE_CURVE('',#254,#264,#266,.T.);
#264 = VERTEX_POINT('',#265);
#265 = CARTESIAN_POINT('',(3.1,9.665462835052,19.930670261941));
#266 = CIRCLE('',#267,10.3);
#267 = AXIS2_PLACEMENT_3D('',#268,#269,#270);
#268 = CARTESIAN_POINT('',(3.1,0.,23.49));
#269 = DIRECTION('',(1.,0.,0.));
#270 = DIRECTION('',(0.,1.,0.));
#271 = ORIENTED_EDGE('',*,*,#272,.T.);
#272 = EDGE_CURVE('',#264,#273,#275,.T.);
#273 = VERTEX_POINT('',#274);
#274 = CARTESIAN_POINT('',(-2.6,9.665462835052,19.930670261941));
#275 = LINE('',#276,#277);
#276 = CARTESIAN_POINT('',(-2.6,9.665462835052,19.930670261941));
#277 = VECTOR('',#278,1.);
#278 = DIRECTION('',(-1.,-0.,-0.));
#279 = ORIENTED_EDGE('',*,*,#280,.F.);
#280 = EDGE_CURVE('',#256,#273,#281,.T.);
#281 = CIRCLE('',#282,10.3);
#282 = AXIS2_PLACEMENT_3D('',#283,#284,#285);
#283 = CARTESIAN_POINT('',(-2.6,0.,23.49));
#284 = DIRECTION('',(1.,0.,0.));
#285 = DIRECTION('',(0.,1.,0.));
#286 = CYLINDRICAL_SURFACE('',#287,10.3);
#287 = AXIS2_PLACEMENT_3D('',#288,#289,#290);
#288 = CARTESIAN_POINT('',(5.75,0.,23.49));
#289 = DIRECTION('',(1.,0.,0.));
#290 = DIRECTION('',(0.,1.,0.));
#291 = ADVANCED_FACE('',(#292),#310,.T.);
#292 = FACE_BOUND('',#293,.T.);
#293 = EDGE_LOOP('',(#294,#295,#303,#309));
#294 = ORIENTED_EDGE('',*,*,#39,.F.);
#295 = ORIENTED_EDGE('',*,*,#296,.F.);
#296 = EDGE_CURVE('',#297,#32,#299,.T.);
#297 = VERTEX_POINT('',#298);
#298 = CARTESIAN_POINT('',(5.75,-14.65,24.));
#299 = LINE('',#300,#301);
#300 = CARTESIAN_POINT('',(5.75,-14.65,24.));
#301 = VECTOR('',#302,1.);
#302 = DIRECTION('',(-1.,0.,0.));
#303 = ORIENTED_EDGE('',*,*,#304,.F.);
#304 = EDGE_CURVE('',#236,#297,#305,.T.);
#305 = LINE('',#306,#307);
#306 = CARTESIAN_POINT('',(5.75,14.65,24.));
#307 = VECTOR('',#308,1.);
#308 = DIRECTION('',(0.,-1.,0.));
#309 = ORIENTED_EDGE('',*,*,#244,.F.);
#310 = PLANE('',#311);
#311 = AXIS2_PLACEMENT_3D('',#312,#313,#314);
#312 = CARTESIAN_POINT('',(0.,-3.483052626275E-16,24.));
#313 = DIRECTION('',(0.,0.,1.));
#314 = DIRECTION('',(1.,0.,0.));
#315 = ADVANCED_FACE('',(#316),#327,.T.);
#316 = FACE_BOUND('',#317,.T.);
#317 = EDGE_LOOP('',(#318,#324,#325,#326));
#318 = ORIENTED_EDGE('',*,*,#319,.T.);
#319 = EDGE_CURVE('',#89,#297,#320,.T.);
#320 = LINE('',#321,#322);
#321 = CARTESIAN_POINT('',(5.75,-14.65,0.));
#322 = VECTOR('',#323,1.);
#323 = DIRECTION('',(0.,0.,1.));
#324 = ORIENTED_EDGE('',*,*,#296,.T.);
#325 = ORIENTED_EDGE('',*,*,#31,.F.);
#326 = ORIENTED_EDGE('',*,*,#88,.F.);
#327 = PLANE('',#328);
#328 = AXIS2_PLACEMENT_3D('',#329,#330,#331);
#329 = CARTESIAN_POINT('',(5.75,-14.65,0.));
#330 = DIRECTION('',(0.,-1.,0.));
#331 = DIRECTION('',(-1.,0.,0.));
#332 = ADVANCED_FACE('',(#333),#365,.T.);
#333 = FACE_BOUND('',#334,.T.);
#334 = EDGE_LOOP('',(#335,#336,#337,#338,#339,#340,#341,#342,#343,#351,
    #359));
#335 = ORIENTED_EDGE('',*,*,#128,.F.);
#336 = ORIENTED_EDGE('',*,*,#170,.T.);
#337 = ORIENTED_EDGE('',*,*,#194,.T.);
#338 = ORIENTED_EDGE('',*,*,#209,.F.);
#339 = ORIENTED_EDGE('',*,*,#235,.F.);
#340 = ORIENTED_EDGE('',*,*,#304,.T.);
#341 = ORIENTED_EDGE('',*,*,#319,.F.);
#342 = ORIENTED_EDGE('',*,*,#96,.F.);
#343 = ORIENTED_EDGE('',*,*,#344,.F.);
#344 = EDGE_CURVE('',#345,#97,#347,.T.);
#345 = VERTEX_POINT('',#346);
#346 = CARTESIAN_POINT('',(5.75,-4.,6.));
#347 = LINE('',#348,#349);
#348 = CARTESIAN_POINT('',(5.75,-4.,-2.514655150776E-15));
#349 = VECTOR('',#350,1.);
#350 = DIRECTION('',(0.,2.22044604925E-16,-1.));
#351 = ORIENTED_EDGE('',*,*,#352,.F.);
#352 = EDGE_CURVE('',#353,#345,#355,.T.);
#353 = VERTEX_POINT('',#354);
#354 = CARTESIAN_POINT('',(5.75,4.,6.));
#355 = LINE('',#356,#357);
#356 = CARTESIAN_POINT('',(5.75,5.325,6.));
#357 = VECTOR('',#358,1.);
#358 = DIRECTION('',(0.,-1.,-2.22044604925E-16));
#359 = ORIENTED_EDGE('',*,*,#360,.F.);
#360 = EDGE_CURVE('',#121,#353,#361,.T.);
#361 = LINE('',#362,#363);
#362 = CARTESIAN_POINT('',(5.75,4.,3.));
#363 = VECTOR('',#364,1.);
#364 = DIRECTION('',(0.,-2.22044604925E-16,1.));
#365 = PLANE('',#366);
#366 = AXIS2_PLACEMENT_3D('',#367,#368,#369);
#367 = CARTESIAN_POINT('',(5.75,14.65,0.));
#368 = DIRECTION('',(1.,0.,0.));
#369 = DIRECTION('',(0.,-1.,0.));
#370 = ADVANCED_FACE('',(#371),#382,.F.);
#371 = FACE_BOUND('',#372,.F.);
#372 = EDGE_LOOP('',(#373,#374,#380,#381));
#373 = ORIENTED_EDGE('',*,*,#104,.T.);
#374 = ORIENTED_EDGE('',*,*,#375,.F.);
#375 = EDGE_CURVE('',#121,#97,#376,.T.);
#376 = LINE('',#377,#378);
#377 = CARTESIAN_POINT('',(5.75,14.65,0.));
#378 = VECTOR('',#379,1.);
#379 = DIRECTION('',(0.,-1.,0.));
#380 = ORIENTED_EDGE('',*,*,#120,.F.);
#381 = ORIENTED_EDGE('',*,*,#112,.T.);
#382 = PLANE('',#383);
#383 = AXIS2_PLACEMENT_3D('',#384,#385,#386);
#384 = CARTESIAN_POINT('',(0.,-3.483052626275E-16,0.));
#385 = DIRECTION('',(0.,0.,1.));
#386 = DIRECTION('',(1.,0.,0.));
#387 = ADVANCED_FACE('',(#388),#540,.F.);
#388 = FACE_BOUND('',#389,.F.);
#389 = EDGE_LOOP('',(#390,#391,#399,#461,#469,#476,#477,#509,#539));
#390 = ORIENTED_EDGE('',*,*,#144,.F.);
#391 = ORIENTED_EDGE('',*,*,#392,.T.);
#392 = EDGE_CURVE('',#145,#393,#395,.T.);
#393 = VERTEX_POINT('',#394);
#394 = CARTESIAN_POINT('',(3.,0.,1.84));
#395 = LINE('',#396,#397);
#396 = CARTESIAN_POINT('',(3.,0.,0.));
#397 = VECTOR('',#398,1.);
#398 = DIRECTION('',(0.,0.,1.));
#399 = ORIENTED_EDGE('',*,*,#400,.F.);
#400 = EDGE_CURVE('',#401,#393,#403,.T.);
#401 = VERTEX_POINT('',#402);
#402 = CARTESIAN_POINT('',(3.,0.,5.04));
#403 = B_SPLINE_CURVE_WITH_KNOTS('',6,(#404,#405,#406,#407,#408,#409,
    #410,#411,#412,#413,#414,#415,#416,#417,#418,#419,#420,#421,#422,
    #423,#424,#425,#426,#427,#428,#429,#430,#431,#432,#433,#434,#435,
    #436,#437,#438,#439,#440,#441,#442,#443,#444,#445,#446,#447,#448,
    #449,#450,#451,#452,#453,#454,#455,#456,#457,#458,#459,#460),
  .UNSPECIFIED.,.F.,.F.,(7,5,5,5,5,5,5,5,5,5,5,7),(0.,0.123886380082,
    0.178176212988,0.241919899607,0.313788563683,0.404120623856,
    0.499994156952,0.596359430553,0.686288672695,0.822989797892,
    0.876117483874,1.),.UNSPECIFIED.);
#404 = CARTESIAN_POINT('',(3.,-2.22044604925E-16,5.04));
#405 = CARTESIAN_POINT('',(3.,-0.121025503915,5.04));
#406 = CARTESIAN_POINT('',(2.994141010112,-0.241353944491,5.029014605433
    ));
#407 = CARTESIAN_POINT('',(2.982550392761,-0.359198423349,5.007281186542
    ));
#408 = CARTESIAN_POINT('',(2.965841613022,-0.472816011113,4.975550000274
    ));
#409 = CARTESIAN_POINT('',(2.945092349195,-0.580611098823,4.935078881629
    ));
#410 = CARTESIAN_POINT('',(2.911343550829,-0.725347751591,4.866970982654
    ));
#411 = CARTESIAN_POINT('',(2.900506736688,-0.76821014983,4.844832453699)
  );
#412 = CARTESIAN_POINT('',(2.889197551854,-0.809810828967,4.821398823095
    ));
#413 = CARTESIAN_POINT('',(2.877495811515,-0.850130891227,4.796757740942
    ));
#414 = CARTESIAN_POINT('',(2.865479874492,-0.889155773306,4.770993381427
    ));
#415 = CARTESIAN_POINT('',(2.838839674408,-0.971163064966,4.712711431726
    ));
#416 = CARTESIAN_POINT('',(2.824123133893,-1.013658061426,4.6797943456)
  );
#417 = CARTESIAN_POINT('',(2.809192395513,-1.054367496065,4.645547203809
    ));
#418 = CARTESIAN_POINT('',(2.79415706936,-1.093301188437,4.61006993474)
  );
#419 = CARTESIAN_POINT('',(2.779121000333,-1.130470725938,4.573450699825
    ));
#420 = CARTESIAN_POINT('',(2.747339393526,-1.205821105458,4.4932783487)
  );
#421 = CARTESIAN_POINT('',(2.730618336927,-1.243531533248,4.449431523159
    ));
#422 = CARTESIAN_POINT('',(2.714159811752,-1.279036521107,4.404335067506
    ));
#423 = CARTESIAN_POINT('',(2.698097366615,-1.312350115833,4.358084595277
    ));
#424 = CARTESIAN_POINT('',(2.682557412677,-1.343482881027,4.310762589762
    ));
#425 = CARTESIAN_POINT('',(2.648933685079,-1.408838442718,4.201700824131
    ));
#426 = CARTESIAN_POINT('',(2.631216199908,-1.441811585848,4.139361443795
    ));
#427 = CARTESIAN_POINT('',(2.614760910776,-1.471337027332,4.075609407498
    ));
#428 = CARTESIAN_POINT('',(2.599800646536,-1.497395790197,4.010615885645
    ));
#429 = CARTESIAN_POINT('',(2.586540783154,-1.519966949038,3.944535660653
    ));
#430 = CARTESIAN_POINT('',(2.563066782992,-1.559244600864,3.806368756911
    ));
#431 = CARTESIAN_POINT('',(2.553089249116,-1.575506073145,3.734162992006
    ));
#432 = CARTESIAN_POINT('',(2.545445424752,-1.587740775944,3.661164394916
    ));
#433 = CARTESIAN_POINT('',(2.540292994723,-1.595911380188,3.587636670332
    ));
#434 = CARTESIAN_POINT('',(2.53771550809,-1.6,3.513833770924));
#435 = CARTESIAN_POINT('',(2.53771550809,-1.6,3.365787531697));
#436 = CARTESIAN_POINT('',(2.54031949692,-1.595869330118,3.291606706787)
  );
#437 = CARTESIAN_POINT('',(2.54552485241,-1.58761482632,3.217705298219)
  );
#438 = CARTESIAN_POINT('',(2.55324630633,-1.575254688949,3.144340961395)
  );
#439 = CARTESIAN_POINT('',(2.563323019093,-1.558826916431,3.071781344655
    ));
#440 = CARTESIAN_POINT('',(2.586913301779,-1.519332982766,2.933600861192
    ));
#441 = CARTESIAN_POINT('',(2.600152649446,-1.496783503768,2.867840037076
    ));
#442 = CARTESIAN_POINT('',(2.61507367202,-1.470777995387,2.803159211072)
  );
#443 = CARTESIAN_POINT('',(2.631473445639,-1.441337029724,2.739711010991
    ));
#444 = CARTESIAN_POINT('',(2.649122162552,-1.408479207535,2.677664194333
    ));
#445 = CARTESIAN_POINT('',(2.69611435923,-1.317120923355,2.525300268212)
  );
#446 = CARTESIAN_POINT('',(2.726773594072,-1.254157390553,2.437039828611
    ));
#447 = CARTESIAN_POINT('',(2.758928501026,-1.183293560453,2.352886151575
    ));
#448 = CARTESIAN_POINT('',(2.791678801661,-1.104399036285,2.273455642125
    ));
#449 = CARTESIAN_POINT('',(2.824016986936,-1.017330916286,2.199580084732
    ));
#450 = CARTESIAN_POINT('',(2.866767734314,-0.88496233426,2.106247247249)
  );
#451 = CARTESIAN_POINT('',(2.878499170176,-0.846666390157,2.081130480212
    ));
#452 = CARTESIAN_POINT('',(2.88992502367,-0.807130779949,2.057094258231)
  );
#453 = CARTESIAN_POINT('',(2.900971703726,-0.766369589932,2.034217806547
    ));
#454 = CARTESIAN_POINT('',(2.911564327968,-0.724400916572,2.012583470606
    ));
#455 = CARTESIAN_POINT('',(2.945090096968,-0.580620757827,1.944925663554
    ));
#456 = CARTESIAN_POINT('',(2.965840351532,-0.472825063576,1.904452287819
    ));
#457 = CARTESIAN_POINT('',(2.982550669881,-0.359201106972,1.872718277432
    ));
#458 = CARTESIAN_POINT('',(2.994141669864,-0.241349630795,1.850984164493
    ));
#459 = CARTESIAN_POINT('',(3.,-0.121018722776,1.84));
#460 = CARTESIAN_POINT('',(3.,-6.661338147751E-16,1.84));
#461 = ORIENTED_EDGE('',*,*,#462,.T.);
#462 = EDGE_CURVE('',#401,#463,#465,.T.);
#463 = VERTEX_POINT('',#464);
#464 = CARTESIAN_POINT('',(3.,0.,5.5));
#465 = LINE('',#466,#467);
#466 = CARTESIAN_POINT('',(3.,0.,0.));
#467 = VECTOR('',#468,1.);
#468 = DIRECTION('',(0.,0.,1.));
#469 = ORIENTED_EDGE('',*,*,#470,.T.);
#470 = EDGE_CURVE('',#463,#463,#471,.T.);
#471 = CIRCLE('',#472,3.);
#472 = AXIS2_PLACEMENT_3D('',#473,#474,#475);
#473 = CARTESIAN_POINT('',(0.,0.,5.5));
#474 = DIRECTION('',(0.,0.,-1.));
#475 = DIRECTION('',(1.,0.,0.));
#476 = ORIENTED_EDGE('',*,*,#462,.F.);
#477 = ORIENTED_EDGE('',*,*,#478,.F.);
#478 = EDGE_CURVE('',#479,#401,#481,.T.);
#479 = VERTEX_POINT('',#480);
#480 = CARTESIAN_POINT('',(2.53771550809,1.6,3.44));
#481 = B_SPLINE_CURVE_WITH_KNOTS('',6,(#482,#483,#484,#485,#486,#487,
    #488,#489,#490,#491,#492,#493,#494,#495,#496,#497,#498,#499,#500,
    #501,#502,#503,#504,#505,#506,#507,#508),.UNSPECIFIED.,.F.,.F.,(7,5,
    5,5,5,7),(0.,0.372207446073,0.514600695425,0.64576652878,
    0.752085858643,1.),.UNSPECIFIED.);
#482 = CARTESIAN_POINT('',(2.53771550809,1.6,3.44));
#483 = CARTESIAN_POINT('',(2.53771550809,1.6,3.583682628295));
#484 = CARTESIAN_POINT('',(2.547477605499,1.584516160055,3.726782819415)
  );
#485 = CARTESIAN_POINT('',(2.566853764817,1.553786193209,3.867856229407)
  );
#486 = CARTESIAN_POINT('',(2.594761018859,1.507948418526,4.005446498628)
  );
#487 = CARTESIAN_POINT('',(2.629205710407,1.447199101977,4.137760215296)
  );
#488 = CARTESIAN_POINT('',(2.682522136002,1.343545782801,4.310629340487)
  );
#489 = CARTESIAN_POINT('',(2.697903586069,1.312732776901,4.357481390298)
  );
#490 = CARTESIAN_POINT('',(2.713797697867,1.279782369138,4.403283549774)
  );
#491 = CARTESIAN_POINT('',(2.730081845462,1.244684365741,4.447955822676)
  );
#492 = CARTESIAN_POINT('',(2.746626552388,1.207425217103,4.491405628941)
  );
#493 = CARTESIAN_POINT('',(2.77865007578,1.131662121676,4.572327669967)
  );
#494 = CARTESIAN_POINT('',(2.794111729423,1.093484030013,4.61000529028)
  );
#495 = CARTESIAN_POINT('',(2.809573975059,1.053441039049,4.646476981749)
  );
#496 = CARTESIAN_POINT('',(2.824923907609,1.011520633023,4.681646858511)
  );
#497 = CARTESIAN_POINT('',(2.840042180752,0.967712317495,4.715405895674)
  );
#498 = CARTESIAN_POINT('',(2.866767732999,0.884962338332,4.77375274988)
  );
#499 = CARTESIAN_POINT('',(2.878499170385,0.846666388832,4.798869520149)
  );
#500 = CARTESIAN_POINT('',(2.889925024836,0.807130775715,4.822905744226)
  );
#501 = CARTESIAN_POINT('',(2.900971704105,0.766369589133,4.845782194329)
  );
#502 = CARTESIAN_POINT('',(2.911564326865,0.724400921302,4.867416527168)
  );
#503 = CARTESIAN_POINT('',(2.945090096968,0.580620757827,4.935074336446)
  );
#504 = CARTESIAN_POINT('',(2.965840351532,0.472825063576,4.975547712181)
  );
#505 = CARTESIAN_POINT('',(2.982550669881,0.359201106972,5.007281722568)
  );
#506 = CARTESIAN_POINT('',(2.994141669864,0.241349630795,5.029015835507)
  );
#507 = CARTESIAN_POINT('',(3.,0.121018722776,5.04));
#508 = CARTESIAN_POINT('',(3.,1.571319594774E-16,5.04));
#509 = ORIENTED_EDGE('',*,*,#510,.F.);
#510 = EDGE_CURVE('',#393,#479,#511,.T.);
#511 = B_SPLINE_CURVE_WITH_KNOTS('',6,(#512,#513,#514,#515,#516,#517,
    #518,#519,#520,#521,#522,#523,#524,#525,#526,#527,#528,#529,#530,
    #531,#532,#533,#534,#535,#536,#537,#538),.UNSPECIFIED.,.F.,.F.,(7,5,
    5,5,5,7),(0.,0.247930853525,0.356579812195,0.48414855861,
    0.62797763203,1.),.UNSPECIFIED.);
#512 = CARTESIAN_POINT('',(3.,-2.347550162498E-16,1.84));
#513 = CARTESIAN_POINT('',(3.,0.121025503914,1.84));
#514 = CARTESIAN_POINT('',(2.994141010112,0.241353944491,1.850985394567)
  );
#515 = CARTESIAN_POINT('',(2.982550392761,0.359198423349,1.872718813458)
  );
#516 = CARTESIAN_POINT('',(2.965841613022,0.472816011114,1.904449999726)
  );
#517 = CARTESIAN_POINT('',(2.945092349195,0.580611098823,1.944921118371)
  );
#518 = CARTESIAN_POINT('',(2.911343549622,0.725347756765,2.013029019781)
  );
#519 = CARTESIAN_POINT('',(2.900506737101,0.768210148988,2.035167545341)
  );
#520 = CARTESIAN_POINT('',(2.889197553158,0.809810824281,2.05860117415)
  );
#521 = CARTESIAN_POINT('',(2.877495811826,0.850130889532,2.083242258486)
  );
#522 = CARTESIAN_POINT('',(2.865479873158,0.889155777413,2.109006621492)
  );
#523 = CARTESIAN_POINT('',(2.838839674408,0.971163064966,2.167288568274)
  );
#524 = CARTESIAN_POINT('',(2.824123133893,1.013658061426,2.2002056544));
#525 = CARTESIAN_POINT('',(2.809192395513,1.054367496065,2.234452796191)
  );
#526 = CARTESIAN_POINT('',(2.79415706936,1.093301188437,2.26993006526));
#527 = CARTESIAN_POINT('',(2.779121000333,1.130470725938,2.306549300175)
  );
#528 = CARTESIAN_POINT('',(2.747339393526,1.205821105458,2.3867216513));
#529 = CARTESIAN_POINT('',(2.730618336927,1.243531533248,2.430568476841)
  );
#530 = CARTESIAN_POINT('',(2.714159811752,1.279036521107,2.475664932494)
  );
#531 = CARTESIAN_POINT('',(2.698097366615,1.312350115833,2.521915404723)
  );
#532 = CARTESIAN_POINT('',(2.682557412677,1.343482881027,2.569237410238)
  );
#533 = CARTESIAN_POINT('',(2.629124283616,1.44734263758,2.742552857839)
  );
#534 = CARTESIAN_POINT('',(2.59470828215,1.508035076324,2.874813649131)
  );
#535 = CARTESIAN_POINT('',(2.56682618373,1.553829932762,3.012344136324)
  );
#536 = CARTESIAN_POINT('',(2.547468267285,1.584530972996,3.153353229335)
  );
#537 = CARTESIAN_POINT('',(2.53771550809,1.6,3.296386112928));
#538 = CARTESIAN_POINT('',(2.53771550809,1.6,3.44));
#539 = ORIENTED_EDGE('',*,*,#392,.F.);
#540 = CYLINDRICAL_SURFACE('',#541,3.);
#541 = AXIS2_PLACEMENT_3D('',#542,#543,#544);
#542 = CARTESIAN_POINT('',(0.,0.,0.));
#543 = DIRECTION('',(0.,0.,-1.));
#544 = DIRECTION('',(1.,0.,0.));
#545 = ADVANCED_FACE('',(#546),#573,.F.);
#546 = FACE_BOUND('',#547,.T.);
#547 = EDGE_LOOP('',(#548,#558,#565,#566));
#548 = ORIENTED_EDGE('',*,*,#549,.F.);
#549 = EDGE_CURVE('',#550,#552,#554,.T.);
#550 = VERTEX_POINT('',#551);
#551 = CARTESIAN_POINT('',(-2.6,10.1,17.));
#552 = VERTEX_POINT('',#553);
#553 = CARTESIAN_POINT('',(3.1,10.1,17.));
#554 = LINE('',#555,#556);
#555 = CARTESIAN_POINT('',(-2.6,10.1,17.));
#556 = VECTOR('',#557,1.);
#557 = DIRECTION('',(1.,0.,0.));
#558 = ORIENTED_EDGE('',*,*,#559,.F.);
#559 = EDGE_CURVE('',#256,#550,#560,.T.);
#560 = CIRCLE('',#561,10.1);
#561 = AXIS2_PLACEMENT_3D('',#562,#563,#564);
#562 = CARTESIAN_POINT('',(-2.6,0.,17.));
#563 = DIRECTION('',(1.,0.,0.));
#564 = DIRECTION('',(0.,1.,0.));
#565 = ORIENTED_EDGE('',*,*,#253,.F.);
#566 = ORIENTED_EDGE('',*,*,#567,.T.);
#567 = EDGE_CURVE('',#254,#552,#568,.T.);
#568 = CIRCLE('',#569,10.1);
#569 = AXIS2_PLACEMENT_3D('',#570,#571,#572);
#570 = CARTESIAN_POINT('',(3.1,0.,17.));
#571 = DIRECTION('',(1.,0.,0.));
#572 = DIRECTION('',(0.,1.,0.));
#573 = CYLINDRICAL_SURFACE('',#574,10.1);
#574 = AXIS2_PLACEMENT_3D('',#575,#576,#577);
#575 = CARTESIAN_POINT('',(-2.6,0.,17.));
#576 = DIRECTION('',(-1.,-0.,-0.));
#577 = DIRECTION('',(0.,1.,0.));
#578 = ADVANCED_FACE('',(#579),#590,.T.);
#579 = FACE_BOUND('',#580,.T.);
#580 = EDGE_LOOP('',(#581,#582,#583));
#581 = ORIENTED_EDGE('',*,*,#280,.F.);
#582 = ORIENTED_EDGE('',*,*,#559,.T.);
#583 = ORIENTED_EDGE('',*,*,#584,.T.);
#584 = EDGE_CURVE('',#550,#273,#585,.T.);
#585 = CIRCLE('',#586,10.1);
#586 = AXIS2_PLACEMENT_3D('',#587,#588,#589);
#587 = CARTESIAN_POINT('',(-2.6,0.,17.));
#588 = DIRECTION('',(1.,0.,0.));
#589 = DIRECTION('',(0.,1.,0.));
#590 = PLANE('',#591);
#591 = AXIS2_PLACEMENT_3D('',#592,#593,#594);
#592 = CARTESIAN_POINT('',(-2.6,-2.707802242652E-16,17.));
#593 = DIRECTION('',(1.,0.,0.));
#594 = DIRECTION('',(0.,0.,1.));
#595 = ADVANCED_FACE('',(#596),#608,.F.);
#596 = FACE_BOUND('',#597,.T.);
#597 = EDGE_LOOP('',(#598,#599,#600,#607));
#598 = ORIENTED_EDGE('',*,*,#584,.F.);
#599 = ORIENTED_EDGE('',*,*,#549,.T.);
#600 = ORIENTED_EDGE('',*,*,#601,.T.);
#601 = EDGE_CURVE('',#552,#264,#602,.T.);
#602 = CIRCLE('',#603,10.1);
#603 = AXIS2_PLACEMENT_3D('',#604,#605,#606);
#604 = CARTESIAN_POINT('',(3.1,0.,17.));
#605 = DIRECTION('',(1.,0.,0.));
#606 = DIRECTION('',(0.,1.,0.));
#607 = ORIENTED_EDGE('',*,*,#272,.T.);
#608 = CYLINDRICAL_SURFACE('',#609,10.1);
#609 = AXIS2_PLACEMENT_3D('',#610,#611,#612);
#610 = CARTESIAN_POINT('',(-2.6,0.,17.));
#611 = DIRECTION('',(-1.,-0.,-0.));
#612 = DIRECTION('',(0.,1.,0.));
#613 = ADVANCED_FACE('',(#614),#619,.F.);
#614 = FACE_BOUND('',#615,.F.);
#615 = EDGE_LOOP('',(#616,#617,#618));
#616 = ORIENTED_EDGE('',*,*,#263,.F.);
#617 = ORIENTED_EDGE('',*,*,#567,.T.);
#618 = ORIENTED_EDGE('',*,*,#601,.T.);
#619 = PLANE('',#620);
#620 = AXIS2_PLACEMENT_3D('',#621,#622,#623);
#621 = CARTESIAN_POINT('',(3.1,-2.707802242652E-16,17.));
#622 = DIRECTION('',(1.,0.,0.));
#623 = DIRECTION('',(0.,0.,1.));
#624 = ADVANCED_FACE('',(#625),#650,.T.);
#625 = FACE_BOUND('',#626,.T.);
#626 = EDGE_LOOP('',(#627,#628,#636,#644));
#627 = ORIENTED_EDGE('',*,*,#360,.T.);
#628 = ORIENTED_EDGE('',*,*,#629,.T.);
#629 = EDGE_CURVE('',#353,#630,#632,.T.);
#630 = VERTEX_POINT('',#631);
#631 = CARTESIAN_POINT('',(10.75,4.,6.));
#632 = LINE('',#633,#634);
#633 = CARTESIAN_POINT('',(5.5,4.,6.));
#634 = VECTOR('',#635,1.);
#635 = DIRECTION('',(1.,1.110223024625E-16,-1.110223024625E-16));
#636 = ORIENTED_EDGE('',*,*,#637,.T.);
#637 = EDGE_CURVE('',#630,#638,#640,.T.);
#638 = VERTEX_POINT('',#639);
#639 = CARTESIAN_POINT('',(10.75,4.,3.053113317719E-16));
#640 = LINE('',#641,#642);
#641 = CARTESIAN_POINT('',(10.75,4.,6.));
#642 = VECTOR('',#643,1.);
#643 = DIRECTION('',(-2.22044604925E-16,2.22044604925E-16,-1.));
#644 = ORIENTED_EDGE('',*,*,#645,.F.);
#645 = EDGE_CURVE('',#121,#638,#646,.T.);
#646 = LINE('',#647,#648);
#647 = CARTESIAN_POINT('',(5.5,4.,8.881784197001E-16));
#648 = VECTOR('',#649,1.);
#649 = DIRECTION('',(1.,1.110223024625E-16,-1.110223024625E-16));
#650 = PLANE('',#651);
#651 = AXIS2_PLACEMENT_3D('',#652,#653,#654);
#652 = CARTESIAN_POINT('',(5.5,4.,6.));
#653 = DIRECTION('',(-1.110223024625E-16,1.,2.22044604925E-16));
#654 = DIRECTION('',(-2.22044604925E-16,2.22044604925E-16,-1.));
#655 = ADVANCED_FACE('',(#656,#674),#708,.T.);
#656 = FACE_BOUND('',#657,.T.);
#657 = EDGE_LOOP('',(#658,#659,#667,#673));
#658 = ORIENTED_EDGE('',*,*,#352,.T.);
#659 = ORIENTED_EDGE('',*,*,#660,.T.);
#660 = EDGE_CURVE('',#345,#661,#663,.T.);
#661 = VERTEX_POINT('',#662);
#662 = CARTESIAN_POINT('',(10.75,-4.,6.));
#663 = LINE('',#664,#665);
#664 = CARTESIAN_POINT('',(5.5,-4.,6.));
#665 = VECTOR('',#666,1.);
#666 = DIRECTION('',(1.,1.110223024625E-16,-1.110223024625E-16));
#667 = ORIENTED_EDGE('',*,*,#668,.T.);
#668 = EDGE_CURVE('',#661,#630,#669,.T.);
#669 = LINE('',#670,#671);
#670 = CARTESIAN_POINT('',(10.75,-4.,6.));
#671 = VECTOR('',#672,1.);
#672 = DIRECTION('',(-4.440892098501E-16,1.,2.22044604925E-16));
#673 = ORIENTED_EDGE('',*,*,#629,.F.);
#674 = FACE_BOUND('',#675,.T.);
#675 = EDGE_LOOP('',(#676,#686,#694,#702));
#676 = ORIENTED_EDGE('',*,*,#677,.F.);
#677 = EDGE_CURVE('',#678,#680,#682,.T.);
#678 = VERTEX_POINT('',#679);
#679 = CARTESIAN_POINT('',(6.66,2.75,6.));
#680 = VERTEX_POINT('',#681);
#681 = CARTESIAN_POINT('',(6.66,-2.75,6.));
#682 = LINE('',#683,#684);
#683 = CARTESIAN_POINT('',(6.66,2.75,6.));
#684 = VECTOR('',#685,1.);
#685 = DIRECTION('',(0.,-1.,0.));
#686 = ORIENTED_EDGE('',*,*,#687,.F.);
#687 = EDGE_CURVE('',#688,#678,#690,.T.);
#688 = VERTEX_POINT('',#689);
#689 = CARTESIAN_POINT('',(9.16,2.75,6.));
#690 = LINE('',#691,#692);
#691 = CARTESIAN_POINT('',(9.16,2.75,6.));
#692 = VECTOR('',#693,1.);
#693 = DIRECTION('',(-1.,0.,0.));
#694 = ORIENTED_EDGE('',*,*,#695,.F.);
#695 = EDGE_CURVE('',#696,#688,#698,.T.);
#696 = VERTEX_POINT('',#697);
#697 = CARTESIAN_POINT('',(9.16,-2.75,6.));
#698 = LINE('',#699,#700);
#699 = CARTESIAN_POINT('',(9.16,-2.75,6.));
#700 = VECTOR('',#701,1.);
#701 = DIRECTION('',(0.,1.,0.));
#702 = ORIENTED_EDGE('',*,*,#703,.F.);
#703 = EDGE_CURVE('',#680,#696,#704,.T.);
#704 = LINE('',#705,#706);
#705 = CARTESIAN_POINT('',(6.66,-2.75,6.));
#706 = VECTOR('',#707,1.);
#707 = DIRECTION('',(1.,0.,0.));
#708 = PLANE('',#709);
#709 = AXIS2_PLACEMENT_3D('',#710,#711,#712);
#710 = CARTESIAN_POINT('',(5.5,-4.,6.));
#711 = DIRECTION('',(1.110223024625E-16,-2.22044604925E-16,1.));
#712 = DIRECTION('',(-4.440892098501E-16,1.,2.22044604925E-16));
#713 = ADVANCED_FACE('',(#714),#732,.T.);
#714 = FACE_BOUND('',#715,.T.);
#715 = EDGE_LOOP('',(#716,#717,#725,#731));
#716 = ORIENTED_EDGE('',*,*,#344,.T.);
#717 = ORIENTED_EDGE('',*,*,#718,.T.);
#718 = EDGE_CURVE('',#97,#719,#721,.T.);
#719 = VERTEX_POINT('',#720);
#720 = CARTESIAN_POINT('',(10.75,-4.,-1.471045507628E-15));
#721 = LINE('',#722,#723);
#722 = CARTESIAN_POINT('',(5.5,-4.,-8.881784197001E-16));
#723 = VECTOR('',#724,1.);
#724 = DIRECTION('',(1.,1.110223024625E-16,-1.110223024625E-16));
#725 = ORIENTED_EDGE('',*,*,#726,.T.);
#726 = EDGE_CURVE('',#719,#661,#727,.T.);
#727 = LINE('',#728,#729);
#728 = CARTESIAN_POINT('',(10.75,-4.,-1.471045507628E-15));
#729 = VECTOR('',#730,1.);
#730 = DIRECTION('',(2.22044604925E-16,-2.22044604925E-16,1.));
#731 = ORIENTED_EDGE('',*,*,#660,.F.);
#732 = PLANE('',#733);
#733 = AXIS2_PLACEMENT_3D('',#734,#735,#736);
#734 = CARTESIAN_POINT('',(5.5,-4.,-8.881784197001E-16));
#735 = DIRECTION('',(1.110223024625E-16,-1.,-2.22044604925E-16));
#736 = DIRECTION('',(2.22044604925E-16,-2.22044604925E-16,1.));
#737 = ADVANCED_FACE('',(#738,#749),#783,.T.);
#738 = FACE_BOUND('',#739,.T.);
#739 = EDGE_LOOP('',(#740,#741,#742,#748));
#740 = ORIENTED_EDGE('',*,*,#375,.F.);
#741 = ORIENTED_EDGE('',*,*,#645,.T.);
#742 = ORIENTED_EDGE('',*,*,#743,.T.);
#743 = EDGE_CURVE('',#638,#719,#744,.T.);
#744 = LINE('',#745,#746);
#745 = CARTESIAN_POINT('',(10.75,4.,3.053113317719E-16));
#746 = VECTOR('',#747,1.);
#747 = DIRECTION('',(4.440892098501E-16,-1.,-2.22044604925E-16));
#748 = ORIENTED_EDGE('',*,*,#718,.F.);
#749 = FACE_BOUND('',#750,.T.);
#750 = EDGE_LOOP('',(#751,#761,#769,#777));
#751 = ORIENTED_EDGE('',*,*,#752,.F.);
#752 = EDGE_CURVE('',#753,#755,#757,.T.);
#753 = VERTEX_POINT('',#754);
#754 = CARTESIAN_POINT('',(6.66,-2.75,-8.881784197001E-16));
#755 = VERTEX_POINT('',#756);
#756 = CARTESIAN_POINT('',(6.66,2.75,8.881784197001E-16));
#757 = LINE('',#758,#759);
#758 = CARTESIAN_POINT('',(6.66,3.375,8.237854842719E-16));
#759 = VECTOR('',#760,1.);
#760 = DIRECTION('',(0.,1.,2.22044604925E-16));
#761 = ORIENTED_EDGE('',*,*,#762,.F.);
#762 = EDGE_CURVE('',#763,#753,#765,.T.);
#763 = VERTEX_POINT('',#764);
#764 = CARTESIAN_POINT('',(9.16,-2.75,-8.881784197001E-16));
#765 = LINE('',#766,#767);
#766 = CARTESIAN_POINT('',(6.08,-2.75,-7.49400541622E-16));
#767 = VECTOR('',#768,1.);
#768 = DIRECTION('',(-1.,0.,1.110223024625E-16));
#769 = ORIENTED_EDGE('',*,*,#770,.F.);
#770 = EDGE_CURVE('',#771,#763,#773,.T.);
#771 = VERTEX_POINT('',#772);
#772 = CARTESIAN_POINT('',(9.16,2.75,0.));
#773 = LINE('',#774,#775);
#774 = CARTESIAN_POINT('',(9.16,0.625,-2.031708135064E-16));
#775 = VECTOR('',#776,1.);
#776 = DIRECTION('',(0.,-1.,-2.22044604925E-16));
#777 = ORIENTED_EDGE('',*,*,#778,.F.);
#778 = EDGE_CURVE('',#755,#771,#779,.T.);
#779 = LINE('',#780,#781);
#780 = CARTESIAN_POINT('',(7.33,2.75,7.49400541622E-16));
#781 = VECTOR('',#782,1.);
#782 = DIRECTION('',(1.,0.,-1.110223024625E-16));
#783 = PLANE('',#784);
#784 = AXIS2_PLACEMENT_3D('',#785,#786,#787);
#785 = CARTESIAN_POINT('',(5.5,4.,8.881784197001E-16));
#786 = DIRECTION('',(-1.110223024625E-16,2.22044604925E-16,-1.));
#787 = DIRECTION('',(4.440892098501E-16,-1.,-2.22044604925E-16));
#788 = ADVANCED_FACE('',(#789),#810,.F.);
#789 = FACE_BOUND('',#790,.F.);
#790 = EDGE_LOOP('',(#791,#800,#806,#807,#808,#809));
#791 = ORIENTED_EDGE('',*,*,#792,.F.);
#792 = EDGE_CURVE('',#793,#793,#795,.T.);
#793 = VERTEX_POINT('',#794);
#794 = CARTESIAN_POINT('',(6.66,1.6,3.44));
#795 = CIRCLE('',#796,1.6);
#796 = AXIS2_PLACEMENT_3D('',#797,#798,#799);
#797 = CARTESIAN_POINT('',(6.66,4.773959005888E-15,3.44));
#798 = DIRECTION('',(1.,0.,0.));
#799 = DIRECTION('',(0.,1.,0.));
#800 = ORIENTED_EDGE('',*,*,#801,.T.);
#801 = EDGE_CURVE('',#793,#479,#802,.T.);
#802 = LINE('',#803,#804);
#803 = CARTESIAN_POINT('',(10.75,1.6,3.44));
#804 = VECTOR('',#805,1.);
#805 = DIRECTION('',(-1.,-0.,-0.));
#806 = ORIENTED_EDGE('',*,*,#478,.T.);
#807 = ORIENTED_EDGE('',*,*,#400,.T.);
#808 = ORIENTED_EDGE('',*,*,#510,.T.);
#809 = ORIENTED_EDGE('',*,*,#801,.F.);
#810 = CYLINDRICAL_SURFACE('',#811,1.6);
#811 = AXIS2_PLACEMENT_3D('',#812,#813,#814);
#812 = CARTESIAN_POINT('',(10.75,4.773959005888E-15,3.44));
#813 = DIRECTION('',(1.,0.,0.));
#814 = DIRECTION('',(0.,1.,0.));
#815 = ADVANCED_FACE('',(#816),#819,.F.);
#816 = FACE_BOUND('',#817,.T.);
#817 = EDGE_LOOP('',(#818));
#818 = ORIENTED_EDGE('',*,*,#470,.T.);
#819 = PLANE('',#820);
#820 = AXIS2_PLACEMENT_3D('',#821,#822,#823);
#821 = CARTESIAN_POINT('',(-1.709300165674E-16,8.51133553645E-18,5.5));
#822 = DIRECTION('',(0.,0.,1.));
#823 = DIRECTION('',(1.,0.,0.));
#824 = ADVANCED_FACE('',(#825,#831),#842,.T.);
#825 = FACE_BOUND('',#826,.T.);
#826 = EDGE_LOOP('',(#827,#828,#829,#830));
#827 = ORIENTED_EDGE('',*,*,#668,.F.);
#828 = ORIENTED_EDGE('',*,*,#726,.F.);
#829 = ORIENTED_EDGE('',*,*,#743,.F.);
#830 = ORIENTED_EDGE('',*,*,#637,.F.);
#831 = FACE_BOUND('',#832,.T.);
#832 = EDGE_LOOP('',(#833));
#833 = ORIENTED_EDGE('',*,*,#834,.F.);
#834 = EDGE_CURVE('',#835,#835,#837,.T.);
#835 = VERTEX_POINT('',#836);
#836 = CARTESIAN_POINT('',(10.75,1.6,3.44));
#837 = CIRCLE('',#838,1.6);
#838 = AXIS2_PLACEMENT_3D('',#839,#840,#841);
#839 = CARTESIAN_POINT('',(10.75,4.773959005888E-15,3.44));
#840 = DIRECTION('',(1.,0.,0.));
#841 = DIRECTION('',(0.,1.,0.));
#842 = PLANE('',#843);
#843 = AXIS2_PLACEMENT_3D('',#844,#845,#846);
#844 = CARTESIAN_POINT('',(10.75,1.387778780781E-16,3.));
#845 = DIRECTION('',(1.,4.440892098501E-16,0.));
#846 = DIRECTION('',(-4.440892098501E-16,1.,0.));
#847 = ADVANCED_FACE('',(#848,#864),#867,.F.);
#848 = FACE_BOUND('',#849,.F.);
#849 = EDGE_LOOP('',(#850,#851,#857,#858));
#850 = ORIENTED_EDGE('',*,*,#677,.F.);
#851 = ORIENTED_EDGE('',*,*,#852,.T.);
#852 = EDGE_CURVE('',#678,#755,#853,.T.);
#853 = LINE('',#854,#855);
#854 = CARTESIAN_POINT('',(6.66,2.75,6.));
#855 = VECTOR('',#856,1.);
#856 = DIRECTION('',(-0.,-0.,-1.));
#857 = ORIENTED_EDGE('',*,*,#752,.F.);
#858 = ORIENTED_EDGE('',*,*,#859,.F.);
#859 = EDGE_CURVE('',#680,#753,#860,.T.);
#860 = LINE('',#861,#862);
#861 = CARTESIAN_POINT('',(6.66,-2.75,6.));
#862 = VECTOR('',#863,1.);
#863 = DIRECTION('',(-0.,-0.,-1.));
#864 = FACE_BOUND('',#865,.F.);
#865 = EDGE_LOOP('',(#866));
#866 = ORIENTED_EDGE('',*,*,#792,.T.);
#867 = PLANE('',#868);
#868 = AXIS2_PLACEMENT_3D('',#869,#870,#871);
#869 = CARTESIAN_POINT('',(6.66,2.75,6.));
#870 = DIRECTION('',(-1.,0.,0.));
#871 = DIRECTION('',(0.,-1.,0.));
#872 = ADVANCED_FACE('',(#873),#884,.F.);
#873 = FACE_BOUND('',#874,.F.);
#874 = EDGE_LOOP('',(#875,#876,#877,#878));
#875 = ORIENTED_EDGE('',*,*,#703,.F.);
#876 = ORIENTED_EDGE('',*,*,#859,.T.);
#877 = ORIENTED_EDGE('',*,*,#762,.F.);
#878 = ORIENTED_EDGE('',*,*,#879,.F.);
#879 = EDGE_CURVE('',#696,#763,#880,.T.);
#880 = LINE('',#881,#882);
#881 = CARTESIAN_POINT('',(9.16,-2.75,6.));
#882 = VECTOR('',#883,1.);
#883 = DIRECTION('',(-0.,-0.,-1.));
#884 = PLANE('',#885);
#885 = AXIS2_PLACEMENT_3D('',#886,#887,#888);
#886 = CARTESIAN_POINT('',(6.66,-2.75,6.));
#887 = DIRECTION('',(0.,-1.,0.));
#888 = DIRECTION('',(1.,0.,0.));
#889 = ADVANCED_FACE('',(#890,#901),#912,.F.);
#890 = FACE_BOUND('',#891,.F.);
#891 = EDGE_LOOP('',(#892,#893,#894,#895));
#892 = ORIENTED_EDGE('',*,*,#695,.F.);
#893 = ORIENTED_EDGE('',*,*,#879,.T.);
#894 = ORIENTED_EDGE('',*,*,#770,.F.);
#895 = ORIENTED_EDGE('',*,*,#896,.F.);
#896 = EDGE_CURVE('',#688,#771,#897,.T.);
#897 = LINE('',#898,#899);
#898 = CARTESIAN_POINT('',(9.16,2.75,6.));
#899 = VECTOR('',#900,1.);
#900 = DIRECTION('',(-0.,-0.,-1.));
#901 = FACE_BOUND('',#902,.F.);
#902 = EDGE_LOOP('',(#903));
#903 = ORIENTED_EDGE('',*,*,#904,.F.);
#904 = EDGE_CURVE('',#905,#905,#907,.T.);
#905 = VERTEX_POINT('',#906);
#906 = CARTESIAN_POINT('',(9.16,1.6,3.44));
#907 = CIRCLE('',#908,1.6);
#908 = AXIS2_PLACEMENT_3D('',#909,#910,#911);
#909 = CARTESIAN_POINT('',(9.16,4.773959005888E-15,3.44));
#910 = DIRECTION('',(1.,0.,0.));
#911 = DIRECTION('',(0.,1.,0.));
#912 = PLANE('',#913);
#913 = AXIS2_PLACEMENT_3D('',#914,#915,#916);
#914 = CARTESIAN_POINT('',(9.16,-2.75,6.));
#915 = DIRECTION('',(1.,0.,0.));
#916 = DIRECTION('',(0.,1.,0.));
#917 = ADVANCED_FACE('',(#918),#924,.F.);
#918 = FACE_BOUND('',#919,.F.);
#919 = EDGE_LOOP('',(#920,#921,#922,#923));
#920 = ORIENTED_EDGE('',*,*,#687,.F.);
#921 = ORIENTED_EDGE('',*,*,#896,.T.);
#922 = ORIENTED_EDGE('',*,*,#778,.F.);
#923 = ORIENTED_EDGE('',*,*,#852,.F.);
#924 = PLANE('',#925);
#925 = AXIS2_PLACEMENT_3D('',#926,#927,#928);
#926 = CARTESIAN_POINT('',(9.16,2.75,6.));
#927 = DIRECTION('',(0.,1.,0.));
#928 = DIRECTION('',(-1.,0.,0.));
#929 = ADVANCED_FACE('',(#930),#941,.F.);
#930 = FACE_BOUND('',#931,.F.);
#931 = EDGE_LOOP('',(#932,#933,#939,#940));
#932 = ORIENTED_EDGE('',*,*,#834,.F.);
#933 = ORIENTED_EDGE('',*,*,#934,.T.);
#934 = EDGE_CURVE('',#835,#905,#935,.T.);
#935 = LINE('',#936,#937);
#936 = CARTESIAN_POINT('',(10.75,1.6,3.44));
#937 = VECTOR('',#938,1.);
#938 = DIRECTION('',(-1.,-0.,-0.));
#939 = ORIENTED_EDGE('',*,*,#904,.T.);
#940 = ORIENTED_EDGE('',*,*,#934,.F.);
#941 = CYLINDRICAL_SURFACE('',#942,1.6);
#942 = AXIS2_PLACEMENT_3D('',#943,#944,#945);
#943 = CARTESIAN_POINT('',(10.75,4.773959005888E-15,3.44));
#944 = DIRECTION('',(1.,0.,0.));
#945 = DIRECTION('',(0.,1.,0.));
#946 = ( GEOMETRIC_REPRESENTATION_CONTEXT(3) 
GLOBAL_UNCERTAINTY_ASSIGNED_CONTEXT((#950)) GLOBAL_UNIT_ASSIGNED_CONTEXT
((#947,#948,#949)) REPRESENTATION_CONTEXT('Context #1',
  '3D Context with UNIT and UNCERTAINTY') );
#947 = ( LENGTH_UNIT() NAMED_UNIT(*) SI_UNIT(.MILLI.,.METRE.) );
#948 = ( NAMED_UNIT(*) PLANE_ANGLE_UNIT() SI_UNIT($,.RADIAN.) );
#949 = ( NAMED_UNIT(*) SI_UNIT($,.STERADIAN.) SOLID_ANGLE_UNIT() );
#950 = UNCERTAINTY_MEASURE_WITH_UNIT(LENGTH_MEASURE(2.E-04),#947,
  'distance_accuracy_value','confusion accuracy');
#951 = PRODUCT_RELATED_PRODUCT_CATEGORY('part',$,(#7));
#952 = MECHANICAL_DESIGN_GEOMETRIC_PRESENTATION_REPRESENTATION('',(#953)
  ,#946);
#953 = STYLED_ITEM('color',(#954),#15);
#954 = PRESENTATION_STYLE_ASSIGNMENT((#955,#961));
#955 = SURFACE_STYLE_USAGE(.BOTH.,#956);
#956 = SURFACE_SIDE_STYLE('',(#957));
#957 = SURFACE_STYLE_FILL_AREA(#958);
#958 = FILL_AREA_STYLE('',(#959));
#959 = FILL_AREA_STYLE_COLOUR('',#960);
#960 = COLOUR_RGB('',0.800000010877,0.800000010877,0.800000010877);
#961 = CURVE_STYLE('',#962,POSITIVE_LENGTH_MEASURE(0.1),#963);
#962 = DRAUGHTING_PRE_DEFINED_CURVE_FONT('continuous');
#963 = COLOUR_RGB('',9.803921802644E-02,9.803921802644E-02,
  9.803921802644E-02);
ENDSEC;
END-ISO-10303-21;
