ISO-10303-21;
HEADER;
FILE_DESCRIPTION(('FreeCAD Model'),'2;1');
FILE_NAME('Open CASCADE Shape Model','2024-10-29T12:38:58',('Author'),(
    ''),'Open CASCADE STEP processor 7.6','FreeCAD','Unknown');
FILE_SCHEMA(('AUTOMOTIVE_DESIGN { 1 0 10303 214 1 1 1 1 }'));
ENDSEC;
DATA;
#1 = APPLICATION_PROTOCOL_DEFINITION('international standard',
  'automotive_design',2000,#2);
#2 = APPLICATION_CONTEXT(
  'core data for automotive mechanical design processes');
#3 = SHAPE_DEFINITION_REPRESENTATION(#4,#10);
#4 = PRODUCT_DEFINITION_SHAPE('','',#5);
#5 = PRODUCT_DEFINITION('design','',#6,#9);
#6 = PRODUCT_DEFINITION_FORMATION('','',#7);
#7 = PRODUCT('Body','Body','',(#8));
#8 = PRODUCT_CONTEXT('',#2,'mechanical');
#9 = PRODUCT_DEFINITION_CONTEXT('part definition',#2,'design');
#10 = ADVANCED_BREP_SHAPE_REPRESENTATION('',(#11,#15),#1428);
#11 = AXIS2_PLACEMENT_3D('',#12,#13,#14);
#12 = CARTESIAN_POINT('',(0.,0.,0.));
#13 = DIRECTION('',(0.,0.,1.));
#14 = DIRECTION('',(1.,0.,-0.));
#15 = MANIFOLD_SOLID_BREP('',#16);
#16 = CLOSED_SHELL('',(#17,#105,#226,#261,#285,#309,#333,#357,#381,#405,
    #463,#491,#520,#654,#916,#947,#982,#1006,#1034,#1076,#1100,#1135,
    #1152,#1169,#1211,#1235,#1270,#1287,#1304,#1321,#1330,#1347,#1366,
    #1375,#1392,#1404,#1416));
#17 = ADVANCED_FACE('',(#18),#100,.T.);
#18 = FACE_BOUND('',#19,.T.);
#19 = EDGE_LOOP('',(#20,#30,#38,#46,#54,#62,#70,#78,#86,#94));
#20 = ORIENTED_EDGE('',*,*,#21,.F.);
#21 = EDGE_CURVE('',#22,#24,#26,.T.);
#22 = VERTEX_POINT('',#23);
#23 = CARTESIAN_POINT('',(-12.5,-14.25,0.));
#24 = VERTEX_POINT('',#25);
#25 = CARTESIAN_POINT('',(-12.5,14.25,0.));
#26 = LINE('',#27,#28);
#27 = CARTESIAN_POINT('',(-12.5,-14.25,0.));
#28 = VECTOR('',#29,1.);
#29 = DIRECTION('',(0.,1.,0.));
#30 = ORIENTED_EDGE('',*,*,#31,.T.);
#31 = EDGE_CURVE('',#22,#32,#34,.T.);
#32 = VERTEX_POINT('',#33);
#33 = CARTESIAN_POINT('',(-12.5,-14.25,7.));
#34 = LINE('',#35,#36);
#35 = CARTESIAN_POINT('',(-12.5,-14.25,0.));
#36 = VECTOR('',#37,1.);
#37 = DIRECTION('',(0.,0.,1.));
#38 = ORIENTED_EDGE('',*,*,#39,.T.);
#39 = EDGE_CURVE('',#32,#40,#42,.T.);
#40 = VERTEX_POINT('',#41);
#41 = CARTESIAN_POINT('',(-12.5,-7.75,7.));
#42 = LINE('',#43,#44);
#43 = CARTESIAN_POINT('',(-12.5,-14.25,7.));
#44 = VECTOR('',#45,1.);
#45 = DIRECTION('',(0.,1.,0.));
#46 = ORIENTED_EDGE('',*,*,#47,.F.);
#47 = EDGE_CURVE('',#48,#40,#50,.T.);
#48 = VERTEX_POINT('',#49);
#49 = CARTESIAN_POINT('',(-12.5,-7.75,17.5));
#50 = LINE('',#51,#52);
#51 = CARTESIAN_POINT('',(-12.5,-7.75,17.5));
#52 = VECTOR('',#53,1.);
#53 = DIRECTION('',(-0.,-0.,-1.));
#54 = ORIENTED_EDGE('',*,*,#55,.T.);
#55 = EDGE_CURVE('',#48,#56,#58,.T.);
#56 = VERTEX_POINT('',#57);
#57 = CARTESIAN_POINT('',(-12.5,-2.82,17.5));
#58 = LINE('',#59,#60);
#59 = CARTESIAN_POINT('',(-12.5,-14.25,17.5));
#60 = VECTOR('',#61,1.);
#61 = DIRECTION('',(0.,1.,0.));
#62 = ORIENTED_EDGE('',*,*,#63,.T.);
#63 = EDGE_CURVE('',#56,#64,#66,.T.);
#64 = VERTEX_POINT('',#65);
#65 = CARTESIAN_POINT('',(-12.5,-2.82,12.5));
#66 = LINE('',#67,#68);
#67 = CARTESIAN_POINT('',(-12.5,-2.82,17.5));
#68 = VECTOR('',#69,1.);
#69 = DIRECTION('',(-0.,-0.,-1.));
#70 = ORIENTED_EDGE('',*,*,#71,.F.);
#71 = EDGE_CURVE('',#72,#64,#74,.T.);
#72 = VERTEX_POINT('',#73);
#73 = CARTESIAN_POINT('',(-12.5,10.25,12.5));
#74 = LINE('',#75,#76);
#75 = CARTESIAN_POINT('',(-12.5,10.25,12.5));
#76 = VECTOR('',#77,1.);
#77 = DIRECTION('',(0.,-1.,0.));
#78 = ORIENTED_EDGE('',*,*,#79,.F.);
#79 = EDGE_CURVE('',#80,#72,#82,.T.);
#80 = VERTEX_POINT('',#81);
#81 = CARTESIAN_POINT('',(-12.5,10.25,17.5));
#82 = LINE('',#83,#84);
#83 = CARTESIAN_POINT('',(-12.5,10.25,17.5));
#84 = VECTOR('',#85,1.);
#85 = DIRECTION('',(-0.,-0.,-1.));
#86 = ORIENTED_EDGE('',*,*,#87,.T.);
#87 = EDGE_CURVE('',#80,#88,#90,.T.);
#88 = VERTEX_POINT('',#89);
#89 = CARTESIAN_POINT('',(-12.5,14.25,17.5));
#90 = LINE('',#91,#92);
#91 = CARTESIAN_POINT('',(-12.5,-14.25,17.5));
#92 = VECTOR('',#93,1.);
#93 = DIRECTION('',(0.,1.,0.));
#94 = ORIENTED_EDGE('',*,*,#95,.F.);
#95 = EDGE_CURVE('',#24,#88,#96,.T.);
#96 = LINE('',#97,#98);
#97 = CARTESIAN_POINT('',(-12.5,14.25,0.));
#98 = VECTOR('',#99,1.);
#99 = DIRECTION('',(0.,0.,1.));
#100 = PLANE('',#101);
#101 = AXIS2_PLACEMENT_3D('',#102,#103,#104);
#102 = CARTESIAN_POINT('',(-12.5,-14.25,0.));
#103 = DIRECTION('',(-1.,0.,0.));
#104 = DIRECTION('',(0.,1.,0.));
#105 = ADVANCED_FACE('',(#106,#131,#142,#153,#187),#221,.F.);
#106 = FACE_BOUND('',#107,.F.);
#107 = EDGE_LOOP('',(#108,#109,#117,#125));
#108 = ORIENTED_EDGE('',*,*,#21,.F.);
#109 = ORIENTED_EDGE('',*,*,#110,.F.);
#110 = EDGE_CURVE('',#111,#22,#113,.T.);
#111 = VERTEX_POINT('',#112);
#112 = CARTESIAN_POINT('',(12.5,-14.25,0.));
#113 = LINE('',#114,#115);
#114 = CARTESIAN_POINT('',(12.5,-14.25,0.));
#115 = VECTOR('',#116,1.);
#116 = DIRECTION('',(-1.,0.,0.));
#117 = ORIENTED_EDGE('',*,*,#118,.F.);
#118 = EDGE_CURVE('',#119,#111,#121,.T.);
#119 = VERTEX_POINT('',#120);
#120 = CARTESIAN_POINT('',(12.5,14.25,0.));
#121 = LINE('',#122,#123);
#122 = CARTESIAN_POINT('',(12.5,14.25,0.));
#123 = VECTOR('',#124,1.);
#124 = DIRECTION('',(0.,-1.,0.));
#125 = ORIENTED_EDGE('',*,*,#126,.F.);
#126 = EDGE_CURVE('',#24,#119,#127,.T.);
#127 = LINE('',#128,#129);
#128 = CARTESIAN_POINT('',(-12.5,14.25,0.));
#129 = VECTOR('',#130,1.);
#130 = DIRECTION('',(1.,0.,0.));
#131 = FACE_BOUND('',#132,.F.);
#132 = EDGE_LOOP('',(#133));
#133 = ORIENTED_EDGE('',*,*,#134,.T.);
#134 = EDGE_CURVE('',#135,#135,#137,.T.);
#135 = VERTEX_POINT('',#136);
#136 = CARTESIAN_POINT('',(3.,-3.35,0.));
#137 = CIRCLE('',#138,3.);
#138 = AXIS2_PLACEMENT_3D('',#139,#140,#141);
#139 = CARTESIAN_POINT('',(0.,-3.35,0.));
#140 = DIRECTION('',(0.,0.,-1.));
#141 = DIRECTION('',(1.,0.,0.));
#142 = FACE_BOUND('',#143,.F.);
#143 = EDGE_LOOP('',(#144));
#144 = ORIENTED_EDGE('',*,*,#145,.T.);
#145 = EDGE_CURVE('',#146,#146,#148,.T.);
#146 = VERTEX_POINT('',#147);
#147 = CARTESIAN_POINT('',(3.,6.25,0.));
#148 = CIRCLE('',#149,3.);
#149 = AXIS2_PLACEMENT_3D('',#150,#151,#152);
#150 = CARTESIAN_POINT('',(0.,6.25,0.));
#151 = DIRECTION('',(0.,0.,-1.));
#152 = DIRECTION('',(1.,0.,0.));
#153 = FACE_BOUND('',#154,.F.);
#154 = EDGE_LOOP('',(#155,#165,#173,#181));
#155 = ORIENTED_EDGE('',*,*,#156,.F.);
#156 = EDGE_CURVE('',#157,#159,#161,.T.);
#157 = VERTEX_POINT('',#158);
#158 = CARTESIAN_POINT('',(-3.1,12.75,0.));
#159 = VERTEX_POINT('',#160);
#160 = CARTESIAN_POINT('',(-3.1,10.25,0.));
#161 = LINE('',#162,#163);
#162 = CARTESIAN_POINT('',(-3.1,12.75,0.));
#163 = VECTOR('',#164,1.);
#164 = DIRECTION('',(0.,-1.,0.));
#165 = ORIENTED_EDGE('',*,*,#166,.F.);
#166 = EDGE_CURVE('',#167,#157,#169,.T.);
#167 = VERTEX_POINT('',#168);
#168 = CARTESIAN_POINT('',(3.1,12.75,0.));
#169 = LINE('',#170,#171);
#170 = CARTESIAN_POINT('',(3.1,12.75,0.));
#171 = VECTOR('',#172,1.);
#172 = DIRECTION('',(-1.,0.,0.));
#173 = ORIENTED_EDGE('',*,*,#174,.F.);
#174 = EDGE_CURVE('',#175,#167,#177,.T.);
#175 = VERTEX_POINT('',#176);
#176 = CARTESIAN_POINT('',(3.1,10.25,0.));
#177 = LINE('',#178,#179);
#178 = CARTESIAN_POINT('',(3.1,10.25,0.));
#179 = VECTOR('',#180,1.);
#180 = DIRECTION('',(0.,1.,0.));
#181 = ORIENTED_EDGE('',*,*,#182,.F.);
#182 = EDGE_CURVE('',#159,#175,#183,.T.);
#183 = LINE('',#184,#185);
#184 = CARTESIAN_POINT('',(-3.1,10.25,0.));
#185 = VECTOR('',#186,1.);
#186 = DIRECTION('',(1.,0.,0.));
#187 = FACE_BOUND('',#188,.F.);
#188 = EDGE_LOOP('',(#189,#199,#207,#215));
#189 = ORIENTED_EDGE('',*,*,#190,.F.);
#190 = EDGE_CURVE('',#191,#193,#195,.T.);
#191 = VERTEX_POINT('',#192);
#192 = CARTESIAN_POINT('',(8.13,9.35,0.));
#193 = VERTEX_POINT('',#194);
#194 = CARTESIAN_POINT('',(8.13,3.15,0.));
#195 = LINE('',#196,#197);
#196 = CARTESIAN_POINT('',(8.13,9.35,0.));
#197 = VECTOR('',#198,1.);
#198 = DIRECTION('',(0.,-1.,0.));
#199 = ORIENTED_EDGE('',*,*,#200,.F.);
#200 = EDGE_CURVE('',#201,#191,#203,.T.);
#201 = VERTEX_POINT('',#202);
#202 = CARTESIAN_POINT('',(10.63,9.35,0.));
#203 = LINE('',#204,#205);
#204 = CARTESIAN_POINT('',(10.63,9.35,0.));
#205 = VECTOR('',#206,1.);
#206 = DIRECTION('',(-1.,0.,0.));
#207 = ORIENTED_EDGE('',*,*,#208,.F.);
#208 = EDGE_CURVE('',#209,#201,#211,.T.);
#209 = VERTEX_POINT('',#210);
#210 = CARTESIAN_POINT('',(10.63,3.15,0.));
#211 = LINE('',#212,#213);
#212 = CARTESIAN_POINT('',(10.63,3.15,0.));
#213 = VECTOR('',#214,1.);
#214 = DIRECTION('',(0.,1.,0.));
#215 = ORIENTED_EDGE('',*,*,#216,.F.);
#216 = EDGE_CURVE('',#193,#209,#217,.T.);
#217 = LINE('',#218,#219);
#218 = CARTESIAN_POINT('',(8.13,3.15,0.));
#219 = VECTOR('',#220,1.);
#220 = DIRECTION('',(1.,0.,0.));
#221 = PLANE('',#222);
#222 = AXIS2_PLACEMENT_3D('',#223,#224,#225);
#223 = CARTESIAN_POINT('',(0.,0.,0.));
#224 = DIRECTION('',(0.,0.,1.));
#225 = DIRECTION('',(1.,0.,0.));
#226 = ADVANCED_FACE('',(#227,#245),#256,.T.);
#227 = FACE_BOUND('',#228,.T.);
#228 = EDGE_LOOP('',(#229,#230,#238,#244));
#229 = ORIENTED_EDGE('',*,*,#95,.T.);
#230 = ORIENTED_EDGE('',*,*,#231,.T.);
#231 = EDGE_CURVE('',#88,#232,#234,.T.);
#232 = VERTEX_POINT('',#233);
#233 = CARTESIAN_POINT('',(12.5,14.25,17.5));
#234 = LINE('',#235,#236);
#235 = CARTESIAN_POINT('',(-12.5,14.25,17.5));
#236 = VECTOR('',#237,1.);
#237 = DIRECTION('',(1.,0.,0.));
#238 = ORIENTED_EDGE('',*,*,#239,.F.);
#239 = EDGE_CURVE('',#119,#232,#240,.T.);
#240 = LINE('',#241,#242);
#241 = CARTESIAN_POINT('',(12.5,14.25,0.));
#242 = VECTOR('',#243,1.);
#243 = DIRECTION('',(0.,0.,1.));
#244 = ORIENTED_EDGE('',*,*,#126,.F.);
#245 = FACE_BOUND('',#246,.T.);
#246 = EDGE_LOOP('',(#247));
#247 = ORIENTED_EDGE('',*,*,#248,.F.);
#248 = EDGE_CURVE('',#249,#249,#251,.T.);
#249 = VERTEX_POINT('',#250);
#250 = CARTESIAN_POINT('',(-1.75,14.25,4.));
#251 = CIRCLE('',#252,1.75);
#252 = AXIS2_PLACEMENT_3D('',#253,#254,#255);
#253 = CARTESIAN_POINT('',(0.,14.25,4.));
#254 = DIRECTION('',(0.,1.,-0.));
#255 = DIRECTION('',(-1.,0.,0.));
#256 = PLANE('',#257);
#257 = AXIS2_PLACEMENT_3D('',#258,#259,#260);
#258 = CARTESIAN_POINT('',(-12.5,14.25,0.));
#259 = DIRECTION('',(0.,1.,0.));
#260 = DIRECTION('',(1.,0.,0.));
#261 = ADVANCED_FACE('',(#262),#280,.T.);
#262 = FACE_BOUND('',#263,.T.);
#263 = EDGE_LOOP('',(#264,#265,#273,#279));
#264 = ORIENTED_EDGE('',*,*,#87,.F.);
#265 = ORIENTED_EDGE('',*,*,#266,.F.);
#266 = EDGE_CURVE('',#267,#80,#269,.T.);
#267 = VERTEX_POINT('',#268);
#268 = CARTESIAN_POINT('',(12.5,10.25,17.5));
#269 = LINE('',#270,#271);
#270 = CARTESIAN_POINT('',(12.5,10.25,17.5));
#271 = VECTOR('',#272,1.);
#272 = DIRECTION('',(-1.,0.,0.));
#273 = ORIENTED_EDGE('',*,*,#274,.F.);
#274 = EDGE_CURVE('',#232,#267,#275,.T.);
#275 = LINE('',#276,#277);
#276 = CARTESIAN_POINT('',(12.5,14.25,17.5));
#277 = VECTOR('',#278,1.);
#278 = DIRECTION('',(0.,-1.,0.));
#279 = ORIENTED_EDGE('',*,*,#231,.F.);
#280 = PLANE('',#281);
#281 = AXIS2_PLACEMENT_3D('',#282,#283,#284);
#282 = CARTESIAN_POINT('',(0.,0.,17.5));
#283 = DIRECTION('',(0.,0.,1.));
#284 = DIRECTION('',(1.,0.,0.));
#285 = ADVANCED_FACE('',(#286),#304,.F.);
#286 = FACE_BOUND('',#287,.F.);
#287 = EDGE_LOOP('',(#288,#296,#302,#303));
#288 = ORIENTED_EDGE('',*,*,#289,.T.);
#289 = EDGE_CURVE('',#267,#290,#292,.T.);
#290 = VERTEX_POINT('',#291);
#291 = CARTESIAN_POINT('',(12.5,10.25,12.5));
#292 = LINE('',#293,#294);
#293 = CARTESIAN_POINT('',(12.5,10.25,17.5));
#294 = VECTOR('',#295,1.);
#295 = DIRECTION('',(-0.,-0.,-1.));
#296 = ORIENTED_EDGE('',*,*,#297,.T.);
#297 = EDGE_CURVE('',#290,#72,#298,.T.);
#298 = LINE('',#299,#300);
#299 = CARTESIAN_POINT('',(12.5,10.25,12.5));
#300 = VECTOR('',#301,1.);
#301 = DIRECTION('',(-1.,0.,0.));
#302 = ORIENTED_EDGE('',*,*,#79,.F.);
#303 = ORIENTED_EDGE('',*,*,#266,.F.);
#304 = PLANE('',#305);
#305 = AXIS2_PLACEMENT_3D('',#306,#307,#308);
#306 = CARTESIAN_POINT('',(12.5,10.25,17.5));
#307 = DIRECTION('',(0.,1.,0.));
#308 = DIRECTION('',(-1.,0.,0.));
#309 = ADVANCED_FACE('',(#310),#328,.T.);
#310 = FACE_BOUND('',#311,.T.);
#311 = EDGE_LOOP('',(#312,#320,#326,#327));
#312 = ORIENTED_EDGE('',*,*,#313,.T.);
#313 = EDGE_CURVE('',#64,#314,#316,.T.);
#314 = VERTEX_POINT('',#315);
#315 = CARTESIAN_POINT('',(12.5,-2.82,12.5));
#316 = LINE('',#317,#318);
#317 = CARTESIAN_POINT('',(-12.5,-2.82,12.5));
#318 = VECTOR('',#319,1.);
#319 = DIRECTION('',(1.,0.,0.));
#320 = ORIENTED_EDGE('',*,*,#321,.T.);
#321 = EDGE_CURVE('',#314,#290,#322,.T.);
#322 = LINE('',#323,#324);
#323 = CARTESIAN_POINT('',(12.5,-2.82,12.5));
#324 = VECTOR('',#325,1.);
#325 = DIRECTION('',(0.,1.,0.));
#326 = ORIENTED_EDGE('',*,*,#297,.T.);
#327 = ORIENTED_EDGE('',*,*,#71,.T.);
#328 = PLANE('',#329);
#329 = AXIS2_PLACEMENT_3D('',#330,#331,#332);
#330 = CARTESIAN_POINT('',(0.,3.715,12.5));
#331 = DIRECTION('',(0.,0.,1.));
#332 = DIRECTION('',(1.,0.,0.));
#333 = ADVANCED_FACE('',(#334),#352,.F.);
#334 = FACE_BOUND('',#335,.F.);
#335 = EDGE_LOOP('',(#336,#337,#338,#346));
#336 = ORIENTED_EDGE('',*,*,#63,.T.);
#337 = ORIENTED_EDGE('',*,*,#313,.T.);
#338 = ORIENTED_EDGE('',*,*,#339,.F.);
#339 = EDGE_CURVE('',#340,#314,#342,.T.);
#340 = VERTEX_POINT('',#341);
#341 = CARTESIAN_POINT('',(12.5,-2.82,17.5));
#342 = LINE('',#343,#344);
#343 = CARTESIAN_POINT('',(12.5,-2.82,17.5));
#344 = VECTOR('',#345,1.);
#345 = DIRECTION('',(-0.,-0.,-1.));
#346 = ORIENTED_EDGE('',*,*,#347,.F.);
#347 = EDGE_CURVE('',#56,#340,#348,.T.);
#348 = LINE('',#349,#350);
#349 = CARTESIAN_POINT('',(-12.5,-2.82,17.5));
#350 = VECTOR('',#351,1.);
#351 = DIRECTION('',(1.,0.,0.));
#352 = PLANE('',#353);
#353 = AXIS2_PLACEMENT_3D('',#354,#355,#356);
#354 = CARTESIAN_POINT('',(-12.5,-2.82,17.5));
#355 = DIRECTION('',(0.,-1.,0.));
#356 = DIRECTION('',(1.,0.,0.));
#357 = ADVANCED_FACE('',(#358),#376,.T.);
#358 = FACE_BOUND('',#359,.T.);
#359 = EDGE_LOOP('',(#360,#361,#369,#375));
#360 = ORIENTED_EDGE('',*,*,#55,.F.);
#361 = ORIENTED_EDGE('',*,*,#362,.T.);
#362 = EDGE_CURVE('',#48,#363,#365,.T.);
#363 = VERTEX_POINT('',#364);
#364 = CARTESIAN_POINT('',(12.5,-7.75,17.5));
#365 = LINE('',#366,#367);
#366 = CARTESIAN_POINT('',(-12.5,-7.75,17.5));
#367 = VECTOR('',#368,1.);
#368 = DIRECTION('',(1.,0.,0.));
#369 = ORIENTED_EDGE('',*,*,#370,.F.);
#370 = EDGE_CURVE('',#340,#363,#371,.T.);
#371 = LINE('',#372,#373);
#372 = CARTESIAN_POINT('',(12.5,14.25,17.5));
#373 = VECTOR('',#374,1.);
#374 = DIRECTION('',(0.,-1.,0.));
#375 = ORIENTED_EDGE('',*,*,#347,.F.);
#376 = PLANE('',#377);
#377 = AXIS2_PLACEMENT_3D('',#378,#379,#380);
#378 = CARTESIAN_POINT('',(0.,0.,17.5));
#379 = DIRECTION('',(0.,0.,1.));
#380 = DIRECTION('',(1.,0.,0.));
#381 = ADVANCED_FACE('',(#382),#400,.T.);
#382 = FACE_BOUND('',#383,.T.);
#383 = EDGE_LOOP('',(#384,#385,#393,#399));
#384 = ORIENTED_EDGE('',*,*,#47,.T.);
#385 = ORIENTED_EDGE('',*,*,#386,.T.);
#386 = EDGE_CURVE('',#40,#387,#389,.T.);
#387 = VERTEX_POINT('',#388);
#388 = CARTESIAN_POINT('',(12.5,-7.75,7.));
#389 = LINE('',#390,#391);
#390 = CARTESIAN_POINT('',(-12.5,-7.75,7.));
#391 = VECTOR('',#392,1.);
#392 = DIRECTION('',(1.,0.,0.));
#393 = ORIENTED_EDGE('',*,*,#394,.F.);
#394 = EDGE_CURVE('',#363,#387,#395,.T.);
#395 = LINE('',#396,#397);
#396 = CARTESIAN_POINT('',(12.5,-7.75,17.5));
#397 = VECTOR('',#398,1.);
#398 = DIRECTION('',(-0.,-0.,-1.));
#399 = ORIENTED_EDGE('',*,*,#362,.F.);
#400 = PLANE('',#401);
#401 = AXIS2_PLACEMENT_3D('',#402,#403,#404);
#402 = CARTESIAN_POINT('',(-12.5,-7.75,17.5));
#403 = DIRECTION('',(0.,-1.,0.));
#404 = DIRECTION('',(1.,0.,0.));
#405 = ADVANCED_FACE('',(#406,#424),#458,.T.);
#406 = FACE_BOUND('',#407,.T.);
#407 = EDGE_LOOP('',(#408,#416,#422,#423));
#408 = ORIENTED_EDGE('',*,*,#409,.F.);
#409 = EDGE_CURVE('',#410,#32,#412,.T.);
#410 = VERTEX_POINT('',#411);
#411 = CARTESIAN_POINT('',(12.5,-14.25,7.));
#412 = LINE('',#413,#414);
#413 = CARTESIAN_POINT('',(12.5,-14.25,7.));
#414 = VECTOR('',#415,1.);
#415 = DIRECTION('',(-1.,0.,0.));
#416 = ORIENTED_EDGE('',*,*,#417,.F.);
#417 = EDGE_CURVE('',#387,#410,#418,.T.);
#418 = LINE('',#419,#420);
#419 = CARTESIAN_POINT('',(12.5,-7.75,7.));
#420 = VECTOR('',#421,1.);
#421 = DIRECTION('',(0.,-1.,0.));
#422 = ORIENTED_EDGE('',*,*,#386,.F.);
#423 = ORIENTED_EDGE('',*,*,#39,.F.);
#424 = FACE_BOUND('',#425,.T.);
#425 = EDGE_LOOP('',(#426,#436,#444,#452));
#426 = ORIENTED_EDGE('',*,*,#427,.T.);
#427 = EDGE_CURVE('',#428,#430,#432,.T.);
#428 = VERTEX_POINT('',#429);
#429 = CARTESIAN_POINT('',(3.1,-12.38,7.));
#430 = VERTEX_POINT('',#431);
#431 = CARTESIAN_POINT('',(-3.1,-12.38,7.));
#432 = LINE('',#433,#434);
#433 = CARTESIAN_POINT('',(3.1,-12.38,7.));
#434 = VECTOR('',#435,1.);
#435 = DIRECTION('',(-1.,0.,0.));
#436 = ORIENTED_EDGE('',*,*,#437,.T.);
#437 = EDGE_CURVE('',#430,#438,#440,.T.);
#438 = VERTEX_POINT('',#439);
#439 = CARTESIAN_POINT('',(-3.1,-9.88,7.));
#440 = LINE('',#441,#442);
#441 = CARTESIAN_POINT('',(-3.1,-12.38,7.));
#442 = VECTOR('',#443,1.);
#443 = DIRECTION('',(0.,1.,0.));
#444 = ORIENTED_EDGE('',*,*,#445,.T.);
#445 = EDGE_CURVE('',#438,#446,#448,.T.);
#446 = VERTEX_POINT('',#447);
#447 = CARTESIAN_POINT('',(3.1,-9.88,7.));
#448 = LINE('',#449,#450);
#449 = CARTESIAN_POINT('',(-3.1,-9.88,7.));
#450 = VECTOR('',#451,1.);
#451 = DIRECTION('',(1.,0.,0.));
#452 = ORIENTED_EDGE('',*,*,#453,.T.);
#453 = EDGE_CURVE('',#446,#428,#454,.T.);
#454 = LINE('',#455,#456);
#455 = CARTESIAN_POINT('',(3.1,-9.88,7.));
#456 = VECTOR('',#457,1.);
#457 = DIRECTION('',(0.,-1.,0.));
#458 = PLANE('',#459);
#459 = AXIS2_PLACEMENT_3D('',#460,#461,#462);
#460 = CARTESIAN_POINT('',(0.,-11.,7.));
#461 = DIRECTION('',(0.,0.,1.));
#462 = DIRECTION('',(1.,0.,0.));
#463 = ADVANCED_FACE('',(#464,#475),#486,.T.);
#464 = FACE_BOUND('',#465,.T.);
#465 = EDGE_LOOP('',(#466,#467,#473,#474));
#466 = ORIENTED_EDGE('',*,*,#110,.F.);
#467 = ORIENTED_EDGE('',*,*,#468,.T.);
#468 = EDGE_CURVE('',#111,#410,#469,.T.);
#469 = LINE('',#470,#471);
#470 = CARTESIAN_POINT('',(12.5,-14.25,0.));
#471 = VECTOR('',#472,1.);
#472 = DIRECTION('',(0.,0.,1.));
#473 = ORIENTED_EDGE('',*,*,#409,.T.);
#474 = ORIENTED_EDGE('',*,*,#31,.F.);
#475 = FACE_BOUND('',#476,.T.);
#476 = EDGE_LOOP('',(#477));
#477 = ORIENTED_EDGE('',*,*,#478,.F.);
#478 = EDGE_CURVE('',#479,#479,#481,.T.);
#479 = VERTEX_POINT('',#480);
#480 = CARTESIAN_POINT('',(1.75,-14.25,4.));
#481 = CIRCLE('',#482,1.75);
#482 = AXIS2_PLACEMENT_3D('',#483,#484,#485);
#483 = CARTESIAN_POINT('',(0.,-14.25,4.));
#484 = DIRECTION('',(0.,-1.,0.));
#485 = DIRECTION('',(1.,0.,0.));
#486 = PLANE('',#487);
#487 = AXIS2_PLACEMENT_3D('',#488,#489,#490);
#488 = CARTESIAN_POINT('',(12.5,-14.25,0.));
#489 = DIRECTION('',(0.,-1.,0.));
#490 = DIRECTION('',(-1.,0.,0.));
#491 = ADVANCED_FACE('',(#492,#504),#515,.T.);
#492 = FACE_BOUND('',#493,.T.);
#493 = EDGE_LOOP('',(#494,#495,#496,#497,#498,#499,#500,#501,#502,#503)
  );
#494 = ORIENTED_EDGE('',*,*,#118,.F.);
#495 = ORIENTED_EDGE('',*,*,#239,.T.);
#496 = ORIENTED_EDGE('',*,*,#274,.T.);
#497 = ORIENTED_EDGE('',*,*,#289,.T.);
#498 = ORIENTED_EDGE('',*,*,#321,.F.);
#499 = ORIENTED_EDGE('',*,*,#339,.F.);
#500 = ORIENTED_EDGE('',*,*,#370,.T.);
#501 = ORIENTED_EDGE('',*,*,#394,.T.);
#502 = ORIENTED_EDGE('',*,*,#417,.T.);
#503 = ORIENTED_EDGE('',*,*,#468,.F.);
#504 = FACE_BOUND('',#505,.T.);
#505 = EDGE_LOOP('',(#506));
#506 = ORIENTED_EDGE('',*,*,#507,.F.);
#507 = EDGE_CURVE('',#508,#508,#510,.T.);
#508 = VERTEX_POINT('',#509);
#509 = CARTESIAN_POINT('',(12.5,8.,4.));
#510 = CIRCLE('',#511,1.75);
#511 = AXIS2_PLACEMENT_3D('',#512,#513,#514);
#512 = CARTESIAN_POINT('',(12.5,6.25,4.));
#513 = DIRECTION('',(1.,0.,0.));
#514 = DIRECTION('',(0.,1.,0.));
#515 = PLANE('',#516);
#516 = AXIS2_PLACEMENT_3D('',#517,#518,#519);
#517 = CARTESIAN_POINT('',(12.5,14.25,0.));
#518 = DIRECTION('',(1.,0.,0.));
#519 = DIRECTION('',(0.,-1.,0.));
#520 = ADVANCED_FACE('',(#521,#540),#649,.F.);
#521 = FACE_BOUND('',#522,.F.);
#522 = EDGE_LOOP('',(#523,#524,#532,#539));
#523 = ORIENTED_EDGE('',*,*,#134,.F.);
#524 = ORIENTED_EDGE('',*,*,#525,.T.);
#525 = EDGE_CURVE('',#135,#526,#528,.T.);
#526 = VERTEX_POINT('',#527);
#527 = CARTESIAN_POINT('',(3.,-3.35,7.5));
#528 = LINE('',#529,#530);
#529 = CARTESIAN_POINT('',(3.,-3.35,0.));
#530 = VECTOR('',#531,1.);
#531 = DIRECTION('',(0.,0.,1.));
#532 = ORIENTED_EDGE('',*,*,#533,.T.);
#533 = EDGE_CURVE('',#526,#526,#534,.T.);
#534 = CIRCLE('',#535,3.);
#535 = AXIS2_PLACEMENT_3D('',#536,#537,#538);
#536 = CARTESIAN_POINT('',(0.,-3.35,7.5));
#537 = DIRECTION('',(0.,0.,-1.));
#538 = DIRECTION('',(1.,0.,0.));
#539 = ORIENTED_EDGE('',*,*,#525,.F.);
#540 = FACE_BOUND('',#541,.F.);
#541 = EDGE_LOOP('',(#542));
#542 = ORIENTED_EDGE('',*,*,#543,.F.);
#543 = EDGE_CURVE('',#544,#544,#546,.T.);
#544 = VERTEX_POINT('',#545);
#545 = CARTESIAN_POINT('',(1.75,-5.786698586202,4.));
#546 = B_SPLINE_CURVE_WITH_KNOTS('',6,(#547,#548,#549,#550,#551,#552,
    #553,#554,#555,#556,#557,#558,#559,#560,#561,#562,#563,#564,#565,
    #566,#567,#568,#569,#570,#571,#572,#573,#574,#575,#576,#577,#578,
    #579,#580,#581,#582,#583,#584,#585,#586,#587,#588,#589,#590,#591,
    #592,#593,#594,#595,#596,#597,#598,#599,#600,#601,#602,#603,#604,
    #605,#606,#607,#608,#609,#610,#611,#612,#613,#614,#615,#616,#617,
    #618,#619,#620,#621,#622,#623,#624,#625,#626,#627,#628,#629,#630,
    #631,#632,#633,#634,#635,#636,#637,#638,#639,#640,#641,#642,#643,
    #644,#645,#646,#647,#648),.UNSPECIFIED.,.T.,.F.,(7,5,5,5,5,5,5,5,5,5
    ,5,5,5,5,5,5,5,5,5,5,7),(0.,5.072928264799E-02,0.100102515341,
    0.146379928857,0.189991704252,0.249630355979,0.311020124863,
    0.354771174825,0.399209324375,0.448853016036,0.499368992005,
    0.550123756864,0.599521790601,0.663068462634,0.710148304462,
    0.749238359983,0.810879599683,0.854809867004,0.899430048477,
    0.949277095516,1.),.UNSPECIFIED.);
#547 = CARTESIAN_POINT('',(1.75,-5.786698586202,4.));
#548 = CARTESIAN_POINT('',(1.75,-5.786698586202,4.085844515566));
#549 = CARTESIAN_POINT('',(1.744946801599,-5.790327713353,4.171622213765
    ));
#550 = CARTESIAN_POINT('',(1.734855003478,-5.797575505005,4.256995465041
    ));
#551 = CARTESIAN_POINT('',(1.719762879328,-5.80829527485,4.341620065825)
  );
#552 = CARTESIAN_POINT('',(1.699736500087,-5.82220371461,4.425129139398)
  );
#553 = CARTESIAN_POINT('',(1.650749939149,-5.855169212978,4.586921187692
    ));
#554 = CARTESIAN_POINT('',(1.622037639452,-5.874082324954,4.66530191736)
  );
#555 = CARTESIAN_POINT('',(1.588832051589,-5.895333086614,4.742100951933
    ));
#556 = CARTESIAN_POINT('',(1.551167750604,-5.918559674089,4.81712735272)
  );
#557 = CARTESIAN_POINT('',(1.50906901748,-5.94336613109,4.890159440922)
  );
#558 = CARTESIAN_POINT('',(1.41897205585,-5.993673741543,5.027287735582)
  );
#559 = CARTESIAN_POINT('',(1.37149087028,-6.019044123032,5.091685579745)
  );
#560 = CARTESIAN_POINT('',(1.32008174727,-6.045130855086,5.154000732943)
  );
#561 = CARTESIAN_POINT('',(1.264690822784,-6.071602826493,5.214045037158
    ));
#562 = CARTESIAN_POINT('',(1.205250844792,-6.098107602389,5.27157587103)
  );
#563 = CARTESIAN_POINT('',(1.081779563122,-6.148919312127,5.377860909508
    ));
#564 = CARTESIAN_POINT('',(1.018170836833,-6.173280892474,5.426963229319
    ));
#565 = CARTESIAN_POINT('',(0.950830360056,-6.197014759912,5.473302629759
    ));
#566 = CARTESIAN_POINT('',(0.879750123197,-6.219757859507,5.516537061118
    ));
#567 = CARTESIAN_POINT('',(0.804947064345,-6.241124837214,5.556278097141
    ));
#568 = CARTESIAN_POINT('',(0.619148961757,-6.287497133529,5.641057581962
    ));
#569 = CARTESIAN_POINT('',(0.504206024008,-6.311141213045,5.683017558144
    ));
#570 = CARTESIAN_POINT('',(0.383068800865,-6.330151307036,5.715972773921
    ));
#571 = CARTESIAN_POINT('',(0.257423172772,-6.343332513483,5.73857025683)
  );
#572 = CARTESIAN_POINT('',(0.129105899345,-6.35,5.75));
#573 = CARTESIAN_POINT('',(-0.132896722058,-6.35,5.75));
#574 = CARTESIAN_POINT('',(-0.264886820739,-6.342935194432,5.73788920454
    ));
#575 = CARTESIAN_POINT('',(-0.393960211606,-6.328987597699,
    5.713977605534));
#576 = CARTESIAN_POINT('',(-0.518162614539,-6.308919201183,5.67916356737
    ));
#577 = CARTESIAN_POINT('',(-0.635711610708,-6.28404608962,5.634928085672
    ));
#578 = CARTESIAN_POINT('',(-0.823082108991,-6.236003216674,
    5.546758221828));
#579 = CARTESIAN_POINT('',(-0.897335535837,-6.214288905142,
    5.506190368874));
#580 = CARTESIAN_POINT('',(-0.967837230643,-6.191256366471,
    5.462178650411));
#581 = CARTESIAN_POINT('',(-1.034579035458,-6.167289942788,
    5.415106617878));
#582 = CARTESIAN_POINT('',(-1.097576321153,-6.142750452728,
    5.365309283641));
#583 = CARTESIAN_POINT('',(-1.217080487692,-6.092804160462,
    5.260022199637));
#584 = CARTESIAN_POINT('',(-1.273508257176,-6.067373848675,
    5.204421661026));
#585 = CARTESIAN_POINT('',(-1.326213852939,-6.042012414132,
    5.146531884716));
#586 = CARTESIAN_POINT('',(-1.375255735906,-6.017029964449,
    5.086563434342));
#587 = CARTESIAN_POINT('',(-1.420680564086,-5.992718880334,5.02468132053
    ));
#588 = CARTESIAN_POINT('',(-1.509261851036,-5.943259438443,
    4.889872701107));
#589 = CARTESIAN_POINT('',(-1.551551766478,-5.918334000933,
    4.816466898855));
#590 = CARTESIAN_POINT('',(-1.5893628753,-5.895006019145,4.741047758479)
  );
#591 = CARTESIAN_POINT('',(-1.622670332579,-5.873677449982,
    4.663840526672));
#592 = CARTESIAN_POINT('',(-1.651438899288,-5.854715293095,
    4.585039132253));
#593 = CARTESIAN_POINT('',(-1.700205633001,-5.821877837887,
    4.423167739817));
#594 = CARTESIAN_POINT('',(-1.720045688503,-5.808094392572,4.34003044019
    ));
#595 = CARTESIAN_POINT('',(-1.734996918386,-5.797473583417,
    4.255792502328));
#596 = CARTESIAN_POINT('',(-1.744994237324,-5.790293645861,
    4.170815951753));
#597 = CARTESIAN_POINT('',(-1.75,-5.786698586202,4.085440637888));
#598 = CARTESIAN_POINT('',(-1.75,-5.786698586202,3.914155484434));
#599 = CARTESIAN_POINT('',(-1.744946801599,-5.790327713353,
    3.828377786235));
#600 = CARTESIAN_POINT('',(-1.734855003478,-5.797575505005,
    3.743004534959));
#601 = CARTESIAN_POINT('',(-1.719762879328,-5.80829527485,3.658379934175
    ));
#602 = CARTESIAN_POINT('',(-1.699736500087,-5.82220371461,3.574870860602
    ));
#603 = CARTESIAN_POINT('',(-1.650749939149,-5.855169212978,
    3.413078812308));
#604 = CARTESIAN_POINT('',(-1.622037639452,-5.874082324954,3.33469808264
    ));
#605 = CARTESIAN_POINT('',(-1.588832051589,-5.895333086614,
    3.257899048067));
#606 = CARTESIAN_POINT('',(-1.551167750604,-5.918559674089,3.18287264728
    ));
#607 = CARTESIAN_POINT('',(-1.50906901748,-5.94336613109,3.109840559078)
  );
#608 = CARTESIAN_POINT('',(-1.402735540183,-6.00273975543,2.948000157989
    ));
#609 = CARTESIAN_POINT('',(-1.335580181196,-6.038086190019,
    2.860613191873));
#610 = CARTESIAN_POINT('',(-1.261010676552,-6.074557480109,2.77725265482
    ));
#611 = CARTESIAN_POINT('',(-1.178847433867,-6.111291412349,
    2.698433604373));
#612 = CARTESIAN_POINT('',(-1.088887768535,-6.1473351912,2.6248872278));
#613 = CARTESIAN_POINT('',(-0.918437219732,-6.206987841323,
    2.507780568329));
#614 = CARTESIAN_POINT('',(-0.841407427813,-6.231442964072,
    2.461301991131));
#615 = CARTESIAN_POINT('',(-0.759997158691,-6.254447725789,
    2.418751970282));
#616 = CARTESIAN_POINT('',(-0.674370718073,-6.275469233237,
    2.380699324555));
#617 = CARTESIAN_POINT('',(-0.584749961961,-6.293980065397,
    2.347721529815));
#618 = CARTESIAN_POINT('',(-0.41392407946,-6.322345479786,2.2977408693)
  );
#619 = CARTESIAN_POINT('',(-0.333876207747,-6.333135460232,
    2.278978351587));
#620 = CARTESIAN_POINT('',(-0.251845607671,-6.341491229813,
    2.264585211482));
#621 = CARTESIAN_POINT('',(-0.168437215881,-6.347159183975,
    2.254870673893));
#622 = CARTESIAN_POINT('',(-8.427702410111E-02,-6.35,2.25));
#623 = CARTESIAN_POINT('',(0.132896722058,-6.35,2.25));
#624 = CARTESIAN_POINT('',(0.264886820739,-6.342935194432,2.26211079546)
  );
#625 = CARTESIAN_POINT('',(0.393960211607,-6.328987597699,2.286022394466
    ));
#626 = CARTESIAN_POINT('',(0.518162614539,-6.308919201183,2.32083643263)
  );
#627 = CARTESIAN_POINT('',(0.635711610708,-6.28404608962,2.365071914328)
  );
#628 = CARTESIAN_POINT('',(0.823082108991,-6.236003216674,2.453241778172
    ));
#629 = CARTESIAN_POINT('',(0.897335535837,-6.214288905142,2.493809631126
    ));
#630 = CARTESIAN_POINT('',(0.967837230643,-6.191256366471,2.537821349589
    ));
#631 = CARTESIAN_POINT('',(1.034579035458,-6.167289942788,2.584893382122
    ));
#632 = CARTESIAN_POINT('',(1.097576321153,-6.142750452728,2.634690716359
    ));
#633 = CARTESIAN_POINT('',(1.217080487692,-6.092804160462,2.739977800363
    ));
#634 = CARTESIAN_POINT('',(1.273508257176,-6.067373848675,2.795578338974
    ));
#635 = CARTESIAN_POINT('',(1.326213852939,-6.042012414132,2.853468115284
    ));
#636 = CARTESIAN_POINT('',(1.375255735906,-6.017029964449,2.913436565658
    ));
#637 = CARTESIAN_POINT('',(1.420680564086,-5.992718880334,2.97531867947)
  );
#638 = CARTESIAN_POINT('',(1.509261851036,-5.943259438443,3.110127298893
    ));
#639 = CARTESIAN_POINT('',(1.551551766478,-5.918334000933,3.183533101145
    ));
#640 = CARTESIAN_POINT('',(1.5893628753,-5.895006019145,3.258952241521)
  );
#641 = CARTESIAN_POINT('',(1.622670332579,-5.873677449982,3.336159473328
    ));
#642 = CARTESIAN_POINT('',(1.651438899288,-5.854715293095,3.414960867747
    ));
#643 = CARTESIAN_POINT('',(1.700205633001,-5.821877837887,3.576832260183
    ));
#644 = CARTESIAN_POINT('',(1.720045688503,-5.808094392572,3.65996955981)
  );
#645 = CARTESIAN_POINT('',(1.734996918386,-5.797473583417,3.744207497671
    ));
#646 = CARTESIAN_POINT('',(1.744994237324,-5.790293645861,3.829184048247
    ));
#647 = CARTESIAN_POINT('',(1.75,-5.786698586202,3.914559362112));
#648 = CARTESIAN_POINT('',(1.75,-5.786698586202,4.));
#649 = CYLINDRICAL_SURFACE('',#650,3.);
#650 = AXIS2_PLACEMENT_3D('',#651,#652,#653);
#651 = CARTESIAN_POINT('',(0.,-3.35,0.));
#652 = DIRECTION('',(0.,0.,-1.));
#653 = DIRECTION('',(1.,0.,0.));
#654 = ADVANCED_FACE('',(#655,#802),#911,.F.);
#655 = FACE_BOUND('',#656,.F.);
#656 = EDGE_LOOP('',(#657,#665,#666,#667,#724,#732,#739,#740,#772));
#657 = ORIENTED_EDGE('',*,*,#658,.F.);
#658 = EDGE_CURVE('',#146,#659,#661,.T.);
#659 = VERTEX_POINT('',#660);
#660 = CARTESIAN_POINT('',(3.,6.25,2.25));
#661 = LINE('',#662,#663);
#662 = CARTESIAN_POINT('',(3.,6.25,0.));
#663 = VECTOR('',#664,1.);
#664 = DIRECTION('',(0.,0.,1.));
#665 = ORIENTED_EDGE('',*,*,#145,.F.);
#666 = ORIENTED_EDGE('',*,*,#658,.T.);
#667 = ORIENTED_EDGE('',*,*,#668,.F.);
#668 = EDGE_CURVE('',#669,#659,#671,.T.);
#669 = VERTEX_POINT('',#670);
#670 = CARTESIAN_POINT('',(3.,6.25,5.75));
#671 = B_SPLINE_CURVE_WITH_KNOTS('',6,(#672,#673,#674,#675,#676,#677,
    #678,#679,#680,#681,#682,#683,#684,#685,#686,#687,#688,#689,#690,
    #691,#692,#693,#694,#695,#696,#697,#698,#699,#700,#701,#702,#703,
    #704,#705,#706,#707,#708,#709,#710,#711,#712,#713,#714,#715,#716,
    #717,#718,#719,#720,#721,#722,#723),.UNSPECIFIED.,.F.,.F.,(7,5,5,5,5
    ,5,5,5,5,5,7),(0.,0.122894721056,0.210479643007,0.301477169963,
    0.39882039094,0.499949360196,0.599753166008,0.698419707172,
    0.827654585636,0.880498279943,1.),.UNSPECIFIED.);
#672 = CARTESIAN_POINT('',(3.,6.25,5.75));
#673 = CARTESIAN_POINT('',(3.,6.117103277942,5.75));
#674 = CARTESIAN_POINT('',(2.992935194432,5.985113179261,5.73788920454)
  );
#675 = CARTESIAN_POINT('',(2.978987597699,5.856039788394,5.713977605534)
  );
#676 = CARTESIAN_POINT('',(2.958919201183,5.731837385461,5.67916356737)
  );
#677 = CARTESIAN_POINT('',(2.93404608962,5.614288389292,5.634928085672)
  );
#678 = CARTESIAN_POINT('',(2.886003049227,5.426917237955,5.546757914524)
  );
#679 = CARTESIAN_POINT('',(2.864288743271,5.352664001187,5.506190062067)
  );
#680 = CARTESIAN_POINT('',(2.841256343856,5.282162786584,5.46217859019)
  );
#681 = CARTESIAN_POINT('',(2.81729009243,5.215421392408,5.415106900443)
  );
#682 = CARTESIAN_POINT('',(2.792750664984,5.152424186701,5.365309731077)
  );
#683 = CARTESIAN_POINT('',(2.742227624265,5.031540061009,5.258806857871)
  );
#684 = CARTESIAN_POINT('',(2.716208493875,4.973908163919,5.201872726666)
  );
#685 = CARTESIAN_POINT('',(2.69026921935,4.920169084627,5.142549060001)
  );
#686 = CARTESIAN_POINT('',(2.66474131319,4.870260704635,5.081060266134)
  );
#687 = CARTESIAN_POINT('',(2.639937078329,4.824134029132,5.017581297016)
  );
#688 = CARTESIAN_POINT('',(2.590711625488,4.736422890741,4.882340773671)
  );
#689 = CARTESIAN_POINT('',(2.5664266598,4.695359856748,4.810279552751));
#690 = CARTESIAN_POINT('',(2.543697370844,4.658594491398,4.736298032909)
  );
#691 = CARTESIAN_POINT('',(2.522900789082,4.626151573899,4.660608026288)
  );
#692 = CARTESIAN_POINT('',(2.504381289639,4.598065073919,4.583392670791)
  );
#693 = CARTESIAN_POINT('',(2.471877835111,4.549794362876,4.423167726129)
  );
#694 = CARTESIAN_POINT('',(2.458094390292,4.529954308323,4.340030423847)
  );
#695 = CARTESIAN_POINT('',(2.447473582657,4.51500308056,4.255792490629)
  );
#696 = CARTESIAN_POINT('',(2.440293645976,4.505005762836,4.170815947455)
  );
#697 = CARTESIAN_POINT('',(2.436698586202,4.5,4.085440639277));
#698 = CARTESIAN_POINT('',(2.436698586202,4.5,3.915678949033));
#699 = CARTESIAN_POINT('',(2.440200047425,4.504875435843,3.831419336553)
  );
#700 = CARTESIAN_POINT('',(2.447193516309,4.514613117995,3.747543078464)
  );
#701 = CARTESIAN_POINT('',(2.45754222325,4.529177102731,3.664378056545)
  );
#702 = CARTESIAN_POINT('',(2.470981670324,4.548505012588,3.582272990114)
  );
#703 = CARTESIAN_POINT('',(2.503125573806,4.596162331416,3.421863722556)
  );
#704 = CARTESIAN_POINT('',(2.521770920821,4.624390434404,3.343513771142)
  );
#705 = CARTESIAN_POINT('',(2.542770660967,4.657096442065,3.266721787678)
  );
#706 = CARTESIAN_POINT('',(2.565766900454,4.694244589616,3.191678829208)
  );
#707 = CARTESIAN_POINT('',(2.590366885628,4.735808527819,3.118606119998)
  );
#708 = CARTESIAN_POINT('',(2.649932510901,4.841944266799,2.954957860026)
  );
#709 = CARTESIAN_POINT('',(2.685766861958,4.909688317046,2.865922230006)
  );
#710 = CARTESIAN_POINT('',(2.722804627248,4.98507577075,2.781016574822)
  );
#711 = CARTESIAN_POINT('',(2.760144679311,5.068293708256,2.700774124502)
  );
#712 = CARTESIAN_POINT('',(2.796790272222,5.159555188506,2.625956981467)
  );
#713 = CARTESIAN_POINT('',(2.845835246126,5.299695529307,2.529674703213)
  );
#714 = CARTESIAN_POINT('',(2.859764412028,5.341744575759,2.502811131945)
  );
#715 = CARTESIAN_POINT('',(2.873304200087,5.385164965627,2.477111825664)
  );
#716 = CARTESIAN_POINT('',(2.88636809335,5.429946705446,2.452665734947)
  );
#717 = CARTESIAN_POINT('',(2.898867540123,5.476075326688,2.429566417453)
  );
#718 = CARTESIAN_POINT('',(2.937497133297,5.630851037314,2.358942418462)
  );
#719 = CARTESIAN_POINT('',(2.961141213193,5.745793976224,2.316982441569)
  );
#720 = CARTESIAN_POINT('',(2.980151307166,5.866931200089,2.284027225875)
  );
#721 = CARTESIAN_POINT('',(2.993332513382,5.992576827475,2.261429743339)
  );
#722 = CARTESIAN_POINT('',(3.,6.120894099695,2.25));
#723 = CARTESIAN_POINT('',(3.,6.25,2.25));
#724 = ORIENTED_EDGE('',*,*,#725,.T.);
#725 = EDGE_CURVE('',#669,#726,#728,.T.);
#726 = VERTEX_POINT('',#727);
#727 = CARTESIAN_POINT('',(3.,6.25,7.5));
#728 = LINE('',#729,#730);
#729 = CARTESIAN_POINT('',(3.,6.25,0.));
#730 = VECTOR('',#731,1.);
#731 = DIRECTION('',(0.,0.,1.));
#732 = ORIENTED_EDGE('',*,*,#733,.T.);
#733 = EDGE_CURVE('',#726,#726,#734,.T.);
#734 = CIRCLE('',#735,3.);
#735 = AXIS2_PLACEMENT_3D('',#736,#737,#738);
#736 = CARTESIAN_POINT('',(0.,6.25,7.5));
#737 = DIRECTION('',(0.,0.,-1.));
#738 = DIRECTION('',(1.,0.,0.));
#739 = ORIENTED_EDGE('',*,*,#725,.F.);
#740 = ORIENTED_EDGE('',*,*,#741,.F.);
#741 = EDGE_CURVE('',#742,#669,#744,.T.);
#742 = VERTEX_POINT('',#743);
#743 = CARTESIAN_POINT('',(2.436698586202,8.,4.));
#744 = B_SPLINE_CURVE_WITH_KNOTS('',6,(#745,#746,#747,#748,#749,#750,
    #751,#752,#753,#754,#755,#756,#757,#758,#759,#760,#761,#762,#763,
    #764,#765,#766,#767,#768,#769,#770,#771),.UNSPECIFIED.,.F.,.F.,(7,5,
    5,5,5,7),(0.,0.19961981283,0.396964957332,0.581533677523,
    0.761099425381,1.),.UNSPECIFIED.);
#745 = CARTESIAN_POINT('',(2.436698586202,8.,4.));
#746 = CARTESIAN_POINT('',(2.436698586202,8.,4.084321050967));
#747 = CARTESIAN_POINT('',(2.440200047425,7.995124564157,4.168580663447)
  );
#748 = CARTESIAN_POINT('',(2.447193516309,7.985386882005,4.252456921536)
  );
#749 = CARTESIAN_POINT('',(2.45754222325,7.970822897269,4.335621943455)
  );
#750 = CARTESIAN_POINT('',(2.470981670324,7.951494987412,4.417727009886)
  );
#751 = CARTESIAN_POINT('',(2.503125573806,7.903837668584,4.578136277444)
  );
#752 = CARTESIAN_POINT('',(2.521770920821,7.875609565596,4.656486228858)
  );
#753 = CARTESIAN_POINT('',(2.542770660967,7.842903557935,4.733278212322)
  );
#754 = CARTESIAN_POINT('',(2.565766900454,7.805755410384,4.808321170792)
  );
#755 = CARTESIAN_POINT('',(2.590366885628,7.764191472181,4.881393880002)
  );
#756 = CARTESIAN_POINT('',(2.64027343672,7.675266548522,5.018505178842)
  );
#757 = CARTESIAN_POINT('',(2.665441500746,7.628436745638,5.082851136006)
  );
#758 = CARTESIAN_POINT('',(2.691349437675,7.577717521646,5.145148644547)
  );
#759 = CARTESIAN_POINT('',(2.717671430675,7.523057396378,5.205214754967)
  );
#760 = CARTESIAN_POINT('',(2.744061202591,7.464391181492,5.26281394688)
  );
#761 = CARTESIAN_POINT('',(2.795527045928,7.340595896524,5.371012105279)
  );
#762 = CARTESIAN_POINT('',(2.820636587309,7.275643360393,5.421794817151)
  );
#763 = CARTESIAN_POINT('',(2.845113938453,7.206752123154,5.469687044144)
  );
#764 = CARTESIAN_POINT('',(2.868567229959,7.133910207691,5.514322095123)
  );
#765 = CARTESIAN_POINT('',(2.890579307724,7.057132816446,5.555280740685)
  );
#766 = CARTESIAN_POINT('',(2.9374971333,6.869148962671,5.641057581545));
#767 = CARTESIAN_POINT('',(2.96114121319,6.754206023779,5.683017558426)
  );
#768 = CARTESIAN_POINT('',(2.980151307164,6.633068799926,5.715972774122)
  );
#769 = CARTESIAN_POINT('',(2.993332513383,6.507423172529,5.738570256664)
  );
#770 = CARTESIAN_POINT('',(3.,6.37910590029,5.75));
#771 = CARTESIAN_POINT('',(3.,6.25,5.75));
#772 = ORIENTED_EDGE('',*,*,#773,.F.);
#773 = EDGE_CURVE('',#659,#742,#774,.T.);
#774 = B_SPLINE_CURVE_WITH_KNOTS('',6,(#775,#776,#777,#778,#779,#780,
    #781,#782,#783,#784,#785,#786,#787,#788,#789,#790,#791,#792,#793,
    #794,#795,#796,#797,#798,#799,#800,#801),.UNSPECIFIED.,.F.,.F.,(7,5,
    5,5,5,7),(0.,0.245814338016,0.421001924837,0.603015413032,
    0.797721574779,1.),.UNSPECIFIED.);
#775 = CARTESIAN_POINT('',(3.,6.25,2.25));
#776 = CARTESIAN_POINT('',(3.,6.382896722058,2.25));
#777 = CARTESIAN_POINT('',(2.992935194432,6.514886820739,2.26211079546)
  );
#778 = CARTESIAN_POINT('',(2.978987597699,6.643960211607,2.286022394466)
  );
#779 = CARTESIAN_POINT('',(2.958919201183,6.768162614539,2.32083643263)
  );
#780 = CARTESIAN_POINT('',(2.93404608962,6.885711610708,2.365071914328)
  );
#781 = CARTESIAN_POINT('',(2.886003049222,7.073082762063,2.453242085485)
  );
#782 = CARTESIAN_POINT('',(2.864288743272,7.147335998807,2.493809937932)
  );
#783 = CARTESIAN_POINT('',(2.841256343861,7.2178372134,2.5378214098));
#784 = CARTESIAN_POINT('',(2.817290092432,7.28457860759,2.584893099553)
  );
#785 = CARTESIAN_POINT('',(2.792750664978,7.347575813312,2.634690268935)
  );
#786 = CARTESIAN_POINT('',(2.742227624265,7.468459938991,2.741193142129)
  );
#787 = CARTESIAN_POINT('',(2.716208493875,7.526091836081,2.798127273334)
  );
#788 = CARTESIAN_POINT('',(2.69026921935,7.579830915373,2.857450939999)
  );
#789 = CARTESIAN_POINT('',(2.66474131319,7.629739295365,2.918939733866)
  );
#790 = CARTESIAN_POINT('',(2.639937078329,7.675865970868,2.982418702984)
  );
#791 = CARTESIAN_POINT('',(2.590711625488,7.763577109259,3.117659226329)
  );
#792 = CARTESIAN_POINT('',(2.5664266598,7.804640143252,3.189720447249));
#793 = CARTESIAN_POINT('',(2.543697370844,7.841405508602,3.263701967091)
  );
#794 = CARTESIAN_POINT('',(2.522900789082,7.873848426101,3.339391973712)
  );
#795 = CARTESIAN_POINT('',(2.504381289639,7.901934926081,3.416607329209)
  );
#796 = CARTESIAN_POINT('',(2.471877835111,7.950205637124,3.57683227387)
  );
#797 = CARTESIAN_POINT('',(2.458094390292,7.970045691677,3.659969576154)
  );
#798 = CARTESIAN_POINT('',(2.447473582657,7.98499691944,3.744207509371)
  );
#799 = CARTESIAN_POINT('',(2.440293645976,7.994994237164,3.829184052545)
  );
#800 = CARTESIAN_POINT('',(2.436698586202,8.,3.914559360723));
#801 = CARTESIAN_POINT('',(2.436698586202,8.,4.));
#802 = FACE_BOUND('',#803,.F.);
#803 = EDGE_LOOP('',(#804));
#804 = ORIENTED_EDGE('',*,*,#805,.F.);
#805 = EDGE_CURVE('',#806,#806,#808,.T.);
#806 = VERTEX_POINT('',#807);
#807 = CARTESIAN_POINT('',(-1.75,8.686698586202,4.));
#808 = B_SPLINE_CURVE_WITH_KNOTS('',6,(#809,#810,#811,#812,#813,#814,
    #815,#816,#817,#818,#819,#820,#821,#822,#823,#824,#825,#826,#827,
    #828,#829,#830,#831,#832,#833,#834,#835,#836,#837,#838,#839,#840,
    #841,#842,#843,#844,#845,#846,#847,#848,#849,#850,#851,#852,#853,
    #854,#855,#856,#857,#858,#859,#860,#861,#862,#863,#864,#865,#866,
    #867,#868,#869,#870,#871,#872,#873,#874,#875,#876,#877,#878,#879,
    #880,#881,#882,#883,#884,#885,#886,#887,#888,#889,#890,#891,#892,
    #893,#894,#895,#896,#897,#898,#899,#900,#901,#902,#903,#904,#905,
    #906,#907,#908,#909,#910),.UNSPECIFIED.,.T.,.F.,(7,5,5,5,5,5,5,5,5,5
    ,5,5,5,5,5,5,5,5,5,5,7),(0.,5.072923678099E-02,0.100102424833,
    0.146379796507,0.189991532471,0.249630129763,0.311019842162,
    0.354770881652,0.399209051393,0.44885276561,0.499368764533,
    0.550123552454,0.599521608635,0.663068309542,0.710148172762,
    0.749238246045,0.810879513752,0.854809801034,0.899430002781,
    0.949277072469,1.),.UNSPECIFIED.);
#809 = CARTESIAN_POINT('',(-1.75,8.686698586202,4.));
#810 = CARTESIAN_POINT('',(-1.75,8.686698586202,4.085844515566));
#811 = CARTESIAN_POINT('',(-1.744946801599,8.690327713353,4.171622213765
    ));
#812 = CARTESIAN_POINT('',(-1.734855003478,8.697575505005,4.256995465041
    ));
#813 = CARTESIAN_POINT('',(-1.719762879328,8.70829527485,4.341620065825)
  );
#814 = CARTESIAN_POINT('',(-1.699736500087,8.72220371461,4.425129139398)
  );
#815 = CARTESIAN_POINT('',(-1.650749939149,8.755169212978,4.586921187692
    ));
#816 = CARTESIAN_POINT('',(-1.622037639452,8.774082324954,4.66530191736)
  );
#817 = CARTESIAN_POINT('',(-1.588832051589,8.795333086614,4.742100951933
    ));
#818 = CARTESIAN_POINT('',(-1.551167750604,8.818559674089,4.81712735272)
  );
#819 = CARTESIAN_POINT('',(-1.50906901748,8.84336613109,4.890159440922)
  );
#820 = CARTESIAN_POINT('',(-1.41897205585,8.893673741543,5.027287735582)
  );
#821 = CARTESIAN_POINT('',(-1.37149087028,8.919044123032,5.091685579745)
  );
#822 = CARTESIAN_POINT('',(-1.32008174727,8.945130855086,5.154000732943)
  );
#823 = CARTESIAN_POINT('',(-1.264690822784,8.971602826493,5.214045037158
    ));
#824 = CARTESIAN_POINT('',(-1.205250844793,8.998107602389,5.27157587103)
  );
#825 = CARTESIAN_POINT('',(-1.081779563122,9.048919312127,5.377860909508
    ));
#826 = CARTESIAN_POINT('',(-1.018170836833,9.073280892474,5.426963229319
    ));
#827 = CARTESIAN_POINT('',(-0.950830360056,9.097014759912,5.473302629759
    ));
#828 = CARTESIAN_POINT('',(-0.879750123197,9.119757859507,5.516537061118
    ));
#829 = CARTESIAN_POINT('',(-0.804947064345,9.141124837214,5.556278097141
    ));
#830 = CARTESIAN_POINT('',(-0.619148962678,9.187497133299,5.641057581542
    ));
#831 = CARTESIAN_POINT('',(-0.504206023778,9.211141213191,5.683017558428
    ));
#832 = CARTESIAN_POINT('',(-0.38306879992,9.230151307165,5.715972774124)
  );
#833 = CARTESIAN_POINT('',(-0.257423172528,9.243332513383,5.738570256663
    ));
#834 = CARTESIAN_POINT('',(-0.129105900297,9.25,5.75));
#835 = CARTESIAN_POINT('',(0.132896722058,9.25,5.75));
#836 = CARTESIAN_POINT('',(0.264886820739,9.242935194432,5.73788920454)
  );
#837 = CARTESIAN_POINT('',(0.393960211607,9.228987597699,5.713977605534)
  );
#838 = CARTESIAN_POINT('',(0.518162614539,9.208919201183,5.67916356737)
  );
#839 = CARTESIAN_POINT('',(0.635711610708,9.18404608962,5.634928085672)
  );
#840 = CARTESIAN_POINT('',(0.823082162067,9.136003203065,5.546758196852)
  );
#841 = CARTESIAN_POINT('',(0.897335518245,9.11428890707,5.506190370505)
  );
#842 = CARTESIAN_POINT('',(0.967837186017,9.091256381129,5.46217867946)
  );
#843 = CARTESIAN_POINT('',(1.034579031231,9.067289948084,5.415106630493)
  );
#844 = CARTESIAN_POINT('',(1.097576362283,9.042750435538,5.365309247404)
  );
#845 = CARTESIAN_POINT('',(1.217080487692,8.992804160462,5.260022199637)
  );
#846 = CARTESIAN_POINT('',(1.273508257176,8.967373848675,5.204421661026)
  );
#847 = CARTESIAN_POINT('',(1.326213852939,8.942012414132,5.146531884716)
  );
#848 = CARTESIAN_POINT('',(1.375255735906,8.917029964449,5.086563434342)
  );
#849 = CARTESIAN_POINT('',(1.420680564086,8.892718880334,5.02468132053)
  );
#850 = CARTESIAN_POINT('',(1.509261851036,8.843259438443,4.889872701107)
  );
#851 = CARTESIAN_POINT('',(1.551551766478,8.818334000933,4.816466898855)
  );
#852 = CARTESIAN_POINT('',(1.5893628753,8.795006019145,4.741047758479));
#853 = CARTESIAN_POINT('',(1.622670332579,8.773677449982,4.663840526672)
  );
#854 = CARTESIAN_POINT('',(1.651438899288,8.754715293095,4.585039132253)
  );
#855 = CARTESIAN_POINT('',(1.700205633001,8.721877837887,4.423167739817)
  );
#856 = CARTESIAN_POINT('',(1.720045688503,8.708094392572,4.34003044019)
  );
#857 = CARTESIAN_POINT('',(1.734996918386,8.697473583417,4.255792502329)
  );
#858 = CARTESIAN_POINT('',(1.744994237324,8.690293645861,4.170815951754)
  );
#859 = CARTESIAN_POINT('',(1.75,8.686698586202,4.085440637888));
#860 = CARTESIAN_POINT('',(1.75,8.686698586202,3.914155484434));
#861 = CARTESIAN_POINT('',(1.744946801599,8.690327713353,3.828377786235)
  );
#862 = CARTESIAN_POINT('',(1.734855003478,8.697575505005,3.743004534959)
  );
#863 = CARTESIAN_POINT('',(1.719762879328,8.70829527485,3.658379934175)
  );
#864 = CARTESIAN_POINT('',(1.699736500087,8.72220371461,3.574870860602)
  );
#865 = CARTESIAN_POINT('',(1.650749939149,8.755169212978,3.413078812308)
  );
#866 = CARTESIAN_POINT('',(1.622037639452,8.774082324954,3.33469808264)
  );
#867 = CARTESIAN_POINT('',(1.588832051589,8.795333086614,3.257899048067)
  );
#868 = CARTESIAN_POINT('',(1.551167750604,8.818559674088,3.18287264728)
  );
#869 = CARTESIAN_POINT('',(1.50906901748,8.84336613109,3.109840559078));
#870 = CARTESIAN_POINT('',(1.402735540183,8.90273975543,2.948000157989)
  );
#871 = CARTESIAN_POINT('',(1.335580181196,8.938086190019,2.860613191874)
  );
#872 = CARTESIAN_POINT('',(1.261010676552,8.974557480109,2.77725265482)
  );
#873 = CARTESIAN_POINT('',(1.178847433867,9.011291412349,2.698433604373)
  );
#874 = CARTESIAN_POINT('',(1.088887768535,9.0473351912,2.6248872278));
#875 = CARTESIAN_POINT('',(0.918437219732,9.106987841323,2.507780568329)
  );
#876 = CARTESIAN_POINT('',(0.841407427813,9.131442964072,2.461301991131)
  );
#877 = CARTESIAN_POINT('',(0.759997158691,9.154447725789,2.418751970282)
  );
#878 = CARTESIAN_POINT('',(0.674370718073,9.175469233237,2.380699324555)
  );
#879 = CARTESIAN_POINT('',(0.584749961961,9.193980065397,2.347721529815)
  );
#880 = CARTESIAN_POINT('',(0.41392407946,9.222345479786,2.2977408693));
#881 = CARTESIAN_POINT('',(0.333876207747,9.233135460232,2.278978351587)
  );
#882 = CARTESIAN_POINT('',(0.251845607671,9.241491229813,2.264585211482)
  );
#883 = CARTESIAN_POINT('',(0.168437215881,9.247159183975,2.254870673893)
  );
#884 = CARTESIAN_POINT('',(8.427702410111E-02,9.25,2.25));
#885 = CARTESIAN_POINT('',(-0.132896722058,9.25,2.25));
#886 = CARTESIAN_POINT('',(-0.264886820739,9.242935194432,2.26211079546)
  );
#887 = CARTESIAN_POINT('',(-0.393960211606,9.228987597699,2.286022394466
    ));
#888 = CARTESIAN_POINT('',(-0.518162614539,9.208919201183,2.32083643263)
  );
#889 = CARTESIAN_POINT('',(-0.635711610708,9.18404608962,2.365071914328)
  );
#890 = CARTESIAN_POINT('',(-0.823082108991,9.136003216674,2.453241778172
    ));
#891 = CARTESIAN_POINT('',(-0.897335535837,9.114288905142,2.493809631126
    ));
#892 = CARTESIAN_POINT('',(-0.967837230643,9.091256366471,2.537821349589
    ));
#893 = CARTESIAN_POINT('',(-1.034579035458,9.067289942788,2.584893382122
    ));
#894 = CARTESIAN_POINT('',(-1.097576321153,9.042750452728,2.634690716359
    ));
#895 = CARTESIAN_POINT('',(-1.217080487692,8.992804160462,2.739977800363
    ));
#896 = CARTESIAN_POINT('',(-1.273508257176,8.967373848675,2.795578338974
    ));
#897 = CARTESIAN_POINT('',(-1.326213852939,8.942012414132,2.853468115284
    ));
#898 = CARTESIAN_POINT('',(-1.375255735906,8.917029964449,2.913436565658
    ));
#899 = CARTESIAN_POINT('',(-1.420680564086,8.892718880334,2.97531867947)
  );
#900 = CARTESIAN_POINT('',(-1.509261851036,8.843259438443,3.110127298893
    ));
#901 = CARTESIAN_POINT('',(-1.551551766478,8.818334000933,3.183533101145
    ));
#902 = CARTESIAN_POINT('',(-1.5893628753,8.795006019145,3.258952241521)
  );
#903 = CARTESIAN_POINT('',(-1.622670332579,8.773677449982,3.336159473328
    ));
#904 = CARTESIAN_POINT('',(-1.651438899288,8.754715293095,3.414960867747
    ));
#905 = CARTESIAN_POINT('',(-1.700205633001,8.721877837887,3.576832260183
    ));
#906 = CARTESIAN_POINT('',(-1.720045688503,8.708094392572,3.65996955981)
  );
#907 = CARTESIAN_POINT('',(-1.734996918386,8.697473583417,3.744207497671
    ));
#908 = CARTESIAN_POINT('',(-1.744994237324,8.690293645861,3.829184048247
    ));
#909 = CARTESIAN_POINT('',(-1.75,8.686698586202,3.914559362112));
#910 = CARTESIAN_POINT('',(-1.75,8.686698586202,4.));
#911 = CYLINDRICAL_SURFACE('',#912,3.);
#912 = AXIS2_PLACEMENT_3D('',#913,#914,#915);
#913 = CARTESIAN_POINT('',(0.,6.25,0.));
#914 = DIRECTION('',(0.,0.,-1.));
#915 = DIRECTION('',(1.,0.,0.));
#916 = ADVANCED_FACE('',(#917),#942,.T.);
#917 = FACE_BOUND('',#918,.T.);
#918 = EDGE_LOOP('',(#919,#927,#935,#941));
#919 = ORIENTED_EDGE('',*,*,#920,.T.);
#920 = EDGE_CURVE('',#157,#921,#923,.T.);
#921 = VERTEX_POINT('',#922);
#922 = CARTESIAN_POINT('',(-3.1,12.75,6.17));
#923 = LINE('',#924,#925);
#924 = CARTESIAN_POINT('',(-3.1,12.75,0.));
#925 = VECTOR('',#926,1.);
#926 = DIRECTION('',(0.,0.,1.));
#927 = ORIENTED_EDGE('',*,*,#928,.T.);
#928 = EDGE_CURVE('',#921,#929,#931,.T.);
#929 = VERTEX_POINT('',#930);
#930 = CARTESIAN_POINT('',(-3.1,10.25,6.17));
#931 = LINE('',#932,#933);
#932 = CARTESIAN_POINT('',(-3.1,12.75,6.17));
#933 = VECTOR('',#934,1.);
#934 = DIRECTION('',(0.,-1.,0.));
#935 = ORIENTED_EDGE('',*,*,#936,.F.);
#936 = EDGE_CURVE('',#159,#929,#937,.T.);
#937 = LINE('',#938,#939);
#938 = CARTESIAN_POINT('',(-3.1,10.25,0.));
#939 = VECTOR('',#940,1.);
#940 = DIRECTION('',(0.,0.,1.));
#941 = ORIENTED_EDGE('',*,*,#156,.F.);
#942 = PLANE('',#943);
#943 = AXIS2_PLACEMENT_3D('',#944,#945,#946);
#944 = CARTESIAN_POINT('',(-3.1,12.75,0.));
#945 = DIRECTION('',(1.,0.,0.));
#946 = DIRECTION('',(0.,-1.,0.));
#947 = ADVANCED_FACE('',(#948,#966),#977,.T.);
#948 = FACE_BOUND('',#949,.T.);
#949 = EDGE_LOOP('',(#950,#951,#959,#965));
#950 = ORIENTED_EDGE('',*,*,#936,.T.);
#951 = ORIENTED_EDGE('',*,*,#952,.T.);
#952 = EDGE_CURVE('',#929,#953,#955,.T.);
#953 = VERTEX_POINT('',#954);
#954 = CARTESIAN_POINT('',(3.1,10.25,6.17));
#955 = LINE('',#956,#957);
#956 = CARTESIAN_POINT('',(-3.1,10.25,6.17));
#957 = VECTOR('',#958,1.);
#958 = DIRECTION('',(1.,0.,0.));
#959 = ORIENTED_EDGE('',*,*,#960,.F.);
#960 = EDGE_CURVE('',#175,#953,#961,.T.);
#961 = LINE('',#962,#963);
#962 = CARTESIAN_POINT('',(3.1,10.25,0.));
#963 = VECTOR('',#964,1.);
#964 = DIRECTION('',(0.,0.,1.));
#965 = ORIENTED_EDGE('',*,*,#182,.F.);
#966 = FACE_BOUND('',#967,.T.);
#967 = EDGE_LOOP('',(#968));
#968 = ORIENTED_EDGE('',*,*,#969,.F.);
#969 = EDGE_CURVE('',#970,#970,#972,.T.);
#970 = VERTEX_POINT('',#971);
#971 = CARTESIAN_POINT('',(-1.75,10.25,4.));
#972 = CIRCLE('',#973,1.75);
#973 = AXIS2_PLACEMENT_3D('',#974,#975,#976);
#974 = CARTESIAN_POINT('',(0.,10.25,4.));
#975 = DIRECTION('',(0.,1.,-2.2E-16));
#976 = DIRECTION('',(-1.,0.,0.));
#977 = PLANE('',#978);
#978 = AXIS2_PLACEMENT_3D('',#979,#980,#981);
#979 = CARTESIAN_POINT('',(-3.1,10.25,0.));
#980 = DIRECTION('',(0.,1.,0.));
#981 = DIRECTION('',(1.,0.,0.));
#982 = ADVANCED_FACE('',(#983),#1001,.T.);
#983 = FACE_BOUND('',#984,.T.);
#984 = EDGE_LOOP('',(#985,#986,#994,#1000));
#985 = ORIENTED_EDGE('',*,*,#960,.T.);
#986 = ORIENTED_EDGE('',*,*,#987,.T.);
#987 = EDGE_CURVE('',#953,#988,#990,.T.);
#988 = VERTEX_POINT('',#989);
#989 = CARTESIAN_POINT('',(3.1,12.75,6.17));
#990 = LINE('',#991,#992);
#991 = CARTESIAN_POINT('',(3.1,10.25,6.17));
#992 = VECTOR('',#993,1.);
#993 = DIRECTION('',(0.,1.,0.));
#994 = ORIENTED_EDGE('',*,*,#995,.F.);
#995 = EDGE_CURVE('',#167,#988,#996,.T.);
#996 = LINE('',#997,#998);
#997 = CARTESIAN_POINT('',(3.1,12.75,0.));
#998 = VECTOR('',#999,1.);
#999 = DIRECTION('',(0.,0.,1.));
#1000 = ORIENTED_EDGE('',*,*,#174,.F.);
#1001 = PLANE('',#1002);
#1002 = AXIS2_PLACEMENT_3D('',#1003,#1004,#1005);
#1003 = CARTESIAN_POINT('',(3.1,10.25,0.));
#1004 = DIRECTION('',(-1.,0.,0.));
#1005 = DIRECTION('',(0.,1.,0.));
#1006 = ADVANCED_FACE('',(#1007,#1018),#1029,.T.);
#1007 = FACE_BOUND('',#1008,.T.);
#1008 = EDGE_LOOP('',(#1009,#1010,#1016,#1017));
#1009 = ORIENTED_EDGE('',*,*,#995,.T.);
#1010 = ORIENTED_EDGE('',*,*,#1011,.T.);
#1011 = EDGE_CURVE('',#988,#921,#1012,.T.);
#1012 = LINE('',#1013,#1014);
#1013 = CARTESIAN_POINT('',(3.1,12.75,6.17));
#1014 = VECTOR('',#1015,1.);
#1015 = DIRECTION('',(-1.,0.,0.));
#1016 = ORIENTED_EDGE('',*,*,#920,.F.);
#1017 = ORIENTED_EDGE('',*,*,#166,.F.);
#1018 = FACE_BOUND('',#1019,.T.);
#1019 = EDGE_LOOP('',(#1020));
#1020 = ORIENTED_EDGE('',*,*,#1021,.T.);
#1021 = EDGE_CURVE('',#1022,#1022,#1024,.T.);
#1022 = VERTEX_POINT('',#1023);
#1023 = CARTESIAN_POINT('',(-1.75,12.75,4.));
#1024 = CIRCLE('',#1025,1.75);
#1025 = AXIS2_PLACEMENT_3D('',#1026,#1027,#1028);
#1026 = CARTESIAN_POINT('',(0.,12.75,4.));
#1027 = DIRECTION('',(0.,1.,-2.2E-16));
#1028 = DIRECTION('',(-1.,0.,0.));
#1029 = PLANE('',#1030);
#1030 = AXIS2_PLACEMENT_3D('',#1031,#1032,#1033);
#1031 = CARTESIAN_POINT('',(3.1,12.75,0.));
#1032 = DIRECTION('',(0.,-1.,0.));
#1033 = DIRECTION('',(-1.,0.,0.));
#1034 = ADVANCED_FACE('',(#1035,#1060),#1071,.T.);
#1035 = FACE_BOUND('',#1036,.T.);
#1036 = EDGE_LOOP('',(#1037,#1045,#1053,#1059));
#1037 = ORIENTED_EDGE('',*,*,#1038,.T.);
#1038 = EDGE_CURVE('',#191,#1039,#1041,.T.);
#1039 = VERTEX_POINT('',#1040);
#1040 = CARTESIAN_POINT('',(8.13,9.35,6.17));
#1041 = LINE('',#1042,#1043);
#1042 = CARTESIAN_POINT('',(8.13,9.35,0.));
#1043 = VECTOR('',#1044,1.);
#1044 = DIRECTION('',(0.,0.,1.));
#1045 = ORIENTED_EDGE('',*,*,#1046,.T.);
#1046 = EDGE_CURVE('',#1039,#1047,#1049,.T.);
#1047 = VERTEX_POINT('',#1048);
#1048 = CARTESIAN_POINT('',(8.13,3.15,6.17));
#1049 = LINE('',#1050,#1051);
#1050 = CARTESIAN_POINT('',(8.13,9.35,6.17));
#1051 = VECTOR('',#1052,1.);
#1052 = DIRECTION('',(0.,-1.,0.));
#1053 = ORIENTED_EDGE('',*,*,#1054,.F.);
#1054 = EDGE_CURVE('',#193,#1047,#1055,.T.);
#1055 = LINE('',#1056,#1057);
#1056 = CARTESIAN_POINT('',(8.13,3.15,0.));
#1057 = VECTOR('',#1058,1.);
#1058 = DIRECTION('',(0.,0.,1.));
#1059 = ORIENTED_EDGE('',*,*,#190,.F.);
#1060 = FACE_BOUND('',#1061,.T.);
#1061 = EDGE_LOOP('',(#1062));
#1062 = ORIENTED_EDGE('',*,*,#1063,.F.);
#1063 = EDGE_CURVE('',#1064,#1064,#1066,.T.);
#1064 = VERTEX_POINT('',#1065);
#1065 = CARTESIAN_POINT('',(8.13,8.,4.));
#1066 = CIRCLE('',#1067,1.75);
#1067 = AXIS2_PLACEMENT_3D('',#1068,#1069,#1070);
#1068 = CARTESIAN_POINT('',(8.13,6.25,4.));
#1069 = DIRECTION('',(1.,0.,0.));
#1070 = DIRECTION('',(0.,1.,0.));
#1071 = PLANE('',#1072);
#1072 = AXIS2_PLACEMENT_3D('',#1073,#1074,#1075);
#1073 = CARTESIAN_POINT('',(8.13,9.35,0.));
#1074 = DIRECTION('',(1.,0.,0.));
#1075 = DIRECTION('',(0.,-1.,0.));
#1076 = ADVANCED_FACE('',(#1077),#1095,.T.);
#1077 = FACE_BOUND('',#1078,.T.);
#1078 = EDGE_LOOP('',(#1079,#1080,#1088,#1094));
#1079 = ORIENTED_EDGE('',*,*,#1054,.T.);
#1080 = ORIENTED_EDGE('',*,*,#1081,.T.);
#1081 = EDGE_CURVE('',#1047,#1082,#1084,.T.);
#1082 = VERTEX_POINT('',#1083);
#1083 = CARTESIAN_POINT('',(10.63,3.15,6.17));
#1084 = LINE('',#1085,#1086);
#1085 = CARTESIAN_POINT('',(8.13,3.15,6.17));
#1086 = VECTOR('',#1087,1.);
#1087 = DIRECTION('',(1.,0.,0.));
#1088 = ORIENTED_EDGE('',*,*,#1089,.F.);
#1089 = EDGE_CURVE('',#209,#1082,#1090,.T.);
#1090 = LINE('',#1091,#1092);
#1091 = CARTESIAN_POINT('',(10.63,3.15,0.));
#1092 = VECTOR('',#1093,1.);
#1093 = DIRECTION('',(0.,0.,1.));
#1094 = ORIENTED_EDGE('',*,*,#216,.F.);
#1095 = PLANE('',#1096);
#1096 = AXIS2_PLACEMENT_3D('',#1097,#1098,#1099);
#1097 = CARTESIAN_POINT('',(8.13,3.15,0.));
#1098 = DIRECTION('',(0.,1.,0.));
#1099 = DIRECTION('',(1.,0.,0.));
#1100 = ADVANCED_FACE('',(#1101,#1119),#1130,.T.);
#1101 = FACE_BOUND('',#1102,.T.);
#1102 = EDGE_LOOP('',(#1103,#1104,#1112,#1118));
#1103 = ORIENTED_EDGE('',*,*,#1089,.T.);
#1104 = ORIENTED_EDGE('',*,*,#1105,.T.);
#1105 = EDGE_CURVE('',#1082,#1106,#1108,.T.);
#1106 = VERTEX_POINT('',#1107);
#1107 = CARTESIAN_POINT('',(10.63,9.35,6.17));
#1108 = LINE('',#1109,#1110);
#1109 = CARTESIAN_POINT('',(10.63,3.15,6.17));
#1110 = VECTOR('',#1111,1.);
#1111 = DIRECTION('',(0.,1.,0.));
#1112 = ORIENTED_EDGE('',*,*,#1113,.F.);
#1113 = EDGE_CURVE('',#201,#1106,#1114,.T.);
#1114 = LINE('',#1115,#1116);
#1115 = CARTESIAN_POINT('',(10.63,9.35,0.));
#1116 = VECTOR('',#1117,1.);
#1117 = DIRECTION('',(0.,0.,1.));
#1118 = ORIENTED_EDGE('',*,*,#208,.F.);
#1119 = FACE_BOUND('',#1120,.T.);
#1120 = EDGE_LOOP('',(#1121));
#1121 = ORIENTED_EDGE('',*,*,#1122,.T.);
#1122 = EDGE_CURVE('',#1123,#1123,#1125,.T.);
#1123 = VERTEX_POINT('',#1124);
#1124 = CARTESIAN_POINT('',(10.63,8.,4.));
#1125 = CIRCLE('',#1126,1.75);
#1126 = AXIS2_PLACEMENT_3D('',#1127,#1128,#1129);
#1127 = CARTESIAN_POINT('',(10.63,6.25,4.));
#1128 = DIRECTION('',(1.,0.,0.));
#1129 = DIRECTION('',(0.,1.,0.));
#1130 = PLANE('',#1131);
#1131 = AXIS2_PLACEMENT_3D('',#1132,#1133,#1134);
#1132 = CARTESIAN_POINT('',(10.63,3.15,0.));
#1133 = DIRECTION('',(-1.,0.,0.));
#1134 = DIRECTION('',(0.,1.,0.));
#1135 = ADVANCED_FACE('',(#1136),#1147,.T.);
#1136 = FACE_BOUND('',#1137,.T.);
#1137 = EDGE_LOOP('',(#1138,#1139,#1145,#1146));
#1138 = ORIENTED_EDGE('',*,*,#1113,.T.);
#1139 = ORIENTED_EDGE('',*,*,#1140,.T.);
#1140 = EDGE_CURVE('',#1106,#1039,#1141,.T.);
#1141 = LINE('',#1142,#1143);
#1142 = CARTESIAN_POINT('',(10.63,9.35,6.17));
#1143 = VECTOR('',#1144,1.);
#1144 = DIRECTION('',(-1.,0.,0.));
#1145 = ORIENTED_EDGE('',*,*,#1038,.F.);
#1146 = ORIENTED_EDGE('',*,*,#200,.F.);
#1147 = PLANE('',#1148);
#1148 = AXIS2_PLACEMENT_3D('',#1149,#1150,#1151);
#1149 = CARTESIAN_POINT('',(10.63,9.35,0.));
#1150 = DIRECTION('',(0.,-1.,0.));
#1151 = DIRECTION('',(-1.,0.,0.));
#1152 = ADVANCED_FACE('',(#1153),#1164,.F.);
#1153 = FACE_BOUND('',#1154,.F.);
#1154 = EDGE_LOOP('',(#1155,#1156,#1162,#1163));
#1155 = ORIENTED_EDGE('',*,*,#248,.F.);
#1156 = ORIENTED_EDGE('',*,*,#1157,.T.);
#1157 = EDGE_CURVE('',#249,#1022,#1158,.T.);
#1158 = LINE('',#1159,#1160);
#1159 = CARTESIAN_POINT('',(-1.75,14.25,4.));
#1160 = VECTOR('',#1161,1.);
#1161 = DIRECTION('',(0.,-1.,2.2E-16));
#1162 = ORIENTED_EDGE('',*,*,#1021,.T.);
#1163 = ORIENTED_EDGE('',*,*,#1157,.F.);
#1164 = CYLINDRICAL_SURFACE('',#1165,1.75);
#1165 = AXIS2_PLACEMENT_3D('',#1166,#1167,#1168);
#1166 = CARTESIAN_POINT('',(0.,14.25,4.));
#1167 = DIRECTION('',(0.,1.,-2.2E-16));
#1168 = DIRECTION('',(-1.,0.,0.));
#1169 = ADVANCED_FACE('',(#1170,#1195),#1206,.T.);
#1170 = FACE_BOUND('',#1171,.T.);
#1171 = EDGE_LOOP('',(#1172,#1180,#1188,#1194));
#1172 = ORIENTED_EDGE('',*,*,#1173,.T.);
#1173 = EDGE_CURVE('',#428,#1174,#1176,.T.);
#1174 = VERTEX_POINT('',#1175);
#1175 = CARTESIAN_POINT('',(3.1,-12.38,0.83));
#1176 = LINE('',#1177,#1178);
#1177 = CARTESIAN_POINT('',(3.1,-12.38,7.));
#1178 = VECTOR('',#1179,1.);
#1179 = DIRECTION('',(-0.,-0.,-1.));
#1180 = ORIENTED_EDGE('',*,*,#1181,.T.);
#1181 = EDGE_CURVE('',#1174,#1182,#1184,.T.);
#1182 = VERTEX_POINT('',#1183);
#1183 = CARTESIAN_POINT('',(-3.1,-12.38,0.83));
#1184 = LINE('',#1185,#1186);
#1185 = CARTESIAN_POINT('',(3.1,-12.38,0.83));
#1186 = VECTOR('',#1187,1.);
#1187 = DIRECTION('',(-1.,0.,0.));
#1188 = ORIENTED_EDGE('',*,*,#1189,.F.);
#1189 = EDGE_CURVE('',#430,#1182,#1190,.T.);
#1190 = LINE('',#1191,#1192);
#1191 = CARTESIAN_POINT('',(-3.1,-12.38,7.));
#1192 = VECTOR('',#1193,1.);
#1193 = DIRECTION('',(-0.,-0.,-1.));
#1194 = ORIENTED_EDGE('',*,*,#427,.F.);
#1195 = FACE_BOUND('',#1196,.T.);
#1196 = EDGE_LOOP('',(#1197));
#1197 = ORIENTED_EDGE('',*,*,#1198,.T.);
#1198 = EDGE_CURVE('',#1199,#1199,#1201,.T.);
#1199 = VERTEX_POINT('',#1200);
#1200 = CARTESIAN_POINT('',(1.75,-12.38,4.));
#1201 = CIRCLE('',#1202,1.75);
#1202 = AXIS2_PLACEMENT_3D('',#1203,#1204,#1205);
#1203 = CARTESIAN_POINT('',(0.,-12.38,4.));
#1204 = DIRECTION('',(0.,-1.,2.2E-16));
#1205 = DIRECTION('',(1.,0.,0.));
#1206 = PLANE('',#1207);
#1207 = AXIS2_PLACEMENT_3D('',#1208,#1209,#1210);
#1208 = CARTESIAN_POINT('',(3.1,-12.38,7.));
#1209 = DIRECTION('',(0.,1.,0.));
#1210 = DIRECTION('',(-1.,0.,0.));
#1211 = ADVANCED_FACE('',(#1212),#1230,.T.);
#1212 = FACE_BOUND('',#1213,.T.);
#1213 = EDGE_LOOP('',(#1214,#1222,#1228,#1229));
#1214 = ORIENTED_EDGE('',*,*,#1215,.T.);
#1215 = EDGE_CURVE('',#446,#1216,#1218,.T.);
#1216 = VERTEX_POINT('',#1217);
#1217 = CARTESIAN_POINT('',(3.1,-9.88,0.83));
#1218 = LINE('',#1219,#1220);
#1219 = CARTESIAN_POINT('',(3.1,-9.88,7.));
#1220 = VECTOR('',#1221,1.);
#1221 = DIRECTION('',(-0.,-0.,-1.));
#1222 = ORIENTED_EDGE('',*,*,#1223,.T.);
#1223 = EDGE_CURVE('',#1216,#1174,#1224,.T.);
#1224 = LINE('',#1225,#1226);
#1225 = CARTESIAN_POINT('',(3.1,-9.88,0.83));
#1226 = VECTOR('',#1227,1.);
#1227 = DIRECTION('',(0.,-1.,0.));
#1228 = ORIENTED_EDGE('',*,*,#1173,.F.);
#1229 = ORIENTED_EDGE('',*,*,#453,.F.);
#1230 = PLANE('',#1231);
#1231 = AXIS2_PLACEMENT_3D('',#1232,#1233,#1234);
#1232 = CARTESIAN_POINT('',(3.1,-9.88,7.));
#1233 = DIRECTION('',(-1.,0.,0.));
#1234 = DIRECTION('',(0.,-1.,0.));
#1235 = ADVANCED_FACE('',(#1236,#1254),#1265,.T.);
#1236 = FACE_BOUND('',#1237,.T.);
#1237 = EDGE_LOOP('',(#1238,#1246,#1252,#1253));
#1238 = ORIENTED_EDGE('',*,*,#1239,.T.);
#1239 = EDGE_CURVE('',#438,#1240,#1242,.T.);
#1240 = VERTEX_POINT('',#1241);
#1241 = CARTESIAN_POINT('',(-3.1,-9.88,0.83));
#1242 = LINE('',#1243,#1244);
#1243 = CARTESIAN_POINT('',(-3.1,-9.88,7.));
#1244 = VECTOR('',#1245,1.);
#1245 = DIRECTION('',(-0.,-0.,-1.));
#1246 = ORIENTED_EDGE('',*,*,#1247,.T.);
#1247 = EDGE_CURVE('',#1240,#1216,#1248,.T.);
#1248 = LINE('',#1249,#1250);
#1249 = CARTESIAN_POINT('',(-3.1,-9.88,0.83));
#1250 = VECTOR('',#1251,1.);
#1251 = DIRECTION('',(1.,0.,0.));
#1252 = ORIENTED_EDGE('',*,*,#1215,.F.);
#1253 = ORIENTED_EDGE('',*,*,#445,.F.);
#1254 = FACE_BOUND('',#1255,.T.);
#1255 = EDGE_LOOP('',(#1256));
#1256 = ORIENTED_EDGE('',*,*,#1257,.F.);
#1257 = EDGE_CURVE('',#1258,#1258,#1260,.T.);
#1258 = VERTEX_POINT('',#1259);
#1259 = CARTESIAN_POINT('',(1.75,-9.88,4.));
#1260 = CIRCLE('',#1261,1.75);
#1261 = AXIS2_PLACEMENT_3D('',#1262,#1263,#1264);
#1262 = CARTESIAN_POINT('',(0.,-9.88,4.));
#1263 = DIRECTION('',(0.,-1.,2.2E-16));
#1264 = DIRECTION('',(1.,0.,0.));
#1265 = PLANE('',#1266);
#1266 = AXIS2_PLACEMENT_3D('',#1267,#1268,#1269);
#1267 = CARTESIAN_POINT('',(-3.1,-9.88,7.));
#1268 = DIRECTION('',(0.,-1.,0.));
#1269 = DIRECTION('',(1.,0.,0.));
#1270 = ADVANCED_FACE('',(#1271),#1282,.T.);
#1271 = FACE_BOUND('',#1272,.T.);
#1272 = EDGE_LOOP('',(#1273,#1274,#1280,#1281));
#1273 = ORIENTED_EDGE('',*,*,#1189,.T.);
#1274 = ORIENTED_EDGE('',*,*,#1275,.T.);
#1275 = EDGE_CURVE('',#1182,#1240,#1276,.T.);
#1276 = LINE('',#1277,#1278);
#1277 = CARTESIAN_POINT('',(-3.1,-12.38,0.83));
#1278 = VECTOR('',#1279,1.);
#1279 = DIRECTION('',(0.,1.,0.));
#1280 = ORIENTED_EDGE('',*,*,#1239,.F.);
#1281 = ORIENTED_EDGE('',*,*,#437,.F.);
#1282 = PLANE('',#1283);
#1283 = AXIS2_PLACEMENT_3D('',#1284,#1285,#1286);
#1284 = CARTESIAN_POINT('',(-3.1,-12.38,7.));
#1285 = DIRECTION('',(1.,0.,0.));
#1286 = DIRECTION('',(0.,1.,0.));
#1287 = ADVANCED_FACE('',(#1288),#1299,.F.);
#1288 = FACE_BOUND('',#1289,.F.);
#1289 = EDGE_LOOP('',(#1290,#1291,#1297,#1298));
#1290 = ORIENTED_EDGE('',*,*,#478,.F.);
#1291 = ORIENTED_EDGE('',*,*,#1292,.T.);
#1292 = EDGE_CURVE('',#479,#1199,#1293,.T.);
#1293 = LINE('',#1294,#1295);
#1294 = CARTESIAN_POINT('',(1.75,-14.25,4.));
#1295 = VECTOR('',#1296,1.);
#1296 = DIRECTION('',(0.,1.,-2.2E-16));
#1297 = ORIENTED_EDGE('',*,*,#1198,.T.);
#1298 = ORIENTED_EDGE('',*,*,#1292,.F.);
#1299 = CYLINDRICAL_SURFACE('',#1300,1.75);
#1300 = AXIS2_PLACEMENT_3D('',#1301,#1302,#1303);
#1301 = CARTESIAN_POINT('',(0.,-14.25,4.));
#1302 = DIRECTION('',(0.,-1.,2.2E-16));
#1303 = DIRECTION('',(1.,0.,0.));
#1304 = ADVANCED_FACE('',(#1305),#1316,.F.);
#1305 = FACE_BOUND('',#1306,.F.);
#1306 = EDGE_LOOP('',(#1307,#1308,#1314,#1315));
#1307 = ORIENTED_EDGE('',*,*,#507,.F.);
#1308 = ORIENTED_EDGE('',*,*,#1309,.T.);
#1309 = EDGE_CURVE('',#508,#1123,#1310,.T.);
#1310 = LINE('',#1311,#1312);
#1311 = CARTESIAN_POINT('',(12.5,8.,4.));
#1312 = VECTOR('',#1313,1.);
#1313 = DIRECTION('',(-1.,-0.,-0.));
#1314 = ORIENTED_EDGE('',*,*,#1122,.T.);
#1315 = ORIENTED_EDGE('',*,*,#1309,.F.);
#1316 = CYLINDRICAL_SURFACE('',#1317,1.75);
#1317 = AXIS2_PLACEMENT_3D('',#1318,#1319,#1320);
#1318 = CARTESIAN_POINT('',(12.5,6.25,4.));
#1319 = DIRECTION('',(1.,0.,0.));
#1320 = DIRECTION('',(0.,1.,0.));
#1321 = ADVANCED_FACE('',(#1322),#1325,.F.);
#1322 = FACE_BOUND('',#1323,.T.);
#1323 = EDGE_LOOP('',(#1324));
#1324 = ORIENTED_EDGE('',*,*,#533,.T.);
#1325 = PLANE('',#1326);
#1326 = AXIS2_PLACEMENT_3D('',#1327,#1328,#1329);
#1327 = CARTESIAN_POINT('',(-1.7E-16,1.45,7.5));
#1328 = DIRECTION('',(0.,0.,1.));
#1329 = DIRECTION('',(1.,0.,0.));
#1330 = ADVANCED_FACE('',(#1331),#1342,.F.);
#1331 = FACE_BOUND('',#1332,.F.);
#1332 = EDGE_LOOP('',(#1333,#1339,#1340,#1341));
#1333 = ORIENTED_EDGE('',*,*,#1334,.F.);
#1334 = EDGE_CURVE('',#1258,#544,#1335,.T.);
#1335 = LINE('',#1336,#1337);
#1336 = CARTESIAN_POINT('',(1.75,-14.25,4.));
#1337 = VECTOR('',#1338,1.);
#1338 = DIRECTION('',(0.,1.,-2.2E-16));
#1339 = ORIENTED_EDGE('',*,*,#1257,.F.);
#1340 = ORIENTED_EDGE('',*,*,#1334,.T.);
#1341 = ORIENTED_EDGE('',*,*,#543,.T.);
#1342 = CYLINDRICAL_SURFACE('',#1343,1.75);
#1343 = AXIS2_PLACEMENT_3D('',#1344,#1345,#1346);
#1344 = CARTESIAN_POINT('',(0.,-14.25,4.));
#1345 = DIRECTION('',(0.,-1.,2.2E-16));
#1346 = DIRECTION('',(1.,0.,0.));
#1347 = ADVANCED_FACE('',(#1348),#1361,.F.);
#1348 = FACE_BOUND('',#1349,.F.);
#1349 = EDGE_LOOP('',(#1350,#1351,#1357,#1358,#1359,#1360));
#1350 = ORIENTED_EDGE('',*,*,#1063,.F.);
#1351 = ORIENTED_EDGE('',*,*,#1352,.T.);
#1352 = EDGE_CURVE('',#1064,#742,#1353,.T.);
#1353 = LINE('',#1354,#1355);
#1354 = CARTESIAN_POINT('',(12.5,8.,4.));
#1355 = VECTOR('',#1356,1.);
#1356 = DIRECTION('',(-1.,-0.,-0.));
#1357 = ORIENTED_EDGE('',*,*,#741,.T.);
#1358 = ORIENTED_EDGE('',*,*,#668,.T.);
#1359 = ORIENTED_EDGE('',*,*,#773,.T.);
#1360 = ORIENTED_EDGE('',*,*,#1352,.F.);
#1361 = CYLINDRICAL_SURFACE('',#1362,1.75);
#1362 = AXIS2_PLACEMENT_3D('',#1363,#1364,#1365);
#1363 = CARTESIAN_POINT('',(12.5,6.25,4.));
#1364 = DIRECTION('',(1.,0.,0.));
#1365 = DIRECTION('',(0.,1.,0.));
#1366 = ADVANCED_FACE('',(#1367),#1370,.F.);
#1367 = FACE_BOUND('',#1368,.T.);
#1368 = EDGE_LOOP('',(#1369));
#1369 = ORIENTED_EDGE('',*,*,#733,.T.);
#1370 = PLANE('',#1371);
#1371 = AXIS2_PLACEMENT_3D('',#1372,#1373,#1374);
#1372 = CARTESIAN_POINT('',(-1.7E-16,1.45,7.5));
#1373 = DIRECTION('',(0.,0.,1.));
#1374 = DIRECTION('',(1.,0.,0.));
#1375 = ADVANCED_FACE('',(#1376),#1387,.F.);
#1376 = FACE_BOUND('',#1377,.F.);
#1377 = EDGE_LOOP('',(#1378,#1379,#1385,#1386));
#1378 = ORIENTED_EDGE('',*,*,#969,.F.);
#1379 = ORIENTED_EDGE('',*,*,#1380,.T.);
#1380 = EDGE_CURVE('',#970,#806,#1381,.T.);
#1381 = LINE('',#1382,#1383);
#1382 = CARTESIAN_POINT('',(-1.75,14.25,4.));
#1383 = VECTOR('',#1384,1.);
#1384 = DIRECTION('',(0.,-1.,2.2E-16));
#1385 = ORIENTED_EDGE('',*,*,#805,.T.);
#1386 = ORIENTED_EDGE('',*,*,#1380,.F.);
#1387 = CYLINDRICAL_SURFACE('',#1388,1.75);
#1388 = AXIS2_PLACEMENT_3D('',#1389,#1390,#1391);
#1389 = CARTESIAN_POINT('',(0.,14.25,4.));
#1390 = DIRECTION('',(0.,1.,-2.2E-16));
#1391 = DIRECTION('',(-1.,0.,0.));
#1392 = ADVANCED_FACE('',(#1393),#1399,.F.);
#1393 = FACE_BOUND('',#1394,.F.);
#1394 = EDGE_LOOP('',(#1395,#1396,#1397,#1398));
#1395 = ORIENTED_EDGE('',*,*,#928,.T.);
#1396 = ORIENTED_EDGE('',*,*,#952,.T.);
#1397 = ORIENTED_EDGE('',*,*,#987,.T.);
#1398 = ORIENTED_EDGE('',*,*,#1011,.T.);
#1399 = PLANE('',#1400);
#1400 = AXIS2_PLACEMENT_3D('',#1401,#1402,#1403);
#1401 = CARTESIAN_POINT('',(4.69,8.875,6.17));
#1402 = DIRECTION('',(0.,0.,1.));
#1403 = DIRECTION('',(1.,0.,0.));
#1404 = ADVANCED_FACE('',(#1405),#1411,.F.);
#1405 = FACE_BOUND('',#1406,.F.);
#1406 = EDGE_LOOP('',(#1407,#1408,#1409,#1410));
#1407 = ORIENTED_EDGE('',*,*,#1046,.T.);
#1408 = ORIENTED_EDGE('',*,*,#1081,.T.);
#1409 = ORIENTED_EDGE('',*,*,#1105,.T.);
#1410 = ORIENTED_EDGE('',*,*,#1140,.T.);
#1411 = PLANE('',#1412);
#1412 = AXIS2_PLACEMENT_3D('',#1413,#1414,#1415);
#1413 = CARTESIAN_POINT('',(4.69,8.875,6.17));
#1414 = DIRECTION('',(0.,0.,1.));
#1415 = DIRECTION('',(1.,0.,0.));
#1416 = ADVANCED_FACE('',(#1417),#1423,.T.);
#1417 = FACE_BOUND('',#1418,.F.);
#1418 = EDGE_LOOP('',(#1419,#1420,#1421,#1422));
#1419 = ORIENTED_EDGE('',*,*,#1275,.T.);
#1420 = ORIENTED_EDGE('',*,*,#1247,.T.);
#1421 = ORIENTED_EDGE('',*,*,#1223,.T.);
#1422 = ORIENTED_EDGE('',*,*,#1181,.T.);
#1423 = PLANE('',#1424);
#1424 = AXIS2_PLACEMENT_3D('',#1425,#1426,#1427);
#1425 = CARTESIAN_POINT('',(-3.1E-16,-11.13,0.83));
#1426 = DIRECTION('',(0.,0.,1.));
#1427 = DIRECTION('',(1.,0.,0.));
#1428 = ( GEOMETRIC_REPRESENTATION_CONTEXT(3) 
GLOBAL_UNCERTAINTY_ASSIGNED_CONTEXT((#1432)) 
GLOBAL_UNIT_ASSIGNED_CONTEXT((#1429,#1430,#1431)) REPRESENTATION_CONTEXT
('Context #1','3D Context with UNIT and UNCERTAINTY') );
#1429 = ( LENGTH_UNIT() NAMED_UNIT(*) SI_UNIT(.MILLI.,.METRE.) );
#1430 = ( NAMED_UNIT(*) PLANE_ANGLE_UNIT() SI_UNIT($,.RADIAN.) );
#1431 = ( NAMED_UNIT(*) SI_UNIT($,.STERADIAN.) SOLID_ANGLE_UNIT() );
#1432 = UNCERTAINTY_MEASURE_WITH_UNIT(LENGTH_MEASURE(1.E-07),#1429,
  'distance_accuracy_value','confusion accuracy');
#1433 = PRODUCT_RELATED_PRODUCT_CATEGORY('part',$,(#7));
#1434 = MECHANICAL_DESIGN_GEOMETRIC_PRESENTATION_REPRESENTATION('',(
    #1435),#1428);
#1435 = STYLED_ITEM('color',(#1436),#15);
#1436 = PRESENTATION_STYLE_ASSIGNMENT((#1437,#1443));
#1437 = SURFACE_STYLE_USAGE(.BOTH.,#1438);
#1438 = SURFACE_SIDE_STYLE('',(#1439));
#1439 = SURFACE_STYLE_FILL_AREA(#1440);
#1440 = FILL_AREA_STYLE('',(#1441));
#1441 = FILL_AREA_STYLE_COLOUR('',#1442);
#1442 = COLOUR_RGB('',0.800000010877,0.800000010877,0.800000010877);
#1443 = CURVE_STYLE('',#1444,POSITIVE_LENGTH_MEASURE(0.1),#1445);
#1444 = DRAUGHTING_PRE_DEFINED_CURVE_FONT('continuous');
#1445 = COLOUR_RGB('',9.803921802644E-02,9.803921802644E-02,
  9.803921802644E-02);
ENDSEC;
END-ISO-10303-21;
