0
SECTION
2
HEADER
9
$INSUNITS
70
4
9
$ACADVER
1
AC1014
9
$HANDSEED
5
FFFF
0
ENDSEC
0
SECTION
2
TABLES
0
TABLE
2
VPORT
5
8
100
AcDbSymbolTable
0
ENDTAB
0
TABLE
2
LTYPE
5
5
100
AcDbSymbolTable
70
2
0
LTYPE
5
14
100
AcDbSymbolTableRecord
100
AcDbLinetypeTableRecord
2
BYBLOCK
70
0
0
LTYPE
5
15
100
AcDbSymbolTableRecord
100
AcDbLinetypeTableRecord
2
BYLAYER
70
0
0
ENDTAB
0
TABLE
2
LAYER
5
2
100
AcDbSymbolTable
70
3
0
LAYER
5
50
100
AcDbSymbolTableRecord
100
AcDbLayerTableRecord
2
0
70
0
6
CONTINUOUS
0
LAYER
5
51
100
AcDbSymbolTableRecord
100
AcDbLayerTableRecord
2
CUTOUTS
70
0
62
1
6
CONTINUOUS
0
LAYER
5
52
100
AcDbSymbolTableRecord
100
AcDbLayerTableRecord
2
PERIMETER
70
0
62
5
6
CONTINUOUS
0
ENDTAB
0
TABLE
2
STYLE
5
3
100
AcDbSymbolTable
70
1
0
STYLE
5
11
100
AcDbSymbolTableRecord
100
AcDbTextStyleTableRecord
2
STANDARD
70
0
0
ENDTAB
0
TABLE
2
VIEW
5
6
100
AcDbSymbolTable
0
ENDTAB
0
TABLE
2
UCS
5
7
100
AcDbSymbolTable
0
ENDTAB
0
TABLE
2
APPID
5
9
100
AcDbSymbolTable
70
1
0
APPID
5
12
100
AcDbSymbolTableRecord
100
AcDbRegAppTableRecord
2
ACAD
70
0
0
ENDTAB
0
TABLE
2
DIMSTYLE
5
A
100
AcDbSymbolTable
0
ENDTAB
0
TABLE
2
BLOCK_RECORD
5
1
100
AcDbSymbolTable
70
2
0
BLOCK_RECORD
5
1F
100
AcDbSymbolTableRecord
100
AcDbBlockTableRecord
2
*MODEL_SPACE
0
BLOCK_RECORD
5
1B
100
AcDbSymbolTableRecord
100
AcDbBlockTableRecord
2
*PAPER_SPACE
0
ENDTAB
0
ENDSEC
0
SECTION
2
BLOCKS
0
BLOCK
5
20
100
AcDbEntity
100
AcDbBlockBegin
2
*MODEL_SPACE
0
ENDBLK
5
21
100
AcDbEntity
100
AcDbBlockEnd
0
BLOCK
5
1C
100
AcDbEntity
100
AcDbBlockBegin
2
*PAPER_SPACE
0
ENDBLK
5
1D
100
AcDbEntity
100
AcDbBlockEnd
0
ENDSEC
0
SECTION
2
ENTITIES
0
LINE
5
100
100
AcDbEntity
8
CUTOUTS
100
AcDbLine
10
-14.410990421608947
20
-92.997260059909991
30
0
11
-12.159324371767976
21
-96.897260059909939
31
0
0
LINE
5
101
100
AcDbEntity
8
CUTOUTS
100
AcDbLine
10
-12.159324371767976
20
-96.897260059909939
30
0
11
-14.410990421608869
21
-100.79726005990003
31
0
0
LINE
5
102
100
AcDbEntity
8
CUTOUTS
100
AcDbLine
10
-14.410990421608869
20
-100.79726005990003
30
0
11
-18.914322521281129
21
-100.79726005990003
31
0
0
LINE
5
103
100
AcDbEntity
8
CUTOUTS
100
AcDbLine
10
-18.914322521281129
20
-100.79726005990003
30
0
11
-21.165988571122018
21
-96.897260059909939
31
0
0
LINE
5
104
100
AcDbEntity
8
CUTOUTS
100
AcDbLine
10
-21.165988571122018
20
-96.897260059909939
30
0
11
-18.914322521281054
21
-92.997260059909991
31
0
0
LINE
5
105
100
AcDbEntity
8
CUTOUTS
100
AcDbLine
10
-18.914322521281054
20
-92.997260059909991
30
0
11
-14.410990421608947
21
-92.997260059909991
31
0
0
LINE
5
106
100
AcDbEntity
8
CUTOUTS
100
AcDbLine
10
4.1604381498190444
20
-92.997260059909991
30
0
11
6.4121041996590389
21
-96.897260059909939
31
0
0
LINE
5
107
100
AcDbEntity
8
CUTOUTS
100
AcDbLine
10
6.4121041996590389
20
-96.897260059909939
30
0
11
4.1604381498191199
21
-100.79726005990003
31
0
0
LINE
5
108
100
AcDbEntity
8
CUTOUTS
100
AcDbLine
10
4.1604381498191199
20
-100.79726005990003
30
0
11
-0.34289394986010746
21
-100.79726005990003
31
0
0
LINE
5
109
100
AcDbEntity
8
CUTOUTS
100
AcDbLine
10
-0.34289394986010752
20
-100.79726005990003
30
0
11
-2.5945599996990465
21
-96.897260059909939
31
0
0
LINE
5
10A
100
AcDbEntity
8
CUTOUTS
100
AcDbLine
10
-2.5945599996990465
20
-96.897260059909939
30
0
11
-0.3428939498600328
21
-92.997260059909991
31
0
0
LINE
5
10B
100
AcDbEntity
8
CUTOUTS
100
AcDbLine
10
-0.3428939498600328
20
-92.997260059909991
30
0
11
4.1604381498190444
21
-92.997260059909991
31
0
0
LINE
5
10C
100
AcDbEntity
8
CUTOUTS
100
AcDbLine
10
18.228534621568894
20
-100.79726005990003
30
0
11
15.976868571729955
21
-96.897260059909939
31
0
0
LINE
5
10D
100
AcDbEntity
8
CUTOUTS
100
AcDbLine
10
15.976868571729955
20
-96.897260059909939
30
0
11
18.228534621568965
21
-92.997260059909991
31
0
0
LINE
5
10E
100
AcDbEntity
8
CUTOUTS
100
AcDbLine
10
18.228534621568965
20
-92.997260059909991
30
0
11
22.73186672124805
21
-92.997260059909991
31
0
0
LINE
5
10F
100
AcDbEntity
8
CUTOUTS
100
AcDbLine
10
22.73186672124805
20
-92.997260059909991
30
0
11
24.983532771088043
21
-96.897260059909939
31
0
0
LINE
5
110
100
AcDbEntity
8
CUTOUTS
100
AcDbLine
10
24.983532771088043
20
-96.897260059909939
30
0
11
22.731866721248121
21
-100.79726005990003
31
0
0
LINE
5
111
100
AcDbEntity
8
CUTOUTS
100
AcDbLine
10
22.731866721248121
20
-100.79726005990003
30
0
11
18.228534621568894
21
-100.79726005990003
31
0
0
LINE
5
112
100
AcDbEntity
8
CUTOUTS
100
AcDbLine
10
-18.914322521281054
20
-74.247260059909991
30
0
11
-14.410990421608947
21
-74.247260059909991
31
0
0
LINE
5
113
100
AcDbEntity
8
CUTOUTS
100
AcDbLine
10
-14.410990421608947
20
-74.247260059909991
30
0
11
-12.159324371767944
21
-78.147260059909996
31
0
0
LINE
5
114
100
AcDbEntity
8
CUTOUTS
100
AcDbLine
10
-12.159324371767944
20
-78.147260059909996
30
0
11
-14.410990421608947
21
-82.047260059910002
31
0
0
LINE
5
115
100
AcDbEntity
8
CUTOUTS
100
AcDbLine
10
-14.410990421608947
20
-82.047260059910002
30
0
11
-18.914322521281054
21
-82.047260059910002
31
0
0
LINE
5
116
100
AcDbEntity
8
CUTOUTS
100
AcDbLine
10
-18.914322521281054
20
-82.047260059910002
30
0
11
-21.165988571122057
21
-78.147260059909996
31
0
0
LINE
5
117
100
AcDbEntity
8
CUTOUTS
100
AcDbLine
10
-21.165988571122057
20
-78.147260059909996
30
0
11
-18.914322521281054
21
-74.247260059909991
31
0
0
LINE
5
118
100
AcDbEntity
8
CUTOUTS
100
AcDbLine
10
4.1604381498190444
20
-74.247260059909991
30
0
11
6.4121041996590709
21
-78.147260059909996
31
0
0
LINE
5
119
100
AcDbEntity
8
CUTOUTS
100
AcDbLine
10
6.4121041996590709
20
-78.147260059909996
30
0
11
4.1604381498190444
21
-82.047260059910002
31
0
0
LINE
5
11A
100
AcDbEntity
8
CUTOUTS
100
AcDbLine
10
4.1604381498190444
20
-82.047260059910002
30
0
11
-0.34289394986003252
21
-82.047260059910002
31
0
0
LINE
5
11B
100
AcDbEntity
8
CUTOUTS
100
AcDbLine
10
-0.34289394986003274
20
-82.047260059910002
30
0
11
-2.5945599996990842
21
-78.147260059909996
31
0
0
LINE
5
11C
100
AcDbEntity
8
CUTOUTS
100
AcDbLine
10
-2.5945599996990842
20
-78.147260059909996
30
0
11
-0.3428939498600328
21
-74.247260059909991
31
0
0
LINE
5
11D
100
AcDbEntity
8
CUTOUTS
100
AcDbLine
10
-0.3428939498600328
20
-74.247260059909991
30
0
11
4.1604381498190444
21
-74.247260059909991
31
0
0
LINE
5
11E
100
AcDbEntity
8
CUTOUTS
100
AcDbLine
10
-14.410990421608947
20
-55.497260059910005
30
0
11
-12.159324371767944
21
-59.39726005991001
31
0
0
LINE
5
11F
100
AcDbEntity
8
CUTOUTS
100
AcDbLine
10
-12.159324371767944
20
-59.39726005991001
30
0
11
-14.410990421608947
21
-63.297260059910002
31
0
0
LINE
5
120
100
AcDbEntity
8
CUTOUTS
100
AcDbLine
10
-14.410990421608947
20
-63.297260059910002
30
0
11
-18.914322521281054
21
-63.297260059910002
31
0
0
LINE
5
121
100
AcDbEntity
8
CUTOUTS
100
AcDbLine
10
-18.914322521281054
20
-63.297260059910002
30
0
11
-21.165988571122053
21
-59.39726005991001
31
0
0
LINE
5
122
100
AcDbEntity
8
CUTOUTS
100
AcDbLine
10
-21.165988571122053
20
-59.39726005991001
30
0
11
-18.914322521281054
21
-55.497260059910005
31
0
0
LINE
5
123
100
AcDbEntity
8
CUTOUTS
100
AcDbLine
10
-18.914322521281054
20
-55.497260059910005
30
0
11
-14.410990421608947
21
-55.497260059910005
31
0
0
LINE
5
124
100
AcDbEntity
8
CUTOUTS
100
AcDbLine
10
4.1604381498190444
20
-55.497260059910005
30
0
11
6.4121041996590709
21
-59.39726005991001
31
0
0
LINE
5
125
100
AcDbEntity
8
CUTOUTS
100
AcDbLine
10
6.4121041996590709
20
-59.39726005991001
30
0
11
4.1604381498190444
21
-63.297260059910002
31
0
0
LINE
5
126
100
AcDbEntity
8
CUTOUTS
100
AcDbLine
10
4.1604381498190444
20
-63.297260059910002
30
0
11
-0.34289394986003308
21
-63.297260059910002
31
0
0
LINE
5
127
100
AcDbEntity
8
CUTOUTS
100
AcDbLine
10
-0.34289394986003285
20
-63.297260059910002
30
0
11
-2.5945599996990838
21
-59.39726005991001
31
0
0
LINE
5
128
100
AcDbEntity
8
CUTOUTS
100
AcDbLine
10
-2.5945599996990838
20
-59.39726005991001
30
0
11
-0.34289394986003308
21
-55.497260059910005
31
0
0
LINE
5
129
100
AcDbEntity
8
CUTOUTS
100
AcDbLine
10
-0.34289394986003308
20
-55.497260059910005
30
0
11
4.1604381498190444
21
-55.497260059910005
31
0
0
LINE
5
12A
100
AcDbEntity
8
CUTOUTS
100
AcDbLine
10
22.73186672124805
20
-82.047260059910002
30
0
11
18.228534621568969
21
-82.047260059910002
31
0
0
LINE
5
12B
100
AcDbEntity
8
CUTOUTS
100
AcDbLine
10
18.228534621568969
20
-82.047260059910002
30
0
11
15.976868571729918
21
-78.147260059909996
31
0
0
LINE
5
12C
100
AcDbEntity
8
CUTOUTS
100
AcDbLine
10
15.976868571729918
20
-78.147260059909996
30
0
11
18.228534621568965
21
-74.247260059909991
31
0
0
LINE
5
12D
100
AcDbEntity
8
CUTOUTS
100
AcDbLine
10
18.228534621568965
20
-74.247260059909991
30
0
11
22.73186672124805
21
-74.247260059909991
31
0
0
LINE
5
12E
100
AcDbEntity
8
CUTOUTS
100
AcDbLine
10
22.73186672124805
20
-74.247260059909991
30
0
11
24.983532771088072
21
-78.147260059909996
31
0
0
LINE
5
12F
100
AcDbEntity
8
CUTOUTS
100
AcDbLine
10
24.983532771088072
20
-78.147260059909996
30
0
11
22.73186672124805
21
-82.047260059910002
31
0
0
LINE
5
130
100
AcDbEntity
8
CUTOUTS
100
AcDbLine
10
24.983532771088072
20
-59.39726005991001
30
0
11
22.73186672124805
21
-63.297260059910002
31
0
0
LINE
5
131
100
AcDbEntity
8
CUTOUTS
100
AcDbLine
10
22.73186672124805
20
-63.297260059910002
30
0
11
18.228534621568969
21
-63.297260059910002
31
0
0
LINE
5
132
100
AcDbEntity
8
CUTOUTS
100
AcDbLine
10
18.228534621568969
20
-63.297260059910002
30
0
11
15.976868571729918
21
-59.39726005991001
31
0
0
LINE
5
133
100
AcDbEntity
8
CUTOUTS
100
AcDbLine
10
15.976868571729918
20
-59.39726005991001
30
0
11
18.228534621568965
21
-55.497260059910005
31
0
0
LINE
5
134
100
AcDbEntity
8
CUTOUTS
100
AcDbLine
10
18.228534621568965
20
-55.497260059910005
30
0
11
22.73186672124805
21
-55.497260059910005
31
0
0
LINE
5
135
100
AcDbEntity
8
CUTOUTS
100
AcDbLine
10
22.73186672124805
20
-55.497260059910005
30
0
11
24.983532771088072
21
-59.39726005991001
31
0
0
LINE
5
136
100
AcDbEntity
8
CUTOUTS
100
AcDbLine
10
41.303295292677035
20
-92.997260059909991
30
0
11
43.554961342516037
21
-96.897260059909925
31
0
0
LINE
5
137
100
AcDbEntity
8
CUTOUTS
100
AcDbLine
10
43.554961342516037
20
-96.897260059909925
30
0
11
41.303295292677106
21
-100.79726005990003
31
0
0
LINE
5
138
100
AcDbEntity
8
CUTOUTS
100
AcDbLine
10
41.303295292677106
20
-100.79726005990003
30
0
11
36.799963192997886
21
-100.79726005990003
31
0
0
LINE
5
139
100
AcDbEntity
8
CUTOUTS
100
AcDbLine
10
36.799963192997886
20
-100.79726005990003
30
0
11
34.548297143157967
21
-96.897260059909939
31
0
0
LINE
5
13A
100
AcDbEntity
8
CUTOUTS
100
AcDbLine
10
34.548297143157967
20
-96.897260059909939
30
0
11
36.799963192997957
21
-92.997260059909991
31
0
0
LINE
5
13B
100
AcDbEntity
8
CUTOUTS
100
AcDbLine
10
36.799963192997957
20
-92.997260059909991
30
0
11
41.303295292677035
21
-92.997260059909991
31
0
0
LINE
5
13C
100
AcDbEntity
8
CUTOUTS
100
AcDbLine
10
59.87472386410505
20
-92.997260059909991
30
0
11
62.126389913945033
21
-96.897260059909939
31
0
0
LINE
5
13D
100
AcDbEntity
8
CUTOUTS
100
AcDbLine
10
62.126389913945033
20
-96.897260059909939
30
0
11
59.874723864105121
21
-100.79726005990003
31
0
0
LINE
5
13E
100
AcDbEntity
8
CUTOUTS
100
AcDbLine
10
59.874723864105121
20
-100.79726005990003
30
0
11
55.371391764425901
21
-100.79726005990003
31
0
0
LINE
5
13F
100
AcDbEntity
8
CUTOUTS
100
AcDbLine
10
55.371391764425901
20
-100.79726005990003
30
0
11
53.119725714586963
21
-96.897260059909939
31
0
0
LINE
5
140
100
AcDbEntity
8
CUTOUTS
100
AcDbLine
10
53.119725714586963
20
-96.897260059909939
30
0
11
55.371391764425972
21
-92.997260059909991
31
0
0
LINE
5
141
100
AcDbEntity
8
CUTOUTS
100
AcDbLine
10
55.371391764425972
20
-92.997260059909991
30
0
11
59.87472386410505
21
-92.997260059909991
31
0
0
LINE
5
142
100
AcDbEntity
8
CUTOUTS
100
AcDbLine
10
78.446152435534032
20
-92.997260059909991
30
0
11
80.697818485373048
21
-96.897260059909939
31
0
0
LINE
5
143
100
AcDbEntity
8
CUTOUTS
100
AcDbLine
10
80.697818485373048
20
-96.897260059909939
30
0
11
78.446152435534117
21
-100.79726005990003
31
0
0
LINE
5
144
100
AcDbEntity
8
CUTOUTS
100
AcDbLine
10
78.446152435534117
20
-100.79726005990003
30
0
11
73.94282033585489
21
-100.79726005990003
31
0
0
LINE
5
145
100
AcDbEntity
8
CUTOUTS
100
AcDbLine
10
73.94282033585489
20
-100.79726005990003
30
0
11
71.691154286014978
21
-96.897260059909939
31
0
0
LINE
5
146
100
AcDbEntity
8
CUTOUTS
100
AcDbLine
10
71.691154286014978
20
-96.897260059909939
30
0
11
73.942820335854961
21
-92.997260059909991
31
0
0
LINE
5
147
100
AcDbEntity
8
CUTOUTS
100
AcDbLine
10
73.942820335854961
20
-92.997260059909991
30
0
11
78.446152435534032
21
-92.997260059909991
31
0
0
LINE
5
148
100
AcDbEntity
8
CUTOUTS
100
AcDbLine
10
92.514248907282891
20
-100.79726005990003
30
0
11
90.262582857443959
21
-96.897260059909939
31
0
0
LINE
5
149
100
AcDbEntity
8
CUTOUTS
100
AcDbLine
10
90.262582857443959
20
-96.897260059909939
30
0
11
92.514248907282962
21
-92.997260059909991
31
0
0
LINE
5
14A
100
AcDbEntity
8
CUTOUTS
100
AcDbLine
10
92.514248907282962
20
-92.997260059909991
30
0
11
97.017581006962033
21
-92.997260059909991
31
0
0
LINE
5
14B
100
AcDbEntity
8
CUTOUTS
100
AcDbLine
10
97.017581006962033
20
-92.997260059909991
30
0
11
99.269247056802044
21
-96.897260059909939
31
0
0
LINE
5
14C
100
AcDbEntity
8
CUTOUTS
100
AcDbLine
10
99.269247056802044
20
-96.897260059909939
30
0
11
97.017581006962118
21
-100.79726005990003
31
0
0
LINE
5
14D
100
AcDbEntity
8
CUTOUTS
100
AcDbLine
10
97.017581006962118
20
-100.79726005990003
30
0
11
92.514248907282891
21
-100.79726005990003
31
0
0
LINE
5
14E
100
AcDbEntity
8
CUTOUTS
100
AcDbLine
10
34.548297143157932
20
-78.147260059909996
30
0
11
36.799963192997957
21
-74.247260059909991
31
0
0
LINE
5
14F
100
AcDbEntity
8
CUTOUTS
100
AcDbLine
10
36.799963192997957
20
-74.247260059909991
30
0
11
41.303295292677035
21
-74.247260059909991
31
0
0
LINE
5
150
100
AcDbEntity
8
CUTOUTS
100
AcDbLine
10
41.303295292677035
20
-74.247260059909991
30
0
11
43.554961342516087
21
-78.147260059909996
31
0
0
LINE
5
151
100
AcDbEntity
8
CUTOUTS
100
AcDbLine
10
43.554961342516087
20
-78.147260059909996
30
0
11
41.303295292677035
21
-82.047260059910002
31
0
0
LINE
5
152
100
AcDbEntity
8
CUTOUTS
100
AcDbLine
10
41.303295292677035
20
-82.047260059910002
30
0
11
36.799963192997957
21
-82.047260059910002
31
0
0
LINE
5
153
100
AcDbEntity
8
CUTOUTS
100
AcDbLine
10
36.799963192997957
20
-82.047260059910002
30
0
11
34.548297143157932
21
-78.147260059909996
31
0
0
LINE
5
154
100
AcDbEntity
8
CUTOUTS
100
AcDbLine
10
59.87472386410505
20
-74.247260059909991
30
0
11
62.126389913945069
21
-78.147260059909996
31
0
0
LINE
5
155
100
AcDbEntity
8
CUTOUTS
100
AcDbLine
10
62.126389913945069
20
-78.147260059909996
30
0
11
59.87472386410505
21
-82.047260059910002
31
0
0
LINE
5
156
100
AcDbEntity
8
CUTOUTS
100
AcDbLine
10
59.87472386410505
20
-82.047260059910002
30
0
11
55.371391764425972
21
-82.047260059910002
31
0
0
LINE
5
157
100
AcDbEntity
8
CUTOUTS
100
AcDbLine
10
55.371391764425972
20
-82.047260059910002
30
0
11
53.11972571458692
21
-78.147260059909996
31
0
0
LINE
5
158
100
AcDbEntity
8
CUTOUTS
100
AcDbLine
10
53.11972571458692
20
-78.147260059909996
30
0
11
55.371391764425972
21
-74.247260059909991
31
0
0
LINE
5
159
100
AcDbEntity
8
CUTOUTS
100
AcDbLine
10
55.371391764425972
20
-74.247260059909991
30
0
11
59.87472386410505
21
-74.247260059909991
31
0
0
LINE
5
15A
100
AcDbEntity
8
CUTOUTS
100
AcDbLine
10
43.554961342516087
20
-59.39726005991001
30
0
11
41.303295292677035
21
-63.297260059910002
31
0
0
LINE
5
15B
100
AcDbEntity
8
CUTOUTS
100
AcDbLine
10
41.303295292677035
20
-63.297260059910002
30
0
11
36.799963192997957
21
-63.297260059910002
31
0
0
LINE
5
15C
100
AcDbEntity
8
CUTOUTS
100
AcDbLine
10
36.799963192997957
20
-63.297260059910002
30
0
11
34.548297143157932
21
-59.39726005991001
31
0
0
LINE
5
15D
100
AcDbEntity
8
CUTOUTS
100
AcDbLine
10
34.548297143157932
20
-59.39726005991001
30
0
11
36.799963192997957
21
-55.497260059910005
31
0
0
LINE
5
15E
100
AcDbEntity
8
CUTOUTS
100
AcDbLine
10
36.799963192997957
20
-55.497260059910005
30
0
11
41.303295292677035
21
-55.497260059910005
31
0
0
LINE
5
15F
100
AcDbEntity
8
CUTOUTS
100
AcDbLine
10
41.303295292677035
20
-55.497260059910005
30
0
11
43.554961342516087
21
-59.39726005991001
31
0
0
LINE
5
160
100
AcDbEntity
8
CUTOUTS
100
AcDbLine
10
59.87472386410505
20
-55.497260059910005
30
0
11
62.126389913945069
21
-59.39726005991001
31
0
0
LINE
5
161
100
AcDbEntity
8
CUTOUTS
100
AcDbLine
10
62.126389913945069
20
-59.39726005991001
30
0
11
59.87472386410505
21
-63.297260059910002
31
0
0
LINE
5
162
100
AcDbEntity
8
CUTOUTS
100
AcDbLine
10
59.87472386410505
20
-63.297260059910002
30
0
11
55.371391764425972
21
-63.297260059910002
31
0
0
LINE
5
163
100
AcDbEntity
8
CUTOUTS
100
AcDbLine
10
55.371391764425972
20
-63.297260059910002
30
0
11
53.11972571458692
21
-59.39726005991001
31
0
0
LINE
5
164
100
AcDbEntity
8
CUTOUTS
100
AcDbLine
10
53.11972571458692
20
-59.39726005991001
30
0
11
55.371391764425972
21
-55.497260059910005
31
0
0
LINE
5
165
100
AcDbEntity
8
CUTOUTS
100
AcDbLine
10
55.371391764425972
20
-55.497260059910005
30
0
11
59.87472386410505
21
-55.497260059910005
31
0
0
LINE
5
166
100
AcDbEntity
8
CUTOUTS
100
AcDbLine
10
78.446152435534032
20
-74.247260059909991
30
0
11
80.697818485373091
21
-78.147260059909996
31
0
0
LINE
5
167
100
AcDbEntity
8
CUTOUTS
100
AcDbLine
10
80.697818485373091
20
-78.147260059909996
30
0
11
78.446152435534046
21
-82.047260059910002
31
0
0
LINE
5
168
100
AcDbEntity
8
CUTOUTS
100
AcDbLine
10
78.446152435534046
20
-82.047260059910002
30
0
11
73.942820335854961
21
-82.047260059910002
31
0
0
LINE
5
169
100
AcDbEntity
8
CUTOUTS
100
AcDbLine
10
73.942820335854961
20
-82.047260059910002
30
0
11
71.691154286014935
21
-78.147260059909996
31
0
0
LINE
5
16A
100
AcDbEntity
8
CUTOUTS
100
AcDbLine
10
71.691154286014935
20
-78.147260059909996
30
0
11
73.942820335854961
21
-74.247260059909991
31
0
0
LINE
5
16B
100
AcDbEntity
8
CUTOUTS
100
AcDbLine
10
73.942820335854961
20
-74.247260059909991
30
0
11
78.446152435534032
21
-74.247260059909991
31
0
0
LINE
5
16C
100
AcDbEntity
8
CUTOUTS
100
AcDbLine
10
97.017581006962033
20
-74.247260059909991
30
0
11
99.269247056802072
21
-78.14726005991001
31
0
0
LINE
5
16D
100
AcDbEntity
8
CUTOUTS
100
AcDbLine
10
99.269247056802072
20
-78.14726005991001
30
0
11
97.017581006962047
21
-82.047260059910002
31
0
0
LINE
5
16E
100
AcDbEntity
8
CUTOUTS
100
AcDbLine
10
97.017581006962047
20
-82.047260059910002
30
0
11
92.514248907282962
21
-82.047260059910002
31
0
0
LINE
5
16F
100
AcDbEntity
8
CUTOUTS
100
AcDbLine
10
92.514248907282962
20
-82.047260059910002
30
0
11
90.262582857443917
21
-78.147260059909996
31
0
0
LINE
5
170
100
AcDbEntity
8
CUTOUTS
100
AcDbLine
10
90.262582857443917
20
-78.147260059909996
30
0
11
92.514248907282962
21
-74.247260059909991
31
0
0
LINE
5
171
100
AcDbEntity
8
CUTOUTS
100
AcDbLine
10
92.514248907282962
20
-74.247260059909991
30
0
11
97.017581006962033
21
-74.247260059909991
31
0
0
LINE
5
172
100
AcDbEntity
8
CUTOUTS
100
AcDbLine
10
78.446152435534032
20
-55.497260059910005
30
0
11
80.697818485373091
21
-59.397260059910018
31
0
0
LINE
5
173
100
AcDbEntity
8
CUTOUTS
100
AcDbLine
10
80.697818485373091
20
-59.397260059910018
30
0
11
78.446152435534046
21
-63.297260059910002
31
0
0
LINE
5
174
100
AcDbEntity
8
CUTOUTS
100
AcDbLine
10
78.446152435534046
20
-63.297260059910002
30
0
11
73.942820335854961
21
-63.297260059910002
31
0
0
LINE
5
175
100
AcDbEntity
8
CUTOUTS
100
AcDbLine
10
73.942820335854961
20
-63.297260059910002
30
0
11
71.691154286014935
21
-59.39726005991001
31
0
0
LINE
5
176
100
AcDbEntity
8
CUTOUTS
100
AcDbLine
10
71.691154286014935
20
-59.39726005991001
30
0
11
73.942820335854961
21
-55.497260059910005
31
0
0
LINE
5
177
100
AcDbEntity
8
CUTOUTS
100
AcDbLine
10
73.942820335854961
20
-55.497260059910005
30
0
11
78.446152435534032
21
-55.497260059910005
31
0
0
LINE
5
178
100
AcDbEntity
8
CUTOUTS
100
AcDbLine
10
97.017581006962033
20
-55.497260059910005
30
0
11
99.269247056802072
21
-59.397260059910018
31
0
0
LINE
5
179
100
AcDbEntity
8
CUTOUTS
100
AcDbLine
10
99.269247056802072
20
-59.397260059910018
30
0
11
97.017581006962047
21
-63.297260059909995
31
0
0
LINE
5
17A
100
AcDbEntity
8
CUTOUTS
100
AcDbLine
10
97.017581006962047
20
-63.297260059909995
30
0
11
92.514248907282962
21
-63.297260059910002
31
0
0
LINE
5
17B
100
AcDbEntity
8
CUTOUTS
100
AcDbLine
10
92.514248907282962
20
-63.297260059910002
30
0
11
90.262582857443917
21
-59.39726005991001
31
0
0
LINE
5
17C
100
AcDbEntity
8
CUTOUTS
100
AcDbLine
10
90.262582857443917
20
-59.39726005991001
30
0
11
92.514248907282962
21
-55.497260059910005
31
0
0
LINE
5
17D
100
AcDbEntity
8
CUTOUTS
100
AcDbLine
10
92.514248907282962
20
-55.497260059910005
30
0
11
97.017581006962033
21
-55.497260059910005
31
0
0
LINE
5
17E
100
AcDbEntity
8
CUTOUTS
100
AcDbLine
10
-14.410990421608943
20
-36.747260059910005
30
0
11
-12.159324371767941
21
-40.64726005991001
31
0
0
LINE
5
17F
100
AcDbEntity
8
CUTOUTS
100
AcDbLine
10
-12.159324371767941
20
-40.64726005991001
30
0
11
-14.410990421608945
21
-44.547260059910002
31
0
0
LINE
5
180
100
AcDbEntity
8
CUTOUTS
100
AcDbLine
10
-14.410990421608945
20
-44.547260059910002
30
0
11
-18.914322521281054
21
-44.547260059910002
31
0
0
LINE
5
181
100
AcDbEntity
8
CUTOUTS
100
AcDbLine
10
-18.914322521281054
20
-44.547260059910002
30
0
11
-21.165988571122053
21
-40.64726005991001
31
0
0
LINE
5
182
100
AcDbEntity
8
CUTOUTS
100
AcDbLine
10
-21.165988571122053
20
-40.64726005991001
30
0
11
-18.914322521281054
21
-36.747260059910005
31
0
0
LINE
5
183
100
AcDbEntity
8
CUTOUTS
100
AcDbLine
10
-18.914322521281054
20
-36.747260059910005
30
0
11
-14.410990421608943
21
-36.747260059910005
31
0
0
LINE
5
184
100
AcDbEntity
8
CUTOUTS
100
AcDbLine
10
4.1604381498190444
20
-36.747260059910005
30
0
11
6.4121041996590709
21
-40.64726005991001
31
0
0
LINE
5
185
100
AcDbEntity
8
CUTOUTS
100
AcDbLine
10
6.4121041996590709
20
-40.64726005991001
30
0
11
4.1604381498190444
21
-44.547260059910002
31
0
0
LINE
5
186
100
AcDbEntity
8
CUTOUTS
100
AcDbLine
10
4.1604381498190444
20
-44.547260059910002
30
0
11
-0.34289394986003308
21
-44.547260059910002
31
0
0
LINE
5
187
100
AcDbEntity
8
CUTOUTS
100
AcDbLine
10
-0.34289394986003285
20
-44.547260059910002
30
0
11
-2.5945599996990838
21
-40.64726005991001
31
0
0
LINE
5
188
100
AcDbEntity
8
CUTOUTS
100
AcDbLine
10
-2.5945599996990838
20
-40.64726005991001
30
0
11
-0.34289394986003308
21
-36.747260059910005
31
0
0
LINE
5
189
100
AcDbEntity
8
CUTOUTS
100
AcDbLine
10
-0.34289394986003308
20
-36.747260059910005
30
0
11
4.1604381498190444
21
-36.747260059910005
31
0
0
LINE
5
18A
100
AcDbEntity
8
CUTOUTS
100
AcDbLine
10
22.73186672124805
20
-36.747260059910005
30
0
11
24.983532771088072
21
-40.64726005991001
31
0
0
LINE
5
18B
100
AcDbEntity
8
CUTOUTS
100
AcDbLine
10
24.983532771088072
20
-40.64726005991001
30
0
11
22.73186672124805
21
-44.547260059910002
31
0
0
LINE
5
18C
100
AcDbEntity
8
CUTOUTS
100
AcDbLine
10
22.73186672124805
20
-44.547260059910002
30
0
11
18.228534621568969
21
-44.547260059910002
31
0
0
LINE
5
18D
100
AcDbEntity
8
CUTOUTS
100
AcDbLine
10
18.228534621568969
20
-44.547260059910002
30
0
11
15.976868571729918
21
-40.64726005991001
31
0
0
LINE
5
18E
100
AcDbEntity
8
CUTOUTS
100
AcDbLine
10
15.976868571729918
20
-40.64726005991001
30
0
11
18.228534621568965
21
-36.747260059910005
31
0
0
LINE
5
18F
100
AcDbEntity
8
CUTOUTS
100
AcDbLine
10
18.228534621568965
20
-36.747260059910005
30
0
11
22.73186672124805
21
-36.747260059910005
31
0
0
LINE
5
190
100
AcDbEntity
8
CUTOUTS
100
AcDbLine
10
-14.410990421608945
20
-17.997260059909998
30
0
11
-12.159324371767944
21
-21.89726005991
31
0
0
LINE
5
191
100
AcDbEntity
8
CUTOUTS
100
AcDbLine
10
-12.159324371767944
20
-21.89726005991
30
0
11
-14.410990421608943
21
-25.797260059910005
31
0
0
LINE
5
192
100
AcDbEntity
8
CUTOUTS
100
AcDbLine
10
-14.410990421608943
20
-25.797260059910005
30
0
11
-18.914322521281058
21
-25.797260059910005
31
0
0
LINE
5
193
100
AcDbEntity
8
CUTOUTS
100
AcDbLine
10
-18.914322521281058
20
-25.797260059910005
30
0
11
-21.165988571122057
21
-21.89726005991
31
0
0
LINE
5
194
100
AcDbEntity
8
CUTOUTS
100
AcDbLine
10
-21.165988571122057
20
-21.89726005991
30
0
11
-18.914322521281058
21
-17.997260059909998
31
0
0
LINE
5
195
100
AcDbEntity
8
CUTOUTS
100
AcDbLine
10
-18.914322521281058
20
-17.997260059909998
30
0
11
-14.410990421608945
21
-17.997260059909998
31
0
0
LINE
5
196
100
AcDbEntity
8
CUTOUTS
100
AcDbLine
10
4.1604381498190444
20
-17.997260059909998
30
0
11
6.41210419965907
21
-21.89726005991
31
0
0
LINE
5
197
100
AcDbEntity
8
CUTOUTS
100
AcDbLine
10
6.41210419965907
20
-21.89726005991
30
0
11
4.1604381498190444
21
-25.797260059910005
31
0
0
LINE
5
198
100
AcDbEntity
8
CUTOUTS
100
AcDbLine
10
4.1604381498190444
20
-25.797260059910005
30
0
11
-0.34289394986003252
21
-25.797260059910005
31
0
0
LINE
5
199
100
AcDbEntity
8
CUTOUTS
100
AcDbLine
10
-0.34289394986003274
20
-25.797260059910005
30
0
11
-2.5945599996990842
21
-21.89726005991
31
0
0
LINE
5
19A
100
AcDbEntity
8
CUTOUTS
100
AcDbLine
10
-2.5945599996990842
20
-21.89726005991
30
0
11
-0.34289394986003252
21
-17.997260059909998
31
0
0
LINE
5
19B
100
AcDbEntity
8
CUTOUTS
100
AcDbLine
10
-0.34289394986003252
20
-17.997260059909998
30
0
11
4.1604381498190444
21
-17.997260059909998
31
0
0
LINE
5
19C
100
AcDbEntity
8
CUTOUTS
100
AcDbLine
10
22.73186672124805
20
-17.997260059909998
30
0
11
24.983532771088072
21
-21.89726005991
31
0
0
LINE
5
19D
100
AcDbEntity
8
CUTOUTS
100
AcDbLine
10
24.983532771088072
20
-21.89726005991
30
0
11
22.73186672124805
21
-25.797260059910005
31
0
0
LINE
5
19E
100
AcDbEntity
8
CUTOUTS
100
AcDbLine
10
22.73186672124805
20
-25.797260059910005
30
0
11
18.228534621568969
21
-25.797260059910005
31
0
0
LINE
5
19F
100
AcDbEntity
8
CUTOUTS
100
AcDbLine
10
18.228534621568969
20
-25.797260059910005
30
0
11
15.976868571729918
21
-21.89726005991
31
0
0
LINE
5
1A0
100
AcDbEntity
8
CUTOUTS
100
AcDbLine
10
15.976868571729918
20
-21.89726005991
30
0
11
18.228534621568969
21
-17.997260059909998
31
0
0
LINE
5
1A1
100
AcDbEntity
8
CUTOUTS
100
AcDbLine
10
18.228534621568969
20
-17.997260059909998
30
0
11
22.73186672124805
21
-17.997260059909998
31
0
0
LINE
5
1A2
100
AcDbEntity
8
CUTOUTS
100
AcDbLine
10
41.303295292677035
20
-36.747260059910005
30
0
11
43.554961342516087
21
-40.64726005991001
31
0
0
LINE
5
1A3
100
AcDbEntity
8
CUTOUTS
100
AcDbLine
10
43.554961342516087
20
-40.64726005991001
30
0
11
41.303295292677035
21
-44.547260059910002
31
0
0
LINE
5
1A4
100
AcDbEntity
8
CUTOUTS
100
AcDbLine
10
41.303295292677035
20
-44.547260059910002
30
0
11
36.799963192997957
21
-44.547260059910002
31
0
0
LINE
5
1A5
100
AcDbEntity
8
CUTOUTS
100
AcDbLine
10
36.799963192997957
20
-44.547260059910002
30
0
11
34.548297143157932
21
-40.64726005991001
31
0
0
LINE
5
1A6
100
AcDbEntity
8
CUTOUTS
100
AcDbLine
10
34.548297143157932
20
-40.64726005991001
30
0
11
36.799963192997957
21
-36.747260059910005
31
0
0
LINE
5
1A7
100
AcDbEntity
8
CUTOUTS
100
AcDbLine
10
36.799963192997957
20
-36.747260059910005
30
0
11
41.303295292677035
21
-36.747260059910005
31
0
0
LINE
5
1A8
100
AcDbEntity
8
CUTOUTS
100
AcDbLine
10
59.87472386410505
20
-36.747260059910005
30
0
11
62.126389913945069
21
-40.64726005991001
31
0
0
LINE
5
1A9
100
AcDbEntity
8
CUTOUTS
100
AcDbLine
10
62.126389913945069
20
-40.64726005991001
30
0
11
59.87472386410505
21
-44.547260059910002
31
0
0
LINE
5
1AA
100
AcDbEntity
8
CUTOUTS
100
AcDbLine
10
59.87472386410505
20
-44.547260059910002
30
0
11
55.371391764425972
21
-44.547260059910002
31
0
0
LINE
5
1AB
100
AcDbEntity
8
CUTOUTS
100
AcDbLine
10
55.371391764425972
20
-44.547260059910002
30
0
11
53.11972571458692
21
-40.64726005991001
31
0
0
LINE
5
1AC
100
AcDbEntity
8
CUTOUTS
100
AcDbLine
10
53.11972571458692
20
-40.64726005991001
30
0
11
55.371391764425972
21
-36.747260059910005
31
0
0
LINE
5
1AD
100
AcDbEntity
8
CUTOUTS
100
AcDbLine
10
55.371391764425972
20
-36.747260059910005
30
0
11
59.87472386410505
21
-36.747260059910005
31
0
0
LINE
5
1AE
100
AcDbEntity
8
CUTOUTS
100
AcDbLine
10
71.691154286014935
20
-40.64726005991001
30
0
11
73.942820335854961
21
-36.747260059910005
31
0
0
LINE
5
1AF
100
AcDbEntity
8
CUTOUTS
100
AcDbLine
10
73.942820335854961
20
-36.747260059910005
30
0
11
78.446152435534032
21
-36.747260059910005
31
0
0
LINE
5
1B0
100
AcDbEntity
8
CUTOUTS
100
AcDbLine
10
78.446152435534032
20
-36.747260059910005
30
0
11
80.697818485373091
21
-40.647260059910018
31
0
0
LINE
5
1B1
100
AcDbEntity
8
CUTOUTS
100
AcDbLine
10
80.697818485373091
20
-40.647260059910018
30
0
11
78.446152435534046
21
-44.547260059910002
31
0
0
LINE
5
1B2
100
AcDbEntity
8
CUTOUTS
100
AcDbLine
10
78.446152435534046
20
-44.547260059910002
30
0
11
73.942820335854961
21
-44.547260059910002
31
0
0
LINE
5
1B3
100
AcDbEntity
8
CUTOUTS
100
AcDbLine
10
73.942820335854961
20
-44.547260059910002
30
0
11
71.691154286014935
21
-40.64726005991001
31
0
0
LINE
5
1B4
100
AcDbEntity
8
CUTOUTS
100
AcDbLine
10
97.017581006962033
20
-36.747260059910005
30
0
11
99.269247056802072
21
-40.64726005991001
31
0
0
LINE
5
1B5
100
AcDbEntity
8
CUTOUTS
100
AcDbLine
10
99.269247056802072
20
-40.64726005991001
30
0
11
97.017581006962033
21
-44.547260059910002
31
0
0
LINE
5
1B6
100
AcDbEntity
8
CUTOUTS
100
AcDbLine
10
97.017581006962033
20
-44.547260059910002
30
0
11
92.514248907282962
21
-44.547260059910002
31
0
0
LINE
5
1B7
100
AcDbEntity
8
CUTOUTS
100
AcDbLine
10
92.514248907282962
20
-44.547260059910002
30
0
11
90.262582857443917
21
-40.64726005991001
31
0
0
LINE
5
1B8
100
AcDbEntity
8
CUTOUTS
100
AcDbLine
10
90.262582857443917
20
-40.64726005991001
30
0
11
92.514248907282962
21
-36.747260059909998
31
0
0
LINE
5
1B9
100
AcDbEntity
8
CUTOUTS
100
AcDbLine
10
92.514248907282962
20
-36.747260059909998
30
0
11
97.017581006962033
21
-36.747260059910005
31
0
0
LINE
5
1BA
100
AcDbEntity
8
CUTOUTS
100
AcDbLine
10
34.548297143157932
20
-21.89726005991
30
0
11
36.799963192997957
21
-17.997260059909998
31
0
0
LINE
5
1BB
100
AcDbEntity
8
CUTOUTS
100
AcDbLine
10
36.799963192997957
20
-17.997260059909998
30
0
11
41.303295292677035
21
-17.997260059909998
31
0
0
LINE
5
1BC
100
AcDbEntity
8
CUTOUTS
100
AcDbLine
10
41.303295292677035
20
-17.997260059909998
30
0
11
43.554961342516087
21
-21.89726005991
31
0
0
LINE
5
1BD
100
AcDbEntity
8
CUTOUTS
100
AcDbLine
10
43.554961342516087
20
-21.89726005991
30
0
11
41.303295292677035
21
-25.797260059910005
31
0
0
LINE
5
1BE
100
AcDbEntity
8
CUTOUTS
100
AcDbLine
10
41.303295292677035
20
-25.797260059910005
30
0
11
36.799963192997957
21
-25.797260059910005
31
0
0
LINE
5
1BF
100
AcDbEntity
8
CUTOUTS
100
AcDbLine
10
36.799963192997957
20
-25.797260059910005
30
0
11
34.548297143157932
21
-21.89726005991
31
0
0
LINE
5
1C0
100
AcDbEntity
8
CUTOUTS
100
AcDbLine
10
53.11972571458692
20
-21.89726005991
30
0
11
55.371391764425972
21
-17.997260059910001
31
0
0
LINE
5
1C1
100
AcDbEntity
8
CUTOUTS
100
AcDbLine
10
55.371391764425972
20
-17.997260059910001
30
0
11
59.87472386410505
21
-17.997260059909998
31
0
0
LINE
5
1C2
100
AcDbEntity
8
CUTOUTS
100
AcDbLine
10
59.87472386410505
20
-17.997260059909998
30
0
11
62.126389913945069
21
-21.89726005991
31
0
0
LINE
5
1C3
100
AcDbEntity
8
CUTOUTS
100
AcDbLine
10
62.126389913945069
20
-21.89726005991
30
0
11
59.87472386410505
21
-25.797260059910005
31
0
0
LINE
5
1C4
100
AcDbEntity
8
CUTOUTS
100
AcDbLine
10
59.87472386410505
20
-25.797260059910005
30
0
11
55.371391764425972
21
-25.797260059910005
31
0
0
LINE
5
1C5
100
AcDbEntity
8
CUTOUTS
100
AcDbLine
10
55.371391764425972
20
-25.797260059910005
30
0
11
53.11972571458692
21
-21.89726005991
31
0
0
LINE
5
1C6
100
AcDbEntity
8
CUTOUTS
100
AcDbLine
10
73.942820335854961
20
-25.797260059910005
30
0
11
71.691154286014935
21
-21.89726005991
31
0
0
LINE
5
1C7
100
AcDbEntity
8
CUTOUTS
100
AcDbLine
10
71.691154286014935
20
-21.89726005991
30
0
11
73.942820335854961
21
-17.997260059909998
31
0
0
LINE
5
1C8
100
AcDbEntity
8
CUTOUTS
100
AcDbLine
10
73.942820335854961
20
-17.997260059909998
30
0
11
78.446152435534032
21
-17.997260059909998
31
0
0
LINE
5
1C9
100
AcDbEntity
8
CUTOUTS
100
AcDbLine
10
78.446152435534032
20
-17.997260059909998
30
0
11
80.697818485373091
21
-21.897260059910003
31
0
0
LINE
5
1CA
100
AcDbEntity
8
CUTOUTS
100
AcDbLine
10
80.697818485373091
20
-21.897260059910003
30
0
11
78.446152435534046
21
-25.797260059910005
31
0
0
LINE
5
1CB
100
AcDbEntity
8
CUTOUTS
100
AcDbLine
10
78.446152435534046
20
-25.797260059910005
30
0
11
73.942820335854961
21
-25.797260059910005
31
0
0
LINE
5
1CC
100
AcDbEntity
8
CUTOUTS
100
AcDbLine
10
97.017581006962033
20
-17.997260059909998
30
0
11
99.269247056802072
21
-21.897260059910003
31
0
0
LINE
5
1CD
100
AcDbEntity
8
CUTOUTS
100
AcDbLine
10
99.269247056802072
20
-21.897260059910003
30
0
11
97.017581006962047
21
-25.797260059910002
31
0
0
LINE
5
1CE
100
AcDbEntity
8
CUTOUTS
100
AcDbLine
10
97.017581006962047
20
-25.797260059910002
30
0
11
92.514248907282962
21
-25.797260059910009
31
0
0
LINE
5
1CF
100
AcDbEntity
8
CUTOUTS
100
AcDbLine
10
92.514248907282962
20
-25.797260059910009
30
0
11
90.262582857443917
21
-21.89726005991
31
0
0
LINE
5
1D0
100
AcDbEntity
8
CUTOUTS
100
AcDbLine
10
90.262582857443917
20
-21.89726005991
30
0
11
92.514248907282962
21
-17.997260059909998
31
0
0
LINE
5
1D1
100
AcDbEntity
8
CUTOUTS
100
AcDbLine
10
92.514248907282962
20
-17.997260059909998
30
0
11
97.017581006962033
21
-17.997260059909998
31
0
0
LINE
5
1D2
100
AcDbEntity
8
PERIMETER
100
AcDbLine
10
105.81854137503001
20
-114.9972600599
30
0
11
105.81854137503001
21
-14.797260059909991
31
0
0
LINE
5
1D3
100
AcDbEntity
8
PERIMETER
100
AcDbLine
10
105.81854137503001
20
-14.797260059909991
30
0
11
-24.381458624960004
21
-14.79726005991
31
0
0
LINE
5
1D4
100
AcDbEntity
8
PERIMETER
100
AcDbLine
10
-24.381458624960004
20
-14.79726005991
30
0
11
-24.38145862496
21
-114.99726005990001
31
0
0
LINE
5
1D5
100
AcDbEntity
8
PERIMETER
100
AcDbLine
10
-24.38145862496
20
-114.99726005990001
30
0
11
105.81854137503001
21
-114.9972600599
31
0
0
ENDSEC
0
SECTION
2
OBJECTS
0
DICTIONARY
5
C
100
AcDbDictionary
3
ACAD_GROUP
350
D
3
ACAD_MLINESTYLE
350
17
0
DICTIONARY
5
D
100
AcDbDictionary
0
DICTIONARY
5
1A
330
C
100
AcDbDictionary
0
DICTIONARY
5
17
100
AcDbDictionary
0
ENDSEC
0
EOF
