0
SECTION
2
HEADER
9
$INSUNITS
70
4
9
$ACADVER
1
AC1014
9
$HANDSEED
5
FFFF
0
ENDSEC
0
SECTION
2
TABLES
0
TABLE
2
VPORT
5
8
100
AcDbSymbolTable
0
ENDTAB
0
TABLE
2
LTYPE
5
5
100
AcDbSymbolTable
70
2
0
LTYPE
5
14
100
AcDbSymbolTableRecord
100
AcDbLinetypeTableRecord
2
BYBLOCK
70
0
0
LTYPE
5
15
100
AcDbSymbolTableRecord
100
AcDbLinetypeTableRecord
2
BYLAYER
70
0
0
ENDTAB
0
TABLE
2
LAYER
5
2
100
AcDbSymbolTable
70
3
0
LAYER
5
50
100
AcDbSymbolTableRecord
100
AcDbLayerTableRecord
2
0
70
0
6
CONTINUOUS
0
LAYER
5
51
100
AcDbSymbolTableRecord
100
AcDbLayerTableRecord
2
CUTOUTS
70
0
62
1
6
CONTINUOUS
0
LAYER
5
52
100
AcDbSymbolTableRecord
100
AcDbLayerTableRecord
2
PERIMETER
70
0
62
5
6
CONTINUOUS
0
ENDTAB
0
TABLE
2
STYLE
5
3
100
AcDbSymbolTable
70
1
0
STYLE
5
11
100
AcDbSymbolTableRecord
100
AcDbTextStyleTableRecord
2
STANDARD
70
0
0
ENDTAB
0
TABLE
2
VIEW
5
6
100
AcDbSymbolTable
0
ENDTAB
0
TABLE
2
UCS
5
7
100
AcDbSymbolTable
0
ENDTAB
0
TABLE
2
APPID
5
9
100
AcDbSymbolTable
70
1
0
APPID
5
12
100
AcDbSymbolTableRecord
100
AcDbRegAppTableRecord
2
ACAD
70
0
0
ENDTAB
0
TABLE
2
DIMSTYLE
5
A
100
AcDbSymbolTable
0
ENDTAB
0
TABLE
2
BLOCK_RECORD
5
1
100
AcDbSymbolTable
70
2
0
BLOCK_RECORD
5
1F
100
AcDbSymbolTableRecord
100
AcDbBlockTableRecord
2
*MODEL_SPACE
0
BLOCK_RECORD
5
1B
100
AcDbSymbolTableRecord
100
AcDbBlockTableRecord
2
*PAPER_SPACE
0
ENDTAB
0
ENDSEC
0
SECTION
2
BLOCKS
0
BLOCK
5
20
100
AcDbEntity
100
AcDbBlockBegin
2
*MODEL_SPACE
0
ENDBLK
5
21
100
AcDbEntity
100
AcDbBlockEnd
0
BLOCK
5
1C
100
AcDbEntity
100
AcDbBlockBegin
2
*PAPER_SPACE
0
ENDBLK
5
1D
100
AcDbEntity
100
AcDbBlockEnd
0
ENDSEC
0
SECTION
2
ENTITIES
0
LINE
5
100
100
AcDbEntity
8
CUTOUTS
100
AcDbLine
10
-18.907105642916179
20
-93.009760059910008
30
0
11
-14.418207299973819
21
-93.009760059910008
31
0
0
LINE
5
101
100
AcDbEntity
8
CUTOUTS
100
AcDbLine
10
-14.418207299973819
20
-93.009760059910008
30
0
11
-12.173758128497729
21
-96.897260059909939
31
0
0
LINE
5
102
100
AcDbEntity
8
CUTOUTS
100
AcDbLine
10
-12.173758128497729
20
-96.897260059909939
30
0
11
-14.418207299973728
21
-100.78476005990001
31
0
0
LINE
5
103
100
AcDbEntity
8
CUTOUTS
100
AcDbLine
10
-14.418207299973728
20
-100.78476005990001
30
0
11
-18.907105642916271
21
-100.78476005990001
31
0
0
LINE
5
104
100
AcDbEntity
8
CUTOUTS
100
AcDbLine
10
-18.907105642916271
20
-100.78476005990001
30
0
11
-21.151554814392263
21
-96.897260059909939
31
0
0
LINE
5
105
100
AcDbEntity
8
CUTOUTS
100
AcDbLine
10
-21.151554814392263
20
-96.897260059909939
30
0
11
-18.907105642916179
21
-93.009760059910008
31
0
0
LINE
5
106
100
AcDbEntity
8
CUTOUTS
100
AcDbLine
10
6.397670442929285
20
-96.897260059909939
30
0
11
4.1532212714542576
21
-100.78476005990001
31
0
0
LINE
5
107
100
AcDbEntity
8
CUTOUTS
100
AcDbLine
10
4.1532212714542576
20
-100.78476005990001
30
0
11
-0.33567707149524284
21
-100.78476005990001
31
0
0
LINE
5
108
100
AcDbEntity
8
CUTOUTS
100
AcDbLine
10
-0.33567707149524278
20
-100.78476005990001
30
0
11
-2.5801262429693002
21
-96.897260059909925
31
0
0
LINE
5
109
100
AcDbEntity
8
CUTOUTS
100
AcDbLine
10
-2.5801262429693002
20
-96.897260059909925
30
0
11
-0.33567707149516235
21
-93.009760059910008
31
0
0
LINE
5
10A
100
AcDbEntity
8
CUTOUTS
100
AcDbLine
10
-0.33567707149516235
20
-93.009760059910008
30
0
11
4.153221271454167
21
-93.009760059910008
31
0
0
LINE
5
10B
100
AcDbEntity
8
CUTOUTS
100
AcDbLine
10
4.153221271454167
20
-93.009760059910008
30
0
11
6.397670442929285
21
-96.897260059909939
31
0
0
LINE
5
10C
100
AcDbEntity
8
CUTOUTS
100
AcDbLine
10
22.724649842883167
20
-93.009760059910008
30
0
11
24.969099014358285
21
-96.897260059909939
31
0
0
LINE
5
10D
100
AcDbEntity
8
CUTOUTS
100
AcDbLine
10
24.969099014358285
20
-96.897260059909939
30
0
11
22.724649842883263
21
-100.78476005990001
31
0
0
LINE
5
10E
100
AcDbEntity
8
CUTOUTS
100
AcDbLine
10
22.724649842883263
20
-100.78476005990001
30
0
11
18.235751499933759
21
-100.78476005990001
31
0
0
LINE
5
10F
100
AcDbEntity
8
CUTOUTS
100
AcDbLine
10
18.235751499933759
20
-100.78476005990001
30
0
11
15.991302328459703
21
-96.897260059909925
31
0
0
LINE
5
110
100
AcDbEntity
8
CUTOUTS
100
AcDbLine
10
15.991302328459703
20
-96.897260059909925
30
0
11
18.235751499933841
21
-93.009760059910008
31
0
0
LINE
5
111
100
AcDbEntity
8
CUTOUTS
100
AcDbLine
10
18.235751499933841
20
-93.009760059910008
30
0
11
22.724649842883167
21
-93.009760059910008
31
0
0
LINE
5
112
100
AcDbEntity
8
CUTOUTS
100
AcDbLine
10
-18.907105642916179
20
-82.034760059909999
30
0
11
-21.151554814392306
21
-78.147260059909996
31
0
0
LINE
5
113
100
AcDbEntity
8
CUTOUTS
100
AcDbLine
10
-21.151554814392306
20
-78.147260059909996
30
0
11
-18.907105642916186
21
-74.259760059910008
31
0
0
LINE
5
114
100
AcDbEntity
8
CUTOUTS
100
AcDbLine
10
-18.907105642916186
20
-74.259760059910008
30
0
11
-14.418207299973815
21
-74.259760059910008
31
0
0
LINE
5
115
100
AcDbEntity
8
CUTOUTS
100
AcDbLine
10
-14.418207299973815
20
-74.259760059910008
30
0
11
-12.173758128497694
21
-78.147260059909996
31
0
0
LINE
5
116
100
AcDbEntity
8
CUTOUTS
100
AcDbLine
10
-12.173758128497694
20
-78.147260059909996
30
0
11
-14.418207299973815
21
-82.034760059909999
31
0
0
LINE
5
117
100
AcDbEntity
8
CUTOUTS
100
AcDbLine
10
-14.418207299973815
20
-82.034760059909999
30
0
11
-18.907105642916179
21
-82.034760059909999
31
0
0
LINE
5
118
100
AcDbEntity
8
CUTOUTS
100
AcDbLine
10
-0.33567707149515735
20
-74.259760059910008
30
0
11
4.1532212714541732
21
-74.259760059910008
31
0
0
LINE
5
119
100
AcDbEntity
8
CUTOUTS
100
AcDbLine
10
4.1532212714541732
20
-74.259760059910008
30
0
11
6.3976704429293232
21
-78.147260059909996
31
0
0
LINE
5
11A
100
AcDbEntity
8
CUTOUTS
100
AcDbLine
10
6.3976704429293232
20
-78.147260059909996
30
0
11
4.1532212714541714
21
-82.034760059909999
31
0
0
LINE
5
11B
100
AcDbEntity
8
CUTOUTS
100
AcDbLine
10
4.1532212714541714
20
-82.034760059909999
30
0
11
-0.33567707149516235
21
-82.034760059909999
31
0
0
LINE
5
11C
100
AcDbEntity
8
CUTOUTS
100
AcDbLine
10
-0.3356770714951624
20
-82.034760059909999
30
0
11
-2.5801262429693406
21
-78.147260059909996
31
0
0
LINE
5
11D
100
AcDbEntity
8
CUTOUTS
100
AcDbLine
10
-2.5801262429693406
20
-78.147260059909996
30
0
11
-0.33567707149515735
21
-74.259760059910008
31
0
0
LINE
5
11E
100
AcDbEntity
8
CUTOUTS
100
AcDbLine
10
-14.418207299973815
20
-55.509760059910008
30
0
11
-12.173758128497694
21
-59.39726005991001
31
0
0
LINE
5
11F
100
AcDbEntity
8
CUTOUTS
100
AcDbLine
10
-12.173758128497694
20
-59.39726005991001
30
0
11
-14.418207299973815
21
-63.284760059909999
31
0
0
LINE
5
120
100
AcDbEntity
8
CUTOUTS
100
AcDbLine
10
-14.418207299973815
20
-63.284760059909999
30
0
11
-18.907105642916186
21
-63.284760059909999
31
0
0
LINE
5
121
100
AcDbEntity
8
CUTOUTS
100
AcDbLine
10
-18.907105642916186
20
-63.284760059909999
30
0
11
-21.151554814392309
21
-59.39726005991001
31
0
0
LINE
5
122
100
AcDbEntity
8
CUTOUTS
100
AcDbLine
10
-21.151554814392309
20
-59.39726005991001
30
0
11
-18.907105642916186
21
-55.509760059910008
31
0
0
LINE
5
123
100
AcDbEntity
8
CUTOUTS
100
AcDbLine
10
-18.907105642916186
20
-55.509760059910008
30
0
11
-14.418207299973815
21
-55.509760059910008
31
0
0
LINE
5
124
100
AcDbEntity
8
CUTOUTS
100
AcDbLine
10
-0.33567707149515735
20
-55.509760059910008
30
0
11
4.1532212714541732
21
-55.509760059910008
31
0
0
LINE
5
125
100
AcDbEntity
8
CUTOUTS
100
AcDbLine
10
4.1532212714541732
20
-55.509760059910008
30
0
11
6.3976704429293232
21
-59.39726005991001
31
0
0
LINE
5
126
100
AcDbEntity
8
CUTOUTS
100
AcDbLine
10
6.3976704429293232
20
-59.39726005991001
30
0
11
4.1532212714541723
21
-63.284760059909999
31
0
0
LINE
5
127
100
AcDbEntity
8
CUTOUTS
100
AcDbLine
10
4.1532212714541723
20
-63.284760059909999
30
0
11
-0.33567707149515735
21
-63.284760059909999
31
0
0
LINE
5
128
100
AcDbEntity
8
CUTOUTS
100
AcDbLine
10
-0.33567707149515741
20
-63.284760059909999
30
0
11
-2.5801262429693357
21
-59.39726005991001
31
0
0
LINE
5
129
100
AcDbEntity
8
CUTOUTS
100
AcDbLine
10
-2.5801262429693357
20
-59.39726005991001
30
0
11
-0.33567707149515735
21
-55.509760059910008
31
0
0
LINE
5
12A
100
AcDbEntity
8
CUTOUTS
100
AcDbLine
10
22.724649842883178
20
-74.259760059910008
30
0
11
24.969099014358321
21
-78.147260059909996
31
0
0
LINE
5
12B
100
AcDbEntity
8
CUTOUTS
100
AcDbLine
10
24.969099014358321
20
-78.147260059909996
30
0
11
22.724649842883174
21
-82.034760059909999
31
0
0
LINE
5
12C
100
AcDbEntity
8
CUTOUTS
100
AcDbLine
10
22.724649842883174
20
-82.034760059909999
30
0
11
18.235751499933837
21
-82.034760059909999
31
0
0
LINE
5
12D
100
AcDbEntity
8
CUTOUTS
100
AcDbLine
10
18.235751499933837
20
-82.034760059909999
30
0
11
15.991302328459664
21
-78.14726005991001
31
0
0
LINE
5
12E
100
AcDbEntity
8
CUTOUTS
100
AcDbLine
10
15.991302328459664
20
-78.14726005991001
30
0
11
18.235751499933844
21
-74.259760059910008
31
0
0
LINE
5
12F
100
AcDbEntity
8
CUTOUTS
100
AcDbLine
10
18.235751499933844
20
-74.259760059910008
30
0
11
22.724649842883178
21
-74.259760059910008
31
0
0
LINE
5
130
100
AcDbEntity
8
CUTOUTS
100
AcDbLine
10
15.991302328459668
20
-59.39726005991001
30
0
11
18.235751499933844
21
-55.509760059910008
31
0
0
LINE
5
131
100
AcDbEntity
8
CUTOUTS
100
AcDbLine
10
18.235751499933844
20
-55.509760059910008
30
0
11
22.724649842883178
21
-55.509760059910008
31
0
0
LINE
5
132
100
AcDbEntity
8
CUTOUTS
100
AcDbLine
10
22.724649842883178
20
-55.509760059910008
30
0
11
24.969099014358321
21
-59.39726005991001
31
0
0
LINE
5
133
100
AcDbEntity
8
CUTOUTS
100
AcDbLine
10
24.969099014358321
20
-59.39726005991001
30
0
11
22.724649842883178
21
-63.284760059909999
31
0
0
LINE
5
134
100
AcDbEntity
8
CUTOUTS
100
AcDbLine
10
22.724649842883178
20
-63.284760059909999
30
0
11
18.235751499933844
21
-63.284760059909999
31
0
0
LINE
5
135
100
AcDbEntity
8
CUTOUTS
100
AcDbLine
10
18.235751499933844
20
-63.284760059909999
30
0
11
15.991302328459668
21
-59.39726005991001
31
0
0
LINE
5
136
100
AcDbEntity
8
CUTOUTS
100
AcDbLine
10
41.296078414312163
20
-93.009760059910008
30
0
11
43.540527585786293
21
-96.897260059909925
31
0
0
LINE
5
137
100
AcDbEntity
8
CUTOUTS
100
AcDbLine
10
43.540527585786293
20
-96.897260059909925
30
0
11
41.296078414312241
21
-100.78476005990001
31
0
0
LINE
5
138
100
AcDbEntity
8
CUTOUTS
100
AcDbLine
10
41.296078414312241
20
-100.78476005990001
30
0
11
36.807180071362744
21
-100.78476005990001
31
0
0
LINE
5
139
100
AcDbEntity
8
CUTOUTS
100
AcDbLine
10
36.807180071362744
20
-100.78476005990001
30
0
11
34.562730899887718
21
-96.897260059909939
31
0
0
LINE
5
13A
100
AcDbEntity
8
CUTOUTS
100
AcDbLine
10
34.562730899887718
20
-96.897260059909939
30
0
11
36.807180071362836
21
-93.009760059910008
31
0
0
LINE
5
13B
100
AcDbEntity
8
CUTOUTS
100
AcDbLine
10
36.807180071362836
20
-93.009760059910008
30
0
11
41.296078414312163
21
-93.009760059910008
31
0
0
LINE
5
13C
100
AcDbEntity
8
CUTOUTS
100
AcDbLine
10
55.378608642790759
20
-100.78476005990001
30
0
11
53.134159471316707
21
-96.897260059909925
31
0
0
LINE
5
13D
100
AcDbEntity
8
CUTOUTS
100
AcDbLine
10
53.134159471316707
20
-96.897260059909925
30
0
11
55.378608642790851
21
-93.009760059910008
31
0
0
LINE
5
13E
100
AcDbEntity
8
CUTOUTS
100
AcDbLine
10
55.378608642790851
20
-93.009760059910008
30
0
11
59.867506985740171
21
-93.009760059910008
31
0
0
LINE
5
13F
100
AcDbEntity
8
CUTOUTS
100
AcDbLine
10
59.867506985740171
20
-93.009760059910008
30
0
11
62.111956157215282
21
-96.897260059909939
31
0
0
LINE
5
140
100
AcDbEntity
8
CUTOUTS
100
AcDbLine
10
62.111956157215282
20
-96.897260059909939
30
0
11
59.867506985740263
21
-100.78476005990001
31
0
0
LINE
5
141
100
AcDbEntity
8
CUTOUTS
100
AcDbLine
10
59.867506985740263
20
-100.78476005990001
30
0
11
55.378608642790759
21
-100.78476005990001
31
0
0
LINE
5
142
100
AcDbEntity
8
CUTOUTS
100
AcDbLine
10
78.43893555716916
20
-93.009760059910008
30
0
11
80.68338472864329
21
-96.897260059909925
31
0
0
LINE
5
143
100
AcDbEntity
8
CUTOUTS
100
AcDbLine
10
80.68338472864329
20
-96.897260059909925
30
0
11
78.438935557169231
21
-100.78476005990001
31
0
0
LINE
5
144
100
AcDbEntity
8
CUTOUTS
100
AcDbLine
10
78.438935557169231
20
-100.78476005990001
30
0
11
73.950037214219748
21
-100.78476005990001
31
0
0
LINE
5
145
100
AcDbEntity
8
CUTOUTS
100
AcDbLine
10
73.950037214219748
20
-100.78476005990001
30
0
11
71.705588042744722
21
-96.897260059909939
31
0
0
LINE
5
146
100
AcDbEntity
8
CUTOUTS
100
AcDbLine
10
71.705588042744722
20
-96.897260059909939
30
0
11
73.950037214219847
21
-93.009760059910008
31
0
0
LINE
5
147
100
AcDbEntity
8
CUTOUTS
100
AcDbLine
10
73.950037214219847
20
-93.009760059910008
30
0
11
78.43893555716916
21
-93.009760059910008
31
0
0
LINE
5
148
100
AcDbEntity
8
CUTOUTS
100
AcDbLine
10
92.521465785647834
20
-93.009760059910008
30
0
11
97.010364128597161
21
-93.009760059910008
31
0
0
LINE
5
149
100
AcDbEntity
8
CUTOUTS
100
AcDbLine
10
97.010364128597161
20
-93.009760059910008
30
0
11
99.254813300072286
21
-96.897260059909939
31
0
0
LINE
5
14A
100
AcDbEntity
8
CUTOUTS
100
AcDbLine
10
99.254813300072286
20
-96.897260059909939
30
0
11
97.010364128597246
21
-100.78476005990001
31
0
0
LINE
5
14B
100
AcDbEntity
8
CUTOUTS
100
AcDbLine
10
97.010364128597246
20
-100.78476005990001
30
0
11
92.521465785647763
21
-100.78476005990001
31
0
0
LINE
5
14C
100
AcDbEntity
8
CUTOUTS
100
AcDbLine
10
92.521465785647763
20
-100.78476005990001
30
0
11
90.277016614173704
21
-96.897260059909925
31
0
0
LINE
5
14D
100
AcDbEntity
8
CUTOUTS
100
AcDbLine
10
90.277016614173704
20
-96.897260059909925
30
0
11
92.521465785647834
21
-93.009760059910008
31
0
0
LINE
5
14E
100
AcDbEntity
8
CUTOUTS
100
AcDbLine
10
41.296078414312156
20
-74.259760059910008
30
0
11
43.540527585786329
21
-78.147260059909996
31
0
0
LINE
5
14F
100
AcDbEntity
8
CUTOUTS
100
AcDbLine
10
43.540527585786329
20
-78.147260059909996
30
0
11
41.296078414312156
21
-82.034760059909999
31
0
0
LINE
5
150
100
AcDbEntity
8
CUTOUTS
100
AcDbLine
10
41.296078414312156
20
-82.034760059909999
30
0
11
36.807180071362836
21
-82.034760059909999
31
0
0
LINE
5
151
100
AcDbEntity
8
CUTOUTS
100
AcDbLine
10
36.807180071362836
20
-82.034760059909999
30
0
11
34.562730899887683
21
-78.147260059909996
31
0
0
LINE
5
152
100
AcDbEntity
8
CUTOUTS
100
AcDbLine
10
34.562730899887683
20
-78.147260059909996
30
0
11
36.807180071362836
21
-74.259760059910008
31
0
0
LINE
5
153
100
AcDbEntity
8
CUTOUTS
100
AcDbLine
10
36.807180071362836
20
-74.259760059910008
30
0
11
41.296078414312156
21
-74.259760059910008
31
0
0
LINE
5
154
100
AcDbEntity
8
CUTOUTS
100
AcDbLine
10
55.378608642790851
20
-74.259760059910008
30
0
11
59.867506985740171
21
-74.259760059910008
31
0
0
LINE
5
155
100
AcDbEntity
8
CUTOUTS
100
AcDbLine
10
59.867506985740171
20
-74.259760059910008
30
0
11
62.111956157215317
21
-78.147260059909996
31
0
0
LINE
5
156
100
AcDbEntity
8
CUTOUTS
100
AcDbLine
10
62.111956157215317
20
-78.147260059909996
30
0
11
59.867506985740171
21
-82.034760059909999
31
0
0
LINE
5
157
100
AcDbEntity
8
CUTOUTS
100
AcDbLine
10
59.867506985740171
20
-82.034760059909999
30
0
11
55.378608642790851
21
-82.034760059909999
31
0
0
LINE
5
158
100
AcDbEntity
8
CUTOUTS
100
AcDbLine
10
55.378608642790851
20
-82.034760059909999
30
0
11
53.134159471316664
21
-78.147260059909996
31
0
0
LINE
5
159
100
AcDbEntity
8
CUTOUTS
100
AcDbLine
10
53.134159471316664
20
-78.147260059909996
30
0
11
55.378608642790851
21
-74.259760059910008
31
0
0
LINE
5
15A
100
AcDbEntity
8
CUTOUTS
100
AcDbLine
10
41.296078414312156
20
-55.509760059910008
30
0
11
43.540527585786329
21
-59.39726005991001
31
0
0
LINE
5
15B
100
AcDbEntity
8
CUTOUTS
100
AcDbLine
10
43.540527585786329
20
-59.39726005991001
30
0
11
41.296078414312156
21
-63.284760059909999
31
0
0
LINE
5
15C
100
AcDbEntity
8
CUTOUTS
100
AcDbLine
10
41.296078414312156
20
-63.284760059909999
30
0
11
36.807180071362829
21
-63.284760059909999
31
0
0
LINE
5
15D
100
AcDbEntity
8
CUTOUTS
100
AcDbLine
10
36.807180071362829
20
-63.284760059909999
30
0
11
34.562730899887683
21
-59.39726005991001
31
0
0
LINE
5
15E
100
AcDbEntity
8
CUTOUTS
100
AcDbLine
10
34.562730899887683
20
-59.39726005991001
30
0
11
36.807180071362836
21
-55.509760059910008
31
0
0
LINE
5
15F
100
AcDbEntity
8
CUTOUTS
100
AcDbLine
10
36.807180071362836
20
-55.509760059910008
30
0
11
41.296078414312156
21
-55.509760059910008
31
0
0
LINE
5
160
100
AcDbEntity
8
CUTOUTS
100
AcDbLine
10
59.867506985740171
20
-55.509760059910008
30
0
11
62.111956157215324
21
-59.39726005991001
31
0
0
LINE
5
161
100
AcDbEntity
8
CUTOUTS
100
AcDbLine
10
62.111956157215324
20
-59.39726005991001
30
0
11
59.867506985740171
21
-63.284760059909999
31
0
0
LINE
5
162
100
AcDbEntity
8
CUTOUTS
100
AcDbLine
10
59.867506985740171
20
-63.284760059909999
30
0
11
55.378608642790851
21
-63.284760059909999
31
0
0
LINE
5
163
100
AcDbEntity
8
CUTOUTS
100
AcDbLine
10
55.378608642790851
20
-63.284760059909999
30
0
11
53.134159471316671
21
-59.39726005991001
31
0
0
LINE
5
164
100
AcDbEntity
8
CUTOUTS
100
AcDbLine
10
53.134159471316671
20
-59.39726005991001
30
0
11
55.378608642790851
21
-55.509760059910008
31
0
0
LINE
5
165
100
AcDbEntity
8
CUTOUTS
100
AcDbLine
10
55.378608642790851
20
-55.509760059910008
30
0
11
59.867506985740171
21
-55.509760059910008
31
0
0
LINE
5
166
100
AcDbEntity
8
CUTOUTS
100
AcDbLine
10
78.43893555716916
20
-74.259760059910008
30
0
11
80.683384728643333
21
-78.14726005991001
31
0
0
LINE
5
167
100
AcDbEntity
8
CUTOUTS
100
AcDbLine
10
80.683384728643333
20
-78.14726005991001
30
0
11
78.43893555716916
21
-82.034760059909999
31
0
0
LINE
5
168
100
AcDbEntity
8
CUTOUTS
100
AcDbLine
10
78.43893555716916
20
-82.034760059909999
30
0
11
73.950037214219833
21
-82.034760059909999
31
0
0
LINE
5
169
100
AcDbEntity
8
CUTOUTS
100
AcDbLine
10
73.950037214219833
20
-82.034760059909999
30
0
11
71.705588042744694
21
-78.147260059909996
31
0
0
LINE
5
16A
100
AcDbEntity
8
CUTOUTS
100
AcDbLine
10
71.705588042744694
20
-78.147260059909996
30
0
11
73.950037214219833
21
-74.259760059910008
31
0
0
LINE
5
16B
100
AcDbEntity
8
CUTOUTS
100
AcDbLine
10
73.950037214219833
20
-74.259760059910008
30
0
11
78.43893555716916
21
-74.259760059910008
31
0
0
LINE
5
16C
100
AcDbEntity
8
CUTOUTS
100
AcDbLine
10
97.010364128597161
20
-74.259760059910008
30
0
11
99.254813300072314
21
-78.147260059909996
31
0
0
LINE
5
16D
100
AcDbEntity
8
CUTOUTS
100
AcDbLine
10
99.254813300072314
20
-78.147260059909996
30
0
11
97.010364128597161
21
-82.034760059909999
31
0
0
LINE
5
16E
100
AcDbEntity
8
CUTOUTS
100
AcDbLine
10
97.010364128597161
20
-82.034760059909999
30
0
11
92.521465785647834
21
-82.034760059909999
31
0
0
LINE
5
16F
100
AcDbEntity
8
CUTOUTS
100
AcDbLine
10
92.521465785647834
20
-82.034760059909999
30
0
11
90.277016614173661
21
-78.14726005991001
31
0
0
LINE
5
170
100
AcDbEntity
8
CUTOUTS
100
AcDbLine
10
90.277016614173661
20
-78.14726005991001
30
0
11
92.521465785647834
21
-74.259760059910008
31
0
0
LINE
5
171
100
AcDbEntity
8
CUTOUTS
100
AcDbLine
10
92.521465785647834
20
-74.259760059910008
30
0
11
97.010364128597161
21
-74.259760059910008
31
0
0
LINE
5
172
100
AcDbEntity
8
CUTOUTS
100
AcDbLine
10
80.683384728643333
20
-59.397260059910018
30
0
11
78.43893555716916
21
-63.284760059909999
31
0
0
LINE
5
173
100
AcDbEntity
8
CUTOUTS
100
AcDbLine
10
78.43893555716916
20
-63.284760059909999
30
0
11
73.950037214219833
21
-63.284760059909999
31
0
0
LINE
5
174
100
AcDbEntity
8
CUTOUTS
100
AcDbLine
10
73.950037214219833
20
-63.284760059909999
30
0
11
71.705588042744679
21
-59.39726005991001
31
0
0
LINE
5
175
100
AcDbEntity
8
CUTOUTS
100
AcDbLine
10
71.705588042744679
20
-59.39726005991001
30
0
11
73.950037214219833
21
-55.509760059910008
31
0
0
LINE
5
176
100
AcDbEntity
8
CUTOUTS
100
AcDbLine
10
73.950037214219833
20
-55.509760059910008
30
0
11
78.43893555716916
21
-55.509760059910008
31
0
0
LINE
5
177
100
AcDbEntity
8
CUTOUTS
100
AcDbLine
10
78.43893555716916
20
-55.509760059910008
30
0
11
80.683384728643333
21
-59.397260059910018
31
0
0
LINE
5
178
100
AcDbEntity
8
CUTOUTS
100
AcDbLine
10
92.521465785647834
20
-63.284760059909999
30
0
11
90.277016614173661
21
-59.39726005991001
31
0
0
LINE
5
179
100
AcDbEntity
8
CUTOUTS
100
AcDbLine
10
90.277016614173661
20
-59.39726005991001
30
0
11
92.521465785647834
21
-55.509760059910008
31
0
0
LINE
5
17A
100
AcDbEntity
8
CUTOUTS
100
AcDbLine
10
92.521465785647834
20
-55.509760059910008
30
0
11
97.010364128597161
21
-55.509760059910008
31
0
0
LINE
5
17B
100
AcDbEntity
8
CUTOUTS
100
AcDbLine
10
97.010364128597161
20
-55.509760059910008
30
0
11
99.254813300072314
21
-59.39726005991001
31
0
0
LINE
5
17C
100
AcDbEntity
8
CUTOUTS
100
AcDbLine
10
99.254813300072314
20
-59.39726005991001
30
0
11
97.010364128597161
21
-63.284760059909999
31
0
0
LINE
5
17D
100
AcDbEntity
8
CUTOUTS
100
AcDbLine
10
97.010364128597161
20
-63.284760059909999
30
0
11
92.521465785647834
21
-63.284760059909999
31
0
0
LINE
5
17E
100
AcDbEntity
8
CUTOUTS
100
AcDbLine
10
-14.418207299973815
20
-36.759760059910008
30
0
11
-12.173758128497694
21
-40.64726005991001
31
0
0
LINE
5
17F
100
AcDbEntity
8
CUTOUTS
100
AcDbLine
10
-12.173758128497694
20
-40.64726005991001
30
0
11
-14.418207299973815
21
-44.534760059909999
31
0
0
LINE
5
180
100
AcDbEntity
8
CUTOUTS
100
AcDbLine
10
-14.418207299973815
20
-44.534760059909999
30
0
11
-18.907105642916186
21
-44.534760059909999
31
0
0
LINE
5
181
100
AcDbEntity
8
CUTOUTS
100
AcDbLine
10
-18.907105642916186
20
-44.534760059909999
30
0
11
-21.151554814392309
21
-40.64726005991001
31
0
0
LINE
5
182
100
AcDbEntity
8
CUTOUTS
100
AcDbLine
10
-21.151554814392309
20
-40.64726005991001
30
0
11
-18.907105642916186
21
-36.759760059910008
31
0
0
LINE
5
183
100
AcDbEntity
8
CUTOUTS
100
AcDbLine
10
-18.907105642916186
20
-36.759760059910008
30
0
11
-14.418207299973815
21
-36.759760059910008
31
0
0
LINE
5
184
100
AcDbEntity
8
CUTOUTS
100
AcDbLine
10
6.3976704429293232
20
-40.64726005991001
30
0
11
4.1532212714541723
21
-44.534760059909999
31
0
0
LINE
5
185
100
AcDbEntity
8
CUTOUTS
100
AcDbLine
10
4.1532212714541723
20
-44.534760059909999
30
0
11
-0.33567707149515735
21
-44.534760059909999
31
0
0
LINE
5
186
100
AcDbEntity
8
CUTOUTS
100
AcDbLine
10
-0.33567707149515741
20
-44.534760059909999
30
0
11
-2.5801262429693357
21
-40.64726005991001
31
0
0
LINE
5
187
100
AcDbEntity
8
CUTOUTS
100
AcDbLine
10
-2.5801262429693357
20
-40.64726005991001
30
0
11
-0.33567707149515735
21
-36.759760059910008
31
0
0
LINE
5
188
100
AcDbEntity
8
CUTOUTS
100
AcDbLine
10
-0.33567707149515735
20
-36.759760059910008
30
0
11
4.1532212714541732
21
-36.759760059910008
31
0
0
LINE
5
189
100
AcDbEntity
8
CUTOUTS
100
AcDbLine
10
4.1532212714541732
20
-36.759760059910008
30
0
11
6.3976704429293232
21
-40.64726005991001
31
0
0
LINE
5
18A
100
AcDbEntity
8
CUTOUTS
100
AcDbLine
10
22.724649842883178
20
-36.759760059910008
30
0
11
24.969099014358321
21
-40.64726005991001
31
0
0
LINE
5
18B
100
AcDbEntity
8
CUTOUTS
100
AcDbLine
10
24.969099014358321
20
-40.64726005991001
30
0
11
22.724649842883178
21
-44.534760059909999
31
0
0
LINE
5
18C
100
AcDbEntity
8
CUTOUTS
100
AcDbLine
10
22.724649842883178
20
-44.534760059909999
30
0
11
18.235751499933844
21
-44.534760059909999
31
0
0
LINE
5
18D
100
AcDbEntity
8
CUTOUTS
100
AcDbLine
10
18.235751499933844
20
-44.534760059909999
30
0
11
15.991302328459668
21
-40.64726005991001
31
0
0
LINE
5
18E
100
AcDbEntity
8
CUTOUTS
100
AcDbLine
10
15.991302328459668
20
-40.64726005991001
30
0
11
18.235751499933844
21
-36.759760059910008
31
0
0
LINE
5
18F
100
AcDbEntity
8
CUTOUTS
100
AcDbLine
10
18.235751499933844
20
-36.759760059910008
30
0
11
22.724649842883178
21
-36.759760059910008
31
0
0
LINE
5
190
100
AcDbEntity
8
CUTOUTS
100
AcDbLine
10
-14.418207299973814
20
-25.784760059910003
30
0
11
-18.907105642916186
21
-25.784760059910003
31
0
0
LINE
5
191
100
AcDbEntity
8
CUTOUTS
100
AcDbLine
10
-18.907105642916186
20
-25.784760059910003
30
0
11
-21.151554814392313
21
-21.89726005991
31
0
0
LINE
5
192
100
AcDbEntity
8
CUTOUTS
100
AcDbLine
10
-21.151554814392313
20
-21.89726005991
30
0
11
-18.907105642916186
21
-18.009760059910001
31
0
0
LINE
5
193
100
AcDbEntity
8
CUTOUTS
100
AcDbLine
10
-18.907105642916186
20
-18.009760059910001
30
0
11
-14.418207299973812
21
-18.009760059910001
31
0
0
LINE
5
194
100
AcDbEntity
8
CUTOUTS
100
AcDbLine
10
-14.418207299973812
20
-18.009760059910001
30
0
11
-12.173758128497687
21
-21.89726005991
31
0
0
LINE
5
195
100
AcDbEntity
8
CUTOUTS
100
AcDbLine
10
-12.173758128497687
20
-21.89726005991
30
0
11
-14.418207299973814
21
-25.784760059910003
31
0
0
LINE
5
196
100
AcDbEntity
8
CUTOUTS
100
AcDbLine
10
-0.33567707149516118
20
-25.784760059910003
30
0
11
-2.5801262429693428
21
-21.89726005991
31
0
0
LINE
5
197
100
AcDbEntity
8
CUTOUTS
100
AcDbLine
10
-2.5801262429693428
20
-21.89726005991
30
0
11
-0.33567707149516124
21
-18.009760059910001
31
0
0
LINE
5
198
100
AcDbEntity
8
CUTOUTS
100
AcDbLine
10
-0.33567707149516124
20
-18.009760059910001
30
0
11
4.153221271454175
21
-18.009760059910001
31
0
0
LINE
5
199
100
AcDbEntity
8
CUTOUTS
100
AcDbLine
10
4.153221271454175
20
-18.009760059910001
30
0
11
6.3976704429293276
21
-21.89726005991
31
0
0
LINE
5
19A
100
AcDbEntity
8
CUTOUTS
100
AcDbLine
10
6.3976704429293276
20
-21.89726005991
30
0
11
4.1532212714541741
21
-25.784760059910003
31
0
0
LINE
5
19B
100
AcDbEntity
8
CUTOUTS
100
AcDbLine
10
4.1532212714541741
20
-25.784760059910003
30
0
11
-0.33567707149516124
21
-25.784760059910003
31
0
0
LINE
5
19C
100
AcDbEntity
8
CUTOUTS
100
AcDbLine
10
18.235751499933841
20
-18.009760059910001
30
0
11
22.724649842883178
21
-18.009760059910001
31
0
0
LINE
5
19D
100
AcDbEntity
8
CUTOUTS
100
AcDbLine
10
22.724649842883178
20
-18.009760059910001
30
0
11
24.969099014358328
21
-21.89726005991
31
0
0
LINE
5
19E
100
AcDbEntity
8
CUTOUTS
100
AcDbLine
10
24.969099014358328
20
-21.89726005991
30
0
11
22.724649842883178
21
-25.784760059910003
31
0
0
LINE
5
19F
100
AcDbEntity
8
CUTOUTS
100
AcDbLine
10
22.724649842883178
20
-25.784760059910003
30
0
11
18.235751499933841
21
-25.784760059910003
31
0
0
LINE
5
1A0
100
AcDbEntity
8
CUTOUTS
100
AcDbLine
10
18.235751499933841
20
-25.784760059910003
30
0
11
15.991302328459657
21
-21.89726005991
31
0
0
LINE
5
1A1
100
AcDbEntity
8
CUTOUTS
100
AcDbLine
10
15.991302328459657
20
-21.89726005991
30
0
11
18.235751499933841
21
-18.009760059910001
31
0
0
LINE
5
1A2
100
AcDbEntity
8
CUTOUTS
100
AcDbLine
10
36.807180071362836
20
-36.759760059910008
30
0
11
41.296078414312156
21
-36.759760059910008
31
0
0
LINE
5
1A3
100
AcDbEntity
8
CUTOUTS
100
AcDbLine
10
41.296078414312156
20
-36.759760059910008
30
0
11
43.540527585786329
21
-40.64726005991001
31
0
0
LINE
5
1A4
100
AcDbEntity
8
CUTOUTS
100
AcDbLine
10
43.540527585786329
20
-40.64726005991001
30
0
11
41.296078414312156
21
-44.534760059909999
31
0
0
LINE
5
1A5
100
AcDbEntity
8
CUTOUTS
100
AcDbLine
10
41.296078414312156
20
-44.534760059909999
30
0
11
36.807180071362829
21
-44.534760059909999
31
0
0
LINE
5
1A6
100
AcDbEntity
8
CUTOUTS
100
AcDbLine
10
36.807180071362829
20
-44.534760059909999
30
0
11
34.562730899887683
21
-40.64726005991001
31
0
0
LINE
5
1A7
100
AcDbEntity
8
CUTOUTS
100
AcDbLine
10
34.562730899887683
20
-40.64726005991001
30
0
11
36.807180071362836
21
-36.759760059910008
31
0
0
LINE
5
1A8
100
AcDbEntity
8
CUTOUTS
100
AcDbLine
10
59.867506985740171
20
-36.759760059910008
30
0
11
62.111956157215324
21
-40.64726005991001
31
0
0
LINE
5
1A9
100
AcDbEntity
8
CUTOUTS
100
AcDbLine
10
62.111956157215324
20
-40.64726005991001
30
0
11
59.867506985740171
21
-44.534760059909999
31
0
0
LINE
5
1AA
100
AcDbEntity
8
CUTOUTS
100
AcDbLine
10
59.867506985740171
20
-44.534760059909999
30
0
11
55.378608642790851
21
-44.534760059909999
31
0
0
LINE
5
1AB
100
AcDbEntity
8
CUTOUTS
100
AcDbLine
10
55.378608642790851
20
-44.534760059909999
30
0
11
53.134159471316671
21
-40.64726005991001
31
0
0
LINE
5
1AC
100
AcDbEntity
8
CUTOUTS
100
AcDbLine
10
53.134159471316671
20
-40.64726005991001
30
0
11
55.378608642790851
21
-36.759760059910008
31
0
0
LINE
5
1AD
100
AcDbEntity
8
CUTOUTS
100
AcDbLine
10
55.378608642790851
20
-36.759760059910008
30
0
11
59.867506985740171
21
-36.759760059910008
31
0
0
LINE
5
1AE
100
AcDbEntity
8
CUTOUTS
100
AcDbLine
10
73.950037214219833
20
-44.534760059909999
30
0
11
71.705588042744679
21
-40.64726005991001
31
0
0
LINE
5
1AF
100
AcDbEntity
8
CUTOUTS
100
AcDbLine
10
71.705588042744679
20
-40.64726005991001
30
0
11
73.950037214219833
21
-36.759760059910008
31
0
0
LINE
5
1B0
100
AcDbEntity
8
CUTOUTS
100
AcDbLine
10
73.950037214219833
20
-36.759760059910008
30
0
11
78.43893555716916
21
-36.759760059910008
31
0
0
LINE
5
1B1
100
AcDbEntity
8
CUTOUTS
100
AcDbLine
10
78.43893555716916
20
-36.759760059910008
30
0
11
80.683384728643333
21
-40.647260059910018
31
0
0
LINE
5
1B2
100
AcDbEntity
8
CUTOUTS
100
AcDbLine
10
80.683384728643333
20
-40.647260059910018
30
0
11
78.43893555716916
21
-44.534760059909999
31
0
0
LINE
5
1B3
100
AcDbEntity
8
CUTOUTS
100
AcDbLine
10
78.43893555716916
20
-44.534760059909999
30
0
11
73.950037214219833
21
-44.534760059909999
31
0
0
LINE
5
1B4
100
AcDbEntity
8
CUTOUTS
100
AcDbLine
10
97.010364128597161
20
-36.759760059910008
30
0
11
99.254813300072314
21
-40.64726005991001
31
0
0
LINE
5
1B5
100
AcDbEntity
8
CUTOUTS
100
AcDbLine
10
99.254813300072314
20
-40.64726005991001
30
0
11
97.010364128597161
21
-44.534760059909999
31
0
0
LINE
5
1B6
100
AcDbEntity
8
CUTOUTS
100
AcDbLine
10
97.010364128597161
20
-44.534760059909999
30
0
11
92.521465785647834
21
-44.534760059909999
31
0
0
LINE
5
1B7
100
AcDbEntity
8
CUTOUTS
100
AcDbLine
10
92.521465785647834
20
-44.534760059909999
30
0
11
90.277016614173661
21
-40.64726005991001
31
0
0
LINE
5
1B8
100
AcDbEntity
8
CUTOUTS
100
AcDbLine
10
90.277016614173661
20
-40.64726005991001
30
0
11
92.521465785647834
21
-36.759760059910008
31
0
0
LINE
5
1B9
100
AcDbEntity
8
CUTOUTS
100
AcDbLine
10
92.521465785647834
20
-36.759760059910008
30
0
11
97.010364128597161
21
-36.759760059910008
31
0
0
LINE
5
1BA
100
AcDbEntity
8
CUTOUTS
100
AcDbLine
10
36.807180071362829
20
-18.009760059910001
30
0
11
41.296078414312163
21
-18.009760059910001
31
0
0
LINE
5
1BB
100
AcDbEntity
8
CUTOUTS
100
AcDbLine
10
41.296078414312163
20
-18.009760059910001
30
0
11
43.54052758578635
21
-21.89726005991
31
0
0
LINE
5
1BC
100
AcDbEntity
8
CUTOUTS
100
AcDbLine
10
43.54052758578635
20
-21.89726005991
30
0
11
41.296078414312163
21
-25.784760059910003
31
0
0
LINE
5
1BD
100
AcDbEntity
8
CUTOUTS
100
AcDbLine
10
41.296078414312163
20
-25.784760059910003
30
0
11
36.807180071362829
21
-25.784760059910003
31
0
0
LINE
5
1BE
100
AcDbEntity
8
CUTOUTS
100
AcDbLine
10
36.807180071362829
20
-25.784760059910003
30
0
11
34.562730899887676
21
-21.89726005991
31
0
0
LINE
5
1BF
100
AcDbEntity
8
CUTOUTS
100
AcDbLine
10
34.562730899887676
20
-21.89726005991
30
0
11
36.807180071362829
21
-18.009760059910001
31
0
0
LINE
5
1C0
100
AcDbEntity
8
CUTOUTS
100
AcDbLine
10
55.378608642790837
20
-25.784760059910003
30
0
11
53.134159471316657
21
-21.89726005991
31
0
0
LINE
5
1C1
100
AcDbEntity
8
CUTOUTS
100
AcDbLine
10
53.134159471316657
20
-21.89726005991
30
0
11
55.378608642790837
21
-18.009760059910001
31
0
0
LINE
5
1C2
100
AcDbEntity
8
CUTOUTS
100
AcDbLine
10
55.378608642790837
20
-18.009760059910001
30
0
11
59.867506985740178
21
-18.009760059910001
31
0
0
LINE
5
1C3
100
AcDbEntity
8
CUTOUTS
100
AcDbLine
10
59.867506985740178
20
-18.009760059910001
30
0
11
62.111956157215332
21
-21.89726005991
31
0
0
LINE
5
1C4
100
AcDbEntity
8
CUTOUTS
100
AcDbLine
10
62.111956157215332
20
-21.89726005991
30
0
11
59.867506985740178
21
-25.784760059910003
31
0
0
LINE
5
1C5
100
AcDbEntity
8
CUTOUTS
100
AcDbLine
10
59.867506985740178
20
-25.784760059910003
30
0
11
55.378608642790837
21
-25.784760059910003
31
0
0
LINE
5
1C6
100
AcDbEntity
8
CUTOUTS
100
AcDbLine
10
73.950037214219833
20
-18.009760059910001
30
0
11
78.43893555716916
21
-18.009760059910001
31
0
0
LINE
5
1C7
100
AcDbEntity
8
CUTOUTS
100
AcDbLine
10
78.43893555716916
20
-18.009760059910001
30
0
11
80.683384728643347
21
-21.89726005991
31
0
0
LINE
5
1C8
100
AcDbEntity
8
CUTOUTS
100
AcDbLine
10
80.683384728643347
20
-21.89726005991
30
0
11
78.43893555716916
21
-25.784760059910003
31
0
0
LINE
5
1C9
100
AcDbEntity
8
CUTOUTS
100
AcDbLine
10
78.43893555716916
20
-25.784760059910003
30
0
11
73.950037214219833
21
-25.784760059910003
31
0
0
LINE
5
1CA
100
AcDbEntity
8
CUTOUTS
100
AcDbLine
10
73.950037214219833
20
-25.784760059910003
30
0
11
71.705588042744665
21
-21.89726005991
31
0
0
LINE
5
1CB
100
AcDbEntity
8
CUTOUTS
100
AcDbLine
10
71.705588042744665
20
-21.89726005991
30
0
11
73.950037214219833
21
-18.009760059910001
31
0
0
LINE
5
1CC
100
AcDbEntity
8
CUTOUTS
100
AcDbLine
10
92.521465785647834
20
-18.009760059910001
30
0
11
97.010364128597161
21
-18.009760059910001
31
0
0
LINE
5
1CD
100
AcDbEntity
8
CUTOUTS
100
AcDbLine
10
97.010364128597161
20
-18.009760059910001
30
0
11
99.254813300072314
21
-21.89726005991
31
0
0
LINE
5
1CE
100
AcDbEntity
8
CUTOUTS
100
AcDbLine
10
99.254813300072314
20
-21.89726005991
30
0
11
97.010364128597161
21
-25.784760059910003
31
0
0
LINE
5
1CF
100
AcDbEntity
8
CUTOUTS
100
AcDbLine
10
97.010364128597161
20
-25.784760059910003
30
0
11
92.521465785647834
21
-25.784760059910003
31
0
0
LINE
5
1D0
100
AcDbEntity
8
CUTOUTS
100
AcDbLine
10
92.521465785647834
20
-25.784760059910003
30
0
11
90.277016614173661
21
-21.89726005991
31
0
0
LINE
5
1D1
100
AcDbEntity
8
CUTOUTS
100
AcDbLine
10
90.277016614173661
20
-21.89726005991
30
0
11
92.521465785647834
21
-18.009760059910001
31
0
0
LINE
5
1D2
100
AcDbEntity
8
PERIMETER
100
AcDbLine
10
105.83104137503003
20
-115.0097600599
30
0
11
105.83104137503001
21
-14.784760059910003
31
0
0
LINE
5
1D3
100
AcDbEntity
8
PERIMETER
100
AcDbLine
10
105.83104137503001
20
-14.784760059910003
30
0
11
-24.39395862496001
21
-14.784760059910001
31
0
0
LINE
5
1D4
100
AcDbEntity
8
PERIMETER
100
AcDbLine
10
-24.393958624960007
20
-14.784760059910001
30
0
11
-24.39395862496
21
-115.0097600599
31
0
0
LINE
5
1D5
100
AcDbEntity
8
PERIMETER
100
AcDbLine
10
-24.39395862496
20
-115.0097600599
30
0
11
105.83104137503003
21
-115.0097600599
31
0
0
ENDSEC
0
SECTION
2
OBJECTS
0
DICTIONARY
5
C
100
AcDbDictionary
3
ACAD_GROUP
350
D
3
ACAD_MLINESTYLE
350
17
0
DICTIONARY
5
D
100
AcDbDictionary
0
DICTIONARY
5
1A
330
C
100
AcDbDictionary
0
DICTIONARY
5
17
100
AcDbDictionary
0
ENDSEC
0
EOF
