999
FreeCAD v0.21 33771 (Git)
  0
SECTION
  2
HEADER
  9
$ACADVER
  1
AC1014
  9
$ACADMAINTVER
 70
     9
  9
$DWGCODEPAGE
  3
ANSI_1252
  9
$TEXTSTYLE
  7
STANDARD
  9
$DIMSTYLE
  2
STANDARD
  9
$DIMTXSTY
  7
STANDARD
  9
$CMLSTYLE
  2
STANDARD
  9
$LUNITS
 70
2
  9
$INSUNITS
 70
4
  9
$PEXTMAX
 10
50
 20
50
 30
50
  9
$PEXTMIN
 10
0
 20
0
 30
0
  9
$HANDSEED
  5
FFFF
  0
ENDSEC
  0
SECTION
  2
CLASSES
  0
CLASS
  1
ACDBDICTIONARYWDFLT
  2
AcDbDictionaryWithDefault
  3
ObjectDBX Classes
 90
        0
280
     0
281
     0
  0
CLASS
  1
XRECORD
  2
AcDbXrecord
  3
ObjectDBX Classes
 90
        0
280
     0
281
     0
  0
CLASS
  1
LWPOLYLINE
  2
AcDbPolyline
  3
ObjectDBX Classes
 90
        0
280
     0
281
     1
  0
ENDSEC
  0
SECTION
  2
TABLES
  0
TABLE
  2
VPORT
  5
20
330
0
100
AcDbSymbolTable
 70
     1
  0
VPORT
  5
21
330
20
100
AcDbSymbolTableRecord
100
AcDbViewportTableRecord
  2
*ACTIVE
 70
     0
  0
ENDTAB
  0
TABLE
  2
LTYPE
  5
22
330
0
100
AcDbSymbolTable
 70
     1
  0
LTYPE
  5
23
330
21
100
AcDbSymbolTableRecord
100
AcDbLinetypeTableRecord
  2
BYBLOCK
 70
     0
  3

 72
    65
 73
     0
 40
0.0
  0
LTYPE
  5
24
330
21
100
AcDbSymbolTableRecord
100
AcDbLinetypeTableRecord
  2
BYLAYER
 70
     0
  3

 72
    65
 73
     0
 40
0.0
  0
LTYPE
  5
25
330
21
100
AcDbSymbolTableRecord
100
AcDbLinetypeTableRecord
  2
CONTINUOUS
 70
     0
  3
Solid line
 72
    65
 73
     0
 40
0.0
  0
ENDTAB
  0
TABLE
  2
LAYER
  5
F1C
330
0
100
AcDbSymbolTable
 70
3
  0
LAYER
  5
F1D
330
F1C
100
AcDbSymbolTableRecord
100
AcDbLayerTableRecord
  2
0
 70
   0
 62
   7
  6
CONTINUOUS
  0
LAYER
  5
F1E
330
F1C
100
AcDbSymbolTableRecord
100
AcDbLayerTableRecord
  2
none
 70
    0
 62
    7
  6
CONTINUOUS
  0
LAYER
  5
F1F
330
F1C
100
AcDbSymbolTableRecord
100
AcDbLayerTableRecord
  2
Shape2DView
 70
    0
 62
    7
  6
CONTINUOUS
  0
ENDTAB
  0
TABLE
  2
STYLE
  5
70
330
0
100
AcDbSymbolTable
 70
     2
  0
STYLE
  5
71
330
70
100
AcDbSymbolTableRecord
100
AcDbTextStyleTableRecord
  2
STANDARD
 70
     0
 40
0.0
 41
1.0
 50
0.0
 71
     0
 42
2.5
  3
arial.ttf
  4

  0
STYLE
  5
72
330
70
100
AcDbSymbolTableRecord
100
AcDbTextStyleTableRecord
  2
ANNOTATIVE
 70
     0
 40
0.0
 41
1.0
 50
0.0
 71
     0
 42
2.5
  3
arial.ttf
  4

  0
ENDTAB
  0
TABLE
  2
VIEW
  5
73
330
0
100
AcDbSymbolTable
 70
     0
  0
ENDTAB
  0
TABLE
  2
UCS
  5
74
330
0
100
AcDbSymbolTable
 70
     0
  0
ENDTAB
  0
TABLE
  2
APPID
  5
75
330
0
100
AcDbSymbolTable
 70
     2
  0
APPID
  5
76
330
75
100
AcDbSymbolTableRecord
100
AcDbRegAppTableRecord
  2
ACAD
 70
     0
  0
APPID
  5
77
330
75
100
AcDbSymbolTableRecord
100
AcDbRegAppTableRecord
  2
ACADANNOTATIVE
 70
     0
  0
ENDTAB
  0
TABLE
  2
DIMSTYLE
  5
78
330
0
100
AcDbSymbolTable
 70
     2
  0
DIMSTYLE
105
79
330
78
100
AcDbSymbolTableRecord
100
AcDbDimStyleTableRecord
  2
STANDARD
 70
     0
  3

  4

  5

  6

  7

 40
0.0
 41
2.5
 42
0.625
 43
3.75
 44
1.25
 45
0.0
 46
0.0
 47
0.0
 48
0.0
140
2.5
141
2.5
142
0.0
143
0.03937007874016
144
1.0
145
0.0
146
1.0
147
0.625
 71
     0
 72
     0
 73
     0
 74
     0
 75
     0
 76
     0
 77
     1
 78
     8
170
     0
171
     3
172
     1
173
     0
174
     0
175
     0
176
     0
177
     0
178
     0
270
     2
271
     2
272
     2
273
     2
274
     3
340
71
275
     0
280
     0
281
     0
282
     0
283
     0
284
     8
285
     0
286
     0
287
     3
288
     0
  0
ENDTAB
  0
TABLE
  2
BLOCK_RECORD
  5
A01
330
0
100
AcDbSymbolTable
  70
5
  0
BLOCK_RECORD
  5
A02
330
A01
100
AcDbSymbolTableRecord
100
AcDbBlockTableRecord
  2
*MODEL_SPACE
  0
BLOCK_RECORD
  5
A03
330
A01
100
AcDbSymbolTableRecord
100
AcDbBlockTableRecord
  2
*PAPER_SPACE
  0
ENDTAB
  0
ENDSEC
  0
SECTION
  2
BLOCKS
  0
BLOCK
  5
A04
330
A02
100
AcDbEntity
  8
0
100
AcDbBlockBegin
  2
*MODEL_SPACE
 70
   0
 10
0
 20
0
 30
0
  3
*MODEL_SPACE
  1
 
  0
ENDBLK
  5
A05
330
A02
100
AcDbEntity
  8
0
100
AcDbBlockEnd
  0
BLOCK
  5
A06
330
A03
100
AcDbEntity
 67
1
  8
0
100
AcDbBlockBegin
  2
*PAPER_SPACE
 70
   0
 10
0
 20
0
 30
0
  3
*PAPER_SPACE
  1
 
  0
ENDBLK
  5
A07
330
A03
100
AcDbEntity
 67
    1
  8
0
100
AcDbBlockEnd
  0
ENDSEC
  0
SECTION
  2
ENTITIES
  0
LINE
  5
A08
330
A02
100
AcDbEntity
  8
Shape2DView
100
AcDbLine
 10
-200
 20
-310.87
 30
0
 11
-200
 21
-110.87
 31
0
  0
LINE
  5
A09
330
A02
100
AcDbEntity
  8
Shape2DView
100
AcDbLine
 10
200
 20
-310.87
 30
0
 11
-200
 21
-310.87
 31
0
  0
LINE
  5
A0A
330
A02
100
AcDbEntity
  8
Shape2DView
100
AcDbLine
 10
-200
 20
-110.87
 30
0
 11
200
 21
-110.87
 31
0
  0
LINE
  5
A0B
330
A02
100
AcDbEntity
  8
Shape2DView
100
AcDbLine
 10
200
 20
-110.87
 30
0
 11
200
 21
-310.87
 31
0
  0
CIRCLE
  5
A0C
330
A02
100
AcDbEntity
  8
Shape2DView
100
AcDbCircle
 10
-195
 20
-305.87
 40
4
  0
LINE
  5
A0D
330
A02
100
AcDbEntity
  8
Shape2DView
100
AcDbLine
 10
-39.8686
 20
-290.505
 30
0
 11
-37.5588
 21
-286.505
 31
0
  0
LINE
  5
A0E
330
A02
100
AcDbEntity
  8
Shape2DView
100
AcDbLine
 10
-37.5588
 20
-294.505
 30
0
 11
-39.8686
 21
-290.505
 31
0
  0
LINE
  5
A0F
330
A02
100
AcDbEntity
  8
Shape2DView
100
AcDbLine
 10
-37.5588
 20
-286.505
 30
0
 11
-32.9398
 21
-286.505
 31
0
  0
LINE
  5
A10
330
A02
100
AcDbEntity
  8
Shape2DView
100
AcDbLine
 10
-32.9398
 20
-294.505
 30
0
 11
-37.5588
 21
-294.505
 31
0
  0
LINE
  5
A11
330
A02
100
AcDbEntity
  8
Shape2DView
100
AcDbLine
 10
-32.9398
 20
-286.505
 30
0
 11
-30.63
 21
-290.505
 31
0
  0
LINE
  5
A12
330
A02
100
AcDbEntity
  8
Shape2DView
100
AcDbLine
 10
-30.63
 20
-290.505
 30
0
 11
-32.9398
 21
-294.505
 31
0
  0
LINE
  5
A13
330
A02
100
AcDbEntity
  8
Shape2DView
100
AcDbLine
 10
-24.8686
 20
-290.505
 30
0
 11
-22.5588
 21
-286.505
 31
0
  0
LINE
  5
A14
330
A02
100
AcDbEntity
  8
Shape2DView
100
AcDbLine
 10
-22.5588
 20
-294.505
 30
0
 11
-24.8686
 21
-290.505
 31
0
  0
LINE
  5
A15
330
A02
100
AcDbEntity
  8
Shape2DView
100
AcDbLine
 10
-22.5588
 20
-286.505
 30
0
 11
-17.9398
 21
-286.505
 31
0
  0
LINE
  5
A16
330
A02
100
AcDbEntity
  8
Shape2DView
100
AcDbLine
 10
-17.9398
 20
-294.505
 30
0
 11
-22.5588
 21
-294.505
 31
0
  0
LINE
  5
A17
330
A02
100
AcDbEntity
  8
Shape2DView
100
AcDbLine
 10
-17.9398
 20
-286.505
 30
0
 11
-15.63
 21
-290.505
 31
0
  0
LINE
  5
A18
330
A02
100
AcDbEntity
  8
Shape2DView
100
AcDbLine
 10
-15.63
 20
-290.505
 30
0
 11
-17.9398
 21
-294.505
 31
0
  0
LINE
  5
A19
330
A02
100
AcDbEntity
  8
Shape2DView
100
AcDbLine
 10
-9.86859
 20
-290.505
 30
0
 11
-7.5588
 21
-286.505
 31
0
  0
LINE
  5
A1A
330
A02
100
AcDbEntity
  8
Shape2DView
100
AcDbLine
 10
-7.5588
 20
-294.505
 30
0
 11
-9.86859
 21
-290.505
 31
0
  0
LINE
  5
A1B
330
A02
100
AcDbEntity
  8
Shape2DView
100
AcDbLine
 10
-7.5588
 20
-286.505
 30
0
 11
-2.9398
 21
-286.505
 31
0
  0
LINE
  5
A1C
330
A02
100
AcDbEntity
  8
Shape2DView
100
AcDbLine
 10
-2.9398
 20
-294.505
 30
0
 11
-7.5588
 21
-294.505
 31
0
  0
LINE
  5
A1D
330
A02
100
AcDbEntity
  8
Shape2DView
100
AcDbLine
 10
-2.9398
 20
-286.505
 30
0
 11
-0.63
 21
-290.505
 31
0
  0
LINE
  5
A1E
330
A02
100
AcDbEntity
  8
Shape2DView
100
AcDbLine
 10
-0.63
 20
-290.505
 30
0
 11
-2.9398
 21
-294.505
 31
0
  0
LINE
  5
A1F
330
A02
100
AcDbEntity
  8
Shape2DView
100
AcDbLine
 10
-39.8686
 20
-275.505
 30
0
 11
-37.5588
 21
-271.505
 31
0
  0
LINE
  5
A20
330
A02
100
AcDbEntity
  8
Shape2DView
100
AcDbLine
 10
-37.5588
 20
-279.505
 30
0
 11
-39.8686
 21
-275.505
 31
0
  0
LINE
  5
A21
330
A02
100
AcDbEntity
  8
Shape2DView
100
AcDbLine
 10
-37.5588
 20
-271.505
 30
0
 11
-32.9398
 21
-271.505
 31
0
  0
LINE
  5
A22
330
A02
100
AcDbEntity
  8
Shape2DView
100
AcDbLine
 10
-32.9398
 20
-279.505
 30
0
 11
-37.5588
 21
-279.505
 31
0
  0
LINE
  5
A23
330
A02
100
AcDbEntity
  8
Shape2DView
100
AcDbLine
 10
-32.9398
 20
-271.505
 30
0
 11
-30.63
 21
-275.505
 31
0
  0
LINE
  5
A24
330
A02
100
AcDbEntity
  8
Shape2DView
100
AcDbLine
 10
-30.63
 20
-275.505
 30
0
 11
-32.9398
 21
-279.505
 31
0
  0
LINE
  5
A25
330
A02
100
AcDbEntity
  8
Shape2DView
100
AcDbLine
 10
-24.8686
 20
-275.505
 30
0
 11
-22.5588
 21
-271.505
 31
0
  0
LINE
  5
A26
330
A02
100
AcDbEntity
  8
Shape2DView
100
AcDbLine
 10
-22.5588
 20
-279.505
 30
0
 11
-24.8686
 21
-275.505
 31
0
  0
LINE
  5
A27
330
A02
100
AcDbEntity
  8
Shape2DView
100
AcDbLine
 10
-22.5588
 20
-271.505
 30
0
 11
-17.9398
 21
-271.505
 31
0
  0
LINE
  5
A28
330
A02
100
AcDbEntity
  8
Shape2DView
100
AcDbLine
 10
-17.9398
 20
-279.505
 30
0
 11
-22.5588
 21
-279.505
 31
0
  0
LINE
  5
A29
330
A02
100
AcDbEntity
  8
Shape2DView
100
AcDbLine
 10
-17.9398
 20
-271.505
 30
0
 11
-15.63
 21
-275.505
 31
0
  0
LINE
  5
A2A
330
A02
100
AcDbEntity
  8
Shape2DView
100
AcDbLine
 10
-15.63
 20
-275.505
 30
0
 11
-17.9398
 21
-279.505
 31
0
  0
LINE
  5
A2B
330
A02
100
AcDbEntity
  8
Shape2DView
100
AcDbLine
 10
-9.86859
 20
-275.505
 30
0
 11
-7.5588
 21
-271.505
 31
0
  0
LINE
  5
A2C
330
A02
100
AcDbEntity
  8
Shape2DView
100
AcDbLine
 10
-7.5588
 20
-279.505
 30
0
 11
-9.86859
 21
-275.505
 31
0
  0
LINE
  5
A2D
330
A02
100
AcDbEntity
  8
Shape2DView
100
AcDbLine
 10
-7.5588
 20
-271.505
 30
0
 11
-2.9398
 21
-271.505
 31
0
  0
LINE
  5
A2E
330
A02
100
AcDbEntity
  8
Shape2DView
100
AcDbLine
 10
-2.9398
 20
-279.505
 30
0
 11
-7.5588
 21
-279.505
 31
0
  0
LINE
  5
A2F
330
A02
100
AcDbEntity
  8
Shape2DView
100
AcDbLine
 10
-2.9398
 20
-271.505
 30
0
 11
-0.63
 21
-275.505
 31
0
  0
LINE
  5
A30
330
A02
100
AcDbEntity
  8
Shape2DView
100
AcDbLine
 10
-0.63
 20
-275.505
 30
0
 11
-2.9398
 21
-279.505
 31
0
  0
LINE
  5
A31
330
A02
100
AcDbEntity
  8
Shape2DView
100
AcDbLine
 10
-39.8686
 20
-260.505
 30
0
 11
-37.5588
 21
-256.505
 31
0
  0
LINE
  5
A32
330
A02
100
AcDbEntity
  8
Shape2DView
100
AcDbLine
 10
-37.5588
 20
-264.505
 30
0
 11
-39.8686
 21
-260.505
 31
0
  0
LINE
  5
A33
330
A02
100
AcDbEntity
  8
Shape2DView
100
AcDbLine
 10
-37.5588
 20
-256.505
 30
0
 11
-32.9398
 21
-256.505
 31
0
  0
LINE
  5
A34
330
A02
100
AcDbEntity
  8
Shape2DView
100
AcDbLine
 10
-32.9398
 20
-264.505
 30
0
 11
-37.5588
 21
-264.505
 31
0
  0
LINE
  5
A35
330
A02
100
AcDbEntity
  8
Shape2DView
100
AcDbLine
 10
-32.9398
 20
-256.505
 30
0
 11
-30.63
 21
-260.505
 31
0
  0
LINE
  5
A36
330
A02
100
AcDbEntity
  8
Shape2DView
100
AcDbLine
 10
-30.63
 20
-260.505
 30
0
 11
-32.9398
 21
-264.505
 31
0
  0
LINE
  5
A37
330
A02
100
AcDbEntity
  8
Shape2DView
100
AcDbLine
 10
-24.8686
 20
-260.505
 30
0
 11
-22.5588
 21
-256.505
 31
0
  0
LINE
  5
A38
330
A02
100
AcDbEntity
  8
Shape2DView
100
AcDbLine
 10
-22.5588
 20
-264.505
 30
0
 11
-24.8686
 21
-260.505
 31
0
  0
LINE
  5
A39
330
A02
100
AcDbEntity
  8
Shape2DView
100
AcDbLine
 10
-22.5588
 20
-256.505
 30
0
 11
-17.9398
 21
-256.505
 31
0
  0
LINE
  5
A3A
330
A02
100
AcDbEntity
  8
Shape2DView
100
AcDbLine
 10
-17.9398
 20
-264.505
 30
0
 11
-22.5588
 21
-264.505
 31
0
  0
LINE
  5
A3B
330
A02
100
AcDbEntity
  8
Shape2DView
100
AcDbLine
 10
-17.9398
 20
-256.505
 30
0
 11
-15.63
 21
-260.505
 31
0
  0
LINE
  5
A3C
330
A02
100
AcDbEntity
  8
Shape2DView
100
AcDbLine
 10
-15.63
 20
-260.505
 30
0
 11
-17.9398
 21
-264.505
 31
0
  0
LINE
  5
A3D
330
A02
100
AcDbEntity
  8
Shape2DView
100
AcDbLine
 10
-9.86859
 20
-260.505
 30
0
 11
-7.5588
 21
-256.505
 31
0
  0
LINE
  5
A3E
330
A02
100
AcDbEntity
  8
Shape2DView
100
AcDbLine
 10
-7.5588
 20
-264.505
 30
0
 11
-9.86859
 21
-260.505
 31
0
  0
LINE
  5
A3F
330
A02
100
AcDbEntity
  8
Shape2DView
100
AcDbLine
 10
-7.5588
 20
-256.505
 30
0
 11
-2.9398
 21
-256.505
 31
0
  0
LINE
  5
A40
330
A02
100
AcDbEntity
  8
Shape2DView
100
AcDbLine
 10
-2.9398
 20
-264.505
 30
0
 11
-7.5588
 21
-264.505
 31
0
  0
LINE
  5
A41
330
A02
100
AcDbEntity
  8
Shape2DView
100
AcDbLine
 10
-2.9398
 20
-256.505
 30
0
 11
-0.63
 21
-260.505
 31
0
  0
LINE
  5
A42
330
A02
100
AcDbEntity
  8
Shape2DView
100
AcDbLine
 10
-0.63
 20
-260.505
 30
0
 11
-2.9398
 21
-264.505
 31
0
  0
LINE
  5
A43
330
A02
100
AcDbEntity
  8
Shape2DView
100
AcDbLine
 10
-189.984
 20
-230.505
 30
0
 11
-187.674
 21
-226.505
 31
0
  0
LINE
  5
A44
330
A02
100
AcDbEntity
  8
Shape2DView
100
AcDbLine
 10
-187.674
 20
-234.505
 30
0
 11
-189.984
 21
-230.505
 31
0
  0
LINE
  5
A45
330
A02
100
AcDbEntity
  8
Shape2DView
100
AcDbLine
 10
-187.674
 20
-226.505
 30
0
 11
-183.055
 21
-226.505
 31
0
  0
LINE
  5
A46
330
A02
100
AcDbEntity
  8
Shape2DView
100
AcDbLine
 10
-183.055
 20
-234.505
 30
0
 11
-187.674
 21
-234.505
 31
0
  0
LINE
  5
A47
330
A02
100
AcDbEntity
  8
Shape2DView
100
AcDbLine
 10
-180.745
 20
-230.505
 30
0
 11
-183.055
 21
-226.505
 31
0
  0
LINE
  5
A48
330
A02
100
AcDbEntity
  8
Shape2DView
100
AcDbLine
 10
-183.055
 20
-234.505
 30
0
 11
-180.745
 21
-230.505
 31
0
  0
LINE
  5
A49
330
A02
100
AcDbEntity
  8
Shape2DView
100
AcDbLine
 10
-174.984
 20
-230.505
 30
0
 11
-172.674
 21
-226.505
 31
0
  0
LINE
  5
A4A
330
A02
100
AcDbEntity
  8
Shape2DView
100
AcDbLine
 10
-172.674
 20
-234.505
 30
0
 11
-174.984
 21
-230.505
 31
0
  0
LINE
  5
A4B
330
A02
100
AcDbEntity
  8
Shape2DView
100
AcDbLine
 10
-172.674
 20
-226.505
 30
0
 11
-168.055
 21
-226.505
 31
0
  0
LINE
  5
A4C
330
A02
100
AcDbEntity
  8
Shape2DView
100
AcDbLine
 10
-168.055
 20
-234.505
 30
0
 11
-172.674
 21
-234.505
 31
0
  0
LINE
  5
A4D
330
A02
100
AcDbEntity
  8
Shape2DView
100
AcDbLine
 10
-165.745
 20
-230.505
 30
0
 11
-168.055
 21
-226.505
 31
0
  0
LINE
  5
A4E
330
A02
100
AcDbEntity
  8
Shape2DView
100
AcDbLine
 10
-168.055
 20
-234.505
 30
0
 11
-165.745
 21
-230.505
 31
0
  0
LINE
  5
A4F
330
A02
100
AcDbEntity
  8
Shape2DView
100
AcDbLine
 10
-159.984
 20
-230.505
 30
0
 11
-157.674
 21
-226.505
 31
0
  0
LINE
  5
A50
330
A02
100
AcDbEntity
  8
Shape2DView
100
AcDbLine
 10
-157.674
 20
-234.505
 30
0
 11
-159.984
 21
-230.505
 31
0
  0
LINE
  5
A51
330
A02
100
AcDbEntity
  8
Shape2DView
100
AcDbLine
 10
-157.674
 20
-226.505
 30
0
 11
-153.055
 21
-226.505
 31
0
  0
LINE
  5
A52
330
A02
100
AcDbEntity
  8
Shape2DView
100
AcDbLine
 10
-153.055
 20
-234.505
 30
0
 11
-157.674
 21
-234.505
 31
0
  0
LINE
  5
A53
330
A02
100
AcDbEntity
  8
Shape2DView
100
AcDbLine
 10
-150.745
 20
-230.505
 30
0
 11
-153.055
 21
-226.505
 31
0
  0
LINE
  5
A54
330
A02
100
AcDbEntity
  8
Shape2DView
100
AcDbLine
 10
-153.055
 20
-234.505
 30
0
 11
-150.745
 21
-230.505
 31
0
  0
LINE
  5
A55
330
A02
100
AcDbEntity
  8
Shape2DView
100
AcDbLine
 10
-189.984
 20
-215.505
 30
0
 11
-187.674
 21
-211.505
 31
0
  0
LINE
  5
A56
330
A02
100
AcDbEntity
  8
Shape2DView
100
AcDbLine
 10
-187.674
 20
-219.505
 30
0
 11
-189.984
 21
-215.505
 31
0
  0
LINE
  5
A57
330
A02
100
AcDbEntity
  8
Shape2DView
100
AcDbLine
 10
-187.674
 20
-211.505
 30
0
 11
-183.055
 21
-211.505
 31
0
  0
LINE
  5
A58
330
A02
100
AcDbEntity
  8
Shape2DView
100
AcDbLine
 10
-183.055
 20
-219.505
 30
0
 11
-187.674
 21
-219.505
 31
0
  0
LINE
  5
A59
330
A02
100
AcDbEntity
  8
Shape2DView
100
AcDbLine
 10
-180.745
 20
-215.505
 30
0
 11
-183.055
 21
-211.505
 31
0
  0
LINE
  5
A5A
330
A02
100
AcDbEntity
  8
Shape2DView
100
AcDbLine
 10
-183.055
 20
-219.505
 30
0
 11
-180.745
 21
-215.505
 31
0
  0
LINE
  5
A5B
330
A02
100
AcDbEntity
  8
Shape2DView
100
AcDbLine
 10
-174.984
 20
-215.505
 30
0
 11
-172.674
 21
-211.505
 31
0
  0
LINE
  5
A5C
330
A02
100
AcDbEntity
  8
Shape2DView
100
AcDbLine
 10
-172.674
 20
-219.505
 30
0
 11
-174.984
 21
-215.505
 31
0
  0
LINE
  5
A5D
330
A02
100
AcDbEntity
  8
Shape2DView
100
AcDbLine
 10
-172.674
 20
-211.505
 30
0
 11
-168.055
 21
-211.505
 31
0
  0
LINE
  5
A5E
330
A02
100
AcDbEntity
  8
Shape2DView
100
AcDbLine
 10
-168.055
 20
-219.505
 30
0
 11
-172.674
 21
-219.505
 31
0
  0
LINE
  5
A5F
330
A02
100
AcDbEntity
  8
Shape2DView
100
AcDbLine
 10
-165.745
 20
-215.505
 30
0
 11
-168.055
 21
-211.505
 31
0
  0
LINE
  5
A60
330
A02
100
AcDbEntity
  8
Shape2DView
100
AcDbLine
 10
-168.055
 20
-219.505
 30
0
 11
-165.745
 21
-215.505
 31
0
  0
LINE
  5
A61
330
A02
100
AcDbEntity
  8
Shape2DView
100
AcDbLine
 10
-159.984
 20
-215.505
 30
0
 11
-157.674
 21
-211.505
 31
0
  0
LINE
  5
A62
330
A02
100
AcDbEntity
  8
Shape2DView
100
AcDbLine
 10
-157.674
 20
-219.505
 30
0
 11
-159.984
 21
-215.505
 31
0
  0
LINE
  5
A63
330
A02
100
AcDbEntity
  8
Shape2DView
100
AcDbLine
 10
-157.674
 20
-211.505
 30
0
 11
-153.055
 21
-211.505
 31
0
  0
LINE
  5
A64
330
A02
100
AcDbEntity
  8
Shape2DView
100
AcDbLine
 10
-153.055
 20
-219.505
 30
0
 11
-157.674
 21
-219.505
 31
0
  0
LINE
  5
A65
330
A02
100
AcDbEntity
  8
Shape2DView
100
AcDbLine
 10
-150.745
 20
-215.505
 30
0
 11
-153.055
 21
-211.505
 31
0
  0
LINE
  5
A66
330
A02
100
AcDbEntity
  8
Shape2DView
100
AcDbLine
 10
-153.055
 20
-219.505
 30
0
 11
-150.745
 21
-215.505
 31
0
  0
LINE
  5
A67
330
A02
100
AcDbEntity
  8
Shape2DView
100
AcDbLine
 10
-144.984
 20
-230.505
 30
0
 11
-142.674
 21
-226.505
 31
0
  0
LINE
  5
A68
330
A02
100
AcDbEntity
  8
Shape2DView
100
AcDbLine
 10
-142.674
 20
-234.505
 30
0
 11
-144.984
 21
-230.505
 31
0
  0
LINE
  5
A69
330
A02
100
AcDbEntity
  8
Shape2DView
100
AcDbLine
 10
-142.674
 20
-226.505
 30
0
 11
-138.055
 21
-226.505
 31
0
  0
LINE
  5
A6A
330
A02
100
AcDbEntity
  8
Shape2DView
100
AcDbLine
 10
-138.055
 20
-234.505
 30
0
 11
-142.674
 21
-234.505
 31
0
  0
LINE
  5
A6B
330
A02
100
AcDbEntity
  8
Shape2DView
100
AcDbLine
 10
-135.745
 20
-230.505
 30
0
 11
-138.055
 21
-226.505
 31
0
  0
LINE
  5
A6C
330
A02
100
AcDbEntity
  8
Shape2DView
100
AcDbLine
 10
-138.055
 20
-234.505
 30
0
 11
-135.745
 21
-230.505
 31
0
  0
LINE
  5
A6D
330
A02
100
AcDbEntity
  8
Shape2DView
100
AcDbLine
 10
-129.984
 20
-230.505
 30
0
 11
-127.674
 21
-226.505
 31
0
  0
LINE
  5
A6E
330
A02
100
AcDbEntity
  8
Shape2DView
100
AcDbLine
 10
-127.674
 20
-234.505
 30
0
 11
-129.984
 21
-230.505
 31
0
  0
LINE
  5
A6F
330
A02
100
AcDbEntity
  8
Shape2DView
100
AcDbLine
 10
-127.674
 20
-226.505
 30
0
 11
-123.055
 21
-226.505
 31
0
  0
LINE
  5
A70
330
A02
100
AcDbEntity
  8
Shape2DView
100
AcDbLine
 10
-123.055
 20
-234.505
 30
0
 11
-127.674
 21
-234.505
 31
0
  0
LINE
  5
A71
330
A02
100
AcDbEntity
  8
Shape2DView
100
AcDbLine
 10
-120.745
 20
-230.505
 30
0
 11
-123.055
 21
-226.505
 31
0
  0
LINE
  5
A72
330
A02
100
AcDbEntity
  8
Shape2DView
100
AcDbLine
 10
-123.055
 20
-234.505
 30
0
 11
-120.745
 21
-230.505
 31
0
  0
LINE
  5
A73
330
A02
100
AcDbEntity
  8
Shape2DView
100
AcDbLine
 10
-114.984
 20
-230.505
 30
0
 11
-112.674
 21
-226.505
 31
0
  0
LINE
  5
A74
330
A02
100
AcDbEntity
  8
Shape2DView
100
AcDbLine
 10
-112.674
 20
-234.505
 30
0
 11
-114.984
 21
-230.505
 31
0
  0
LINE
  5
A75
330
A02
100
AcDbEntity
  8
Shape2DView
100
AcDbLine
 10
-112.674
 20
-226.505
 30
0
 11
-108.055
 21
-226.505
 31
0
  0
LINE
  5
A76
330
A02
100
AcDbEntity
  8
Shape2DView
100
AcDbLine
 10
-108.055
 20
-234.505
 30
0
 11
-112.674
 21
-234.505
 31
0
  0
LINE
  5
A77
330
A02
100
AcDbEntity
  8
Shape2DView
100
AcDbLine
 10
-105.745
 20
-230.505
 30
0
 11
-108.055
 21
-226.505
 31
0
  0
LINE
  5
A78
330
A02
100
AcDbEntity
  8
Shape2DView
100
AcDbLine
 10
-108.055
 20
-234.505
 30
0
 11
-105.745
 21
-230.505
 31
0
  0
LINE
  5
A79
330
A02
100
AcDbEntity
  8
Shape2DView
100
AcDbLine
 10
-144.984
 20
-215.505
 30
0
 11
-142.674
 21
-211.505
 31
0
  0
LINE
  5
A7A
330
A02
100
AcDbEntity
  8
Shape2DView
100
AcDbLine
 10
-142.674
 20
-219.505
 30
0
 11
-144.984
 21
-215.505
 31
0
  0
LINE
  5
A7B
330
A02
100
AcDbEntity
  8
Shape2DView
100
AcDbLine
 10
-142.674
 20
-211.505
 30
0
 11
-138.055
 21
-211.505
 31
0
  0
LINE
  5
A7C
330
A02
100
AcDbEntity
  8
Shape2DView
100
AcDbLine
 10
-138.055
 20
-219.505
 30
0
 11
-142.674
 21
-219.505
 31
0
  0
LINE
  5
A7D
330
A02
100
AcDbEntity
  8
Shape2DView
100
AcDbLine
 10
-135.745
 20
-215.505
 30
0
 11
-138.055
 21
-211.505
 31
0
  0
LINE
  5
A7E
330
A02
100
AcDbEntity
  8
Shape2DView
100
AcDbLine
 10
-138.055
 20
-219.505
 30
0
 11
-135.745
 21
-215.505
 31
0
  0
LINE
  5
A7F
330
A02
100
AcDbEntity
  8
Shape2DView
100
AcDbLine
 10
-129.984
 20
-215.505
 30
0
 11
-127.674
 21
-211.505
 31
0
  0
LINE
  5
A80
330
A02
100
AcDbEntity
  8
Shape2DView
100
AcDbLine
 10
-127.674
 20
-219.505
 30
0
 11
-129.984
 21
-215.505
 31
0
  0
LINE
  5
A81
330
A02
100
AcDbEntity
  8
Shape2DView
100
AcDbLine
 10
-127.674
 20
-211.505
 30
0
 11
-123.055
 21
-211.505
 31
0
  0
LINE
  5
A82
330
A02
100
AcDbEntity
  8
Shape2DView
100
AcDbLine
 10
-123.055
 20
-219.505
 30
0
 11
-127.674
 21
-219.505
 31
0
  0
LINE
  5
A83
330
A02
100
AcDbEntity
  8
Shape2DView
100
AcDbLine
 10
-120.745
 20
-215.505
 30
0
 11
-123.055
 21
-211.505
 31
0
  0
LINE
  5
A84
330
A02
100
AcDbEntity
  8
Shape2DView
100
AcDbLine
 10
-123.055
 20
-219.505
 30
0
 11
-120.745
 21
-215.505
 31
0
  0
LINE
  5
A85
330
A02
100
AcDbEntity
  8
Shape2DView
100
AcDbLine
 10
-114.984
 20
-215.505
 30
0
 11
-112.674
 21
-211.505
 31
0
  0
LINE
  5
A86
330
A02
100
AcDbEntity
  8
Shape2DView
100
AcDbLine
 10
-112.674
 20
-219.505
 30
0
 11
-114.984
 21
-215.505
 31
0
  0
LINE
  5
A87
330
A02
100
AcDbEntity
  8
Shape2DView
100
AcDbLine
 10
-112.674
 20
-211.505
 30
0
 11
-108.055
 21
-211.505
 31
0
  0
LINE
  5
A88
330
A02
100
AcDbEntity
  8
Shape2DView
100
AcDbLine
 10
-108.055
 20
-219.505
 30
0
 11
-112.674
 21
-219.505
 31
0
  0
LINE
  5
A89
330
A02
100
AcDbEntity
  8
Shape2DView
100
AcDbLine
 10
-105.745
 20
-215.505
 30
0
 11
-108.055
 21
-211.505
 31
0
  0
LINE
  5
A8A
330
A02
100
AcDbEntity
  8
Shape2DView
100
AcDbLine
 10
-108.055
 20
-219.505
 30
0
 11
-105.745
 21
-215.505
 31
0
  0
LINE
  5
A8B
330
A02
100
AcDbEntity
  8
Shape2DView
100
AcDbLine
 10
-39.8686
 20
-245.505
 30
0
 11
-37.5588
 21
-241.505
 31
0
  0
LINE
  5
A8C
330
A02
100
AcDbEntity
  8
Shape2DView
100
AcDbLine
 10
-37.5588
 20
-249.505
 30
0
 11
-39.8686
 21
-245.505
 31
0
  0
LINE
  5
A8D
330
A02
100
AcDbEntity
  8
Shape2DView
100
AcDbLine
 10
-37.5588
 20
-241.505
 30
0
 11
-32.9398
 21
-241.505
 31
0
  0
LINE
  5
A8E
330
A02
100
AcDbEntity
  8
Shape2DView
100
AcDbLine
 10
-32.9398
 20
-249.505
 30
0
 11
-37.5588
 21
-249.505
 31
0
  0
LINE
  5
A8F
330
A02
100
AcDbEntity
  8
Shape2DView
100
AcDbLine
 10
-32.9398
 20
-241.505
 30
0
 11
-30.63
 21
-245.505
 31
0
  0
LINE
  5
A90
330
A02
100
AcDbEntity
  8
Shape2DView
100
AcDbLine
 10
-30.63
 20
-245.505
 30
0
 11
-32.9398
 21
-249.505
 31
0
  0
LINE
  5
A91
330
A02
100
AcDbEntity
  8
Shape2DView
100
AcDbLine
 10
-24.8686
 20
-245.505
 30
0
 11
-22.5588
 21
-241.505
 31
0
  0
LINE
  5
A92
330
A02
100
AcDbEntity
  8
Shape2DView
100
AcDbLine
 10
-22.5588
 20
-249.505
 30
0
 11
-24.8686
 21
-245.505
 31
0
  0
LINE
  5
A93
330
A02
100
AcDbEntity
  8
Shape2DView
100
AcDbLine
 10
-22.5588
 20
-241.505
 30
0
 11
-17.9398
 21
-241.505
 31
0
  0
LINE
  5
A94
330
A02
100
AcDbEntity
  8
Shape2DView
100
AcDbLine
 10
-17.9398
 20
-249.505
 30
0
 11
-22.5588
 21
-249.505
 31
0
  0
LINE
  5
A95
330
A02
100
AcDbEntity
  8
Shape2DView
100
AcDbLine
 10
-17.9398
 20
-241.505
 30
0
 11
-15.63
 21
-245.505
 31
0
  0
LINE
  5
A96
330
A02
100
AcDbEntity
  8
Shape2DView
100
AcDbLine
 10
-15.63
 20
-245.505
 30
0
 11
-17.9398
 21
-249.505
 31
0
  0
LINE
  5
A97
330
A02
100
AcDbEntity
  8
Shape2DView
100
AcDbLine
 10
-9.86859
 20
-245.505
 30
0
 11
-7.5588
 21
-241.505
 31
0
  0
LINE
  5
A98
330
A02
100
AcDbEntity
  8
Shape2DView
100
AcDbLine
 10
-7.5588
 20
-249.505
 30
0
 11
-9.86859
 21
-245.505
 31
0
  0
LINE
  5
A99
330
A02
100
AcDbEntity
  8
Shape2DView
100
AcDbLine
 10
-7.5588
 20
-241.505
 30
0
 11
-2.9398
 21
-241.505
 31
0
  0
LINE
  5
A9A
330
A02
100
AcDbEntity
  8
Shape2DView
100
AcDbLine
 10
-2.9398
 20
-249.505
 30
0
 11
-7.5588
 21
-249.505
 31
0
  0
LINE
  5
A9B
330
A02
100
AcDbEntity
  8
Shape2DView
100
AcDbLine
 10
-2.9398
 20
-241.505
 30
0
 11
-0.63
 21
-245.505
 31
0
  0
LINE
  5
A9C
330
A02
100
AcDbEntity
  8
Shape2DView
100
AcDbLine
 10
-0.63
 20
-245.505
 30
0
 11
-2.9398
 21
-249.505
 31
0
  0
LINE
  5
A9D
330
A02
100
AcDbEntity
  8
Shape2DView
100
AcDbLine
 10
-93.1452
 20
-234.505
 30
0
 11
-97.7642
 21
-234.505
 31
0
  0
LINE
  5
A9E
330
A02
100
AcDbEntity
  8
Shape2DView
100
AcDbLine
 10
-90.8354
 20
-230.505
 30
0
 11
-93.1452
 21
-234.505
 31
0
  0
LINE
  5
A9F
330
A02
100
AcDbEntity
  8
Shape2DView
100
AcDbLine
 10
-97.7642
 20
-234.505
 30
0
 11
-100.074
 21
-230.505
 31
0
  0
LINE
  5
AA0
330
A02
100
AcDbEntity
  8
Shape2DView
100
AcDbLine
 10
-93.1452
 20
-226.505
 30
0
 11
-90.8354
 21
-230.505
 31
0
  0
LINE
  5
AA1
330
A02
100
AcDbEntity
  8
Shape2DView
100
AcDbLine
 10
-100.074
 20
-230.505
 30
0
 11
-97.7642
 21
-226.505
 31
0
  0
LINE
  5
AA2
330
A02
100
AcDbEntity
  8
Shape2DView
100
AcDbLine
 10
-97.7642
 20
-226.505
 30
0
 11
-93.1452
 21
-226.505
 31
0
  0
LINE
  5
AA3
330
A02
100
AcDbEntity
  8
Shape2DView
100
AcDbLine
 10
-78.1452
 20
-234.505
 30
0
 11
-82.7642
 21
-234.505
 31
0
  0
LINE
  5
AA4
330
A02
100
AcDbEntity
  8
Shape2DView
100
AcDbLine
 10
-75.8354
 20
-230.505
 30
0
 11
-78.1452
 21
-234.505
 31
0
  0
LINE
  5
AA5
330
A02
100
AcDbEntity
  8
Shape2DView
100
AcDbLine
 10
-82.7642
 20
-234.505
 30
0
 11
-85.074
 21
-230.505
 31
0
  0
LINE
  5
AA6
330
A02
100
AcDbEntity
  8
Shape2DView
100
AcDbLine
 10
-78.1452
 20
-226.505
 30
0
 11
-75.8354
 21
-230.505
 31
0
  0
LINE
  5
AA7
330
A02
100
AcDbEntity
  8
Shape2DView
100
AcDbLine
 10
-85.074
 20
-230.505
 30
0
 11
-82.7642
 21
-226.505
 31
0
  0
LINE
  5
AA8
330
A02
100
AcDbEntity
  8
Shape2DView
100
AcDbLine
 10
-82.7642
 20
-226.505
 30
0
 11
-78.1452
 21
-226.505
 31
0
  0
LINE
  5
AA9
330
A02
100
AcDbEntity
  8
Shape2DView
100
AcDbLine
 10
-63.1452
 20
-234.505
 30
0
 11
-67.7642
 21
-234.505
 31
0
  0
LINE
  5
AAA
330
A02
100
AcDbEntity
  8
Shape2DView
100
AcDbLine
 10
-60.8354
 20
-230.505
 30
0
 11
-63.1452
 21
-234.505
 31
0
  0
LINE
  5
AAB
330
A02
100
AcDbEntity
  8
Shape2DView
100
AcDbLine
 10
-67.7642
 20
-234.505
 30
0
 11
-70.074
 21
-230.505
 31
0
  0
LINE
  5
AAC
330
A02
100
AcDbEntity
  8
Shape2DView
100
AcDbLine
 10
-63.1452
 20
-226.505
 30
0
 11
-60.8354
 21
-230.505
 31
0
  0
LINE
  5
AAD
330
A02
100
AcDbEntity
  8
Shape2DView
100
AcDbLine
 10
-70.074
 20
-230.505
 30
0
 11
-67.7642
 21
-226.505
 31
0
  0
LINE
  5
AAE
330
A02
100
AcDbEntity
  8
Shape2DView
100
AcDbLine
 10
-67.7642
 20
-226.505
 30
0
 11
-63.1452
 21
-226.505
 31
0
  0
LINE
  5
AAF
330
A02
100
AcDbEntity
  8
Shape2DView
100
AcDbLine
 10
-48.1452
 20
-234.505
 30
0
 11
-52.7642
 21
-234.505
 31
0
  0
LINE
  5
AB0
330
A02
100
AcDbEntity
  8
Shape2DView
100
AcDbLine
 10
-45.8354
 20
-230.505
 30
0
 11
-48.1452
 21
-234.505
 31
0
  0
LINE
  5
AB1
330
A02
100
AcDbEntity
  8
Shape2DView
100
AcDbLine
 10
-52.7642
 20
-234.505
 30
0
 11
-55.074
 21
-230.505
 31
0
  0
LINE
  5
AB2
330
A02
100
AcDbEntity
  8
Shape2DView
100
AcDbLine
 10
-48.1452
 20
-226.505
 30
0
 11
-45.8354
 21
-230.505
 31
0
  0
LINE
  5
AB3
330
A02
100
AcDbEntity
  8
Shape2DView
100
AcDbLine
 10
-55.074
 20
-230.505
 30
0
 11
-52.7642
 21
-226.505
 31
0
  0
LINE
  5
AB4
330
A02
100
AcDbEntity
  8
Shape2DView
100
AcDbLine
 10
-52.7642
 20
-226.505
 30
0
 11
-48.1452
 21
-226.505
 31
0
  0
LINE
  5
AB5
330
A02
100
AcDbEntity
  8
Shape2DView
100
AcDbLine
 10
-93.1452
 20
-219.505
 30
0
 11
-97.7642
 21
-219.505
 31
0
  0
LINE
  5
AB6
330
A02
100
AcDbEntity
  8
Shape2DView
100
AcDbLine
 10
-90.8354
 20
-215.505
 30
0
 11
-93.1452
 21
-219.505
 31
0
  0
LINE
  5
AB7
330
A02
100
AcDbEntity
  8
Shape2DView
100
AcDbLine
 10
-97.7642
 20
-219.505
 30
0
 11
-100.074
 21
-215.505
 31
0
  0
LINE
  5
AB8
330
A02
100
AcDbEntity
  8
Shape2DView
100
AcDbLine
 10
-93.1452
 20
-211.505
 30
0
 11
-90.8354
 21
-215.505
 31
0
  0
LINE
  5
AB9
330
A02
100
AcDbEntity
  8
Shape2DView
100
AcDbLine
 10
-100.074
 20
-215.505
 30
0
 11
-97.7642
 21
-211.505
 31
0
  0
LINE
  5
ABA
330
A02
100
AcDbEntity
  8
Shape2DView
100
AcDbLine
 10
-97.7642
 20
-211.505
 30
0
 11
-93.1452
 21
-211.505
 31
0
  0
LINE
  5
ABB
330
A02
100
AcDbEntity
  8
Shape2DView
100
AcDbLine
 10
-78.1452
 20
-219.505
 30
0
 11
-82.7642
 21
-219.505
 31
0
  0
LINE
  5
ABC
330
A02
100
AcDbEntity
  8
Shape2DView
100
AcDbLine
 10
-75.8354
 20
-215.505
 30
0
 11
-78.1452
 21
-219.505
 31
0
  0
LINE
  5
ABD
330
A02
100
AcDbEntity
  8
Shape2DView
100
AcDbLine
 10
-82.7642
 20
-219.505
 30
0
 11
-85.074
 21
-215.505
 31
0
  0
LINE
  5
ABE
330
A02
100
AcDbEntity
  8
Shape2DView
100
AcDbLine
 10
-78.1452
 20
-211.505
 30
0
 11
-75.8354
 21
-215.505
 31
0
  0
LINE
  5
ABF
330
A02
100
AcDbEntity
  8
Shape2DView
100
AcDbLine
 10
-85.074
 20
-215.505
 30
0
 11
-82.7642
 21
-211.505
 31
0
  0
LINE
  5
AC0
330
A02
100
AcDbEntity
  8
Shape2DView
100
AcDbLine
 10
-82.7642
 20
-211.505
 30
0
 11
-78.1452
 21
-211.505
 31
0
  0
LINE
  5
AC1
330
A02
100
AcDbEntity
  8
Shape2DView
100
AcDbLine
 10
-63.1452
 20
-219.505
 30
0
 11
-67.7642
 21
-219.505
 31
0
  0
LINE
  5
AC2
330
A02
100
AcDbEntity
  8
Shape2DView
100
AcDbLine
 10
-60.8354
 20
-215.505
 30
0
 11
-63.1452
 21
-219.505
 31
0
  0
LINE
  5
AC3
330
A02
100
AcDbEntity
  8
Shape2DView
100
AcDbLine
 10
-67.7642
 20
-219.505
 30
0
 11
-70.074
 21
-215.505
 31
0
  0
LINE
  5
AC4
330
A02
100
AcDbEntity
  8
Shape2DView
100
AcDbLine
 10
-63.1452
 20
-211.505
 30
0
 11
-60.8354
 21
-215.505
 31
0
  0
LINE
  5
AC5
330
A02
100
AcDbEntity
  8
Shape2DView
100
AcDbLine
 10
-70.074
 20
-215.505
 30
0
 11
-67.7642
 21
-211.505
 31
0
  0
LINE
  5
AC6
330
A02
100
AcDbEntity
  8
Shape2DView
100
AcDbLine
 10
-67.7642
 20
-211.505
 30
0
 11
-63.1452
 21
-211.505
 31
0
  0
LINE
  5
AC7
330
A02
100
AcDbEntity
  8
Shape2DView
100
AcDbLine
 10
-48.1452
 20
-219.505
 30
0
 11
-52.7642
 21
-219.505
 31
0
  0
LINE
  5
AC8
330
A02
100
AcDbEntity
  8
Shape2DView
100
AcDbLine
 10
-45.8354
 20
-215.505
 30
0
 11
-48.1452
 21
-219.505
 31
0
  0
LINE
  5
AC9
330
A02
100
AcDbEntity
  8
Shape2DView
100
AcDbLine
 10
-52.7642
 20
-219.505
 30
0
 11
-55.074
 21
-215.505
 31
0
  0
LINE
  5
ACA
330
A02
100
AcDbEntity
  8
Shape2DView
100
AcDbLine
 10
-48.1452
 20
-211.505
 30
0
 11
-45.8354
 21
-215.505
 31
0
  0
LINE
  5
ACB
330
A02
100
AcDbEntity
  8
Shape2DView
100
AcDbLine
 10
-55.074
 20
-215.505
 30
0
 11
-52.7642
 21
-211.505
 31
0
  0
LINE
  5
ACC
330
A02
100
AcDbEntity
  8
Shape2DView
100
AcDbLine
 10
-52.7642
 20
-211.505
 30
0
 11
-48.1452
 21
-211.505
 31
0
  0
LINE
  5
ACD
330
A02
100
AcDbEntity
  8
Shape2DView
100
AcDbLine
 10
-39.8686
 20
-230.505
 30
0
 11
-37.5588
 21
-226.505
 31
0
  0
LINE
  5
ACE
330
A02
100
AcDbEntity
  8
Shape2DView
100
AcDbLine
 10
-37.5588
 20
-234.505
 30
0
 11
-39.8686
 21
-230.505
 31
0
  0
LINE
  5
ACF
330
A02
100
AcDbEntity
  8
Shape2DView
100
AcDbLine
 10
-37.5588
 20
-226.505
 30
0
 11
-32.9398
 21
-226.505
 31
0
  0
LINE
  5
AD0
330
A02
100
AcDbEntity
  8
Shape2DView
100
AcDbLine
 10
-32.9398
 20
-234.505
 30
0
 11
-37.5588
 21
-234.505
 31
0
  0
LINE
  5
AD1
330
A02
100
AcDbEntity
  8
Shape2DView
100
AcDbLine
 10
-32.9398
 20
-226.505
 30
0
 11
-30.63
 21
-230.505
 31
0
  0
LINE
  5
AD2
330
A02
100
AcDbEntity
  8
Shape2DView
100
AcDbLine
 10
-30.63
 20
-230.505
 30
0
 11
-32.9398
 21
-234.505
 31
0
  0
LINE
  5
AD3
330
A02
100
AcDbEntity
  8
Shape2DView
100
AcDbLine
 10
-24.8686
 20
-230.505
 30
0
 11
-22.5588
 21
-226.505
 31
0
  0
LINE
  5
AD4
330
A02
100
AcDbEntity
  8
Shape2DView
100
AcDbLine
 10
-22.5588
 20
-234.505
 30
0
 11
-24.8686
 21
-230.505
 31
0
  0
LINE
  5
AD5
330
A02
100
AcDbEntity
  8
Shape2DView
100
AcDbLine
 10
-22.5588
 20
-226.505
 30
0
 11
-17.9398
 21
-226.505
 31
0
  0
LINE
  5
AD6
330
A02
100
AcDbEntity
  8
Shape2DView
100
AcDbLine
 10
-17.9398
 20
-234.505
 30
0
 11
-22.5588
 21
-234.505
 31
0
  0
LINE
  5
AD7
330
A02
100
AcDbEntity
  8
Shape2DView
100
AcDbLine
 10
-17.9398
 20
-226.505
 30
0
 11
-15.63
 21
-230.505
 31
0
  0
LINE
  5
AD8
330
A02
100
AcDbEntity
  8
Shape2DView
100
AcDbLine
 10
-15.63
 20
-230.505
 30
0
 11
-17.9398
 21
-234.505
 31
0
  0
LINE
  5
AD9
330
A02
100
AcDbEntity
  8
Shape2DView
100
AcDbLine
 10
-9.86859
 20
-230.505
 30
0
 11
-7.5588
 21
-226.505
 31
0
  0
LINE
  5
ADA
330
A02
100
AcDbEntity
  8
Shape2DView
100
AcDbLine
 10
-7.5588
 20
-234.505
 30
0
 11
-9.86859
 21
-230.505
 31
0
  0
LINE
  5
ADB
330
A02
100
AcDbEntity
  8
Shape2DView
100
AcDbLine
 10
-7.5588
 20
-226.505
 30
0
 11
-2.9398
 21
-226.505
 31
0
  0
LINE
  5
ADC
330
A02
100
AcDbEntity
  8
Shape2DView
100
AcDbLine
 10
-2.9398
 20
-234.505
 30
0
 11
-7.5588
 21
-234.505
 31
0
  0
LINE
  5
ADD
330
A02
100
AcDbEntity
  8
Shape2DView
100
AcDbLine
 10
-2.9398
 20
-226.505
 30
0
 11
-0.63
 21
-230.505
 31
0
  0
LINE
  5
ADE
330
A02
100
AcDbEntity
  8
Shape2DView
100
AcDbLine
 10
-0.63
 20
-230.505
 30
0
 11
-2.9398
 21
-234.505
 31
0
  0
LINE
  5
ADF
330
A02
100
AcDbEntity
  8
Shape2DView
100
AcDbLine
 10
-39.8686
 20
-215.505
 30
0
 11
-37.5588
 21
-211.505
 31
0
  0
LINE
  5
AE0
330
A02
100
AcDbEntity
  8
Shape2DView
100
AcDbLine
 10
-37.5588
 20
-219.505
 30
0
 11
-39.8686
 21
-215.505
 31
0
  0
LINE
  5
AE1
330
A02
100
AcDbEntity
  8
Shape2DView
100
AcDbLine
 10
-37.5588
 20
-211.505
 30
0
 11
-32.9398
 21
-211.505
 31
0
  0
LINE
  5
AE2
330
A02
100
AcDbEntity
  8
Shape2DView
100
AcDbLine
 10
-32.9398
 20
-219.505
 30
0
 11
-37.5588
 21
-219.505
 31
0
  0
LINE
  5
AE3
330
A02
100
AcDbEntity
  8
Shape2DView
100
AcDbLine
 10
-32.9398
 20
-211.505
 30
0
 11
-30.63
 21
-215.505
 31
0
  0
LINE
  5
AE4
330
A02
100
AcDbEntity
  8
Shape2DView
100
AcDbLine
 10
-30.63
 20
-215.505
 30
0
 11
-32.9398
 21
-219.505
 31
0
  0
LINE
  5
AE5
330
A02
100
AcDbEntity
  8
Shape2DView
100
AcDbLine
 10
-24.8686
 20
-215.505
 30
0
 11
-22.5588
 21
-211.505
 31
0
  0
LINE
  5
AE6
330
A02
100
AcDbEntity
  8
Shape2DView
100
AcDbLine
 10
-22.5588
 20
-219.505
 30
0
 11
-24.8686
 21
-215.505
 31
0
  0
LINE
  5
AE7
330
A02
100
AcDbEntity
  8
Shape2DView
100
AcDbLine
 10
-22.5588
 20
-211.505
 30
0
 11
-17.9398
 21
-211.505
 31
0
  0
LINE
  5
AE8
330
A02
100
AcDbEntity
  8
Shape2DView
100
AcDbLine
 10
-17.9398
 20
-219.505
 30
0
 11
-22.5588
 21
-219.505
 31
0
  0
LINE
  5
AE9
330
A02
100
AcDbEntity
  8
Shape2DView
100
AcDbLine
 10
-17.9398
 20
-211.505
 30
0
 11
-15.63
 21
-215.505
 31
0
  0
LINE
  5
AEA
330
A02
100
AcDbEntity
  8
Shape2DView
100
AcDbLine
 10
-15.63
 20
-215.505
 30
0
 11
-17.9398
 21
-219.505
 31
0
  0
LINE
  5
AEB
330
A02
100
AcDbEntity
  8
Shape2DView
100
AcDbLine
 10
-9.86859
 20
-215.505
 30
0
 11
-7.5588
 21
-211.505
 31
0
  0
LINE
  5
AEC
330
A02
100
AcDbEntity
  8
Shape2DView
100
AcDbLine
 10
-7.5588
 20
-219.505
 30
0
 11
-9.86859
 21
-215.505
 31
0
  0
LINE
  5
AED
330
A02
100
AcDbEntity
  8
Shape2DView
100
AcDbLine
 10
-7.5588
 20
-211.505
 30
0
 11
-2.9398
 21
-211.505
 31
0
  0
LINE
  5
AEE
330
A02
100
AcDbEntity
  8
Shape2DView
100
AcDbLine
 10
-2.9398
 20
-219.505
 30
0
 11
-7.5588
 21
-219.505
 31
0
  0
LINE
  5
AEF
330
A02
100
AcDbEntity
  8
Shape2DView
100
AcDbLine
 10
-2.9398
 20
-211.505
 30
0
 11
-0.63
 21
-215.505
 31
0
  0
LINE
  5
AF0
330
A02
100
AcDbEntity
  8
Shape2DView
100
AcDbLine
 10
-0.63
 20
-215.505
 30
0
 11
-2.9398
 21
-219.505
 31
0
  0
LINE
  5
AF1
330
A02
100
AcDbEntity
  8
Shape2DView
100
AcDbLine
 10
5.13141
 20
-290.505
 30
0
 11
7.4412
 21
-286.505
 31
0
  0
LINE
  5
AF2
330
A02
100
AcDbEntity
  8
Shape2DView
100
AcDbLine
 10
7.4412
 20
-294.505
 30
0
 11
5.13141
 21
-290.505
 31
0
  0
LINE
  5
AF3
330
A02
100
AcDbEntity
  8
Shape2DView
100
AcDbLine
 10
7.4412
 20
-286.505
 30
0
 11
12.0602
 21
-286.505
 31
0
  0
LINE
  5
AF4
330
A02
100
AcDbEntity
  8
Shape2DView
100
AcDbLine
 10
12.0602
 20
-294.505
 30
0
 11
7.4412
 21
-294.505
 31
0
  0
LINE
  5
AF5
330
A02
100
AcDbEntity
  8
Shape2DView
100
AcDbLine
 10
12.0602
 20
-286.505
 30
0
 11
14.37
 21
-290.505
 31
0
  0
LINE
  5
AF6
330
A02
100
AcDbEntity
  8
Shape2DView
100
AcDbLine
 10
14.37
 20
-290.505
 30
0
 11
12.0602
 21
-294.505
 31
0
  0
LINE
  5
AF7
330
A02
100
AcDbEntity
  8
Shape2DView
100
AcDbLine
 10
20.1314
 20
-290.505
 30
0
 11
22.4412
 21
-286.505
 31
0
  0
LINE
  5
AF8
330
A02
100
AcDbEntity
  8
Shape2DView
100
AcDbLine
 10
22.4412
 20
-294.505
 30
0
 11
20.1314
 21
-290.505
 31
0
  0
LINE
  5
AF9
330
A02
100
AcDbEntity
  8
Shape2DView
100
AcDbLine
 10
22.4412
 20
-286.505
 30
0
 11
27.0602
 21
-286.505
 31
0
  0
LINE
  5
AFA
330
A02
100
AcDbEntity
  8
Shape2DView
100
AcDbLine
 10
27.0602
 20
-294.505
 30
0
 11
22.4412
 21
-294.505
 31
0
  0
LINE
  5
AFB
330
A02
100
AcDbEntity
  8
Shape2DView
100
AcDbLine
 10
27.0602
 20
-286.505
 30
0
 11
29.37
 21
-290.505
 31
0
  0
LINE
  5
AFC
330
A02
100
AcDbEntity
  8
Shape2DView
100
AcDbLine
 10
29.37
 20
-290.505
 30
0
 11
27.0602
 21
-294.505
 31
0
  0
LINE
  5
AFD
330
A02
100
AcDbEntity
  8
Shape2DView
100
AcDbLine
 10
35.1314
 20
-290.505
 30
0
 11
37.4412
 21
-286.505
 31
0
  0
LINE
  5
AFE
330
A02
100
AcDbEntity
  8
Shape2DView
100
AcDbLine
 10
37.4412
 20
-294.505
 30
0
 11
35.1314
 21
-290.505
 31
0
  0
LINE
  5
AFF
330
A02
100
AcDbEntity
  8
Shape2DView
100
AcDbLine
 10
37.4412
 20
-286.505
 30
0
 11
42.0602
 21
-286.505
 31
0
  0
LINE
  5
B00
330
A02
100
AcDbEntity
  8
Shape2DView
100
AcDbLine
 10
42.0602
 20
-294.505
 30
0
 11
37.4412
 21
-294.505
 31
0
  0
LINE
  5
B01
330
A02
100
AcDbEntity
  8
Shape2DView
100
AcDbLine
 10
42.0602
 20
-286.505
 30
0
 11
44.37
 21
-290.505
 31
0
  0
LINE
  5
B02
330
A02
100
AcDbEntity
  8
Shape2DView
100
AcDbLine
 10
44.37
 20
-290.505
 30
0
 11
42.0602
 21
-294.505
 31
0
  0
LINE
  5
B03
330
A02
100
AcDbEntity
  8
Shape2DView
100
AcDbLine
 10
56.9702
 20
-286.505
 30
0
 11
52.3512
 21
-286.505
 31
0
  0
LINE
  5
B04
330
A02
100
AcDbEntity
  8
Shape2DView
100
AcDbLine
 10
59.28
 20
-290.505
 30
0
 11
56.9702
 21
-286.505
 31
0
  0
LINE
  5
B05
330
A02
100
AcDbEntity
  8
Shape2DView
100
AcDbLine
 10
52.3512
 20
-286.505
 30
0
 11
50.0414
 21
-290.505
 31
0
  0
LINE
  5
B06
330
A02
100
AcDbEntity
  8
Shape2DView
100
AcDbLine
 10
56.9702
 20
-294.505
 30
0
 11
59.28
 21
-290.505
 31
0
  0
LINE
  5
B07
330
A02
100
AcDbEntity
  8
Shape2DView
100
AcDbLine
 10
50.0414
 20
-290.505
 30
0
 11
52.3512
 21
-294.505
 31
0
  0
LINE
  5
B08
330
A02
100
AcDbEntity
  8
Shape2DView
100
AcDbLine
 10
52.3512
 20
-294.505
 30
0
 11
56.9702
 21
-294.505
 31
0
  0
LINE
  5
B09
330
A02
100
AcDbEntity
  8
Shape2DView
100
AcDbLine
 10
71.9702
 20
-286.505
 30
0
 11
67.3512
 21
-286.505
 31
0
  0
LINE
  5
B0A
330
A02
100
AcDbEntity
  8
Shape2DView
100
AcDbLine
 10
74.28
 20
-290.505
 30
0
 11
71.9702
 21
-286.505
 31
0
  0
LINE
  5
B0B
330
A02
100
AcDbEntity
  8
Shape2DView
100
AcDbLine
 10
67.3512
 20
-286.505
 30
0
 11
65.0414
 21
-290.505
 31
0
  0
LINE
  5
B0C
330
A02
100
AcDbEntity
  8
Shape2DView
100
AcDbLine
 10
71.9702
 20
-294.505
 30
0
 11
74.28
 21
-290.505
 31
0
  0
LINE
  5
B0D
330
A02
100
AcDbEntity
  8
Shape2DView
100
AcDbLine
 10
65.0414
 20
-290.505
 30
0
 11
67.3512
 21
-294.505
 31
0
  0
LINE
  5
B0E
330
A02
100
AcDbEntity
  8
Shape2DView
100
AcDbLine
 10
67.3512
 20
-294.505
 30
0
 11
71.9702
 21
-294.505
 31
0
  0
LINE
  5
B0F
330
A02
100
AcDbEntity
  8
Shape2DView
100
AcDbLine
 10
86.9702
 20
-286.505
 30
0
 11
82.3512
 21
-286.505
 31
0
  0
LINE
  5
B10
330
A02
100
AcDbEntity
  8
Shape2DView
100
AcDbLine
 10
89.28
 20
-290.505
 30
0
 11
86.9702
 21
-286.505
 31
0
  0
LINE
  5
B11
330
A02
100
AcDbEntity
  8
Shape2DView
100
AcDbLine
 10
82.3512
 20
-286.505
 30
0
 11
80.0414
 21
-290.505
 31
0
  0
LINE
  5
B12
330
A02
100
AcDbEntity
  8
Shape2DView
100
AcDbLine
 10
86.9702
 20
-294.505
 30
0
 11
89.28
 21
-290.505
 31
0
  0
LINE
  5
B13
330
A02
100
AcDbEntity
  8
Shape2DView
100
AcDbLine
 10
80.0414
 20
-290.505
 30
0
 11
82.3512
 21
-294.505
 31
0
  0
LINE
  5
B14
330
A02
100
AcDbEntity
  8
Shape2DView
100
AcDbLine
 10
82.3512
 20
-294.505
 30
0
 11
86.9702
 21
-294.505
 31
0
  0
LINE
  5
B15
330
A02
100
AcDbEntity
  8
Shape2DView
100
AcDbLine
 10
5.13141
 20
-275.505
 30
0
 11
7.4412
 21
-271.505
 31
0
  0
LINE
  5
B16
330
A02
100
AcDbEntity
  8
Shape2DView
100
AcDbLine
 10
7.4412
 20
-279.505
 30
0
 11
5.13141
 21
-275.505
 31
0
  0
LINE
  5
B17
330
A02
100
AcDbEntity
  8
Shape2DView
100
AcDbLine
 10
7.4412
 20
-271.505
 30
0
 11
12.0602
 21
-271.505
 31
0
  0
LINE
  5
B18
330
A02
100
AcDbEntity
  8
Shape2DView
100
AcDbLine
 10
12.0602
 20
-279.505
 30
0
 11
7.4412
 21
-279.505
 31
0
  0
LINE
  5
B19
330
A02
100
AcDbEntity
  8
Shape2DView
100
AcDbLine
 10
12.0602
 20
-271.505
 30
0
 11
14.37
 21
-275.505
 31
0
  0
LINE
  5
B1A
330
A02
100
AcDbEntity
  8
Shape2DView
100
AcDbLine
 10
14.37
 20
-275.505
 30
0
 11
12.0602
 21
-279.505
 31
0
  0
LINE
  5
B1B
330
A02
100
AcDbEntity
  8
Shape2DView
100
AcDbLine
 10
20.1314
 20
-275.505
 30
0
 11
22.4412
 21
-271.505
 31
0
  0
LINE
  5
B1C
330
A02
100
AcDbEntity
  8
Shape2DView
100
AcDbLine
 10
22.4412
 20
-279.505
 30
0
 11
20.1314
 21
-275.505
 31
0
  0
LINE
  5
B1D
330
A02
100
AcDbEntity
  8
Shape2DView
100
AcDbLine
 10
22.4412
 20
-271.505
 30
0
 11
27.0602
 21
-271.505
 31
0
  0
LINE
  5
B1E
330
A02
100
AcDbEntity
  8
Shape2DView
100
AcDbLine
 10
27.0602
 20
-279.505
 30
0
 11
22.4412
 21
-279.505
 31
0
  0
LINE
  5
B1F
330
A02
100
AcDbEntity
  8
Shape2DView
100
AcDbLine
 10
27.0602
 20
-271.505
 30
0
 11
29.37
 21
-275.505
 31
0
  0
LINE
  5
B20
330
A02
100
AcDbEntity
  8
Shape2DView
100
AcDbLine
 10
29.37
 20
-275.505
 30
0
 11
27.0602
 21
-279.505
 31
0
  0
LINE
  5
B21
330
A02
100
AcDbEntity
  8
Shape2DView
100
AcDbLine
 10
35.1314
 20
-275.505
 30
0
 11
37.4412
 21
-271.505
 31
0
  0
LINE
  5
B22
330
A02
100
AcDbEntity
  8
Shape2DView
100
AcDbLine
 10
37.4412
 20
-279.505
 30
0
 11
35.1314
 21
-275.505
 31
0
  0
LINE
  5
B23
330
A02
100
AcDbEntity
  8
Shape2DView
100
AcDbLine
 10
37.4412
 20
-271.505
 30
0
 11
42.0602
 21
-271.505
 31
0
  0
LINE
  5
B24
330
A02
100
AcDbEntity
  8
Shape2DView
100
AcDbLine
 10
42.0602
 20
-279.505
 30
0
 11
37.4412
 21
-279.505
 31
0
  0
LINE
  5
B25
330
A02
100
AcDbEntity
  8
Shape2DView
100
AcDbLine
 10
42.0602
 20
-271.505
 30
0
 11
44.37
 21
-275.505
 31
0
  0
LINE
  5
B26
330
A02
100
AcDbEntity
  8
Shape2DView
100
AcDbLine
 10
44.37
 20
-275.505
 30
0
 11
42.0602
 21
-279.505
 31
0
  0
LINE
  5
B27
330
A02
100
AcDbEntity
  8
Shape2DView
100
AcDbLine
 10
5.13141
 20
-260.505
 30
0
 11
7.4412
 21
-256.505
 31
0
  0
LINE
  5
B28
330
A02
100
AcDbEntity
  8
Shape2DView
100
AcDbLine
 10
7.4412
 20
-264.505
 30
0
 11
5.13141
 21
-260.505
 31
0
  0
LINE
  5
B29
330
A02
100
AcDbEntity
  8
Shape2DView
100
AcDbLine
 10
7.4412
 20
-256.505
 30
0
 11
12.0602
 21
-256.505
 31
0
  0
LINE
  5
B2A
330
A02
100
AcDbEntity
  8
Shape2DView
100
AcDbLine
 10
12.0602
 20
-264.505
 30
0
 11
7.4412
 21
-264.505
 31
0
  0
LINE
  5
B2B
330
A02
100
AcDbEntity
  8
Shape2DView
100
AcDbLine
 10
12.0602
 20
-256.505
 30
0
 11
14.37
 21
-260.505
 31
0
  0
LINE
  5
B2C
330
A02
100
AcDbEntity
  8
Shape2DView
100
AcDbLine
 10
14.37
 20
-260.505
 30
0
 11
12.0602
 21
-264.505
 31
0
  0
LINE
  5
B2D
330
A02
100
AcDbEntity
  8
Shape2DView
100
AcDbLine
 10
20.1314
 20
-260.505
 30
0
 11
22.4412
 21
-256.505
 31
0
  0
LINE
  5
B2E
330
A02
100
AcDbEntity
  8
Shape2DView
100
AcDbLine
 10
22.4412
 20
-264.505
 30
0
 11
20.1314
 21
-260.505
 31
0
  0
LINE
  5
B2F
330
A02
100
AcDbEntity
  8
Shape2DView
100
AcDbLine
 10
22.4412
 20
-256.505
 30
0
 11
27.0602
 21
-256.505
 31
0
  0
LINE
  5
B30
330
A02
100
AcDbEntity
  8
Shape2DView
100
AcDbLine
 10
27.0602
 20
-264.505
 30
0
 11
22.4412
 21
-264.505
 31
0
  0
LINE
  5
B31
330
A02
100
AcDbEntity
  8
Shape2DView
100
AcDbLine
 10
27.0602
 20
-256.505
 30
0
 11
29.37
 21
-260.505
 31
0
  0
LINE
  5
B32
330
A02
100
AcDbEntity
  8
Shape2DView
100
AcDbLine
 10
29.37
 20
-260.505
 30
0
 11
27.0602
 21
-264.505
 31
0
  0
LINE
  5
B33
330
A02
100
AcDbEntity
  8
Shape2DView
100
AcDbLine
 10
35.1314
 20
-260.505
 30
0
 11
37.4412
 21
-256.505
 31
0
  0
LINE
  5
B34
330
A02
100
AcDbEntity
  8
Shape2DView
100
AcDbLine
 10
37.4412
 20
-264.505
 30
0
 11
35.1314
 21
-260.505
 31
0
  0
LINE
  5
B35
330
A02
100
AcDbEntity
  8
Shape2DView
100
AcDbLine
 10
37.4412
 20
-256.505
 30
0
 11
42.0602
 21
-256.505
 31
0
  0
LINE
  5
B36
330
A02
100
AcDbEntity
  8
Shape2DView
100
AcDbLine
 10
42.0602
 20
-264.505
 30
0
 11
37.4412
 21
-264.505
 31
0
  0
LINE
  5
B37
330
A02
100
AcDbEntity
  8
Shape2DView
100
AcDbLine
 10
42.0602
 20
-256.505
 30
0
 11
44.37
 21
-260.505
 31
0
  0
LINE
  5
B38
330
A02
100
AcDbEntity
  8
Shape2DView
100
AcDbLine
 10
44.37
 20
-260.505
 30
0
 11
42.0602
 21
-264.505
 31
0
  0
LINE
  5
B39
330
A02
100
AcDbEntity
  8
Shape2DView
100
AcDbLine
 10
56.9702
 20
-271.505
 30
0
 11
52.3512
 21
-271.505
 31
0
  0
LINE
  5
B3A
330
A02
100
AcDbEntity
  8
Shape2DView
100
AcDbLine
 10
59.28
 20
-275.505
 30
0
 11
56.9702
 21
-271.505
 31
0
  0
LINE
  5
B3B
330
A02
100
AcDbEntity
  8
Shape2DView
100
AcDbLine
 10
52.3512
 20
-271.505
 30
0
 11
50.0414
 21
-275.505
 31
0
  0
LINE
  5
B3C
330
A02
100
AcDbEntity
  8
Shape2DView
100
AcDbLine
 10
56.9702
 20
-279.505
 30
0
 11
59.28
 21
-275.505
 31
0
  0
LINE
  5
B3D
330
A02
100
AcDbEntity
  8
Shape2DView
100
AcDbLine
 10
50.0414
 20
-275.505
 30
0
 11
52.3512
 21
-279.505
 31
0
  0
LINE
  5
B3E
330
A02
100
AcDbEntity
  8
Shape2DView
100
AcDbLine
 10
52.3512
 20
-279.505
 30
0
 11
56.9702
 21
-279.505
 31
0
  0
LINE
  5
B3F
330
A02
100
AcDbEntity
  8
Shape2DView
100
AcDbLine
 10
71.9702
 20
-271.505
 30
0
 11
67.3512
 21
-271.505
 31
0
  0
LINE
  5
B40
330
A02
100
AcDbEntity
  8
Shape2DView
100
AcDbLine
 10
74.28
 20
-275.505
 30
0
 11
71.9702
 21
-271.505
 31
0
  0
LINE
  5
B41
330
A02
100
AcDbEntity
  8
Shape2DView
100
AcDbLine
 10
67.3512
 20
-271.505
 30
0
 11
65.0414
 21
-275.505
 31
0
  0
LINE
  5
B42
330
A02
100
AcDbEntity
  8
Shape2DView
100
AcDbLine
 10
71.9702
 20
-279.505
 30
0
 11
74.28
 21
-275.505
 31
0
  0
LINE
  5
B43
330
A02
100
AcDbEntity
  8
Shape2DView
100
AcDbLine
 10
65.0414
 20
-275.505
 30
0
 11
67.3512
 21
-279.505
 31
0
  0
LINE
  5
B44
330
A02
100
AcDbEntity
  8
Shape2DView
100
AcDbLine
 10
67.3512
 20
-279.505
 30
0
 11
71.9702
 21
-279.505
 31
0
  0
LINE
  5
B45
330
A02
100
AcDbEntity
  8
Shape2DView
100
AcDbLine
 10
86.9702
 20
-271.505
 30
0
 11
82.3512
 21
-271.505
 31
0
  0
LINE
  5
B46
330
A02
100
AcDbEntity
  8
Shape2DView
100
AcDbLine
 10
89.28
 20
-275.505
 30
0
 11
86.9702
 21
-271.505
 31
0
  0
LINE
  5
B47
330
A02
100
AcDbEntity
  8
Shape2DView
100
AcDbLine
 10
82.3512
 20
-271.505
 30
0
 11
80.0414
 21
-275.505
 31
0
  0
LINE
  5
B48
330
A02
100
AcDbEntity
  8
Shape2DView
100
AcDbLine
 10
86.9702
 20
-279.505
 30
0
 11
89.28
 21
-275.505
 31
0
  0
LINE
  5
B49
330
A02
100
AcDbEntity
  8
Shape2DView
100
AcDbLine
 10
80.0414
 20
-275.505
 30
0
 11
82.3512
 21
-279.505
 31
0
  0
LINE
  5
B4A
330
A02
100
AcDbEntity
  8
Shape2DView
100
AcDbLine
 10
82.3512
 20
-279.505
 30
0
 11
86.9702
 21
-279.505
 31
0
  0
LINE
  5
B4B
330
A02
100
AcDbEntity
  8
Shape2DView
100
AcDbLine
 10
56.9702
 20
-256.505
 30
0
 11
52.3512
 21
-256.505
 31
0
  0
LINE
  5
B4C
330
A02
100
AcDbEntity
  8
Shape2DView
100
AcDbLine
 10
59.28
 20
-260.505
 30
0
 11
56.9702
 21
-256.505
 31
0
  0
LINE
  5
B4D
330
A02
100
AcDbEntity
  8
Shape2DView
100
AcDbLine
 10
52.3512
 20
-256.505
 30
0
 11
50.0414
 21
-260.505
 31
0
  0
LINE
  5
B4E
330
A02
100
AcDbEntity
  8
Shape2DView
100
AcDbLine
 10
56.9702
 20
-264.505
 30
0
 11
59.28
 21
-260.505
 31
0
  0
LINE
  5
B4F
330
A02
100
AcDbEntity
  8
Shape2DView
100
AcDbLine
 10
50.0414
 20
-260.505
 30
0
 11
52.3512
 21
-264.505
 31
0
  0
LINE
  5
B50
330
A02
100
AcDbEntity
  8
Shape2DView
100
AcDbLine
 10
52.3512
 20
-264.505
 30
0
 11
56.9702
 21
-264.505
 31
0
  0
LINE
  5
B51
330
A02
100
AcDbEntity
  8
Shape2DView
100
AcDbLine
 10
71.9702
 20
-256.505
 30
0
 11
67.3512
 21
-256.505
 31
0
  0
LINE
  5
B52
330
A02
100
AcDbEntity
  8
Shape2DView
100
AcDbLine
 10
74.28
 20
-260.505
 30
0
 11
71.9702
 21
-256.505
 31
0
  0
LINE
  5
B53
330
A02
100
AcDbEntity
  8
Shape2DView
100
AcDbLine
 10
67.3512
 20
-256.505
 30
0
 11
65.0414
 21
-260.505
 31
0
  0
LINE
  5
B54
330
A02
100
AcDbEntity
  8
Shape2DView
100
AcDbLine
 10
71.9702
 20
-264.505
 30
0
 11
74.28
 21
-260.505
 31
0
  0
LINE
  5
B55
330
A02
100
AcDbEntity
  8
Shape2DView
100
AcDbLine
 10
65.0414
 20
-260.505
 30
0
 11
67.3512
 21
-264.505
 31
0
  0
LINE
  5
B56
330
A02
100
AcDbEntity
  8
Shape2DView
100
AcDbLine
 10
67.3512
 20
-264.505
 30
0
 11
71.9702
 21
-264.505
 31
0
  0
LINE
  5
B57
330
A02
100
AcDbEntity
  8
Shape2DView
100
AcDbLine
 10
86.9702
 20
-256.505
 30
0
 11
82.3512
 21
-256.505
 31
0
  0
LINE
  5
B58
330
A02
100
AcDbEntity
  8
Shape2DView
100
AcDbLine
 10
89.28
 20
-260.505
 30
0
 11
86.9702
 21
-256.505
 31
0
  0
LINE
  5
B59
330
A02
100
AcDbEntity
  8
Shape2DView
100
AcDbLine
 10
82.3512
 20
-256.505
 30
0
 11
80.0414
 21
-260.505
 31
0
  0
LINE
  5
B5A
330
A02
100
AcDbEntity
  8
Shape2DView
100
AcDbLine
 10
86.9702
 20
-264.505
 30
0
 11
89.28
 21
-260.505
 31
0
  0
LINE
  5
B5B
330
A02
100
AcDbEntity
  8
Shape2DView
100
AcDbLine
 10
80.0414
 20
-260.505
 30
0
 11
82.3512
 21
-264.505
 31
0
  0
LINE
  5
B5C
330
A02
100
AcDbEntity
  8
Shape2DView
100
AcDbLine
 10
82.3512
 20
-264.505
 30
0
 11
86.9702
 21
-264.505
 31
0
  0
LINE
  5
B5D
330
A02
100
AcDbEntity
  8
Shape2DView
100
AcDbLine
 10
101.97
 20
-286.505
 30
0
 11
97.3512
 21
-286.505
 31
0
  0
LINE
  5
B5E
330
A02
100
AcDbEntity
  8
Shape2DView
100
AcDbLine
 10
104.28
 20
-290.505
 30
0
 11
101.97
 21
-286.505
 31
0
  0
LINE
  5
B5F
330
A02
100
AcDbEntity
  8
Shape2DView
100
AcDbLine
 10
97.3512
 20
-286.505
 30
0
 11
95.0414
 21
-290.505
 31
0
  0
LINE
  5
B60
330
A02
100
AcDbEntity
  8
Shape2DView
100
AcDbLine
 10
101.97
 20
-294.505
 30
0
 11
104.28
 21
-290.505
 31
0
  0
LINE
  5
B61
330
A02
100
AcDbEntity
  8
Shape2DView
100
AcDbLine
 10
95.0414
 20
-290.505
 30
0
 11
97.3512
 21
-294.505
 31
0
  0
LINE
  5
B62
330
A02
100
AcDbEntity
  8
Shape2DView
100
AcDbLine
 10
97.3512
 20
-294.505
 30
0
 11
101.97
 21
-294.505
 31
0
  0
LINE
  5
B63
330
A02
100
AcDbEntity
  8
Shape2DView
100
AcDbLine
 10
116.97
 20
-286.505
 30
0
 11
112.351
 21
-286.505
 31
0
  0
LINE
  5
B64
330
A02
100
AcDbEntity
  8
Shape2DView
100
AcDbLine
 10
119.28
 20
-290.505
 30
0
 11
116.97
 21
-286.505
 31
0
  0
LINE
  5
B65
330
A02
100
AcDbEntity
  8
Shape2DView
100
AcDbLine
 10
112.351
 20
-286.505
 30
0
 11
110.041
 21
-290.505
 31
0
  0
LINE
  5
B66
330
A02
100
AcDbEntity
  8
Shape2DView
100
AcDbLine
 10
116.97
 20
-294.505
 30
0
 11
119.28
 21
-290.505
 31
0
  0
LINE
  5
B67
330
A02
100
AcDbEntity
  8
Shape2DView
100
AcDbLine
 10
110.041
 20
-290.505
 30
0
 11
112.351
 21
-294.505
 31
0
  0
LINE
  5
B68
330
A02
100
AcDbEntity
  8
Shape2DView
100
AcDbLine
 10
112.351
 20
-294.505
 30
0
 11
116.97
 21
-294.505
 31
0
  0
LINE
  5
B69
330
A02
100
AcDbEntity
  8
Shape2DView
100
AcDbLine
 10
131.97
 20
-286.505
 30
0
 11
127.351
 21
-286.505
 31
0
  0
LINE
  5
B6A
330
A02
100
AcDbEntity
  8
Shape2DView
100
AcDbLine
 10
134.28
 20
-290.505
 30
0
 11
131.97
 21
-286.505
 31
0
  0
LINE
  5
B6B
330
A02
100
AcDbEntity
  8
Shape2DView
100
AcDbLine
 10
127.351
 20
-286.505
 30
0
 11
125.041
 21
-290.505
 31
0
  0
LINE
  5
B6C
330
A02
100
AcDbEntity
  8
Shape2DView
100
AcDbLine
 10
131.97
 20
-294.505
 30
0
 11
134.28
 21
-290.505
 31
0
  0
LINE
  5
B6D
330
A02
100
AcDbEntity
  8
Shape2DView
100
AcDbLine
 10
125.041
 20
-290.505
 30
0
 11
127.351
 21
-294.505
 31
0
  0
LINE
  5
B6E
330
A02
100
AcDbEntity
  8
Shape2DView
100
AcDbLine
 10
127.351
 20
-294.505
 30
0
 11
131.97
 21
-294.505
 31
0
  0
LINE
  5
B6F
330
A02
100
AcDbEntity
  8
Shape2DView
100
AcDbLine
 10
146.97
 20
-286.505
 30
0
 11
142.351
 21
-286.505
 31
0
  0
LINE
  5
B70
330
A02
100
AcDbEntity
  8
Shape2DView
100
AcDbLine
 10
149.28
 20
-290.505
 30
0
 11
146.97
 21
-286.505
 31
0
  0
LINE
  5
B71
330
A02
100
AcDbEntity
  8
Shape2DView
100
AcDbLine
 10
142.351
 20
-286.505
 30
0
 11
140.041
 21
-290.505
 31
0
  0
LINE
  5
B72
330
A02
100
AcDbEntity
  8
Shape2DView
100
AcDbLine
 10
146.97
 20
-294.505
 30
0
 11
149.28
 21
-290.505
 31
0
  0
LINE
  5
B73
330
A02
100
AcDbEntity
  8
Shape2DView
100
AcDbLine
 10
140.041
 20
-290.505
 30
0
 11
142.351
 21
-294.505
 31
0
  0
LINE
  5
B74
330
A02
100
AcDbEntity
  8
Shape2DView
100
AcDbLine
 10
142.351
 20
-294.505
 30
0
 11
146.97
 21
-294.505
 31
0
  0
CIRCLE
  5
B75
330
A02
100
AcDbEntity
  8
Shape2DView
100
AcDbCircle
 10
195
 20
-305.87
 40
4
  0
LINE
  5
B76
330
A02
100
AcDbEntity
  8
Shape2DView
100
AcDbLine
 10
161.88
 20
-294.505
 30
0
 11
157.261
 21
-294.505
 31
0
  0
LINE
  5
B77
330
A02
100
AcDbEntity
  8
Shape2DView
100
AcDbLine
 10
164.19
 20
-290.505
 30
0
 11
161.88
 21
-294.505
 31
0
  0
LINE
  5
B78
330
A02
100
AcDbEntity
  8
Shape2DView
100
AcDbLine
 10
157.261
 20
-294.505
 30
0
 11
154.951
 21
-290.505
 31
0
  0
LINE
  5
B79
330
A02
100
AcDbEntity
  8
Shape2DView
100
AcDbLine
 10
161.88
 20
-286.505
 30
0
 11
164.19
 21
-290.505
 31
0
  0
LINE
  5
B7A
330
A02
100
AcDbEntity
  8
Shape2DView
100
AcDbLine
 10
154.951
 20
-290.505
 30
0
 11
157.261
 21
-286.505
 31
0
  0
LINE
  5
B7B
330
A02
100
AcDbEntity
  8
Shape2DView
100
AcDbLine
 10
157.261
 20
-286.505
 30
0
 11
161.88
 21
-286.505
 31
0
  0
LINE
  5
B7C
330
A02
100
AcDbEntity
  8
Shape2DView
100
AcDbLine
 10
176.88
 20
-294.505
 30
0
 11
172.261
 21
-294.505
 31
0
  0
LINE
  5
B7D
330
A02
100
AcDbEntity
  8
Shape2DView
100
AcDbLine
 10
179.19
 20
-290.505
 30
0
 11
176.88
 21
-294.505
 31
0
  0
LINE
  5
B7E
330
A02
100
AcDbEntity
  8
Shape2DView
100
AcDbLine
 10
172.261
 20
-294.505
 30
0
 11
169.951
 21
-290.505
 31
0
  0
LINE
  5
B7F
330
A02
100
AcDbEntity
  8
Shape2DView
100
AcDbLine
 10
176.88
 20
-286.505
 30
0
 11
179.19
 21
-290.505
 31
0
  0
LINE
  5
B80
330
A02
100
AcDbEntity
  8
Shape2DView
100
AcDbLine
 10
169.951
 20
-290.505
 30
0
 11
172.261
 21
-286.505
 31
0
  0
LINE
  5
B81
330
A02
100
AcDbEntity
  8
Shape2DView
100
AcDbLine
 10
172.261
 20
-286.505
 30
0
 11
176.88
 21
-286.505
 31
0
  0
LINE
  5
B82
330
A02
100
AcDbEntity
  8
Shape2DView
100
AcDbLine
 10
101.97
 20
-271.505
 30
0
 11
97.3512
 21
-271.505
 31
0
  0
LINE
  5
B83
330
A02
100
AcDbEntity
  8
Shape2DView
100
AcDbLine
 10
104.28
 20
-275.505
 30
0
 11
101.97
 21
-271.505
 31
0
  0
LINE
  5
B84
330
A02
100
AcDbEntity
  8
Shape2DView
100
AcDbLine
 10
97.3512
 20
-271.505
 30
0
 11
95.0414
 21
-275.505
 31
0
  0
LINE
  5
B85
330
A02
100
AcDbEntity
  8
Shape2DView
100
AcDbLine
 10
101.97
 20
-279.505
 30
0
 11
104.28
 21
-275.505
 31
0
  0
LINE
  5
B86
330
A02
100
AcDbEntity
  8
Shape2DView
100
AcDbLine
 10
95.0414
 20
-275.505
 30
0
 11
97.3512
 21
-279.505
 31
0
  0
LINE
  5
B87
330
A02
100
AcDbEntity
  8
Shape2DView
100
AcDbLine
 10
97.3512
 20
-279.505
 30
0
 11
101.97
 21
-279.505
 31
0
  0
LINE
  5
B88
330
A02
100
AcDbEntity
  8
Shape2DView
100
AcDbLine
 10
116.97
 20
-271.505
 30
0
 11
112.351
 21
-271.505
 31
0
  0
LINE
  5
B89
330
A02
100
AcDbEntity
  8
Shape2DView
100
AcDbLine
 10
119.28
 20
-275.505
 30
0
 11
116.97
 21
-271.505
 31
0
  0
LINE
  5
B8A
330
A02
100
AcDbEntity
  8
Shape2DView
100
AcDbLine
 10
112.351
 20
-271.505
 30
0
 11
110.041
 21
-275.505
 31
0
  0
LINE
  5
B8B
330
A02
100
AcDbEntity
  8
Shape2DView
100
AcDbLine
 10
116.97
 20
-279.505
 30
0
 11
119.28
 21
-275.505
 31
0
  0
LINE
  5
B8C
330
A02
100
AcDbEntity
  8
Shape2DView
100
AcDbLine
 10
110.041
 20
-275.505
 30
0
 11
112.351
 21
-279.505
 31
0
  0
LINE
  5
B8D
330
A02
100
AcDbEntity
  8
Shape2DView
100
AcDbLine
 10
112.351
 20
-279.505
 30
0
 11
116.97
 21
-279.505
 31
0
  0
LINE
  5
B8E
330
A02
100
AcDbEntity
  8
Shape2DView
100
AcDbLine
 10
131.97
 20
-271.505
 30
0
 11
127.351
 21
-271.505
 31
0
  0
LINE
  5
B8F
330
A02
100
AcDbEntity
  8
Shape2DView
100
AcDbLine
 10
134.28
 20
-275.505
 30
0
 11
131.97
 21
-271.505
 31
0
  0
LINE
  5
B90
330
A02
100
AcDbEntity
  8
Shape2DView
100
AcDbLine
 10
127.351
 20
-271.505
 30
0
 11
125.041
 21
-275.505
 31
0
  0
LINE
  5
B91
330
A02
100
AcDbEntity
  8
Shape2DView
100
AcDbLine
 10
131.97
 20
-279.505
 30
0
 11
134.28
 21
-275.505
 31
0
  0
LINE
  5
B92
330
A02
100
AcDbEntity
  8
Shape2DView
100
AcDbLine
 10
125.041
 20
-275.505
 30
0
 11
127.351
 21
-279.505
 31
0
  0
LINE
  5
B93
330
A02
100
AcDbEntity
  8
Shape2DView
100
AcDbLine
 10
127.351
 20
-279.505
 30
0
 11
131.97
 21
-279.505
 31
0
  0
LINE
  5
B94
330
A02
100
AcDbEntity
  8
Shape2DView
100
AcDbLine
 10
146.97
 20
-271.505
 30
0
 11
142.351
 21
-271.505
 31
0
  0
LINE
  5
B95
330
A02
100
AcDbEntity
  8
Shape2DView
100
AcDbLine
 10
149.28
 20
-275.505
 30
0
 11
146.97
 21
-271.505
 31
0
  0
LINE
  5
B96
330
A02
100
AcDbEntity
  8
Shape2DView
100
AcDbLine
 10
142.351
 20
-271.505
 30
0
 11
140.041
 21
-275.505
 31
0
  0
LINE
  5
B97
330
A02
100
AcDbEntity
  8
Shape2DView
100
AcDbLine
 10
146.97
 20
-279.505
 30
0
 11
149.28
 21
-275.505
 31
0
  0
LINE
  5
B98
330
A02
100
AcDbEntity
  8
Shape2DView
100
AcDbLine
 10
140.041
 20
-275.505
 30
0
 11
142.351
 21
-279.505
 31
0
  0
LINE
  5
B99
330
A02
100
AcDbEntity
  8
Shape2DView
100
AcDbLine
 10
142.351
 20
-279.505
 30
0
 11
146.97
 21
-279.505
 31
0
  0
LINE
  5
B9A
330
A02
100
AcDbEntity
  8
Shape2DView
100
AcDbLine
 10
101.97
 20
-256.505
 30
0
 11
97.3512
 21
-256.505
 31
0
  0
LINE
  5
B9B
330
A02
100
AcDbEntity
  8
Shape2DView
100
AcDbLine
 10
104.28
 20
-260.505
 30
0
 11
101.97
 21
-256.505
 31
0
  0
LINE
  5
B9C
330
A02
100
AcDbEntity
  8
Shape2DView
100
AcDbLine
 10
97.3512
 20
-256.505
 30
0
 11
95.0414
 21
-260.505
 31
0
  0
LINE
  5
B9D
330
A02
100
AcDbEntity
  8
Shape2DView
100
AcDbLine
 10
101.97
 20
-264.505
 30
0
 11
104.28
 21
-260.505
 31
0
  0
LINE
  5
B9E
330
A02
100
AcDbEntity
  8
Shape2DView
100
AcDbLine
 10
95.0414
 20
-260.505
 30
0
 11
97.3512
 21
-264.505
 31
0
  0
LINE
  5
B9F
330
A02
100
AcDbEntity
  8
Shape2DView
100
AcDbLine
 10
97.3512
 20
-264.505
 30
0
 11
101.97
 21
-264.505
 31
0
  0
LINE
  5
BA0
330
A02
100
AcDbEntity
  8
Shape2DView
100
AcDbLine
 10
116.97
 20
-256.505
 30
0
 11
112.351
 21
-256.505
 31
0
  0
LINE
  5
BA1
330
A02
100
AcDbEntity
  8
Shape2DView
100
AcDbLine
 10
119.28
 20
-260.505
 30
0
 11
116.97
 21
-256.505
 31
0
  0
LINE
  5
BA2
330
A02
100
AcDbEntity
  8
Shape2DView
100
AcDbLine
 10
112.351
 20
-256.505
 30
0
 11
110.041
 21
-260.505
 31
0
  0
LINE
  5
BA3
330
A02
100
AcDbEntity
  8
Shape2DView
100
AcDbLine
 10
116.97
 20
-264.505
 30
0
 11
119.28
 21
-260.505
 31
0
  0
LINE
  5
BA4
330
A02
100
AcDbEntity
  8
Shape2DView
100
AcDbLine
 10
110.041
 20
-260.505
 30
0
 11
112.351
 21
-264.505
 31
0
  0
LINE
  5
BA5
330
A02
100
AcDbEntity
  8
Shape2DView
100
AcDbLine
 10
112.351
 20
-264.505
 30
0
 11
116.97
 21
-264.505
 31
0
  0
LINE
  5
BA6
330
A02
100
AcDbEntity
  8
Shape2DView
100
AcDbLine
 10
131.97
 20
-256.505
 30
0
 11
127.351
 21
-256.505
 31
0
  0
LINE
  5
BA7
330
A02
100
AcDbEntity
  8
Shape2DView
100
AcDbLine
 10
134.28
 20
-260.505
 30
0
 11
131.97
 21
-256.505
 31
0
  0
LINE
  5
BA8
330
A02
100
AcDbEntity
  8
Shape2DView
100
AcDbLine
 10
127.351
 20
-256.505
 30
0
 11
125.041
 21
-260.505
 31
0
  0
LINE
  5
BA9
330
A02
100
AcDbEntity
  8
Shape2DView
100
AcDbLine
 10
131.97
 20
-264.505
 30
0
 11
134.28
 21
-260.505
 31
0
  0
LINE
  5
BAA
330
A02
100
AcDbEntity
  8
Shape2DView
100
AcDbLine
 10
125.041
 20
-260.505
 30
0
 11
127.351
 21
-264.505
 31
0
  0
LINE
  5
BAB
330
A02
100
AcDbEntity
  8
Shape2DView
100
AcDbLine
 10
127.351
 20
-264.505
 30
0
 11
131.97
 21
-264.505
 31
0
  0
LINE
  5
BAC
330
A02
100
AcDbEntity
  8
Shape2DView
100
AcDbLine
 10
146.97
 20
-256.505
 30
0
 11
142.351
 21
-256.505
 31
0
  0
LINE
  5
BAD
330
A02
100
AcDbEntity
  8
Shape2DView
100
AcDbLine
 10
149.28
 20
-260.505
 30
0
 11
146.97
 21
-256.505
 31
0
  0
LINE
  5
BAE
330
A02
100
AcDbEntity
  8
Shape2DView
100
AcDbLine
 10
142.351
 20
-256.505
 30
0
 11
140.041
 21
-260.505
 31
0
  0
LINE
  5
BAF
330
A02
100
AcDbEntity
  8
Shape2DView
100
AcDbLine
 10
146.97
 20
-264.505
 30
0
 11
149.28
 21
-260.505
 31
0
  0
LINE
  5
BB0
330
A02
100
AcDbEntity
  8
Shape2DView
100
AcDbLine
 10
140.041
 20
-260.505
 30
0
 11
142.351
 21
-264.505
 31
0
  0
LINE
  5
BB1
330
A02
100
AcDbEntity
  8
Shape2DView
100
AcDbLine
 10
142.351
 20
-264.505
 30
0
 11
146.97
 21
-264.505
 31
0
  0
LINE
  5
BB2
330
A02
100
AcDbEntity
  8
Shape2DView
100
AcDbLine
 10
161.88
 20
-279.505
 30
0
 11
157.261
 21
-279.505
 31
0
  0
LINE
  5
BB3
330
A02
100
AcDbEntity
  8
Shape2DView
100
AcDbLine
 10
164.19
 20
-275.505
 30
0
 11
161.88
 21
-279.505
 31
0
  0
LINE
  5
BB4
330
A02
100
AcDbEntity
  8
Shape2DView
100
AcDbLine
 10
157.261
 20
-279.505
 30
0
 11
154.951
 21
-275.505
 31
0
  0
LINE
  5
BB5
330
A02
100
AcDbEntity
  8
Shape2DView
100
AcDbLine
 10
161.88
 20
-271.505
 30
0
 11
164.19
 21
-275.505
 31
0
  0
LINE
  5
BB6
330
A02
100
AcDbEntity
  8
Shape2DView
100
AcDbLine
 10
154.951
 20
-275.505
 30
0
 11
157.261
 21
-271.505
 31
0
  0
LINE
  5
BB7
330
A02
100
AcDbEntity
  8
Shape2DView
100
AcDbLine
 10
157.261
 20
-271.505
 30
0
 11
161.88
 21
-271.505
 31
0
  0
LINE
  5
BB8
330
A02
100
AcDbEntity
  8
Shape2DView
100
AcDbLine
 10
176.88
 20
-279.505
 30
0
 11
172.261
 21
-279.505
 31
0
  0
LINE
  5
BB9
330
A02
100
AcDbEntity
  8
Shape2DView
100
AcDbLine
 10
179.19
 20
-275.505
 30
0
 11
176.88
 21
-279.505
 31
0
  0
LINE
  5
BBA
330
A02
100
AcDbEntity
  8
Shape2DView
100
AcDbLine
 10
172.261
 20
-279.505
 30
0
 11
169.951
 21
-275.505
 31
0
  0
LINE
  5
BBB
330
A02
100
AcDbEntity
  8
Shape2DView
100
AcDbLine
 10
176.88
 20
-271.505
 30
0
 11
179.19
 21
-275.505
 31
0
  0
LINE
  5
BBC
330
A02
100
AcDbEntity
  8
Shape2DView
100
AcDbLine
 10
169.951
 20
-275.505
 30
0
 11
172.261
 21
-271.505
 31
0
  0
LINE
  5
BBD
330
A02
100
AcDbEntity
  8
Shape2DView
100
AcDbLine
 10
172.261
 20
-271.505
 30
0
 11
176.88
 21
-271.505
 31
0
  0
LINE
  5
BBE
330
A02
100
AcDbEntity
  8
Shape2DView
100
AcDbLine
 10
161.88
 20
-264.505
 30
0
 11
157.261
 21
-264.505
 31
0
  0
LINE
  5
BBF
330
A02
100
AcDbEntity
  8
Shape2DView
100
AcDbLine
 10
164.19
 20
-260.505
 30
0
 11
161.88
 21
-264.505
 31
0
  0
LINE
  5
BC0
330
A02
100
AcDbEntity
  8
Shape2DView
100
AcDbLine
 10
157.261
 20
-264.505
 30
0
 11
154.951
 21
-260.505
 31
0
  0
LINE
  5
BC1
330
A02
100
AcDbEntity
  8
Shape2DView
100
AcDbLine
 10
161.88
 20
-256.505
 30
0
 11
164.19
 21
-260.505
 31
0
  0
LINE
  5
BC2
330
A02
100
AcDbEntity
  8
Shape2DView
100
AcDbLine
 10
154.951
 20
-260.505
 30
0
 11
157.261
 21
-256.505
 31
0
  0
LINE
  5
BC3
330
A02
100
AcDbEntity
  8
Shape2DView
100
AcDbLine
 10
157.261
 20
-256.505
 30
0
 11
161.88
 21
-256.505
 31
0
  0
LINE
  5
BC4
330
A02
100
AcDbEntity
  8
Shape2DView
100
AcDbLine
 10
176.88
 20
-264.505
 30
0
 11
172.261
 21
-264.505
 31
0
  0
LINE
  5
BC5
330
A02
100
AcDbEntity
  8
Shape2DView
100
AcDbLine
 10
179.19
 20
-260.505
 30
0
 11
176.88
 21
-264.505
 31
0
  0
LINE
  5
BC6
330
A02
100
AcDbEntity
  8
Shape2DView
100
AcDbLine
 10
172.261
 20
-264.505
 30
0
 11
169.951
 21
-260.505
 31
0
  0
LINE
  5
BC7
330
A02
100
AcDbEntity
  8
Shape2DView
100
AcDbLine
 10
176.88
 20
-256.505
 30
0
 11
179.19
 21
-260.505
 31
0
  0
LINE
  5
BC8
330
A02
100
AcDbEntity
  8
Shape2DView
100
AcDbLine
 10
169.951
 20
-260.505
 30
0
 11
172.261
 21
-256.505
 31
0
  0
LINE
  5
BC9
330
A02
100
AcDbEntity
  8
Shape2DView
100
AcDbLine
 10
172.261
 20
-256.505
 30
0
 11
176.88
 21
-256.505
 31
0
  0
LINE
  5
BCA
330
A02
100
AcDbEntity
  8
Shape2DView
100
AcDbLine
 10
5.13141
 20
-245.505
 30
0
 11
7.4412
 21
-241.505
 31
0
  0
LINE
  5
BCB
330
A02
100
AcDbEntity
  8
Shape2DView
100
AcDbLine
 10
7.4412
 20
-249.505
 30
0
 11
5.13141
 21
-245.505
 31
0
  0
LINE
  5
BCC
330
A02
100
AcDbEntity
  8
Shape2DView
100
AcDbLine
 10
7.4412
 20
-241.505
 30
0
 11
12.0602
 21
-241.505
 31
0
  0
LINE
  5
BCD
330
A02
100
AcDbEntity
  8
Shape2DView
100
AcDbLine
 10
12.0602
 20
-249.505
 30
0
 11
7.4412
 21
-249.505
 31
0
  0
LINE
  5
BCE
330
A02
100
AcDbEntity
  8
Shape2DView
100
AcDbLine
 10
12.0602
 20
-241.505
 30
0
 11
14.37
 21
-245.505
 31
0
  0
LINE
  5
BCF
330
A02
100
AcDbEntity
  8
Shape2DView
100
AcDbLine
 10
14.37
 20
-245.505
 30
0
 11
12.0602
 21
-249.505
 31
0
  0
LINE
  5
BD0
330
A02
100
AcDbEntity
  8
Shape2DView
100
AcDbLine
 10
20.1314
 20
-245.505
 30
0
 11
22.4412
 21
-241.505
 31
0
  0
LINE
  5
BD1
330
A02
100
AcDbEntity
  8
Shape2DView
100
AcDbLine
 10
22.4412
 20
-249.505
 30
0
 11
20.1314
 21
-245.505
 31
0
  0
LINE
  5
BD2
330
A02
100
AcDbEntity
  8
Shape2DView
100
AcDbLine
 10
22.4412
 20
-241.505
 30
0
 11
27.0602
 21
-241.505
 31
0
  0
LINE
  5
BD3
330
A02
100
AcDbEntity
  8
Shape2DView
100
AcDbLine
 10
27.0602
 20
-249.505
 30
0
 11
22.4412
 21
-249.505
 31
0
  0
LINE
  5
BD4
330
A02
100
AcDbEntity
  8
Shape2DView
100
AcDbLine
 10
27.0602
 20
-241.505
 30
0
 11
29.37
 21
-245.505
 31
0
  0
LINE
  5
BD5
330
A02
100
AcDbEntity
  8
Shape2DView
100
AcDbLine
 10
29.37
 20
-245.505
 30
0
 11
27.0602
 21
-249.505
 31
0
  0
LINE
  5
BD6
330
A02
100
AcDbEntity
  8
Shape2DView
100
AcDbLine
 10
35.1314
 20
-245.505
 30
0
 11
37.4412
 21
-241.505
 31
0
  0
LINE
  5
BD7
330
A02
100
AcDbEntity
  8
Shape2DView
100
AcDbLine
 10
37.4412
 20
-249.505
 30
0
 11
35.1314
 21
-245.505
 31
0
  0
LINE
  5
BD8
330
A02
100
AcDbEntity
  8
Shape2DView
100
AcDbLine
 10
37.4412
 20
-241.505
 30
0
 11
42.0602
 21
-241.505
 31
0
  0
LINE
  5
BD9
330
A02
100
AcDbEntity
  8
Shape2DView
100
AcDbLine
 10
42.0602
 20
-249.505
 30
0
 11
37.4412
 21
-249.505
 31
0
  0
LINE
  5
BDA
330
A02
100
AcDbEntity
  8
Shape2DView
100
AcDbLine
 10
42.0602
 20
-241.505
 30
0
 11
44.37
 21
-245.505
 31
0
  0
LINE
  5
BDB
330
A02
100
AcDbEntity
  8
Shape2DView
100
AcDbLine
 10
44.37
 20
-245.505
 30
0
 11
42.0602
 21
-249.505
 31
0
  0
LINE
  5
BDC
330
A02
100
AcDbEntity
  8
Shape2DView
100
AcDbLine
 10
56.9702
 20
-241.505
 30
0
 11
52.3512
 21
-241.505
 31
0
  0
LINE
  5
BDD
330
A02
100
AcDbEntity
  8
Shape2DView
100
AcDbLine
 10
59.28
 20
-245.505
 30
0
 11
56.9702
 21
-241.505
 31
0
  0
LINE
  5
BDE
330
A02
100
AcDbEntity
  8
Shape2DView
100
AcDbLine
 10
52.3512
 20
-241.505
 30
0
 11
50.0414
 21
-245.505
 31
0
  0
LINE
  5
BDF
330
A02
100
AcDbEntity
  8
Shape2DView
100
AcDbLine
 10
56.9702
 20
-249.505
 30
0
 11
59.28
 21
-245.505
 31
0
  0
LINE
  5
BE0
330
A02
100
AcDbEntity
  8
Shape2DView
100
AcDbLine
 10
50.0414
 20
-245.505
 30
0
 11
52.3512
 21
-249.505
 31
0
  0
LINE
  5
BE1
330
A02
100
AcDbEntity
  8
Shape2DView
100
AcDbLine
 10
52.3512
 20
-249.505
 30
0
 11
56.9702
 21
-249.505
 31
0
  0
LINE
  5
BE2
330
A02
100
AcDbEntity
  8
Shape2DView
100
AcDbLine
 10
71.9702
 20
-241.505
 30
0
 11
67.3512
 21
-241.505
 31
0
  0
LINE
  5
BE3
330
A02
100
AcDbEntity
  8
Shape2DView
100
AcDbLine
 10
74.28
 20
-245.505
 30
0
 11
71.9702
 21
-241.505
 31
0
  0
LINE
  5
BE4
330
A02
100
AcDbEntity
  8
Shape2DView
100
AcDbLine
 10
67.3512
 20
-241.505
 30
0
 11
65.0414
 21
-245.505
 31
0
  0
LINE
  5
BE5
330
A02
100
AcDbEntity
  8
Shape2DView
100
AcDbLine
 10
71.9702
 20
-249.505
 30
0
 11
74.28
 21
-245.505
 31
0
  0
LINE
  5
BE6
330
A02
100
AcDbEntity
  8
Shape2DView
100
AcDbLine
 10
65.0414
 20
-245.505
 30
0
 11
67.3512
 21
-249.505
 31
0
  0
LINE
  5
BE7
330
A02
100
AcDbEntity
  8
Shape2DView
100
AcDbLine
 10
67.3512
 20
-249.505
 30
0
 11
71.9702
 21
-249.505
 31
0
  0
LINE
  5
BE8
330
A02
100
AcDbEntity
  8
Shape2DView
100
AcDbLine
 10
86.9702
 20
-241.505
 30
0
 11
82.3512
 21
-241.505
 31
0
  0
LINE
  5
BE9
330
A02
100
AcDbEntity
  8
Shape2DView
100
AcDbLine
 10
89.28
 20
-245.505
 30
0
 11
86.9702
 21
-241.505
 31
0
  0
LINE
  5
BEA
330
A02
100
AcDbEntity
  8
Shape2DView
100
AcDbLine
 10
82.3512
 20
-241.505
 30
0
 11
80.0414
 21
-245.505
 31
0
  0
LINE
  5
BEB
330
A02
100
AcDbEntity
  8
Shape2DView
100
AcDbLine
 10
86.9702
 20
-249.505
 30
0
 11
89.28
 21
-245.505
 31
0
  0
LINE
  5
BEC
330
A02
100
AcDbEntity
  8
Shape2DView
100
AcDbLine
 10
80.0414
 20
-245.505
 30
0
 11
82.3512
 21
-249.505
 31
0
  0
LINE
  5
BED
330
A02
100
AcDbEntity
  8
Shape2DView
100
AcDbLine
 10
82.3512
 20
-249.505
 30
0
 11
86.9702
 21
-249.505
 31
0
  0
LINE
  5
BEE
330
A02
100
AcDbEntity
  8
Shape2DView
100
AcDbLine
 10
5.13141
 20
-230.505
 30
0
 11
7.4412
 21
-226.505
 31
0
  0
LINE
  5
BEF
330
A02
100
AcDbEntity
  8
Shape2DView
100
AcDbLine
 10
7.4412
 20
-234.505
 30
0
 11
5.13141
 21
-230.505
 31
0
  0
LINE
  5
BF0
330
A02
100
AcDbEntity
  8
Shape2DView
100
AcDbLine
 10
7.4412
 20
-226.505
 30
0
 11
12.0602
 21
-226.505
 31
0
  0
LINE
  5
BF1
330
A02
100
AcDbEntity
  8
Shape2DView
100
AcDbLine
 10
12.0602
 20
-234.505
 30
0
 11
7.4412
 21
-234.505
 31
0
  0
LINE
  5
BF2
330
A02
100
AcDbEntity
  8
Shape2DView
100
AcDbLine
 10
12.0602
 20
-226.505
 30
0
 11
14.37
 21
-230.505
 31
0
  0
LINE
  5
BF3
330
A02
100
AcDbEntity
  8
Shape2DView
100
AcDbLine
 10
14.37
 20
-230.505
 30
0
 11
12.0602
 21
-234.505
 31
0
  0
LINE
  5
BF4
330
A02
100
AcDbEntity
  8
Shape2DView
100
AcDbLine
 10
20.1314
 20
-230.505
 30
0
 11
22.4412
 21
-226.505
 31
0
  0
LINE
  5
BF5
330
A02
100
AcDbEntity
  8
Shape2DView
100
AcDbLine
 10
22.4412
 20
-234.505
 30
0
 11
20.1314
 21
-230.505
 31
0
  0
LINE
  5
BF6
330
A02
100
AcDbEntity
  8
Shape2DView
100
AcDbLine
 10
22.4412
 20
-226.505
 30
0
 11
27.0602
 21
-226.505
 31
0
  0
LINE
  5
BF7
330
A02
100
AcDbEntity
  8
Shape2DView
100
AcDbLine
 10
27.0602
 20
-234.505
 30
0
 11
22.4412
 21
-234.505
 31
0
  0
LINE
  5
BF8
330
A02
100
AcDbEntity
  8
Shape2DView
100
AcDbLine
 10
27.0602
 20
-226.505
 30
0
 11
29.37
 21
-230.505
 31
0
  0
LINE
  5
BF9
330
A02
100
AcDbEntity
  8
Shape2DView
100
AcDbLine
 10
29.37
 20
-230.505
 30
0
 11
27.0602
 21
-234.505
 31
0
  0
LINE
  5
BFA
330
A02
100
AcDbEntity
  8
Shape2DView
100
AcDbLine
 10
35.1314
 20
-230.505
 30
0
 11
37.4412
 21
-226.505
 31
0
  0
LINE
  5
BFB
330
A02
100
AcDbEntity
  8
Shape2DView
100
AcDbLine
 10
37.4412
 20
-234.505
 30
0
 11
35.1314
 21
-230.505
 31
0
  0
LINE
  5
BFC
330
A02
100
AcDbEntity
  8
Shape2DView
100
AcDbLine
 10
37.4412
 20
-226.505
 30
0
 11
42.0602
 21
-226.505
 31
0
  0
LINE
  5
BFD
330
A02
100
AcDbEntity
  8
Shape2DView
100
AcDbLine
 10
42.0602
 20
-234.505
 30
0
 11
37.4412
 21
-234.505
 31
0
  0
LINE
  5
BFE
330
A02
100
AcDbEntity
  8
Shape2DView
100
AcDbLine
 10
42.0602
 20
-226.505
 30
0
 11
44.37
 21
-230.505
 31
0
  0
LINE
  5
BFF
330
A02
100
AcDbEntity
  8
Shape2DView
100
AcDbLine
 10
44.37
 20
-230.505
 30
0
 11
42.0602
 21
-234.505
 31
0
  0
LINE
  5
C00
330
A02
100
AcDbEntity
  8
Shape2DView
100
AcDbLine
 10
5.13141
 20
-215.505
 30
0
 11
7.4412
 21
-211.505
 31
0
  0
LINE
  5
C01
330
A02
100
AcDbEntity
  8
Shape2DView
100
AcDbLine
 10
7.4412
 20
-219.505
 30
0
 11
5.13141
 21
-215.505
 31
0
  0
LINE
  5
C02
330
A02
100
AcDbEntity
  8
Shape2DView
100
AcDbLine
 10
7.4412
 20
-211.505
 30
0
 11
12.0602
 21
-211.505
 31
0
  0
LINE
  5
C03
330
A02
100
AcDbEntity
  8
Shape2DView
100
AcDbLine
 10
12.0602
 20
-219.505
 30
0
 11
7.4412
 21
-219.505
 31
0
  0
LINE
  5
C04
330
A02
100
AcDbEntity
  8
Shape2DView
100
AcDbLine
 10
12.0602
 20
-211.505
 30
0
 11
14.37
 21
-215.505
 31
0
  0
LINE
  5
C05
330
A02
100
AcDbEntity
  8
Shape2DView
100
AcDbLine
 10
14.37
 20
-215.505
 30
0
 11
12.0602
 21
-219.505
 31
0
  0
LINE
  5
C06
330
A02
100
AcDbEntity
  8
Shape2DView
100
AcDbLine
 10
20.1314
 20
-215.505
 30
0
 11
22.4412
 21
-211.505
 31
0
  0
LINE
  5
C07
330
A02
100
AcDbEntity
  8
Shape2DView
100
AcDbLine
 10
22.4412
 20
-219.505
 30
0
 11
20.1314
 21
-215.505
 31
0
  0
LINE
  5
C08
330
A02
100
AcDbEntity
  8
Shape2DView
100
AcDbLine
 10
22.4412
 20
-211.505
 30
0
 11
27.0602
 21
-211.505
 31
0
  0
LINE
  5
C09
330
A02
100
AcDbEntity
  8
Shape2DView
100
AcDbLine
 10
27.0602
 20
-219.505
 30
0
 11
22.4412
 21
-219.505
 31
0
  0
LINE
  5
C0A
330
A02
100
AcDbEntity
  8
Shape2DView
100
AcDbLine
 10
27.0602
 20
-211.505
 30
0
 11
29.37
 21
-215.505
 31
0
  0
LINE
  5
C0B
330
A02
100
AcDbEntity
  8
Shape2DView
100
AcDbLine
 10
29.37
 20
-215.505
 30
0
 11
27.0602
 21
-219.505
 31
0
  0
LINE
  5
C0C
330
A02
100
AcDbEntity
  8
Shape2DView
100
AcDbLine
 10
35.1314
 20
-215.505
 30
0
 11
37.4412
 21
-211.505
 31
0
  0
LINE
  5
C0D
330
A02
100
AcDbEntity
  8
Shape2DView
100
AcDbLine
 10
37.4412
 20
-219.505
 30
0
 11
35.1314
 21
-215.505
 31
0
  0
LINE
  5
C0E
330
A02
100
AcDbEntity
  8
Shape2DView
100
AcDbLine
 10
37.4412
 20
-211.505
 30
0
 11
42.0602
 21
-211.505
 31
0
  0
LINE
  5
C0F
330
A02
100
AcDbEntity
  8
Shape2DView
100
AcDbLine
 10
42.0602
 20
-219.505
 30
0
 11
37.4412
 21
-219.505
 31
0
  0
LINE
  5
C10
330
A02
100
AcDbEntity
  8
Shape2DView
100
AcDbLine
 10
42.0602
 20
-211.505
 30
0
 11
44.37
 21
-215.505
 31
0
  0
LINE
  5
C11
330
A02
100
AcDbEntity
  8
Shape2DView
100
AcDbLine
 10
44.37
 20
-215.505
 30
0
 11
42.0602
 21
-219.505
 31
0
  0
LINE
  5
C12
330
A02
100
AcDbEntity
  8
Shape2DView
100
AcDbLine
 10
56.9702
 20
-226.505
 30
0
 11
52.3512
 21
-226.505
 31
0
  0
LINE
  5
C13
330
A02
100
AcDbEntity
  8
Shape2DView
100
AcDbLine
 10
59.28
 20
-230.505
 30
0
 11
56.9702
 21
-226.505
 31
0
  0
LINE
  5
C14
330
A02
100
AcDbEntity
  8
Shape2DView
100
AcDbLine
 10
52.3512
 20
-226.505
 30
0
 11
50.0414
 21
-230.505
 31
0
  0
LINE
  5
C15
330
A02
100
AcDbEntity
  8
Shape2DView
100
AcDbLine
 10
56.9702
 20
-234.505
 30
0
 11
59.28
 21
-230.505
 31
0
  0
LINE
  5
C16
330
A02
100
AcDbEntity
  8
Shape2DView
100
AcDbLine
 10
50.0414
 20
-230.505
 30
0
 11
52.3512
 21
-234.505
 31
0
  0
LINE
  5
C17
330
A02
100
AcDbEntity
  8
Shape2DView
100
AcDbLine
 10
52.3512
 20
-234.505
 30
0
 11
56.9702
 21
-234.505
 31
0
  0
LINE
  5
C18
330
A02
100
AcDbEntity
  8
Shape2DView
100
AcDbLine
 10
71.9702
 20
-226.505
 30
0
 11
67.3512
 21
-226.505
 31
0
  0
LINE
  5
C19
330
A02
100
AcDbEntity
  8
Shape2DView
100
AcDbLine
 10
74.28
 20
-230.505
 30
0
 11
71.9702
 21
-226.505
 31
0
  0
LINE
  5
C1A
330
A02
100
AcDbEntity
  8
Shape2DView
100
AcDbLine
 10
67.3512
 20
-226.505
 30
0
 11
65.0414
 21
-230.505
 31
0
  0
LINE
  5
C1B
330
A02
100
AcDbEntity
  8
Shape2DView
100
AcDbLine
 10
71.9702
 20
-234.505
 30
0
 11
74.28
 21
-230.505
 31
0
  0
LINE
  5
C1C
330
A02
100
AcDbEntity
  8
Shape2DView
100
AcDbLine
 10
65.0414
 20
-230.505
 30
0
 11
67.3512
 21
-234.505
 31
0
  0
LINE
  5
C1D
330
A02
100
AcDbEntity
  8
Shape2DView
100
AcDbLine
 10
67.3512
 20
-234.505
 30
0
 11
71.9702
 21
-234.505
 31
0
  0
LINE
  5
C1E
330
A02
100
AcDbEntity
  8
Shape2DView
100
AcDbLine
 10
86.9702
 20
-226.505
 30
0
 11
82.3512
 21
-226.505
 31
0
  0
LINE
  5
C1F
330
A02
100
AcDbEntity
  8
Shape2DView
100
AcDbLine
 10
89.28
 20
-230.505
 30
0
 11
86.9702
 21
-226.505
 31
0
  0
LINE
  5
C20
330
A02
100
AcDbEntity
  8
Shape2DView
100
AcDbLine
 10
82.3512
 20
-226.505
 30
0
 11
80.0414
 21
-230.505
 31
0
  0
LINE
  5
C21
330
A02
100
AcDbEntity
  8
Shape2DView
100
AcDbLine
 10
86.9702
 20
-234.505
 30
0
 11
89.28
 21
-230.505
 31
0
  0
LINE
  5
C22
330
A02
100
AcDbEntity
  8
Shape2DView
100
AcDbLine
 10
80.0414
 20
-230.505
 30
0
 11
82.3512
 21
-234.505
 31
0
  0
LINE
  5
C23
330
A02
100
AcDbEntity
  8
Shape2DView
100
AcDbLine
 10
82.3512
 20
-234.505
 30
0
 11
86.9702
 21
-234.505
 31
0
  0
LINE
  5
C24
330
A02
100
AcDbEntity
  8
Shape2DView
100
AcDbLine
 10
56.9702
 20
-211.505
 30
0
 11
52.3512
 21
-211.505
 31
0
  0
LINE
  5
C25
330
A02
100
AcDbEntity
  8
Shape2DView
100
AcDbLine
 10
59.28
 20
-215.505
 30
0
 11
56.9702
 21
-211.505
 31
0
  0
LINE
  5
C26
330
A02
100
AcDbEntity
  8
Shape2DView
100
AcDbLine
 10
52.3512
 20
-211.505
 30
0
 11
50.0414
 21
-215.505
 31
0
  0
LINE
  5
C27
330
A02
100
AcDbEntity
  8
Shape2DView
100
AcDbLine
 10
56.9702
 20
-219.505
 30
0
 11
59.28
 21
-215.505
 31
0
  0
LINE
  5
C28
330
A02
100
AcDbEntity
  8
Shape2DView
100
AcDbLine
 10
50.0414
 20
-215.505
 30
0
 11
52.3512
 21
-219.505
 31
0
  0
LINE
  5
C29
330
A02
100
AcDbEntity
  8
Shape2DView
100
AcDbLine
 10
52.3512
 20
-219.505
 30
0
 11
56.9702
 21
-219.505
 31
0
  0
LINE
  5
C2A
330
A02
100
AcDbEntity
  8
Shape2DView
100
AcDbLine
 10
71.9702
 20
-211.505
 30
0
 11
67.3512
 21
-211.505
 31
0
  0
LINE
  5
C2B
330
A02
100
AcDbEntity
  8
Shape2DView
100
AcDbLine
 10
74.28
 20
-215.505
 30
0
 11
71.9702
 21
-211.505
 31
0
  0
LINE
  5
C2C
330
A02
100
AcDbEntity
  8
Shape2DView
100
AcDbLine
 10
67.3512
 20
-211.505
 30
0
 11
65.0414
 21
-215.505
 31
0
  0
LINE
  5
C2D
330
A02
100
AcDbEntity
  8
Shape2DView
100
AcDbLine
 10
71.9702
 20
-219.505
 30
0
 11
74.28
 21
-215.505
 31
0
  0
LINE
  5
C2E
330
A02
100
AcDbEntity
  8
Shape2DView
100
AcDbLine
 10
65.0414
 20
-215.505
 30
0
 11
67.3512
 21
-219.505
 31
0
  0
LINE
  5
C2F
330
A02
100
AcDbEntity
  8
Shape2DView
100
AcDbLine
 10
67.3512
 20
-219.505
 30
0
 11
71.9702
 21
-219.505
 31
0
  0
LINE
  5
C30
330
A02
100
AcDbEntity
  8
Shape2DView
100
AcDbLine
 10
86.9702
 20
-211.505
 30
0
 11
82.3512
 21
-211.505
 31
0
  0
LINE
  5
C31
330
A02
100
AcDbEntity
  8
Shape2DView
100
AcDbLine
 10
89.28
 20
-215.505
 30
0
 11
86.9702
 21
-211.505
 31
0
  0
LINE
  5
C32
330
A02
100
AcDbEntity
  8
Shape2DView
100
AcDbLine
 10
82.3512
 20
-211.505
 30
0
 11
80.0414
 21
-215.505
 31
0
  0
LINE
  5
C33
330
A02
100
AcDbEntity
  8
Shape2DView
100
AcDbLine
 10
86.9702
 20
-219.505
 30
0
 11
89.28
 21
-215.505
 31
0
  0
LINE
  5
C34
330
A02
100
AcDbEntity
  8
Shape2DView
100
AcDbLine
 10
80.0414
 20
-215.505
 30
0
 11
82.3512
 21
-219.505
 31
0
  0
LINE
  5
C35
330
A02
100
AcDbEntity
  8
Shape2DView
100
AcDbLine
 10
82.3512
 20
-219.505
 30
0
 11
86.9702
 21
-219.505
 31
0
  0
LINE
  5
C36
330
A02
100
AcDbEntity
  8
Shape2DView
100
AcDbLine
 10
101.97
 20
-241.505
 30
0
 11
97.3512
 21
-241.505
 31
0
  0
LINE
  5
C37
330
A02
100
AcDbEntity
  8
Shape2DView
100
AcDbLine
 10
104.28
 20
-245.505
 30
0
 11
101.97
 21
-241.505
 31
0
  0
LINE
  5
C38
330
A02
100
AcDbEntity
  8
Shape2DView
100
AcDbLine
 10
97.3512
 20
-241.505
 30
0
 11
95.0414
 21
-245.505
 31
0
  0
LINE
  5
C39
330
A02
100
AcDbEntity
  8
Shape2DView
100
AcDbLine
 10
101.97
 20
-249.505
 30
0
 11
104.28
 21
-245.505
 31
0
  0
LINE
  5
C3A
330
A02
100
AcDbEntity
  8
Shape2DView
100
AcDbLine
 10
95.0414
 20
-245.505
 30
0
 11
97.3512
 21
-249.505
 31
0
  0
LINE
  5
C3B
330
A02
100
AcDbEntity
  8
Shape2DView
100
AcDbLine
 10
97.3512
 20
-249.505
 30
0
 11
101.97
 21
-249.505
 31
0
  0
LINE
  5
C3C
330
A02
100
AcDbEntity
  8
Shape2DView
100
AcDbLine
 10
116.97
 20
-241.505
 30
0
 11
112.351
 21
-241.505
 31
0
  0
LINE
  5
C3D
330
A02
100
AcDbEntity
  8
Shape2DView
100
AcDbLine
 10
119.28
 20
-245.505
 30
0
 11
116.97
 21
-241.505
 31
0
  0
LINE
  5
C3E
330
A02
100
AcDbEntity
  8
Shape2DView
100
AcDbLine
 10
112.351
 20
-241.505
 30
0
 11
110.041
 21
-245.505
 31
0
  0
LINE
  5
C3F
330
A02
100
AcDbEntity
  8
Shape2DView
100
AcDbLine
 10
116.97
 20
-249.505
 30
0
 11
119.28
 21
-245.505
 31
0
  0
LINE
  5
C40
330
A02
100
AcDbEntity
  8
Shape2DView
100
AcDbLine
 10
110.041
 20
-245.505
 30
0
 11
112.351
 21
-249.505
 31
0
  0
LINE
  5
C41
330
A02
100
AcDbEntity
  8
Shape2DView
100
AcDbLine
 10
112.351
 20
-249.505
 30
0
 11
116.97
 21
-249.505
 31
0
  0
LINE
  5
C42
330
A02
100
AcDbEntity
  8
Shape2DView
100
AcDbLine
 10
131.97
 20
-241.505
 30
0
 11
127.351
 21
-241.505
 31
0
  0
LINE
  5
C43
330
A02
100
AcDbEntity
  8
Shape2DView
100
AcDbLine
 10
134.28
 20
-245.505
 30
0
 11
131.97
 21
-241.505
 31
0
  0
LINE
  5
C44
330
A02
100
AcDbEntity
  8
Shape2DView
100
AcDbLine
 10
127.351
 20
-241.505
 30
0
 11
125.041
 21
-245.505
 31
0
  0
LINE
  5
C45
330
A02
100
AcDbEntity
  8
Shape2DView
100
AcDbLine
 10
131.97
 20
-249.505
 30
0
 11
134.28
 21
-245.505
 31
0
  0
LINE
  5
C46
330
A02
100
AcDbEntity
  8
Shape2DView
100
AcDbLine
 10
125.041
 20
-245.505
 30
0
 11
127.351
 21
-249.505
 31
0
  0
LINE
  5
C47
330
A02
100
AcDbEntity
  8
Shape2DView
100
AcDbLine
 10
127.351
 20
-249.505
 30
0
 11
131.97
 21
-249.505
 31
0
  0
LINE
  5
C48
330
A02
100
AcDbEntity
  8
Shape2DView
100
AcDbLine
 10
146.97
 20
-241.505
 30
0
 11
142.351
 21
-241.505
 31
0
  0
LINE
  5
C49
330
A02
100
AcDbEntity
  8
Shape2DView
100
AcDbLine
 10
149.28
 20
-245.505
 30
0
 11
146.97
 21
-241.505
 31
0
  0
LINE
  5
C4A
330
A02
100
AcDbEntity
  8
Shape2DView
100
AcDbLine
 10
142.351
 20
-241.505
 30
0
 11
140.041
 21
-245.505
 31
0
  0
LINE
  5
C4B
330
A02
100
AcDbEntity
  8
Shape2DView
100
AcDbLine
 10
146.97
 20
-249.505
 30
0
 11
149.28
 21
-245.505
 31
0
  0
LINE
  5
C4C
330
A02
100
AcDbEntity
  8
Shape2DView
100
AcDbLine
 10
140.041
 20
-245.505
 30
0
 11
142.351
 21
-249.505
 31
0
  0
LINE
  5
C4D
330
A02
100
AcDbEntity
  8
Shape2DView
100
AcDbLine
 10
142.351
 20
-249.505
 30
0
 11
146.97
 21
-249.505
 31
0
  0
LINE
  5
C4E
330
A02
100
AcDbEntity
  8
Shape2DView
100
AcDbLine
 10
161.88
 20
-249.505
 30
0
 11
157.261
 21
-249.505
 31
0
  0
LINE
  5
C4F
330
A02
100
AcDbEntity
  8
Shape2DView
100
AcDbLine
 10
164.19
 20
-245.505
 30
0
 11
161.88
 21
-249.505
 31
0
  0
LINE
  5
C50
330
A02
100
AcDbEntity
  8
Shape2DView
100
AcDbLine
 10
157.261
 20
-249.505
 30
0
 11
154.951
 21
-245.505
 31
0
  0
LINE
  5
C51
330
A02
100
AcDbEntity
  8
Shape2DView
100
AcDbLine
 10
161.88
 20
-241.505
 30
0
 11
164.19
 21
-245.505
 31
0
  0
LINE
  5
C52
330
A02
100
AcDbEntity
  8
Shape2DView
100
AcDbLine
 10
154.951
 20
-245.505
 30
0
 11
157.261
 21
-241.505
 31
0
  0
LINE
  5
C53
330
A02
100
AcDbEntity
  8
Shape2DView
100
AcDbLine
 10
157.261
 20
-241.505
 30
0
 11
161.88
 21
-241.505
 31
0
  0
LINE
  5
C54
330
A02
100
AcDbEntity
  8
Shape2DView
100
AcDbLine
 10
176.88
 20
-249.505
 30
0
 11
172.261
 21
-249.505
 31
0
  0
LINE
  5
C55
330
A02
100
AcDbEntity
  8
Shape2DView
100
AcDbLine
 10
179.19
 20
-245.505
 30
0
 11
176.88
 21
-249.505
 31
0
  0
LINE
  5
C56
330
A02
100
AcDbEntity
  8
Shape2DView
100
AcDbLine
 10
172.261
 20
-249.505
 30
0
 11
169.951
 21
-245.505
 31
0
  0
LINE
  5
C57
330
A02
100
AcDbEntity
  8
Shape2DView
100
AcDbLine
 10
176.88
 20
-241.505
 30
0
 11
179.19
 21
-245.505
 31
0
  0
LINE
  5
C58
330
A02
100
AcDbEntity
  8
Shape2DView
100
AcDbLine
 10
169.951
 20
-245.505
 30
0
 11
172.261
 21
-241.505
 31
0
  0
LINE
  5
C59
330
A02
100
AcDbEntity
  8
Shape2DView
100
AcDbLine
 10
172.261
 20
-241.505
 30
0
 11
176.88
 21
-241.505
 31
0
  0
LINE
  5
C5A
330
A02
100
AcDbEntity
  8
Shape2DView
100
AcDbLine
 10
101.97
 20
-226.505
 30
0
 11
97.3512
 21
-226.505
 31
0
  0
LINE
  5
C5B
330
A02
100
AcDbEntity
  8
Shape2DView
100
AcDbLine
 10
104.28
 20
-230.505
 30
0
 11
101.97
 21
-226.505
 31
0
  0
LINE
  5
C5C
330
A02
100
AcDbEntity
  8
Shape2DView
100
AcDbLine
 10
97.3512
 20
-226.505
 30
0
 11
95.0414
 21
-230.505
 31
0
  0
LINE
  5
C5D
330
A02
100
AcDbEntity
  8
Shape2DView
100
AcDbLine
 10
101.97
 20
-234.505
 30
0
 11
104.28
 21
-230.505
 31
0
  0
LINE
  5
C5E
330
A02
100
AcDbEntity
  8
Shape2DView
100
AcDbLine
 10
95.0414
 20
-230.505
 30
0
 11
97.3512
 21
-234.505
 31
0
  0
LINE
  5
C5F
330
A02
100
AcDbEntity
  8
Shape2DView
100
AcDbLine
 10
97.3512
 20
-234.505
 30
0
 11
101.97
 21
-234.505
 31
0
  0
LINE
  5
C60
330
A02
100
AcDbEntity
  8
Shape2DView
100
AcDbLine
 10
116.97
 20
-226.505
 30
0
 11
112.351
 21
-226.505
 31
0
  0
LINE
  5
C61
330
A02
100
AcDbEntity
  8
Shape2DView
100
AcDbLine
 10
119.28
 20
-230.505
 30
0
 11
116.97
 21
-226.505
 31
0
  0
LINE
  5
C62
330
A02
100
AcDbEntity
  8
Shape2DView
100
AcDbLine
 10
112.351
 20
-226.505
 30
0
 11
110.041
 21
-230.505
 31
0
  0
LINE
  5
C63
330
A02
100
AcDbEntity
  8
Shape2DView
100
AcDbLine
 10
116.97
 20
-234.505
 30
0
 11
119.28
 21
-230.505
 31
0
  0
LINE
  5
C64
330
A02
100
AcDbEntity
  8
Shape2DView
100
AcDbLine
 10
110.041
 20
-230.505
 30
0
 11
112.351
 21
-234.505
 31
0
  0
LINE
  5
C65
330
A02
100
AcDbEntity
  8
Shape2DView
100
AcDbLine
 10
112.351
 20
-234.505
 30
0
 11
116.97
 21
-234.505
 31
0
  0
LINE
  5
C66
330
A02
100
AcDbEntity
  8
Shape2DView
100
AcDbLine
 10
131.97
 20
-226.505
 30
0
 11
127.351
 21
-226.505
 31
0
  0
LINE
  5
C67
330
A02
100
AcDbEntity
  8
Shape2DView
100
AcDbLine
 10
134.28
 20
-230.505
 30
0
 11
131.97
 21
-226.505
 31
0
  0
LINE
  5
C68
330
A02
100
AcDbEntity
  8
Shape2DView
100
AcDbLine
 10
127.351
 20
-226.505
 30
0
 11
125.041
 21
-230.505
 31
0
  0
LINE
  5
C69
330
A02
100
AcDbEntity
  8
Shape2DView
100
AcDbLine
 10
131.97
 20
-234.505
 30
0
 11
134.28
 21
-230.505
 31
0
  0
LINE
  5
C6A
330
A02
100
AcDbEntity
  8
Shape2DView
100
AcDbLine
 10
125.041
 20
-230.505
 30
0
 11
127.351
 21
-234.505
 31
0
  0
LINE
  5
C6B
330
A02
100
AcDbEntity
  8
Shape2DView
100
AcDbLine
 10
127.351
 20
-234.505
 30
0
 11
131.97
 21
-234.505
 31
0
  0
LINE
  5
C6C
330
A02
100
AcDbEntity
  8
Shape2DView
100
AcDbLine
 10
146.97
 20
-226.505
 30
0
 11
142.351
 21
-226.505
 31
0
  0
LINE
  5
C6D
330
A02
100
AcDbEntity
  8
Shape2DView
100
AcDbLine
 10
149.28
 20
-230.505
 30
0
 11
146.97
 21
-226.505
 31
0
  0
LINE
  5
C6E
330
A02
100
AcDbEntity
  8
Shape2DView
100
AcDbLine
 10
142.351
 20
-226.505
 30
0
 11
140.041
 21
-230.505
 31
0
  0
LINE
  5
C6F
330
A02
100
AcDbEntity
  8
Shape2DView
100
AcDbLine
 10
146.97
 20
-234.505
 30
0
 11
149.28
 21
-230.505
 31
0
  0
LINE
  5
C70
330
A02
100
AcDbEntity
  8
Shape2DView
100
AcDbLine
 10
140.041
 20
-230.505
 30
0
 11
142.351
 21
-234.505
 31
0
  0
LINE
  5
C71
330
A02
100
AcDbEntity
  8
Shape2DView
100
AcDbLine
 10
142.351
 20
-234.505
 30
0
 11
146.97
 21
-234.505
 31
0
  0
LINE
  5
C72
330
A02
100
AcDbEntity
  8
Shape2DView
100
AcDbLine
 10
101.97
 20
-211.505
 30
0
 11
97.3512
 21
-211.505
 31
0
  0
LINE
  5
C73
330
A02
100
AcDbEntity
  8
Shape2DView
100
AcDbLine
 10
104.28
 20
-215.505
 30
0
 11
101.97
 21
-211.505
 31
0
  0
LINE
  5
C74
330
A02
100
AcDbEntity
  8
Shape2DView
100
AcDbLine
 10
97.3512
 20
-211.505
 30
0
 11
95.0414
 21
-215.505
 31
0
  0
LINE
  5
C75
330
A02
100
AcDbEntity
  8
Shape2DView
100
AcDbLine
 10
101.97
 20
-219.505
 30
0
 11
104.28
 21
-215.505
 31
0
  0
LINE
  5
C76
330
A02
100
AcDbEntity
  8
Shape2DView
100
AcDbLine
 10
95.0414
 20
-215.505
 30
0
 11
97.3512
 21
-219.505
 31
0
  0
LINE
  5
C77
330
A02
100
AcDbEntity
  8
Shape2DView
100
AcDbLine
 10
97.3512
 20
-219.505
 30
0
 11
101.97
 21
-219.505
 31
0
  0
LINE
  5
C78
330
A02
100
AcDbEntity
  8
Shape2DView
100
AcDbLine
 10
116.97
 20
-211.505
 30
0
 11
112.351
 21
-211.505
 31
0
  0
LINE
  5
C79
330
A02
100
AcDbEntity
  8
Shape2DView
100
AcDbLine
 10
119.28
 20
-215.505
 30
0
 11
116.97
 21
-211.505
 31
0
  0
LINE
  5
C7A
330
A02
100
AcDbEntity
  8
Shape2DView
100
AcDbLine
 10
112.351
 20
-211.505
 30
0
 11
110.041
 21
-215.505
 31
0
  0
LINE
  5
C7B
330
A02
100
AcDbEntity
  8
Shape2DView
100
AcDbLine
 10
116.97
 20
-219.505
 30
0
 11
119.28
 21
-215.505
 31
0
  0
LINE
  5
C7C
330
A02
100
AcDbEntity
  8
Shape2DView
100
AcDbLine
 10
110.041
 20
-215.505
 30
0
 11
112.351
 21
-219.505
 31
0
  0
LINE
  5
C7D
330
A02
100
AcDbEntity
  8
Shape2DView
100
AcDbLine
 10
112.351
 20
-219.505
 30
0
 11
116.97
 21
-219.505
 31
0
  0
LINE
  5
C7E
330
A02
100
AcDbEntity
  8
Shape2DView
100
AcDbLine
 10
131.97
 20
-211.505
 30
0
 11
127.351
 21
-211.505
 31
0
  0
LINE
  5
C7F
330
A02
100
AcDbEntity
  8
Shape2DView
100
AcDbLine
 10
134.28
 20
-215.505
 30
0
 11
131.97
 21
-211.505
 31
0
  0
LINE
  5
C80
330
A02
100
AcDbEntity
  8
Shape2DView
100
AcDbLine
 10
127.351
 20
-211.505
 30
0
 11
125.041
 21
-215.505
 31
0
  0
LINE
  5
C81
330
A02
100
AcDbEntity
  8
Shape2DView
100
AcDbLine
 10
131.97
 20
-219.505
 30
0
 11
134.28
 21
-215.505
 31
0
  0
LINE
  5
C82
330
A02
100
AcDbEntity
  8
Shape2DView
100
AcDbLine
 10
125.041
 20
-215.505
 30
0
 11
127.351
 21
-219.505
 31
0
  0
LINE
  5
C83
330
A02
100
AcDbEntity
  8
Shape2DView
100
AcDbLine
 10
127.351
 20
-219.505
 30
0
 11
131.97
 21
-219.505
 31
0
  0
LINE
  5
C84
330
A02
100
AcDbEntity
  8
Shape2DView
100
AcDbLine
 10
146.97
 20
-211.505
 30
0
 11
142.351
 21
-211.505
 31
0
  0
LINE
  5
C85
330
A02
100
AcDbEntity
  8
Shape2DView
100
AcDbLine
 10
149.28
 20
-215.505
 30
0
 11
146.97
 21
-211.505
 31
0
  0
LINE
  5
C86
330
A02
100
AcDbEntity
  8
Shape2DView
100
AcDbLine
 10
142.351
 20
-211.505
 30
0
 11
140.041
 21
-215.505
 31
0
  0
LINE
  5
C87
330
A02
100
AcDbEntity
  8
Shape2DView
100
AcDbLine
 10
146.97
 20
-219.505
 30
0
 11
149.28
 21
-215.505
 31
0
  0
LINE
  5
C88
330
A02
100
AcDbEntity
  8
Shape2DView
100
AcDbLine
 10
140.041
 20
-215.505
 30
0
 11
142.351
 21
-219.505
 31
0
  0
LINE
  5
C89
330
A02
100
AcDbEntity
  8
Shape2DView
100
AcDbLine
 10
142.351
 20
-219.505
 30
0
 11
146.97
 21
-219.505
 31
0
  0
LINE
  5
C8A
330
A02
100
AcDbEntity
  8
Shape2DView
100
AcDbLine
 10
161.88
 20
-234.505
 30
0
 11
157.261
 21
-234.505
 31
0
  0
LINE
  5
C8B
330
A02
100
AcDbEntity
  8
Shape2DView
100
AcDbLine
 10
164.19
 20
-230.505
 30
0
 11
161.88
 21
-234.505
 31
0
  0
LINE
  5
C8C
330
A02
100
AcDbEntity
  8
Shape2DView
100
AcDbLine
 10
157.261
 20
-234.505
 30
0
 11
154.951
 21
-230.505
 31
0
  0
LINE
  5
C8D
330
A02
100
AcDbEntity
  8
Shape2DView
100
AcDbLine
 10
161.88
 20
-226.505
 30
0
 11
164.19
 21
-230.505
 31
0
  0
LINE
  5
C8E
330
A02
100
AcDbEntity
  8
Shape2DView
100
AcDbLine
 10
154.951
 20
-230.505
 30
0
 11
157.261
 21
-226.505
 31
0
  0
LINE
  5
C8F
330
A02
100
AcDbEntity
  8
Shape2DView
100
AcDbLine
 10
157.261
 20
-226.505
 30
0
 11
161.88
 21
-226.505
 31
0
  0
LINE
  5
C90
330
A02
100
AcDbEntity
  8
Shape2DView
100
AcDbLine
 10
176.88
 20
-234.505
 30
0
 11
172.261
 21
-234.505
 31
0
  0
LINE
  5
C91
330
A02
100
AcDbEntity
  8
Shape2DView
100
AcDbLine
 10
179.19
 20
-230.505
 30
0
 11
176.88
 21
-234.505
 31
0
  0
LINE
  5
C92
330
A02
100
AcDbEntity
  8
Shape2DView
100
AcDbLine
 10
172.261
 20
-234.505
 30
0
 11
169.951
 21
-230.505
 31
0
  0
LINE
  5
C93
330
A02
100
AcDbEntity
  8
Shape2DView
100
AcDbLine
 10
176.88
 20
-226.505
 30
0
 11
179.19
 21
-230.505
 31
0
  0
LINE
  5
C94
330
A02
100
AcDbEntity
  8
Shape2DView
100
AcDbLine
 10
169.951
 20
-230.505
 30
0
 11
172.261
 21
-226.505
 31
0
  0
LINE
  5
C95
330
A02
100
AcDbEntity
  8
Shape2DView
100
AcDbLine
 10
172.261
 20
-226.505
 30
0
 11
176.88
 21
-226.505
 31
0
  0
LINE
  5
C96
330
A02
100
AcDbEntity
  8
Shape2DView
100
AcDbLine
 10
161.88
 20
-219.505
 30
0
 11
157.261
 21
-219.505
 31
0
  0
LINE
  5
C97
330
A02
100
AcDbEntity
  8
Shape2DView
100
AcDbLine
 10
164.19
 20
-215.505
 30
0
 11
161.88
 21
-219.505
 31
0
  0
LINE
  5
C98
330
A02
100
AcDbEntity
  8
Shape2DView
100
AcDbLine
 10
157.261
 20
-219.505
 30
0
 11
154.951
 21
-215.505
 31
0
  0
LINE
  5
C99
330
A02
100
AcDbEntity
  8
Shape2DView
100
AcDbLine
 10
161.88
 20
-211.505
 30
0
 11
164.19
 21
-215.505
 31
0
  0
LINE
  5
C9A
330
A02
100
AcDbEntity
  8
Shape2DView
100
AcDbLine
 10
154.951
 20
-215.505
 30
0
 11
157.261
 21
-211.505
 31
0
  0
LINE
  5
C9B
330
A02
100
AcDbEntity
  8
Shape2DView
100
AcDbLine
 10
157.261
 20
-211.505
 30
0
 11
161.88
 21
-211.505
 31
0
  0
LINE
  5
C9C
330
A02
100
AcDbEntity
  8
Shape2DView
100
AcDbLine
 10
176.88
 20
-219.505
 30
0
 11
172.261
 21
-219.505
 31
0
  0
LINE
  5
C9D
330
A02
100
AcDbEntity
  8
Shape2DView
100
AcDbLine
 10
179.19
 20
-215.505
 30
0
 11
176.88
 21
-219.505
 31
0
  0
LINE
  5
C9E
330
A02
100
AcDbEntity
  8
Shape2DView
100
AcDbLine
 10
172.261
 20
-219.505
 30
0
 11
169.951
 21
-215.505
 31
0
  0
LINE
  5
C9F
330
A02
100
AcDbEntity
  8
Shape2DView
100
AcDbLine
 10
176.88
 20
-211.505
 30
0
 11
179.19
 21
-215.505
 31
0
  0
LINE
  5
CA0
330
A02
100
AcDbEntity
  8
Shape2DView
100
AcDbLine
 10
169.951
 20
-215.505
 30
0
 11
172.261
 21
-211.505
 31
0
  0
LINE
  5
CA1
330
A02
100
AcDbEntity
  8
Shape2DView
100
AcDbLine
 10
172.261
 20
-211.505
 30
0
 11
176.88
 21
-211.505
 31
0
  0
CIRCLE
  5
CA2
330
A02
100
AcDbEntity
  8
Shape2DView
100
AcDbCircle
 10
-195
 20
-210.87
 40
4
  0
LINE
  5
CA3
330
A02
100
AcDbEntity
  8
Shape2DView
100
AcDbLine
 10
-189.984
 20
-200.505
 30
0
 11
-187.674
 21
-196.505
 31
0
  0
LINE
  5
CA4
330
A02
100
AcDbEntity
  8
Shape2DView
100
AcDbLine
 10
-187.674
 20
-204.505
 30
0
 11
-189.984
 21
-200.505
 31
0
  0
LINE
  5
CA5
330
A02
100
AcDbEntity
  8
Shape2DView
100
AcDbLine
 10
-187.674
 20
-196.505
 30
0
 11
-183.055
 21
-196.505
 31
0
  0
LINE
  5
CA6
330
A02
100
AcDbEntity
  8
Shape2DView
100
AcDbLine
 10
-183.055
 20
-204.505
 30
0
 11
-187.674
 21
-204.505
 31
0
  0
LINE
  5
CA7
330
A02
100
AcDbEntity
  8
Shape2DView
100
AcDbLine
 10
-180.745
 20
-200.505
 30
0
 11
-183.055
 21
-196.505
 31
0
  0
LINE
  5
CA8
330
A02
100
AcDbEntity
  8
Shape2DView
100
AcDbLine
 10
-183.055
 20
-204.505
 30
0
 11
-180.745
 21
-200.505
 31
0
  0
LINE
  5
CA9
330
A02
100
AcDbEntity
  8
Shape2DView
100
AcDbLine
 10
-174.984
 20
-200.505
 30
0
 11
-172.674
 21
-196.505
 31
0
  0
LINE
  5
CAA
330
A02
100
AcDbEntity
  8
Shape2DView
100
AcDbLine
 10
-172.674
 20
-204.505
 30
0
 11
-174.984
 21
-200.505
 31
0
  0
LINE
  5
CAB
330
A02
100
AcDbEntity
  8
Shape2DView
100
AcDbLine
 10
-172.674
 20
-196.505
 30
0
 11
-168.055
 21
-196.505
 31
0
  0
LINE
  5
CAC
330
A02
100
AcDbEntity
  8
Shape2DView
100
AcDbLine
 10
-168.055
 20
-204.505
 30
0
 11
-172.674
 21
-204.505
 31
0
  0
LINE
  5
CAD
330
A02
100
AcDbEntity
  8
Shape2DView
100
AcDbLine
 10
-165.745
 20
-200.505
 30
0
 11
-168.055
 21
-196.505
 31
0
  0
LINE
  5
CAE
330
A02
100
AcDbEntity
  8
Shape2DView
100
AcDbLine
 10
-168.055
 20
-204.505
 30
0
 11
-165.745
 21
-200.505
 31
0
  0
LINE
  5
CAF
330
A02
100
AcDbEntity
  8
Shape2DView
100
AcDbLine
 10
-159.984
 20
-200.505
 30
0
 11
-157.674
 21
-196.505
 31
0
  0
LINE
  5
CB0
330
A02
100
AcDbEntity
  8
Shape2DView
100
AcDbLine
 10
-157.674
 20
-204.505
 30
0
 11
-159.984
 21
-200.505
 31
0
  0
LINE
  5
CB1
330
A02
100
AcDbEntity
  8
Shape2DView
100
AcDbLine
 10
-157.674
 20
-196.505
 30
0
 11
-153.055
 21
-196.505
 31
0
  0
LINE
  5
CB2
330
A02
100
AcDbEntity
  8
Shape2DView
100
AcDbLine
 10
-153.055
 20
-204.505
 30
0
 11
-157.674
 21
-204.505
 31
0
  0
LINE
  5
CB3
330
A02
100
AcDbEntity
  8
Shape2DView
100
AcDbLine
 10
-150.745
 20
-200.505
 30
0
 11
-153.055
 21
-196.505
 31
0
  0
LINE
  5
CB4
330
A02
100
AcDbEntity
  8
Shape2DView
100
AcDbLine
 10
-153.055
 20
-204.505
 30
0
 11
-150.745
 21
-200.505
 31
0
  0
LINE
  5
CB5
330
A02
100
AcDbEntity
  8
Shape2DView
100
AcDbLine
 10
-144.984
 20
-200.505
 30
0
 11
-142.674
 21
-196.505
 31
0
  0
LINE
  5
CB6
330
A02
100
AcDbEntity
  8
Shape2DView
100
AcDbLine
 10
-142.674
 20
-204.505
 30
0
 11
-144.984
 21
-200.505
 31
0
  0
LINE
  5
CB7
330
A02
100
AcDbEntity
  8
Shape2DView
100
AcDbLine
 10
-142.674
 20
-196.505
 30
0
 11
-138.055
 21
-196.505
 31
0
  0
LINE
  5
CB8
330
A02
100
AcDbEntity
  8
Shape2DView
100
AcDbLine
 10
-138.055
 20
-204.505
 30
0
 11
-142.674
 21
-204.505
 31
0
  0
LINE
  5
CB9
330
A02
100
AcDbEntity
  8
Shape2DView
100
AcDbLine
 10
-135.745
 20
-200.505
 30
0
 11
-138.055
 21
-196.505
 31
0
  0
LINE
  5
CBA
330
A02
100
AcDbEntity
  8
Shape2DView
100
AcDbLine
 10
-138.055
 20
-204.505
 30
0
 11
-135.745
 21
-200.505
 31
0
  0
LINE
  5
CBB
330
A02
100
AcDbEntity
  8
Shape2DView
100
AcDbLine
 10
-129.984
 20
-200.505
 30
0
 11
-127.674
 21
-196.505
 31
0
  0
LINE
  5
CBC
330
A02
100
AcDbEntity
  8
Shape2DView
100
AcDbLine
 10
-127.674
 20
-204.505
 30
0
 11
-129.984
 21
-200.505
 31
0
  0
LINE
  5
CBD
330
A02
100
AcDbEntity
  8
Shape2DView
100
AcDbLine
 10
-127.674
 20
-196.505
 30
0
 11
-123.055
 21
-196.505
 31
0
  0
LINE
  5
CBE
330
A02
100
AcDbEntity
  8
Shape2DView
100
AcDbLine
 10
-123.055
 20
-204.505
 30
0
 11
-127.674
 21
-204.505
 31
0
  0
LINE
  5
CBF
330
A02
100
AcDbEntity
  8
Shape2DView
100
AcDbLine
 10
-120.745
 20
-200.505
 30
0
 11
-123.055
 21
-196.505
 31
0
  0
LINE
  5
CC0
330
A02
100
AcDbEntity
  8
Shape2DView
100
AcDbLine
 10
-123.055
 20
-204.505
 30
0
 11
-120.745
 21
-200.505
 31
0
  0
LINE
  5
CC1
330
A02
100
AcDbEntity
  8
Shape2DView
100
AcDbLine
 10
-114.984
 20
-200.505
 30
0
 11
-112.674
 21
-196.505
 31
0
  0
LINE
  5
CC2
330
A02
100
AcDbEntity
  8
Shape2DView
100
AcDbLine
 10
-112.674
 20
-204.505
 30
0
 11
-114.984
 21
-200.505
 31
0
  0
LINE
  5
CC3
330
A02
100
AcDbEntity
  8
Shape2DView
100
AcDbLine
 10
-112.674
 20
-196.505
 30
0
 11
-108.055
 21
-196.505
 31
0
  0
LINE
  5
CC4
330
A02
100
AcDbEntity
  8
Shape2DView
100
AcDbLine
 10
-108.055
 20
-204.505
 30
0
 11
-112.674
 21
-204.505
 31
0
  0
LINE
  5
CC5
330
A02
100
AcDbEntity
  8
Shape2DView
100
AcDbLine
 10
-105.745
 20
-200.505
 30
0
 11
-108.055
 21
-196.505
 31
0
  0
LINE
  5
CC6
330
A02
100
AcDbEntity
  8
Shape2DView
100
AcDbLine
 10
-108.055
 20
-204.505
 30
0
 11
-105.745
 21
-200.505
 31
0
  0
LINE
  5
CC7
330
A02
100
AcDbEntity
  8
Shape2DView
100
AcDbLine
 10
-189.984
 20
-185.505
 30
0
 11
-187.674
 21
-181.505
 31
0
  0
LINE
  5
CC8
330
A02
100
AcDbEntity
  8
Shape2DView
100
AcDbLine
 10
-187.674
 20
-189.505
 30
0
 11
-189.984
 21
-185.505
 31
0
  0
LINE
  5
CC9
330
A02
100
AcDbEntity
  8
Shape2DView
100
AcDbLine
 10
-187.674
 20
-181.505
 30
0
 11
-183.055
 21
-181.505
 31
0
  0
LINE
  5
CCA
330
A02
100
AcDbEntity
  8
Shape2DView
100
AcDbLine
 10
-183.055
 20
-189.505
 30
0
 11
-187.674
 21
-189.505
 31
0
  0
LINE
  5
CCB
330
A02
100
AcDbEntity
  8
Shape2DView
100
AcDbLine
 10
-180.745
 20
-185.505
 30
0
 11
-183.055
 21
-181.505
 31
0
  0
LINE
  5
CCC
330
A02
100
AcDbEntity
  8
Shape2DView
100
AcDbLine
 10
-183.055
 20
-189.505
 30
0
 11
-180.745
 21
-185.505
 31
0
  0
LINE
  5
CCD
330
A02
100
AcDbEntity
  8
Shape2DView
100
AcDbLine
 10
-174.984
 20
-185.505
 30
0
 11
-172.674
 21
-181.505
 31
0
  0
LINE
  5
CCE
330
A02
100
AcDbEntity
  8
Shape2DView
100
AcDbLine
 10
-172.674
 20
-189.505
 30
0
 11
-174.984
 21
-185.505
 31
0
  0
LINE
  5
CCF
330
A02
100
AcDbEntity
  8
Shape2DView
100
AcDbLine
 10
-172.674
 20
-181.505
 30
0
 11
-168.055
 21
-181.505
 31
0
  0
LINE
  5
CD0
330
A02
100
AcDbEntity
  8
Shape2DView
100
AcDbLine
 10
-168.055
 20
-189.505
 30
0
 11
-172.674
 21
-189.505
 31
0
  0
LINE
  5
CD1
330
A02
100
AcDbEntity
  8
Shape2DView
100
AcDbLine
 10
-165.745
 20
-185.505
 30
0
 11
-168.055
 21
-181.505
 31
0
  0
LINE
  5
CD2
330
A02
100
AcDbEntity
  8
Shape2DView
100
AcDbLine
 10
-168.055
 20
-189.505
 30
0
 11
-165.745
 21
-185.505
 31
0
  0
LINE
  5
CD3
330
A02
100
AcDbEntity
  8
Shape2DView
100
AcDbLine
 10
-159.984
 20
-185.505
 30
0
 11
-157.674
 21
-181.505
 31
0
  0
LINE
  5
CD4
330
A02
100
AcDbEntity
  8
Shape2DView
100
AcDbLine
 10
-157.674
 20
-189.505
 30
0
 11
-159.984
 21
-185.505
 31
0
  0
LINE
  5
CD5
330
A02
100
AcDbEntity
  8
Shape2DView
100
AcDbLine
 10
-157.674
 20
-181.505
 30
0
 11
-153.055
 21
-181.505
 31
0
  0
LINE
  5
CD6
330
A02
100
AcDbEntity
  8
Shape2DView
100
AcDbLine
 10
-153.055
 20
-189.505
 30
0
 11
-157.674
 21
-189.505
 31
0
  0
LINE
  5
CD7
330
A02
100
AcDbEntity
  8
Shape2DView
100
AcDbLine
 10
-150.745
 20
-185.505
 30
0
 11
-153.055
 21
-181.505
 31
0
  0
LINE
  5
CD8
330
A02
100
AcDbEntity
  8
Shape2DView
100
AcDbLine
 10
-153.055
 20
-189.505
 30
0
 11
-150.745
 21
-185.505
 31
0
  0
LINE
  5
CD9
330
A02
100
AcDbEntity
  8
Shape2DView
100
AcDbLine
 10
-189.984
 20
-170.505
 30
0
 11
-187.674
 21
-166.505
 31
0
  0
LINE
  5
CDA
330
A02
100
AcDbEntity
  8
Shape2DView
100
AcDbLine
 10
-187.674
 20
-174.505
 30
0
 11
-189.984
 21
-170.505
 31
0
  0
LINE
  5
CDB
330
A02
100
AcDbEntity
  8
Shape2DView
100
AcDbLine
 10
-187.674
 20
-166.505
 30
0
 11
-183.055
 21
-166.505
 31
0
  0
LINE
  5
CDC
330
A02
100
AcDbEntity
  8
Shape2DView
100
AcDbLine
 10
-183.055
 20
-174.505
 30
0
 11
-187.674
 21
-174.505
 31
0
  0
LINE
  5
CDD
330
A02
100
AcDbEntity
  8
Shape2DView
100
AcDbLine
 10
-180.745
 20
-170.505
 30
0
 11
-183.055
 21
-166.505
 31
0
  0
LINE
  5
CDE
330
A02
100
AcDbEntity
  8
Shape2DView
100
AcDbLine
 10
-183.055
 20
-174.505
 30
0
 11
-180.745
 21
-170.505
 31
0
  0
LINE
  5
CDF
330
A02
100
AcDbEntity
  8
Shape2DView
100
AcDbLine
 10
-174.984
 20
-170.505
 30
0
 11
-172.674
 21
-166.505
 31
0
  0
LINE
  5
CE0
330
A02
100
AcDbEntity
  8
Shape2DView
100
AcDbLine
 10
-172.674
 20
-174.505
 30
0
 11
-174.984
 21
-170.505
 31
0
  0
LINE
  5
CE1
330
A02
100
AcDbEntity
  8
Shape2DView
100
AcDbLine
 10
-172.674
 20
-166.505
 30
0
 11
-168.055
 21
-166.505
 31
0
  0
LINE
  5
CE2
330
A02
100
AcDbEntity
  8
Shape2DView
100
AcDbLine
 10
-168.055
 20
-174.505
 30
0
 11
-172.674
 21
-174.505
 31
0
  0
LINE
  5
CE3
330
A02
100
AcDbEntity
  8
Shape2DView
100
AcDbLine
 10
-165.745
 20
-170.505
 30
0
 11
-168.055
 21
-166.505
 31
0
  0
LINE
  5
CE4
330
A02
100
AcDbEntity
  8
Shape2DView
100
AcDbLine
 10
-168.055
 20
-174.505
 30
0
 11
-165.745
 21
-170.505
 31
0
  0
LINE
  5
CE5
330
A02
100
AcDbEntity
  8
Shape2DView
100
AcDbLine
 10
-159.984
 20
-170.505
 30
0
 11
-157.674
 21
-166.505
 31
0
  0
LINE
  5
CE6
330
A02
100
AcDbEntity
  8
Shape2DView
100
AcDbLine
 10
-157.674
 20
-174.505
 30
0
 11
-159.984
 21
-170.505
 31
0
  0
LINE
  5
CE7
330
A02
100
AcDbEntity
  8
Shape2DView
100
AcDbLine
 10
-157.674
 20
-166.505
 30
0
 11
-153.055
 21
-166.505
 31
0
  0
LINE
  5
CE8
330
A02
100
AcDbEntity
  8
Shape2DView
100
AcDbLine
 10
-153.055
 20
-174.505
 30
0
 11
-157.674
 21
-174.505
 31
0
  0
LINE
  5
CE9
330
A02
100
AcDbEntity
  8
Shape2DView
100
AcDbLine
 10
-150.745
 20
-170.505
 30
0
 11
-153.055
 21
-166.505
 31
0
  0
LINE
  5
CEA
330
A02
100
AcDbEntity
  8
Shape2DView
100
AcDbLine
 10
-153.055
 20
-174.505
 30
0
 11
-150.745
 21
-170.505
 31
0
  0
LINE
  5
CEB
330
A02
100
AcDbEntity
  8
Shape2DView
100
AcDbLine
 10
-144.984
 20
-185.505
 30
0
 11
-142.674
 21
-181.505
 31
0
  0
LINE
  5
CEC
330
A02
100
AcDbEntity
  8
Shape2DView
100
AcDbLine
 10
-142.674
 20
-189.505
 30
0
 11
-144.984
 21
-185.505
 31
0
  0
LINE
  5
CED
330
A02
100
AcDbEntity
  8
Shape2DView
100
AcDbLine
 10
-142.674
 20
-181.505
 30
0
 11
-138.055
 21
-181.505
 31
0
  0
LINE
  5
CEE
330
A02
100
AcDbEntity
  8
Shape2DView
100
AcDbLine
 10
-138.055
 20
-189.505
 30
0
 11
-142.674
 21
-189.505
 31
0
  0
LINE
  5
CEF
330
A02
100
AcDbEntity
  8
Shape2DView
100
AcDbLine
 10
-135.745
 20
-185.505
 30
0
 11
-138.055
 21
-181.505
 31
0
  0
LINE
  5
CF0
330
A02
100
AcDbEntity
  8
Shape2DView
100
AcDbLine
 10
-138.055
 20
-189.505
 30
0
 11
-135.745
 21
-185.505
 31
0
  0
LINE
  5
CF1
330
A02
100
AcDbEntity
  8
Shape2DView
100
AcDbLine
 10
-129.984
 20
-185.505
 30
0
 11
-127.674
 21
-181.505
 31
0
  0
LINE
  5
CF2
330
A02
100
AcDbEntity
  8
Shape2DView
100
AcDbLine
 10
-127.674
 20
-189.505
 30
0
 11
-129.984
 21
-185.505
 31
0
  0
LINE
  5
CF3
330
A02
100
AcDbEntity
  8
Shape2DView
100
AcDbLine
 10
-127.674
 20
-181.505
 30
0
 11
-123.055
 21
-181.505
 31
0
  0
LINE
  5
CF4
330
A02
100
AcDbEntity
  8
Shape2DView
100
AcDbLine
 10
-123.055
 20
-189.505
 30
0
 11
-127.674
 21
-189.505
 31
0
  0
LINE
  5
CF5
330
A02
100
AcDbEntity
  8
Shape2DView
100
AcDbLine
 10
-120.745
 20
-185.505
 30
0
 11
-123.055
 21
-181.505
 31
0
  0
LINE
  5
CF6
330
A02
100
AcDbEntity
  8
Shape2DView
100
AcDbLine
 10
-123.055
 20
-189.505
 30
0
 11
-120.745
 21
-185.505
 31
0
  0
LINE
  5
CF7
330
A02
100
AcDbEntity
  8
Shape2DView
100
AcDbLine
 10
-114.984
 20
-185.505
 30
0
 11
-112.674
 21
-181.505
 31
0
  0
LINE
  5
CF8
330
A02
100
AcDbEntity
  8
Shape2DView
100
AcDbLine
 10
-112.674
 20
-189.505
 30
0
 11
-114.984
 21
-185.505
 31
0
  0
LINE
  5
CF9
330
A02
100
AcDbEntity
  8
Shape2DView
100
AcDbLine
 10
-112.674
 20
-181.505
 30
0
 11
-108.055
 21
-181.505
 31
0
  0
LINE
  5
CFA
330
A02
100
AcDbEntity
  8
Shape2DView
100
AcDbLine
 10
-108.055
 20
-189.505
 30
0
 11
-112.674
 21
-189.505
 31
0
  0
LINE
  5
CFB
330
A02
100
AcDbEntity
  8
Shape2DView
100
AcDbLine
 10
-105.745
 20
-185.505
 30
0
 11
-108.055
 21
-181.505
 31
0
  0
LINE
  5
CFC
330
A02
100
AcDbEntity
  8
Shape2DView
100
AcDbLine
 10
-108.055
 20
-189.505
 30
0
 11
-105.745
 21
-185.505
 31
0
  0
LINE
  5
CFD
330
A02
100
AcDbEntity
  8
Shape2DView
100
AcDbLine
 10
-144.984
 20
-170.505
 30
0
 11
-142.674
 21
-166.505
 31
0
  0
LINE
  5
CFE
330
A02
100
AcDbEntity
  8
Shape2DView
100
AcDbLine
 10
-142.674
 20
-174.505
 30
0
 11
-144.984
 21
-170.505
 31
0
  0
LINE
  5
CFF
330
A02
100
AcDbEntity
  8
Shape2DView
100
AcDbLine
 10
-142.674
 20
-166.505
 30
0
 11
-138.055
 21
-166.505
 31
0
  0
LINE
  5
D00
330
A02
100
AcDbEntity
  8
Shape2DView
100
AcDbLine
 10
-138.055
 20
-174.505
 30
0
 11
-142.674
 21
-174.505
 31
0
  0
LINE
  5
D01
330
A02
100
AcDbEntity
  8
Shape2DView
100
AcDbLine
 10
-135.745
 20
-170.505
 30
0
 11
-138.055
 21
-166.505
 31
0
  0
LINE
  5
D02
330
A02
100
AcDbEntity
  8
Shape2DView
100
AcDbLine
 10
-138.055
 20
-174.505
 30
0
 11
-135.745
 21
-170.505
 31
0
  0
LINE
  5
D03
330
A02
100
AcDbEntity
  8
Shape2DView
100
AcDbLine
 10
-129.984
 20
-170.505
 30
0
 11
-127.674
 21
-166.505
 31
0
  0
LINE
  5
D04
330
A02
100
AcDbEntity
  8
Shape2DView
100
AcDbLine
 10
-127.674
 20
-174.505
 30
0
 11
-129.984
 21
-170.505
 31
0
  0
LINE
  5
D05
330
A02
100
AcDbEntity
  8
Shape2DView
100
AcDbLine
 10
-127.674
 20
-166.505
 30
0
 11
-123.055
 21
-166.505
 31
0
  0
LINE
  5
D06
330
A02
100
AcDbEntity
  8
Shape2DView
100
AcDbLine
 10
-123.055
 20
-174.505
 30
0
 11
-127.674
 21
-174.505
 31
0
  0
LINE
  5
D07
330
A02
100
AcDbEntity
  8
Shape2DView
100
AcDbLine
 10
-120.745
 20
-170.505
 30
0
 11
-123.055
 21
-166.505
 31
0
  0
LINE
  5
D08
330
A02
100
AcDbEntity
  8
Shape2DView
100
AcDbLine
 10
-123.055
 20
-174.505
 30
0
 11
-120.745
 21
-170.505
 31
0
  0
LINE
  5
D09
330
A02
100
AcDbEntity
  8
Shape2DView
100
AcDbLine
 10
-114.984
 20
-170.505
 30
0
 11
-112.674
 21
-166.505
 31
0
  0
LINE
  5
D0A
330
A02
100
AcDbEntity
  8
Shape2DView
100
AcDbLine
 10
-112.674
 20
-174.505
 30
0
 11
-114.984
 21
-170.505
 31
0
  0
LINE
  5
D0B
330
A02
100
AcDbEntity
  8
Shape2DView
100
AcDbLine
 10
-112.674
 20
-166.505
 30
0
 11
-108.055
 21
-166.505
 31
0
  0
LINE
  5
D0C
330
A02
100
AcDbEntity
  8
Shape2DView
100
AcDbLine
 10
-108.055
 20
-174.505
 30
0
 11
-112.674
 21
-174.505
 31
0
  0
LINE
  5
D0D
330
A02
100
AcDbEntity
  8
Shape2DView
100
AcDbLine
 10
-105.745
 20
-170.505
 30
0
 11
-108.055
 21
-166.505
 31
0
  0
LINE
  5
D0E
330
A02
100
AcDbEntity
  8
Shape2DView
100
AcDbLine
 10
-108.055
 20
-174.505
 30
0
 11
-105.745
 21
-170.505
 31
0
  0
LINE
  5
D0F
330
A02
100
AcDbEntity
  8
Shape2DView
100
AcDbLine
 10
-93.1452
 20
-204.505
 30
0
 11
-97.7642
 21
-204.505
 31
0
  0
LINE
  5
D10
330
A02
100
AcDbEntity
  8
Shape2DView
100
AcDbLine
 10
-90.8354
 20
-200.505
 30
0
 11
-93.1452
 21
-204.505
 31
0
  0
LINE
  5
D11
330
A02
100
AcDbEntity
  8
Shape2DView
100
AcDbLine
 10
-97.7642
 20
-204.505
 30
0
 11
-100.074
 21
-200.505
 31
0
  0
LINE
  5
D12
330
A02
100
AcDbEntity
  8
Shape2DView
100
AcDbLine
 10
-93.1452
 20
-196.505
 30
0
 11
-90.8354
 21
-200.505
 31
0
  0
LINE
  5
D13
330
A02
100
AcDbEntity
  8
Shape2DView
100
AcDbLine
 10
-100.074
 20
-200.505
 30
0
 11
-97.7642
 21
-196.505
 31
0
  0
LINE
  5
D14
330
A02
100
AcDbEntity
  8
Shape2DView
100
AcDbLine
 10
-97.7642
 20
-196.505
 30
0
 11
-93.1452
 21
-196.505
 31
0
  0
LINE
  5
D15
330
A02
100
AcDbEntity
  8
Shape2DView
100
AcDbLine
 10
-78.1452
 20
-204.505
 30
0
 11
-82.7642
 21
-204.505
 31
0
  0
LINE
  5
D16
330
A02
100
AcDbEntity
  8
Shape2DView
100
AcDbLine
 10
-75.8354
 20
-200.505
 30
0
 11
-78.1452
 21
-204.505
 31
0
  0
LINE
  5
D17
330
A02
100
AcDbEntity
  8
Shape2DView
100
AcDbLine
 10
-82.7642
 20
-204.505
 30
0
 11
-85.074
 21
-200.505
 31
0
  0
LINE
  5
D18
330
A02
100
AcDbEntity
  8
Shape2DView
100
AcDbLine
 10
-78.1452
 20
-196.505
 30
0
 11
-75.8354
 21
-200.505
 31
0
  0
LINE
  5
D19
330
A02
100
AcDbEntity
  8
Shape2DView
100
AcDbLine
 10
-85.074
 20
-200.505
 30
0
 11
-82.7642
 21
-196.505
 31
0
  0
LINE
  5
D1A
330
A02
100
AcDbEntity
  8
Shape2DView
100
AcDbLine
 10
-82.7642
 20
-196.505
 30
0
 11
-78.1452
 21
-196.505
 31
0
  0
LINE
  5
D1B
330
A02
100
AcDbEntity
  8
Shape2DView
100
AcDbLine
 10
-63.1452
 20
-204.505
 30
0
 11
-67.7642
 21
-204.505
 31
0
  0
LINE
  5
D1C
330
A02
100
AcDbEntity
  8
Shape2DView
100
AcDbLine
 10
-60.8354
 20
-200.505
 30
0
 11
-63.1452
 21
-204.505
 31
0
  0
LINE
  5
D1D
330
A02
100
AcDbEntity
  8
Shape2DView
100
AcDbLine
 10
-67.7642
 20
-204.505
 30
0
 11
-70.074
 21
-200.505
 31
0
  0
LINE
  5
D1E
330
A02
100
AcDbEntity
  8
Shape2DView
100
AcDbLine
 10
-63.1452
 20
-196.505
 30
0
 11
-60.8354
 21
-200.505
 31
0
  0
LINE
  5
D1F
330
A02
100
AcDbEntity
  8
Shape2DView
100
AcDbLine
 10
-70.074
 20
-200.505
 30
0
 11
-67.7642
 21
-196.505
 31
0
  0
LINE
  5
D20
330
A02
100
AcDbEntity
  8
Shape2DView
100
AcDbLine
 10
-67.7642
 20
-196.505
 30
0
 11
-63.1452
 21
-196.505
 31
0
  0
LINE
  5
D21
330
A02
100
AcDbEntity
  8
Shape2DView
100
AcDbLine
 10
-48.1452
 20
-204.505
 30
0
 11
-52.7642
 21
-204.505
 31
0
  0
LINE
  5
D22
330
A02
100
AcDbEntity
  8
Shape2DView
100
AcDbLine
 10
-45.8354
 20
-200.505
 30
0
 11
-48.1452
 21
-204.505
 31
0
  0
LINE
  5
D23
330
A02
100
AcDbEntity
  8
Shape2DView
100
AcDbLine
 10
-52.7642
 20
-204.505
 30
0
 11
-55.074
 21
-200.505
 31
0
  0
LINE
  5
D24
330
A02
100
AcDbEntity
  8
Shape2DView
100
AcDbLine
 10
-48.1452
 20
-196.505
 30
0
 11
-45.8354
 21
-200.505
 31
0
  0
LINE
  5
D25
330
A02
100
AcDbEntity
  8
Shape2DView
100
AcDbLine
 10
-55.074
 20
-200.505
 30
0
 11
-52.7642
 21
-196.505
 31
0
  0
LINE
  5
D26
330
A02
100
AcDbEntity
  8
Shape2DView
100
AcDbLine
 10
-52.7642
 20
-196.505
 30
0
 11
-48.1452
 21
-196.505
 31
0
  0
LINE
  5
D27
330
A02
100
AcDbEntity
  8
Shape2DView
100
AcDbLine
 10
-39.8686
 20
-200.505
 30
0
 11
-37.5588
 21
-196.505
 31
0
  0
LINE
  5
D28
330
A02
100
AcDbEntity
  8
Shape2DView
100
AcDbLine
 10
-37.5588
 20
-204.505
 30
0
 11
-39.8686
 21
-200.505
 31
0
  0
LINE
  5
D29
330
A02
100
AcDbEntity
  8
Shape2DView
100
AcDbLine
 10
-37.5588
 20
-196.505
 30
0
 11
-32.9398
 21
-196.505
 31
0
  0
LINE
  5
D2A
330
A02
100
AcDbEntity
  8
Shape2DView
100
AcDbLine
 10
-32.9398
 20
-204.505
 30
0
 11
-37.5588
 21
-204.505
 31
0
  0
LINE
  5
D2B
330
A02
100
AcDbEntity
  8
Shape2DView
100
AcDbLine
 10
-32.9398
 20
-196.505
 30
0
 11
-30.63
 21
-200.505
 31
0
  0
LINE
  5
D2C
330
A02
100
AcDbEntity
  8
Shape2DView
100
AcDbLine
 10
-30.63
 20
-200.505
 30
0
 11
-32.9398
 21
-204.505
 31
0
  0
LINE
  5
D2D
330
A02
100
AcDbEntity
  8
Shape2DView
100
AcDbLine
 10
-24.8686
 20
-200.505
 30
0
 11
-22.5588
 21
-196.505
 31
0
  0
LINE
  5
D2E
330
A02
100
AcDbEntity
  8
Shape2DView
100
AcDbLine
 10
-22.5588
 20
-204.505
 30
0
 11
-24.8686
 21
-200.505
 31
0
  0
LINE
  5
D2F
330
A02
100
AcDbEntity
  8
Shape2DView
100
AcDbLine
 10
-22.5588
 20
-196.505
 30
0
 11
-17.9398
 21
-196.505
 31
0
  0
LINE
  5
D30
330
A02
100
AcDbEntity
  8
Shape2DView
100
AcDbLine
 10
-17.9398
 20
-204.505
 30
0
 11
-22.5588
 21
-204.505
 31
0
  0
LINE
  5
D31
330
A02
100
AcDbEntity
  8
Shape2DView
100
AcDbLine
 10
-17.9398
 20
-196.505
 30
0
 11
-15.63
 21
-200.505
 31
0
  0
LINE
  5
D32
330
A02
100
AcDbEntity
  8
Shape2DView
100
AcDbLine
 10
-15.63
 20
-200.505
 30
0
 11
-17.9398
 21
-204.505
 31
0
  0
LINE
  5
D33
330
A02
100
AcDbEntity
  8
Shape2DView
100
AcDbLine
 10
-9.86859
 20
-200.505
 30
0
 11
-7.5588
 21
-196.505
 31
0
  0
LINE
  5
D34
330
A02
100
AcDbEntity
  8
Shape2DView
100
AcDbLine
 10
-7.5588
 20
-204.505
 30
0
 11
-9.86859
 21
-200.505
 31
0
  0
LINE
  5
D35
330
A02
100
AcDbEntity
  8
Shape2DView
100
AcDbLine
 10
-7.5588
 20
-196.505
 30
0
 11
-2.9398
 21
-196.505
 31
0
  0
LINE
  5
D36
330
A02
100
AcDbEntity
  8
Shape2DView
100
AcDbLine
 10
-2.9398
 20
-204.505
 30
0
 11
-7.5588
 21
-204.505
 31
0
  0
LINE
  5
D37
330
A02
100
AcDbEntity
  8
Shape2DView
100
AcDbLine
 10
-2.9398
 20
-196.505
 30
0
 11
-0.63
 21
-200.505
 31
0
  0
LINE
  5
D38
330
A02
100
AcDbEntity
  8
Shape2DView
100
AcDbLine
 10
-0.63
 20
-200.505
 30
0
 11
-2.9398
 21
-204.505
 31
0
  0
LINE
  5
D39
330
A02
100
AcDbEntity
  8
Shape2DView
100
AcDbLine
 10
-93.1452
 20
-189.505
 30
0
 11
-97.7642
 21
-189.505
 31
0
  0
LINE
  5
D3A
330
A02
100
AcDbEntity
  8
Shape2DView
100
AcDbLine
 10
-90.8354
 20
-185.505
 30
0
 11
-93.1452
 21
-189.505
 31
0
  0
LINE
  5
D3B
330
A02
100
AcDbEntity
  8
Shape2DView
100
AcDbLine
 10
-97.7642
 20
-189.505
 30
0
 11
-100.074
 21
-185.505
 31
0
  0
LINE
  5
D3C
330
A02
100
AcDbEntity
  8
Shape2DView
100
AcDbLine
 10
-93.1452
 20
-181.505
 30
0
 11
-90.8354
 21
-185.505
 31
0
  0
LINE
  5
D3D
330
A02
100
AcDbEntity
  8
Shape2DView
100
AcDbLine
 10
-100.074
 20
-185.505
 30
0
 11
-97.7642
 21
-181.505
 31
0
  0
LINE
  5
D3E
330
A02
100
AcDbEntity
  8
Shape2DView
100
AcDbLine
 10
-97.7642
 20
-181.505
 30
0
 11
-93.1452
 21
-181.505
 31
0
  0
LINE
  5
D3F
330
A02
100
AcDbEntity
  8
Shape2DView
100
AcDbLine
 10
-78.1452
 20
-189.505
 30
0
 11
-82.7642
 21
-189.505
 31
0
  0
LINE
  5
D40
330
A02
100
AcDbEntity
  8
Shape2DView
100
AcDbLine
 10
-75.8354
 20
-185.505
 30
0
 11
-78.1452
 21
-189.505
 31
0
  0
LINE
  5
D41
330
A02
100
AcDbEntity
  8
Shape2DView
100
AcDbLine
 10
-82.7642
 20
-189.505
 30
0
 11
-85.074
 21
-185.505
 31
0
  0
LINE
  5
D42
330
A02
100
AcDbEntity
  8
Shape2DView
100
AcDbLine
 10
-78.1452
 20
-181.505
 30
0
 11
-75.8354
 21
-185.505
 31
0
  0
LINE
  5
D43
330
A02
100
AcDbEntity
  8
Shape2DView
100
AcDbLine
 10
-85.074
 20
-185.505
 30
0
 11
-82.7642
 21
-181.505
 31
0
  0
LINE
  5
D44
330
A02
100
AcDbEntity
  8
Shape2DView
100
AcDbLine
 10
-82.7642
 20
-181.505
 30
0
 11
-78.1452
 21
-181.505
 31
0
  0
LINE
  5
D45
330
A02
100
AcDbEntity
  8
Shape2DView
100
AcDbLine
 10
-63.1452
 20
-189.505
 30
0
 11
-67.7642
 21
-189.505
 31
0
  0
LINE
  5
D46
330
A02
100
AcDbEntity
  8
Shape2DView
100
AcDbLine
 10
-60.8354
 20
-185.505
 30
0
 11
-63.1452
 21
-189.505
 31
0
  0
LINE
  5
D47
330
A02
100
AcDbEntity
  8
Shape2DView
100
AcDbLine
 10
-67.7642
 20
-189.505
 30
0
 11
-70.074
 21
-185.505
 31
0
  0
LINE
  5
D48
330
A02
100
AcDbEntity
  8
Shape2DView
100
AcDbLine
 10
-63.1452
 20
-181.505
 30
0
 11
-60.8354
 21
-185.505
 31
0
  0
LINE
  5
D49
330
A02
100
AcDbEntity
  8
Shape2DView
100
AcDbLine
 10
-70.074
 20
-185.505
 30
0
 11
-67.7642
 21
-181.505
 31
0
  0
LINE
  5
D4A
330
A02
100
AcDbEntity
  8
Shape2DView
100
AcDbLine
 10
-67.7642
 20
-181.505
 30
0
 11
-63.1452
 21
-181.505
 31
0
  0
LINE
  5
D4B
330
A02
100
AcDbEntity
  8
Shape2DView
100
AcDbLine
 10
-48.1452
 20
-189.505
 30
0
 11
-52.7642
 21
-189.505
 31
0
  0
LINE
  5
D4C
330
A02
100
AcDbEntity
  8
Shape2DView
100
AcDbLine
 10
-45.8354
 20
-185.505
 30
0
 11
-48.1452
 21
-189.505
 31
0
  0
LINE
  5
D4D
330
A02
100
AcDbEntity
  8
Shape2DView
100
AcDbLine
 10
-52.7642
 20
-189.505
 30
0
 11
-55.074
 21
-185.505
 31
0
  0
LINE
  5
D4E
330
A02
100
AcDbEntity
  8
Shape2DView
100
AcDbLine
 10
-48.1452
 20
-181.505
 30
0
 11
-45.8354
 21
-185.505
 31
0
  0
LINE
  5
D4F
330
A02
100
AcDbEntity
  8
Shape2DView
100
AcDbLine
 10
-55.074
 20
-185.505
 30
0
 11
-52.7642
 21
-181.505
 31
0
  0
LINE
  5
D50
330
A02
100
AcDbEntity
  8
Shape2DView
100
AcDbLine
 10
-52.7642
 20
-181.505
 30
0
 11
-48.1452
 21
-181.505
 31
0
  0
CIRCLE
  5
D51
330
A02
100
AcDbEntity
  8
Shape2DView
100
AcDbCircle
 10
-98.804
 20
-163.07
 40
1.2
  0
CIRCLE
  5
D52
330
A02
100
AcDbEntity
  8
Shape2DView
100
AcDbCircle
 10
-82.657
 20
-166.372
 40
1.6
  0
LINE
  5
D53
330
A02
100
AcDbEntity
  8
Shape2DView
100
AcDbLine
 10
-39.8686
 20
-185.505
 30
0
 11
-37.5588
 21
-181.505
 31
0
  0
LINE
  5
D54
330
A02
100
AcDbEntity
  8
Shape2DView
100
AcDbLine
 10
-37.5588
 20
-189.505
 30
0
 11
-39.8686
 21
-185.505
 31
0
  0
LINE
  5
D55
330
A02
100
AcDbEntity
  8
Shape2DView
100
AcDbLine
 10
-37.5588
 20
-181.505
 30
0
 11
-32.9398
 21
-181.505
 31
0
  0
LINE
  5
D56
330
A02
100
AcDbEntity
  8
Shape2DView
100
AcDbLine
 10
-32.9398
 20
-189.505
 30
0
 11
-37.5588
 21
-189.505
 31
0
  0
LINE
  5
D57
330
A02
100
AcDbEntity
  8
Shape2DView
100
AcDbLine
 10
-32.9398
 20
-181.505
 30
0
 11
-30.63
 21
-185.505
 31
0
  0
LINE
  5
D58
330
A02
100
AcDbEntity
  8
Shape2DView
100
AcDbLine
 10
-30.63
 20
-185.505
 30
0
 11
-32.9398
 21
-189.505
 31
0
  0
LINE
  5
D59
330
A02
100
AcDbEntity
  8
Shape2DView
100
AcDbLine
 10
-24.8686
 20
-185.505
 30
0
 11
-22.5588
 21
-181.505
 31
0
  0
LINE
  5
D5A
330
A02
100
AcDbEntity
  8
Shape2DView
100
AcDbLine
 10
-22.5588
 20
-189.505
 30
0
 11
-24.8686
 21
-185.505
 31
0
  0
LINE
  5
D5B
330
A02
100
AcDbEntity
  8
Shape2DView
100
AcDbLine
 10
-22.5588
 20
-181.505
 30
0
 11
-17.9398
 21
-181.505
 31
0
  0
LINE
  5
D5C
330
A02
100
AcDbEntity
  8
Shape2DView
100
AcDbLine
 10
-17.9398
 20
-189.505
 30
0
 11
-22.5588
 21
-189.505
 31
0
  0
LINE
  5
D5D
330
A02
100
AcDbEntity
  8
Shape2DView
100
AcDbLine
 10
-17.9398
 20
-181.505
 30
0
 11
-15.63
 21
-185.505
 31
0
  0
LINE
  5
D5E
330
A02
100
AcDbEntity
  8
Shape2DView
100
AcDbLine
 10
-15.63
 20
-185.505
 30
0
 11
-17.9398
 21
-189.505
 31
0
  0
LINE
  5
D5F
330
A02
100
AcDbEntity
  8
Shape2DView
100
AcDbLine
 10
-9.86859
 20
-185.505
 30
0
 11
-7.5588
 21
-181.505
 31
0
  0
LINE
  5
D60
330
A02
100
AcDbEntity
  8
Shape2DView
100
AcDbLine
 10
-7.5588
 20
-189.505
 30
0
 11
-9.86859
 21
-185.505
 31
0
  0
LINE
  5
D61
330
A02
100
AcDbEntity
  8
Shape2DView
100
AcDbLine
 10
-7.5588
 20
-181.505
 30
0
 11
-2.9398
 21
-181.505
 31
0
  0
LINE
  5
D62
330
A02
100
AcDbEntity
  8
Shape2DView
100
AcDbLine
 10
-2.9398
 20
-189.505
 30
0
 11
-7.5588
 21
-189.505
 31
0
  0
LINE
  5
D63
330
A02
100
AcDbEntity
  8
Shape2DView
100
AcDbLine
 10
-2.9398
 20
-181.505
 30
0
 11
-0.63
 21
-185.505
 31
0
  0
LINE
  5
D64
330
A02
100
AcDbEntity
  8
Shape2DView
100
AcDbLine
 10
-0.63
 20
-185.505
 30
0
 11
-2.9398
 21
-189.505
 31
0
  0
CIRCLE
  5
D65
330
A02
100
AcDbEntity
  8
Shape2DView
100
AcDbCircle
 10
-42.657
 20
-166.372
 40
1.6
  0
CIRCLE
  5
D66
330
A02
100
AcDbEntity
  8
Shape2DView
100
AcDbCircle
 10
-2.657
 20
-166.372
 40
1.6
  0
LINE
  5
D67
330
A02
100
AcDbEntity
  8
Shape2DView
100
AcDbLine
 10
-189.984
 20
-155.505
 30
0
 11
-187.674
 21
-151.505
 31
0
  0
LINE
  5
D68
330
A02
100
AcDbEntity
  8
Shape2DView
100
AcDbLine
 10
-187.674
 20
-159.505
 30
0
 11
-189.984
 21
-155.505
 31
0
  0
LINE
  5
D69
330
A02
100
AcDbEntity
  8
Shape2DView
100
AcDbLine
 10
-187.674
 20
-151.505
 30
0
 11
-183.055
 21
-151.505
 31
0
  0
LINE
  5
D6A
330
A02
100
AcDbEntity
  8
Shape2DView
100
AcDbLine
 10
-183.055
 20
-159.505
 30
0
 11
-187.674
 21
-159.505
 31
0
  0
LINE
  5
D6B
330
A02
100
AcDbEntity
  8
Shape2DView
100
AcDbLine
 10
-180.745
 20
-155.505
 30
0
 11
-183.055
 21
-151.505
 31
0
  0
LINE
  5
D6C
330
A02
100
AcDbEntity
  8
Shape2DView
100
AcDbLine
 10
-183.055
 20
-159.505
 30
0
 11
-180.745
 21
-155.505
 31
0
  0
LINE
  5
D6D
330
A02
100
AcDbEntity
  8
Shape2DView
100
AcDbLine
 10
-174.984
 20
-155.505
 30
0
 11
-172.674
 21
-151.505
 31
0
  0
LINE
  5
D6E
330
A02
100
AcDbEntity
  8
Shape2DView
100
AcDbLine
 10
-172.674
 20
-159.505
 30
0
 11
-174.984
 21
-155.505
 31
0
  0
LINE
  5
D6F
330
A02
100
AcDbEntity
  8
Shape2DView
100
AcDbLine
 10
-172.674
 20
-151.505
 30
0
 11
-168.055
 21
-151.505
 31
0
  0
LINE
  5
D70
330
A02
100
AcDbEntity
  8
Shape2DView
100
AcDbLine
 10
-168.055
 20
-159.505
 30
0
 11
-172.674
 21
-159.505
 31
0
  0
LINE
  5
D71
330
A02
100
AcDbEntity
  8
Shape2DView
100
AcDbLine
 10
-165.745
 20
-155.505
 30
0
 11
-168.055
 21
-151.505
 31
0
  0
LINE
  5
D72
330
A02
100
AcDbEntity
  8
Shape2DView
100
AcDbLine
 10
-168.055
 20
-159.505
 30
0
 11
-165.745
 21
-155.505
 31
0
  0
LINE
  5
D73
330
A02
100
AcDbEntity
  8
Shape2DView
100
AcDbLine
 10
-159.984
 20
-155.505
 30
0
 11
-157.674
 21
-151.505
 31
0
  0
LINE
  5
D74
330
A02
100
AcDbEntity
  8
Shape2DView
100
AcDbLine
 10
-157.674
 20
-159.505
 30
0
 11
-159.984
 21
-155.505
 31
0
  0
LINE
  5
D75
330
A02
100
AcDbEntity
  8
Shape2DView
100
AcDbLine
 10
-157.674
 20
-151.505
 30
0
 11
-153.055
 21
-151.505
 31
0
  0
LINE
  5
D76
330
A02
100
AcDbEntity
  8
Shape2DView
100
AcDbLine
 10
-153.055
 20
-159.505
 30
0
 11
-157.674
 21
-159.505
 31
0
  0
LINE
  5
D77
330
A02
100
AcDbEntity
  8
Shape2DView
100
AcDbLine
 10
-150.745
 20
-155.505
 30
0
 11
-153.055
 21
-151.505
 31
0
  0
LINE
  5
D78
330
A02
100
AcDbEntity
  8
Shape2DView
100
AcDbLine
 10
-153.055
 20
-159.505
 30
0
 11
-150.745
 21
-155.505
 31
0
  0
LINE
  5
D79
330
A02
100
AcDbEntity
  8
Shape2DView
100
AcDbLine
 10
-189.984
 20
-140.505
 30
0
 11
-187.674
 21
-136.505
 31
0
  0
LINE
  5
D7A
330
A02
100
AcDbEntity
  8
Shape2DView
100
AcDbLine
 10
-187.674
 20
-144.505
 30
0
 11
-189.984
 21
-140.505
 31
0
  0
LINE
  5
D7B
330
A02
100
AcDbEntity
  8
Shape2DView
100
AcDbLine
 10
-187.674
 20
-136.505
 30
0
 11
-183.055
 21
-136.505
 31
0
  0
LINE
  5
D7C
330
A02
100
AcDbEntity
  8
Shape2DView
100
AcDbLine
 10
-183.055
 20
-144.505
 30
0
 11
-187.674
 21
-144.505
 31
0
  0
LINE
  5
D7D
330
A02
100
AcDbEntity
  8
Shape2DView
100
AcDbLine
 10
-180.745
 20
-140.505
 30
0
 11
-183.055
 21
-136.505
 31
0
  0
LINE
  5
D7E
330
A02
100
AcDbEntity
  8
Shape2DView
100
AcDbLine
 10
-183.055
 20
-144.505
 30
0
 11
-180.745
 21
-140.505
 31
0
  0
LINE
  5
D7F
330
A02
100
AcDbEntity
  8
Shape2DView
100
AcDbLine
 10
-174.984
 20
-140.505
 30
0
 11
-172.674
 21
-136.505
 31
0
  0
LINE
  5
D80
330
A02
100
AcDbEntity
  8
Shape2DView
100
AcDbLine
 10
-172.674
 20
-144.505
 30
0
 11
-174.984
 21
-140.505
 31
0
  0
LINE
  5
D81
330
A02
100
AcDbEntity
  8
Shape2DView
100
AcDbLine
 10
-172.674
 20
-136.505
 30
0
 11
-168.055
 21
-136.505
 31
0
  0
LINE
  5
D82
330
A02
100
AcDbEntity
  8
Shape2DView
100
AcDbLine
 10
-168.055
 20
-144.505
 30
0
 11
-172.674
 21
-144.505
 31
0
  0
LINE
  5
D83
330
A02
100
AcDbEntity
  8
Shape2DView
100
AcDbLine
 10
-165.745
 20
-140.505
 30
0
 11
-168.055
 21
-136.505
 31
0
  0
LINE
  5
D84
330
A02
100
AcDbEntity
  8
Shape2DView
100
AcDbLine
 10
-168.055
 20
-144.505
 30
0
 11
-165.745
 21
-140.505
 31
0
  0
LINE
  5
D85
330
A02
100
AcDbEntity
  8
Shape2DView
100
AcDbLine
 10
-159.984
 20
-140.505
 30
0
 11
-157.674
 21
-136.505
 31
0
  0
LINE
  5
D86
330
A02
100
AcDbEntity
  8
Shape2DView
100
AcDbLine
 10
-157.674
 20
-144.505
 30
0
 11
-159.984
 21
-140.505
 31
0
  0
LINE
  5
D87
330
A02
100
AcDbEntity
  8
Shape2DView
100
AcDbLine
 10
-157.674
 20
-136.505
 30
0
 11
-153.055
 21
-136.505
 31
0
  0
LINE
  5
D88
330
A02
100
AcDbEntity
  8
Shape2DView
100
AcDbLine
 10
-153.055
 20
-144.505
 30
0
 11
-157.674
 21
-144.505
 31
0
  0
LINE
  5
D89
330
A02
100
AcDbEntity
  8
Shape2DView
100
AcDbLine
 10
-150.745
 20
-140.505
 30
0
 11
-153.055
 21
-136.505
 31
0
  0
LINE
  5
D8A
330
A02
100
AcDbEntity
  8
Shape2DView
100
AcDbLine
 10
-153.055
 20
-144.505
 30
0
 11
-150.745
 21
-140.505
 31
0
  0
LINE
  5
D8B
330
A02
100
AcDbEntity
  8
Shape2DView
100
AcDbLine
 10
-144.984
 20
-155.505
 30
0
 11
-142.674
 21
-151.505
 31
0
  0
LINE
  5
D8C
330
A02
100
AcDbEntity
  8
Shape2DView
100
AcDbLine
 10
-142.674
 20
-159.505
 30
0
 11
-144.984
 21
-155.505
 31
0
  0
LINE
  5
D8D
330
A02
100
AcDbEntity
  8
Shape2DView
100
AcDbLine
 10
-142.674
 20
-151.505
 30
0
 11
-138.055
 21
-151.505
 31
0
  0
LINE
  5
D8E
330
A02
100
AcDbEntity
  8
Shape2DView
100
AcDbLine
 10
-138.055
 20
-159.505
 30
0
 11
-142.674
 21
-159.505
 31
0
  0
LINE
  5
D8F
330
A02
100
AcDbEntity
  8
Shape2DView
100
AcDbLine
 10
-135.745
 20
-155.505
 30
0
 11
-138.055
 21
-151.505
 31
0
  0
LINE
  5
D90
330
A02
100
AcDbEntity
  8
Shape2DView
100
AcDbLine
 10
-138.055
 20
-159.505
 30
0
 11
-135.745
 21
-155.505
 31
0
  0
LINE
  5
D91
330
A02
100
AcDbEntity
  8
Shape2DView
100
AcDbLine
 10
-129.984
 20
-155.505
 30
0
 11
-127.674
 21
-151.505
 31
0
  0
LINE
  5
D92
330
A02
100
AcDbEntity
  8
Shape2DView
100
AcDbLine
 10
-127.674
 20
-159.505
 30
0
 11
-129.984
 21
-155.505
 31
0
  0
LINE
  5
D93
330
A02
100
AcDbEntity
  8
Shape2DView
100
AcDbLine
 10
-127.674
 20
-151.505
 30
0
 11
-123.055
 21
-151.505
 31
0
  0
LINE
  5
D94
330
A02
100
AcDbEntity
  8
Shape2DView
100
AcDbLine
 10
-123.055
 20
-159.505
 30
0
 11
-127.674
 21
-159.505
 31
0
  0
LINE
  5
D95
330
A02
100
AcDbEntity
  8
Shape2DView
100
AcDbLine
 10
-120.745
 20
-155.505
 30
0
 11
-123.055
 21
-151.505
 31
0
  0
LINE
  5
D96
330
A02
100
AcDbEntity
  8
Shape2DView
100
AcDbLine
 10
-123.055
 20
-159.505
 30
0
 11
-120.745
 21
-155.505
 31
0
  0
LINE
  5
D97
330
A02
100
AcDbEntity
  8
Shape2DView
100
AcDbLine
 10
-114.984
 20
-155.505
 30
0
 11
-112.674
 21
-151.505
 31
0
  0
LINE
  5
D98
330
A02
100
AcDbEntity
  8
Shape2DView
100
AcDbLine
 10
-112.674
 20
-159.505
 30
0
 11
-114.984
 21
-155.505
 31
0
  0
LINE
  5
D99
330
A02
100
AcDbEntity
  8
Shape2DView
100
AcDbLine
 10
-112.674
 20
-151.505
 30
0
 11
-108.055
 21
-151.505
 31
0
  0
LINE
  5
D9A
330
A02
100
AcDbEntity
  8
Shape2DView
100
AcDbLine
 10
-108.055
 20
-159.505
 30
0
 11
-112.674
 21
-159.505
 31
0
  0
LINE
  5
D9B
330
A02
100
AcDbEntity
  8
Shape2DView
100
AcDbLine
 10
-105.745
 20
-155.505
 30
0
 11
-108.055
 21
-151.505
 31
0
  0
LINE
  5
D9C
330
A02
100
AcDbEntity
  8
Shape2DView
100
AcDbLine
 10
-108.055
 20
-159.505
 30
0
 11
-105.745
 21
-155.505
 31
0
  0
LINE
  5
D9D
330
A02
100
AcDbEntity
  8
Shape2DView
100
AcDbLine
 10
-144.984
 20
-140.505
 30
0
 11
-142.674
 21
-136.505
 31
0
  0
LINE
  5
D9E
330
A02
100
AcDbEntity
  8
Shape2DView
100
AcDbLine
 10
-142.674
 20
-144.505
 30
0
 11
-144.984
 21
-140.505
 31
0
  0
LINE
  5
D9F
330
A02
100
AcDbEntity
  8
Shape2DView
100
AcDbLine
 10
-142.674
 20
-136.505
 30
0
 11
-138.055
 21
-136.505
 31
0
  0
LINE
  5
DA0
330
A02
100
AcDbEntity
  8
Shape2DView
100
AcDbLine
 10
-138.055
 20
-144.505
 30
0
 11
-142.674
 21
-144.505
 31
0
  0
LINE
  5
DA1
330
A02
100
AcDbEntity
  8
Shape2DView
100
AcDbLine
 10
-135.745
 20
-140.505
 30
0
 11
-138.055
 21
-136.505
 31
0
  0
LINE
  5
DA2
330
A02
100
AcDbEntity
  8
Shape2DView
100
AcDbLine
 10
-138.055
 20
-144.505
 30
0
 11
-135.745
 21
-140.505
 31
0
  0
LINE
  5
DA3
330
A02
100
AcDbEntity
  8
Shape2DView
100
AcDbLine
 10
-129.984
 20
-140.505
 30
0
 11
-127.674
 21
-136.505
 31
0
  0
LINE
  5
DA4
330
A02
100
AcDbEntity
  8
Shape2DView
100
AcDbLine
 10
-127.674
 20
-144.505
 30
0
 11
-129.984
 21
-140.505
 31
0
  0
LINE
  5
DA5
330
A02
100
AcDbEntity
  8
Shape2DView
100
AcDbLine
 10
-127.674
 20
-136.505
 30
0
 11
-123.055
 21
-136.505
 31
0
  0
LINE
  5
DA6
330
A02
100
AcDbEntity
  8
Shape2DView
100
AcDbLine
 10
-123.055
 20
-144.505
 30
0
 11
-127.674
 21
-144.505
 31
0
  0
LINE
  5
DA7
330
A02
100
AcDbEntity
  8
Shape2DView
100
AcDbLine
 10
-120.745
 20
-140.505
 30
0
 11
-123.055
 21
-136.505
 31
0
  0
LINE
  5
DA8
330
A02
100
AcDbEntity
  8
Shape2DView
100
AcDbLine
 10
-123.055
 20
-144.505
 30
0
 11
-120.745
 21
-140.505
 31
0
  0
CIRCLE
  5
DA9
330
A02
100
AcDbEntity
  8
Shape2DView
100
AcDbCircle
 10
-100.541
 20
-147.05
 40
5
  0
LINE
  5
DAA
330
A02
100
AcDbEntity
  8
Shape2DView
100
AcDbLine
 10
-114.984
 20
-140.505
 30
0
 11
-112.674
 21
-136.505
 31
0
  0
LINE
  5
DAB
330
A02
100
AcDbEntity
  8
Shape2DView
100
AcDbLine
 10
-112.674
 20
-144.505
 30
0
 11
-114.984
 21
-140.505
 31
0
  0
LINE
  5
DAC
330
A02
100
AcDbEntity
  8
Shape2DView
100
AcDbLine
 10
-112.674
 20
-136.505
 30
0
 11
-108.055
 21
-136.505
 31
0
  0
LINE
  5
DAD
330
A02
100
AcDbEntity
  8
Shape2DView
100
AcDbLine
 10
-108.055
 20
-144.505
 30
0
 11
-112.674
 21
-144.505
 31
0
  0
LINE
  5
DAE
330
A02
100
AcDbEntity
  8
Shape2DView
100
AcDbLine
 10
-105.745
 20
-140.505
 30
0
 11
-108.055
 21
-136.505
 31
0
  0
LINE
  5
DAF
330
A02
100
AcDbEntity
  8
Shape2DView
100
AcDbLine
 10
-108.055
 20
-144.505
 30
0
 11
-105.745
 21
-140.505
 31
0
  0
LINE
  5
DB0
330
A02
100
AcDbEntity
  8
Shape2DView
100
AcDbLine
 10
-189.984
 20
-125.505
 30
0
 11
-187.674
 21
-121.505
 31
0
  0
LINE
  5
DB1
330
A02
100
AcDbEntity
  8
Shape2DView
100
AcDbLine
 10
-187.674
 20
-129.505
 30
0
 11
-189.984
 21
-125.505
 31
0
  0
LINE
  5
DB2
330
A02
100
AcDbEntity
  8
Shape2DView
100
AcDbLine
 10
-187.674
 20
-121.505
 30
0
 11
-183.055
 21
-121.505
 31
0
  0
LINE
  5
DB3
330
A02
100
AcDbEntity
  8
Shape2DView
100
AcDbLine
 10
-183.055
 20
-129.505
 30
0
 11
-187.674
 21
-129.505
 31
0
  0
LINE
  5
DB4
330
A02
100
AcDbEntity
  8
Shape2DView
100
AcDbLine
 10
-180.745
 20
-125.505
 30
0
 11
-183.055
 21
-121.505
 31
0
  0
LINE
  5
DB5
330
A02
100
AcDbEntity
  8
Shape2DView
100
AcDbLine
 10
-183.055
 20
-129.505
 30
0
 11
-180.745
 21
-125.505
 31
0
  0
LINE
  5
DB6
330
A02
100
AcDbEntity
  8
Shape2DView
100
AcDbLine
 10
-174.984
 20
-125.505
 30
0
 11
-172.674
 21
-121.505
 31
0
  0
LINE
  5
DB7
330
A02
100
AcDbEntity
  8
Shape2DView
100
AcDbLine
 10
-172.674
 20
-129.505
 30
0
 11
-174.984
 21
-125.505
 31
0
  0
LINE
  5
DB8
330
A02
100
AcDbEntity
  8
Shape2DView
100
AcDbLine
 10
-172.674
 20
-121.505
 30
0
 11
-168.055
 21
-121.505
 31
0
  0
LINE
  5
DB9
330
A02
100
AcDbEntity
  8
Shape2DView
100
AcDbLine
 10
-168.055
 20
-129.505
 30
0
 11
-172.674
 21
-129.505
 31
0
  0
LINE
  5
DBA
330
A02
100
AcDbEntity
  8
Shape2DView
100
AcDbLine
 10
-165.745
 20
-125.505
 30
0
 11
-168.055
 21
-121.505
 31
0
  0
LINE
  5
DBB
330
A02
100
AcDbEntity
  8
Shape2DView
100
AcDbLine
 10
-168.055
 20
-129.505
 30
0
 11
-165.745
 21
-125.505
 31
0
  0
LINE
  5
DBC
330
A02
100
AcDbEntity
  8
Shape2DView
100
AcDbLine
 10
-159.984
 20
-125.505
 30
0
 11
-157.674
 21
-121.505
 31
0
  0
LINE
  5
DBD
330
A02
100
AcDbEntity
  8
Shape2DView
100
AcDbLine
 10
-157.674
 20
-129.505
 30
0
 11
-159.984
 21
-125.505
 31
0
  0
LINE
  5
DBE
330
A02
100
AcDbEntity
  8
Shape2DView
100
AcDbLine
 10
-157.674
 20
-121.505
 30
0
 11
-153.055
 21
-121.505
 31
0
  0
LINE
  5
DBF
330
A02
100
AcDbEntity
  8
Shape2DView
100
AcDbLine
 10
-153.055
 20
-129.505
 30
0
 11
-157.674
 21
-129.505
 31
0
  0
LINE
  5
DC0
330
A02
100
AcDbEntity
  8
Shape2DView
100
AcDbLine
 10
-150.745
 20
-125.505
 30
0
 11
-153.055
 21
-121.505
 31
0
  0
LINE
  5
DC1
330
A02
100
AcDbEntity
  8
Shape2DView
100
AcDbLine
 10
-153.055
 20
-129.505
 30
0
 11
-150.745
 21
-125.505
 31
0
  0
CIRCLE
  5
DC2
330
A02
100
AcDbEntity
  8
Shape2DView
100
AcDbCircle
 10
-195
 20
-115.87
 40
4
  0
LINE
  5
DC3
330
A02
100
AcDbEntity
  8
Shape2DView
100
AcDbLine
 10
-144.984
 20
-125.505
 30
0
 11
-142.674
 21
-121.505
 31
0
  0
LINE
  5
DC4
330
A02
100
AcDbEntity
  8
Shape2DView
100
AcDbLine
 10
-142.674
 20
-129.505
 30
0
 11
-144.984
 21
-125.505
 31
0
  0
LINE
  5
DC5
330
A02
100
AcDbEntity
  8
Shape2DView
100
AcDbLine
 10
-142.674
 20
-121.505
 30
0
 11
-138.055
 21
-121.505
 31
0
  0
LINE
  5
DC6
330
A02
100
AcDbEntity
  8
Shape2DView
100
AcDbLine
 10
-138.055
 20
-129.505
 30
0
 11
-142.674
 21
-129.505
 31
0
  0
LINE
  5
DC7
330
A02
100
AcDbEntity
  8
Shape2DView
100
AcDbLine
 10
-135.745
 20
-125.505
 30
0
 11
-138.055
 21
-121.505
 31
0
  0
LINE
  5
DC8
330
A02
100
AcDbEntity
  8
Shape2DView
100
AcDbLine
 10
-138.055
 20
-129.505
 30
0
 11
-135.745
 21
-125.505
 31
0
  0
LINE
  5
DC9
330
A02
100
AcDbEntity
  8
Shape2DView
100
AcDbLine
 10
-129.984
 20
-125.505
 30
0
 11
-127.674
 21
-121.505
 31
0
  0
LINE
  5
DCA
330
A02
100
AcDbEntity
  8
Shape2DView
100
AcDbLine
 10
-127.674
 20
-129.505
 30
0
 11
-129.984
 21
-125.505
 31
0
  0
LINE
  5
DCB
330
A02
100
AcDbEntity
  8
Shape2DView
100
AcDbLine
 10
-127.674
 20
-121.505
 30
0
 11
-123.055
 21
-121.505
 31
0
  0
LINE
  5
DCC
330
A02
100
AcDbEntity
  8
Shape2DView
100
AcDbLine
 10
-123.055
 20
-129.505
 30
0
 11
-127.674
 21
-129.505
 31
0
  0
LINE
  5
DCD
330
A02
100
AcDbEntity
  8
Shape2DView
100
AcDbLine
 10
-120.745
 20
-125.505
 30
0
 11
-123.055
 21
-121.505
 31
0
  0
LINE
  5
DCE
330
A02
100
AcDbEntity
  8
Shape2DView
100
AcDbLine
 10
-123.055
 20
-129.505
 30
0
 11
-120.745
 21
-125.505
 31
0
  0
LINE
  5
DCF
330
A02
100
AcDbEntity
  8
Shape2DView
100
AcDbLine
 10
-114.984
 20
-125.505
 30
0
 11
-112.674
 21
-121.505
 31
0
  0
LINE
  5
DD0
330
A02
100
AcDbEntity
  8
Shape2DView
100
AcDbLine
 10
-112.674
 20
-129.505
 30
0
 11
-114.984
 21
-125.505
 31
0
  0
LINE
  5
DD1
330
A02
100
AcDbEntity
  8
Shape2DView
100
AcDbLine
 10
-112.674
 20
-121.505
 30
0
 11
-108.055
 21
-121.505
 31
0
  0
LINE
  5
DD2
330
A02
100
AcDbEntity
  8
Shape2DView
100
AcDbLine
 10
-108.055
 20
-129.505
 30
0
 11
-112.674
 21
-129.505
 31
0
  0
LINE
  5
DD3
330
A02
100
AcDbEntity
  8
Shape2DView
100
AcDbLine
 10
-105.745
 20
-125.505
 30
0
 11
-108.055
 21
-121.505
 31
0
  0
LINE
  5
DD4
330
A02
100
AcDbEntity
  8
Shape2DView
100
AcDbLine
 10
-108.055
 20
-129.505
 30
0
 11
-105.745
 21
-125.505
 31
0
  0
CIRCLE
  5
DD5
330
A02
100
AcDbEntity
  8
Shape2DView
100
AcDbCircle
 10
-98.804
 20
-156.583
 40
1.2
  0
LINE
  5
DD6
330
A02
100
AcDbEntity
  8
Shape2DView
100
AcDbLine
 10
-91.622
 20
-155.51
 30
0
 11
-91.622
 21
-144.298
 31
0
  0
LINE
  5
DD7
330
A02
100
AcDbEntity
  8
Shape2DView
100
AcDbLine
 10
45.541
 20
-155.51
 30
0
 11
-91.622
 21
-155.51
 31
0
  0
LINE
  5
DD8
330
A02
100
AcDbEntity
  8
Shape2DView
100
AcDbLine
 10
-91.622
 20
-144.298
 30
0
 11
45.541
 21
-144.298
 31
0
  0
LINE
  5
DD9
330
A02
100
AcDbEntity
  8
Shape2DView
100
AcDbLine
 10
45.541
 20
-144.298
 30
0
 11
45.541
 21
-155.51
 31
0
  0
LINE
  5
DDA
330
A02
100
AcDbEntity
  8
Shape2DView
100
AcDbLine
 10
5.13141
 20
-200.505
 30
0
 11
7.4412
 21
-196.505
 31
0
  0
LINE
  5
DDB
330
A02
100
AcDbEntity
  8
Shape2DView
100
AcDbLine
 10
7.4412
 20
-204.505
 30
0
 11
5.13141
 21
-200.505
 31
0
  0
LINE
  5
DDC
330
A02
100
AcDbEntity
  8
Shape2DView
100
AcDbLine
 10
7.4412
 20
-196.505
 30
0
 11
12.0602
 21
-196.505
 31
0
  0
LINE
  5
DDD
330
A02
100
AcDbEntity
  8
Shape2DView
100
AcDbLine
 10
12.0602
 20
-204.505
 30
0
 11
7.4412
 21
-204.505
 31
0
  0
LINE
  5
DDE
330
A02
100
AcDbEntity
  8
Shape2DView
100
AcDbLine
 10
12.0602
 20
-196.505
 30
0
 11
14.37
 21
-200.505
 31
0
  0
LINE
  5
DDF
330
A02
100
AcDbEntity
  8
Shape2DView
100
AcDbLine
 10
14.37
 20
-200.505
 30
0
 11
12.0602
 21
-204.505
 31
0
  0
LINE
  5
DE0
330
A02
100
AcDbEntity
  8
Shape2DView
100
AcDbLine
 10
20.1314
 20
-200.505
 30
0
 11
22.4412
 21
-196.505
 31
0
  0
LINE
  5
DE1
330
A02
100
AcDbEntity
  8
Shape2DView
100
AcDbLine
 10
22.4412
 20
-204.505
 30
0
 11
20.1314
 21
-200.505
 31
0
  0
LINE
  5
DE2
330
A02
100
AcDbEntity
  8
Shape2DView
100
AcDbLine
 10
22.4412
 20
-196.505
 30
0
 11
27.0602
 21
-196.505
 31
0
  0
LINE
  5
DE3
330
A02
100
AcDbEntity
  8
Shape2DView
100
AcDbLine
 10
27.0602
 20
-204.505
 30
0
 11
22.4412
 21
-204.505
 31
0
  0
LINE
  5
DE4
330
A02
100
AcDbEntity
  8
Shape2DView
100
AcDbLine
 10
27.0602
 20
-196.505
 30
0
 11
29.37
 21
-200.505
 31
0
  0
LINE
  5
DE5
330
A02
100
AcDbEntity
  8
Shape2DView
100
AcDbLine
 10
29.37
 20
-200.505
 30
0
 11
27.0602
 21
-204.505
 31
0
  0
LINE
  5
DE6
330
A02
100
AcDbEntity
  8
Shape2DView
100
AcDbLine
 10
35.1314
 20
-200.505
 30
0
 11
37.4412
 21
-196.505
 31
0
  0
LINE
  5
DE7
330
A02
100
AcDbEntity
  8
Shape2DView
100
AcDbLine
 10
37.4412
 20
-204.505
 30
0
 11
35.1314
 21
-200.505
 31
0
  0
LINE
  5
DE8
330
A02
100
AcDbEntity
  8
Shape2DView
100
AcDbLine
 10
37.4412
 20
-196.505
 30
0
 11
42.0602
 21
-196.505
 31
0
  0
LINE
  5
DE9
330
A02
100
AcDbEntity
  8
Shape2DView
100
AcDbLine
 10
42.0602
 20
-204.505
 30
0
 11
37.4412
 21
-204.505
 31
0
  0
LINE
  5
DEA
330
A02
100
AcDbEntity
  8
Shape2DView
100
AcDbLine
 10
42.0602
 20
-196.505
 30
0
 11
44.37
 21
-200.505
 31
0
  0
LINE
  5
DEB
330
A02
100
AcDbEntity
  8
Shape2DView
100
AcDbLine
 10
44.37
 20
-200.505
 30
0
 11
42.0602
 21
-204.505
 31
0
  0
LINE
  5
DEC
330
A02
100
AcDbEntity
  8
Shape2DView
100
AcDbLine
 10
56.9702
 20
-196.505
 30
0
 11
52.3512
 21
-196.505
 31
0
  0
LINE
  5
DED
330
A02
100
AcDbEntity
  8
Shape2DView
100
AcDbLine
 10
59.28
 20
-200.505
 30
0
 11
56.9702
 21
-196.505
 31
0
  0
LINE
  5
DEE
330
A02
100
AcDbEntity
  8
Shape2DView
100
AcDbLine
 10
52.3512
 20
-196.505
 30
0
 11
50.0414
 21
-200.505
 31
0
  0
LINE
  5
DEF
330
A02
100
AcDbEntity
  8
Shape2DView
100
AcDbLine
 10
56.9702
 20
-204.505
 30
0
 11
59.28
 21
-200.505
 31
0
  0
LINE
  5
DF0
330
A02
100
AcDbEntity
  8
Shape2DView
100
AcDbLine
 10
50.0414
 20
-200.505
 30
0
 11
52.3512
 21
-204.505
 31
0
  0
LINE
  5
DF1
330
A02
100
AcDbEntity
  8
Shape2DView
100
AcDbLine
 10
52.3512
 20
-204.505
 30
0
 11
56.9702
 21
-204.505
 31
0
  0
LINE
  5
DF2
330
A02
100
AcDbEntity
  8
Shape2DView
100
AcDbLine
 10
71.9702
 20
-196.505
 30
0
 11
67.3512
 21
-196.505
 31
0
  0
LINE
  5
DF3
330
A02
100
AcDbEntity
  8
Shape2DView
100
AcDbLine
 10
74.28
 20
-200.505
 30
0
 11
71.9702
 21
-196.505
 31
0
  0
LINE
  5
DF4
330
A02
100
AcDbEntity
  8
Shape2DView
100
AcDbLine
 10
67.3512
 20
-196.505
 30
0
 11
65.0414
 21
-200.505
 31
0
  0
LINE
  5
DF5
330
A02
100
AcDbEntity
  8
Shape2DView
100
AcDbLine
 10
71.9702
 20
-204.505
 30
0
 11
74.28
 21
-200.505
 31
0
  0
LINE
  5
DF6
330
A02
100
AcDbEntity
  8
Shape2DView
100
AcDbLine
 10
65.0414
 20
-200.505
 30
0
 11
67.3512
 21
-204.505
 31
0
  0
LINE
  5
DF7
330
A02
100
AcDbEntity
  8
Shape2DView
100
AcDbLine
 10
67.3512
 20
-204.505
 30
0
 11
71.9702
 21
-204.505
 31
0
  0
LINE
  5
DF8
330
A02
100
AcDbEntity
  8
Shape2DView
100
AcDbLine
 10
86.9702
 20
-196.505
 30
0
 11
82.3512
 21
-196.505
 31
0
  0
LINE
  5
DF9
330
A02
100
AcDbEntity
  8
Shape2DView
100
AcDbLine
 10
89.28
 20
-200.505
 30
0
 11
86.9702
 21
-196.505
 31
0
  0
LINE
  5
DFA
330
A02
100
AcDbEntity
  8
Shape2DView
100
AcDbLine
 10
82.3512
 20
-196.505
 30
0
 11
80.0414
 21
-200.505
 31
0
  0
LINE
  5
DFB
330
A02
100
AcDbEntity
  8
Shape2DView
100
AcDbLine
 10
86.9702
 20
-204.505
 30
0
 11
89.28
 21
-200.505
 31
0
  0
LINE
  5
DFC
330
A02
100
AcDbEntity
  8
Shape2DView
100
AcDbLine
 10
80.0414
 20
-200.505
 30
0
 11
82.3512
 21
-204.505
 31
0
  0
LINE
  5
DFD
330
A02
100
AcDbEntity
  8
Shape2DView
100
AcDbLine
 10
82.3512
 20
-204.505
 30
0
 11
86.9702
 21
-204.505
 31
0
  0
LINE
  5
DFE
330
A02
100
AcDbEntity
  8
Shape2DView
100
AcDbLine
 10
5.13141
 20
-185.505
 30
0
 11
7.4412
 21
-181.505
 31
0
  0
LINE
  5
DFF
330
A02
100
AcDbEntity
  8
Shape2DView
100
AcDbLine
 10
7.4412
 20
-189.505
 30
0
 11
5.13141
 21
-185.505
 31
0
  0
LINE
  5
E00
330
A02
100
AcDbEntity
  8
Shape2DView
100
AcDbLine
 10
7.4412
 20
-181.505
 30
0
 11
12.0602
 21
-181.505
 31
0
  0
LINE
  5
E01
330
A02
100
AcDbEntity
  8
Shape2DView
100
AcDbLine
 10
12.0602
 20
-189.505
 30
0
 11
7.4412
 21
-189.505
 31
0
  0
LINE
  5
E02
330
A02
100
AcDbEntity
  8
Shape2DView
100
AcDbLine
 10
12.0602
 20
-181.505
 30
0
 11
14.37
 21
-185.505
 31
0
  0
LINE
  5
E03
330
A02
100
AcDbEntity
  8
Shape2DView
100
AcDbLine
 10
14.37
 20
-185.505
 30
0
 11
12.0602
 21
-189.505
 31
0
  0
LINE
  5
E04
330
A02
100
AcDbEntity
  8
Shape2DView
100
AcDbLine
 10
20.1314
 20
-185.505
 30
0
 11
22.4412
 21
-181.505
 31
0
  0
LINE
  5
E05
330
A02
100
AcDbEntity
  8
Shape2DView
100
AcDbLine
 10
22.4412
 20
-189.505
 30
0
 11
20.1314
 21
-185.505
 31
0
  0
LINE
  5
E06
330
A02
100
AcDbEntity
  8
Shape2DView
100
AcDbLine
 10
22.4412
 20
-181.505
 30
0
 11
27.0602
 21
-181.505
 31
0
  0
LINE
  5
E07
330
A02
100
AcDbEntity
  8
Shape2DView
100
AcDbLine
 10
27.0602
 20
-189.505
 30
0
 11
22.4412
 21
-189.505
 31
0
  0
LINE
  5
E08
330
A02
100
AcDbEntity
  8
Shape2DView
100
AcDbLine
 10
27.0602
 20
-181.505
 30
0
 11
29.37
 21
-185.505
 31
0
  0
LINE
  5
E09
330
A02
100
AcDbEntity
  8
Shape2DView
100
AcDbLine
 10
29.37
 20
-185.505
 30
0
 11
27.0602
 21
-189.505
 31
0
  0
LINE
  5
E0A
330
A02
100
AcDbEntity
  8
Shape2DView
100
AcDbLine
 10
35.1314
 20
-185.505
 30
0
 11
37.4412
 21
-181.505
 31
0
  0
LINE
  5
E0B
330
A02
100
AcDbEntity
  8
Shape2DView
100
AcDbLine
 10
37.4412
 20
-189.505
 30
0
 11
35.1314
 21
-185.505
 31
0
  0
LINE
  5
E0C
330
A02
100
AcDbEntity
  8
Shape2DView
100
AcDbLine
 10
37.4412
 20
-181.505
 30
0
 11
42.0602
 21
-181.505
 31
0
  0
LINE
  5
E0D
330
A02
100
AcDbEntity
  8
Shape2DView
100
AcDbLine
 10
42.0602
 20
-189.505
 30
0
 11
37.4412
 21
-189.505
 31
0
  0
LINE
  5
E0E
330
A02
100
AcDbEntity
  8
Shape2DView
100
AcDbLine
 10
42.0602
 20
-181.505
 30
0
 11
44.37
 21
-185.505
 31
0
  0
LINE
  5
E0F
330
A02
100
AcDbEntity
  8
Shape2DView
100
AcDbLine
 10
44.37
 20
-185.505
 30
0
 11
42.0602
 21
-189.505
 31
0
  0
CIRCLE
  5
E10
330
A02
100
AcDbEntity
  8
Shape2DView
100
AcDbCircle
 10
37.343
 20
-166.372
 40
1.6
  0
LINE
  5
E11
330
A02
100
AcDbEntity
  8
Shape2DView
100
AcDbLine
 10
56.9702
 20
-181.505
 30
0
 11
52.3512
 21
-181.505
 31
0
  0
LINE
  5
E12
330
A02
100
AcDbEntity
  8
Shape2DView
100
AcDbLine
 10
59.28
 20
-185.505
 30
0
 11
56.9702
 21
-181.505
 31
0
  0
LINE
  5
E13
330
A02
100
AcDbEntity
  8
Shape2DView
100
AcDbLine
 10
52.3512
 20
-181.505
 30
0
 11
50.0414
 21
-185.505
 31
0
  0
LINE
  5
E14
330
A02
100
AcDbEntity
  8
Shape2DView
100
AcDbLine
 10
56.9702
 20
-189.505
 30
0
 11
59.28
 21
-185.505
 31
0
  0
LINE
  5
E15
330
A02
100
AcDbEntity
  8
Shape2DView
100
AcDbLine
 10
50.0414
 20
-185.505
 30
0
 11
52.3512
 21
-189.505
 31
0
  0
LINE
  5
E16
330
A02
100
AcDbEntity
  8
Shape2DView
100
AcDbLine
 10
52.3512
 20
-189.505
 30
0
 11
56.9702
 21
-189.505
 31
0
  0
LINE
  5
E17
330
A02
100
AcDbEntity
  8
Shape2DView
100
AcDbLine
 10
71.9702
 20
-181.505
 30
0
 11
67.3512
 21
-181.505
 31
0
  0
LINE
  5
E18
330
A02
100
AcDbEntity
  8
Shape2DView
100
AcDbLine
 10
74.28
 20
-185.505
 30
0
 11
71.9702
 21
-181.505
 31
0
  0
LINE
  5
E19
330
A02
100
AcDbEntity
  8
Shape2DView
100
AcDbLine
 10
67.3512
 20
-181.505
 30
0
 11
65.0414
 21
-185.505
 31
0
  0
LINE
  5
E1A
330
A02
100
AcDbEntity
  8
Shape2DView
100
AcDbLine
 10
71.9702
 20
-189.505
 30
0
 11
74.28
 21
-185.505
 31
0
  0
LINE
  5
E1B
330
A02
100
AcDbEntity
  8
Shape2DView
100
AcDbLine
 10
65.0414
 20
-185.505
 30
0
 11
67.3512
 21
-189.505
 31
0
  0
LINE
  5
E1C
330
A02
100
AcDbEntity
  8
Shape2DView
100
AcDbLine
 10
67.3512
 20
-189.505
 30
0
 11
71.9702
 21
-189.505
 31
0
  0
LINE
  5
E1D
330
A02
100
AcDbEntity
  8
Shape2DView
100
AcDbLine
 10
86.9702
 20
-181.505
 30
0
 11
82.3512
 21
-181.505
 31
0
  0
LINE
  5
E1E
330
A02
100
AcDbEntity
  8
Shape2DView
100
AcDbLine
 10
89.28
 20
-185.505
 30
0
 11
86.9702
 21
-181.505
 31
0
  0
LINE
  5
E1F
330
A02
100
AcDbEntity
  8
Shape2DView
100
AcDbLine
 10
82.3512
 20
-181.505
 30
0
 11
80.0414
 21
-185.505
 31
0
  0
LINE
  5
E20
330
A02
100
AcDbEntity
  8
Shape2DView
100
AcDbLine
 10
86.9702
 20
-189.505
 30
0
 11
89.28
 21
-185.505
 31
0
  0
LINE
  5
E21
330
A02
100
AcDbEntity
  8
Shape2DView
100
AcDbLine
 10
80.0414
 20
-185.505
 30
0
 11
82.3512
 21
-189.505
 31
0
  0
LINE
  5
E22
330
A02
100
AcDbEntity
  8
Shape2DView
100
AcDbLine
 10
82.3512
 20
-189.505
 30
0
 11
86.9702
 21
-189.505
 31
0
  0
LINE
  5
E23
330
A02
100
AcDbEntity
  8
Shape2DView
100
AcDbLine
 10
56.9702
 20
-166.505
 30
0
 11
52.3512
 21
-166.505
 31
0
  0
LINE
  5
E24
330
A02
100
AcDbEntity
  8
Shape2DView
100
AcDbLine
 10
59.28
 20
-170.505
 30
0
 11
56.9702
 21
-166.505
 31
0
  0
LINE
  5
E25
330
A02
100
AcDbEntity
  8
Shape2DView
100
AcDbLine
 10
52.3512
 20
-166.505
 30
0
 11
50.0414
 21
-170.505
 31
0
  0
LINE
  5
E26
330
A02
100
AcDbEntity
  8
Shape2DView
100
AcDbLine
 10
56.9702
 20
-174.505
 30
0
 11
59.28
 21
-170.505
 31
0
  0
LINE
  5
E27
330
A02
100
AcDbEntity
  8
Shape2DView
100
AcDbLine
 10
50.0414
 20
-170.505
 30
0
 11
52.3512
 21
-174.505
 31
0
  0
LINE
  5
E28
330
A02
100
AcDbEntity
  8
Shape2DView
100
AcDbLine
 10
52.3512
 20
-174.505
 30
0
 11
56.9702
 21
-174.505
 31
0
  0
LINE
  5
E29
330
A02
100
AcDbEntity
  8
Shape2DView
100
AcDbLine
 10
71.9702
 20
-166.505
 30
0
 11
67.3512
 21
-166.505
 31
0
  0
LINE
  5
E2A
330
A02
100
AcDbEntity
  8
Shape2DView
100
AcDbLine
 10
74.28
 20
-170.505
 30
0
 11
71.9702
 21
-166.505
 31
0
  0
LINE
  5
E2B
330
A02
100
AcDbEntity
  8
Shape2DView
100
AcDbLine
 10
67.3512
 20
-166.505
 30
0
 11
65.0414
 21
-170.505
 31
0
  0
LINE
  5
E2C
330
A02
100
AcDbEntity
  8
Shape2DView
100
AcDbLine
 10
71.9702
 20
-174.505
 30
0
 11
74.28
 21
-170.505
 31
0
  0
LINE
  5
E2D
330
A02
100
AcDbEntity
  8
Shape2DView
100
AcDbLine
 10
65.0414
 20
-170.505
 30
0
 11
67.3512
 21
-174.505
 31
0
  0
LINE
  5
E2E
330
A02
100
AcDbEntity
  8
Shape2DView
100
AcDbLine
 10
67.3512
 20
-174.505
 30
0
 11
71.9702
 21
-174.505
 31
0
  0
CIRCLE
  5
E2F
330
A02
100
AcDbEntity
  8
Shape2DView
100
AcDbCircle
 10
52.696
 20
-163.07
 40
1.2
  0
LINE
  5
E30
330
A02
100
AcDbEntity
  8
Shape2DView
100
AcDbLine
 10
86.9702
 20
-166.505
 30
0
 11
82.3512
 21
-166.505
 31
0
  0
LINE
  5
E31
330
A02
100
AcDbEntity
  8
Shape2DView
100
AcDbLine
 10
89.28
 20
-170.505
 30
0
 11
86.9702
 21
-166.505
 31
0
  0
LINE
  5
E32
330
A02
100
AcDbEntity
  8
Shape2DView
100
AcDbLine
 10
82.3512
 20
-166.505
 30
0
 11
80.0414
 21
-170.505
 31
0
  0
LINE
  5
E33
330
A02
100
AcDbEntity
  8
Shape2DView
100
AcDbLine
 10
86.9702
 20
-174.505
 30
0
 11
89.28
 21
-170.505
 31
0
  0
LINE
  5
E34
330
A02
100
AcDbEntity
  8
Shape2DView
100
AcDbLine
 10
80.0414
 20
-170.505
 30
0
 11
82.3512
 21
-174.505
 31
0
  0
LINE
  5
E35
330
A02
100
AcDbEntity
  8
Shape2DView
100
AcDbLine
 10
82.3512
 20
-174.505
 30
0
 11
86.9702
 21
-174.505
 31
0
  0
LINE
  5
E36
330
A02
100
AcDbEntity
  8
Shape2DView
100
AcDbLine
 10
101.97
 20
-196.505
 30
0
 11
97.3512
 21
-196.505
 31
0
  0
LINE
  5
E37
330
A02
100
AcDbEntity
  8
Shape2DView
100
AcDbLine
 10
104.28
 20
-200.505
 30
0
 11
101.97
 21
-196.505
 31
0
  0
LINE
  5
E38
330
A02
100
AcDbEntity
  8
Shape2DView
100
AcDbLine
 10
97.3512
 20
-196.505
 30
0
 11
95.0414
 21
-200.505
 31
0
  0
LINE
  5
E39
330
A02
100
AcDbEntity
  8
Shape2DView
100
AcDbLine
 10
101.97
 20
-204.505
 30
0
 11
104.28
 21
-200.505
 31
0
  0
LINE
  5
E3A
330
A02
100
AcDbEntity
  8
Shape2DView
100
AcDbLine
 10
95.0414
 20
-200.505
 30
0
 11
97.3512
 21
-204.505
 31
0
  0
LINE
  5
E3B
330
A02
100
AcDbEntity
  8
Shape2DView
100
AcDbLine
 10
97.3512
 20
-204.505
 30
0
 11
101.97
 21
-204.505
 31
0
  0
LINE
  5
E3C
330
A02
100
AcDbEntity
  8
Shape2DView
100
AcDbLine
 10
116.97
 20
-196.505
 30
0
 11
112.351
 21
-196.505
 31
0
  0
LINE
  5
E3D
330
A02
100
AcDbEntity
  8
Shape2DView
100
AcDbLine
 10
119.28
 20
-200.505
 30
0
 11
116.97
 21
-196.505
 31
0
  0
LINE
  5
E3E
330
A02
100
AcDbEntity
  8
Shape2DView
100
AcDbLine
 10
112.351
 20
-196.505
 30
0
 11
110.041
 21
-200.505
 31
0
  0
LINE
  5
E3F
330
A02
100
AcDbEntity
  8
Shape2DView
100
AcDbLine
 10
116.97
 20
-204.505
 30
0
 11
119.28
 21
-200.505
 31
0
  0
LINE
  5
E40
330
A02
100
AcDbEntity
  8
Shape2DView
100
AcDbLine
 10
110.041
 20
-200.505
 30
0
 11
112.351
 21
-204.505
 31
0
  0
LINE
  5
E41
330
A02
100
AcDbEntity
  8
Shape2DView
100
AcDbLine
 10
112.351
 20
-204.505
 30
0
 11
116.97
 21
-204.505
 31
0
  0
LINE
  5
E42
330
A02
100
AcDbEntity
  8
Shape2DView
100
AcDbLine
 10
131.97
 20
-196.505
 30
0
 11
127.351
 21
-196.505
 31
0
  0
LINE
  5
E43
330
A02
100
AcDbEntity
  8
Shape2DView
100
AcDbLine
 10
134.28
 20
-200.505
 30
0
 11
131.97
 21
-196.505
 31
0
  0
LINE
  5
E44
330
A02
100
AcDbEntity
  8
Shape2DView
100
AcDbLine
 10
127.351
 20
-196.505
 30
0
 11
125.041
 21
-200.505
 31
0
  0
LINE
  5
E45
330
A02
100
AcDbEntity
  8
Shape2DView
100
AcDbLine
 10
131.97
 20
-204.505
 30
0
 11
134.28
 21
-200.505
 31
0
  0
LINE
  5
E46
330
A02
100
AcDbEntity
  8
Shape2DView
100
AcDbLine
 10
125.041
 20
-200.505
 30
0
 11
127.351
 21
-204.505
 31
0
  0
LINE
  5
E47
330
A02
100
AcDbEntity
  8
Shape2DView
100
AcDbLine
 10
127.351
 20
-204.505
 30
0
 11
131.97
 21
-204.505
 31
0
  0
LINE
  5
E48
330
A02
100
AcDbEntity
  8
Shape2DView
100
AcDbLine
 10
146.97
 20
-196.505
 30
0
 11
142.351
 21
-196.505
 31
0
  0
LINE
  5
E49
330
A02
100
AcDbEntity
  8
Shape2DView
100
AcDbLine
 10
149.28
 20
-200.505
 30
0
 11
146.97
 21
-196.505
 31
0
  0
LINE
  5
E4A
330
A02
100
AcDbEntity
  8
Shape2DView
100
AcDbLine
 10
142.351
 20
-196.505
 30
0
 11
140.041
 21
-200.505
 31
0
  0
LINE
  5
E4B
330
A02
100
AcDbEntity
  8
Shape2DView
100
AcDbLine
 10
146.97
 20
-204.505
 30
0
 11
149.28
 21
-200.505
 31
0
  0
LINE
  5
E4C
330
A02
100
AcDbEntity
  8
Shape2DView
100
AcDbLine
 10
140.041
 20
-200.505
 30
0
 11
142.351
 21
-204.505
 31
0
  0
LINE
  5
E4D
330
A02
100
AcDbEntity
  8
Shape2DView
100
AcDbLine
 10
142.351
 20
-204.505
 30
0
 11
146.97
 21
-204.505
 31
0
  0
LINE
  5
E4E
330
A02
100
AcDbEntity
  8
Shape2DView
100
AcDbLine
 10
161.88
 20
-204.505
 30
0
 11
157.261
 21
-204.505
 31
0
  0
LINE
  5
E4F
330
A02
100
AcDbEntity
  8
Shape2DView
100
AcDbLine
 10
164.19
 20
-200.505
 30
0
 11
161.88
 21
-204.505
 31
0
  0
LINE
  5
E50
330
A02
100
AcDbEntity
  8
Shape2DView
100
AcDbLine
 10
157.261
 20
-204.505
 30
0
 11
154.951
 21
-200.505
 31
0
  0
LINE
  5
E51
330
A02
100
AcDbEntity
  8
Shape2DView
100
AcDbLine
 10
161.88
 20
-196.505
 30
0
 11
164.19
 21
-200.505
 31
0
  0
LINE
  5
E52
330
A02
100
AcDbEntity
  8
Shape2DView
100
AcDbLine
 10
154.951
 20
-200.505
 30
0
 11
157.261
 21
-196.505
 31
0
  0
LINE
  5
E53
330
A02
100
AcDbEntity
  8
Shape2DView
100
AcDbLine
 10
157.261
 20
-196.505
 30
0
 11
161.88
 21
-196.505
 31
0
  0
CIRCLE
  5
E54
330
A02
100
AcDbEntity
  8
Shape2DView
100
AcDbCircle
 10
195
 20
-210.87
 40
4
  0
LINE
  5
E55
330
A02
100
AcDbEntity
  8
Shape2DView
100
AcDbLine
 10
176.88
 20
-204.505
 30
0
 11
172.261
 21
-204.505
 31
0
  0
LINE
  5
E56
330
A02
100
AcDbEntity
  8
Shape2DView
100
AcDbLine
 10
179.19
 20
-200.505
 30
0
 11
176.88
 21
-204.505
 31
0
  0
LINE
  5
E57
330
A02
100
AcDbEntity
  8
Shape2DView
100
AcDbLine
 10
172.261
 20
-204.505
 30
0
 11
169.951
 21
-200.505
 31
0
  0
LINE
  5
E58
330
A02
100
AcDbEntity
  8
Shape2DView
100
AcDbLine
 10
176.88
 20
-196.505
 30
0
 11
179.19
 21
-200.505
 31
0
  0
LINE
  5
E59
330
A02
100
AcDbEntity
  8
Shape2DView
100
AcDbLine
 10
169.951
 20
-200.505
 30
0
 11
172.261
 21
-196.505
 31
0
  0
LINE
  5
E5A
330
A02
100
AcDbEntity
  8
Shape2DView
100
AcDbLine
 10
172.261
 20
-196.505
 30
0
 11
176.88
 21
-196.505
 31
0
  0
LINE
  5
E5B
330
A02
100
AcDbEntity
  8
Shape2DView
100
AcDbLine
 10
101.97
 20
-181.505
 30
0
 11
97.3512
 21
-181.505
 31
0
  0
LINE
  5
E5C
330
A02
100
AcDbEntity
  8
Shape2DView
100
AcDbLine
 10
104.28
 20
-185.505
 30
0
 11
101.97
 21
-181.505
 31
0
  0
LINE
  5
E5D
330
A02
100
AcDbEntity
  8
Shape2DView
100
AcDbLine
 10
97.3512
 20
-181.505
 30
0
 11
95.0414
 21
-185.505
 31
0
  0
LINE
  5
E5E
330
A02
100
AcDbEntity
  8
Shape2DView
100
AcDbLine
 10
101.97
 20
-189.505
 30
0
 11
104.28
 21
-185.505
 31
0
  0
LINE
  5
E5F
330
A02
100
AcDbEntity
  8
Shape2DView
100
AcDbLine
 10
95.0414
 20
-185.505
 30
0
 11
97.3512
 21
-189.505
 31
0
  0
LINE
  5
E60
330
A02
100
AcDbEntity
  8
Shape2DView
100
AcDbLine
 10
97.3512
 20
-189.505
 30
0
 11
101.97
 21
-189.505
 31
0
  0
LINE
  5
E61
330
A02
100
AcDbEntity
  8
Shape2DView
100
AcDbLine
 10
116.97
 20
-181.505
 30
0
 11
112.351
 21
-181.505
 31
0
  0
LINE
  5
E62
330
A02
100
AcDbEntity
  8
Shape2DView
100
AcDbLine
 10
119.28
 20
-185.505
 30
0
 11
116.97
 21
-181.505
 31
0
  0
LINE
  5
E63
330
A02
100
AcDbEntity
  8
Shape2DView
100
AcDbLine
 10
112.351
 20
-181.505
 30
0
 11
110.041
 21
-185.505
 31
0
  0
LINE
  5
E64
330
A02
100
AcDbEntity
  8
Shape2DView
100
AcDbLine
 10
116.97
 20
-189.505
 30
0
 11
119.28
 21
-185.505
 31
0
  0
LINE
  5
E65
330
A02
100
AcDbEntity
  8
Shape2DView
100
AcDbLine
 10
110.041
 20
-185.505
 30
0
 11
112.351
 21
-189.505
 31
0
  0
LINE
  5
E66
330
A02
100
AcDbEntity
  8
Shape2DView
100
AcDbLine
 10
112.351
 20
-189.505
 30
0
 11
116.97
 21
-189.505
 31
0
  0
LINE
  5
E67
330
A02
100
AcDbEntity
  8
Shape2DView
100
AcDbLine
 10
131.97
 20
-181.505
 30
0
 11
127.351
 21
-181.505
 31
0
  0
LINE
  5
E68
330
A02
100
AcDbEntity
  8
Shape2DView
100
AcDbLine
 10
134.28
 20
-185.505
 30
0
 11
131.97
 21
-181.505
 31
0
  0
LINE
  5
E69
330
A02
100
AcDbEntity
  8
Shape2DView
100
AcDbLine
 10
127.351
 20
-181.505
 30
0
 11
125.041
 21
-185.505
 31
0
  0
LINE
  5
E6A
330
A02
100
AcDbEntity
  8
Shape2DView
100
AcDbLine
 10
131.97
 20
-189.505
 30
0
 11
134.28
 21
-185.505
 31
0
  0
LINE
  5
E6B
330
A02
100
AcDbEntity
  8
Shape2DView
100
AcDbLine
 10
125.041
 20
-185.505
 30
0
 11
127.351
 21
-189.505
 31
0
  0
LINE
  5
E6C
330
A02
100
AcDbEntity
  8
Shape2DView
100
AcDbLine
 10
127.351
 20
-189.505
 30
0
 11
131.97
 21
-189.505
 31
0
  0
LINE
  5
E6D
330
A02
100
AcDbEntity
  8
Shape2DView
100
AcDbLine
 10
146.97
 20
-181.505
 30
0
 11
142.351
 21
-181.505
 31
0
  0
LINE
  5
E6E
330
A02
100
AcDbEntity
  8
Shape2DView
100
AcDbLine
 10
149.28
 20
-185.505
 30
0
 11
146.97
 21
-181.505
 31
0
  0
LINE
  5
E6F
330
A02
100
AcDbEntity
  8
Shape2DView
100
AcDbLine
 10
142.351
 20
-181.505
 30
0
 11
140.041
 21
-185.505
 31
0
  0
LINE
  5
E70
330
A02
100
AcDbEntity
  8
Shape2DView
100
AcDbLine
 10
146.97
 20
-189.505
 30
0
 11
149.28
 21
-185.505
 31
0
  0
LINE
  5
E71
330
A02
100
AcDbEntity
  8
Shape2DView
100
AcDbLine
 10
140.041
 20
-185.505
 30
0
 11
142.351
 21
-189.505
 31
0
  0
LINE
  5
E72
330
A02
100
AcDbEntity
  8
Shape2DView
100
AcDbLine
 10
142.351
 20
-189.505
 30
0
 11
146.97
 21
-189.505
 31
0
  0
LINE
  5
E73
330
A02
100
AcDbEntity
  8
Shape2DView
100
AcDbLine
 10
101.97
 20
-166.505
 30
0
 11
97.3512
 21
-166.505
 31
0
  0
LINE
  5
E74
330
A02
100
AcDbEntity
  8
Shape2DView
100
AcDbLine
 10
104.28
 20
-170.505
 30
0
 11
101.97
 21
-166.505
 31
0
  0
LINE
  5
E75
330
A02
100
AcDbEntity
  8
Shape2DView
100
AcDbLine
 10
97.3512
 20
-166.505
 30
0
 11
95.0414
 21
-170.505
 31
0
  0
LINE
  5
E76
330
A02
100
AcDbEntity
  8
Shape2DView
100
AcDbLine
 10
101.97
 20
-174.505
 30
0
 11
104.28
 21
-170.505
 31
0
  0
LINE
  5
E77
330
A02
100
AcDbEntity
  8
Shape2DView
100
AcDbLine
 10
95.0414
 20
-170.505
 30
0
 11
97.3512
 21
-174.505
 31
0
  0
LINE
  5
E78
330
A02
100
AcDbEntity
  8
Shape2DView
100
AcDbLine
 10
97.3512
 20
-174.505
 30
0
 11
101.97
 21
-174.505
 31
0
  0
LINE
  5
E79
330
A02
100
AcDbEntity
  8
Shape2DView
100
AcDbLine
 10
116.97
 20
-166.505
 30
0
 11
112.351
 21
-166.505
 31
0
  0
LINE
  5
E7A
330
A02
100
AcDbEntity
  8
Shape2DView
100
AcDbLine
 10
119.28
 20
-170.505
 30
0
 11
116.97
 21
-166.505
 31
0
  0
LINE
  5
E7B
330
A02
100
AcDbEntity
  8
Shape2DView
100
AcDbLine
 10
112.351
 20
-166.505
 30
0
 11
110.041
 21
-170.505
 31
0
  0
LINE
  5
E7C
330
A02
100
AcDbEntity
  8
Shape2DView
100
AcDbLine
 10
116.97
 20
-174.505
 30
0
 11
119.28
 21
-170.505
 31
0
  0
LINE
  5
E7D
330
A02
100
AcDbEntity
  8
Shape2DView
100
AcDbLine
 10
110.041
 20
-170.505
 30
0
 11
112.351
 21
-174.505
 31
0
  0
LINE
  5
E7E
330
A02
100
AcDbEntity
  8
Shape2DView
100
AcDbLine
 10
112.351
 20
-174.505
 30
0
 11
116.97
 21
-174.505
 31
0
  0
LINE
  5
E7F
330
A02
100
AcDbEntity
  8
Shape2DView
100
AcDbLine
 10
131.97
 20
-166.505
 30
0
 11
127.351
 21
-166.505
 31
0
  0
LINE
  5
E80
330
A02
100
AcDbEntity
  8
Shape2DView
100
AcDbLine
 10
134.28
 20
-170.505
 30
0
 11
131.97
 21
-166.505
 31
0
  0
LINE
  5
E81
330
A02
100
AcDbEntity
  8
Shape2DView
100
AcDbLine
 10
127.351
 20
-166.505
 30
0
 11
125.041
 21
-170.505
 31
0
  0
LINE
  5
E82
330
A02
100
AcDbEntity
  8
Shape2DView
100
AcDbLine
 10
131.97
 20
-174.505
 30
0
 11
134.28
 21
-170.505
 31
0
  0
LINE
  5
E83
330
A02
100
AcDbEntity
  8
Shape2DView
100
AcDbLine
 10
125.041
 20
-170.505
 30
0
 11
127.351
 21
-174.505
 31
0
  0
LINE
  5
E84
330
A02
100
AcDbEntity
  8
Shape2DView
100
AcDbLine
 10
127.351
 20
-174.505
 30
0
 11
131.97
 21
-174.505
 31
0
  0
LINE
  5
E85
330
A02
100
AcDbEntity
  8
Shape2DView
100
AcDbLine
 10
146.97
 20
-166.505
 30
0
 11
142.351
 21
-166.505
 31
0
  0
LINE
  5
E86
330
A02
100
AcDbEntity
  8
Shape2DView
100
AcDbLine
 10
149.28
 20
-170.505
 30
0
 11
146.97
 21
-166.505
 31
0
  0
LINE
  5
E87
330
A02
100
AcDbEntity
  8
Shape2DView
100
AcDbLine
 10
142.351
 20
-166.505
 30
0
 11
140.041
 21
-170.505
 31
0
  0
LINE
  5
E88
330
A02
100
AcDbEntity
  8
Shape2DView
100
AcDbLine
 10
146.97
 20
-174.505
 30
0
 11
149.28
 21
-170.505
 31
0
  0
LINE
  5
E89
330
A02
100
AcDbEntity
  8
Shape2DView
100
AcDbLine
 10
140.041
 20
-170.505
 30
0
 11
142.351
 21
-174.505
 31
0
  0
LINE
  5
E8A
330
A02
100
AcDbEntity
  8
Shape2DView
100
AcDbLine
 10
142.351
 20
-174.505
 30
0
 11
146.97
 21
-174.505
 31
0
  0
LINE
  5
E8B
330
A02
100
AcDbEntity
  8
Shape2DView
100
AcDbLine
 10
161.88
 20
-189.505
 30
0
 11
157.261
 21
-189.505
 31
0
  0
LINE
  5
E8C
330
A02
100
AcDbEntity
  8
Shape2DView
100
AcDbLine
 10
164.19
 20
-185.505
 30
0
 11
161.88
 21
-189.505
 31
0
  0
LINE
  5
E8D
330
A02
100
AcDbEntity
  8
Shape2DView
100
AcDbLine
 10
157.261
 20
-189.505
 30
0
 11
154.951
 21
-185.505
 31
0
  0
LINE
  5
E8E
330
A02
100
AcDbEntity
  8
Shape2DView
100
AcDbLine
 10
161.88
 20
-181.505
 30
0
 11
164.19
 21
-185.505
 31
0
  0
LINE
  5
E8F
330
A02
100
AcDbEntity
  8
Shape2DView
100
AcDbLine
 10
154.951
 20
-185.505
 30
0
 11
157.261
 21
-181.505
 31
0
  0
LINE
  5
E90
330
A02
100
AcDbEntity
  8
Shape2DView
100
AcDbLine
 10
157.261
 20
-181.505
 30
0
 11
161.88
 21
-181.505
 31
0
  0
LINE
  5
E91
330
A02
100
AcDbEntity
  8
Shape2DView
100
AcDbLine
 10
176.88
 20
-189.505
 30
0
 11
172.261
 21
-189.505
 31
0
  0
LINE
  5
E92
330
A02
100
AcDbEntity
  8
Shape2DView
100
AcDbLine
 10
179.19
 20
-185.505
 30
0
 11
176.88
 21
-189.505
 31
0
  0
LINE
  5
E93
330
A02
100
AcDbEntity
  8
Shape2DView
100
AcDbLine
 10
172.261
 20
-189.505
 30
0
 11
169.951
 21
-185.505
 31
0
  0
LINE
  5
E94
330
A02
100
AcDbEntity
  8
Shape2DView
100
AcDbLine
 10
176.88
 20
-181.505
 30
0
 11
179.19
 21
-185.505
 31
0
  0
LINE
  5
E95
330
A02
100
AcDbEntity
  8
Shape2DView
100
AcDbLine
 10
169.951
 20
-185.505
 30
0
 11
172.261
 21
-181.505
 31
0
  0
LINE
  5
E96
330
A02
100
AcDbEntity
  8
Shape2DView
100
AcDbLine
 10
172.261
 20
-181.505
 30
0
 11
176.88
 21
-181.505
 31
0
  0
LINE
  5
E97
330
A02
100
AcDbEntity
  8
Shape2DView
100
AcDbLine
 10
56.9702
 20
-151.505
 30
0
 11
52.3512
 21
-151.505
 31
0
  0
LINE
  5
E98
330
A02
100
AcDbEntity
  8
Shape2DView
100
AcDbLine
 10
59.28
 20
-155.505
 30
0
 11
56.9702
 21
-151.505
 31
0
  0
LINE
  5
E99
330
A02
100
AcDbEntity
  8
Shape2DView
100
AcDbLine
 10
52.3512
 20
-151.505
 30
0
 11
50.0414
 21
-155.505
 31
0
  0
LINE
  5
E9A
330
A02
100
AcDbEntity
  8
Shape2DView
100
AcDbLine
 10
56.9702
 20
-159.505
 30
0
 11
59.28
 21
-155.505
 31
0
  0
LINE
  5
E9B
330
A02
100
AcDbEntity
  8
Shape2DView
100
AcDbLine
 10
50.0414
 20
-155.505
 30
0
 11
52.3512
 21
-159.505
 31
0
  0
LINE
  5
E9C
330
A02
100
AcDbEntity
  8
Shape2DView
100
AcDbLine
 10
52.3512
 20
-159.505
 30
0
 11
56.9702
 21
-159.505
 31
0
  0
LINE
  5
E9D
330
A02
100
AcDbEntity
  8
Shape2DView
100
AcDbLine
 10
71.9702
 20
-151.505
 30
0
 11
67.3512
 21
-151.505
 31
0
  0
LINE
  5
E9E
330
A02
100
AcDbEntity
  8
Shape2DView
100
AcDbLine
 10
74.28
 20
-155.505
 30
0
 11
71.9702
 21
-151.505
 31
0
  0
LINE
  5
E9F
330
A02
100
AcDbEntity
  8
Shape2DView
100
AcDbLine
 10
67.3512
 20
-151.505
 30
0
 11
65.0414
 21
-155.505
 31
0
  0
LINE
  5
EA0
330
A02
100
AcDbEntity
  8
Shape2DView
100
AcDbLine
 10
71.9702
 20
-159.505
 30
0
 11
74.28
 21
-155.505
 31
0
  0
LINE
  5
EA1
330
A02
100
AcDbEntity
  8
Shape2DView
100
AcDbLine
 10
65.0414
 20
-155.505
 30
0
 11
67.3512
 21
-159.505
 31
0
  0
LINE
  5
EA2
330
A02
100
AcDbEntity
  8
Shape2DView
100
AcDbLine
 10
67.3512
 20
-159.505
 30
0
 11
71.9702
 21
-159.505
 31
0
  0
LINE
  5
EA3
330
A02
100
AcDbEntity
  8
Shape2DView
100
AcDbLine
 10
86.9702
 20
-151.505
 30
0
 11
82.3512
 21
-151.505
 31
0
  0
LINE
  5
EA4
330
A02
100
AcDbEntity
  8
Shape2DView
100
AcDbLine
 10
89.28
 20
-155.505
 30
0
 11
86.9702
 21
-151.505
 31
0
  0
LINE
  5
EA5
330
A02
100
AcDbEntity
  8
Shape2DView
100
AcDbLine
 10
82.3512
 20
-151.505
 30
0
 11
80.0414
 21
-155.505
 31
0
  0
LINE
  5
EA6
330
A02
100
AcDbEntity
  8
Shape2DView
100
AcDbLine
 10
86.9702
 20
-159.505
 30
0
 11
89.28
 21
-155.505
 31
0
  0
LINE
  5
EA7
330
A02
100
AcDbEntity
  8
Shape2DView
100
AcDbLine
 10
80.0414
 20
-155.505
 30
0
 11
82.3512
 21
-159.505
 31
0
  0
LINE
  5
EA8
330
A02
100
AcDbEntity
  8
Shape2DView
100
AcDbLine
 10
82.3512
 20
-159.505
 30
0
 11
86.9702
 21
-159.505
 31
0
  0
LINE
  5
EA9
330
A02
100
AcDbEntity
  8
Shape2DView
100
AcDbLine
 10
56.9702
 20
-136.505
 30
0
 11
52.3512
 21
-136.505
 31
0
  0
LINE
  5
EAA
330
A02
100
AcDbEntity
  8
Shape2DView
100
AcDbLine
 10
59.28
 20
-140.505
 30
0
 11
56.9702
 21
-136.505
 31
0
  0
LINE
  5
EAB
330
A02
100
AcDbEntity
  8
Shape2DView
100
AcDbLine
 10
52.3512
 20
-136.505
 30
0
 11
50.0414
 21
-140.505
 31
0
  0
LINE
  5
EAC
330
A02
100
AcDbEntity
  8
Shape2DView
100
AcDbLine
 10
56.9702
 20
-144.505
 30
0
 11
59.28
 21
-140.505
 31
0
  0
LINE
  5
EAD
330
A02
100
AcDbEntity
  8
Shape2DView
100
AcDbLine
 10
50.0414
 20
-140.505
 30
0
 11
52.3512
 21
-144.505
 31
0
  0
LINE
  5
EAE
330
A02
100
AcDbEntity
  8
Shape2DView
100
AcDbLine
 10
52.3512
 20
-144.505
 30
0
 11
56.9702
 21
-144.505
 31
0
  0
LINE
  5
EAF
330
A02
100
AcDbEntity
  8
Shape2DView
100
AcDbLine
 10
71.9702
 20
-136.505
 30
0
 11
67.3512
 21
-136.505
 31
0
  0
LINE
  5
EB0
330
A02
100
AcDbEntity
  8
Shape2DView
100
AcDbLine
 10
74.28
 20
-140.505
 30
0
 11
71.9702
 21
-136.505
 31
0
  0
LINE
  5
EB1
330
A02
100
AcDbEntity
  8
Shape2DView
100
AcDbLine
 10
67.3512
 20
-136.505
 30
0
 11
65.0414
 21
-140.505
 31
0
  0
LINE
  5
EB2
330
A02
100
AcDbEntity
  8
Shape2DView
100
AcDbLine
 10
71.9702
 20
-144.505
 30
0
 11
74.28
 21
-140.505
 31
0
  0
LINE
  5
EB3
330
A02
100
AcDbEntity
  8
Shape2DView
100
AcDbLine
 10
65.0414
 20
-140.505
 30
0
 11
67.3512
 21
-144.505
 31
0
  0
LINE
  5
EB4
330
A02
100
AcDbEntity
  8
Shape2DView
100
AcDbLine
 10
67.3512
 20
-144.505
 30
0
 11
71.9702
 21
-144.505
 31
0
  0
LINE
  5
EB5
330
A02
100
AcDbEntity
  8
Shape2DView
100
AcDbLine
 10
86.9702
 20
-136.505
 30
0
 11
82.3512
 21
-136.505
 31
0
  0
LINE
  5
EB6
330
A02
100
AcDbEntity
  8
Shape2DView
100
AcDbLine
 10
89.28
 20
-140.505
 30
0
 11
86.9702
 21
-136.505
 31
0
  0
LINE
  5
EB7
330
A02
100
AcDbEntity
  8
Shape2DView
100
AcDbLine
 10
82.3512
 20
-136.505
 30
0
 11
80.0414
 21
-140.505
 31
0
  0
LINE
  5
EB8
330
A02
100
AcDbEntity
  8
Shape2DView
100
AcDbLine
 10
86.9702
 20
-144.505
 30
0
 11
89.28
 21
-140.505
 31
0
  0
LINE
  5
EB9
330
A02
100
AcDbEntity
  8
Shape2DView
100
AcDbLine
 10
80.0414
 20
-140.505
 30
0
 11
82.3512
 21
-144.505
 31
0
  0
LINE
  5
EBA
330
A02
100
AcDbEntity
  8
Shape2DView
100
AcDbLine
 10
82.3512
 20
-144.505
 30
0
 11
86.9702
 21
-144.505
 31
0
  0
LINE
  5
EBB
330
A02
100
AcDbEntity
  8
Shape2DView
100
AcDbLine
 10
56.9702
 20
-121.505
 30
0
 11
52.3512
 21
-121.505
 31
0
  0
LINE
  5
EBC
330
A02
100
AcDbEntity
  8
Shape2DView
100
AcDbLine
 10
59.28
 20
-125.505
 30
0
 11
56.9702
 21
-121.505
 31
0
  0
LINE
  5
EBD
330
A02
100
AcDbEntity
  8
Shape2DView
100
AcDbLine
 10
52.3512
 20
-121.505
 30
0
 11
50.0414
 21
-125.505
 31
0
  0
LINE
  5
EBE
330
A02
100
AcDbEntity
  8
Shape2DView
100
AcDbLine
 10
56.9702
 20
-129.505
 30
0
 11
59.28
 21
-125.505
 31
0
  0
LINE
  5
EBF
330
A02
100
AcDbEntity
  8
Shape2DView
100
AcDbLine
 10
50.0414
 20
-125.505
 30
0
 11
52.3512
 21
-129.505
 31
0
  0
LINE
  5
EC0
330
A02
100
AcDbEntity
  8
Shape2DView
100
AcDbLine
 10
52.3512
 20
-129.505
 30
0
 11
56.9702
 21
-129.505
 31
0
  0
LINE
  5
EC1
330
A02
100
AcDbEntity
  8
Shape2DView
100
AcDbLine
 10
71.9702
 20
-121.505
 30
0
 11
67.3512
 21
-121.505
 31
0
  0
LINE
  5
EC2
330
A02
100
AcDbEntity
  8
Shape2DView
100
AcDbLine
 10
74.28
 20
-125.505
 30
0
 11
71.9702
 21
-121.505
 31
0
  0
LINE
  5
EC3
330
A02
100
AcDbEntity
  8
Shape2DView
100
AcDbLine
 10
67.3512
 20
-121.505
 30
0
 11
65.0414
 21
-125.505
 31
0
  0
LINE
  5
EC4
330
A02
100
AcDbEntity
  8
Shape2DView
100
AcDbLine
 10
71.9702
 20
-129.505
 30
0
 11
74.28
 21
-125.505
 31
0
  0
LINE
  5
EC5
330
A02
100
AcDbEntity
  8
Shape2DView
100
AcDbLine
 10
65.0414
 20
-125.505
 30
0
 11
67.3512
 21
-129.505
 31
0
  0
LINE
  5
EC6
330
A02
100
AcDbEntity
  8
Shape2DView
100
AcDbLine
 10
67.3512
 20
-129.505
 30
0
 11
71.9702
 21
-129.505
 31
0
  0
LINE
  5
EC7
330
A02
100
AcDbEntity
  8
Shape2DView
100
AcDbLine
 10
86.9702
 20
-121.505
 30
0
 11
82.3512
 21
-121.505
 31
0
  0
LINE
  5
EC8
330
A02
100
AcDbEntity
  8
Shape2DView
100
AcDbLine
 10
89.28
 20
-125.505
 30
0
 11
86.9702
 21
-121.505
 31
0
  0
LINE
  5
EC9
330
A02
100
AcDbEntity
  8
Shape2DView
100
AcDbLine
 10
82.3512
 20
-121.505
 30
0
 11
80.0414
 21
-125.505
 31
0
  0
LINE
  5
ECA
330
A02
100
AcDbEntity
  8
Shape2DView
100
AcDbLine
 10
86.9702
 20
-129.505
 30
0
 11
89.28
 21
-125.505
 31
0
  0
LINE
  5
ECB
330
A02
100
AcDbEntity
  8
Shape2DView
100
AcDbLine
 10
80.0414
 20
-125.505
 30
0
 11
82.3512
 21
-129.505
 31
0
  0
LINE
  5
ECC
330
A02
100
AcDbEntity
  8
Shape2DView
100
AcDbLine
 10
82.3512
 20
-129.505
 30
0
 11
86.9702
 21
-129.505
 31
0
  0
LINE
  5
ECD
330
A02
100
AcDbEntity
  8
Shape2DView
100
AcDbLine
 10
101.97
 20
-151.505
 30
0
 11
97.3512
 21
-151.505
 31
0
  0
LINE
  5
ECE
330
A02
100
AcDbEntity
  8
Shape2DView
100
AcDbLine
 10
104.28
 20
-155.505
 30
0
 11
101.97
 21
-151.505
 31
0
  0
LINE
  5
ECF
330
A02
100
AcDbEntity
  8
Shape2DView
100
AcDbLine
 10
97.3512
 20
-151.505
 30
0
 11
95.0414
 21
-155.505
 31
0
  0
LINE
  5
ED0
330
A02
100
AcDbEntity
  8
Shape2DView
100
AcDbLine
 10
101.97
 20
-159.505
 30
0
 11
104.28
 21
-155.505
 31
0
  0
LINE
  5
ED1
330
A02
100
AcDbEntity
  8
Shape2DView
100
AcDbLine
 10
95.0414
 20
-155.505
 30
0
 11
97.3512
 21
-159.505
 31
0
  0
LINE
  5
ED2
330
A02
100
AcDbEntity
  8
Shape2DView
100
AcDbLine
 10
97.3512
 20
-159.505
 30
0
 11
101.97
 21
-159.505
 31
0
  0
LINE
  5
ED3
330
A02
100
AcDbEntity
  8
Shape2DView
100
AcDbLine
 10
116.97
 20
-151.505
 30
0
 11
112.351
 21
-151.505
 31
0
  0
LINE
  5
ED4
330
A02
100
AcDbEntity
  8
Shape2DView
100
AcDbLine
 10
119.28
 20
-155.505
 30
0
 11
116.97
 21
-151.505
 31
0
  0
LINE
  5
ED5
330
A02
100
AcDbEntity
  8
Shape2DView
100
AcDbLine
 10
112.351
 20
-151.505
 30
0
 11
110.041
 21
-155.505
 31
0
  0
LINE
  5
ED6
330
A02
100
AcDbEntity
  8
Shape2DView
100
AcDbLine
 10
116.97
 20
-159.505
 30
0
 11
119.28
 21
-155.505
 31
0
  0
LINE
  5
ED7
330
A02
100
AcDbEntity
  8
Shape2DView
100
AcDbLine
 10
110.041
 20
-155.505
 30
0
 11
112.351
 21
-159.505
 31
0
  0
LINE
  5
ED8
330
A02
100
AcDbEntity
  8
Shape2DView
100
AcDbLine
 10
112.351
 20
-159.505
 30
0
 11
116.97
 21
-159.505
 31
0
  0
LINE
  5
ED9
330
A02
100
AcDbEntity
  8
Shape2DView
100
AcDbLine
 10
131.97
 20
-151.505
 30
0
 11
127.351
 21
-151.505
 31
0
  0
LINE
  5
EDA
330
A02
100
AcDbEntity
  8
Shape2DView
100
AcDbLine
 10
134.28
 20
-155.505
 30
0
 11
131.97
 21
-151.505
 31
0
  0
LINE
  5
EDB
330
A02
100
AcDbEntity
  8
Shape2DView
100
AcDbLine
 10
127.351
 20
-151.505
 30
0
 11
125.041
 21
-155.505
 31
0
  0
LINE
  5
EDC
330
A02
100
AcDbEntity
  8
Shape2DView
100
AcDbLine
 10
131.97
 20
-159.505
 30
0
 11
134.28
 21
-155.505
 31
0
  0
LINE
  5
EDD
330
A02
100
AcDbEntity
  8
Shape2DView
100
AcDbLine
 10
125.041
 20
-155.505
 30
0
 11
127.351
 21
-159.505
 31
0
  0
LINE
  5
EDE
330
A02
100
AcDbEntity
  8
Shape2DView
100
AcDbLine
 10
127.351
 20
-159.505
 30
0
 11
131.97
 21
-159.505
 31
0
  0
LINE
  5
EDF
330
A02
100
AcDbEntity
  8
Shape2DView
100
AcDbLine
 10
146.97
 20
-151.505
 30
0
 11
142.351
 21
-151.505
 31
0
  0
LINE
  5
EE0
330
A02
100
AcDbEntity
  8
Shape2DView
100
AcDbLine
 10
149.28
 20
-155.505
 30
0
 11
146.97
 21
-151.505
 31
0
  0
LINE
  5
EE1
330
A02
100
AcDbEntity
  8
Shape2DView
100
AcDbLine
 10
142.351
 20
-151.505
 30
0
 11
140.041
 21
-155.505
 31
0
  0
LINE
  5
EE2
330
A02
100
AcDbEntity
  8
Shape2DView
100
AcDbLine
 10
146.97
 20
-159.505
 30
0
 11
149.28
 21
-155.505
 31
0
  0
LINE
  5
EE3
330
A02
100
AcDbEntity
  8
Shape2DView
100
AcDbLine
 10
140.041
 20
-155.505
 30
0
 11
142.351
 21
-159.505
 31
0
  0
LINE
  5
EE4
330
A02
100
AcDbEntity
  8
Shape2DView
100
AcDbLine
 10
142.351
 20
-159.505
 30
0
 11
146.97
 21
-159.505
 31
0
  0
LINE
  5
EE5
330
A02
100
AcDbEntity
  8
Shape2DView
100
AcDbLine
 10
101.97
 20
-136.505
 30
0
 11
97.3512
 21
-136.505
 31
0
  0
LINE
  5
EE6
330
A02
100
AcDbEntity
  8
Shape2DView
100
AcDbLine
 10
104.28
 20
-140.505
 30
0
 11
101.97
 21
-136.505
 31
0
  0
LINE
  5
EE7
330
A02
100
AcDbEntity
  8
Shape2DView
100
AcDbLine
 10
97.3512
 20
-136.505
 30
0
 11
95.0414
 21
-140.505
 31
0
  0
LINE
  5
EE8
330
A02
100
AcDbEntity
  8
Shape2DView
100
AcDbLine
 10
101.97
 20
-144.505
 30
0
 11
104.28
 21
-140.505
 31
0
  0
LINE
  5
EE9
330
A02
100
AcDbEntity
  8
Shape2DView
100
AcDbLine
 10
95.0414
 20
-140.505
 30
0
 11
97.3512
 21
-144.505
 31
0
  0
LINE
  5
EEA
330
A02
100
AcDbEntity
  8
Shape2DView
100
AcDbLine
 10
97.3512
 20
-144.505
 30
0
 11
101.97
 21
-144.505
 31
0
  0
LINE
  5
EEB
330
A02
100
AcDbEntity
  8
Shape2DView
100
AcDbLine
 10
116.97
 20
-136.505
 30
0
 11
112.351
 21
-136.505
 31
0
  0
LINE
  5
EEC
330
A02
100
AcDbEntity
  8
Shape2DView
100
AcDbLine
 10
119.28
 20
-140.505
 30
0
 11
116.97
 21
-136.505
 31
0
  0
LINE
  5
EED
330
A02
100
AcDbEntity
  8
Shape2DView
100
AcDbLine
 10
112.351
 20
-136.505
 30
0
 11
110.041
 21
-140.505
 31
0
  0
LINE
  5
EEE
330
A02
100
AcDbEntity
  8
Shape2DView
100
AcDbLine
 10
116.97
 20
-144.505
 30
0
 11
119.28
 21
-140.505
 31
0
  0
LINE
  5
EEF
330
A02
100
AcDbEntity
  8
Shape2DView
100
AcDbLine
 10
110.041
 20
-140.505
 30
0
 11
112.351
 21
-144.505
 31
0
  0
LINE
  5
EF0
330
A02
100
AcDbEntity
  8
Shape2DView
100
AcDbLine
 10
112.351
 20
-144.505
 30
0
 11
116.97
 21
-144.505
 31
0
  0
LINE
  5
EF1
330
A02
100
AcDbEntity
  8
Shape2DView
100
AcDbLine
 10
131.97
 20
-136.505
 30
0
 11
127.351
 21
-136.505
 31
0
  0
LINE
  5
EF2
330
A02
100
AcDbEntity
  8
Shape2DView
100
AcDbLine
 10
134.28
 20
-140.505
 30
0
 11
131.97
 21
-136.505
 31
0
  0
LINE
  5
EF3
330
A02
100
AcDbEntity
  8
Shape2DView
100
AcDbLine
 10
127.351
 20
-136.505
 30
0
 11
125.041
 21
-140.505
 31
0
  0
LINE
  5
EF4
330
A02
100
AcDbEntity
  8
Shape2DView
100
AcDbLine
 10
131.97
 20
-144.505
 30
0
 11
134.28
 21
-140.505
 31
0
  0
LINE
  5
EF5
330
A02
100
AcDbEntity
  8
Shape2DView
100
AcDbLine
 10
125.041
 20
-140.505
 30
0
 11
127.351
 21
-144.505
 31
0
  0
LINE
  5
EF6
330
A02
100
AcDbEntity
  8
Shape2DView
100
AcDbLine
 10
127.351
 20
-144.505
 30
0
 11
131.97
 21
-144.505
 31
0
  0
LINE
  5
EF7
330
A02
100
AcDbEntity
  8
Shape2DView
100
AcDbLine
 10
146.97
 20
-136.505
 30
0
 11
142.351
 21
-136.505
 31
0
  0
LINE
  5
EF8
330
A02
100
AcDbEntity
  8
Shape2DView
100
AcDbLine
 10
149.28
 20
-140.505
 30
0
 11
146.97
 21
-136.505
 31
0
  0
LINE
  5
EF9
330
A02
100
AcDbEntity
  8
Shape2DView
100
AcDbLine
 10
142.351
 20
-136.505
 30
0
 11
140.041
 21
-140.505
 31
0
  0
LINE
  5
EFA
330
A02
100
AcDbEntity
  8
Shape2DView
100
AcDbLine
 10
146.97
 20
-144.505
 30
0
 11
149.28
 21
-140.505
 31
0
  0
LINE
  5
EFB
330
A02
100
AcDbEntity
  8
Shape2DView
100
AcDbLine
 10
140.041
 20
-140.505
 30
0
 11
142.351
 21
-144.505
 31
0
  0
LINE
  5
EFC
330
A02
100
AcDbEntity
  8
Shape2DView
100
AcDbLine
 10
142.351
 20
-144.505
 30
0
 11
146.97
 21
-144.505
 31
0
  0
CIRCLE
  5
EFD
330
A02
100
AcDbEntity
  8
Shape2DView
100
AcDbCircle
 10
161.264
 20
-160.449
 40
1.6
  0
CIRCLE
  5
EFE
330
A02
100
AcDbEntity
  8
Shape2DView
100
AcDbCircle
 10
192.264
 20
-160.449
 40
1.6
  0
CIRCLE
  5
EFF
330
A02
100
AcDbEntity
  8
Shape2DView
100
AcDbCircle
 10
176.764
 20
-144.949
 40
11
  0
LINE
  5
F00
330
A02
100
AcDbEntity
  8
Shape2DView
100
AcDbLine
 10
101.97
 20
-121.505
 30
0
 11
97.3512
 21
-121.505
 31
0
  0
LINE
  5
F01
330
A02
100
AcDbEntity
  8
Shape2DView
100
AcDbLine
 10
104.28
 20
-125.505
 30
0
 11
101.97
 21
-121.505
 31
0
  0
LINE
  5
F02
330
A02
100
AcDbEntity
  8
Shape2DView
100
AcDbLine
 10
97.3512
 20
-121.505
 30
0
 11
95.0414
 21
-125.505
 31
0
  0
LINE
  5
F03
330
A02
100
AcDbEntity
  8
Shape2DView
100
AcDbLine
 10
101.97
 20
-129.505
 30
0
 11
104.28
 21
-125.505
 31
0
  0
LINE
  5
F04
330
A02
100
AcDbEntity
  8
Shape2DView
100
AcDbLine
 10
95.0414
 20
-125.505
 30
0
 11
97.3512
 21
-129.505
 31
0
  0
LINE
  5
F05
330
A02
100
AcDbEntity
  8
Shape2DView
100
AcDbLine
 10
97.3512
 20
-129.505
 30
0
 11
101.97
 21
-129.505
 31
0
  0
LINE
  5
F06
330
A02
100
AcDbEntity
  8
Shape2DView
100
AcDbLine
 10
116.97
 20
-121.505
 30
0
 11
112.351
 21
-121.505
 31
0
  0
LINE
  5
F07
330
A02
100
AcDbEntity
  8
Shape2DView
100
AcDbLine
 10
119.28
 20
-125.505
 30
0
 11
116.97
 21
-121.505
 31
0
  0
LINE
  5
F08
330
A02
100
AcDbEntity
  8
Shape2DView
100
AcDbLine
 10
112.351
 20
-121.505
 30
0
 11
110.041
 21
-125.505
 31
0
  0
LINE
  5
F09
330
A02
100
AcDbEntity
  8
Shape2DView
100
AcDbLine
 10
116.97
 20
-129.505
 30
0
 11
119.28
 21
-125.505
 31
0
  0
LINE
  5
F0A
330
A02
100
AcDbEntity
  8
Shape2DView
100
AcDbLine
 10
110.041
 20
-125.505
 30
0
 11
112.351
 21
-129.505
 31
0
  0
LINE
  5
F0B
330
A02
100
AcDbEntity
  8
Shape2DView
100
AcDbLine
 10
112.351
 20
-129.505
 30
0
 11
116.97
 21
-129.505
 31
0
  0
LINE
  5
F0C
330
A02
100
AcDbEntity
  8
Shape2DView
100
AcDbLine
 10
131.97
 20
-121.505
 30
0
 11
127.351
 21
-121.505
 31
0
  0
LINE
  5
F0D
330
A02
100
AcDbEntity
  8
Shape2DView
100
AcDbLine
 10
134.28
 20
-125.505
 30
0
 11
131.97
 21
-121.505
 31
0
  0
LINE
  5
F0E
330
A02
100
AcDbEntity
  8
Shape2DView
100
AcDbLine
 10
127.351
 20
-121.505
 30
0
 11
125.041
 21
-125.505
 31
0
  0
LINE
  5
F0F
330
A02
100
AcDbEntity
  8
Shape2DView
100
AcDbLine
 10
131.97
 20
-129.505
 30
0
 11
134.28
 21
-125.505
 31
0
  0
LINE
  5
F10
330
A02
100
AcDbEntity
  8
Shape2DView
100
AcDbLine
 10
125.041
 20
-125.505
 30
0
 11
127.351
 21
-129.505
 31
0
  0
LINE
  5
F11
330
A02
100
AcDbEntity
  8
Shape2DView
100
AcDbLine
 10
127.351
 20
-129.505
 30
0
 11
131.97
 21
-129.505
 31
0
  0
LINE
  5
F12
330
A02
100
AcDbEntity
  8
Shape2DView
100
AcDbLine
 10
146.97
 20
-121.505
 30
0
 11
142.351
 21
-121.505
 31
0
  0
LINE
  5
F13
330
A02
100
AcDbEntity
  8
Shape2DView
100
AcDbLine
 10
149.28
 20
-125.505
 30
0
 11
146.97
 21
-121.505
 31
0
  0
LINE
  5
F14
330
A02
100
AcDbEntity
  8
Shape2DView
100
AcDbLine
 10
142.351
 20
-121.505
 30
0
 11
140.041
 21
-125.505
 31
0
  0
LINE
  5
F15
330
A02
100
AcDbEntity
  8
Shape2DView
100
AcDbLine
 10
146.97
 20
-129.505
 30
0
 11
149.28
 21
-125.505
 31
0
  0
LINE
  5
F16
330
A02
100
AcDbEntity
  8
Shape2DView
100
AcDbLine
 10
140.041
 20
-125.505
 30
0
 11
142.351
 21
-129.505
 31
0
  0
LINE
  5
F17
330
A02
100
AcDbEntity
  8
Shape2DView
100
AcDbLine
 10
142.351
 20
-129.505
 30
0
 11
146.97
 21
-129.505
 31
0
  0
CIRCLE
  5
F18
330
A02
100
AcDbEntity
  8
Shape2DView
100
AcDbCircle
 10
161.264
 20
-129.449
 40
1.6
  0
CIRCLE
  5
F19
330
A02
100
AcDbEntity
  8
Shape2DView
100
AcDbCircle
 10
192.264
 20
-129.449
 40
1.6
  0
CIRCLE
  5
F1A
330
A02
100
AcDbEntity
  8
Shape2DView
100
AcDbCircle
 10
195
 20
-115.87
 40
4
  0
CIRCLE
  5
F1B
330
A02
100
AcDbEntity
  8
Shape2DView
100
AcDbCircle
 10
52.696
 20
-156.583
 40
1.2
  0
ENDSEC
  0
SECTION
  2
OBJECTS
  0
DICTIONARY
  5
F000
330
0
100
AcDbDictionary
  3
ACAD_GROUP
350
F001
  0
DICTIONARY
  5
F001
330
F000
100
AcDbDictionary
  0
ENDSEC
  0
EOF