0
SECTION
2
HEADER
9
$INSUNITS
70
4
9
$ACADVER
1
AC1014
9
$HANDSEED
5
FFFF
0
ENDSEC
0
SECTION
2
TABLES
0
TABLE
2
VPORT
5
8
100
AcDbSymbolTable
0
ENDTAB
0
TABLE
2
LTYPE
5
5
100
AcDbSymbolTable
70
2
0
LTYPE
5
14
100
AcDbSymbolTableRecord
100
AcDbLinetypeTableRecord
2
BYBLOCK
70
0
0
LTYPE
5
15
100
AcDbSymbolTableRecord
100
AcDbLinetypeTableRecord
2
BYLAYER
70
0
0
ENDTAB
0
TABLE
2
LAYER
5
2
100
AcDbSymbolTable
70
3
0
LAYER
5
50
100
AcDbSymbolTableRecord
100
AcDbLayerTableRecord
2
0
70
0
6
CONTINUOUS
0
LAYER
5
51
100
AcDbSymbolTableRecord
100
AcDbLayerTableRecord
2
CUTOUTS
70
0
62
1
6
CONTINUOUS
0
LAYER
5
52
100
AcDbSymbolTableRecord
100
AcDbLayerTableRecord
2
PERIMETER
70
0
62
5
6
CONTINUOUS
0
ENDTAB
0
TABLE
2
STYLE
5
3
100
AcDbSymbolTable
70
1
0
STYLE
5
11
100
AcDbSymbolTableRecord
100
AcDbTextStyleTableRecord
2
STANDARD
70
0
0
ENDTAB
0
TABLE
2
VIEW
5
6
100
AcDbSymbolTable
0
ENDTAB
0
TABLE
2
UCS
5
7
100
AcDbSymbolTable
0
ENDTAB
0
TABLE
2
APPID
5
9
100
AcDbSymbolTable
70
1
0
APPID
5
12
100
AcDbSymbolTableRecord
100
AcDbRegAppTableRecord
2
ACAD
70
0
0
ENDTAB
0
TABLE
2
DIMSTYLE
5
A
100
AcDbSymbolTable
0
ENDTAB
0
TABLE
2
BLOCK_RECORD
5
1
100
AcDbSymbolTable
70
2
0
BLOCK_RECORD
5
1F
100
AcDbSymbolTableRecord
100
AcDbBlockTableRecord
2
*MODEL_SPACE
0
BLOCK_RECORD
5
1B
100
AcDbSymbolTableRecord
100
AcDbBlockTableRecord
2
*PAPER_SPACE
0
ENDTAB
0
ENDSEC
0
SECTION
2
BLOCKS
0
BLOCK
5
20
100
AcDbEntity
100
AcDbBlockBegin
2
*MODEL_SPACE
0
ENDBLK
5
21
100
AcDbEntity
100
AcDbBlockEnd
0
BLOCK
5
1C
100
AcDbEntity
100
AcDbBlockBegin
2
*PAPER_SPACE
0
ENDBLK
5
1D
100
AcDbEntity
100
AcDbBlockEnd
0
ENDSEC
0
SECTION
2
ENTITIES
0
CIRCLE
5
100
100
AcDbEntity
8
CUTOUTS
100
AcDbCircle
10
-215
20
-115
30
0
40
3.9000000000000057
210
0
220
0
230
1
0
CIRCLE
5
101
100
AcDbEntity
8
CUTOUTS
100
AcDbCircle
10
-202.727
20
-59.670000000000002
30
0
40
2.8999999999999915
210
0
220
0
230
1
0
CIRCLE
5
102
100
AcDbEntity
8
CUTOUTS
100
AcDbCircle
10
-187.727
20
-59.670000000000002
30
0
40
2.8999999999999915
210
0
220
0
230
1
0
CIRCLE
5
103
100
AcDbEntity
8
CUTOUTS
100
AcDbCircle
10
-172.727
20
-59.670000000000002
30
0
40
2.8999999999999915
210
0
220
0
230
1
0
CIRCLE
5
104
100
AcDbEntity
8
CUTOUTS
100
AcDbCircle
10
-157.727
20
-59.670000000000002
30
0
40
2.8999999999999915
210
0
220
0
230
1
0
CIRCLE
5
105
100
AcDbEntity
8
CUTOUTS
100
AcDbCircle
10
-142.727
20
-59.670000000000002
30
0
40
2.8999999999999915
210
0
220
0
230
1
0
CIRCLE
5
106
100
AcDbEntity
8
CUTOUTS
100
AcDbCircle
10
-127.727
20
-59.670000000000002
30
0
40
2.8999999999999915
210
0
220
0
230
1
0
CIRCLE
5
107
100
AcDbEntity
8
CUTOUTS
100
AcDbCircle
10
-112.727
20
-59.670000000000002
30
0
40
2.8999999999999915
210
0
220
0
230
1
0
CIRCLE
5
108
100
AcDbEntity
8
CUTOUTS
100
AcDbCircle
10
-97.727000000000004
20
-89.670000000000002
30
0
40
2.8999999999999915
210
0
220
0
230
1
0
CIRCLE
5
109
100
AcDbEntity
8
CUTOUTS
100
AcDbCircle
10
-82.727000000000004
20
-89.670000000000002
30
0
40
2.9000000000000004
210
0
220
0
230
1
0
CIRCLE
5
10A
100
AcDbEntity
8
CUTOUTS
100
AcDbCircle
10
-67.727000000000004
20
-89.670000000000002
30
0
40
2.9000000000000004
210
0
220
0
230
1
0
CIRCLE
5
10B
100
AcDbEntity
8
CUTOUTS
100
AcDbCircle
10
-52.727000000000004
20
-89.670000000000002
30
0
40
2.9000000000000004
210
0
220
0
230
1
0
CIRCLE
5
10C
100
AcDbEntity
8
CUTOUTS
100
AcDbCircle
10
-37.726999999999997
20
-89.670000000000002
30
0
40
2.9000000000000004
210
0
220
0
230
1
0
CIRCLE
5
10D
100
AcDbEntity
8
CUTOUTS
100
AcDbCircle
10
-22.727
20
-89.670000000000002
30
0
40
2.9000000000000004
210
0
220
0
230
1
0
CIRCLE
5
10E
100
AcDbEntity
8
CUTOUTS
100
AcDbCircle
10
-7.7270000000000003
20
-89.670000000000002
30
0
40
2.9000000000000004
210
0
220
0
230
1
0
CIRCLE
5
10F
100
AcDbEntity
8
CUTOUTS
100
AcDbCircle
10
-97.727000000000004
20
-74.670000000000002
30
0
40
2.8999999999999915
210
0
220
0
230
1
0
CIRCLE
5
110
100
AcDbEntity
8
CUTOUTS
100
AcDbCircle
10
-82.727000000000004
20
-74.670000000000002
30
0
40
2.9000000000000004
210
0
220
0
230
1
0
CIRCLE
5
111
100
AcDbEntity
8
CUTOUTS
100
AcDbCircle
10
-67.727000000000004
20
-74.670000000000002
30
0
40
2.9000000000000004
210
0
220
0
230
1
0
CIRCLE
5
112
100
AcDbEntity
8
CUTOUTS
100
AcDbCircle
10
-97.727000000000004
20
-59.670000000000002
30
0
40
2.8999999999999915
210
0
220
0
230
1
0
CIRCLE
5
113
100
AcDbEntity
8
CUTOUTS
100
AcDbCircle
10
-82.727000000000004
20
-59.670000000000002
30
0
40
2.9000000000000004
210
0
220
0
230
1
0
CIRCLE
5
114
100
AcDbEntity
8
CUTOUTS
100
AcDbCircle
10
-67.727000000000004
20
-59.670000000000002
30
0
40
2.9000000000000004
210
0
220
0
230
1
0
CIRCLE
5
115
100
AcDbEntity
8
CUTOUTS
100
AcDbCircle
10
-52.727000000000004
20
-74.670000000000002
30
0
40
2.9000000000000004
210
0
220
0
230
1
0
CIRCLE
5
116
100
AcDbEntity
8
CUTOUTS
100
AcDbCircle
10
-37.726999999999997
20
-74.670000000000002
30
0
40
2.9000000000000004
210
0
220
0
230
1
0
CIRCLE
5
117
100
AcDbEntity
8
CUTOUTS
100
AcDbCircle
10
-22.727
20
-74.670000000000002
30
0
40
2.9000000000000004
210
0
220
0
230
1
0
CIRCLE
5
118
100
AcDbEntity
8
CUTOUTS
100
AcDbCircle
10
-7.7270000000000003
20
-74.670000000000002
30
0
40
2.9000000000000004
210
0
220
0
230
1
0
CIRCLE
5
119
100
AcDbEntity
8
CUTOUTS
100
AcDbCircle
10
-52.727000000000004
20
-59.670000000000002
30
0
40
2.9000000000000004
210
0
220
0
230
1
0
CIRCLE
5
11A
100
AcDbEntity
8
CUTOUTS
100
AcDbCircle
10
-37.726999999999997
20
-59.670000000000002
30
0
40
2.9000000000000004
210
0
220
0
230
1
0
CIRCLE
5
11B
100
AcDbEntity
8
CUTOUTS
100
AcDbCircle
10
-22.727
20
-59.670000000000002
30
0
40
2.9000000000000004
210
0
220
0
230
1
0
CIRCLE
5
11C
100
AcDbEntity
8
CUTOUTS
100
AcDbCircle
10
-7.7270000000000003
20
-59.670000000000002
30
0
40
2.9000000000000004
210
0
220
0
230
1
0
CIRCLE
5
11D
100
AcDbEntity
8
CUTOUTS
100
AcDbCircle
10
-202.727
20
-44.670000000000002
30
0
40
2.8999999999999915
210
0
220
0
230
1
0
CIRCLE
5
11E
100
AcDbEntity
8
CUTOUTS
100
AcDbCircle
10
-187.727
20
-44.670000000000002
30
0
40
2.8999999999999915
210
0
220
0
230
1
0
CIRCLE
5
11F
100
AcDbEntity
8
CUTOUTS
100
AcDbCircle
10
-172.727
20
-44.670000000000002
30
0
40
2.8999999999999915
210
0
220
0
230
1
0
CIRCLE
5
120
100
AcDbEntity
8
CUTOUTS
100
AcDbCircle
10
-157.727
20
-44.670000000000002
30
0
40
2.8999999999999915
210
0
220
0
230
1
0
CIRCLE
5
121
100
AcDbEntity
8
CUTOUTS
100
AcDbCircle
10
-142.727
20
-44.670000000000002
30
0
40
2.8999999999999915
210
0
220
0
230
1
0
CIRCLE
5
122
100
AcDbEntity
8
CUTOUTS
100
AcDbCircle
10
-127.727
20
-44.670000000000002
30
0
40
2.8999999999999915
210
0
220
0
230
1
0
CIRCLE
5
123
100
AcDbEntity
8
CUTOUTS
100
AcDbCircle
10
-112.727
20
-44.670000000000002
30
0
40
2.8999999999999915
210
0
220
0
230
1
0
CIRCLE
5
124
100
AcDbEntity
8
CUTOUTS
100
AcDbCircle
10
-202.727
20
-29.670000000000005
30
0
40
2.8999999999999915
210
0
220
0
230
1
0
CIRCLE
5
125
100
AcDbEntity
8
CUTOUTS
100
AcDbCircle
10
-187.727
20
-29.670000000000005
30
0
40
2.8999999999999915
210
0
220
0
230
1
0
CIRCLE
5
126
100
AcDbEntity
8
CUTOUTS
100
AcDbCircle
10
-172.727
20
-29.670000000000005
30
0
40
2.8999999999999915
210
0
220
0
230
1
0
CIRCLE
5
127
100
AcDbEntity
8
CUTOUTS
100
AcDbCircle
10
-202.727
20
-14.670000000000002
30
0
40
2.8999999999999915
210
0
220
0
230
1
0
CIRCLE
5
128
100
AcDbEntity
8
CUTOUTS
100
AcDbCircle
10
-187.727
20
-14.670000000000002
30
0
40
2.8999999999999915
210
0
220
0
230
1
0
CIRCLE
5
129
100
AcDbEntity
8
CUTOUTS
100
AcDbCircle
10
-172.727
20
-14.670000000000002
30
0
40
2.8999999999999915
210
0
220
0
230
1
0
CIRCLE
5
12A
100
AcDbEntity
8
CUTOUTS
100
AcDbCircle
10
-157.727
20
-29.670000000000005
30
0
40
2.8999999999999915
210
0
220
0
230
1
0
CIRCLE
5
12B
100
AcDbEntity
8
CUTOUTS
100
AcDbCircle
10
-142.727
20
-29.670000000000005
30
0
40
2.8999999999999915
210
0
220
0
230
1
0
CIRCLE
5
12C
100
AcDbEntity
8
CUTOUTS
100
AcDbCircle
10
-127.727
20
-29.670000000000005
30
0
40
2.8999999999999915
210
0
220
0
230
1
0
CIRCLE
5
12D
100
AcDbEntity
8
CUTOUTS
100
AcDbCircle
10
-112.727
20
-29.670000000000005
30
0
40
2.8999999999999915
210
0
220
0
230
1
0
CIRCLE
5
12E
100
AcDbEntity
8
CUTOUTS
100
AcDbCircle
10
-157.727
20
-14.670000000000002
30
0
40
2.8999999999999915
210
0
220
0
230
1
0
CIRCLE
5
12F
100
AcDbEntity
8
CUTOUTS
100
AcDbCircle
10
-142.727
20
-14.670000000000002
30
0
40
2.8999999999999915
210
0
220
0
230
1
0
CIRCLE
5
130
100
AcDbEntity
8
CUTOUTS
100
AcDbCircle
10
-127.727
20
-14.670000000000002
30
0
40
2.8999999999999915
210
0
220
0
230
1
0
CIRCLE
5
131
100
AcDbEntity
8
CUTOUTS
100
AcDbCircle
10
-112.727
20
-14.670000000000002
30
0
40
2.8999999999999915
210
0
220
0
230
1
0
CIRCLE
5
132
100
AcDbEntity
8
CUTOUTS
100
AcDbCircle
10
-97.727000000000004
20
-44.670000000000002
30
0
40
2.8999999999999915
210
0
220
0
230
1
0
CIRCLE
5
133
100
AcDbEntity
8
CUTOUTS
100
AcDbCircle
10
-82.727000000000004
20
-44.670000000000002
30
0
40
2.9000000000000004
210
0
220
0
230
1
0
CIRCLE
5
134
100
AcDbEntity
8
CUTOUTS
100
AcDbCircle
10
-67.727000000000004
20
-44.670000000000002
30
0
40
2.9000000000000004
210
0
220
0
230
1
0
CIRCLE
5
135
100
AcDbEntity
8
CUTOUTS
100
AcDbCircle
10
-52.727000000000004
20
-44.670000000000002
30
0
40
2.9000000000000004
210
0
220
0
230
1
0
CIRCLE
5
136
100
AcDbEntity
8
CUTOUTS
100
AcDbCircle
10
-37.726999999999997
20
-44.670000000000002
30
0
40
2.9000000000000004
210
0
220
0
230
1
0
CIRCLE
5
137
100
AcDbEntity
8
CUTOUTS
100
AcDbCircle
10
-22.727
20
-44.670000000000002
30
0
40
2.9000000000000004
210
0
220
0
230
1
0
CIRCLE
5
138
100
AcDbEntity
8
CUTOUTS
100
AcDbCircle
10
-7.7270000000000003
20
-44.670000000000002
30
0
40
2.9000000000000004
210
0
220
0
230
1
0
CIRCLE
5
139
100
AcDbEntity
8
CUTOUTS
100
AcDbCircle
10
-97.727000000000004
20
-29.670000000000005
30
0
40
2.8999999999999915
210
0
220
0
230
1
0
CIRCLE
5
13A
100
AcDbEntity
8
CUTOUTS
100
AcDbCircle
10
-82.727000000000004
20
-29.670000000000005
30
0
40
2.9000000000000004
210
0
220
0
230
1
0
CIRCLE
5
13B
100
AcDbEntity
8
CUTOUTS
100
AcDbCircle
10
-67.727000000000004
20
-29.670000000000005
30
0
40
2.9000000000000004
210
0
220
0
230
1
0
CIRCLE
5
13C
100
AcDbEntity
8
CUTOUTS
100
AcDbCircle
10
-97.727000000000004
20
-14.670000000000002
30
0
40
2.8999999999999915
210
0
220
0
230
1
0
CIRCLE
5
13D
100
AcDbEntity
8
CUTOUTS
100
AcDbCircle
10
-82.727000000000004
20
-14.670000000000002
30
0
40
2.9000000000000004
210
0
220
0
230
1
0
CIRCLE
5
13E
100
AcDbEntity
8
CUTOUTS
100
AcDbCircle
10
-67.727000000000004
20
-14.670000000000002
30
0
40
2.9000000000000004
210
0
220
0
230
1
0
CIRCLE
5
13F
100
AcDbEntity
8
CUTOUTS
100
AcDbCircle
10
-52.727000000000004
20
-29.670000000000005
30
0
40
2.9000000000000004
210
0
220
0
230
1
0
CIRCLE
5
140
100
AcDbEntity
8
CUTOUTS
100
AcDbCircle
10
-37.726999999999997
20
-29.670000000000005
30
0
40
2.9000000000000004
210
0
220
0
230
1
0
CIRCLE
5
141
100
AcDbEntity
8
CUTOUTS
100
AcDbCircle
10
-22.727
20
-29.670000000000005
30
0
40
2.9000000000000004
210
0
220
0
230
1
0
CIRCLE
5
142
100
AcDbEntity
8
CUTOUTS
100
AcDbCircle
10
-7.7270000000000003
20
-29.670000000000005
30
0
40
2.9000000000000004
210
0
220
0
230
1
0
CIRCLE
5
143
100
AcDbEntity
8
CUTOUTS
100
AcDbCircle
10
-52.727000000000004
20
-14.670000000000002
30
0
40
2.9000000000000004
210
0
220
0
230
1
0
CIRCLE
5
144
100
AcDbEntity
8
CUTOUTS
100
AcDbCircle
10
-37.726999999999997
20
-14.670000000000002
30
0
40
2.9000000000000004
210
0
220
0
230
1
0
CIRCLE
5
145
100
AcDbEntity
8
CUTOUTS
100
AcDbCircle
10
-22.727
20
-14.670000000000002
30
0
40
2.9000000000000004
210
0
220
0
230
1
0
CIRCLE
5
146
100
AcDbEntity
8
CUTOUTS
100
AcDbCircle
10
-7.7270000000000003
20
-14.670000000000002
30
0
40
2.9000000000000004
210
0
220
0
230
1
0
CIRCLE
5
147
100
AcDbEntity
8
CUTOUTS
100
AcDbCircle
10
7.2730000000000006
20
-89.670000000000002
30
0
40
2.9000000000000004
210
0
220
0
230
1
0
CIRCLE
5
148
100
AcDbEntity
8
CUTOUTS
100
AcDbCircle
10
22.273
20
-89.670000000000002
30
0
40
2.9000000000000004
210
0
220
0
230
1
0
CIRCLE
5
149
100
AcDbEntity
8
CUTOUTS
100
AcDbCircle
10
37.273000000000003
20
-89.670000000000002
30
0
40
2.9000000000000004
210
0
220
0
230
1
0
CIRCLE
5
14A
100
AcDbEntity
8
CUTOUTS
100
AcDbCircle
10
52.273000000000003
20
-89.670000000000002
30
0
40
2.9000000000000004
210
0
220
0
230
1
0
CIRCLE
5
14B
100
AcDbEntity
8
CUTOUTS
100
AcDbCircle
10
67.272999999999996
20
-89.670000000000002
30
0
40
2.9000000000000004
210
0
220
0
230
1
0
CIRCLE
5
14C
100
AcDbEntity
8
CUTOUTS
100
AcDbCircle
10
82.272999999999996
20
-89.670000000000002
30
0
40
2.8999999999999915
210
0
220
0
230
1
0
CIRCLE
5
14D
100
AcDbEntity
8
CUTOUTS
100
AcDbCircle
10
97.272999999999996
20
-89.670000000000002
30
0
40
2.8999999999999915
210
0
220
0
230
1
0
CIRCLE
5
14E
100
AcDbEntity
8
CUTOUTS
100
AcDbCircle
10
7.2730000000000006
20
-74.670000000000002
30
0
40
2.9000000000000004
210
0
220
0
230
1
0
CIRCLE
5
14F
100
AcDbEntity
8
CUTOUTS
100
AcDbCircle
10
22.273
20
-74.670000000000002
30
0
40
2.9000000000000004
210
0
220
0
230
1
0
CIRCLE
5
150
100
AcDbEntity
8
CUTOUTS
100
AcDbCircle
10
37.273000000000003
20
-74.670000000000002
30
0
40
2.9000000000000004
210
0
220
0
230
1
0
CIRCLE
5
151
100
AcDbEntity
8
CUTOUTS
100
AcDbCircle
10
52.273000000000003
20
-74.670000000000002
30
0
40
2.9000000000000004
210
0
220
0
230
1
0
CIRCLE
5
152
100
AcDbEntity
8
CUTOUTS
100
AcDbCircle
10
7.2730000000000006
20
-59.670000000000002
30
0
40
2.9000000000000004
210
0
220
0
230
1
0
CIRCLE
5
153
100
AcDbEntity
8
CUTOUTS
100
AcDbCircle
10
22.273
20
-59.670000000000002
30
0
40
2.9000000000000004
210
0
220
0
230
1
0
CIRCLE
5
154
100
AcDbEntity
8
CUTOUTS
100
AcDbCircle
10
37.273000000000003
20
-59.670000000000002
30
0
40
2.9000000000000004
210
0
220
0
230
1
0
CIRCLE
5
155
100
AcDbEntity
8
CUTOUTS
100
AcDbCircle
10
52.273000000000003
20
-59.670000000000002
30
0
40
2.9000000000000004
210
0
220
0
230
1
0
CIRCLE
5
156
100
AcDbEntity
8
CUTOUTS
100
AcDbCircle
10
67.272999999999996
20
-74.670000000000002
30
0
40
2.9000000000000004
210
0
220
0
230
1
0
CIRCLE
5
157
100
AcDbEntity
8
CUTOUTS
100
AcDbCircle
10
82.272999999999996
20
-74.670000000000002
30
0
40
2.8999999999999915
210
0
220
0
230
1
0
CIRCLE
5
158
100
AcDbEntity
8
CUTOUTS
100
AcDbCircle
10
97.272999999999996
20
-74.670000000000002
30
0
40
2.8999999999999915
210
0
220
0
230
1
0
CIRCLE
5
159
100
AcDbEntity
8
CUTOUTS
100
AcDbCircle
10
67.272999999999996
20
-59.670000000000002
30
0
40
2.9000000000000004
210
0
220
0
230
1
0
CIRCLE
5
15A
100
AcDbEntity
8
CUTOUTS
100
AcDbCircle
10
82.272999999999996
20
-59.670000000000002
30
0
40
2.8999999999999915
210
0
220
0
230
1
0
CIRCLE
5
15B
100
AcDbEntity
8
CUTOUTS
100
AcDbCircle
10
97.272999999999996
20
-59.670000000000002
30
0
40
2.8999999999999915
210
0
220
0
230
1
0
CIRCLE
5
15C
100
AcDbEntity
8
CUTOUTS
100
AcDbCircle
10
112.273
20
-89.670000000000002
30
0
40
2.8999999999999915
210
0
220
0
230
1
0
CIRCLE
5
15D
100
AcDbEntity
8
CUTOUTS
100
AcDbCircle
10
127.273
20
-89.670000000000002
30
0
40
2.8999999999999915
210
0
220
0
230
1
0
CIRCLE
5
15E
100
AcDbEntity
8
CUTOUTS
100
AcDbCircle
10
142.273
20
-89.670000000000002
30
0
40
2.8999999999999915
210
0
220
0
230
1
0
CIRCLE
5
15F
100
AcDbEntity
8
CUTOUTS
100
AcDbCircle
10
157.273
20
-89.670000000000002
30
0
40
2.8999999999999915
210
0
220
0
230
1
0
CIRCLE
5
160
100
AcDbEntity
8
CUTOUTS
100
AcDbCircle
10
215
20
-115
30
0
40
3.9000000000000057
210
0
220
0
230
1
0
CIRCLE
5
161
100
AcDbEntity
8
CUTOUTS
100
AcDbCircle
10
172.273
20
-89.670000000000002
30
0
40
2.8999999999999915
210
0
220
0
230
1
0
CIRCLE
5
162
100
AcDbEntity
8
CUTOUTS
100
AcDbCircle
10
187.273
20
-89.670000000000002
30
0
40
2.8999999999999915
210
0
220
0
230
1
0
CIRCLE
5
163
100
AcDbEntity
8
CUTOUTS
100
AcDbCircle
10
202.273
20
-89.670000000000002
30
0
40
2.8999999999999915
210
0
220
0
230
1
0
CIRCLE
5
164
100
AcDbEntity
8
CUTOUTS
100
AcDbCircle
10
112.273
20
-74.670000000000002
30
0
40
2.8999999999999915
210
0
220
0
230
1
0
CIRCLE
5
165
100
AcDbEntity
8
CUTOUTS
100
AcDbCircle
10
127.273
20
-74.670000000000002
30
0
40
2.8999999999999915
210
0
220
0
230
1
0
CIRCLE
5
166
100
AcDbEntity
8
CUTOUTS
100
AcDbCircle
10
142.273
20
-74.670000000000002
30
0
40
2.8999999999999915
210
0
220
0
230
1
0
CIRCLE
5
167
100
AcDbEntity
8
CUTOUTS
100
AcDbCircle
10
157.273
20
-74.670000000000002
30
0
40
2.8999999999999915
210
0
220
0
230
1
0
CIRCLE
5
168
100
AcDbEntity
8
CUTOUTS
100
AcDbCircle
10
112.273
20
-59.670000000000002
30
0
40
2.8999999999999915
210
0
220
0
230
1
0
CIRCLE
5
169
100
AcDbEntity
8
CUTOUTS
100
AcDbCircle
10
127.273
20
-59.670000000000002
30
0
40
2.8999999999999915
210
0
220
0
230
1
0
CIRCLE
5
16A
100
AcDbEntity
8
CUTOUTS
100
AcDbCircle
10
142.273
20
-59.670000000000002
30
0
40
2.8999999999999915
210
0
220
0
230
1
0
CIRCLE
5
16B
100
AcDbEntity
8
CUTOUTS
100
AcDbCircle
10
157.273
20
-59.670000000000002
30
0
40
2.8999999999999915
210
0
220
0
230
1
0
CIRCLE
5
16C
100
AcDbEntity
8
CUTOUTS
100
AcDbCircle
10
172.273
20
-74.670000000000002
30
0
40
2.8999999999999915
210
0
220
0
230
1
0
CIRCLE
5
16D
100
AcDbEntity
8
CUTOUTS
100
AcDbCircle
10
187.273
20
-74.670000000000002
30
0
40
2.8999999999999915
210
0
220
0
230
1
0
CIRCLE
5
16E
100
AcDbEntity
8
CUTOUTS
100
AcDbCircle
10
202.273
20
-74.670000000000002
30
0
40
2.8999999999999915
210
0
220
0
230
1
0
CIRCLE
5
16F
100
AcDbEntity
8
CUTOUTS
100
AcDbCircle
10
172.273
20
-59.670000000000002
30
0
40
2.8999999999999915
210
0
220
0
230
1
0
CIRCLE
5
170
100
AcDbEntity
8
CUTOUTS
100
AcDbCircle
10
187.273
20
-59.670000000000002
30
0
40
2.8999999999999915
210
0
220
0
230
1
0
CIRCLE
5
171
100
AcDbEntity
8
CUTOUTS
100
AcDbCircle
10
202.273
20
-59.670000000000002
30
0
40
2.8999999999999915
210
0
220
0
230
1
0
CIRCLE
5
172
100
AcDbEntity
8
CUTOUTS
100
AcDbCircle
10
7.2730000000000006
20
-44.670000000000002
30
0
40
2.9000000000000004
210
0
220
0
230
1
0
CIRCLE
5
173
100
AcDbEntity
8
CUTOUTS
100
AcDbCircle
10
22.273
20
-44.670000000000002
30
0
40
2.9000000000000004
210
0
220
0
230
1
0
CIRCLE
5
174
100
AcDbEntity
8
CUTOUTS
100
AcDbCircle
10
37.273000000000003
20
-44.670000000000002
30
0
40
2.9000000000000004
210
0
220
0
230
1
0
CIRCLE
5
175
100
AcDbEntity
8
CUTOUTS
100
AcDbCircle
10
52.273000000000003
20
-44.670000000000002
30
0
40
2.9000000000000004
210
0
220
0
230
1
0
CIRCLE
5
176
100
AcDbEntity
8
CUTOUTS
100
AcDbCircle
10
67.272999999999996
20
-44.670000000000002
30
0
40
2.9000000000000004
210
0
220
0
230
1
0
CIRCLE
5
177
100
AcDbEntity
8
CUTOUTS
100
AcDbCircle
10
82.272999999999996
20
-44.670000000000002
30
0
40
2.8999999999999915
210
0
220
0
230
1
0
CIRCLE
5
178
100
AcDbEntity
8
CUTOUTS
100
AcDbCircle
10
97.272999999999996
20
-44.670000000000002
30
0
40
2.8999999999999915
210
0
220
0
230
1
0
CIRCLE
5
179
100
AcDbEntity
8
CUTOUTS
100
AcDbCircle
10
7.2730000000000006
20
-29.670000000000005
30
0
40
2.9000000000000004
210
0
220
0
230
1
0
CIRCLE
5
17A
100
AcDbEntity
8
CUTOUTS
100
AcDbCircle
10
22.273
20
-29.670000000000005
30
0
40
2.9000000000000004
210
0
220
0
230
1
0
CIRCLE
5
17B
100
AcDbEntity
8
CUTOUTS
100
AcDbCircle
10
37.273000000000003
20
-29.670000000000005
30
0
40
2.9000000000000004
210
0
220
0
230
1
0
CIRCLE
5
17C
100
AcDbEntity
8
CUTOUTS
100
AcDbCircle
10
52.273000000000003
20
-29.670000000000005
30
0
40
2.9000000000000004
210
0
220
0
230
1
0
CIRCLE
5
17D
100
AcDbEntity
8
CUTOUTS
100
AcDbCircle
10
7.2730000000000006
20
-14.670000000000002
30
0
40
2.9000000000000004
210
0
220
0
230
1
0
CIRCLE
5
17E
100
AcDbEntity
8
CUTOUTS
100
AcDbCircle
10
22.273
20
-14.670000000000002
30
0
40
2.9000000000000004
210
0
220
0
230
1
0
CIRCLE
5
17F
100
AcDbEntity
8
CUTOUTS
100
AcDbCircle
10
37.273000000000003
20
-14.670000000000002
30
0
40
2.9000000000000004
210
0
220
0
230
1
0
CIRCLE
5
180
100
AcDbEntity
8
CUTOUTS
100
AcDbCircle
10
52.273000000000003
20
-14.670000000000002
30
0
40
2.9000000000000004
210
0
220
0
230
1
0
CIRCLE
5
181
100
AcDbEntity
8
CUTOUTS
100
AcDbCircle
10
67.272999999999996
20
-29.670000000000005
30
0
40
2.9000000000000004
210
0
220
0
230
1
0
CIRCLE
5
182
100
AcDbEntity
8
CUTOUTS
100
AcDbCircle
10
82.272999999999996
20
-29.670000000000005
30
0
40
2.8999999999999915
210
0
220
0
230
1
0
CIRCLE
5
183
100
AcDbEntity
8
CUTOUTS
100
AcDbCircle
10
97.272999999999996
20
-29.670000000000005
30
0
40
2.8999999999999915
210
0
220
0
230
1
0
CIRCLE
5
184
100
AcDbEntity
8
CUTOUTS
100
AcDbCircle
10
67.272999999999996
20
-14.670000000000002
30
0
40
2.9000000000000004
210
0
220
0
230
1
0
CIRCLE
5
185
100
AcDbEntity
8
CUTOUTS
100
AcDbCircle
10
82.272999999999996
20
-14.670000000000002
30
0
40
2.8999999999999915
210
0
220
0
230
1
0
CIRCLE
5
186
100
AcDbEntity
8
CUTOUTS
100
AcDbCircle
10
97.272999999999996
20
-14.670000000000002
30
0
40
2.8999999999999915
210
0
220
0
230
1
0
CIRCLE
5
187
100
AcDbEntity
8
CUTOUTS
100
AcDbCircle
10
112.273
20
-44.670000000000002
30
0
40
2.8999999999999915
210
0
220
0
230
1
0
CIRCLE
5
188
100
AcDbEntity
8
CUTOUTS
100
AcDbCircle
10
127.273
20
-44.670000000000002
30
0
40
2.8999999999999915
210
0
220
0
230
1
0
CIRCLE
5
189
100
AcDbEntity
8
CUTOUTS
100
AcDbCircle
10
142.273
20
-44.670000000000002
30
0
40
2.8999999999999915
210
0
220
0
230
1
0
CIRCLE
5
18A
100
AcDbEntity
8
CUTOUTS
100
AcDbCircle
10
157.273
20
-44.670000000000002
30
0
40
2.8999999999999915
210
0
220
0
230
1
0
CIRCLE
5
18B
100
AcDbEntity
8
CUTOUTS
100
AcDbCircle
10
172.273
20
-44.670000000000002
30
0
40
2.8999999999999915
210
0
220
0
230
1
0
CIRCLE
5
18C
100
AcDbEntity
8
CUTOUTS
100
AcDbCircle
10
187.273
20
-44.670000000000002
30
0
40
2.8999999999999915
210
0
220
0
230
1
0
CIRCLE
5
18D
100
AcDbEntity
8
CUTOUTS
100
AcDbCircle
10
202.273
20
-44.670000000000002
30
0
40
2.8999999999999915
210
0
220
0
230
1
0
CIRCLE
5
18E
100
AcDbEntity
8
CUTOUTS
100
AcDbCircle
10
112.273
20
-29.670000000000005
30
0
40
2.8999999999999915
210
0
220
0
230
1
0
CIRCLE
5
18F
100
AcDbEntity
8
CUTOUTS
100
AcDbCircle
10
127.273
20
-29.670000000000005
30
0
40
2.8999999999999915
210
0
220
0
230
1
0
CIRCLE
5
190
100
AcDbEntity
8
CUTOUTS
100
AcDbCircle
10
142.273
20
-29.670000000000005
30
0
40
2.8999999999999915
210
0
220
0
230
1
0
CIRCLE
5
191
100
AcDbEntity
8
CUTOUTS
100
AcDbCircle
10
157.273
20
-29.670000000000005
30
0
40
2.8999999999999915
210
0
220
0
230
1
0
CIRCLE
5
192
100
AcDbEntity
8
CUTOUTS
100
AcDbCircle
10
112.273
20
-14.670000000000002
30
0
40
2.8999999999999915
210
0
220
0
230
1
0
CIRCLE
5
193
100
AcDbEntity
8
CUTOUTS
100
AcDbCircle
10
127.273
20
-14.670000000000002
30
0
40
2.8999999999999915
210
0
220
0
230
1
0
CIRCLE
5
194
100
AcDbEntity
8
CUTOUTS
100
AcDbCircle
10
142.273
20
-14.670000000000002
30
0
40
2.8999999999999915
210
0
220
0
230
1
0
CIRCLE
5
195
100
AcDbEntity
8
CUTOUTS
100
AcDbCircle
10
157.273
20
-14.670000000000002
30
0
40
2.8999999999999915
210
0
220
0
230
1
0
CIRCLE
5
196
100
AcDbEntity
8
CUTOUTS
100
AcDbCircle
10
172.273
20
-29.670000000000005
30
0
40
2.8999999999999915
210
0
220
0
230
1
0
CIRCLE
5
197
100
AcDbEntity
8
CUTOUTS
100
AcDbCircle
10
187.273
20
-29.670000000000005
30
0
40
2.8999999999999915
210
0
220
0
230
1
0
CIRCLE
5
198
100
AcDbEntity
8
CUTOUTS
100
AcDbCircle
10
202.273
20
-29.670000000000005
30
0
40
2.8999999999999915
210
0
220
0
230
1
0
CIRCLE
5
199
100
AcDbEntity
8
CUTOUTS
100
AcDbCircle
10
172.273
20
-14.670000000000002
30
0
40
2.8999999999999915
210
0
220
0
230
1
0
CIRCLE
5
19A
100
AcDbEntity
8
CUTOUTS
100
AcDbCircle
10
187.273
20
-14.670000000000002
30
0
40
2.8999999999999915
210
0
220
0
230
1
0
CIRCLE
5
19B
100
AcDbEntity
8
CUTOUTS
100
AcDbCircle
10
202.273
20
-14.670000000000002
30
0
40
2.8999999999999915
210
0
220
0
230
1
0
CIRCLE
5
19C
100
AcDbEntity
8
CUTOUTS
100
AcDbCircle
10
-215
20
-7.100000000000001e-15
30
0
40
3.9000000000000057
210
0
220
0
230
1
0
CIRCLE
5
19D
100
AcDbEntity
8
CUTOUTS
100
AcDbCircle
10
-202.727
20
0.33000000000000002
30
0
40
2.8999999999999915
210
0
220
0
230
1
0
CIRCLE
5
19E
100
AcDbEntity
8
CUTOUTS
100
AcDbCircle
10
-187.727
20
0.33000000000000002
30
0
40
2.8999999999999915
210
0
220
0
230
1
0
CIRCLE
5
19F
100
AcDbEntity
8
CUTOUTS
100
AcDbCircle
10
-172.727
20
0.33000000000000002
30
0
40
2.8999999999999915
210
0
220
0
230
1
0
CIRCLE
5
1A0
100
AcDbEntity
8
CUTOUTS
100
AcDbCircle
10
-202.727
20
15.330000000000002
30
0
40
2.8999999999999915
210
0
220
0
230
1
0
CIRCLE
5
1A1
100
AcDbEntity
8
CUTOUTS
100
AcDbCircle
10
-187.727
20
15.330000000000002
30
0
40
2.8999999999999915
210
0
220
0
230
1
0
CIRCLE
5
1A2
100
AcDbEntity
8
CUTOUTS
100
AcDbCircle
10
-172.727
20
15.330000000000002
30
0
40
2.8999999999999915
210
0
220
0
230
1
0
CIRCLE
5
1A3
100
AcDbEntity
8
CUTOUTS
100
AcDbCircle
10
-157.727
20
0.33000000000000002
30
0
40
2.8999999999999915
210
0
220
0
230
1
0
CIRCLE
5
1A4
100
AcDbEntity
8
CUTOUTS
100
AcDbCircle
10
-142.727
20
0.33000000000000002
30
0
40
2.8999999999999915
210
0
220
0
230
1
0
CIRCLE
5
1A5
100
AcDbEntity
8
CUTOUTS
100
AcDbCircle
10
-127.727
20
0.33000000000000002
30
0
40
2.8999999999999915
210
0
220
0
230
1
0
CIRCLE
5
1A6
100
AcDbEntity
8
CUTOUTS
100
AcDbCircle
10
-112.727
20
0.33000000000000002
30
0
40
2.8999999999999915
210
0
220
0
230
1
0
CIRCLE
5
1A7
100
AcDbEntity
8
CUTOUTS
100
AcDbCircle
10
-157.727
20
15.330000000000002
30
0
40
2.8999999999999915
210
0
220
0
230
1
0
CIRCLE
5
1A8
100
AcDbEntity
8
CUTOUTS
100
AcDbCircle
10
-142.727
20
15.330000000000002
30
0
40
2.8999999999999915
210
0
220
0
230
1
0
CIRCLE
5
1A9
100
AcDbEntity
8
CUTOUTS
100
AcDbCircle
10
-127.727
20
15.330000000000002
30
0
40
2.8999999999999915
210
0
220
0
230
1
0
CIRCLE
5
1AA
100
AcDbEntity
8
CUTOUTS
100
AcDbCircle
10
-112.727
20
15.330000000000002
30
0
40
2.8999999999999915
210
0
220
0
230
1
0
CIRCLE
5
1AB
100
AcDbEntity
8
CUTOUTS
100
AcDbCircle
10
-202.727
20
30.329999999999998
30
0
40
2.8999999999999915
210
0
220
0
230
1
0
CIRCLE
5
1AC
100
AcDbEntity
8
CUTOUTS
100
AcDbCircle
10
-187.727
20
30.329999999999998
30
0
40
2.8999999999999915
210
0
220
0
230
1
0
CIRCLE
5
1AD
100
AcDbEntity
8
CUTOUTS
100
AcDbCircle
10
-172.727
20
30.329999999999998
30
0
40
2.8999999999999915
210
0
220
0
230
1
0
CIRCLE
5
1AE
100
AcDbEntity
8
CUTOUTS
100
AcDbCircle
10
-202.727
20
45.330000000000005
30
0
40
2.8999999999999915
210
0
220
0
230
1
0
CIRCLE
5
1AF
100
AcDbEntity
8
CUTOUTS
100
AcDbCircle
10
-187.727
20
45.330000000000005
30
0
40
2.8999999999999915
210
0
220
0
230
1
0
CIRCLE
5
1B0
100
AcDbEntity
8
CUTOUTS
100
AcDbCircle
10
-172.727
20
45.330000000000005
30
0
40
2.8999999999999915
210
0
220
0
230
1
0
CIRCLE
5
1B1
100
AcDbEntity
8
CUTOUTS
100
AcDbCircle
10
-157.727
20
30.329999999999998
30
0
40
2.8999999999999915
210
0
220
0
230
1
0
CIRCLE
5
1B2
100
AcDbEntity
8
CUTOUTS
100
AcDbCircle
10
-142.727
20
30.329999999999998
30
0
40
2.8999999999999915
210
0
220
0
230
1
0
CIRCLE
5
1B3
100
AcDbEntity
8
CUTOUTS
100
AcDbCircle
10
-127.727
20
30.329999999999998
30
0
40
2.8999999999999915
210
0
220
0
230
1
0
CIRCLE
5
1B4
100
AcDbEntity
8
CUTOUTS
100
AcDbCircle
10
-112.727
20
30.329999999999998
30
0
40
2.8999999999999915
210
0
220
0
230
1
0
CIRCLE
5
1B5
100
AcDbEntity
8
CUTOUTS
100
AcDbCircle
10
-157.727
20
45.330000000000005
30
0
40
2.8999999999999915
210
0
220
0
230
1
0
CIRCLE
5
1B6
100
AcDbEntity
8
CUTOUTS
100
AcDbCircle
10
-142.727
20
45.330000000000005
30
0
40
2.8999999999999915
210
0
220
0
230
1
0
CIRCLE
5
1B7
100
AcDbEntity
8
CUTOUTS
100
AcDbCircle
10
-127.727
20
45.330000000000005
30
0
40
2.8999999999999915
210
0
220
0
230
1
0
CIRCLE
5
1B8
100
AcDbEntity
8
CUTOUTS
100
AcDbCircle
10
-112.727
20
45.330000000000005
30
0
40
2.8999999999999915
210
0
220
0
230
1
0
CIRCLE
5
1B9
100
AcDbEntity
8
CUTOUTS
100
AcDbCircle
10
-97.727000000000004
20
0.33000000000000002
30
0
40
2.8999999999999915
210
0
220
0
230
1
0
CIRCLE
5
1BA
100
AcDbEntity
8
CUTOUTS
100
AcDbCircle
10
-82.727000000000004
20
0.33000000000000002
30
0
40
2.9000000000000004
210
0
220
0
230
1
0
CIRCLE
5
1BB
100
AcDbEntity
8
CUTOUTS
100
AcDbCircle
10
-67.727000000000004
20
0.33000000000000002
30
0
40
2.9000000000000004
210
0
220
0
230
1
0
CIRCLE
5
1BC
100
AcDbEntity
8
CUTOUTS
100
AcDbCircle
10
-97.727000000000004
20
15.330000000000002
30
0
40
2.8999999999999915
210
0
220
0
230
1
0
CIRCLE
5
1BD
100
AcDbEntity
8
CUTOUTS
100
AcDbCircle
10
-82.727000000000004
20
15.330000000000002
30
0
40
2.9000000000000004
210
0
220
0
230
1
0
CIRCLE
5
1BE
100
AcDbEntity
8
CUTOUTS
100
AcDbCircle
10
-67.727000000000004
20
15.330000000000002
30
0
40
2.9000000000000004
210
0
220
0
230
1
0
CIRCLE
5
1BF
100
AcDbEntity
8
CUTOUTS
100
AcDbCircle
10
-52.727000000000004
20
0.33000000000000002
30
0
40
2.9000000000000004
210
0
220
0
230
1
0
CIRCLE
5
1C0
100
AcDbEntity
8
CUTOUTS
100
AcDbCircle
10
-37.726999999999997
20
0.33000000000000002
30
0
40
2.9000000000000004
210
0
220
0
230
1
0
CIRCLE
5
1C1
100
AcDbEntity
8
CUTOUTS
100
AcDbCircle
10
-22.727
20
0.33000000000000002
30
0
40
2.9000000000000004
210
0
220
0
230
1
0
CIRCLE
5
1C2
100
AcDbEntity
8
CUTOUTS
100
AcDbCircle
10
-7.7270000000000003
20
0.33000000000000002
30
0
40
2.9000000000000004
210
0
220
0
230
1
0
CIRCLE
5
1C3
100
AcDbEntity
8
CUTOUTS
100
AcDbCircle
10
-52.727000000000004
20
15.330000000000002
30
0
40
2.9000000000000004
210
0
220
0
230
1
0
CIRCLE
5
1C4
100
AcDbEntity
8
CUTOUTS
100
AcDbCircle
10
-37.726999999999997
20
15.330000000000002
30
0
40
2.9000000000000004
210
0
220
0
230
1
0
CIRCLE
5
1C5
100
AcDbEntity
8
CUTOUTS
100
AcDbCircle
10
-22.727
20
15.330000000000002
30
0
40
2.9000000000000004
210
0
220
0
230
1
0
CIRCLE
5
1C6
100
AcDbEntity
8
CUTOUTS
100
AcDbCircle
10
-7.7270000000000003
20
15.330000000000002
30
0
40
2.9000000000000004
210
0
220
0
230
1
0
CIRCLE
5
1C7
100
AcDbEntity
8
CUTOUTS
100
AcDbCircle
10
-97.727000000000004
20
30.329999999999998
30
0
40
2.8999999999999915
210
0
220
0
230
1
0
CIRCLE
5
1C8
100
AcDbEntity
8
CUTOUTS
100
AcDbCircle
10
-82.727000000000004
20
30.329999999999998
30
0
40
2.9000000000000004
210
0
220
0
230
1
0
CIRCLE
5
1C9
100
AcDbEntity
8
CUTOUTS
100
AcDbCircle
10
-82.657000000000011
20
44.497999999999998
30
0
40
2.6500000000000057
210
0
220
0
230
1
0
CIRCLE
5
1CA
100
AcDbEntity
8
CUTOUTS
100
AcDbCircle
10
-67.727000000000004
20
30.329999999999998
30
0
40
2.9000000000000004
210
0
220
0
230
1
0
CIRCLE
5
1CB
100
AcDbEntity
8
CUTOUTS
100
AcDbCircle
10
-98.781999999999996
20
47.069236931134
30
0
40
2.1000000000000085
210
0
220
0
230
1
0
CIRCLE
5
1CC
100
AcDbEntity
8
CUTOUTS
100
AcDbCircle
10
-98.781999999999996
20
56.569236931134
30
0
40
2.1000000000000085
210
0
220
0
230
1
0
CIRCLE
5
1CD
100
AcDbEntity
8
CUTOUTS
100
AcDbCircle
10
-52.727000000000004
20
30.329999999999998
30
0
40
2.9000000000000004
210
0
220
0
230
1
0
CIRCLE
5
1CE
100
AcDbEntity
8
CUTOUTS
100
AcDbCircle
10
-37.726999999999997
20
30.329999999999998
30
0
40
2.9000000000000004
210
0
220
0
230
1
0
CIRCLE
5
1CF
100
AcDbEntity
8
CUTOUTS
100
AcDbCircle
10
-42.656999999999996
20
44.497999999999998
30
0
40
2.6499999999999968
210
0
220
0
230
1
0
CIRCLE
5
1D0
100
AcDbEntity
8
CUTOUTS
100
AcDbCircle
10
-22.727
20
30.329999999999998
30
0
40
2.9000000000000004
210
0
220
0
230
1
0
CIRCLE
5
1D1
100
AcDbEntity
8
CUTOUTS
100
AcDbCircle
10
-7.7270000000000003
20
30.329999999999998
30
0
40
2.9000000000000004
210
0
220
0
230
1
0
CIRCLE
5
1D2
100
AcDbEntity
8
CUTOUTS
100
AcDbCircle
10
-2.657
20
44.497999999999998
30
0
40
2.6500000000000004
210
0
220
0
230
1
0
CIRCLE
5
1D3
100
AcDbEntity
8
CUTOUTS
100
AcDbCircle
10
-202.727
20
60.330000000000005
30
0
40
2.8999999999999915
210
0
220
0
230
1
0
CIRCLE
5
1D4
100
AcDbEntity
8
CUTOUTS
100
AcDbCircle
10
-187.727
20
60.330000000000005
30
0
40
2.8999999999999915
210
0
220
0
230
1
0
CIRCLE
5
1D5
100
AcDbEntity
8
CUTOUTS
100
AcDbCircle
10
-172.727
20
60.330000000000005
30
0
40
2.8999999999999915
210
0
220
0
230
1
0
CIRCLE
5
1D6
100
AcDbEntity
8
CUTOUTS
100
AcDbCircle
10
-202.72400000000002
20
75.329999999999998
30
0
40
2.8999999999999915
210
0
220
0
230
1
0
CIRCLE
5
1D7
100
AcDbEntity
8
CUTOUTS
100
AcDbCircle
10
-187.72400000000002
20
75.329999999999998
30
0
40
2.8999999999999915
210
0
220
0
230
1
0
CIRCLE
5
1D8
100
AcDbEntity
8
CUTOUTS
100
AcDbCircle
10
-172.72400000000002
20
75.329999999999998
30
0
40
2.8999999999999915
210
0
220
0
230
1
0
CIRCLE
5
1D9
100
AcDbEntity
8
CUTOUTS
100
AcDbCircle
10
-157.727
20
60.330000000000005
30
0
40
2.8999999999999915
210
0
220
0
230
1
0
CIRCLE
5
1DA
100
AcDbEntity
8
CUTOUTS
100
AcDbCircle
10
-142.727
20
60.330000000000005
30
0
40
2.8999999999999915
210
0
220
0
230
1
0
CIRCLE
5
1DB
100
AcDbEntity
8
CUTOUTS
100
AcDbCircle
10
-127.727
20
60.330000000000005
30
0
40
2.8999999999999915
210
0
220
0
230
1
0
CIRCLE
5
1DC
100
AcDbEntity
8
CUTOUTS
100
AcDbCircle
10
-157.72399999999999
20
75.329999999999998
30
0
40
2.9000000000000092
210
0
220
0
230
1
0
CIRCLE
5
1DD
100
AcDbEntity
8
CUTOUTS
100
AcDbCircle
10
-142.72399999999999
20
75.329999999999998
30
0
40
2.9000000000000092
210
0
220
0
230
1
0
CIRCLE
5
1DE
100
AcDbEntity
8
CUTOUTS
100
AcDbCircle
10
-127.72400000000002
20
75.329999999999998
30
0
40
2.8999999999999915
210
0
220
0
230
1
0
CIRCLE
5
1DF
100
AcDbEntity
8
CUTOUTS
100
AcDbCircle
10
-202.72400000000002
20
90.329999999999998
30
0
40
2.8999999999999915
210
0
220
0
230
1
0
CIRCLE
5
1E0
100
AcDbEntity
8
CUTOUTS
100
AcDbCircle
10
-187.72400000000002
20
90.329999999999998
30
0
40
2.8999999999999915
210
0
220
0
230
1
0
CIRCLE
5
1E1
100
AcDbEntity
8
CUTOUTS
100
AcDbCircle
10
-172.72400000000002
20
90.329999999999998
30
0
40
2.8999999999999915
210
0
220
0
230
1
0
CIRCLE
5
1E2
100
AcDbEntity
8
CUTOUTS
100
AcDbCircle
10
-202.72400000000002
20
105.33000000000001
30
0
40
2.8999999999999915
210
0
220
0
230
1
0
CIRCLE
5
1E3
100
AcDbEntity
8
CUTOUTS
100
AcDbCircle
10
-215
20
115
30
0
40
3.9000000000000057
210
0
220
0
230
1
0
CIRCLE
5
1E4
100
AcDbEntity
8
CUTOUTS
100
AcDbCircle
10
-187.72400000000002
20
105.33000000000001
30
0
40
2.8999999999999915
210
0
220
0
230
1
0
CIRCLE
5
1E5
100
AcDbEntity
8
CUTOUTS
100
AcDbCircle
10
-172.72400000000002
20
105.33000000000001
30
0
40
2.8999999999999915
210
0
220
0
230
1
0
CIRCLE
5
1E6
100
AcDbEntity
8
CUTOUTS
100
AcDbCircle
10
-157.72399999999999
20
90.329999999999998
30
0
40
2.9000000000000092
210
0
220
0
230
1
0
CIRCLE
5
1E7
100
AcDbEntity
8
CUTOUTS
100
AcDbCircle
10
-142.72399999999999
20
90.329999999999998
30
0
40
2.9000000000000092
210
0
220
0
230
1
0
CIRCLE
5
1E8
100
AcDbEntity
8
CUTOUTS
100
AcDbCircle
10
-127.72400000000002
20
90.329999999999998
30
0
40
2.8999999999999915
210
0
220
0
230
1
0
CIRCLE
5
1E9
100
AcDbEntity
8
CUTOUTS
100
AcDbCircle
10
-112.72400000000002
20
90.329999999999998
30
0
40
2.8999999999999915
210
0
220
0
230
1
0
CIRCLE
5
1EA
100
AcDbEntity
8
CUTOUTS
100
AcDbCircle
10
-157.72399999999999
20
105.33000000000001
30
0
40
2.9000000000000092
210
0
220
0
230
1
0
CIRCLE
5
1EB
100
AcDbEntity
8
CUTOUTS
100
AcDbCircle
10
-142.72399999999999
20
105.33000000000001
30
0
40
2.9000000000000092
210
0
220
0
230
1
0
CIRCLE
5
1EC
100
AcDbEntity
8
CUTOUTS
100
AcDbCircle
10
-127.72400000000002
20
105.33000000000001
30
0
40
2.8999999999999915
210
0
220
0
230
1
0
CIRCLE
5
1ED
100
AcDbEntity
8
CUTOUTS
100
AcDbCircle
10
-112.72400000000002
20
105.33000000000001
30
0
40
2.8999999999999915
210
0
220
0
230
1
0
LINE
5
1EE
100
AcDbEntity
8
CUTOUTS
100
AcDbLine
10
-103.09152197161927
20
62.100999999999999
30
0
11
-107.50247802828073
21
62.100999999999999
31
0
0
LINE
5
1EF
100
AcDbEntity
8
CUTOUTS
100
AcDbLine
10
-107.50247802828073
20
62.100999999999999
30
0
11
-109.70795605656238
21
65.921000000000006
31
0
0
LINE
5
1F0
100
AcDbEntity
8
CUTOUTS
100
AcDbLine
10
-109.70795605656238
20
65.921000000000006
30
0
11
-107.50247802828073
21
69.741
31
0
0
LINE
5
1F1
100
AcDbEntity
8
CUTOUTS
100
AcDbLine
10
-107.50247802828073
20
69.741
30
0
11
-103.09152197161927
21
69.741
31
0
0
LINE
5
1F2
100
AcDbEntity
8
CUTOUTS
100
AcDbLine
10
-103.09152197161927
20
69.741
30
0
11
-100.88604394333764
21
65.921000000000006
31
0
0
LINE
5
1F3
100
AcDbEntity
8
CUTOUTS
100
AcDbLine
10
-100.88604394333764
20
65.921000000000006
30
0
11
-103.09152197161927
21
62.100999999999999
31
0
0
LINE
5
1F4
100
AcDbEntity
8
CUTOUTS
100
AcDbLine
10
-91.522000000000006
20
66.472000000000008
30
0
11
45.441000000000003
21
66.472000000000008
31
0
0
LINE
5
1F5
100
AcDbEntity
8
CUTOUTS
100
AcDbLine
10
45.441000000000003
20
66.472000000000008
30
0
11
45.441000000000003
21
55.460000000000001
31
0
0
LINE
5
1F6
100
AcDbEntity
8
CUTOUTS
100
AcDbLine
10
45.441000000000003
20
55.460000000000001
30
0
11
-91.522000000000006
21
55.460000000000001
31
0
0
LINE
5
1F7
100
AcDbEntity
8
CUTOUTS
100
AcDbLine
10
-91.522000000000006
20
55.460000000000001
30
0
11
-91.522000000000006
21
66.472000000000008
31
0
0
CIRCLE
5
1F8
100
AcDbEntity
8
CUTOUTS
100
AcDbCircle
10
7.2730000000000006
20
0.33000000000000002
30
0
40
2.9000000000000004
210
0
220
0
230
1
0
CIRCLE
5
1F9
100
AcDbEntity
8
CUTOUTS
100
AcDbCircle
10
22.273
20
0.33000000000000002
30
0
40
2.9000000000000004
210
0
220
0
230
1
0
CIRCLE
5
1FA
100
AcDbEntity
8
CUTOUTS
100
AcDbCircle
10
37.273000000000003
20
0.33000000000000002
30
0
40
2.9000000000000004
210
0
220
0
230
1
0
CIRCLE
5
1FB
100
AcDbEntity
8
CUTOUTS
100
AcDbCircle
10
52.273000000000003
20
0.33000000000000002
30
0
40
2.9000000000000004
210
0
220
0
230
1
0
CIRCLE
5
1FC
100
AcDbEntity
8
CUTOUTS
100
AcDbCircle
10
7.2730000000000006
20
15.330000000000002
30
0
40
2.9000000000000004
210
0
220
0
230
1
0
CIRCLE
5
1FD
100
AcDbEntity
8
CUTOUTS
100
AcDbCircle
10
22.273
20
15.330000000000002
30
0
40
2.9000000000000004
210
0
220
0
230
1
0
CIRCLE
5
1FE
100
AcDbEntity
8
CUTOUTS
100
AcDbCircle
10
37.273000000000003
20
15.330000000000002
30
0
40
2.9000000000000004
210
0
220
0
230
1
0
CIRCLE
5
1FF
100
AcDbEntity
8
CUTOUTS
100
AcDbCircle
10
52.273000000000003
20
15.330000000000002
30
0
40
2.9000000000000004
210
0
220
0
230
1
0
CIRCLE
5
200
100
AcDbEntity
8
CUTOUTS
100
AcDbCircle
10
67.272999999999996
20
0.33000000000000002
30
0
40
2.9000000000000004
210
0
220
0
230
1
0
CIRCLE
5
201
100
AcDbEntity
8
CUTOUTS
100
AcDbCircle
10
82.272999999999996
20
0.33000000000000002
30
0
40
2.8999999999999915
210
0
220
0
230
1
0
CIRCLE
5
202
100
AcDbEntity
8
CUTOUTS
100
AcDbCircle
10
97.272999999999996
20
0.33000000000000002
30
0
40
2.8999999999999915
210
0
220
0
230
1
0
CIRCLE
5
203
100
AcDbEntity
8
CUTOUTS
100
AcDbCircle
10
67.272999999999996
20
15.330000000000002
30
0
40
2.9000000000000004
210
0
220
0
230
1
0
CIRCLE
5
204
100
AcDbEntity
8
CUTOUTS
100
AcDbCircle
10
82.272999999999996
20
15.330000000000002
30
0
40
2.8999999999999915
210
0
220
0
230
1
0
CIRCLE
5
205
100
AcDbEntity
8
CUTOUTS
100
AcDbCircle
10
97.272999999999996
20
15.330000000000002
30
0
40
2.8999999999999915
210
0
220
0
230
1
0
CIRCLE
5
206
100
AcDbEntity
8
CUTOUTS
100
AcDbCircle
10
7.2730000000000006
20
30.329999999999998
30
0
40
2.9000000000000004
210
0
220
0
230
1
0
CIRCLE
5
207
100
AcDbEntity
8
CUTOUTS
100
AcDbCircle
10
22.273
20
30.329999999999998
30
0
40
2.9000000000000004
210
0
220
0
230
1
0
CIRCLE
5
208
100
AcDbEntity
8
CUTOUTS
100
AcDbCircle
10
37.273000000000003
20
30.329999999999998
30
0
40
2.9000000000000004
210
0
220
0
230
1
0
CIRCLE
5
209
100
AcDbEntity
8
CUTOUTS
100
AcDbCircle
10
52.273000000000003
20
30.329999999999998
30
0
40
2.9000000000000004
210
0
220
0
230
1
0
CIRCLE
5
20A
100
AcDbEntity
8
CUTOUTS
100
AcDbCircle
10
37.343000000000004
20
44.497999999999998
30
0
40
2.6500000000000012
210
0
220
0
230
1
0
CIRCLE
5
20B
100
AcDbEntity
8
CUTOUTS
100
AcDbCircle
10
52.701000000000001
20
47.069236931134
30
0
40
2.0999999999999996
210
0
220
0
230
1
0
CIRCLE
5
20C
100
AcDbEntity
8
CUTOUTS
100
AcDbCircle
10
52.701000000000001
20
56.569236931134
30
0
40
2.0999999999999996
210
0
220
0
230
1
0
CIRCLE
5
20D
100
AcDbEntity
8
CUTOUTS
100
AcDbCircle
10
67.272999999999996
20
30.329999999999998
30
0
40
2.9000000000000004
210
0
220
0
230
1
0
CIRCLE
5
20E
100
AcDbEntity
8
CUTOUTS
100
AcDbCircle
10
82.272999999999996
20
30.329999999999998
30
0
40
2.8999999999999915
210
0
220
0
230
1
0
CIRCLE
5
20F
100
AcDbEntity
8
CUTOUTS
100
AcDbCircle
10
97.272999999999996
20
30.329999999999998
30
0
40
2.8999999999999915
210
0
220
0
230
1
0
CIRCLE
5
210
100
AcDbEntity
8
CUTOUTS
100
AcDbCircle
10
67.272999999999996
20
45.330000000000005
30
0
40
2.9000000000000004
210
0
220
0
230
1
0
CIRCLE
5
211
100
AcDbEntity
8
CUTOUTS
100
AcDbCircle
10
82.272999999999996
20
45.330000000000005
30
0
40
2.8999999999999915
210
0
220
0
230
1
0
CIRCLE
5
212
100
AcDbEntity
8
CUTOUTS
100
AcDbCircle
10
97.272999999999996
20
45.330000000000005
30
0
40
2.8999999999999915
210
0
220
0
230
1
0
CIRCLE
5
213
100
AcDbEntity
8
CUTOUTS
100
AcDbCircle
10
112.273
20
0.33000000000000002
30
0
40
2.8999999999999915
210
0
220
0
230
1
0
CIRCLE
5
214
100
AcDbEntity
8
CUTOUTS
100
AcDbCircle
10
127.273
20
0.33000000000000002
30
0
40
2.8999999999999915
210
0
220
0
230
1
0
CIRCLE
5
215
100
AcDbEntity
8
CUTOUTS
100
AcDbCircle
10
142.273
20
0.33000000000000002
30
0
40
2.8999999999999915
210
0
220
0
230
1
0
CIRCLE
5
216
100
AcDbEntity
8
CUTOUTS
100
AcDbCircle
10
157.273
20
0.33000000000000002
30
0
40
2.8999999999999915
210
0
220
0
230
1
0
CIRCLE
5
217
100
AcDbEntity
8
CUTOUTS
100
AcDbCircle
10
112.273
20
15.330000000000002
30
0
40
2.8999999999999915
210
0
220
0
230
1
0
CIRCLE
5
218
100
AcDbEntity
8
CUTOUTS
100
AcDbCircle
10
127.273
20
15.330000000000002
30
0
40
2.8999999999999915
210
0
220
0
230
1
0
CIRCLE
5
219
100
AcDbEntity
8
CUTOUTS
100
AcDbCircle
10
142.273
20
15.330000000000002
30
0
40
2.8999999999999915
210
0
220
0
230
1
0
CIRCLE
5
21A
100
AcDbEntity
8
CUTOUTS
100
AcDbCircle
10
157.273
20
15.330000000000002
30
0
40
2.8999999999999915
210
0
220
0
230
1
0
CIRCLE
5
21B
100
AcDbEntity
8
CUTOUTS
100
AcDbCircle
10
172.273
20
0.33000000000000002
30
0
40
2.8999999999999915
210
0
220
0
230
1
0
CIRCLE
5
21C
100
AcDbEntity
8
CUTOUTS
100
AcDbCircle
10
187.273
20
0.33000000000000002
30
0
40
2.8999999999999915
210
0
220
0
230
1
0
CIRCLE
5
21D
100
AcDbEntity
8
CUTOUTS
100
AcDbCircle
10
202.273
20
0.33000000000000002
30
0
40
2.8999999999999915
210
0
220
0
230
1
0
CIRCLE
5
21E
100
AcDbEntity
8
CUTOUTS
100
AcDbCircle
10
215
20
0
30
0
40
3.9000000000000057
210
0
220
0
230
1
0
CIRCLE
5
21F
100
AcDbEntity
8
CUTOUTS
100
AcDbCircle
10
172.273
20
15.330000000000002
30
0
40
2.8999999999999915
210
0
220
0
230
1
0
CIRCLE
5
220
100
AcDbEntity
8
CUTOUTS
100
AcDbCircle
10
187.273
20
15.330000000000002
30
0
40
2.8999999999999915
210
0
220
0
230
1
0
CIRCLE
5
221
100
AcDbEntity
8
CUTOUTS
100
AcDbCircle
10
202.273
20
15.330000000000002
30
0
40
2.8999999999999915
210
0
220
0
230
1
0
CIRCLE
5
222
100
AcDbEntity
8
CUTOUTS
100
AcDbCircle
10
112.273
20
30.329999999999998
30
0
40
2.8999999999999915
210
0
220
0
230
1
0
CIRCLE
5
223
100
AcDbEntity
8
CUTOUTS
100
AcDbCircle
10
127.273
20
30.329999999999998
30
0
40
2.8999999999999915
210
0
220
0
230
1
0
CIRCLE
5
224
100
AcDbEntity
8
CUTOUTS
100
AcDbCircle
10
142.273
20
30.329999999999998
30
0
40
2.8999999999999915
210
0
220
0
230
1
0
CIRCLE
5
225
100
AcDbEntity
8
CUTOUTS
100
AcDbCircle
10
157.273
20
30.329999999999998
30
0
40
2.8999999999999915
210
0
220
0
230
1
0
CIRCLE
5
226
100
AcDbEntity
8
CUTOUTS
100
AcDbCircle
10
112.273
20
45.330000000000005
30
0
40
2.8999999999999915
210
0
220
0
230
1
0
CIRCLE
5
227
100
AcDbEntity
8
CUTOUTS
100
AcDbCircle
10
127.273
20
45.330000000000005
30
0
40
2.8999999999999915
210
0
220
0
230
1
0
CIRCLE
5
228
100
AcDbEntity
8
CUTOUTS
100
AcDbCircle
10
142.273
20
45.330000000000005
30
0
40
2.8999999999999915
210
0
220
0
230
1
0
CIRCLE
5
229
100
AcDbEntity
8
CUTOUTS
100
AcDbCircle
10
161.26389936218001
20
50.420710678119001
30
0
40
2.6500000000000057
210
0
220
0
230
1
0
CIRCLE
5
22A
100
AcDbEntity
8
CUTOUTS
100
AcDbCircle
10
172.273
20
30.329999999999998
30
0
40
2.8999999999999915
210
0
220
0
230
1
0
CIRCLE
5
22B
100
AcDbEntity
8
CUTOUTS
100
AcDbCircle
10
187.273
20
30.329999999999998
30
0
40
2.8999999999999915
210
0
220
0
230
1
0
CIRCLE
5
22C
100
AcDbEntity
8
CUTOUTS
100
AcDbCircle
10
202.273
20
30.329999999999998
30
0
40
2.8999999999999915
210
0
220
0
230
1
0
CIRCLE
5
22D
100
AcDbEntity
8
CUTOUTS
100
AcDbCircle
10
192.26389936218001
20
50.420710678119001
30
0
40
2.6500000000000057
210
0
220
0
230
1
0
CIRCLE
5
22E
100
AcDbEntity
8
CUTOUTS
100
AcDbCircle
10
52.273000000000003
20
75.329999999999998
30
0
40
2.9000000000000004
210
0
220
0
230
1
0
CIRCLE
5
22F
100
AcDbEntity
8
CUTOUTS
100
AcDbCircle
10
67.272999999999996
20
60.330000000000005
30
0
40
2.9000000000000004
210
0
220
0
230
1
0
CIRCLE
5
230
100
AcDbEntity
8
CUTOUTS
100
AcDbCircle
10
82.272999999999996
20
60.330000000000005
30
0
40
2.8999999999999915
210
0
220
0
230
1
0
CIRCLE
5
231
100
AcDbEntity
8
CUTOUTS
100
AcDbCircle
10
97.272999999999996
20
60.330000000000005
30
0
40
2.8999999999999915
210
0
220
0
230
1
0
CIRCLE
5
232
100
AcDbEntity
8
CUTOUTS
100
AcDbCircle
10
67.272999999999996
20
75.329999999999998
30
0
40
2.9000000000000004
210
0
220
0
230
1
0
CIRCLE
5
233
100
AcDbEntity
8
CUTOUTS
100
AcDbCircle
10
82.272999999999996
20
75.329999999999998
30
0
40
2.8999999999999915
210
0
220
0
230
1
0
CIRCLE
5
234
100
AcDbEntity
8
CUTOUTS
100
AcDbCircle
10
97.272999999999996
20
75.329999999999998
30
0
40
2.8999999999999915
210
0
220
0
230
1
0
CIRCLE
5
235
100
AcDbEntity
8
CUTOUTS
100
AcDbCircle
10
52.273000000000003
20
90.329999999999998
30
0
40
2.9000000000000004
210
0
220
0
230
1
0
CIRCLE
5
236
100
AcDbEntity
8
CUTOUTS
100
AcDbCircle
10
52.273000000000003
20
105.33000000000001
30
0
40
2.9000000000000004
210
0
220
0
230
1
0
CIRCLE
5
237
100
AcDbEntity
8
CUTOUTS
100
AcDbCircle
10
67.272999999999996
20
90.329999999999998
30
0
40
2.9000000000000004
210
0
220
0
230
1
0
CIRCLE
5
238
100
AcDbEntity
8
CUTOUTS
100
AcDbCircle
10
82.272999999999996
20
90.329999999999998
30
0
40
2.8999999999999915
210
0
220
0
230
1
0
CIRCLE
5
239
100
AcDbEntity
8
CUTOUTS
100
AcDbCircle
10
97.272999999999996
20
90.329999999999998
30
0
40
2.8999999999999915
210
0
220
0
230
1
0
CIRCLE
5
23A
100
AcDbEntity
8
CUTOUTS
100
AcDbCircle
10
67.272999999999996
20
105.33000000000001
30
0
40
2.9000000000000004
210
0
220
0
230
1
0
CIRCLE
5
23B
100
AcDbEntity
8
CUTOUTS
100
AcDbCircle
10
82.272999999999996
20
105.33000000000001
30
0
40
2.8999999999999915
210
0
220
0
230
1
0
CIRCLE
5
23C
100
AcDbEntity
8
CUTOUTS
100
AcDbCircle
10
97.272999999999996
20
105.33000000000001
30
0
40
2.8999999999999915
210
0
220
0
230
1
0
CIRCLE
5
23D
100
AcDbEntity
8
CUTOUTS
100
AcDbCircle
10
112.273
20
60.330000000000005
30
0
40
2.8999999999999915
210
0
220
0
230
1
0
CIRCLE
5
23E
100
AcDbEntity
8
CUTOUTS
100
AcDbCircle
10
127.273
20
60.330000000000005
30
0
40
2.8999999999999915
210
0
220
0
230
1
0
CIRCLE
5
23F
100
AcDbEntity
8
CUTOUTS
100
AcDbCircle
10
142.273
20
60.330000000000005
30
0
40
2.8999999999999915
210
0
220
0
230
1
0
CIRCLE
5
240
100
AcDbEntity
8
CUTOUTS
100
AcDbCircle
10
112.273
20
75.329999999999998
30
0
40
2.8999999999999915
210
0
220
0
230
1
0
CIRCLE
5
241
100
AcDbEntity
8
CUTOUTS
100
AcDbCircle
10
127.273
20
75.329999999999998
30
0
40
2.8999999999999915
210
0
220
0
230
1
0
CIRCLE
5
242
100
AcDbEntity
8
CUTOUTS
100
AcDbCircle
10
142.273
20
75.329999999999998
30
0
40
2.8999999999999915
210
0
220
0
230
1
0
CIRCLE
5
243
100
AcDbEntity
8
CUTOUTS
100
AcDbCircle
10
161.26389936218001
20
81.420710678118994
30
0
40
2.6500000000000057
210
0
220
0
230
1
0
CIRCLE
5
244
100
AcDbEntity
8
CUTOUTS
100
AcDbCircle
10
176.76389936218001
20
65.920710678118994
30
0
40
10.899999999999999
210
0
220
0
230
1
0
CIRCLE
5
245
100
AcDbEntity
8
CUTOUTS
100
AcDbCircle
10
192.26389936218001
20
81.420710678118994
30
0
40
2.6500000000000057
210
0
220
0
230
1
0
CIRCLE
5
246
100
AcDbEntity
8
CUTOUTS
100
AcDbCircle
10
112.273
20
90.329999999999998
30
0
40
2.8999999999999915
210
0
220
0
230
1
0
CIRCLE
5
247
100
AcDbEntity
8
CUTOUTS
100
AcDbCircle
10
127.273
20
90.329999999999998
30
0
40
2.8999999999999915
210
0
220
0
230
1
0
CIRCLE
5
248
100
AcDbEntity
8
CUTOUTS
100
AcDbCircle
10
142.273
20
90.329999999999998
30
0
40
2.8999999999999915
210
0
220
0
230
1
0
CIRCLE
5
249
100
AcDbEntity
8
CUTOUTS
100
AcDbCircle
10
112.273
20
105.33000000000001
30
0
40
2.8999999999999915
210
0
220
0
230
1
0
CIRCLE
5
24A
100
AcDbEntity
8
CUTOUTS
100
AcDbCircle
10
127.273
20
105.33000000000001
30
0
40
2.8999999999999915
210
0
220
0
230
1
0
CIRCLE
5
24B
100
AcDbEntity
8
CUTOUTS
100
AcDbCircle
10
142.273
20
105.33000000000001
30
0
40
2.8999999999999915
210
0
220
0
230
1
0
CIRCLE
5
24C
100
AcDbEntity
8
CUTOUTS
100
AcDbCircle
10
215
20
115
30
0
40
3.9000000000000057
210
0
220
0
230
1
0
LINE
5
24D
100
AcDbEntity
8
PERIMETER
100
AcDbLine
10
174.20000000000002
20
125.10000000000002
30
0
11
174.20000000000002
21
122.10000000000002
31
0
0
LINE
5
24E
100
AcDbEntity
8
PERIMETER
100
AcDbLine
10
174.20000000000002
20
122.10000000000002
30
0
11
-174.20000000000002
21
122.10000000000002
31
0
0
LINE
5
24F
100
AcDbEntity
8
PERIMETER
100
AcDbLine
10
-174.20000000000002
20
122.10000000000002
30
0
11
-174.20000000000002
21
125.10000000000002
31
0
0
LINE
5
250
100
AcDbEntity
8
PERIMETER
100
AcDbLine
10
-174.20000000000002
20
125.10000000000002
30
0
11
-225.10000000000002
21
125.10000000000002
31
0
0
LINE
5
251
100
AcDbEntity
8
PERIMETER
100
AcDbLine
10
-225.10000000000002
20
125.10000000000002
30
0
11
-225.10000000000002
21
-125.10000000000002
31
0
0
LINE
5
252
100
AcDbEntity
8
PERIMETER
100
AcDbLine
10
-225.10000000000002
20
-125.10000000000002
30
0
11
-174.20000000000002
21
-125.10000000000002
31
0
0
LINE
5
253
100
AcDbEntity
8
PERIMETER
100
AcDbLine
10
-174.20000000000002
20
-125.10000000000002
30
0
11
-174.20000000000002
21
-122.10000000000002
31
0
0
LINE
5
254
100
AcDbEntity
8
PERIMETER
100
AcDbLine
10
-174.20000000000002
20
-122.10000000000002
30
0
11
174.20000000000002
21
-122.10000000000002
31
0
0
LINE
5
255
100
AcDbEntity
8
PERIMETER
100
AcDbLine
10
174.20000000000002
20
-122.10000000000002
30
0
11
174.20000000000002
21
-125.10000000000002
31
0
0
LINE
5
256
100
AcDbEntity
8
PERIMETER
100
AcDbLine
10
174.20000000000002
20
-125.10000000000002
30
0
11
225.10000000000002
21
-125.10000000000002
31
0
0
LINE
5
257
100
AcDbEntity
8
PERIMETER
100
AcDbLine
10
225.10000000000002
20
-125.10000000000002
30
0
11
225.10000000000002
21
125.10000000000002
31
0
0
LINE
5
258
100
AcDbEntity
8
PERIMETER
100
AcDbLine
10
225.10000000000002
20
125.10000000000002
30
0
11
174.20000000000002
21
125.10000000000002
31
0
0
ENDSEC
0
SECTION
2
OBJECTS
0
DICTIONARY
5
C
100
AcDbDictionary
3
ACAD_GROUP
350
D
3
ACAD_MLINESTYLE
350
17
0
DICTIONARY
5
D
100
AcDbDictionary
0
DICTIONARY
5
1A
330
C
100
AcDbDictionary
0
DICTIONARY
5
17
100
AcDbDictionary
0
ENDSEC
0
EOF
