0
SECTION
2
HEADER
9
$INSUNITS
70
4
9
$ACADVER
1
AC1014
9
$HANDSEED
5
FFFF
0
ENDSEC
0
SECTION
2
TABLES
0
TABLE
2
VPORT
5
8
100
AcDbSymbolTable
0
ENDTAB
0
TABLE
2
LTYPE
5
5
100
AcDbSymbolTable
70
2
0
LTYPE
5
14
100
AcDbSymbolTableRecord
100
AcDbLinetypeTableRecord
2
BYBLOCK
70
0
0
LTYPE
5
15
100
AcDbSymbolTableRecord
100
AcDbLinetypeTableRecord
2
BYLAYER
70
0
0
ENDTAB
0
TABLE
2
LAYER
5
2
100
AcDbSymbolTable
70
3
0
LAYER
5
50
100
AcDbSymbolTableRecord
100
AcDbLayerTableRecord
2
0
70
0
6
CONTINUOUS
0
LAYER
5
51
100
AcDbSymbolTableRecord
100
AcDbLayerTableRecord
2
CUTOUTS
70
0
62
1
6
CONTINUOUS
0
LAYER
5
52
100
AcDbSymbolTableRecord
100
AcDbLayerTableRecord
2
PERIMETER
70
0
62
5
6
CONTINUOUS
0
ENDTAB
0
TABLE
2
STYLE
5
3
100
AcDbSymbolTable
70
1
0
STYLE
5
11
100
AcDbSymbolTableRecord
100
AcDbTextStyleTableRecord
2
STANDARD
70
0
0
ENDTAB
0
TABLE
2
VIEW
5
6
100
AcDbSymbolTable
0
ENDTAB
0
TABLE
2
UCS
5
7
100
AcDbSymbolTable
0
ENDTAB
0
TABLE
2
APPID
5
9
100
AcDbSymbolTable
70
1
0
APPID
5
12
100
AcDbSymbolTableRecord
100
AcDbRegAppTableRecord
2
ACAD
70
0
0
ENDTAB
0
TABLE
2
DIMSTYLE
5
A
100
AcDbSymbolTable
0
ENDTAB
0
TABLE
2
BLOCK_RECORD
5
1
100
AcDbSymbolTable
70
2
0
BLOCK_RECORD
5
1F
100
AcDbSymbolTableRecord
100
AcDbBlockTableRecord
2
*MODEL_SPACE
0
BLOCK_RECORD
5
1B
100
AcDbSymbolTableRecord
100
AcDbBlockTableRecord
2
*PAPER_SPACE
0
ENDTAB
0
ENDSEC
0
SECTION
2
BLOCKS
0
BLOCK
5
20
100
AcDbEntity
100
AcDbBlockBegin
2
*MODEL_SPACE
0
ENDBLK
5
21
100
AcDbEntity
100
AcDbBlockEnd
0
BLOCK
5
1C
100
AcDbEntity
100
AcDbBlockBegin
2
*PAPER_SPACE
0
ENDBLK
5
1D
100
AcDbEntity
100
AcDbBlockEnd
0
ENDSEC
0
SECTION
2
ENTITIES
0
LINE
5
100
100
AcDbEntity
8
CUTOUTS
100
AcDbLine
10
-19.018245569739999
20
-92.897260059909996
30
0
11
-14.491819459290001
21
-92.897260059909996
31
0
0
LINE
5
101
100
AcDbEntity
8
CUTOUTS
100
AcDbLine
10
-14.491819459290001
20
-92.897260059909996
30
0
11
-12.228606404070002
21
-96.817260059910012
31
0
0
LINE
5
102
100
AcDbEntity
8
CUTOUTS
100
AcDbLine
10
-12.228606404070002
20
-96.817260059910012
30
0
11
-14.491819459290001
21
-100.7372600599
31
0
0
LINE
5
103
100
AcDbEntity
8
CUTOUTS
100
AcDbLine
10
-14.491819459290001
20
-100.7372600599
30
0
11
-19.018245569739999
21
-100.7372600599
31
0
0
LINE
5
104
100
AcDbEntity
8
CUTOUTS
100
AcDbLine
10
-19.018245569739999
20
-100.7372600599
30
0
11
-21.281458624959999
21
-96.817260059910012
31
0
0
LINE
5
105
100
AcDbEntity
8
CUTOUTS
100
AcDbLine
10
-21.281458624959999
20
-96.817260059910012
30
0
11
-19.018245569739999
21
-92.897260059909996
31
0
0
LINE
5
106
100
AcDbEntity
8
CUTOUTS
100
AcDbLine
10
6.3428221673560001
20
-96.817260059910012
30
0
11
4.0796091121330003
21
-100.7372600599
31
0
0
LINE
5
107
100
AcDbEntity
8
CUTOUTS
100
AcDbLine
10
4.0796091121330003
20
-100.7372600599
30
0
11
-0.44681699831400024
21
-100.7372600599
31
0
0
LINE
5
108
100
AcDbEntity
8
CUTOUTS
100
AcDbLine
10
-0.44681699831400024
20
-100.7372600599
30
0
11
-2.7100300535370003
21
-96.817260059910012
31
0
0
LINE
5
109
100
AcDbEntity
8
CUTOUTS
100
AcDbLine
10
-2.7100300535370003
20
-96.817260059910012
30
0
11
-0.44681699831399996
21
-92.897260059909996
31
0
0
LINE
5
10A
100
AcDbEntity
8
CUTOUTS
100
AcDbLine
10
-0.44681699831399996
20
-92.897260059909996
30
0
11
4.0796091121330003
21
-92.897260059909996
31
0
0
LINE
5
10B
100
AcDbEntity
8
CUTOUTS
100
AcDbLine
10
4.0796091121330003
20
-92.897260059909996
30
0
11
6.3428221673560001
21
-96.817260059910012
31
0
0
LINE
5
10C
100
AcDbEntity
8
CUTOUTS
100
AcDbLine
10
22.651037683561999
20
-92.897260059909996
30
0
11
24.914250738785
21
-96.817260059910012
31
0
0
LINE
5
10D
100
AcDbEntity
8
CUTOUTS
100
AcDbLine
10
24.914250738785
20
-96.817260059910012
30
0
11
22.651037683561999
21
-100.7372600599
31
0
0
LINE
5
10E
100
AcDbEntity
8
CUTOUTS
100
AcDbLine
10
22.651037683561999
20
-100.7372600599
30
0
11
18.124611573115001
21
-100.7372600599
31
0
0
LINE
5
10F
100
AcDbEntity
8
CUTOUTS
100
AcDbLine
10
18.124611573115001
20
-100.7372600599
30
0
11
15.861398517892003
21
-96.817260059910012
31
0
0
LINE
5
110
100
AcDbEntity
8
CUTOUTS
100
AcDbLine
10
15.861398517892003
20
-96.817260059910012
30
0
11
18.124611573115001
21
-92.897260059909996
31
0
0
LINE
5
111
100
AcDbEntity
8
CUTOUTS
100
AcDbLine
10
18.124611573115001
20
-92.897260059909996
30
0
11
22.651037683561999
21
-92.897260059909996
31
0
0
LINE
5
112
100
AcDbEntity
8
CUTOUTS
100
AcDbLine
10
-14.491819459290001
20
-74.147260059909996
30
0
11
-12.228606404070002
21
-78.067260059909998
31
0
0
LINE
5
113
100
AcDbEntity
8
CUTOUTS
100
AcDbLine
10
-12.228606404070002
20
-78.067260059909998
30
0
11
-14.491819459290001
21
-81.98726005991
31
0
0
LINE
5
114
100
AcDbEntity
8
CUTOUTS
100
AcDbLine
10
-14.491819459290001
20
-81.98726005991
30
0
11
-19.018245569739999
21
-81.98726005991
31
0
0
LINE
5
115
100
AcDbEntity
8
CUTOUTS
100
AcDbLine
10
-19.018245569739999
20
-81.98726005991
30
0
11
-21.281458624959999
21
-78.067260059909998
31
0
0
LINE
5
116
100
AcDbEntity
8
CUTOUTS
100
AcDbLine
10
-21.281458624959999
20
-78.067260059909998
30
0
11
-19.018245569739999
21
-74.147260059909996
31
0
0
LINE
5
117
100
AcDbEntity
8
CUTOUTS
100
AcDbLine
10
-19.018245569739999
20
-74.147260059909996
30
0
11
-14.491819459290001
21
-74.147260059909996
31
0
0
LINE
5
118
100
AcDbEntity
8
CUTOUTS
100
AcDbLine
10
6.3428221673560001
20
-78.067260059909998
30
0
11
4.0796091121330003
21
-81.98726005991
31
0
0
LINE
5
119
100
AcDbEntity
8
CUTOUTS
100
AcDbLine
10
4.0796091121330003
20
-81.98726005991
30
0
11
-0.44681699831400024
21
-81.98726005991
31
0
0
LINE
5
11A
100
AcDbEntity
8
CUTOUTS
100
AcDbLine
10
-0.44681699831400024
20
-81.98726005991
30
0
11
-2.7100300535369999
21
-78.067260059909998
31
0
0
LINE
5
11B
100
AcDbEntity
8
CUTOUTS
100
AcDbLine
10
-2.7100300535369999
20
-78.067260059909998
30
0
11
-0.44681699831399996
21
-74.147260059909996
31
0
0
LINE
5
11C
100
AcDbEntity
8
CUTOUTS
100
AcDbLine
10
-0.44681699831399996
20
-74.147260059909996
30
0
11
4.0796091121330003
21
-74.147260059909996
31
0
0
LINE
5
11D
100
AcDbEntity
8
CUTOUTS
100
AcDbLine
10
4.0796091121330003
20
-74.147260059909996
30
0
11
6.3428221673560001
21
-78.067260059909998
31
0
0
LINE
5
11E
100
AcDbEntity
8
CUTOUTS
100
AcDbLine
10
-14.491819459290001
20
-55.397260059910003
30
0
11
-12.228606404070002
21
-59.317260059909998
31
0
0
LINE
5
11F
100
AcDbEntity
8
CUTOUTS
100
AcDbLine
10
-12.228606404070002
20
-59.317260059909998
30
0
11
-14.491819459290001
21
-63.23726005991
31
0
0
LINE
5
120
100
AcDbEntity
8
CUTOUTS
100
AcDbLine
10
-14.491819459290001
20
-63.23726005991
30
0
11
-19.018245569739999
21
-63.23726005991
31
0
0
LINE
5
121
100
AcDbEntity
8
CUTOUTS
100
AcDbLine
10
-19.018245569739999
20
-63.23726005991
30
0
11
-21.281458624959999
21
-59.317260059909998
31
0
0
LINE
5
122
100
AcDbEntity
8
CUTOUTS
100
AcDbLine
10
-21.281458624959999
20
-59.317260059909998
30
0
11
-19.018245569739999
21
-55.397260059910003
31
0
0
LINE
5
123
100
AcDbEntity
8
CUTOUTS
100
AcDbLine
10
-19.018245569739999
20
-55.397260059910003
30
0
11
-14.491819459290001
21
-55.397260059910003
31
0
0
LINE
5
124
100
AcDbEntity
8
CUTOUTS
100
AcDbLine
10
4.0796091121330003
20
-63.23726005991
30
0
11
-0.44681699831400024
21
-63.23726005991
31
0
0
LINE
5
125
100
AcDbEntity
8
CUTOUTS
100
AcDbLine
10
-0.44681699831400024
20
-63.23726005991
30
0
11
-2.7100300535369999
21
-59.317260059909998
31
0
0
LINE
5
126
100
AcDbEntity
8
CUTOUTS
100
AcDbLine
10
-2.7100300535369999
20
-59.317260059909998
30
0
11
-0.44681699831399996
21
-55.397260059910003
31
0
0
LINE
5
127
100
AcDbEntity
8
CUTOUTS
100
AcDbLine
10
-0.44681699831399996
20
-55.397260059910003
30
0
11
4.0796091121330003
21
-55.397260059910003
31
0
0
LINE
5
128
100
AcDbEntity
8
CUTOUTS
100
AcDbLine
10
4.0796091121330003
20
-55.397260059910003
30
0
11
6.3428221673560001
21
-59.317260059909998
31
0
0
LINE
5
129
100
AcDbEntity
8
CUTOUTS
100
AcDbLine
10
6.3428221673560001
20
-59.317260059909998
30
0
11
4.0796091121330003
21
-63.23726005991
31
0
0
LINE
5
12A
100
AcDbEntity
8
CUTOUTS
100
AcDbLine
10
22.651037683561999
20
-74.147260059909996
30
0
11
24.914250738785
21
-78.067260059909998
31
0
0
LINE
5
12B
100
AcDbEntity
8
CUTOUTS
100
AcDbLine
10
24.914250738785
20
-78.067260059909998
30
0
11
22.651037683561999
21
-81.98726005991
31
0
0
LINE
5
12C
100
AcDbEntity
8
CUTOUTS
100
AcDbLine
10
22.651037683561999
20
-81.98726005991
30
0
11
18.124611573115001
21
-81.98726005991
31
0
0
LINE
5
12D
100
AcDbEntity
8
CUTOUTS
100
AcDbLine
10
18.124611573115001
20
-81.98726005991
30
0
11
15.861398517892003
21
-78.067260059909998
31
0
0
LINE
5
12E
100
AcDbEntity
8
CUTOUTS
100
AcDbLine
10
15.861398517892003
20
-78.067260059909998
30
0
11
18.124611573115001
21
-74.147260059909996
31
0
0
LINE
5
12F
100
AcDbEntity
8
CUTOUTS
100
AcDbLine
10
18.124611573115001
20
-74.147260059909996
30
0
11
22.651037683561999
21
-74.147260059909996
31
0
0
LINE
5
130
100
AcDbEntity
8
CUTOUTS
100
AcDbLine
10
22.651037683561999
20
-55.397260059910003
30
0
11
24.914250738785
21
-59.317260059909998
31
0
0
LINE
5
131
100
AcDbEntity
8
CUTOUTS
100
AcDbLine
10
24.914250738785
20
-59.317260059909998
30
0
11
22.651037683561999
21
-63.23726005991
31
0
0
LINE
5
132
100
AcDbEntity
8
CUTOUTS
100
AcDbLine
10
22.651037683561999
20
-63.23726005991
30
0
11
18.124611573115001
21
-63.23726005991
31
0
0
LINE
5
133
100
AcDbEntity
8
CUTOUTS
100
AcDbLine
10
18.124611573115001
20
-63.23726005991
30
0
11
15.861398517892003
21
-59.317260059909998
31
0
0
LINE
5
134
100
AcDbEntity
8
CUTOUTS
100
AcDbLine
10
15.861398517892003
20
-59.317260059909998
30
0
11
18.124611573115001
21
-55.397260059910003
31
0
0
LINE
5
135
100
AcDbEntity
8
CUTOUTS
100
AcDbLine
10
18.124611573115001
20
-55.397260059910003
30
0
11
22.651037683561999
21
-55.397260059910003
31
0
0
LINE
5
136
100
AcDbEntity
8
CUTOUTS
100
AcDbLine
10
36.696040144542998
20
-100.7372600599
30
0
11
34.43282708932
21
-96.817260059910012
31
0
0
LINE
5
137
100
AcDbEntity
8
CUTOUTS
100
AcDbLine
10
34.43282708932
20
-96.817260059910012
30
0
11
36.696040144542998
21
-92.897260059909996
31
0
0
LINE
5
138
100
AcDbEntity
8
CUTOUTS
100
AcDbLine
10
36.696040144542998
20
-92.897260059909996
30
0
11
41.22246625499001
21
-92.897260059909996
31
0
0
LINE
5
139
100
AcDbEntity
8
CUTOUTS
100
AcDbLine
10
41.22246625499001
20
-92.897260059909996
30
0
11
43.485679310213001
21
-96.817260059910012
31
0
0
LINE
5
13A
100
AcDbEntity
8
CUTOUTS
100
AcDbLine
10
43.485679310213001
20
-96.817260059910012
30
0
11
41.22246625499001
21
-100.7372600599
31
0
0
LINE
5
13B
100
AcDbEntity
8
CUTOUTS
100
AcDbLine
10
41.22246625499001
20
-100.7372600599
30
0
11
36.696040144542998
21
-100.7372600599
31
0
0
LINE
5
13C
100
AcDbEntity
8
CUTOUTS
100
AcDbLine
10
59.793894826418999
20
-92.897260059909996
30
0
11
62.057107881642004
21
-96.817260059910012
31
0
0
LINE
5
13D
100
AcDbEntity
8
CUTOUTS
100
AcDbLine
10
62.057107881642004
20
-96.817260059910012
30
0
11
59.793894826418999
21
-100.7372600599
31
0
0
LINE
5
13E
100
AcDbEntity
8
CUTOUTS
100
AcDbLine
10
59.793894826418999
20
-100.7372600599
30
0
11
55.267468715972008
21
-100.7372600599
31
0
0
LINE
5
13F
100
AcDbEntity
8
CUTOUTS
100
AcDbLine
10
55.267468715972008
20
-100.7372600599
30
0
11
53.004255660749003
21
-96.817260059910012
31
0
0
LINE
5
140
100
AcDbEntity
8
CUTOUTS
100
AcDbLine
10
53.004255660749003
20
-96.817260059910012
30
0
11
55.267468715972008
21
-92.897260059909996
31
0
0
LINE
5
141
100
AcDbEntity
8
CUTOUTS
100
AcDbLine
10
55.267468715972008
20
-92.897260059909996
30
0
11
59.793894826418999
21
-92.897260059909996
31
0
0
LINE
5
142
100
AcDbEntity
8
CUTOUTS
100
AcDbLine
10
78.365323397847007
20
-100.7372600599
30
0
11
73.838897287400997
21
-100.7372600599
31
0
0
LINE
5
143
100
AcDbEntity
8
CUTOUTS
100
AcDbLine
10
73.838897287400997
20
-100.7372600599
30
0
11
71.575684232176997
21
-96.817260059910012
31
0
0
LINE
5
144
100
AcDbEntity
8
CUTOUTS
100
AcDbLine
10
71.575684232176997
20
-96.817260059910012
30
0
11
73.838897287400997
21
-92.897260059909996
31
0
0
LINE
5
145
100
AcDbEntity
8
CUTOUTS
100
AcDbLine
10
73.838897287400997
20
-92.897260059909996
30
0
11
78.365323397847007
21
-92.897260059909996
31
0
0
LINE
5
146
100
AcDbEntity
8
CUTOUTS
100
AcDbLine
10
78.365323397847007
20
-92.897260059909996
30
0
11
80.628536453071007
21
-96.817260059910012
31
0
0
LINE
5
147
100
AcDbEntity
8
CUTOUTS
100
AcDbLine
10
80.628536453071007
20
-96.817260059910012
30
0
11
78.365323397847007
21
-100.7372600599
31
0
0
LINE
5
148
100
AcDbEntity
8
CUTOUTS
100
AcDbLine
10
92.410325858828998
20
-92.897260059909996
30
0
11
96.936751969276003
21
-92.897260059909996
31
0
0
LINE
5
149
100
AcDbEntity
8
CUTOUTS
100
AcDbLine
10
96.936751969276003
20
-92.897260059909996
30
0
11
99.199965024498994
21
-96.817260059910012
31
0
0
LINE
5
14A
100
AcDbEntity
8
CUTOUTS
100
AcDbLine
10
99.199965024498994
20
-96.817260059910012
30
0
11
96.936751969276003
21
-100.7372600599
31
0
0
LINE
5
14B
100
AcDbEntity
8
CUTOUTS
100
AcDbLine
10
96.936751969276003
20
-100.7372600599
30
0
11
92.410325858828998
21
-100.7372600599
31
0
0
LINE
5
14C
100
AcDbEntity
8
CUTOUTS
100
AcDbLine
10
92.410325858828998
20
-100.7372600599
30
0
11
90.147112803606007
21
-96.817260059910012
31
0
0
LINE
5
14D
100
AcDbEntity
8
CUTOUTS
100
AcDbLine
10
90.147112803606007
20
-96.817260059910012
30
0
11
92.410325858828998
21
-92.897260059909996
31
0
0
LINE
5
14E
100
AcDbEntity
8
CUTOUTS
100
AcDbLine
10
34.43282708932
20
-78.067260059909998
30
0
11
36.696040144542998
21
-74.147260059909996
31
0
0
LINE
5
14F
100
AcDbEntity
8
CUTOUTS
100
AcDbLine
10
36.696040144542998
20
-74.147260059909996
30
0
11
41.22246625499001
21
-74.147260059909996
31
0
0
LINE
5
150
100
AcDbEntity
8
CUTOUTS
100
AcDbLine
10
41.22246625499001
20
-74.147260059909996
30
0
11
43.485679310213001
21
-78.067260059909998
31
0
0
LINE
5
151
100
AcDbEntity
8
CUTOUTS
100
AcDbLine
10
43.485679310213001
20
-78.067260059909998
30
0
11
41.22246625499001
21
-81.98726005991
31
0
0
LINE
5
152
100
AcDbEntity
8
CUTOUTS
100
AcDbLine
10
41.22246625499001
20
-81.98726005991
30
0
11
36.696040144542998
21
-81.98726005991
31
0
0
LINE
5
153
100
AcDbEntity
8
CUTOUTS
100
AcDbLine
10
36.696040144542998
20
-81.98726005991
30
0
11
34.43282708932
21
-78.067260059909998
31
0
0
LINE
5
154
100
AcDbEntity
8
CUTOUTS
100
AcDbLine
10
53.004255660749003
20
-78.067260059909998
30
0
11
55.267468715972008
21
-74.147260059909996
31
0
0
LINE
5
155
100
AcDbEntity
8
CUTOUTS
100
AcDbLine
10
55.267468715972008
20
-74.147260059909996
30
0
11
59.793894826418999
21
-74.147260059909996
31
0
0
LINE
5
156
100
AcDbEntity
8
CUTOUTS
100
AcDbLine
10
59.793894826418999
20
-74.147260059909996
30
0
11
62.057107881642004
21
-78.067260059909998
31
0
0
LINE
5
157
100
AcDbEntity
8
CUTOUTS
100
AcDbLine
10
62.057107881642004
20
-78.067260059909998
30
0
11
59.793894826418999
21
-81.98726005991
31
0
0
LINE
5
158
100
AcDbEntity
8
CUTOUTS
100
AcDbLine
10
59.793894826418999
20
-81.98726005991
30
0
11
55.267468715972008
21
-81.98726005991
31
0
0
LINE
5
159
100
AcDbEntity
8
CUTOUTS
100
AcDbLine
10
55.267468715972008
20
-81.98726005991
30
0
11
53.004255660749003
21
-78.067260059909998
31
0
0
LINE
5
15A
100
AcDbEntity
8
CUTOUTS
100
AcDbLine
10
36.696040144542998
20
-63.23726005991
30
0
11
34.43282708932
21
-59.317260059909998
31
0
0
LINE
5
15B
100
AcDbEntity
8
CUTOUTS
100
AcDbLine
10
34.43282708932
20
-59.317260059909998
30
0
11
36.696040144542998
21
-55.397260059910003
31
0
0
LINE
5
15C
100
AcDbEntity
8
CUTOUTS
100
AcDbLine
10
36.696040144542998
20
-55.397260059910003
30
0
11
41.22246625499001
21
-55.397260059910003
31
0
0
LINE
5
15D
100
AcDbEntity
8
CUTOUTS
100
AcDbLine
10
41.22246625499001
20
-55.397260059910003
30
0
11
43.485679310213001
21
-59.317260059909998
31
0
0
LINE
5
15E
100
AcDbEntity
8
CUTOUTS
100
AcDbLine
10
43.485679310213001
20
-59.317260059909998
30
0
11
41.22246625499001
21
-63.23726005991
31
0
0
LINE
5
15F
100
AcDbEntity
8
CUTOUTS
100
AcDbLine
10
41.22246625499001
20
-63.23726005991
30
0
11
36.696040144542998
21
-63.23726005991
31
0
0
LINE
5
160
100
AcDbEntity
8
CUTOUTS
100
AcDbLine
10
59.793894826418999
20
-55.397260059910003
30
0
11
62.057107881642004
21
-59.317260059909998
31
0
0
LINE
5
161
100
AcDbEntity
8
CUTOUTS
100
AcDbLine
10
62.057107881642004
20
-59.317260059909998
30
0
11
59.793894826418999
21
-63.23726005991
31
0
0
LINE
5
162
100
AcDbEntity
8
CUTOUTS
100
AcDbLine
10
59.793894826418999
20
-63.23726005991
30
0
11
55.267468715972008
21
-63.23726005991
31
0
0
LINE
5
163
100
AcDbEntity
8
CUTOUTS
100
AcDbLine
10
55.267468715972008
20
-63.23726005991
30
0
11
53.004255660749003
21
-59.317260059909998
31
0
0
LINE
5
164
100
AcDbEntity
8
CUTOUTS
100
AcDbLine
10
53.004255660749003
20
-59.317260059909998
30
0
11
55.267468715972008
21
-55.397260059910003
31
0
0
LINE
5
165
100
AcDbEntity
8
CUTOUTS
100
AcDbLine
10
55.267468715972008
20
-55.397260059910003
30
0
11
59.793894826418999
21
-55.397260059910003
31
0
0
LINE
5
166
100
AcDbEntity
8
CUTOUTS
100
AcDbLine
10
78.365323397847007
20
-74.147260059909996
30
0
11
80.628536453071007
21
-78.067260059909998
31
0
0
LINE
5
167
100
AcDbEntity
8
CUTOUTS
100
AcDbLine
10
80.628536453071007
20
-78.067260059909998
30
0
11
78.365323397847007
21
-81.98726005991
31
0
0
LINE
5
168
100
AcDbEntity
8
CUTOUTS
100
AcDbLine
10
78.365323397847007
20
-81.98726005991
30
0
11
73.838897287400997
21
-81.98726005991
31
0
0
LINE
5
169
100
AcDbEntity
8
CUTOUTS
100
AcDbLine
10
73.838897287400997
20
-81.98726005991
30
0
11
71.575684232176997
21
-78.067260059909998
31
0
0
LINE
5
16A
100
AcDbEntity
8
CUTOUTS
100
AcDbLine
10
71.575684232176997
20
-78.067260059909998
30
0
11
73.838897287400997
21
-74.147260059909996
31
0
0
LINE
5
16B
100
AcDbEntity
8
CUTOUTS
100
AcDbLine
10
73.838897287400997
20
-74.147260059909996
30
0
11
78.365323397847007
21
-74.147260059909996
31
0
0
LINE
5
16C
100
AcDbEntity
8
CUTOUTS
100
AcDbLine
10
96.936751969276003
20
-74.147260059909996
30
0
11
99.199965024498994
21
-78.067260059909998
31
0
0
LINE
5
16D
100
AcDbEntity
8
CUTOUTS
100
AcDbLine
10
99.199965024498994
20
-78.067260059909998
30
0
11
96.936751969276003
21
-81.98726005991
31
0
0
LINE
5
16E
100
AcDbEntity
8
CUTOUTS
100
AcDbLine
10
96.936751969276003
20
-81.98726005991
30
0
11
92.410325858828998
21
-81.98726005991
31
0
0
LINE
5
16F
100
AcDbEntity
8
CUTOUTS
100
AcDbLine
10
92.410325858828998
20
-81.98726005991
30
0
11
90.147112803606007
21
-78.067260059909998
31
0
0
LINE
5
170
100
AcDbEntity
8
CUTOUTS
100
AcDbLine
10
90.147112803606007
20
-78.067260059909998
30
0
11
92.410325858828998
21
-74.147260059909996
31
0
0
LINE
5
171
100
AcDbEntity
8
CUTOUTS
100
AcDbLine
10
92.410325858828998
20
-74.147260059909996
30
0
11
96.936751969276003
21
-74.147260059909996
31
0
0
LINE
5
172
100
AcDbEntity
8
CUTOUTS
100
AcDbLine
10
73.838897287400997
20
-55.397260059910003
30
0
11
78.365323397847007
21
-55.397260059910003
31
0
0
LINE
5
173
100
AcDbEntity
8
CUTOUTS
100
AcDbLine
10
78.365323397847007
20
-55.397260059910003
30
0
11
80.628536453071007
21
-59.317260059909998
31
0
0
LINE
5
174
100
AcDbEntity
8
CUTOUTS
100
AcDbLine
10
80.628536453071007
20
-59.317260059909998
30
0
11
78.365323397847007
21
-63.23726005991
31
0
0
LINE
5
175
100
AcDbEntity
8
CUTOUTS
100
AcDbLine
10
78.365323397847007
20
-63.23726005991
30
0
11
73.838897287400997
21
-63.23726005991
31
0
0
LINE
5
176
100
AcDbEntity
8
CUTOUTS
100
AcDbLine
10
73.838897287400997
20
-63.23726005991
30
0
11
71.575684232176997
21
-59.317260059909998
31
0
0
LINE
5
177
100
AcDbEntity
8
CUTOUTS
100
AcDbLine
10
71.575684232176997
20
-59.317260059909998
30
0
11
73.838897287400997
21
-55.397260059910003
31
0
0
LINE
5
178
100
AcDbEntity
8
CUTOUTS
100
AcDbLine
10
96.936751969276003
20
-55.397260059910003
30
0
11
99.199965024498994
21
-59.317260059909998
31
0
0
LINE
5
179
100
AcDbEntity
8
CUTOUTS
100
AcDbLine
10
99.199965024498994
20
-59.317260059909998
30
0
11
96.936751969276003
21
-63.23726005991
31
0
0
LINE
5
17A
100
AcDbEntity
8
CUTOUTS
100
AcDbLine
10
96.936751969276003
20
-63.23726005991
30
0
11
92.410325858828998
21
-63.23726005991
31
0
0
LINE
5
17B
100
AcDbEntity
8
CUTOUTS
100
AcDbLine
10
92.410325858828998
20
-63.23726005991
30
0
11
90.147112803606007
21
-59.317260059909998
31
0
0
LINE
5
17C
100
AcDbEntity
8
CUTOUTS
100
AcDbLine
10
90.147112803606007
20
-59.317260059909998
30
0
11
92.410325858828998
21
-55.397260059910003
31
0
0
LINE
5
17D
100
AcDbEntity
8
CUTOUTS
100
AcDbLine
10
92.410325858828998
20
-55.397260059910003
30
0
11
96.936751969276003
21
-55.397260059910003
31
0
0
LINE
5
17E
100
AcDbEntity
8
CUTOUTS
100
AcDbLine
10
-14.491819459290001
20
-36.647260059910003
30
0
11
-12.228606404070002
21
-40.567260059909998
31
0
0
LINE
5
17F
100
AcDbEntity
8
CUTOUTS
100
AcDbLine
10
-12.228606404070002
20
-40.567260059909998
30
0
11
-14.491819459290001
21
-44.48726005991
31
0
0
LINE
5
180
100
AcDbEntity
8
CUTOUTS
100
AcDbLine
10
-14.491819459290001
20
-44.48726005991
30
0
11
-19.018245569739999
21
-44.48726005991
31
0
0
LINE
5
181
100
AcDbEntity
8
CUTOUTS
100
AcDbLine
10
-19.018245569739999
20
-44.48726005991
30
0
11
-21.281458624959999
21
-40.567260059909998
31
0
0
LINE
5
182
100
AcDbEntity
8
CUTOUTS
100
AcDbLine
10
-21.281458624959999
20
-40.567260059909998
30
0
11
-19.018245569739999
21
-36.647260059910003
31
0
0
LINE
5
183
100
AcDbEntity
8
CUTOUTS
100
AcDbLine
10
-19.018245569739999
20
-36.647260059910003
30
0
11
-14.491819459290001
21
-36.647260059910003
31
0
0
LINE
5
184
100
AcDbEntity
8
CUTOUTS
100
AcDbLine
10
4.0796091121330003
20
-36.647260059910003
30
0
11
6.3428221673560001
21
-40.567260059909998
31
0
0
LINE
5
185
100
AcDbEntity
8
CUTOUTS
100
AcDbLine
10
6.3428221673560001
20
-40.567260059909998
30
0
11
4.0796091121330003
21
-44.48726005991
31
0
0
LINE
5
186
100
AcDbEntity
8
CUTOUTS
100
AcDbLine
10
4.0796091121330003
20
-44.48726005991
30
0
11
-0.44681699831400024
21
-44.48726005991
31
0
0
LINE
5
187
100
AcDbEntity
8
CUTOUTS
100
AcDbLine
10
-0.44681699831400024
20
-44.48726005991
30
0
11
-2.7100300535369999
21
-40.567260059909998
31
0
0
LINE
5
188
100
AcDbEntity
8
CUTOUTS
100
AcDbLine
10
-2.7100300535369999
20
-40.567260059909998
30
0
11
-0.44681699831399996
21
-36.647260059910003
31
0
0
LINE
5
189
100
AcDbEntity
8
CUTOUTS
100
AcDbLine
10
-0.44681699831399996
20
-36.647260059910003
30
0
11
4.0796091121330003
21
-36.647260059910003
31
0
0
LINE
5
18A
100
AcDbEntity
8
CUTOUTS
100
AcDbLine
10
22.651037683561999
20
-44.48726005991
30
0
11
18.124611573115001
21
-44.48726005991
31
0
0
LINE
5
18B
100
AcDbEntity
8
CUTOUTS
100
AcDbLine
10
18.124611573115001
20
-44.48726005991
30
0
11
15.861398517892003
21
-40.567260059909998
31
0
0
LINE
5
18C
100
AcDbEntity
8
CUTOUTS
100
AcDbLine
10
15.861398517892003
20
-40.567260059909998
30
0
11
18.124611573115001
21
-36.647260059910003
31
0
0
LINE
5
18D
100
AcDbEntity
8
CUTOUTS
100
AcDbLine
10
18.124611573115001
20
-36.647260059910003
30
0
11
22.651037683561999
21
-36.647260059910003
31
0
0
LINE
5
18E
100
AcDbEntity
8
CUTOUTS
100
AcDbLine
10
22.651037683561999
20
-36.647260059910003
30
0
11
24.914250738785
21
-40.567260059909998
31
0
0
LINE
5
18F
100
AcDbEntity
8
CUTOUTS
100
AcDbLine
10
24.914250738785
20
-40.567260059909998
30
0
11
22.651037683561999
21
-44.48726005991
31
0
0
LINE
5
190
100
AcDbEntity
8
CUTOUTS
100
AcDbLine
10
-19.018245569739999
20
-17.89726005991
30
0
11
-14.491819459290001
21
-17.89726005991
31
0
0
LINE
5
191
100
AcDbEntity
8
CUTOUTS
100
AcDbLine
10
-14.491819459290001
20
-17.89726005991
30
0
11
-12.228606404070002
21
-21.817260059910005
31
0
0
LINE
5
192
100
AcDbEntity
8
CUTOUTS
100
AcDbLine
10
-12.228606404070002
20
-21.817260059910005
30
0
11
-14.491819459290001
21
-25.737260059910003
31
0
0
LINE
5
193
100
AcDbEntity
8
CUTOUTS
100
AcDbLine
10
-14.491819459290001
20
-25.737260059910003
30
0
11
-19.018245569739999
21
-25.737260059910003
31
0
0
LINE
5
194
100
AcDbEntity
8
CUTOUTS
100
AcDbLine
10
-19.018245569739999
20
-25.737260059910003
30
0
11
-21.281458624959999
21
-21.817260059910005
31
0
0
LINE
5
195
100
AcDbEntity
8
CUTOUTS
100
AcDbLine
10
-21.281458624959999
20
-21.817260059910005
30
0
11
-19.018245569739999
21
-17.89726005991
31
0
0
LINE
5
196
100
AcDbEntity
8
CUTOUTS
100
AcDbLine
10
4.0796091121330003
20
-17.89726005991
30
0
11
6.3428221673560001
21
-21.817260059910005
31
0
0
LINE
5
197
100
AcDbEntity
8
CUTOUTS
100
AcDbLine
10
6.3428221673560001
20
-21.817260059910005
30
0
11
4.0796091121330003
21
-25.737260059910003
31
0
0
LINE
5
198
100
AcDbEntity
8
CUTOUTS
100
AcDbLine
10
4.0796091121330003
20
-25.737260059910003
30
0
11
-0.44681699831400024
21
-25.737260059910003
31
0
0
LINE
5
199
100
AcDbEntity
8
CUTOUTS
100
AcDbLine
10
-0.44681699831400024
20
-25.737260059910003
30
0
11
-2.7100300535369999
21
-21.817260059910005
31
0
0
LINE
5
19A
100
AcDbEntity
8
CUTOUTS
100
AcDbLine
10
-2.7100300535369999
20
-21.817260059910005
30
0
11
-0.44681699831399996
21
-17.89726005991
31
0
0
LINE
5
19B
100
AcDbEntity
8
CUTOUTS
100
AcDbLine
10
-0.44681699831399996
20
-17.89726005991
30
0
11
4.0796091121330003
21
-17.89726005991
31
0
0
LINE
5
19C
100
AcDbEntity
8
CUTOUTS
100
AcDbLine
10
22.651037683561999
20
-17.89726005991
30
0
11
24.914250738785
21
-21.817260059910005
31
0
0
LINE
5
19D
100
AcDbEntity
8
CUTOUTS
100
AcDbLine
10
24.914250738785
20
-21.817260059910005
30
0
11
22.651037683561999
21
-25.737260059910003
31
0
0
LINE
5
19E
100
AcDbEntity
8
CUTOUTS
100
AcDbLine
10
22.651037683561999
20
-25.737260059910003
30
0
11
18.124611573115001
21
-25.737260059910003
31
0
0
LINE
5
19F
100
AcDbEntity
8
CUTOUTS
100
AcDbLine
10
18.124611573115001
20
-25.737260059910003
30
0
11
15.861398517892003
21
-21.817260059910005
31
0
0
LINE
5
1A0
100
AcDbEntity
8
CUTOUTS
100
AcDbLine
10
15.861398517892003
20
-21.817260059910005
30
0
11
18.124611573115001
21
-17.89726005991
31
0
0
LINE
5
1A1
100
AcDbEntity
8
CUTOUTS
100
AcDbLine
10
18.124611573115001
20
-17.89726005991
30
0
11
22.651037683561999
21
-17.89726005991
31
0
0
LINE
5
1A2
100
AcDbEntity
8
CUTOUTS
100
AcDbLine
10
41.22246625499001
20
-44.48726005991
30
0
11
36.696040144542998
21
-44.48726005991
31
0
0
LINE
5
1A3
100
AcDbEntity
8
CUTOUTS
100
AcDbLine
10
36.696040144542998
20
-44.48726005991
30
0
11
34.43282708932
21
-40.567260059909998
31
0
0
LINE
5
1A4
100
AcDbEntity
8
CUTOUTS
100
AcDbLine
10
34.43282708932
20
-40.567260059909998
30
0
11
36.696040144542998
21
-36.647260059910003
31
0
0
LINE
5
1A5
100
AcDbEntity
8
CUTOUTS
100
AcDbLine
10
36.696040144542998
20
-36.647260059910003
30
0
11
41.22246625499001
21
-36.647260059910003
31
0
0
LINE
5
1A6
100
AcDbEntity
8
CUTOUTS
100
AcDbLine
10
41.22246625499001
20
-36.647260059910003
30
0
11
43.485679310213001
21
-40.567260059909998
31
0
0
LINE
5
1A7
100
AcDbEntity
8
CUTOUTS
100
AcDbLine
10
43.485679310213001
20
-40.567260059909998
30
0
11
41.22246625499001
21
-44.48726005991
31
0
0
LINE
5
1A8
100
AcDbEntity
8
CUTOUTS
100
AcDbLine
10
59.793894826418999
20
-36.647260059910003
30
0
11
62.057107881642004
21
-40.567260059909998
31
0
0
LINE
5
1A9
100
AcDbEntity
8
CUTOUTS
100
AcDbLine
10
62.057107881642004
20
-40.567260059909998
30
0
11
59.793894826418999
21
-44.48726005991
31
0
0
LINE
5
1AA
100
AcDbEntity
8
CUTOUTS
100
AcDbLine
10
59.793894826418999
20
-44.48726005991
30
0
11
55.267468715972008
21
-44.48726005991
31
0
0
LINE
5
1AB
100
AcDbEntity
8
CUTOUTS
100
AcDbLine
10
55.267468715972008
20
-44.48726005991
30
0
11
53.004255660749003
21
-40.567260059909998
31
0
0
LINE
5
1AC
100
AcDbEntity
8
CUTOUTS
100
AcDbLine
10
53.004255660749003
20
-40.567260059909998
30
0
11
55.267468715972008
21
-36.647260059910003
31
0
0
LINE
5
1AD
100
AcDbEntity
8
CUTOUTS
100
AcDbLine
10
55.267468715972008
20
-36.647260059910003
30
0
11
59.793894826418999
21
-36.647260059910003
31
0
0
LINE
5
1AE
100
AcDbEntity
8
CUTOUTS
100
AcDbLine
10
73.838897287400997
20
-44.48726005991
30
0
11
71.575684232176997
21
-40.567260059909998
31
0
0
LINE
5
1AF
100
AcDbEntity
8
CUTOUTS
100
AcDbLine
10
71.575684232176997
20
-40.567260059909998
30
0
11
73.838897287400997
21
-36.647260059910003
31
0
0
LINE
5
1B0
100
AcDbEntity
8
CUTOUTS
100
AcDbLine
10
73.838897287400997
20
-36.647260059910003
30
0
11
78.365323397847007
21
-36.647260059910003
31
0
0
LINE
5
1B1
100
AcDbEntity
8
CUTOUTS
100
AcDbLine
10
78.365323397847007
20
-36.647260059910003
30
0
11
80.628536453071007
21
-40.567260059909998
31
0
0
LINE
5
1B2
100
AcDbEntity
8
CUTOUTS
100
AcDbLine
10
80.628536453071007
20
-40.567260059909998
30
0
11
78.365323397847007
21
-44.48726005991
31
0
0
LINE
5
1B3
100
AcDbEntity
8
CUTOUTS
100
AcDbLine
10
78.365323397847007
20
-44.48726005991
30
0
11
73.838897287400997
21
-44.48726005991
31
0
0
LINE
5
1B4
100
AcDbEntity
8
CUTOUTS
100
AcDbLine
10
96.936751969276003
20
-36.647260059910003
30
0
11
99.199965024498994
21
-40.567260059909998
31
0
0
LINE
5
1B5
100
AcDbEntity
8
CUTOUTS
100
AcDbLine
10
99.199965024498994
20
-40.567260059909998
30
0
11
96.936751969276003
21
-44.48726005991
31
0
0
LINE
5
1B6
100
AcDbEntity
8
CUTOUTS
100
AcDbLine
10
96.936751969276003
20
-44.48726005991
30
0
11
92.410325858828998
21
-44.48726005991
31
0
0
LINE
5
1B7
100
AcDbEntity
8
CUTOUTS
100
AcDbLine
10
92.410325858828998
20
-44.48726005991
30
0
11
90.147112803606007
21
-40.567260059909998
31
0
0
LINE
5
1B8
100
AcDbEntity
8
CUTOUTS
100
AcDbLine
10
90.147112803606007
20
-40.567260059909998
30
0
11
92.410325858828998
21
-36.647260059910003
31
0
0
LINE
5
1B9
100
AcDbEntity
8
CUTOUTS
100
AcDbLine
10
92.410325858828998
20
-36.647260059910003
30
0
11
96.936751969276003
21
-36.647260059910003
31
0
0
LINE
5
1BA
100
AcDbEntity
8
CUTOUTS
100
AcDbLine
10
36.696040144542998
20
-25.737260059910003
30
0
11
34.43282708932
21
-21.817260059910005
31
0
0
LINE
5
1BB
100
AcDbEntity
8
CUTOUTS
100
AcDbLine
10
34.43282708932
20
-21.817260059910005
30
0
11
36.696040144542998
21
-17.89726005991
31
0
0
LINE
5
1BC
100
AcDbEntity
8
CUTOUTS
100
AcDbLine
10
36.696040144542998
20
-17.89726005991
30
0
11
41.22246625499001
21
-17.89726005991
31
0
0
LINE
5
1BD
100
AcDbEntity
8
CUTOUTS
100
AcDbLine
10
41.22246625499001
20
-17.89726005991
30
0
11
43.485679310213001
21
-21.817260059910005
31
0
0
LINE
5
1BE
100
AcDbEntity
8
CUTOUTS
100
AcDbLine
10
43.485679310213001
20
-21.817260059910005
30
0
11
41.22246625499001
21
-25.737260059910003
31
0
0
LINE
5
1BF
100
AcDbEntity
8
CUTOUTS
100
AcDbLine
10
41.22246625499001
20
-25.737260059910003
30
0
11
36.696040144542998
21
-25.737260059910003
31
0
0
LINE
5
1C0
100
AcDbEntity
8
CUTOUTS
100
AcDbLine
10
59.793894826418999
20
-17.89726005991
30
0
11
62.057107881642004
21
-21.817260059910005
31
0
0
LINE
5
1C1
100
AcDbEntity
8
CUTOUTS
100
AcDbLine
10
62.057107881642004
20
-21.817260059910005
30
0
11
59.793894826418999
21
-25.737260059910003
31
0
0
LINE
5
1C2
100
AcDbEntity
8
CUTOUTS
100
AcDbLine
10
59.793894826418999
20
-25.737260059910003
30
0
11
55.267468715972008
21
-25.737260059910003
31
0
0
LINE
5
1C3
100
AcDbEntity
8
CUTOUTS
100
AcDbLine
10
55.267468715972008
20
-25.737260059910003
30
0
11
53.004255660749003
21
-21.817260059910005
31
0
0
LINE
5
1C4
100
AcDbEntity
8
CUTOUTS
100
AcDbLine
10
53.004255660749003
20
-21.817260059910005
30
0
11
55.267468715972008
21
-17.89726005991
31
0
0
LINE
5
1C5
100
AcDbEntity
8
CUTOUTS
100
AcDbLine
10
55.267468715972008
20
-17.89726005991
30
0
11
59.793894826418999
21
-17.89726005991
31
0
0
LINE
5
1C6
100
AcDbEntity
8
CUTOUTS
100
AcDbLine
10
78.365323397847007
20
-25.737260059910003
30
0
11
73.838897287400997
21
-25.737260059910003
31
0
0
LINE
5
1C7
100
AcDbEntity
8
CUTOUTS
100
AcDbLine
10
73.838897287400997
20
-25.737260059910003
30
0
11
71.575684232176997
21
-21.817260059910005
31
0
0
LINE
5
1C8
100
AcDbEntity
8
CUTOUTS
100
AcDbLine
10
71.575684232176997
20
-21.817260059910005
30
0
11
73.838897287400997
21
-17.89726005991
31
0
0
LINE
5
1C9
100
AcDbEntity
8
CUTOUTS
100
AcDbLine
10
73.838897287400997
20
-17.89726005991
30
0
11
78.365323397847007
21
-17.89726005991
31
0
0
LINE
5
1CA
100
AcDbEntity
8
CUTOUTS
100
AcDbLine
10
78.365323397847007
20
-17.89726005991
30
0
11
80.628536453071007
21
-21.817260059910005
31
0
0
LINE
5
1CB
100
AcDbEntity
8
CUTOUTS
100
AcDbLine
10
80.628536453071007
20
-21.817260059910005
30
0
11
78.365323397847007
21
-25.737260059910003
31
0
0
LINE
5
1CC
100
AcDbEntity
8
CUTOUTS
100
AcDbLine
10
96.936751969276003
20
-17.89726005991
30
0
11
99.199965024498994
21
-21.817260059910005
31
0
0
LINE
5
1CD
100
AcDbEntity
8
CUTOUTS
100
AcDbLine
10
99.199965024498994
20
-21.817260059910005
30
0
11
96.936751969276003
21
-25.737260059910003
31
0
0
LINE
5
1CE
100
AcDbEntity
8
CUTOUTS
100
AcDbLine
10
96.936751969276003
20
-25.737260059910003
30
0
11
92.410325858828998
21
-25.737260059910003
31
0
0
LINE
5
1CF
100
AcDbEntity
8
CUTOUTS
100
AcDbLine
10
92.410325858828998
20
-25.737260059910003
30
0
11
90.147112803606007
21
-21.817260059910005
31
0
0
LINE
5
1D0
100
AcDbEntity
8
CUTOUTS
100
AcDbLine
10
90.147112803606007
20
-21.817260059910005
30
0
11
92.410325858828998
21
-17.89726005991
31
0
0
LINE
5
1D1
100
AcDbEntity
8
CUTOUTS
100
AcDbLine
10
92.410325858828998
20
-17.89726005991
30
0
11
96.936751969276003
21
-17.89726005991
31
0
0
LINE
5
1D2
100
AcDbEntity
8
PERIMETER
100
AcDbLine
10
-24.281458624960006
20
-14.89726005991
30
0
11
-24.281458624960003
21
-114.89726005990001
31
0
0
LINE
5
1D3
100
AcDbEntity
8
PERIMETER
100
AcDbLine
10
-24.281458624960003
20
-114.89726005990001
30
0
11
105.71854137503001
21
-114.89726005990001
31
0
0
LINE
5
1D4
100
AcDbEntity
8
PERIMETER
100
AcDbLine
10
105.71854137503001
20
-114.89726005990001
30
0
11
105.71854137503001
21
-14.897260059910007
31
0
0
LINE
5
1D5
100
AcDbEntity
8
PERIMETER
100
AcDbLine
10
105.71854137503001
20
-14.897260059910007
30
0
11
-24.281458624960006
21
-14.89726005991
31
0
0
ENDSEC
0
SECTION
2
OBJECTS
0
DICTIONARY
5
C
100
AcDbDictionary
3
ACAD_GROUP
350
D
3
ACAD_MLINESTYLE
350
17
0
DICTIONARY
5
D
100
AcDbDictionary
0
DICTIONARY
5
1A
330
C
100
AcDbDictionary
0
DICTIONARY
5
17
100
AcDbDictionary
0
ENDSEC
0
EOF
