0
SECTION
2
HEADER
9
$INSUNITS
70
4
9
$ACADVER
1
AC1014
9
$HANDSEED
5
FFFF
0
ENDSEC
0
SECTION
2
TABLES
0
TABLE
2
VPORT
5
8
100
AcDbSymbolTable
0
ENDTAB
0
TABLE
2
LTYPE
5
5
100
AcDbSymbolTable
70
2
0
LTYPE
5
14
100
AcDbSymbolTableRecord
100
AcDbLinetypeTableRecord
2
BYBLOCK
70
0
0
LTYPE
5
15
100
AcDbSymbolTableRecord
100
AcDbLinetypeTableRecord
2
BYLAYER
70
0
0
ENDTAB
0
TABLE
2
LAYER
5
2
100
AcDbSymbolTable
70
3
0
LAYER
5
50
100
AcDbSymbolTableRecord
100
AcDbLayerTableRecord
2
0
70
0
6
CONTINUOUS
0
LAYER
5
51
100
AcDbSymbolTableRecord
100
AcDbLayerTableRecord
2
CUTOUTS
70
0
62
1
6
CONTINUOUS
0
LAYER
5
52
100
AcDbSymbolTableRecord
100
AcDbLayerTableRecord
2
PERIMETER
70
0
62
5
6
CONTINUOUS
0
ENDTAB
0
TABLE
2
STYLE
5
3
100
AcDbSymbolTable
70
1
0
STYLE
5
11
100
AcDbSymbolTableRecord
100
AcDbTextStyleTableRecord
2
STANDARD
70
0
0
ENDTAB
0
TABLE
2
VIEW
5
6
100
AcDbSymbolTable
0
ENDTAB
0
TABLE
2
UCS
5
7
100
AcDbSymbolTable
0
ENDTAB
0
TABLE
2
APPID
5
9
100
AcDbSymbolTable
70
1
0
APPID
5
12
100
AcDbSymbolTableRecord
100
AcDbRegAppTableRecord
2
ACAD
70
0
0
ENDTAB
0
TABLE
2
DIMSTYLE
5
A
100
AcDbSymbolTable
0
ENDTAB
0
TABLE
2
BLOCK_RECORD
5
1
100
AcDbSymbolTable
70
2
0
BLOCK_RECORD
5
1F
100
AcDbSymbolTableRecord
100
AcDbBlockTableRecord
2
*MODEL_SPACE
0
BLOCK_RECORD
5
1B
100
AcDbSymbolTableRecord
100
AcDbBlockTableRecord
2
*PAPER_SPACE
0
ENDTAB
0
ENDSEC
0
SECTION
2
BLOCKS
0
BLOCK
5
20
100
AcDbEntity
100
AcDbBlockBegin
2
*MODEL_SPACE
0
ENDBLK
5
21
100
AcDbEntity
100
AcDbBlockEnd
0
BLOCK
5
1C
100
AcDbEntity
100
AcDbBlockBegin
2
*PAPER_SPACE
0
ENDBLK
5
1D
100
AcDbEntity
100
AcDbBlockEnd
0
ENDSEC
0
SECTION
2
ENTITIES
0
LINE
5
100
100
AcDbEntity
8
CUTOUTS
100
AcDbLine
10
-14.549554486208931
20
-100.6372600599
30
0
11
-18.960510542821069
21
-100.6372600599
31
0
0
LINE
5
101
100
AcDbEntity
8
CUTOUTS
100
AcDbLine
10
-18.960510542821069
20
-100.6372600599
30
0
11
-21.165988571122085
21
-96.817260059909941
31
0
0
LINE
5
102
100
AcDbEntity
8
CUTOUTS
100
AcDbLine
10
-21.165988571122085
20
-96.817260059909941
30
0
11
-18.960510542820998
21
-92.997260059909991
31
0
0
LINE
5
103
100
AcDbEntity
8
CUTOUTS
100
AcDbLine
10
-18.960510542820998
20
-92.997260059909991
30
0
11
-14.549554486209001
21
-92.997260059909991
31
0
0
LINE
5
104
100
AcDbEntity
8
CUTOUTS
100
AcDbLine
10
-14.549554486209001
20
-92.997260059909991
30
0
11
-12.344076457907917
21
-96.817260059909941
31
0
0
LINE
5
105
100
AcDbEntity
8
CUTOUTS
100
AcDbLine
10
-12.344076457907917
20
-96.817260059909941
30
0
11
-14.549554486208931
21
-100.6372600599
31
0
0
LINE
5
106
100
AcDbEntity
8
CUTOUTS
100
AcDbLine
10
4.0218740852140353
20
-92.997260059909991
30
0
11
6.2273521135180427
21
-96.817260059909941
31
0
0
LINE
5
107
100
AcDbEntity
8
CUTOUTS
100
AcDbLine
10
6.2273521135180427
20
-96.817260059909941
30
0
11
4.0218740852141046
21
-100.6372600599
31
0
0
LINE
5
108
100
AcDbEntity
8
CUTOUTS
100
AcDbLine
10
4.0218740852141046
20
-100.6372600599
30
0
11
-0.38908197139510381
21
-100.6372600599
31
0
0
LINE
5
109
100
AcDbEntity
8
CUTOUTS
100
AcDbLine
10
-0.38908197139510392
20
-100.6372600599
30
0
11
-2.5945599996990443
21
-96.817260059909941
31
0
0
LINE
5
10A
100
AcDbEntity
8
CUTOUTS
100
AcDbLine
10
-2.5945599996990443
20
-96.817260059909941
30
0
11
-0.38908197139503581
21
-92.997260059909991
31
0
0
LINE
5
10B
100
AcDbEntity
8
CUTOUTS
100
AcDbLine
10
-0.38908197139503581
20
-92.997260059909991
30
0
11
4.0218740852140353
21
-92.997260059909991
31
0
0
LINE
5
10C
100
AcDbEntity
8
CUTOUTS
100
AcDbLine
10
15.976868571729959
20
-96.817260059909941
30
0
11
18.182346600033963
21
-92.997260059909991
31
0
0
LINE
5
10D
100
AcDbEntity
8
CUTOUTS
100
AcDbLine
10
18.182346600033963
20
-92.997260059909991
30
0
11
22.593302656643036
21
-92.997260059909991
31
0
0
LINE
5
10E
100
AcDbEntity
8
CUTOUTS
100
AcDbLine
10
22.593302656643036
20
-92.997260059909991
30
0
11
24.798780684947044
21
-96.817260059909941
31
0
0
LINE
5
10F
100
AcDbEntity
8
CUTOUTS
100
AcDbLine
10
24.798780684947044
20
-96.817260059909941
30
0
11
22.5933026566431
21
-100.6372600599
31
0
0
LINE
5
110
100
AcDbEntity
8
CUTOUTS
100
AcDbLine
10
22.5933026566431
20
-100.6372600599
30
0
11
18.182346600033899
21
-100.6372600599
31
0
0
LINE
5
111
100
AcDbEntity
8
CUTOUTS
100
AcDbLine
10
18.182346600033899
20
-100.6372600599
30
0
11
15.976868571729959
21
-96.817260059909941
31
0
0
LINE
5
112
100
AcDbEntity
8
CUTOUTS
100
AcDbLine
10
-14.549554486209004
20
-74.247260059909991
30
0
11
-12.344076457907882
21
-78.067260059909998
31
0
0
LINE
5
113
100
AcDbEntity
8
CUTOUTS
100
AcDbLine
10
-12.344076457907882
20
-78.067260059909998
30
0
11
-14.549554486209004
21
-81.887260059910005
31
0
0
LINE
5
114
100
AcDbEntity
8
CUTOUTS
100
AcDbLine
10
-14.549554486209004
20
-81.887260059910005
30
0
11
-18.960510542821002
21
-81.887260059910005
31
0
0
LINE
5
115
100
AcDbEntity
8
CUTOUTS
100
AcDbLine
10
-18.960510542821002
20
-81.887260059910005
30
0
11
-21.165988571122121
21
-78.067260059910012
31
0
0
LINE
5
116
100
AcDbEntity
8
CUTOUTS
100
AcDbLine
10
-21.165988571122121
20
-78.067260059910012
30
0
11
-18.960510542820991
21
-74.247260059909991
31
0
0
LINE
5
117
100
AcDbEntity
8
CUTOUTS
100
AcDbLine
10
-18.960510542820991
20
-74.247260059909991
30
0
11
-14.549554486209004
21
-74.247260059909991
31
0
0
LINE
5
118
100
AcDbEntity
8
CUTOUTS
100
AcDbLine
10
4.0218740852140353
20
-74.247260059909991
30
0
11
6.2273521135180836
21
-78.067260059909998
31
0
0
LINE
5
119
100
AcDbEntity
8
CUTOUTS
100
AcDbLine
10
6.2273521135180836
20
-78.067260059909998
30
0
11
4.0218740852140362
21
-81.887260059910005
31
0
0
LINE
5
11A
100
AcDbEntity
8
CUTOUTS
100
AcDbLine
10
4.0218740852140362
20
-81.887260059910005
30
0
11
-0.38908197139503664
21
-81.887260059910005
31
0
0
LINE
5
11B
100
AcDbEntity
8
CUTOUTS
100
AcDbLine
10
-0.38908197139503653
20
-81.887260059910005
30
0
11
-2.5945599996990825
21
-78.067260059909998
31
0
0
LINE
5
11C
100
AcDbEntity
8
CUTOUTS
100
AcDbLine
10
-2.5945599996990825
20
-78.067260059909998
30
0
11
-0.38908197139503636
21
-74.247260059909991
31
0
0
LINE
5
11D
100
AcDbEntity
8
CUTOUTS
100
AcDbLine
10
-0.38908197139503636
20
-74.247260059909991
30
0
11
4.0218740852140353
21
-74.247260059909991
31
0
0
LINE
5
11E
100
AcDbEntity
8
CUTOUTS
100
AcDbLine
10
-14.549554486209004
20
-55.497260059910005
30
0
11
-12.344076457907882
21
-59.317260059909998
31
0
0
LINE
5
11F
100
AcDbEntity
8
CUTOUTS
100
AcDbLine
10
-12.344076457907882
20
-59.317260059909998
30
0
11
-14.549554486209004
21
-63.137260059910005
31
0
0
LINE
5
120
100
AcDbEntity
8
CUTOUTS
100
AcDbLine
10
-14.549554486209004
20
-63.137260059910005
30
0
11
-18.960510542820998
21
-63.137260059910005
31
0
0
LINE
5
121
100
AcDbEntity
8
CUTOUTS
100
AcDbLine
10
-18.960510542820998
20
-63.137260059910005
30
0
11
-21.165988571122117
21
-59.317260059909998
31
0
0
LINE
5
122
100
AcDbEntity
8
CUTOUTS
100
AcDbLine
10
-21.165988571122117
20
-59.317260059909998
30
0
11
-18.960510542820995
21
-55.497260059910005
31
0
0
LINE
5
123
100
AcDbEntity
8
CUTOUTS
100
AcDbLine
10
-18.960510542820995
20
-55.497260059910005
30
0
11
-14.549554486209004
21
-55.497260059910005
31
0
0
LINE
5
124
100
AcDbEntity
8
CUTOUTS
100
AcDbLine
10
4.0218740852140353
20
-55.497260059910005
30
0
11
6.2273521135180836
21
-59.317260059909998
31
0
0
LINE
5
125
100
AcDbEntity
8
CUTOUTS
100
AcDbLine
10
6.2273521135180836
20
-59.317260059909998
30
0
11
4.0218740852140362
21
-63.137260059910005
31
0
0
LINE
5
126
100
AcDbEntity
8
CUTOUTS
100
AcDbLine
10
4.0218740852140362
20
-63.137260059910005
30
0
11
-0.38908197139503664
21
-63.137260059910005
31
0
0
LINE
5
127
100
AcDbEntity
8
CUTOUTS
100
AcDbLine
10
-0.38908197139503653
20
-63.137260059910005
30
0
11
-2.5945599996990825
21
-59.317260059909998
31
0
0
LINE
5
128
100
AcDbEntity
8
CUTOUTS
100
AcDbLine
10
-2.5945599996990825
20
-59.317260059909998
30
0
11
-0.38908197139503581
21
-55.497260059910005
31
0
0
LINE
5
129
100
AcDbEntity
8
CUTOUTS
100
AcDbLine
10
-0.38908197139503581
20
-55.497260059910005
30
0
11
4.0218740852140353
21
-55.497260059910005
31
0
0
LINE
5
12A
100
AcDbEntity
8
CUTOUTS
100
AcDbLine
10
22.593302656643036
20
-74.247260059909991
30
0
11
24.79878068494709
21
-78.067260059909998
31
0
0
LINE
5
12B
100
AcDbEntity
8
CUTOUTS
100
AcDbLine
10
24.79878068494709
20
-78.067260059909998
30
0
11
22.593302656643036
21
-81.887260059910005
31
0
0
LINE
5
12C
100
AcDbEntity
8
CUTOUTS
100
AcDbLine
10
22.593302656643036
20
-81.887260059910005
30
0
11
18.182346600033966
21
-81.887260059910005
31
0
0
LINE
5
12D
100
AcDbEntity
8
CUTOUTS
100
AcDbLine
10
18.182346600033966
20
-81.887260059910005
30
0
11
15.976868571729918
21
-78.067260059909998
31
0
0
LINE
5
12E
100
AcDbEntity
8
CUTOUTS
100
AcDbLine
10
15.976868571729918
20
-78.067260059909998
30
0
11
18.182346600033966
21
-74.247260059909991
31
0
0
LINE
5
12F
100
AcDbEntity
8
CUTOUTS
100
AcDbLine
10
18.182346600033966
20
-74.247260059909991
30
0
11
22.593302656643036
21
-74.247260059909991
31
0
0
LINE
5
130
100
AcDbEntity
8
CUTOUTS
100
AcDbLine
10
18.182346600033963
20
-55.497260059910005
30
0
11
22.593302656643036
21
-55.497260059910005
31
0
0
LINE
5
131
100
AcDbEntity
8
CUTOUTS
100
AcDbLine
10
22.593302656643036
20
-55.497260059910005
30
0
11
24.79878068494709
21
-59.317260059909998
31
0
0
LINE
5
132
100
AcDbEntity
8
CUTOUTS
100
AcDbLine
10
24.79878068494709
20
-59.317260059909998
30
0
11
22.593302656643036
21
-63.137260059910005
31
0
0
LINE
5
133
100
AcDbEntity
8
CUTOUTS
100
AcDbLine
10
22.593302656643036
20
-63.137260059910005
30
0
11
18.182346600033966
21
-63.137260059910005
31
0
0
LINE
5
134
100
AcDbEntity
8
CUTOUTS
100
AcDbLine
10
18.182346600033966
20
-63.137260059910005
30
0
11
15.976868571729918
21
-59.317260059909998
31
0
0
LINE
5
135
100
AcDbEntity
8
CUTOUTS
100
AcDbLine
10
15.976868571729918
20
-59.317260059909998
30
0
11
18.182346600033963
21
-55.497260059910005
31
0
0
LINE
5
136
100
AcDbEntity
8
CUTOUTS
100
AcDbLine
10
36.75377517146196
20
-92.997260059909991
30
0
11
41.164731228071041
21
-92.997260059909991
31
0
0
LINE
5
137
100
AcDbEntity
8
CUTOUTS
100
AcDbLine
10
41.164731228071041
20
-92.997260059909991
30
0
11
43.370209256375041
21
-96.817260059909941
31
0
0
LINE
5
138
100
AcDbEntity
8
CUTOUTS
100
AcDbLine
10
43.370209256375041
20
-96.817260059909941
30
0
11
41.164731228071112
21
-100.6372600599
31
0
0
LINE
5
139
100
AcDbEntity
8
CUTOUTS
100
AcDbLine
10
41.164731228071112
20
-100.6372600599
30
0
11
36.753775171461896
21
-100.6372600599
31
0
0
LINE
5
13A
100
AcDbEntity
8
CUTOUTS
100
AcDbLine
10
36.753775171461896
20
-100.6372600599
30
0
11
34.54829714315796
21
-96.817260059909941
31
0
0
LINE
5
13B
100
AcDbEntity
8
CUTOUTS
100
AcDbLine
10
34.54829714315796
20
-96.817260059909941
30
0
11
36.75377517146196
21
-92.997260059909991
31
0
0
LINE
5
13C
100
AcDbEntity
8
CUTOUTS
100
AcDbLine
10
59.736159799500037
20
-92.997260059909991
30
0
11
61.941637827804044
21
-96.817260059909941
31
0
0
LINE
5
13D
100
AcDbEntity
8
CUTOUTS
100
AcDbLine
10
61.941637827804044
20
-96.817260059909941
30
0
11
59.736159799500108
21
-100.6372600599
31
0
0
LINE
5
13E
100
AcDbEntity
8
CUTOUTS
100
AcDbLine
10
59.736159799500108
20
-100.6372600599
30
0
11
55.325203742890906
21
-100.6372600599
31
0
0
LINE
5
13F
100
AcDbEntity
8
CUTOUTS
100
AcDbLine
10
55.325203742890906
20
-100.6372600599
30
0
11
53.119725714586963
21
-96.817260059909941
31
0
0
LINE
5
140
100
AcDbEntity
8
CUTOUTS
100
AcDbLine
10
53.119725714586963
20
-96.817260059909941
30
0
11
55.325203742890977
21
-92.997260059909991
31
0
0
LINE
5
141
100
AcDbEntity
8
CUTOUTS
100
AcDbLine
10
55.325203742890977
20
-92.997260059909991
30
0
11
59.736159799500037
21
-92.997260059909991
31
0
0
LINE
5
142
100
AcDbEntity
8
CUTOUTS
100
AcDbLine
10
71.691154286014978
20
-96.817260059909941
30
0
11
73.896632314319959
21
-92.997260059909991
31
0
0
LINE
5
143
100
AcDbEntity
8
CUTOUTS
100
AcDbLine
10
73.896632314319959
20
-92.997260059909991
30
0
11
78.307588370928045
21
-92.997260059909991
31
0
0
LINE
5
144
100
AcDbEntity
8
CUTOUTS
100
AcDbLine
10
78.307588370928045
20
-92.997260059909991
30
0
11
80.51306639923304
21
-96.817260059909941
31
0
0
LINE
5
145
100
AcDbEntity
8
CUTOUTS
100
AcDbLine
10
80.51306639923304
20
-96.817260059909941
30
0
11
78.30758837092813
21
-100.6372600599
31
0
0
LINE
5
146
100
AcDbEntity
8
CUTOUTS
100
AcDbLine
10
78.30758837092813
20
-100.6372600599
30
0
11
73.896632314319888
21
-100.6372600599
31
0
0
LINE
5
147
100
AcDbEntity
8
CUTOUTS
100
AcDbLine
10
73.896632314319888
20
-100.6372600599
30
0
11
71.691154286014978
21
-96.817260059909941
31
0
0
LINE
5
148
100
AcDbEntity
8
CUTOUTS
100
AcDbLine
10
92.468060885747946
20
-92.997260059909991
30
0
11
96.87901694235704
21
-92.997260059909991
31
0
0
LINE
5
149
100
AcDbEntity
8
CUTOUTS
100
AcDbLine
10
96.87901694235704
20
-92.997260059909991
30
0
11
99.084494970661041
21
-96.817260059909941
31
0
0
LINE
5
14A
100
AcDbEntity
8
CUTOUTS
100
AcDbLine
10
99.084494970661041
20
-96.817260059909941
30
0
11
96.879016942357111
21
-100.6372600599
31
0
0
LINE
5
14B
100
AcDbEntity
8
CUTOUTS
100
AcDbLine
10
96.879016942357111
20
-100.6372600599
30
0
11
92.468060885747889
21
-100.6372600599
31
0
0
LINE
5
14C
100
AcDbEntity
8
CUTOUTS
100
AcDbLine
10
92.468060885747889
20
-100.6372600599
30
0
11
90.262582857443959
21
-96.817260059909941
31
0
0
LINE
5
14D
100
AcDbEntity
8
CUTOUTS
100
AcDbLine
10
90.262582857443959
20
-96.817260059909941
30
0
11
92.468060885747946
21
-92.997260059909991
31
0
0
LINE
5
14E
100
AcDbEntity
8
CUTOUTS
100
AcDbLine
10
43.370209256375077
20
-78.067260059909998
30
0
11
41.164731228071041
21
-81.887260059910005
31
0
0
LINE
5
14F
100
AcDbEntity
8
CUTOUTS
100
AcDbLine
10
41.164731228071041
20
-81.887260059910005
30
0
11
36.75377517146196
21
-81.887260059910005
31
0
0
LINE
5
150
100
AcDbEntity
8
CUTOUTS
100
AcDbLine
10
36.75377517146196
20
-81.887260059910005
30
0
11
34.548297143157917
21
-78.067260059909998
31
0
0
LINE
5
151
100
AcDbEntity
8
CUTOUTS
100
AcDbLine
10
34.548297143157917
20
-78.067260059909998
30
0
11
36.75377517146196
21
-74.247260059909991
31
0
0
LINE
5
152
100
AcDbEntity
8
CUTOUTS
100
AcDbLine
10
36.75377517146196
20
-74.247260059909991
30
0
11
41.164731228071041
21
-74.247260059909991
31
0
0
LINE
5
153
100
AcDbEntity
8
CUTOUTS
100
AcDbLine
10
41.164731228071041
20
-74.247260059909991
30
0
11
43.370209256375077
21
-78.067260059909998
31
0
0
LINE
5
154
100
AcDbEntity
8
CUTOUTS
100
AcDbLine
10
59.736159799500037
20
-74.247260059909991
30
0
11
61.94163782780408
21
-78.067260059909998
31
0
0
LINE
5
155
100
AcDbEntity
8
CUTOUTS
100
AcDbLine
10
61.94163782780408
20
-78.067260059909998
30
0
11
59.736159799500037
21
-81.887260059910005
31
0
0
LINE
5
156
100
AcDbEntity
8
CUTOUTS
100
AcDbLine
10
59.736159799500037
20
-81.887260059910005
30
0
11
55.325203742890977
21
-81.887260059910005
31
0
0
LINE
5
157
100
AcDbEntity
8
CUTOUTS
100
AcDbLine
10
55.325203742890977
20
-81.887260059910005
30
0
11
53.119725714586927
21
-78.067260059909998
31
0
0
LINE
5
158
100
AcDbEntity
8
CUTOUTS
100
AcDbLine
10
53.119725714586927
20
-78.067260059909998
30
0
11
55.325203742890977
21
-74.247260059909991
31
0
0
LINE
5
159
100
AcDbEntity
8
CUTOUTS
100
AcDbLine
10
55.325203742890977
20
-74.247260059909991
30
0
11
59.736159799500037
21
-74.247260059909991
31
0
0
LINE
5
15A
100
AcDbEntity
8
CUTOUTS
100
AcDbLine
10
41.164731228071041
20
-63.137260059910005
30
0
11
36.75377517146196
21
-63.137260059910005
31
0
0
LINE
5
15B
100
AcDbEntity
8
CUTOUTS
100
AcDbLine
10
36.75377517146196
20
-63.137260059910005
30
0
11
34.548297143157917
21
-59.317260059909998
31
0
0
LINE
5
15C
100
AcDbEntity
8
CUTOUTS
100
AcDbLine
10
34.548297143157917
20
-59.317260059909998
30
0
11
36.75377517146196
21
-55.497260059910005
31
0
0
LINE
5
15D
100
AcDbEntity
8
CUTOUTS
100
AcDbLine
10
36.75377517146196
20
-55.497260059910005
30
0
11
41.164731228071041
21
-55.497260059910005
31
0
0
LINE
5
15E
100
AcDbEntity
8
CUTOUTS
100
AcDbLine
10
41.164731228071041
20
-55.497260059910005
30
0
11
43.370209256375077
21
-59.317260059909998
31
0
0
LINE
5
15F
100
AcDbEntity
8
CUTOUTS
100
AcDbLine
10
43.370209256375077
20
-59.317260059909998
30
0
11
41.164731228071041
21
-63.137260059910005
31
0
0
LINE
5
160
100
AcDbEntity
8
CUTOUTS
100
AcDbLine
10
59.736159799500037
20
-55.497260059910005
30
0
11
61.94163782780408
21
-59.317260059909998
31
0
0
LINE
5
161
100
AcDbEntity
8
CUTOUTS
100
AcDbLine
10
61.94163782780408
20
-59.317260059909998
30
0
11
59.736159799500037
21
-63.137260059910005
31
0
0
LINE
5
162
100
AcDbEntity
8
CUTOUTS
100
AcDbLine
10
59.736159799500037
20
-63.137260059910005
30
0
11
55.325203742890977
21
-63.137260059910005
31
0
0
LINE
5
163
100
AcDbEntity
8
CUTOUTS
100
AcDbLine
10
55.325203742890977
20
-63.137260059910005
30
0
11
53.119725714586927
21
-59.317260059909998
31
0
0
LINE
5
164
100
AcDbEntity
8
CUTOUTS
100
AcDbLine
10
53.119725714586927
20
-59.317260059909998
30
0
11
55.325203742890977
21
-55.497260059910005
31
0
0
LINE
5
165
100
AcDbEntity
8
CUTOUTS
100
AcDbLine
10
55.325203742890977
20
-55.497260059910005
30
0
11
59.736159799500037
21
-55.497260059910005
31
0
0
LINE
5
166
100
AcDbEntity
8
CUTOUTS
100
AcDbLine
10
78.307588370928045
20
-74.247260059909991
30
0
11
80.513066399233082
21
-78.067260059909998
31
0
0
LINE
5
167
100
AcDbEntity
8
CUTOUTS
100
AcDbLine
10
80.513066399233082
20
-78.067260059909998
30
0
11
78.307588370928045
21
-81.887260059910005
31
0
0
LINE
5
168
100
AcDbEntity
8
CUTOUTS
100
AcDbLine
10
78.307588370928045
20
-81.887260059910005
30
0
11
73.896632314319959
21
-81.887260059910005
31
0
0
LINE
5
169
100
AcDbEntity
8
CUTOUTS
100
AcDbLine
10
73.896632314319959
20
-81.887260059910005
30
0
11
71.691154286014935
21
-78.067260059909998
31
0
0
LINE
5
16A
100
AcDbEntity
8
CUTOUTS
100
AcDbLine
10
71.691154286014935
20
-78.067260059909998
30
0
11
73.896632314319959
21
-74.247260059909991
31
0
0
LINE
5
16B
100
AcDbEntity
8
CUTOUTS
100
AcDbLine
10
73.896632314319959
20
-74.247260059909991
30
0
11
78.307588370928045
21
-74.247260059909991
31
0
0
LINE
5
16C
100
AcDbEntity
8
CUTOUTS
100
AcDbLine
10
96.87901694235704
20
-74.247260059909991
30
0
11
99.084494970661083
21
-78.067260059910012
31
0
0
LINE
5
16D
100
AcDbEntity
8
CUTOUTS
100
AcDbLine
10
99.084494970661083
20
-78.067260059910012
30
0
11
96.879016942357055
21
-81.887260059910005
31
0
0
LINE
5
16E
100
AcDbEntity
8
CUTOUTS
100
AcDbLine
10
96.879016942357055
20
-81.887260059910005
30
0
11
92.468060885747974
21
-81.887260059910005
31
0
0
LINE
5
16F
100
AcDbEntity
8
CUTOUTS
100
AcDbLine
10
92.468060885747974
20
-81.887260059910005
30
0
11
90.262582857443917
21
-78.067260059909998
31
0
0
LINE
5
170
100
AcDbEntity
8
CUTOUTS
100
AcDbLine
10
90.262582857443917
20
-78.067260059909998
30
0
11
92.468060885747974
21
-74.247260059909991
31
0
0
LINE
5
171
100
AcDbEntity
8
CUTOUTS
100
AcDbLine
10
92.468060885747974
20
-74.247260059909991
30
0
11
96.87901694235704
21
-74.247260059909991
31
0
0
LINE
5
172
100
AcDbEntity
8
CUTOUTS
100
AcDbLine
10
78.307588370928045
20
-63.137260059910005
30
0
11
73.896632314319959
21
-63.137260059910005
31
0
0
LINE
5
173
100
AcDbEntity
8
CUTOUTS
100
AcDbLine
10
73.896632314319959
20
-63.137260059910005
30
0
11
71.691154286014935
21
-59.317260059909998
31
0
0
LINE
5
174
100
AcDbEntity
8
CUTOUTS
100
AcDbLine
10
71.691154286014935
20
-59.317260059909998
30
0
11
73.896632314319959
21
-55.497260059910005
31
0
0
LINE
5
175
100
AcDbEntity
8
CUTOUTS
100
AcDbLine
10
73.896632314319959
20
-55.497260059910005
30
0
11
78.307588370928045
21
-55.497260059910005
31
0
0
LINE
5
176
100
AcDbEntity
8
CUTOUTS
100
AcDbLine
10
78.307588370928045
20
-55.497260059910005
30
0
11
80.513066399233082
21
-59.317260059909998
31
0
0
LINE
5
177
100
AcDbEntity
8
CUTOUTS
100
AcDbLine
10
80.513066399233082
20
-59.317260059909998
30
0
11
78.307588370928045
21
-63.137260059910005
31
0
0
LINE
5
178
100
AcDbEntity
8
CUTOUTS
100
AcDbLine
10
92.468060885747974
20
-55.497260059910005
30
0
11
96.87901694235704
21
-55.497260059910005
31
0
0
LINE
5
179
100
AcDbEntity
8
CUTOUTS
100
AcDbLine
10
96.87901694235704
20
-55.497260059910005
30
0
11
99.084494970661083
21
-59.317260059910012
31
0
0
LINE
5
17A
100
AcDbEntity
8
CUTOUTS
100
AcDbLine
10
99.084494970661083
20
-59.317260059910012
30
0
11
96.879016942357055
21
-63.137260059910005
31
0
0
LINE
5
17B
100
AcDbEntity
8
CUTOUTS
100
AcDbLine
10
96.879016942357055
20
-63.137260059910005
30
0
11
92.468060885747974
21
-63.137260059910005
31
0
0
LINE
5
17C
100
AcDbEntity
8
CUTOUTS
100
AcDbLine
10
92.468060885747974
20
-63.137260059910005
30
0
11
90.262582857443917
21
-59.317260059909998
31
0
0
LINE
5
17D
100
AcDbEntity
8
CUTOUTS
100
AcDbLine
10
90.262582857443917
20
-59.317260059909998
30
0
11
92.468060885747974
21
-55.497260059910005
31
0
0
LINE
5
17E
100
AcDbEntity
8
CUTOUTS
100
AcDbLine
10
-14.549554486209004
20
-36.747260059910005
30
0
11
-12.344076457907882
21
-40.567260059909998
31
0
0
LINE
5
17F
100
AcDbEntity
8
CUTOUTS
100
AcDbLine
10
-12.344076457907882
20
-40.567260059909998
30
0
11
-14.549554486209004
21
-44.387260059910005
31
0
0
LINE
5
180
100
AcDbEntity
8
CUTOUTS
100
AcDbLine
10
-14.549554486209004
20
-44.387260059910005
30
0
11
-18.960510542820998
21
-44.387260059910005
31
0
0
LINE
5
181
100
AcDbEntity
8
CUTOUTS
100
AcDbLine
10
-18.960510542820998
20
-44.387260059910005
30
0
11
-21.165988571122117
21
-40.567260059909998
31
0
0
LINE
5
182
100
AcDbEntity
8
CUTOUTS
100
AcDbLine
10
-21.165988571122117
20
-40.567260059909998
30
0
11
-18.960510542820995
21
-36.747260059910005
31
0
0
LINE
5
183
100
AcDbEntity
8
CUTOUTS
100
AcDbLine
10
-18.960510542820995
20
-36.747260059910005
30
0
11
-14.549554486209004
21
-36.747260059910005
31
0
0
LINE
5
184
100
AcDbEntity
8
CUTOUTS
100
AcDbLine
10
4.0218740852140336
20
-36.747260059910005
30
0
11
6.2273521135180818
21
-40.567260059909998
31
0
0
LINE
5
185
100
AcDbEntity
8
CUTOUTS
100
AcDbLine
10
6.2273521135180818
20
-40.567260059909998
30
0
11
4.0218740852140362
21
-44.387260059910005
31
0
0
LINE
5
186
100
AcDbEntity
8
CUTOUTS
100
AcDbLine
10
4.0218740852140362
20
-44.387260059910005
30
0
11
-0.38908197139503664
21
-44.387260059910005
31
0
0
LINE
5
187
100
AcDbEntity
8
CUTOUTS
100
AcDbLine
10
-0.38908197139503653
20
-44.387260059910005
30
0
11
-2.5945599996990825
21
-40.567260059909998
31
0
0
LINE
5
188
100
AcDbEntity
8
CUTOUTS
100
AcDbLine
10
-2.5945599996990825
20
-40.567260059909998
30
0
11
-0.38908197139503581
21
-36.747260059910005
31
0
0
LINE
5
189
100
AcDbEntity
8
CUTOUTS
100
AcDbLine
10
-0.38908197139503581
20
-36.747260059910005
30
0
11
4.0218740852140336
21
-36.747260059910005
31
0
0
LINE
5
18A
100
AcDbEntity
8
CUTOUTS
100
AcDbLine
10
22.593302656643033
20
-36.747260059910005
30
0
11
24.798780684947083
21
-40.567260059909998
31
0
0
LINE
5
18B
100
AcDbEntity
8
CUTOUTS
100
AcDbLine
10
24.798780684947083
20
-40.567260059909998
30
0
11
22.593302656643036
21
-44.387260059910005
31
0
0
LINE
5
18C
100
AcDbEntity
8
CUTOUTS
100
AcDbLine
10
22.593302656643036
20
-44.387260059910005
30
0
11
18.182346600033966
21
-44.387260059910005
31
0
0
LINE
5
18D
100
AcDbEntity
8
CUTOUTS
100
AcDbLine
10
18.182346600033966
20
-44.387260059910005
30
0
11
15.976868571729918
21
-40.567260059909998
31
0
0
LINE
5
18E
100
AcDbEntity
8
CUTOUTS
100
AcDbLine
10
15.976868571729918
20
-40.567260059909998
30
0
11
18.182346600033963
21
-36.747260059910005
31
0
0
LINE
5
18F
100
AcDbEntity
8
CUTOUTS
100
AcDbLine
10
18.182346600033963
20
-36.747260059910005
30
0
11
22.593302656643033
21
-36.747260059910005
31
0
0
LINE
5
190
100
AcDbEntity
8
CUTOUTS
100
AcDbLine
10
-18.960510542820998
20
-25.637260059910005
30
0
11
-21.165988571122117
21
-21.817260059910005
31
0
0
LINE
5
191
100
AcDbEntity
8
CUTOUTS
100
AcDbLine
10
-21.165988571122117
20
-21.817260059910005
30
0
11
-18.960510542820995
21
-17.997260059909998
31
0
0
LINE
5
192
100
AcDbEntity
8
CUTOUTS
100
AcDbLine
10
-18.960510542820995
20
-17.997260059909998
30
0
11
-14.549554486209004
21
-17.997260059909998
31
0
0
LINE
5
193
100
AcDbEntity
8
CUTOUTS
100
AcDbLine
10
-14.549554486209004
20
-17.997260059909998
30
0
11
-12.34407645790788
21
-21.817260059910005
31
0
0
LINE
5
194
100
AcDbEntity
8
CUTOUTS
100
AcDbLine
10
-12.34407645790788
20
-21.817260059910005
30
0
11
-14.549554486209004
21
-25.637260059910005
31
0
0
LINE
5
195
100
AcDbEntity
8
CUTOUTS
100
AcDbLine
10
-14.549554486209004
20
-25.637260059910005
30
0
11
-18.960510542820998
21
-25.637260059910005
31
0
0
LINE
5
196
100
AcDbEntity
8
CUTOUTS
100
AcDbLine
10
-0.38908197139503398
20
-25.637260059910005
30
0
11
-2.5945599996990816
21
-21.817260059910005
31
0
0
LINE
5
197
100
AcDbEntity
8
CUTOUTS
100
AcDbLine
10
-2.5945599996990816
20
-21.817260059910005
30
0
11
-0.38908197139503387
21
-17.997260059909998
31
0
0
LINE
5
198
100
AcDbEntity
8
CUTOUTS
100
AcDbLine
10
-0.38908197139503387
20
-17.997260059909998
30
0
11
4.0218740852140344
21
-17.997260059909998
31
0
0
LINE
5
199
100
AcDbEntity
8
CUTOUTS
100
AcDbLine
10
4.0218740852140344
20
-17.997260059909998
30
0
11
6.2273521135180809
21
-21.817260059910005
31
0
0
LINE
5
19A
100
AcDbEntity
8
CUTOUTS
100
AcDbLine
10
6.2273521135180809
20
-21.817260059910005
30
0
11
4.0218740852140336
21
-25.637260059910005
31
0
0
LINE
5
19B
100
AcDbEntity
8
CUTOUTS
100
AcDbLine
10
4.0218740852140336
20
-25.637260059910005
30
0
11
-0.38908197139503387
21
-25.637260059910005
31
0
0
LINE
5
19C
100
AcDbEntity
8
CUTOUTS
100
AcDbLine
10
22.593302656643033
20
-17.997260059909998
30
0
11
24.798780684947083
21
-21.817260059910005
31
0
0
LINE
5
19D
100
AcDbEntity
8
CUTOUTS
100
AcDbLine
10
24.798780684947083
20
-21.817260059910005
30
0
11
22.593302656643033
21
-25.637260059910005
31
0
0
LINE
5
19E
100
AcDbEntity
8
CUTOUTS
100
AcDbLine
10
22.593302656643033
20
-25.637260059910005
30
0
11
18.182346600033966
21
-25.637260059910005
31
0
0
LINE
5
19F
100
AcDbEntity
8
CUTOUTS
100
AcDbLine
10
18.182346600033966
20
-25.637260059910005
30
0
11
15.97686857172992
21
-21.817260059910005
31
0
0
LINE
5
1A0
100
AcDbEntity
8
CUTOUTS
100
AcDbLine
10
15.97686857172992
20
-21.817260059910005
30
0
11
18.182346600033966
21
-17.997260059909998
31
0
0
LINE
5
1A1
100
AcDbEntity
8
CUTOUTS
100
AcDbLine
10
18.182346600033966
20
-17.997260059909998
30
0
11
22.593302656643033
21
-17.997260059909998
31
0
0
LINE
5
1A2
100
AcDbEntity
8
CUTOUTS
100
AcDbLine
10
41.164731228071041
20
-36.747260059910005
30
0
11
43.370209256375077
21
-40.567260059909998
31
0
0
LINE
5
1A3
100
AcDbEntity
8
CUTOUTS
100
AcDbLine
10
43.370209256375077
20
-40.567260059909998
30
0
11
41.164731228071041
21
-44.387260059910005
31
0
0
LINE
5
1A4
100
AcDbEntity
8
CUTOUTS
100
AcDbLine
10
41.164731228071041
20
-44.387260059910005
30
0
11
36.75377517146196
21
-44.387260059910005
31
0
0
LINE
5
1A5
100
AcDbEntity
8
CUTOUTS
100
AcDbLine
10
36.75377517146196
20
-44.387260059910005
30
0
11
34.548297143157917
21
-40.567260059909998
31
0
0
LINE
5
1A6
100
AcDbEntity
8
CUTOUTS
100
AcDbLine
10
34.548297143157917
20
-40.567260059909998
30
0
11
36.75377517146196
21
-36.747260059910005
31
0
0
LINE
5
1A7
100
AcDbEntity
8
CUTOUTS
100
AcDbLine
10
36.75377517146196
20
-36.747260059910005
30
0
11
41.164731228071041
21
-36.747260059910005
31
0
0
LINE
5
1A8
100
AcDbEntity
8
CUTOUTS
100
AcDbLine
10
55.325203742890977
20
-36.747260059910005
30
0
11
59.736159799500037
21
-36.747260059910005
31
0
0
LINE
5
1A9
100
AcDbEntity
8
CUTOUTS
100
AcDbLine
10
59.736159799500037
20
-36.747260059910005
30
0
11
61.94163782780408
21
-40.567260059909998
31
0
0
LINE
5
1AA
100
AcDbEntity
8
CUTOUTS
100
AcDbLine
10
61.94163782780408
20
-40.567260059909998
30
0
11
59.736159799500037
21
-44.387260059910005
31
0
0
LINE
5
1AB
100
AcDbEntity
8
CUTOUTS
100
AcDbLine
10
59.736159799500037
20
-44.387260059910005
30
0
11
55.325203742890977
21
-44.387260059910005
31
0
0
LINE
5
1AC
100
AcDbEntity
8
CUTOUTS
100
AcDbLine
10
55.325203742890977
20
-44.387260059910005
30
0
11
53.119725714586927
21
-40.567260059909998
31
0
0
LINE
5
1AD
100
AcDbEntity
8
CUTOUTS
100
AcDbLine
10
53.119725714586927
20
-40.567260059909998
30
0
11
55.325203742890977
21
-36.747260059910005
31
0
0
LINE
5
1AE
100
AcDbEntity
8
CUTOUTS
100
AcDbLine
10
71.691154286014935
20
-40.567260059909998
30
0
11
73.896632314319959
21
-36.747260059910005
31
0
0
LINE
5
1AF
100
AcDbEntity
8
CUTOUTS
100
AcDbLine
10
73.896632314319959
20
-36.747260059910005
30
0
11
78.307588370928045
21
-36.747260059910005
31
0
0
LINE
5
1B0
100
AcDbEntity
8
CUTOUTS
100
AcDbLine
10
78.307588370928045
20
-36.747260059910005
30
0
11
80.513066399233082
21
-40.567260059909998
31
0
0
LINE
5
1B1
100
AcDbEntity
8
CUTOUTS
100
AcDbLine
10
80.513066399233082
20
-40.567260059909998
30
0
11
78.307588370928045
21
-44.387260059910005
31
0
0
LINE
5
1B2
100
AcDbEntity
8
CUTOUTS
100
AcDbLine
10
78.307588370928045
20
-44.387260059910005
30
0
11
73.896632314319959
21
-44.387260059910005
31
0
0
LINE
5
1B3
100
AcDbEntity
8
CUTOUTS
100
AcDbLine
10
73.896632314319959
20
-44.387260059910005
30
0
11
71.691154286014935
21
-40.567260059909998
31
0
0
LINE
5
1B4
100
AcDbEntity
8
CUTOUTS
100
AcDbLine
10
96.87901694235704
20
-36.747260059910005
30
0
11
99.084494970661083
21
-40.567260059910012
31
0
0
LINE
5
1B5
100
AcDbEntity
8
CUTOUTS
100
AcDbLine
10
99.084494970661083
20
-40.567260059910012
30
0
11
96.879016942357055
21
-44.387260059910005
31
0
0
LINE
5
1B6
100
AcDbEntity
8
CUTOUTS
100
AcDbLine
10
96.879016942357055
20
-44.387260059910005
30
0
11
92.468060885747974
21
-44.387260059910005
31
0
0
LINE
5
1B7
100
AcDbEntity
8
CUTOUTS
100
AcDbLine
10
92.468060885747974
20
-44.387260059910005
30
0
11
90.262582857443917
21
-40.567260059909998
31
0
0
LINE
5
1B8
100
AcDbEntity
8
CUTOUTS
100
AcDbLine
10
90.262582857443917
20
-40.567260059909998
30
0
11
92.468060885747974
21
-36.747260059909998
31
0
0
LINE
5
1B9
100
AcDbEntity
8
CUTOUTS
100
AcDbLine
10
92.468060885747974
20
-36.747260059909998
30
0
11
96.87901694235704
21
-36.747260059910005
31
0
0
LINE
5
1BA
100
AcDbEntity
8
CUTOUTS
100
AcDbLine
10
36.753775171461967
20
-17.997260059909998
30
0
11
41.164731228071041
21
-17.997260059909998
31
0
0
LINE
5
1BB
100
AcDbEntity
8
CUTOUTS
100
AcDbLine
10
41.164731228071041
20
-17.997260059909998
30
0
11
43.370209256375077
21
-21.817260059909998
31
0
0
LINE
5
1BC
100
AcDbEntity
8
CUTOUTS
100
AcDbLine
10
43.370209256375077
20
-21.817260059909998
30
0
11
41.164731228071034
21
-25.637260059910005
31
0
0
LINE
5
1BD
100
AcDbEntity
8
CUTOUTS
100
AcDbLine
10
41.164731228071034
20
-25.637260059910005
30
0
11
36.753775171461967
21
-25.637260059910005
31
0
0
LINE
5
1BE
100
AcDbEntity
8
CUTOUTS
100
AcDbLine
10
36.753775171461967
20
-25.637260059910005
30
0
11
34.548297143157917
21
-21.817260059910005
31
0
0
LINE
5
1BF
100
AcDbEntity
8
CUTOUTS
100
AcDbLine
10
34.548297143157917
20
-21.817260059910005
30
0
11
36.753775171461967
21
-17.997260059909998
31
0
0
LINE
5
1C0
100
AcDbEntity
8
CUTOUTS
100
AcDbLine
10
59.73615979950003
20
-17.997260059909998
30
0
11
61.94163782780408
21
-21.817260059910005
31
0
0
LINE
5
1C1
100
AcDbEntity
8
CUTOUTS
100
AcDbLine
10
61.94163782780408
20
-21.817260059910005
30
0
11
59.736159799500037
21
-25.637260059910005
31
0
0
LINE
5
1C2
100
AcDbEntity
8
CUTOUTS
100
AcDbLine
10
59.736159799500037
20
-25.637260059910005
30
0
11
55.325203742890977
21
-25.637260059910005
31
0
0
LINE
5
1C3
100
AcDbEntity
8
CUTOUTS
100
AcDbLine
10
55.325203742890977
20
-25.637260059910005
30
0
11
53.119725714586927
21
-21.817260059910005
31
0
0
LINE
5
1C4
100
AcDbEntity
8
CUTOUTS
100
AcDbLine
10
53.119725714586927
20
-21.817260059910005
30
0
11
55.325203742890977
21
-17.997260059910001
31
0
0
LINE
5
1C5
100
AcDbEntity
8
CUTOUTS
100
AcDbLine
10
55.325203742890977
20
-17.997260059910001
30
0
11
59.73615979950003
21
-17.997260059909998
31
0
0
LINE
5
1C6
100
AcDbEntity
8
CUTOUTS
100
AcDbLine
10
78.307588370928045
20
-17.997260059909998
30
0
11
80.513066399233082
21
-21.817260059910005
31
0
0
LINE
5
1C7
100
AcDbEntity
8
CUTOUTS
100
AcDbLine
10
80.513066399233082
20
-21.817260059910005
30
0
11
78.307588370928045
21
-25.637260059910005
31
0
0
LINE
5
1C8
100
AcDbEntity
8
CUTOUTS
100
AcDbLine
10
78.307588370928045
20
-25.637260059910005
30
0
11
73.896632314319959
21
-25.637260059910005
31
0
0
LINE
5
1C9
100
AcDbEntity
8
CUTOUTS
100
AcDbLine
10
73.896632314319959
20
-25.637260059910005
30
0
11
71.691154286014935
21
-21.817260059910005
31
0
0
LINE
5
1CA
100
AcDbEntity
8
CUTOUTS
100
AcDbLine
10
71.691154286014935
20
-21.817260059910005
30
0
11
73.896632314319959
21
-17.997260059909998
31
0
0
LINE
5
1CB
100
AcDbEntity
8
CUTOUTS
100
AcDbLine
10
73.896632314319959
20
-17.997260059909998
30
0
11
78.307588370928045
21
-17.997260059909998
31
0
0
LINE
5
1CC
100
AcDbEntity
8
CUTOUTS
100
AcDbLine
10
96.87901694235704
20
-25.637260059910005
30
0
11
92.468060885747974
21
-25.637260059910005
31
0
0
LINE
5
1CD
100
AcDbEntity
8
CUTOUTS
100
AcDbLine
10
92.468060885747974
20
-25.637260059910005
30
0
11
90.262582857443917
21
-21.817260059910005
31
0
0
LINE
5
1CE
100
AcDbEntity
8
CUTOUTS
100
AcDbLine
10
90.262582857443917
20
-21.817260059910005
30
0
11
92.468060885747974
21
-17.997260059909998
31
0
0
LINE
5
1CF
100
AcDbEntity
8
CUTOUTS
100
AcDbLine
10
92.468060885747974
20
-17.997260059909998
30
0
11
96.87901694235704
21
-17.997260059909998
31
0
0
LINE
5
1D0
100
AcDbEntity
8
CUTOUTS
100
AcDbLine
10
96.87901694235704
20
-17.997260059909998
30
0
11
99.084494970661083
21
-21.817260059910005
31
0
0
LINE
5
1D1
100
AcDbEntity
8
CUTOUTS
100
AcDbLine
10
99.084494970661083
20
-21.817260059910005
30
0
11
96.87901694235704
21
-25.637260059910005
31
0
0
LINE
5
1D2
100
AcDbEntity
8
PERIMETER
100
AcDbLine
10
105.81854137503001
20
-114.9972600599
30
0
11
105.81854137503001
21
-14.797260059909991
31
0
0
LINE
5
1D3
100
AcDbEntity
8
PERIMETER
100
AcDbLine
10
105.81854137503001
20
-14.797260059909991
30
0
11
-24.381458624960004
21
-14.79726005991
31
0
0
LINE
5
1D4
100
AcDbEntity
8
PERIMETER
100
AcDbLine
10
-24.381458624960004
20
-14.79726005991
30
0
11
-24.38145862496
21
-114.99726005990001
31
0
0
LINE
5
1D5
100
AcDbEntity
8
PERIMETER
100
AcDbLine
10
-24.38145862496
20
-114.99726005990001
30
0
11
105.81854137503001
21
-114.9972600599
31
0
0
ENDSEC
0
SECTION
2
OBJECTS
0
DICTIONARY
5
C
100
AcDbDictionary
3
ACAD_GROUP
350
D
3
ACAD_MLINESTYLE
350
17
0
DICTIONARY
5
D
100
AcDbDictionary
0
DICTIONARY
5
1A
330
C
100
AcDbDictionary
0
DICTIONARY
5
17
100
AcDbDictionary
0
ENDSEC
0
EOF
