0
SECTION
2
HEADER
9
$INSUNITS
70
4
9
$ACADVER
1
AC1014
9
$HANDSEED
5
FFFF
0
ENDSEC
0
SECTION
2
TABLES
0
TABLE
2
VPORT
5
8
100
AcDbSymbolTable
0
ENDTAB
0
TABLE
2
LTYPE
5
5
100
AcDbSymbolTable
70
2
0
LTYPE
5
14
100
AcDbSymbolTableRecord
100
AcDbLinetypeTableRecord
2
BYBLOCK
70
0
0
LTYPE
5
15
100
AcDbSymbolTableRecord
100
AcDbLinetypeTableRecord
2
BYLAYER
70
0
0
ENDTAB
0
TABLE
2
LAYER
5
2
100
AcDbSymbolTable
70
3
0
LAYER
5
50
100
AcDbSymbolTableRecord
100
AcDbLayerTableRecord
2
0
70
0
6
CONTINUOUS
0
LAYER
5
51
100
AcDbSymbolTableRecord
100
AcDbLayerTableRecord
2
CUTOUTS
70
0
62
1
6
CONTINUOUS
0
LAYER
5
52
100
AcDbSymbolTableRecord
100
AcDbLayerTableRecord
2
PERIMETER
70
0
62
5
6
CONTINUOUS
0
ENDTAB
0
TABLE
2
STYLE
5
3
100
AcDbSymbolTable
70
1
0
STYLE
5
11
100
AcDbSymbolTableRecord
100
AcDbTextStyleTableRecord
2
STANDARD
70
0
0
ENDTAB
0
TABLE
2
VIEW
5
6
100
AcDbSymbolTable
0
ENDTAB
0
TABLE
2
UCS
5
7
100
AcDbSymbolTable
0
ENDTAB
0
TABLE
2
APPID
5
9
100
AcDbSymbolTable
70
1
0
APPID
5
12
100
AcDbSymbolTableRecord
100
AcDbRegAppTableRecord
2
ACAD
70
0
0
ENDTAB
0
TABLE
2
DIMSTYLE
5
A
100
AcDbSymbolTable
0
ENDTAB
0
TABLE
2
BLOCK_RECORD
5
1
100
AcDbSymbolTable
70
2
0
BLOCK_RECORD
5
1F
100
AcDbSymbolTableRecord
100
AcDbBlockTableRecord
2
*MODEL_SPACE
0
BLOCK_RECORD
5
1B
100
AcDbSymbolTableRecord
100
AcDbBlockTableRecord
2
*PAPER_SPACE
0
ENDTAB
0
ENDSEC
0
SECTION
2
BLOCKS
0
BLOCK
5
20
100
AcDbEntity
100
AcDbBlockBegin
2
*MODEL_SPACE
0
ENDBLK
5
21
100
AcDbEntity
100
AcDbBlockEnd
0
BLOCK
5
1C
100
AcDbEntity
100
AcDbBlockBegin
2
*PAPER_SPACE
0
ENDBLK
5
1D
100
AcDbEntity
100
AcDbBlockEnd
0
ENDSEC
0
SECTION
2
ENTITIES
0
LINE
5
100
100
AcDbEntity
8
CUTOUTS
100
AcDbLine
10
-14.55677136457388
20
-93.009760059910008
30
0
11
-12.35851021463767
21
-96.817260059909927
31
0
0
LINE
5
101
100
AcDbEntity
8
CUTOUTS
100
AcDbLine
10
-12.35851021463767
20
-96.817260059909927
30
0
11
-14.556771364573805
21
-100.6247600599
31
0
0
LINE
5
102
100
AcDbEntity
8
CUTOUTS
100
AcDbLine
10
-14.556771364573805
20
-100.6247600599
30
0
11
-18.953293664456194
21
-100.6247600599
31
0
0
LINE
5
103
100
AcDbEntity
8
CUTOUTS
100
AcDbLine
10
-18.953293664456194
20
-100.6247600599
30
0
11
-21.151554814392341
21
-96.817260059909927
31
0
0
LINE
5
104
100
AcDbEntity
8
CUTOUTS
100
AcDbLine
10
-21.151554814392341
20
-96.817260059909927
30
0
11
-18.953293664456126
21
-93.009760059910008
31
0
0
LINE
5
105
100
AcDbEntity
8
CUTOUTS
100
AcDbLine
10
-18.953293664456126
20
-93.009760059910008
30
0
11
-14.55677136457388
21
-93.009760059910008
31
0
0
LINE
5
106
100
AcDbEntity
8
CUTOUTS
100
AcDbLine
10
4.0146572068491562
20
-93.009760059910008
30
0
11
6.2129183567882897
21
-96.817260059909941
31
0
0
LINE
5
107
100
AcDbEntity
8
CUTOUTS
100
AcDbLine
10
6.2129183567882897
20
-96.817260059909941
30
0
11
4.0146572068492405
21
-100.6247600599
31
0
0
LINE
5
108
100
AcDbEntity
8
CUTOUTS
100
AcDbLine
10
4.0146572068492405
20
-100.6247600599
30
0
11
-0.3818650930302403
21
-100.6247600599
31
0
0
LINE
5
109
100
AcDbEntity
8
CUTOUTS
100
AcDbLine
10
-0.38186509303024008
20
-100.6247600599
30
0
11
-2.5801262429692895
21
-96.817260059909941
31
0
0
LINE
5
10A
100
AcDbEntity
8
CUTOUTS
100
AcDbLine
10
-2.5801262429692895
20
-96.817260059909941
30
0
11
-0.38186509303015592
21
-93.009760059910008
31
0
0
LINE
5
10B
100
AcDbEntity
8
CUTOUTS
100
AcDbLine
10
-0.38186509303015592
20
-93.009760059910008
30
0
11
4.0146572068491562
21
-93.009760059910008
31
0
0
LINE
5
10C
100
AcDbEntity
8
CUTOUTS
100
AcDbLine
10
22.586085778278154
20
-93.009760059910008
30
0
11
24.784346928217293
21
-96.817260059909941
31
0
0
LINE
5
10D
100
AcDbEntity
8
CUTOUTS
100
AcDbLine
10
24.784346928217293
20
-96.817260059909941
30
0
11
22.586085778278239
21
-100.6247600599
31
0
0
LINE
5
10E
100
AcDbEntity
8
CUTOUTS
100
AcDbLine
10
22.586085778278239
20
-100.6247600599
30
0
11
18.18956347839876
21
-100.6247600599
31
0
0
LINE
5
10F
100
AcDbEntity
8
CUTOUTS
100
AcDbLine
10
18.18956347839876
20
-100.6247600599
30
0
11
15.991302328459714
21
-96.817260059909941
31
0
0
LINE
5
110
100
AcDbEntity
8
CUTOUTS
100
AcDbLine
10
15.991302328459714
20
-96.817260059909941
30
0
11
18.189563478398846
21
-93.009760059910008
31
0
0
LINE
5
111
100
AcDbEntity
8
CUTOUTS
100
AcDbLine
10
18.189563478398846
20
-93.009760059910008
30
0
11
22.586085778278154
21
-93.009760059910008
31
0
0
LINE
5
112
100
AcDbEntity
8
CUTOUTS
100
AcDbLine
10
-12.358510214637624
20
-78.067260059909998
30
0
11
-14.556771364573883
21
-81.874760059910002
31
0
0
LINE
5
113
100
AcDbEntity
8
CUTOUTS
100
AcDbLine
10
-14.556771364573883
20
-81.874760059910002
30
0
11
-18.953293664456123
21
-81.874760059910002
31
0
0
LINE
5
114
100
AcDbEntity
8
CUTOUTS
100
AcDbLine
10
-18.953293664456123
20
-81.874760059910002
30
0
11
-21.15155481439238
21
-78.067260059909998
31
0
0
LINE
5
115
100
AcDbEntity
8
CUTOUTS
100
AcDbLine
10
-21.15155481439238
20
-78.067260059909998
30
0
11
-18.953293664456119
21
-74.259760059910008
31
0
0
LINE
5
116
100
AcDbEntity
8
CUTOUTS
100
AcDbLine
10
-18.953293664456119
20
-74.259760059910008
30
0
11
-14.556771364573883
21
-74.259760059910008
31
0
0
LINE
5
117
100
AcDbEntity
8
CUTOUTS
100
AcDbLine
10
-14.556771364573883
20
-74.259760059910008
30
0
11
-12.358510214637624
21
-78.067260059909998
31
0
0
LINE
5
118
100
AcDbEntity
8
CUTOUTS
100
AcDbLine
10
4.0146572068491615
20
-81.874760059910002
30
0
11
-0.38186509303015648
21
-81.874760059910002
31
0
0
LINE
5
119
100
AcDbEntity
8
CUTOUTS
100
AcDbLine
10
-0.38186509303015648
20
-81.874760059910002
30
0
11
-2.5801262429693312
21
-78.067260059909998
31
0
0
LINE
5
11A
100
AcDbEntity
8
CUTOUTS
100
AcDbLine
10
-2.5801262429693312
20
-78.067260059909998
30
0
11
-0.38186509303016147
21
-74.259760059910008
31
0
0
LINE
5
11B
100
AcDbEntity
8
CUTOUTS
100
AcDbLine
10
-0.38186509303016147
20
-74.259760059910008
30
0
11
4.0146572068491615
21
-74.259760059910008
31
0
0
LINE
5
11C
100
AcDbEntity
8
CUTOUTS
100
AcDbLine
10
4.0146572068491615
20
-74.259760059910008
30
0
11
6.2129183567883359
21
-78.067260059909998
31
0
0
LINE
5
11D
100
AcDbEntity
8
CUTOUTS
100
AcDbLine
10
6.2129183567883359
20
-78.067260059909998
30
0
11
4.0146572068491615
21
-81.874760059910002
31
0
0
LINE
5
11E
100
AcDbEntity
8
CUTOUTS
100
AcDbLine
10
-14.556771364573883
20
-63.124760059910002
30
0
11
-18.953293664456115
21
-63.124760059910002
31
0
0
LINE
5
11F
100
AcDbEntity
8
CUTOUTS
100
AcDbLine
10
-18.953293664456115
20
-63.124760059910002
30
0
11
-21.151554814392377
21
-59.317260059909998
31
0
0
LINE
5
120
100
AcDbEntity
8
CUTOUTS
100
AcDbLine
10
-21.151554814392377
20
-59.317260059909998
30
0
11
-18.953293664456119
21
-55.509760059910008
31
0
0
LINE
5
121
100
AcDbEntity
8
CUTOUTS
100
AcDbLine
10
-18.953293664456119
20
-55.509760059910008
30
0
11
-14.556771364573883
21
-55.509760059910008
31
0
0
LINE
5
122
100
AcDbEntity
8
CUTOUTS
100
AcDbLine
10
-14.556771364573883
20
-55.509760059910008
30
0
11
-12.358510214637624
21
-59.317260059909998
31
0
0
LINE
5
123
100
AcDbEntity
8
CUTOUTS
100
AcDbLine
10
-12.358510214637624
20
-59.317260059909998
30
0
11
-14.556771364573883
21
-63.124760059910002
31
0
0
LINE
5
124
100
AcDbEntity
8
CUTOUTS
100
AcDbLine
10
-0.38186509303016158
20
-63.124760059910002
30
0
11
-2.5801262429693352
21
-59.317260059909998
31
0
0
LINE
5
125
100
AcDbEntity
8
CUTOUTS
100
AcDbLine
10
-2.5801262429693352
20
-59.317260059909998
30
0
11
-0.38186509303016147
21
-55.509760059910008
31
0
0
LINE
5
126
100
AcDbEntity
8
CUTOUTS
100
AcDbLine
10
-0.38186509303016147
20
-55.509760059910008
30
0
11
4.0146572068491615
21
-55.509760059910008
31
0
0
LINE
5
127
100
AcDbEntity
8
CUTOUTS
100
AcDbLine
10
4.0146572068491615
20
-55.509760059910008
30
0
11
6.2129183567883359
21
-59.317260059909998
31
0
0
LINE
5
128
100
AcDbEntity
8
CUTOUTS
100
AcDbLine
10
6.2129183567883359
20
-59.317260059909998
30
0
11
4.0146572068491606
21
-63.124760059910002
31
0
0
LINE
5
129
100
AcDbEntity
8
CUTOUTS
100
AcDbLine
10
4.0146572068491606
20
-63.124760059910002
30
0
11
-0.38186509303016147
21
-63.124760059910002
31
0
0
LINE
5
12A
100
AcDbEntity
8
CUTOUTS
100
AcDbLine
10
22.586085778278161
20
-74.259760059910008
30
0
11
24.784346928217339
21
-78.067260059909998
31
0
0
LINE
5
12B
100
AcDbEntity
8
CUTOUTS
100
AcDbLine
10
24.784346928217339
20
-78.067260059909998
30
0
11
22.586085778278161
21
-81.874760059910002
31
0
0
LINE
5
12C
100
AcDbEntity
8
CUTOUTS
100
AcDbLine
10
22.586085778278161
20
-81.874760059910002
30
0
11
18.189563478398846
21
-81.874760059910002
31
0
0
LINE
5
12D
100
AcDbEntity
8
CUTOUTS
100
AcDbLine
10
18.189563478398846
20
-81.874760059910002
30
0
11
15.991302328459668
21
-78.067260059909984
31
0
0
LINE
5
12E
100
AcDbEntity
8
CUTOUTS
100
AcDbLine
10
15.991302328459668
20
-78.067260059909984
30
0
11
18.189563478398838
21
-74.259760059910008
31
0
0
LINE
5
12F
100
AcDbEntity
8
CUTOUTS
100
AcDbLine
10
18.189563478398838
20
-74.259760059910008
30
0
11
22.586085778278161
21
-74.259760059910008
31
0
0
LINE
5
130
100
AcDbEntity
8
CUTOUTS
100
AcDbLine
10
22.586085778278161
20
-55.509760059910008
30
0
11
24.784346928217339
21
-59.317260059909998
31
0
0
LINE
5
131
100
AcDbEntity
8
CUTOUTS
100
AcDbLine
10
24.784346928217339
20
-59.317260059909998
30
0
11
22.586085778278161
21
-63.124760059910002
31
0
0
LINE
5
132
100
AcDbEntity
8
CUTOUTS
100
AcDbLine
10
22.586085778278161
20
-63.124760059910002
30
0
11
18.189563478398838
21
-63.124760059910002
31
0
0
LINE
5
133
100
AcDbEntity
8
CUTOUTS
100
AcDbLine
10
18.189563478398838
20
-63.124760059910002
30
0
11
15.991302328459668
21
-59.317260059909998
31
0
0
LINE
5
134
100
AcDbEntity
8
CUTOUTS
100
AcDbLine
10
15.991302328459668
20
-59.317260059909998
30
0
11
18.189563478398838
21
-55.509760059910008
31
0
0
LINE
5
135
100
AcDbEntity
8
CUTOUTS
100
AcDbLine
10
18.189563478398838
20
-55.509760059910008
30
0
11
22.586085778278161
21
-55.509760059910008
31
0
0
LINE
5
136
100
AcDbEntity
8
CUTOUTS
100
AcDbLine
10
41.157514349706155
20
-93.009760059910008
30
0
11
43.35577549964529
21
-96.817260059909941
31
0
0
LINE
5
137
100
AcDbEntity
8
CUTOUTS
100
AcDbLine
10
43.35577549964529
20
-96.817260059909941
30
0
11
41.157514349706247
21
-100.6247600599
31
0
0
LINE
5
138
100
AcDbEntity
8
CUTOUTS
100
AcDbLine
10
41.157514349706247
20
-100.6247600599
30
0
11
36.760992049826761
21
-100.6247600599
31
0
0
LINE
5
139
100
AcDbEntity
8
CUTOUTS
100
AcDbLine
10
36.760992049826761
20
-100.6247600599
30
0
11
34.562730899887711
21
-96.817260059909941
31
0
0
LINE
5
13A
100
AcDbEntity
8
CUTOUTS
100
AcDbLine
10
34.562730899887711
20
-96.817260059909941
30
0
11
36.760992049826847
21
-93.009760059910008
31
0
0
LINE
5
13B
100
AcDbEntity
8
CUTOUTS
100
AcDbLine
10
36.760992049826847
20
-93.009760059910008
30
0
11
41.157514349706155
21
-93.009760059910008
31
0
0
LINE
5
13C
100
AcDbEntity
8
CUTOUTS
100
AcDbLine
10
53.134159471316721
20
-96.817260059909941
30
0
11
55.332420621255849
21
-93.009760059910008
31
0
0
LINE
5
13D
100
AcDbEntity
8
CUTOUTS
100
AcDbLine
10
55.332420621255849
20
-93.009760059910008
30
0
11
59.72894292113515
21
-93.009760059910008
31
0
0
LINE
5
13E
100
AcDbEntity
8
CUTOUTS
100
AcDbLine
10
59.72894292113515
20
-93.009760059910008
30
0
11
61.927204071074293
21
-96.817260059909941
31
0
0
LINE
5
13F
100
AcDbEntity
8
CUTOUTS
100
AcDbLine
10
61.927204071074293
20
-96.817260059909941
30
0
11
59.728942921135236
21
-100.6247600599
31
0
0
LINE
5
140
100
AcDbEntity
8
CUTOUTS
100
AcDbLine
10
59.728942921135236
20
-100.6247600599
30
0
11
55.332420621255771
21
-100.6247600599
31
0
0
LINE
5
141
100
AcDbEntity
8
CUTOUTS
100
AcDbLine
10
55.332420621255771
20
-100.6247600599
30
0
11
53.134159471316721
21
-96.817260059909941
31
0
0
LINE
5
142
100
AcDbEntity
8
CUTOUTS
100
AcDbLine
10
78.300371492563187
20
-93.009760059910008
30
0
11
80.498632642503281
21
-96.817260059909941
31
0
0
LINE
5
143
100
AcDbEntity
8
CUTOUTS
100
AcDbLine
10
80.498632642503281
20
-96.817260059909941
30
0
11
78.300371492563258
21
-100.6247600599
31
0
0
LINE
5
144
100
AcDbEntity
8
CUTOUTS
100
AcDbLine
10
78.300371492563258
20
-100.6247600599
30
0
11
73.903849192684746
21
-100.6247600599
31
0
0
LINE
5
145
100
AcDbEntity
8
CUTOUTS
100
AcDbLine
10
73.903849192684746
20
-100.6247600599
30
0
11
71.705588042744722
21
-96.817260059909941
31
0
0
LINE
5
146
100
AcDbEntity
8
CUTOUTS
100
AcDbLine
10
71.705588042744722
20
-96.817260059909941
30
0
11
73.903849192684831
21
-93.009760059910008
31
0
0
LINE
5
147
100
AcDbEntity
8
CUTOUTS
100
AcDbLine
10
73.903849192684831
20
-93.009760059910008
30
0
11
78.300371492563187
21
-93.009760059910008
31
0
0
LINE
5
148
100
AcDbEntity
8
CUTOUTS
100
AcDbLine
10
92.475277764112832
20
-93.009760059910008
30
0
11
96.871800063992168
21
-93.009760059910008
31
0
0
LINE
5
149
100
AcDbEntity
8
CUTOUTS
100
AcDbLine
10
96.871800063992168
20
-93.009760059910008
30
0
11
99.070061213931297
21
-96.817260059909927
31
0
0
LINE
5
14A
100
AcDbEntity
8
CUTOUTS
100
AcDbLine
10
99.070061213931297
20
-96.817260059909927
30
0
11
96.871800063992239
21
-100.6247600599
31
0
0
LINE
5
14B
100
AcDbEntity
8
CUTOUTS
100
AcDbLine
10
96.871800063992239
20
-100.6247600599
30
0
11
92.475277764112761
21
-100.6247600599
31
0
0
LINE
5
14C
100
AcDbEntity
8
CUTOUTS
100
AcDbLine
10
92.475277764112761
20
-100.6247600599
30
0
11
90.277016614173704
21
-96.817260059909927
31
0
0
LINE
5
14D
100
AcDbEntity
8
CUTOUTS
100
AcDbLine
10
90.277016614173704
20
-96.817260059909927
30
0
11
92.475277764112832
21
-93.009760059910008
31
0
0
LINE
5
14E
100
AcDbEntity
8
CUTOUTS
100
AcDbLine
10
41.157514349706162
20
-74.259760059910008
30
0
11
43.355775499645333
21
-78.067260059909998
31
0
0
LINE
5
14F
100
AcDbEntity
8
CUTOUTS
100
AcDbLine
10
43.355775499645333
20
-78.067260059909998
30
0
11
41.157514349706162
21
-81.874760059910002
31
0
0
LINE
5
150
100
AcDbEntity
8
CUTOUTS
100
AcDbLine
10
41.157514349706162
20
-81.874760059910002
30
0
11
36.760992049826847
21
-81.874760059910002
31
0
0
LINE
5
151
100
AcDbEntity
8
CUTOUTS
100
AcDbLine
10
36.760992049826847
20
-81.874760059910002
30
0
11
34.562730899887669
21
-78.067260059909984
31
0
0
LINE
5
152
100
AcDbEntity
8
CUTOUTS
100
AcDbLine
10
34.562730899887669
20
-78.067260059909984
30
0
11
36.760992049826839
21
-74.259760059910008
31
0
0
LINE
5
153
100
AcDbEntity
8
CUTOUTS
100
AcDbLine
10
36.760992049826839
20
-74.259760059910008
30
0
11
41.157514349706162
21
-74.259760059910008
31
0
0
LINE
5
154
100
AcDbEntity
8
CUTOUTS
100
AcDbLine
10
59.728942921135157
20
-74.259760059910008
30
0
11
61.927204071074335
21
-78.067260059909998
31
0
0
LINE
5
155
100
AcDbEntity
8
CUTOUTS
100
AcDbLine
10
61.927204071074335
20
-78.067260059909998
30
0
11
59.728942921135157
21
-81.874760059910002
31
0
0
LINE
5
156
100
AcDbEntity
8
CUTOUTS
100
AcDbLine
10
59.728942921135157
20
-81.874760059910002
30
0
11
55.332420621255849
21
-81.874760059910002
31
0
0
LINE
5
157
100
AcDbEntity
8
CUTOUTS
100
AcDbLine
10
55.332420621255849
20
-81.874760059910002
30
0
11
53.134159471316671
21
-78.067260059909998
31
0
0
LINE
5
158
100
AcDbEntity
8
CUTOUTS
100
AcDbLine
10
53.134159471316671
20
-78.067260059909998
30
0
11
55.332420621255849
21
-74.259760059910008
31
0
0
LINE
5
159
100
AcDbEntity
8
CUTOUTS
100
AcDbLine
10
55.332420621255849
20
-74.259760059910008
30
0
11
59.728942921135157
21
-74.259760059910008
31
0
0
LINE
5
15A
100
AcDbEntity
8
CUTOUTS
100
AcDbLine
10
36.760992049826839
20
-63.124760059910002
30
0
11
34.562730899887669
21
-59.317260059909998
31
0
0
LINE
5
15B
100
AcDbEntity
8
CUTOUTS
100
AcDbLine
10
34.562730899887669
20
-59.317260059909998
30
0
11
36.760992049826839
21
-55.509760059910008
31
0
0
LINE
5
15C
100
AcDbEntity
8
CUTOUTS
100
AcDbLine
10
36.760992049826839
20
-55.509760059910008
30
0
11
41.157514349706162
21
-55.509760059910008
31
0
0
LINE
5
15D
100
AcDbEntity
8
CUTOUTS
100
AcDbLine
10
41.157514349706162
20
-55.509760059910008
30
0
11
43.355775499645333
21
-59.317260059909998
31
0
0
LINE
5
15E
100
AcDbEntity
8
CUTOUTS
100
AcDbLine
10
43.355775499645333
20
-59.317260059909998
30
0
11
41.157514349706162
21
-63.124760059910002
31
0
0
LINE
5
15F
100
AcDbEntity
8
CUTOUTS
100
AcDbLine
10
41.157514349706162
20
-63.124760059910002
30
0
11
36.760992049826839
21
-63.124760059910002
31
0
0
LINE
5
160
100
AcDbEntity
8
CUTOUTS
100
AcDbLine
10
55.332420621255849
20
-55.509760059910008
30
0
11
59.728942921135157
21
-55.509760059910008
31
0
0
LINE
5
161
100
AcDbEntity
8
CUTOUTS
100
AcDbLine
10
59.728942921135157
20
-55.509760059910008
30
0
11
61.927204071074335
21
-59.317260059909998
31
0
0
LINE
5
162
100
AcDbEntity
8
CUTOUTS
100
AcDbLine
10
61.927204071074335
20
-59.317260059909998
30
0
11
59.728942921135157
21
-63.124760059910002
31
0
0
LINE
5
163
100
AcDbEntity
8
CUTOUTS
100
AcDbLine
10
59.728942921135157
20
-63.124760059910002
30
0
11
55.332420621255849
21
-63.124760059910002
31
0
0
LINE
5
164
100
AcDbEntity
8
CUTOUTS
100
AcDbLine
10
55.332420621255849
20
-63.124760059910002
30
0
11
53.134159471316671
21
-59.317260059909998
31
0
0
LINE
5
165
100
AcDbEntity
8
CUTOUTS
100
AcDbLine
10
53.134159471316671
20
-59.317260059909998
30
0
11
55.332420621255849
21
-55.509760059910008
31
0
0
LINE
5
166
100
AcDbEntity
8
CUTOUTS
100
AcDbLine
10
78.300371492563187
20
-74.259760059910008
30
0
11
80.498632642503338
21
-78.067260059909998
31
0
0
LINE
5
167
100
AcDbEntity
8
CUTOUTS
100
AcDbLine
10
80.498632642503338
20
-78.067260059909998
30
0
11
78.300371492563187
21
-81.874760059910002
31
0
0
LINE
5
168
100
AcDbEntity
8
CUTOUTS
100
AcDbLine
10
78.300371492563187
20
-81.874760059910002
30
0
11
73.903849192684831
21
-81.874760059910002
31
0
0
LINE
5
169
100
AcDbEntity
8
CUTOUTS
100
AcDbLine
10
73.903849192684831
20
-81.874760059910002
30
0
11
71.705588042744679
21
-78.067260059909984
31
0
0
LINE
5
16A
100
AcDbEntity
8
CUTOUTS
100
AcDbLine
10
71.705588042744679
20
-78.067260059909984
30
0
11
73.903849192684817
21
-74.259760059910008
31
0
0
LINE
5
16B
100
AcDbEntity
8
CUTOUTS
100
AcDbLine
10
73.903849192684817
20
-74.259760059910008
30
0
11
78.300371492563187
21
-74.259760059910008
31
0
0
LINE
5
16C
100
AcDbEntity
8
CUTOUTS
100
AcDbLine
10
96.871800063992168
20
-74.259760059910008
30
0
11
99.070061213931353
21
-78.067260059909998
31
0
0
LINE
5
16D
100
AcDbEntity
8
CUTOUTS
100
AcDbLine
10
99.070061213931353
20
-78.067260059909998
30
0
11
96.871800063992168
21
-81.874760059910002
31
0
0
LINE
5
16E
100
AcDbEntity
8
CUTOUTS
100
AcDbLine
10
96.871800063992168
20
-81.874760059910002
30
0
11
92.475277764112832
21
-81.874760059910002
31
0
0
LINE
5
16F
100
AcDbEntity
8
CUTOUTS
100
AcDbLine
10
92.475277764112832
20
-81.874760059910002
30
0
11
90.277016614173675
21
-78.067260059909984
31
0
0
LINE
5
170
100
AcDbEntity
8
CUTOUTS
100
AcDbLine
10
90.277016614173675
20
-78.067260059909984
30
0
11
92.475277764112832
21
-74.259760059910008
31
0
0
LINE
5
171
100
AcDbEntity
8
CUTOUTS
100
AcDbLine
10
92.475277764112832
20
-74.259760059910008
30
0
11
96.871800063992168
21
-74.259760059910008
31
0
0
LINE
5
172
100
AcDbEntity
8
CUTOUTS
100
AcDbLine
10
78.300371492563187
20
-55.509760059910008
30
0
11
80.498632642503338
21
-59.317260059909998
31
0
0
LINE
5
173
100
AcDbEntity
8
CUTOUTS
100
AcDbLine
10
80.498632642503338
20
-59.317260059909998
30
0
11
78.300371492563187
21
-63.124760059909988
31
0
0
LINE
5
174
100
AcDbEntity
8
CUTOUTS
100
AcDbLine
10
78.300371492563187
20
-63.124760059909988
30
0
11
73.903849192684817
21
-63.124760059910002
31
0
0
LINE
5
175
100
AcDbEntity
8
CUTOUTS
100
AcDbLine
10
73.903849192684817
20
-63.124760059910002
30
0
11
71.705588042744679
21
-59.317260059909998
31
0
0
LINE
5
176
100
AcDbEntity
8
CUTOUTS
100
AcDbLine
10
71.705588042744679
20
-59.317260059909998
30
0
11
73.903849192684831
21
-55.509760059910008
31
0
0
LINE
5
177
100
AcDbEntity
8
CUTOUTS
100
AcDbLine
10
73.903849192684831
20
-55.509760059910008
30
0
11
78.300371492563187
21
-55.509760059910008
31
0
0
LINE
5
178
100
AcDbEntity
8
CUTOUTS
100
AcDbLine
10
92.475277764112832
20
-55.509760059910022
30
0
11
96.871800063992168
21
-55.509760059910008
31
0
0
LINE
5
179
100
AcDbEntity
8
CUTOUTS
100
AcDbLine
10
96.871800063992168
20
-55.509760059910008
30
0
11
99.070061213931353
21
-59.317260059909998
31
0
0
LINE
5
17A
100
AcDbEntity
8
CUTOUTS
100
AcDbLine
10
99.070061213931353
20
-59.317260059909998
30
0
11
96.871800063992168
21
-63.124760059910002
31
0
0
LINE
5
17B
100
AcDbEntity
8
CUTOUTS
100
AcDbLine
10
96.871800063992168
20
-63.124760059910002
30
0
11
92.475277764112832
21
-63.124760059910002
31
0
0
LINE
5
17C
100
AcDbEntity
8
CUTOUTS
100
AcDbLine
10
92.475277764112832
20
-63.124760059910002
30
0
11
90.277016614173661
21
-59.317260059909998
31
0
0
LINE
5
17D
100
AcDbEntity
8
CUTOUTS
100
AcDbLine
10
90.277016614173661
20
-59.317260059909998
30
0
11
92.475277764112832
21
-55.509760059910022
31
0
0
LINE
5
17E
100
AcDbEntity
8
CUTOUTS
100
AcDbLine
10
-18.953293664456119
20
-36.759760059910008
30
0
11
-14.556771364573883
21
-36.759760059910008
31
0
0
LINE
5
17F
100
AcDbEntity
8
CUTOUTS
100
AcDbLine
10
-14.556771364573883
20
-36.759760059910008
30
0
11
-12.358510214637624
21
-40.567260059909998
31
0
0
LINE
5
180
100
AcDbEntity
8
CUTOUTS
100
AcDbLine
10
-12.358510214637624
20
-40.567260059909998
30
0
11
-14.556771364573883
21
-44.374760059910002
31
0
0
LINE
5
181
100
AcDbEntity
8
CUTOUTS
100
AcDbLine
10
-14.556771364573883
20
-44.374760059910002
30
0
11
-18.953293664456115
21
-44.374760059910002
31
0
0
LINE
5
182
100
AcDbEntity
8
CUTOUTS
100
AcDbLine
10
-18.953293664456115
20
-44.374760059910002
30
0
11
-21.151554814392377
21
-40.567260059909998
31
0
0
LINE
5
183
100
AcDbEntity
8
CUTOUTS
100
AcDbLine
10
-21.151554814392377
20
-40.567260059909998
30
0
11
-18.953293664456119
21
-36.759760059910008
31
0
0
LINE
5
184
100
AcDbEntity
8
CUTOUTS
100
AcDbLine
10
4.0146572068491597
20
-36.759760059910008
30
0
11
6.2129183567883342
21
-40.567260059909998
31
0
0
LINE
5
185
100
AcDbEntity
8
CUTOUTS
100
AcDbLine
10
6.2129183567883342
20
-40.567260059909998
30
0
11
4.0146572068491606
21
-44.374760059910002
31
0
0
LINE
5
186
100
AcDbEntity
8
CUTOUTS
100
AcDbLine
10
4.0146572068491606
20
-44.374760059910002
30
0
11
-0.38186509303016147
21
-44.374760059910002
31
0
0
LINE
5
187
100
AcDbEntity
8
CUTOUTS
100
AcDbLine
10
-0.38186509303016158
20
-44.374760059910002
30
0
11
-2.5801262429693352
21
-40.567260059909998
31
0
0
LINE
5
188
100
AcDbEntity
8
CUTOUTS
100
AcDbLine
10
-2.5801262429693352
20
-40.567260059909998
30
0
11
-0.38186509303016147
21
-36.759760059910008
31
0
0
LINE
5
189
100
AcDbEntity
8
CUTOUTS
100
AcDbLine
10
-0.38186509303016147
20
-36.759760059910008
30
0
11
4.0146572068491597
21
-36.759760059910008
31
0
0
LINE
5
18A
100
AcDbEntity
8
CUTOUTS
100
AcDbLine
10
22.586085778278161
20
-44.374760059910002
30
0
11
18.189563478398838
21
-44.374760059910002
31
0
0
LINE
5
18B
100
AcDbEntity
8
CUTOUTS
100
AcDbLine
10
18.189563478398838
20
-44.374760059910002
30
0
11
15.991302328459668
21
-40.567260059909998
31
0
0
LINE
5
18C
100
AcDbEntity
8
CUTOUTS
100
AcDbLine
10
15.991302328459668
20
-40.567260059909998
30
0
11
18.189563478398838
21
-36.759760059910008
31
0
0
LINE
5
18D
100
AcDbEntity
8
CUTOUTS
100
AcDbLine
10
18.189563478398838
20
-36.759760059910008
30
0
11
22.586085778278161
21
-36.759760059910008
31
0
0
LINE
5
18E
100
AcDbEntity
8
CUTOUTS
100
AcDbLine
10
22.586085778278161
20
-36.759760059910008
30
0
11
24.784346928217339
21
-40.567260059909998
31
0
0
LINE
5
18F
100
AcDbEntity
8
CUTOUTS
100
AcDbLine
10
24.784346928217339
20
-40.567260059909998
30
0
11
22.586085778278161
21
-44.374760059910002
31
0
0
LINE
5
190
100
AcDbEntity
8
CUTOUTS
100
AcDbLine
10
-14.556771364573882
20
-25.624760059910002
30
0
11
-18.953293664456119
21
-25.624760059910002
31
0
0
LINE
5
191
100
AcDbEntity
8
CUTOUTS
100
AcDbLine
10
-18.953293664456119
20
-25.624760059910002
30
0
11
-21.15155481439238
21
-21.817260059910005
31
0
0
LINE
5
192
100
AcDbEntity
8
CUTOUTS
100
AcDbLine
10
-21.15155481439238
20
-21.817260059910005
30
0
11
-18.953293664456119
21
-18.009760059910001
31
0
0
LINE
5
193
100
AcDbEntity
8
CUTOUTS
100
AcDbLine
10
-18.953293664456119
20
-18.009760059910001
30
0
11
-14.556771364573882
21
-18.009760059910001
31
0
0
LINE
5
194
100
AcDbEntity
8
CUTOUTS
100
AcDbLine
10
-14.556771364573882
20
-18.009760059910001
30
0
11
-12.358510214637619
21
-21.817260059910005
31
0
0
LINE
5
195
100
AcDbEntity
8
CUTOUTS
100
AcDbLine
10
-12.358510214637619
20
-21.817260059910005
30
0
11
-14.556771364573882
21
-25.624760059910002
31
0
0
LINE
5
196
100
AcDbEntity
8
CUTOUTS
100
AcDbLine
10
4.0146572068491624
20
-18.009760059910001
30
0
11
6.2129183567883395
21
-21.817260059910005
31
0
0
LINE
5
197
100
AcDbEntity
8
CUTOUTS
100
AcDbLine
10
6.2129183567883395
20
-21.817260059910005
30
0
11
4.0146572068491624
21
-25.624760059910002
31
0
0
LINE
5
198
100
AcDbEntity
8
CUTOUTS
100
AcDbLine
10
4.0146572068491624
20
-25.624760059910002
30
0
11
-0.38186509303016314
21
-25.624760059910002
31
0
0
LINE
5
199
100
AcDbEntity
8
CUTOUTS
100
AcDbLine
10
-0.38186509303016292
20
-25.624760059910002
30
0
11
-2.5801262429693401
21
-21.817260059910005
31
0
0
LINE
5
19A
100
AcDbEntity
8
CUTOUTS
100
AcDbLine
10
-2.5801262429693401
20
-21.817260059910005
30
0
11
-0.38186509303016286
21
-18.009760059910001
31
0
0
LINE
5
19B
100
AcDbEntity
8
CUTOUTS
100
AcDbLine
10
-0.38186509303016286
20
-18.009760059910001
30
0
11
4.0146572068491624
21
-18.009760059910001
31
0
0
LINE
5
19C
100
AcDbEntity
8
CUTOUTS
100
AcDbLine
10
22.586085778278164
20
-18.009760059910001
30
0
11
24.784346928217342
21
-21.817260059910005
31
0
0
LINE
5
19D
100
AcDbEntity
8
CUTOUTS
100
AcDbLine
10
24.784346928217342
20
-21.817260059910005
30
0
11
22.586085778278164
21
-25.624760059910002
31
0
0
LINE
5
19E
100
AcDbEntity
8
CUTOUTS
100
AcDbLine
10
22.586085778278164
20
-25.624760059910002
30
0
11
18.189563478398838
21
-25.624760059910002
31
0
0
LINE
5
19F
100
AcDbEntity
8
CUTOUTS
100
AcDbLine
10
18.189563478398838
20
-25.624760059910002
30
0
11
15.991302328459664
21
-21.817260059910005
31
0
0
LINE
5
1A0
100
AcDbEntity
8
CUTOUTS
100
AcDbLine
10
15.991302328459664
20
-21.817260059910005
30
0
11
18.189563478398838
21
-18.009760059910001
31
0
0
LINE
5
1A1
100
AcDbEntity
8
CUTOUTS
100
AcDbLine
10
18.189563478398838
20
-18.009760059910001
30
0
11
22.586085778278164
21
-18.009760059910001
31
0
0
LINE
5
1A2
100
AcDbEntity
8
CUTOUTS
100
AcDbLine
10
36.760992049826839
20
-36.759760059910008
30
0
11
41.157514349706162
21
-36.759760059910008
31
0
0
LINE
5
1A3
100
AcDbEntity
8
CUTOUTS
100
AcDbLine
10
41.157514349706162
20
-36.759760059910008
30
0
11
43.355775499645333
21
-40.567260059909998
31
0
0
LINE
5
1A4
100
AcDbEntity
8
CUTOUTS
100
AcDbLine
10
43.355775499645333
20
-40.567260059909998
30
0
11
41.157514349706162
21
-44.374760059910002
31
0
0
LINE
5
1A5
100
AcDbEntity
8
CUTOUTS
100
AcDbLine
10
41.157514349706162
20
-44.374760059910002
30
0
11
36.760992049826839
21
-44.374760059910002
31
0
0
LINE
5
1A6
100
AcDbEntity
8
CUTOUTS
100
AcDbLine
10
36.760992049826839
20
-44.374760059910002
30
0
11
34.562730899887669
21
-40.567260059909998
31
0
0
LINE
5
1A7
100
AcDbEntity
8
CUTOUTS
100
AcDbLine
10
34.562730899887669
20
-40.567260059909998
30
0
11
36.760992049826839
21
-36.759760059910008
31
0
0
LINE
5
1A8
100
AcDbEntity
8
CUTOUTS
100
AcDbLine
10
55.332420621255849
20
-36.759760059910008
30
0
11
59.728942921135157
21
-36.759760059910008
31
0
0
LINE
5
1A9
100
AcDbEntity
8
CUTOUTS
100
AcDbLine
10
59.728942921135157
20
-36.759760059910008
30
0
11
61.927204071074335
21
-40.567260059909998
31
0
0
LINE
5
1AA
100
AcDbEntity
8
CUTOUTS
100
AcDbLine
10
61.927204071074335
20
-40.567260059909998
30
0
11
59.728942921135157
21
-44.374760059910002
31
0
0
LINE
5
1AB
100
AcDbEntity
8
CUTOUTS
100
AcDbLine
10
59.728942921135157
20
-44.374760059910002
30
0
11
55.332420621255849
21
-44.374760059910002
31
0
0
LINE
5
1AC
100
AcDbEntity
8
CUTOUTS
100
AcDbLine
10
55.332420621255849
20
-44.374760059910002
30
0
11
53.134159471316671
21
-40.567260059909998
31
0
0
LINE
5
1AD
100
AcDbEntity
8
CUTOUTS
100
AcDbLine
10
53.134159471316671
20
-40.567260059909998
30
0
11
55.332420621255849
21
-36.759760059910008
31
0
0
LINE
5
1AE
100
AcDbEntity
8
CUTOUTS
100
AcDbLine
10
78.300371492563187
20
-36.759760059910008
30
0
11
80.498632642503324
21
-40.567260059909998
31
0
0
LINE
5
1AF
100
AcDbEntity
8
CUTOUTS
100
AcDbLine
10
80.498632642503324
20
-40.567260059909998
30
0
11
78.300371492563173
21
-44.374760059910002
31
0
0
LINE
5
1B0
100
AcDbEntity
8
CUTOUTS
100
AcDbLine
10
78.300371492563173
20
-44.374760059910002
30
0
11
73.903849192684817
21
-44.374760059910002
31
0
0
LINE
5
1B1
100
AcDbEntity
8
CUTOUTS
100
AcDbLine
10
73.903849192684817
20
-44.374760059910002
30
0
11
71.705588042744679
21
-40.567260059909998
31
0
0
LINE
5
1B2
100
AcDbEntity
8
CUTOUTS
100
AcDbLine
10
71.705588042744679
20
-40.567260059909998
30
0
11
73.903849192684831
21
-36.759760059910008
31
0
0
LINE
5
1B3
100
AcDbEntity
8
CUTOUTS
100
AcDbLine
10
73.903849192684831
20
-36.759760059910008
30
0
11
78.300371492563187
21
-36.759760059910008
31
0
0
LINE
5
1B4
100
AcDbEntity
8
CUTOUTS
100
AcDbLine
10
90.277016614173661
20
-40.567260059909998
30
0
11
92.475277764112832
21
-36.759760059910022
31
0
0
LINE
5
1B5
100
AcDbEntity
8
CUTOUTS
100
AcDbLine
10
92.475277764112832
20
-36.759760059910022
30
0
11
96.871800063992168
21
-36.759760059910008
31
0
0
LINE
5
1B6
100
AcDbEntity
8
CUTOUTS
100
AcDbLine
10
96.871800063992168
20
-36.759760059910008
30
0
11
99.070061213931353
21
-40.567260059910012
31
0
0
LINE
5
1B7
100
AcDbEntity
8
CUTOUTS
100
AcDbLine
10
99.070061213931353
20
-40.567260059910012
30
0
11
96.871800063992168
21
-44.374760059910002
31
0
0
LINE
5
1B8
100
AcDbEntity
8
CUTOUTS
100
AcDbLine
10
96.871800063992168
20
-44.374760059910002
30
0
11
92.475277764112832
21
-44.374760059910002
31
0
0
LINE
5
1B9
100
AcDbEntity
8
CUTOUTS
100
AcDbLine
10
92.475277764112832
20
-44.374760059910002
30
0
11
90.277016614173661
21
-40.567260059909998
31
0
0
LINE
5
1BA
100
AcDbEntity
8
CUTOUTS
100
AcDbLine
10
41.157514349706176
20
-18.009760059910001
30
0
11
43.35577549964534
21
-21.817260059909998
31
0
0
LINE
5
1BB
100
AcDbEntity
8
CUTOUTS
100
AcDbLine
10
43.35577549964534
20
-21.817260059909998
30
0
11
41.157514349706176
21
-25.62476005991001
31
0
0
LINE
5
1BC
100
AcDbEntity
8
CUTOUTS
100
AcDbLine
10
41.157514349706176
20
-25.62476005991001
30
0
11
36.760992049826832
21
-25.624760059910002
31
0
0
LINE
5
1BD
100
AcDbEntity
8
CUTOUTS
100
AcDbLine
10
36.760992049826832
20
-25.624760059910002
30
0
11
34.562730899887661
21
-21.817260059910005
31
0
0
LINE
5
1BE
100
AcDbEntity
8
CUTOUTS
100
AcDbLine
10
34.562730899887661
20
-21.817260059910005
30
0
11
36.760992049826839
21
-18.009760059910001
31
0
0
LINE
5
1BF
100
AcDbEntity
8
CUTOUTS
100
AcDbLine
10
36.760992049826839
20
-18.009760059910001
30
0
11
41.157514349706176
21
-18.009760059910001
31
0
0
LINE
5
1C0
100
AcDbEntity
8
CUTOUTS
100
AcDbLine
10
59.728942921135165
20
-18.009760059910001
30
0
11
61.927204071074343
21
-21.817260059910005
31
0
0
LINE
5
1C1
100
AcDbEntity
8
CUTOUTS
100
AcDbLine
10
61.927204071074343
20
-21.817260059910005
30
0
11
59.728942921135165
21
-25.624760059910002
31
0
0
LINE
5
1C2
100
AcDbEntity
8
CUTOUTS
100
AcDbLine
10
59.728942921135165
20
-25.624760059910002
30
0
11
55.332420621255842
21
-25.624760059910002
31
0
0
LINE
5
1C3
100
AcDbEntity
8
CUTOUTS
100
AcDbLine
10
55.332420621255842
20
-25.624760059910002
30
0
11
53.134159471316664
21
-21.817260059910005
31
0
0
LINE
5
1C4
100
AcDbEntity
8
CUTOUTS
100
AcDbLine
10
53.134159471316664
20
-21.817260059910005
30
0
11
55.332420621255842
21
-18.009760059910001
31
0
0
LINE
5
1C5
100
AcDbEntity
8
CUTOUTS
100
AcDbLine
10
55.332420621255842
20
-18.009760059910001
30
0
11
59.728942921135165
21
-18.009760059910001
31
0
0
LINE
5
1C6
100
AcDbEntity
8
CUTOUTS
100
AcDbLine
10
78.300371492563187
20
-25.624760059909999
30
0
11
73.903849192684831
21
-25.624760059910002
31
0
0
LINE
5
1C7
100
AcDbEntity
8
CUTOUTS
100
AcDbLine
10
73.903849192684831
20
-25.624760059910002
30
0
11
71.705588042744679
21
-21.817260059910005
31
0
0
LINE
5
1C8
100
AcDbEntity
8
CUTOUTS
100
AcDbLine
10
71.705588042744679
20
-21.817260059910005
30
0
11
73.903849192684831
21
-18.009760059910001
31
0
0
LINE
5
1C9
100
AcDbEntity
8
CUTOUTS
100
AcDbLine
10
73.903849192684831
20
-18.009760059910001
30
0
11
78.300371492563187
21
-18.009760059910001
31
0
0
LINE
5
1CA
100
AcDbEntity
8
CUTOUTS
100
AcDbLine
10
78.300371492563187
20
-18.009760059910001
30
0
11
80.498632642503338
21
-21.817260059910012
31
0
0
LINE
5
1CB
100
AcDbEntity
8
CUTOUTS
100
AcDbLine
10
80.498632642503338
20
-21.817260059910012
30
0
11
78.300371492563187
21
-25.624760059909999
31
0
0
LINE
5
1CC
100
AcDbEntity
8
CUTOUTS
100
AcDbLine
10
99.070061213931353
20
-21.817260059910005
30
0
11
96.871800063992168
21
-25.624760059910002
31
0
0
LINE
5
1CD
100
AcDbEntity
8
CUTOUTS
100
AcDbLine
10
96.871800063992168
20
-25.624760059910002
30
0
11
92.475277764112832
21
-25.624760059910002
31
0
0
LINE
5
1CE
100
AcDbEntity
8
CUTOUTS
100
AcDbLine
10
92.475277764112832
20
-25.624760059910002
30
0
11
90.277016614173661
21
-21.817260059910005
31
0
0
LINE
5
1CF
100
AcDbEntity
8
CUTOUTS
100
AcDbLine
10
90.277016614173661
20
-21.817260059910005
30
0
11
92.475277764112832
21
-18.009760059910001
31
0
0
LINE
5
1D0
100
AcDbEntity
8
CUTOUTS
100
AcDbLine
10
92.475277764112832
20
-18.009760059910001
30
0
11
96.871800063992168
21
-18.009760059910001
31
0
0
LINE
5
1D1
100
AcDbEntity
8
CUTOUTS
100
AcDbLine
10
96.871800063992168
20
-18.009760059910001
30
0
11
99.070061213931353
21
-21.817260059910005
31
0
0
LINE
5
1D2
100
AcDbEntity
8
PERIMETER
100
AcDbLine
10
105.83104137503003
20
-115.0097600599
30
0
11
105.83104137503001
21
-14.784760059910003
31
0
0
LINE
5
1D3
100
AcDbEntity
8
PERIMETER
100
AcDbLine
10
105.83104137503001
20
-14.784760059910003
30
0
11
-24.39395862496001
21
-14.784760059910001
31
0
0
LINE
5
1D4
100
AcDbEntity
8
PERIMETER
100
AcDbLine
10
-24.393958624960007
20
-14.784760059910001
30
0
11
-24.39395862496
21
-115.0097600599
31
0
0
LINE
5
1D5
100
AcDbEntity
8
PERIMETER
100
AcDbLine
10
-24.39395862496
20
-115.0097600599
30
0
11
105.83104137503003
21
-115.0097600599
31
0
0
ENDSEC
0
SECTION
2
OBJECTS
0
DICTIONARY
5
C
100
AcDbDictionary
3
ACAD_GROUP
350
D
3
ACAD_MLINESTYLE
350
17
0
DICTIONARY
5
D
100
AcDbDictionary
0
DICTIONARY
5
1A
330
C
100
AcDbDictionary
0
DICTIONARY
5
17
100
AcDbDictionary
0
ENDSEC
0
EOF
