0
SECTION
2
HEADER
9
$INSUNITS
70
4
9
$ACADVER
1
AC1014
9
$HANDSEED
5
FFFF
0
ENDSEC
0
SECTION
2
TABLES
0
TABLE
2
VPORT
5
8
100
AcDbSymbolTable
0
ENDTAB
0
TABLE
2
LTYPE
5
5
100
AcDbSymbolTable
70
2
0
LTYPE
5
14
100
AcDbSymbolTableRecord
100
AcDbLinetypeTableRecord
2
BYBLOCK
70
0
0
LTYPE
5
15
100
AcDbSymbolTableRecord
100
AcDbLinetypeTableRecord
2
BYLAYER
70
0
0
ENDTAB
0
TABLE
2
LAYER
5
2
100
AcDbSymbolTable
70
3
0
LAYER
5
50
100
AcDbSymbolTableRecord
100
AcDbLayerTableRecord
2
0
70
0
6
CONTINUOUS
0
LAYER
5
51
100
AcDbSymbolTableRecord
100
AcDbLayerTableRecord
2
CUTOUTS
70
0
62
1
6
CONTINUOUS
0
LAYER
5
52
100
AcDbSymbolTableRecord
100
AcDbLayerTableRecord
2
PERIMETER
70
0
62
5
6
CONTINUOUS
0
ENDTAB
0
TABLE
2
STYLE
5
3
100
AcDbSymbolTable
70
1
0
STYLE
5
11
100
AcDbSymbolTableRecord
100
AcDbTextStyleTableRecord
2
STANDARD
70
0
0
ENDTAB
0
TABLE
2
VIEW
5
6
100
AcDbSymbolTable
0
ENDTAB
0
TABLE
2
UCS
5
7
100
AcDbSymbolTable
0
ENDTAB
0
TABLE
2
APPID
5
9
100
AcDbSymbolTable
70
1
0
APPID
5
12
100
AcDbSymbolTableRecord
100
AcDbRegAppTableRecord
2
ACAD
70
0
0
ENDTAB
0
TABLE
2
DIMSTYLE
5
A
100
AcDbSymbolTable
0
ENDTAB
0
TABLE
2
BLOCK_RECORD
5
1
100
AcDbSymbolTable
70
2
0
BLOCK_RECORD
5
1F
100
AcDbSymbolTableRecord
100
AcDbBlockTableRecord
2
*MODEL_SPACE
0
BLOCK_RECORD
5
1B
100
AcDbSymbolTableRecord
100
AcDbBlockTableRecord
2
*PAPER_SPACE
0
ENDTAB
0
ENDSEC
0
SECTION
2
BLOCKS
0
BLOCK
5
20
100
AcDbEntity
100
AcDbBlockBegin
2
*MODEL_SPACE
0
ENDBLK
5
21
100
AcDbEntity
100
AcDbBlockEnd
0
BLOCK
5
1C
100
AcDbEntity
100
AcDbBlockBegin
2
*PAPER_SPACE
0
ENDBLK
5
1D
100
AcDbEntity
100
AcDbBlockEnd
0
ENDSEC
0
SECTION
2
ENTITIES
0
LINE
5
100
100
AcDbEntity
8
CUTOUTS
100
AcDbLine
10
-18.911435769935107
20
-93.00226005991
30
0
11
-14.413877172954891
21
-93.00226005991
31
0
0
LINE
5
101
100
AcDbEntity
8
CUTOUTS
100
AcDbLine
10
-14.413877172954891
20
-93.00226005991
30
0
11
-12.165097874459882
21
-96.897260059909925
31
0
0
LINE
5
102
100
AcDbEntity
8
CUTOUTS
100
AcDbLine
10
-12.165097874459882
20
-96.897260059909925
30
0
11
-14.413877172954821
21
-100.79226005990002
31
0
0
LINE
5
103
100
AcDbEntity
8
CUTOUTS
100
AcDbLine
10
-14.413877172954821
20
-100.79226005990002
30
0
11
-18.911435769935181
21
-100.79226005990002
31
0
0
LINE
5
104
100
AcDbEntity
8
CUTOUTS
100
AcDbLine
10
-18.911435769935181
20
-100.79226005990002
30
0
11
-21.160215068430119
21
-96.897260059909925
31
0
0
LINE
5
105
100
AcDbEntity
8
CUTOUTS
100
AcDbLine
10
-21.160215068430119
20
-96.897260059909925
30
0
11
-18.911435769935107
21
-93.00226005991
31
0
0
LINE
5
106
100
AcDbEntity
8
CUTOUTS
100
AcDbLine
10
4.1575513984731698
20
-100.79226005990002
30
0
11
-0.34000719851415673
21
-100.79226005990002
31
0
0
LINE
5
107
100
AcDbEntity
8
CUTOUTS
100
AcDbLine
10
-0.34000719851415651
20
-100.79226005990002
30
0
11
-2.5887864970071379
21
-96.897260059909939
31
0
0
LINE
5
108
100
AcDbEntity
8
CUTOUTS
100
AcDbLine
10
-2.5887864970071379
20
-96.897260059909939
30
0
11
-0.3400071985140754
21
-93.00226005991
31
0
0
LINE
5
109
100
AcDbEntity
8
CUTOUTS
100
AcDbLine
10
-0.3400071985140754
20
-93.00226005991
30
0
11
4.1575513984730978
21
-93.00226005991
31
0
0
LINE
5
10A
100
AcDbEntity
8
CUTOUTS
100
AcDbLine
10
4.1575513984730978
20
-93.00226005991
30
0
11
6.4063306969671316
21
-96.897260059909925
31
0
0
LINE
5
10B
100
AcDbEntity
8
CUTOUTS
100
AcDbLine
10
6.4063306969671316
20
-96.897260059909925
30
0
11
4.1575513984731698
21
-100.79226005990002
31
0
0
LINE
5
10C
100
AcDbEntity
8
CUTOUTS
100
AcDbLine
10
22.728979969902102
20
-93.00226005991
30
0
11
24.977759268396134
21
-96.897260059909925
31
0
0
LINE
5
10D
100
AcDbEntity
8
CUTOUTS
100
AcDbLine
10
24.977759268396134
20
-96.897260059909925
30
0
11
22.728979969902174
21
-100.79226005990002
31
0
0
LINE
5
10E
100
AcDbEntity
8
CUTOUTS
100
AcDbLine
10
22.728979969902174
20
-100.79226005990002
30
0
11
18.231421372914845
21
-100.79226005990002
31
0
0
LINE
5
10F
100
AcDbEntity
8
CUTOUTS
100
AcDbLine
10
18.231421372914845
20
-100.79226005990002
30
0
11
15.982642074421864
21
-96.897260059909939
31
0
0
LINE
5
110
100
AcDbEntity
8
CUTOUTS
100
AcDbLine
10
15.982642074421864
20
-96.897260059909939
30
0
11
18.231421372914923
21
-93.00226005991
31
0
0
LINE
5
111
100
AcDbEntity
8
CUTOUTS
100
AcDbLine
10
18.231421372914923
20
-93.00226005991
30
0
11
22.728979969902102
21
-93.00226005991
31
0
0
LINE
5
112
100
AcDbEntity
8
CUTOUTS
100
AcDbLine
10
-12.165097874459846
20
-78.147260059909996
30
0
11
-14.413877172954894
21
-82.042260059910006
31
0
0
LINE
5
113
100
AcDbEntity
8
CUTOUTS
100
AcDbLine
10
-14.413877172954894
20
-82.042260059910006
30
0
11
-18.91143576993511
21
-82.042260059910006
31
0
0
LINE
5
114
100
AcDbEntity
8
CUTOUTS
100
AcDbLine
10
-18.91143576993511
20
-82.042260059910006
30
0
11
-21.160215068430155
21
-78.14726005991001
31
0
0
LINE
5
115
100
AcDbEntity
8
CUTOUTS
100
AcDbLine
10
-21.160215068430155
20
-78.14726005991001
30
0
11
-18.911435769935103
21
-74.25226005991
31
0
0
LINE
5
116
100
AcDbEntity
8
CUTOUTS
100
AcDbLine
10
-18.911435769935103
20
-74.25226005991
30
0
11
-14.413877172954894
21
-74.25226005991
31
0
0
LINE
5
117
100
AcDbEntity
8
CUTOUTS
100
AcDbLine
10
-14.413877172954894
20
-74.25226005991
30
0
11
-12.165097874459846
21
-78.147260059909996
31
0
0
LINE
5
118
100
AcDbEntity
8
CUTOUTS
100
AcDbLine
10
-0.3400071985140804
20
-74.25226005991
30
0
11
4.1575513984730943
21
-74.25226005991
31
0
0
LINE
5
119
100
AcDbEntity
8
CUTOUTS
100
AcDbLine
10
4.1575513984730943
20
-74.25226005991
30
0
11
6.4063306969671689
21
-78.147260059909996
31
0
0
LINE
5
11A
100
AcDbEntity
8
CUTOUTS
100
AcDbLine
10
6.4063306969671689
20
-78.147260059909996
30
0
11
4.1575513984730943
21
-82.042260059910006
31
0
0
LINE
5
11B
100
AcDbEntity
8
CUTOUTS
100
AcDbLine
10
4.1575513984730943
20
-82.042260059910006
30
0
11
-0.34000719851407513
21
-82.042260059910006
31
0
0
LINE
5
11C
100
AcDbEntity
8
CUTOUTS
100
AcDbLine
10
-0.34000719851407535
20
-82.042260059910006
30
0
11
-2.5887864970071801
21
-78.147260059909996
31
0
0
LINE
5
11D
100
AcDbEntity
8
CUTOUTS
100
AcDbLine
10
-2.5887864970071801
20
-78.147260059909996
30
0
11
-0.3400071985140804
21
-74.25226005991
31
0
0
LINE
5
11E
100
AcDbEntity
8
CUTOUTS
100
AcDbLine
10
-12.165097874459846
20
-59.39726005991001
30
0
11
-14.413877172954894
21
-63.292260059909999
31
0
0
LINE
5
11F
100
AcDbEntity
8
CUTOUTS
100
AcDbLine
10
-14.413877172954894
20
-63.292260059909999
30
0
11
-18.911435769935107
21
-63.292260059909999
31
0
0
LINE
5
120
100
AcDbEntity
8
CUTOUTS
100
AcDbLine
10
-18.911435769935107
20
-63.292260059909999
30
0
11
-21.160215068430151
21
-59.39726005991001
31
0
0
LINE
5
121
100
AcDbEntity
8
CUTOUTS
100
AcDbLine
10
-21.160215068430151
20
-59.39726005991001
30
0
11
-18.911435769935103
21
-55.502260059910007
31
0
0
LINE
5
122
100
AcDbEntity
8
CUTOUTS
100
AcDbLine
10
-18.911435769935103
20
-55.502260059910007
30
0
11
-14.413877172954894
21
-55.502260059910007
31
0
0
LINE
5
123
100
AcDbEntity
8
CUTOUTS
100
AcDbLine
10
-14.413877172954894
20
-55.502260059910007
30
0
11
-12.165097874459846
21
-59.39726005991001
31
0
0
LINE
5
124
100
AcDbEntity
8
CUTOUTS
100
AcDbLine
10
4.1575513984730943
20
-55.502260059910007
30
0
11
6.4063306969671672
21
-59.39726005991001
31
0
0
LINE
5
125
100
AcDbEntity
8
CUTOUTS
100
AcDbLine
10
6.4063306969671672
20
-59.39726005991001
30
0
11
4.1575513984730943
21
-63.292260059909999
31
0
0
LINE
5
126
100
AcDbEntity
8
CUTOUTS
100
AcDbLine
10
4.1575513984730943
20
-63.292260059909999
30
0
11
-0.34000719851408068
21
-63.292260059909999
31
0
0
LINE
5
127
100
AcDbEntity
8
CUTOUTS
100
AcDbLine
10
-0.34000719851408068
20
-63.292260059909999
30
0
11
-2.5887864970071801
21
-59.39726005991001
31
0
0
LINE
5
128
100
AcDbEntity
8
CUTOUTS
100
AcDbLine
10
-2.5887864970071801
20
-59.39726005991001
30
0
11
-0.3400071985140804
21
-55.502260059910007
31
0
0
LINE
5
129
100
AcDbEntity
8
CUTOUTS
100
AcDbLine
10
-0.3400071985140804
20
-55.502260059910007
30
0
11
4.1575513984730943
21
-55.502260059910007
31
0
0
LINE
5
12A
100
AcDbEntity
8
CUTOUTS
100
AcDbLine
10
18.231421372914923
20
-82.042260059910006
30
0
11
15.982642074421822
21
-78.147260059909996
31
0
0
LINE
5
12B
100
AcDbEntity
8
CUTOUTS
100
AcDbLine
10
15.982642074421822
20
-78.147260059909996
30
0
11
18.231421372914919
21
-74.25226005991
31
0
0
LINE
5
12C
100
AcDbEntity
8
CUTOUTS
100
AcDbLine
10
18.231421372914919
20
-74.25226005991
30
0
11
22.728979969902095
21
-74.25226005991
31
0
0
LINE
5
12D
100
AcDbEntity
8
CUTOUTS
100
AcDbLine
10
22.728979969902095
20
-74.25226005991
30
0
11
24.977759268396163
21
-78.147260059909996
31
0
0
LINE
5
12E
100
AcDbEntity
8
CUTOUTS
100
AcDbLine
10
24.977759268396163
20
-78.147260059909996
30
0
11
22.728979969902095
21
-82.042260059910006
31
0
0
LINE
5
12F
100
AcDbEntity
8
CUTOUTS
100
AcDbLine
10
22.728979969902095
20
-82.042260059910006
30
0
11
18.231421372914923
21
-82.042260059910006
31
0
0
LINE
5
130
100
AcDbEntity
8
CUTOUTS
100
AcDbLine
10
22.728979969902095
20
-55.502260059910007
30
0
11
24.977759268396163
21
-59.39726005991001
31
0
0
LINE
5
131
100
AcDbEntity
8
CUTOUTS
100
AcDbLine
10
24.977759268396163
20
-59.39726005991001
30
0
11
22.728979969902095
21
-63.292260059909999
31
0
0
LINE
5
132
100
AcDbEntity
8
CUTOUTS
100
AcDbLine
10
22.728979969902095
20
-63.292260059909999
30
0
11
18.231421372914919
21
-63.292260059909999
31
0
0
LINE
5
133
100
AcDbEntity
8
CUTOUTS
100
AcDbLine
10
18.231421372914919
20
-63.292260059909999
30
0
11
15.982642074421822
21
-59.39726005991001
31
0
0
LINE
5
134
100
AcDbEntity
8
CUTOUTS
100
AcDbLine
10
15.982642074421822
20
-59.39726005991001
30
0
11
18.231421372914919
21
-55.502260059910007
31
0
0
LINE
5
135
100
AcDbEntity
8
CUTOUTS
100
AcDbLine
10
18.231421372914919
20
-55.502260059910007
30
0
11
22.728979969902095
21
-55.502260059910007
31
0
0
LINE
5
136
100
AcDbEntity
8
CUTOUTS
100
AcDbLine
10
41.300408541331066
20
-93.00226005991
30
0
11
43.549187839824135
21
-96.897260059909939
31
0
0
LINE
5
137
100
AcDbEntity
8
CUTOUTS
100
AcDbLine
10
43.549187839824135
20
-96.897260059909939
30
0
11
41.300408541331151
21
-100.79226005990002
31
0
0
LINE
5
138
100
AcDbEntity
8
CUTOUTS
100
AcDbLine
10
41.300408541331151
20
-100.79226005990002
30
0
11
36.802849944343833
21
-100.79226005990002
31
0
0
LINE
5
139
100
AcDbEntity
8
CUTOUTS
100
AcDbLine
10
36.802849944343833
20
-100.79226005990002
30
0
11
34.554070645849869
21
-96.897260059909925
31
0
0
LINE
5
13A
100
AcDbEntity
8
CUTOUTS
100
AcDbLine
10
34.554070645849869
20
-96.897260059909925
30
0
11
36.802849944343905
21
-93.00226005991
31
0
0
LINE
5
13B
100
AcDbEntity
8
CUTOUTS
100
AcDbLine
10
36.802849944343905
20
-93.00226005991
30
0
11
41.300408541331066
21
-93.00226005991
31
0
0
LINE
5
13C
100
AcDbEntity
8
CUTOUTS
100
AcDbLine
10
59.87183711275911
20
-93.00226005991
30
0
11
62.120616411253138
21
-96.897260059909925
31
0
0
LINE
5
13D
100
AcDbEntity
8
CUTOUTS
100
AcDbLine
10
62.120616411253138
20
-96.897260059909925
30
0
11
59.871837112759181
21
-100.79226005990002
31
0
0
LINE
5
13E
100
AcDbEntity
8
CUTOUTS
100
AcDbLine
10
59.871837112759181
20
-100.79226005990002
30
0
11
55.374278515771849
21
-100.79226005990002
31
0
0
LINE
5
13F
100
AcDbEntity
8
CUTOUTS
100
AcDbLine
10
55.374278515771849
20
-100.79226005990002
30
0
11
53.125499217278865
21
-96.897260059909939
31
0
0
LINE
5
140
100
AcDbEntity
8
CUTOUTS
100
AcDbLine
10
53.125499217278865
20
-96.897260059909939
30
0
11
55.374278515771934
21
-93.00226005991
31
0
0
LINE
5
141
100
AcDbEntity
8
CUTOUTS
100
AcDbLine
10
55.374278515771934
20
-93.00226005991
30
0
11
59.87183711275911
21
-93.00226005991
31
0
0
LINE
5
142
100
AcDbEntity
8
CUTOUTS
100
AcDbLine
10
73.945707087200901
20
-93.00226005991
30
0
11
78.443265684188063
21
-93.00226005991
31
0
0
LINE
5
143
100
AcDbEntity
8
CUTOUTS
100
AcDbLine
10
78.443265684188063
20
-93.00226005991
30
0
11
80.692044982681139
21
-96.897260059909939
31
0
0
LINE
5
144
100
AcDbEntity
8
CUTOUTS
100
AcDbLine
10
80.692044982681139
20
-96.897260059909939
30
0
11
78.443265684188148
21
-100.79226005990002
31
0
0
LINE
5
145
100
AcDbEntity
8
CUTOUTS
100
AcDbLine
10
78.443265684188148
20
-100.79226005990002
30
0
11
73.94570708720083
21
-100.79226005990002
31
0
0
LINE
5
146
100
AcDbEntity
8
CUTOUTS
100
AcDbLine
10
73.94570708720083
20
-100.79226005990002
30
0
11
71.696927788706859
21
-96.897260059909925
31
0
0
LINE
5
147
100
AcDbEntity
8
CUTOUTS
100
AcDbLine
10
71.696927788706859
20
-96.897260059909925
30
0
11
73.945707087200901
21
-93.00226005991
31
0
0
LINE
5
148
100
AcDbEntity
8
CUTOUTS
100
AcDbLine
10
99.263473554110135
20
-96.897260059909925
30
0
11
97.014694255616178
21
-100.79226005990002
31
0
0
LINE
5
149
100
AcDbEntity
8
CUTOUTS
100
AcDbLine
10
97.014694255616178
20
-100.79226005990002
30
0
11
92.51713565862886
21
-100.79226005990002
31
0
0
LINE
5
14A
100
AcDbEntity
8
CUTOUTS
100
AcDbLine
10
92.51713565862886
20
-100.79226005990002
30
0
11
90.268356360135868
21
-96.897260059909925
31
0
0
LINE
5
14B
100
AcDbEntity
8
CUTOUTS
100
AcDbLine
10
90.268356360135868
20
-96.897260059909925
30
0
11
92.517135658628931
21
-93.00226005991
31
0
0
LINE
5
14C
100
AcDbEntity
8
CUTOUTS
100
AcDbLine
10
92.517135658628931
20
-93.00226005991
30
0
11
97.014694255616106
21
-93.00226005991
31
0
0
LINE
5
14D
100
AcDbEntity
8
CUTOUTS
100
AcDbLine
10
97.014694255616106
20
-93.00226005991
30
0
11
99.263473554110135
21
-96.897260059909925
31
0
0
LINE
5
14E
100
AcDbEntity
8
CUTOUTS
100
AcDbLine
10
41.300408541331073
20
-74.25226005991
30
0
11
43.549187839824171
21
-78.147260059909996
31
0
0
LINE
5
14F
100
AcDbEntity
8
CUTOUTS
100
AcDbLine
10
43.549187839824171
20
-78.147260059909996
30
0
11
41.300408541331073
21
-82.042260059910006
31
0
0
LINE
5
150
100
AcDbEntity
8
CUTOUTS
100
AcDbLine
10
41.300408541331073
20
-82.042260059910006
30
0
11
36.802849944343905
21
-82.042260059910006
31
0
0
LINE
5
151
100
AcDbEntity
8
CUTOUTS
100
AcDbLine
10
36.802849944343905
20
-82.042260059910006
30
0
11
34.554070645849833
21
-78.147260059909996
31
0
0
LINE
5
152
100
AcDbEntity
8
CUTOUTS
100
AcDbLine
10
34.554070645849833
20
-78.147260059909996
30
0
11
36.802849944343905
21
-74.25226005991
31
0
0
LINE
5
153
100
AcDbEntity
8
CUTOUTS
100
AcDbLine
10
36.802849944343905
20
-74.25226005991
30
0
11
41.300408541331073
21
-74.25226005991
31
0
0
LINE
5
154
100
AcDbEntity
8
CUTOUTS
100
AcDbLine
10
55.374278515771927
20
-74.25226005991
30
0
11
59.871837112759103
21
-74.25226005991
31
0
0
LINE
5
155
100
AcDbEntity
8
CUTOUTS
100
AcDbLine
10
59.871837112759103
20
-74.25226005991
30
0
11
62.120616411253174
21
-78.147260059909996
31
0
0
LINE
5
156
100
AcDbEntity
8
CUTOUTS
100
AcDbLine
10
62.120616411253174
20
-78.147260059909996
30
0
11
59.871837112759103
21
-82.042260059910006
31
0
0
LINE
5
157
100
AcDbEntity
8
CUTOUTS
100
AcDbLine
10
59.871837112759103
20
-82.042260059910006
30
0
11
55.374278515771934
21
-82.042260059910006
31
0
0
LINE
5
158
100
AcDbEntity
8
CUTOUTS
100
AcDbLine
10
55.374278515771934
20
-82.042260059910006
30
0
11
53.125499217278829
21
-78.147260059909996
31
0
0
LINE
5
159
100
AcDbEntity
8
CUTOUTS
100
AcDbLine
10
53.125499217278829
20
-78.147260059909996
30
0
11
55.374278515771927
21
-74.25226005991
31
0
0
LINE
5
15A
100
AcDbEntity
8
CUTOUTS
100
AcDbLine
10
41.300408541331073
20
-55.502260059910007
30
0
11
43.549187839824171
21
-59.39726005991001
31
0
0
LINE
5
15B
100
AcDbEntity
8
CUTOUTS
100
AcDbLine
10
43.549187839824171
20
-59.39726005991001
30
0
11
41.300408541331073
21
-63.292260059909999
31
0
0
LINE
5
15C
100
AcDbEntity
8
CUTOUTS
100
AcDbLine
10
41.300408541331073
20
-63.292260059909999
30
0
11
36.802849944343912
21
-63.292260059909999
31
0
0
LINE
5
15D
100
AcDbEntity
8
CUTOUTS
100
AcDbLine
10
36.802849944343912
20
-63.292260059909999
30
0
11
34.554070645849833
21
-59.39726005991001
31
0
0
LINE
5
15E
100
AcDbEntity
8
CUTOUTS
100
AcDbLine
10
34.554070645849833
20
-59.39726005991001
30
0
11
36.802849944343912
21
-55.502260059910007
31
0
0
LINE
5
15F
100
AcDbEntity
8
CUTOUTS
100
AcDbLine
10
36.802849944343912
20
-55.502260059910007
30
0
11
41.300408541331073
21
-55.502260059910007
31
0
0
LINE
5
160
100
AcDbEntity
8
CUTOUTS
100
AcDbLine
10
59.871837112759103
20
-55.502260059910007
30
0
11
62.120616411253174
21
-59.39726005991001
31
0
0
LINE
5
161
100
AcDbEntity
8
CUTOUTS
100
AcDbLine
10
62.120616411253174
20
-59.39726005991001
30
0
11
59.871837112759103
21
-63.292260059909999
31
0
0
LINE
5
162
100
AcDbEntity
8
CUTOUTS
100
AcDbLine
10
59.871837112759103
20
-63.292260059909999
30
0
11
55.374278515771927
21
-63.292260059909999
31
0
0
LINE
5
163
100
AcDbEntity
8
CUTOUTS
100
AcDbLine
10
55.374278515771927
20
-63.292260059909999
30
0
11
53.125499217278829
21
-59.39726005991001
31
0
0
LINE
5
164
100
AcDbEntity
8
CUTOUTS
100
AcDbLine
10
53.125499217278829
20
-59.39726005991001
30
0
11
55.374278515771927
21
-55.502260059910007
31
0
0
LINE
5
165
100
AcDbEntity
8
CUTOUTS
100
AcDbLine
10
55.374278515771927
20
-55.502260059910007
30
0
11
59.871837112759103
21
-55.502260059910007
31
0
0
LINE
5
166
100
AcDbEntity
8
CUTOUTS
100
AcDbLine
10
78.443265684188077
20
-74.25226005991
30
0
11
80.692044982681182
21
-78.147260059909996
31
0
0
LINE
5
167
100
AcDbEntity
8
CUTOUTS
100
AcDbLine
10
80.692044982681182
20
-78.147260059909996
30
0
11
78.443265684188077
21
-82.042260059910006
31
0
0
LINE
5
168
100
AcDbEntity
8
CUTOUTS
100
AcDbLine
10
78.443265684188077
20
-82.042260059910006
30
0
11
73.945707087200901
21
-82.042260059910006
31
0
0
LINE
5
169
100
AcDbEntity
8
CUTOUTS
100
AcDbLine
10
73.945707087200901
20
-82.042260059910006
30
0
11
71.69692778870683
21
-78.147260059909996
31
0
0
LINE
5
16A
100
AcDbEntity
8
CUTOUTS
100
AcDbLine
10
71.69692778870683
20
-78.147260059909996
30
0
11
73.945707087200901
21
-74.25226005991
31
0
0
LINE
5
16B
100
AcDbEntity
8
CUTOUTS
100
AcDbLine
10
73.945707087200901
20
-74.25226005991
30
0
11
78.443265684188077
21
-74.25226005991
31
0
0
LINE
5
16C
100
AcDbEntity
8
CUTOUTS
100
AcDbLine
10
97.014694255616106
20
-74.25226005991
30
0
11
99.263473554110178
21
-78.147260059909996
31
0
0
LINE
5
16D
100
AcDbEntity
8
CUTOUTS
100
AcDbLine
10
99.263473554110178
20
-78.147260059909996
30
0
11
97.014694255616092
21
-82.042260059910006
31
0
0
LINE
5
16E
100
AcDbEntity
8
CUTOUTS
100
AcDbLine
10
97.014694255616092
20
-82.042260059910006
30
0
11
92.517135658628931
21
-82.042260059910006
31
0
0
LINE
5
16F
100
AcDbEntity
8
CUTOUTS
100
AcDbLine
10
92.517135658628931
20
-82.042260059910006
30
0
11
90.26835636013584
21
-78.147260059909996
31
0
0
LINE
5
170
100
AcDbEntity
8
CUTOUTS
100
AcDbLine
10
90.26835636013584
20
-78.147260059909996
30
0
11
92.517135658628931
21
-74.25226005991
31
0
0
LINE
5
171
100
AcDbEntity
8
CUTOUTS
100
AcDbLine
10
92.517135658628931
20
-74.25226005991
30
0
11
97.014694255616106
21
-74.25226005991
31
0
0
LINE
5
172
100
AcDbEntity
8
CUTOUTS
100
AcDbLine
10
71.69692778870683
20
-59.39726005991001
30
0
11
73.945707087200901
21
-55.502260059910007
31
0
0
LINE
5
173
100
AcDbEntity
8
CUTOUTS
100
AcDbLine
10
73.945707087200901
20
-55.502260059910007
30
0
11
78.443265684188077
21
-55.502260059910007
31
0
0
LINE
5
174
100
AcDbEntity
8
CUTOUTS
100
AcDbLine
10
78.443265684188077
20
-55.502260059910007
30
0
11
80.692044982681182
21
-59.39726005991001
31
0
0
LINE
5
175
100
AcDbEntity
8
CUTOUTS
100
AcDbLine
10
80.692044982681182
20
-59.39726005991001
30
0
11
78.443265684188077
21
-63.292260059909999
31
0
0
LINE
5
176
100
AcDbEntity
8
CUTOUTS
100
AcDbLine
10
78.443265684188077
20
-63.292260059909999
30
0
11
73.945707087200901
21
-63.292260059909999
31
0
0
LINE
5
177
100
AcDbEntity
8
CUTOUTS
100
AcDbLine
10
73.945707087200901
20
-63.292260059909999
30
0
11
71.69692778870683
21
-59.39726005991001
31
0
0
LINE
5
178
100
AcDbEntity
8
CUTOUTS
100
AcDbLine
10
92.517135658628931
20
-55.502260059910007
30
0
11
97.014694255616106
21
-55.502260059910007
31
0
0
LINE
5
179
100
AcDbEntity
8
CUTOUTS
100
AcDbLine
10
97.014694255616106
20
-55.502260059910007
30
0
11
99.263473554110178
21
-59.397260059909996
31
0
0
LINE
5
17A
100
AcDbEntity
8
CUTOUTS
100
AcDbLine
10
99.263473554110178
20
-59.397260059909996
30
0
11
97.014694255616092
21
-63.292260059909999
31
0
0
LINE
5
17B
100
AcDbEntity
8
CUTOUTS
100
AcDbLine
10
97.014694255616092
20
-63.292260059909999
30
0
11
92.517135658628931
21
-63.292260059909999
31
0
0
LINE
5
17C
100
AcDbEntity
8
CUTOUTS
100
AcDbLine
10
92.517135658628931
20
-63.292260059909999
30
0
11
90.26835636013584
21
-59.39726005991001
31
0
0
LINE
5
17D
100
AcDbEntity
8
CUTOUTS
100
AcDbLine
10
90.26835636013584
20
-59.39726005991001
30
0
11
92.517135658628931
21
-55.502260059910007
31
0
0
LINE
5
17E
100
AcDbEntity
8
CUTOUTS
100
AcDbLine
10
-18.911435769935107
20
-44.542260059909999
30
0
11
-21.160215068430151
21
-40.64726005991001
31
0
0
LINE
5
17F
100
AcDbEntity
8
CUTOUTS
100
AcDbLine
10
-21.160215068430151
20
-40.64726005991001
30
0
11
-18.911435769935103
21
-36.752260059910007
31
0
0
LINE
5
180
100
AcDbEntity
8
CUTOUTS
100
AcDbLine
10
-18.911435769935103
20
-36.752260059910007
30
0
11
-14.413877172954894
21
-36.752260059910007
31
0
0
LINE
5
181
100
AcDbEntity
8
CUTOUTS
100
AcDbLine
10
-14.413877172954894
20
-36.752260059910007
30
0
11
-12.165097874459846
21
-40.64726005991001
31
0
0
LINE
5
182
100
AcDbEntity
8
CUTOUTS
100
AcDbLine
10
-12.165097874459846
20
-40.64726005991001
30
0
11
-14.413877172954894
21
-44.542260059909999
31
0
0
LINE
5
183
100
AcDbEntity
8
CUTOUTS
100
AcDbLine
10
-14.413877172954894
20
-44.542260059909999
30
0
11
-18.911435769935107
21
-44.542260059909999
31
0
0
LINE
5
184
100
AcDbEntity
8
CUTOUTS
100
AcDbLine
10
-2.5887864970071801
20
-40.64726005991001
30
0
11
-0.3400071985140804
21
-36.752260059910007
31
0
0
LINE
5
185
100
AcDbEntity
8
CUTOUTS
100
AcDbLine
10
-0.3400071985140804
20
-36.752260059910007
30
0
11
4.1575513984730943
21
-36.752260059910007
31
0
0
LINE
5
186
100
AcDbEntity
8
CUTOUTS
100
AcDbLine
10
4.1575513984730943
20
-36.752260059910007
30
0
11
6.4063306969671672
21
-40.64726005991001
31
0
0
LINE
5
187
100
AcDbEntity
8
CUTOUTS
100
AcDbLine
10
6.4063306969671672
20
-40.64726005991001
30
0
11
4.1575513984730943
21
-44.542260059909999
31
0
0
LINE
5
188
100
AcDbEntity
8
CUTOUTS
100
AcDbLine
10
4.1575513984730943
20
-44.542260059909999
30
0
11
-0.34000719851408068
21
-44.542260059909999
31
0
0
LINE
5
189
100
AcDbEntity
8
CUTOUTS
100
AcDbLine
10
-0.34000719851408068
20
-44.542260059909999
30
0
11
-2.5887864970071801
21
-40.64726005991001
31
0
0
LINE
5
18A
100
AcDbEntity
8
CUTOUTS
100
AcDbLine
10
22.728979969902095
20
-36.752260059910007
30
0
11
24.977759268396163
21
-40.64726005991001
31
0
0
LINE
5
18B
100
AcDbEntity
8
CUTOUTS
100
AcDbLine
10
24.977759268396163
20
-40.64726005991001
30
0
11
22.728979969902095
21
-44.542260059909999
31
0
0
LINE
5
18C
100
AcDbEntity
8
CUTOUTS
100
AcDbLine
10
22.728979969902095
20
-44.542260059909999
30
0
11
18.231421372914919
21
-44.542260059909999
31
0
0
LINE
5
18D
100
AcDbEntity
8
CUTOUTS
100
AcDbLine
10
18.231421372914919
20
-44.542260059909999
30
0
11
15.982642074421822
21
-40.64726005991001
31
0
0
LINE
5
18E
100
AcDbEntity
8
CUTOUTS
100
AcDbLine
10
15.982642074421822
20
-40.64726005991001
30
0
11
18.231421372914919
21
-36.752260059910007
31
0
0
LINE
5
18F
100
AcDbEntity
8
CUTOUTS
100
AcDbLine
10
18.231421372914919
20
-36.752260059910007
30
0
11
22.728979969902095
21
-36.752260059910007
31
0
0
LINE
5
190
100
AcDbEntity
8
CUTOUTS
100
AcDbLine
10
-14.413877172954892
20
-18.00226005991
30
0
11
-12.165097874459841
21
-21.89726005991
31
0
0
LINE
5
191
100
AcDbEntity
8
CUTOUTS
100
AcDbLine
10
-12.165097874459841
20
-21.89726005991
30
0
11
-14.413877172954891
21
-25.792260059910003
31
0
0
LINE
5
192
100
AcDbEntity
8
CUTOUTS
100
AcDbLine
10
-14.413877172954891
20
-25.792260059910003
30
0
11
-18.91143576993511
21
-25.792260059910003
31
0
0
LINE
5
193
100
AcDbEntity
8
CUTOUTS
100
AcDbLine
10
-18.91143576993511
20
-25.792260059910003
30
0
11
-21.160215068430158
21
-21.89726005991
31
0
0
LINE
5
194
100
AcDbEntity
8
CUTOUTS
100
AcDbLine
10
-21.160215068430158
20
-21.89726005991
30
0
11
-18.911435769935107
21
-18.00226005991
31
0
0
LINE
5
195
100
AcDbEntity
8
CUTOUTS
100
AcDbLine
10
-18.911435769935107
20
-18.00226005991
30
0
11
-14.413877172954892
21
-18.00226005991
31
0
0
LINE
5
196
100
AcDbEntity
8
CUTOUTS
100
AcDbLine
10
4.1575513984730961
20
-18.00226005991
30
0
11
6.4063306969671725
21
-21.89726005991
31
0
0
LINE
5
197
100
AcDbEntity
8
CUTOUTS
100
AcDbLine
10
6.4063306969671725
20
-21.89726005991
30
0
11
4.157551398473097
21
-25.792260059910003
31
0
0
LINE
5
198
100
AcDbEntity
8
CUTOUTS
100
AcDbLine
10
4.157551398473097
20
-25.792260059910003
30
0
11
-0.34000719851408179
21
-25.792260059910003
31
0
0
LINE
5
199
100
AcDbEntity
8
CUTOUTS
100
AcDbLine
10
-0.34000719851408179
20
-25.792260059910003
30
0
11
-2.588786497007185
21
-21.89726005991
31
0
0
LINE
5
19A
100
AcDbEntity
8
CUTOUTS
100
AcDbLine
10
-2.588786497007185
20
-21.89726005991
30
0
11
-0.34000719851408151
21
-18.00226005991
31
0
0
LINE
5
19B
100
AcDbEntity
8
CUTOUTS
100
AcDbLine
10
-0.34000719851408151
20
-18.00226005991
30
0
11
4.1575513984730961
21
-18.00226005991
31
0
0
LINE
5
19C
100
AcDbEntity
8
CUTOUTS
100
AcDbLine
10
22.728979969902099
20
-18.00226005991
30
0
11
24.977759268396174
21
-21.89726005991
31
0
0
LINE
5
19D
100
AcDbEntity
8
CUTOUTS
100
AcDbLine
10
24.977759268396174
20
-21.89726005991
30
0
11
22.728979969902099
21
-25.792260059910003
31
0
0
LINE
5
19E
100
AcDbEntity
8
CUTOUTS
100
AcDbLine
10
22.728979969902099
20
-25.792260059910003
30
0
11
18.231421372914916
21
-25.792260059910003
31
0
0
LINE
5
19F
100
AcDbEntity
8
CUTOUTS
100
AcDbLine
10
18.231421372914916
20
-25.792260059910003
30
0
11
15.982642074421818
21
-21.89726005991
31
0
0
LINE
5
1A0
100
AcDbEntity
8
CUTOUTS
100
AcDbLine
10
15.982642074421818
20
-21.89726005991
30
0
11
18.231421372914916
21
-18.00226005991
31
0
0
LINE
5
1A1
100
AcDbEntity
8
CUTOUTS
100
AcDbLine
10
18.231421372914916
20
-18.00226005991
30
0
11
22.728979969902099
21
-18.00226005991
31
0
0
LINE
5
1A2
100
AcDbEntity
8
CUTOUTS
100
AcDbLine
10
41.300408541331073
20
-36.752260059910007
30
0
11
43.549187839824171
21
-40.64726005991001
31
0
0
LINE
5
1A3
100
AcDbEntity
8
CUTOUTS
100
AcDbLine
10
43.549187839824171
20
-40.64726005991001
30
0
11
41.300408541331073
21
-44.542260059909999
31
0
0
LINE
5
1A4
100
AcDbEntity
8
CUTOUTS
100
AcDbLine
10
41.300408541331073
20
-44.542260059909999
30
0
11
36.802849944343912
21
-44.542260059909999
31
0
0
LINE
5
1A5
100
AcDbEntity
8
CUTOUTS
100
AcDbLine
10
36.802849944343912
20
-44.542260059909999
30
0
11
34.554070645849833
21
-40.64726005991001
31
0
0
LINE
5
1A6
100
AcDbEntity
8
CUTOUTS
100
AcDbLine
10
34.554070645849833
20
-40.64726005991001
30
0
11
36.802849944343912
21
-36.752260059910007
31
0
0
LINE
5
1A7
100
AcDbEntity
8
CUTOUTS
100
AcDbLine
10
36.802849944343912
20
-36.752260059910007
30
0
11
41.300408541331073
21
-36.752260059910007
31
0
0
LINE
5
1A8
100
AcDbEntity
8
CUTOUTS
100
AcDbLine
10
59.871837112759103
20
-36.752260059910007
30
0
11
62.120616411253174
21
-40.64726005991001
31
0
0
LINE
5
1A9
100
AcDbEntity
8
CUTOUTS
100
AcDbLine
10
62.120616411253174
20
-40.64726005991001
30
0
11
59.871837112759103
21
-44.542260059909999
31
0
0
LINE
5
1AA
100
AcDbEntity
8
CUTOUTS
100
AcDbLine
10
59.871837112759103
20
-44.542260059909999
30
0
11
55.374278515771927
21
-44.542260059909999
31
0
0
LINE
5
1AB
100
AcDbEntity
8
CUTOUTS
100
AcDbLine
10
55.374278515771927
20
-44.542260059909999
30
0
11
53.125499217278829
21
-40.64726005991001
31
0
0
LINE
5
1AC
100
AcDbEntity
8
CUTOUTS
100
AcDbLine
10
53.125499217278829
20
-40.64726005991001
30
0
11
55.374278515771927
21
-36.752260059910007
31
0
0
LINE
5
1AD
100
AcDbEntity
8
CUTOUTS
100
AcDbLine
10
55.374278515771927
20
-36.752260059910007
30
0
11
59.871837112759103
21
-36.752260059910007
31
0
0
LINE
5
1AE
100
AcDbEntity
8
CUTOUTS
100
AcDbLine
10
73.945707087200901
20
-36.752260059910007
30
0
11
78.443265684188077
21
-36.752260059910007
31
0
0
LINE
5
1AF
100
AcDbEntity
8
CUTOUTS
100
AcDbLine
10
78.443265684188077
20
-36.752260059910007
30
0
11
80.692044982681182
21
-40.64726005991001
31
0
0
LINE
5
1B0
100
AcDbEntity
8
CUTOUTS
100
AcDbLine
10
80.692044982681182
20
-40.64726005991001
30
0
11
78.443265684188077
21
-44.542260059909999
31
0
0
LINE
5
1B1
100
AcDbEntity
8
CUTOUTS
100
AcDbLine
10
78.443265684188077
20
-44.542260059909999
30
0
11
73.945707087200901
21
-44.542260059909999
31
0
0
LINE
5
1B2
100
AcDbEntity
8
CUTOUTS
100
AcDbLine
10
73.945707087200901
20
-44.542260059909999
30
0
11
71.69692778870683
21
-40.64726005991001
31
0
0
LINE
5
1B3
100
AcDbEntity
8
CUTOUTS
100
AcDbLine
10
71.69692778870683
20
-40.64726005991001
30
0
11
73.945707087200901
21
-36.752260059910007
31
0
0
LINE
5
1B4
100
AcDbEntity
8
CUTOUTS
100
AcDbLine
10
97.014694255616106
20
-36.752260059910007
30
0
11
99.263473554110178
21
-40.647260059909996
31
0
0
LINE
5
1B5
100
AcDbEntity
8
CUTOUTS
100
AcDbLine
10
99.263473554110178
20
-40.647260059909996
30
0
11
97.014694255616092
21
-44.542260059909999
31
0
0
LINE
5
1B6
100
AcDbEntity
8
CUTOUTS
100
AcDbLine
10
97.014694255616092
20
-44.542260059909999
30
0
11
92.517135658628931
21
-44.542260059909999
31
0
0
LINE
5
1B7
100
AcDbEntity
8
CUTOUTS
100
AcDbLine
10
92.517135658628931
20
-44.542260059909999
30
0
11
90.26835636013584
21
-40.64726005991001
31
0
0
LINE
5
1B8
100
AcDbEntity
8
CUTOUTS
100
AcDbLine
10
90.26835636013584
20
-40.64726005991001
30
0
11
92.517135658628931
21
-36.752260059910007
31
0
0
LINE
5
1B9
100
AcDbEntity
8
CUTOUTS
100
AcDbLine
10
92.517135658628931
20
-36.752260059910007
30
0
11
97.014694255616106
21
-36.752260059910007
31
0
0
LINE
5
1BA
100
AcDbEntity
8
CUTOUTS
100
AcDbLine
10
41.30040854133108
20
-18.00226005991
30
0
11
43.549187839824185
21
-21.89726005991
31
0
0
LINE
5
1BB
100
AcDbEntity
8
CUTOUTS
100
AcDbLine
10
43.549187839824185
20
-21.89726005991
30
0
11
41.300408541331073
21
-25.792260059910003
31
0
0
LINE
5
1BC
100
AcDbEntity
8
CUTOUTS
100
AcDbLine
10
41.300408541331073
20
-25.792260059910003
30
0
11
36.802849944343905
21
-25.792260059910003
31
0
0
LINE
5
1BD
100
AcDbEntity
8
CUTOUTS
100
AcDbLine
10
36.802849944343905
20
-25.792260059910003
30
0
11
34.554070645849826
21
-21.89726005991
31
0
0
LINE
5
1BE
100
AcDbEntity
8
CUTOUTS
100
AcDbLine
10
34.554070645849826
20
-21.89726005991
30
0
11
36.802849944343905
21
-18.002260059909997
31
0
0
LINE
5
1BF
100
AcDbEntity
8
CUTOUTS
100
AcDbLine
10
36.802849944343905
20
-18.002260059909997
30
0
11
41.30040854133108
21
-18.00226005991
31
0
0
LINE
5
1C0
100
AcDbEntity
8
CUTOUTS
100
AcDbLine
10
59.871837112759103
20
-18.00226005991
30
0
11
62.120616411253174
21
-21.89726005991
31
0
0
LINE
5
1C1
100
AcDbEntity
8
CUTOUTS
100
AcDbLine
10
62.120616411253174
20
-21.89726005991
30
0
11
59.871837112759103
21
-25.792260059910003
31
0
0
LINE
5
1C2
100
AcDbEntity
8
CUTOUTS
100
AcDbLine
10
59.871837112759103
20
-25.792260059910003
30
0
11
55.37427851577192
21
-25.792260059910003
31
0
0
LINE
5
1C3
100
AcDbEntity
8
CUTOUTS
100
AcDbLine
10
55.37427851577192
20
-25.792260059910003
30
0
11
53.125499217278822
21
-21.89726005991
31
0
0
LINE
5
1C4
100
AcDbEntity
8
CUTOUTS
100
AcDbLine
10
53.125499217278822
20
-21.89726005991
30
0
11
55.374278515771927
21
-18.002260059909997
31
0
0
LINE
5
1C5
100
AcDbEntity
8
CUTOUTS
100
AcDbLine
10
55.374278515771927
20
-18.002260059909997
30
0
11
59.871837112759103
21
-18.00226005991
31
0
0
LINE
5
1C6
100
AcDbEntity
8
CUTOUTS
100
AcDbLine
10
78.443265684188091
20
-18.00226005991
30
0
11
80.692044982681182
21
-21.897260059909986
31
0
0
LINE
5
1C7
100
AcDbEntity
8
CUTOUTS
100
AcDbLine
10
80.692044982681182
20
-21.897260059909986
30
0
11
78.443265684188063
21
-25.792260059910003
31
0
0
LINE
5
1C8
100
AcDbEntity
8
CUTOUTS
100
AcDbLine
10
78.443265684188063
20
-25.792260059910003
30
0
11
73.945707087200901
21
-25.792260059910003
31
0
0
LINE
5
1C9
100
AcDbEntity
8
CUTOUTS
100
AcDbLine
10
73.945707087200901
20
-25.792260059910003
30
0
11
71.69692778870683
21
-21.89726005991
31
0
0
LINE
5
1CA
100
AcDbEntity
8
CUTOUTS
100
AcDbLine
10
71.69692778870683
20
-21.89726005991
30
0
11
73.945707087200901
21
-18.002260059909997
31
0
0
LINE
5
1CB
100
AcDbEntity
8
CUTOUTS
100
AcDbLine
10
73.945707087200901
20
-18.002260059909997
30
0
11
78.443265684188091
21
-18.00226005991
31
0
0
LINE
5
1CC
100
AcDbEntity
8
CUTOUTS
100
AcDbLine
10
97.014694255616092
20
-18.00226005991
30
0
11
99.263473554110178
21
-21.897260059910003
31
0
0
LINE
5
1CD
100
AcDbEntity
8
CUTOUTS
100
AcDbLine
10
99.263473554110178
20
-21.897260059910003
30
0
11
97.014694255616106
21
-25.792260059909999
31
0
0
LINE
5
1CE
100
AcDbEntity
8
CUTOUTS
100
AcDbLine
10
97.014694255616106
20
-25.792260059909999
30
0
11
92.517135658628931
21
-25.792260059910003
31
0
0
LINE
5
1CF
100
AcDbEntity
8
CUTOUTS
100
AcDbLine
10
92.517135658628931
20
-25.792260059910003
30
0
11
90.26835636013584
21
-21.89726005991
31
0
0
LINE
5
1D0
100
AcDbEntity
8
CUTOUTS
100
AcDbLine
10
90.26835636013584
20
-21.89726005991
30
0
11
92.517135658628931
21
-18.002260059909997
31
0
0
LINE
5
1D1
100
AcDbEntity
8
CUTOUTS
100
AcDbLine
10
92.517135658628931
20
-18.002260059909997
30
0
11
97.014694255616092
21
-18.00226005991
31
0
0
LINE
5
1D2
100
AcDbEntity
8
PERIMETER
100
AcDbLine
10
105.82354137503003
20
-115.00226005990001
30
0
11
105.82354137503002
21
-14.792260059910003
31
0
0
LINE
5
1D3
100
AcDbEntity
8
PERIMETER
100
AcDbLine
10
105.82354137503002
20
-14.792260059910003
30
0
11
-24.38645862496001
21
-14.792260059910001
31
0
0
LINE
5
1D4
100
AcDbEntity
8
PERIMETER
100
AcDbLine
10
-24.386458624960007
20
-14.792260059910001
30
0
11
-24.386458624959999
21
-115.00226005990001
31
0
0
LINE
5
1D5
100
AcDbEntity
8
PERIMETER
100
AcDbLine
10
-24.386458624959999
20
-115.00226005990001
30
0
11
105.82354137503003
21
-115.00226005990001
31
0
0
ENDSEC
0
SECTION
2
OBJECTS
0
DICTIONARY
5
C
100
AcDbDictionary
3
ACAD_GROUP
350
D
3
ACAD_MLINESTYLE
350
17
0
DICTIONARY
5
D
100
AcDbDictionary
0
DICTIONARY
5
1A
330
C
100
AcDbDictionary
0
DICTIONARY
5
17
100
AcDbDictionary
0
ENDSEC
0
EOF
