0
SECTION
2
HEADER
9
$INSUNITS
70
4
9
$ACADVER
1
AC1014
9
$HANDSEED
5
FFFF
0
ENDSEC
0
SECTION
2
TABLES
0
TABLE
2
VPORT
5
8
100
AcDbSymbolTable
0
ENDTAB
0
TABLE
2
LTYPE
5
5
100
AcDbSymbolTable
70
2
0
LTYPE
5
14
100
AcDbSymbolTableRecord
100
AcDbLinetypeTableRecord
2
BYBLOCK
70
0
0
LTYPE
5
15
100
AcDbSymbolTableRecord
100
AcDbLinetypeTableRecord
2
BYLAYER
70
0
0
ENDTAB
0
TABLE
2
LAYER
5
2
100
AcDbSymbolTable
70
3
0
LAYER
5
50
100
AcDbSymbolTableRecord
100
AcDbLayerTableRecord
2
0
70
0
6
CONTINUOUS
0
LAYER
5
51
100
AcDbSymbolTableRecord
100
AcDbLayerTableRecord
2
CUTOUTS
70
0
62
1
6
CONTINUOUS
0
LAYER
5
52
100
AcDbSymbolTableRecord
100
AcDbLayerTableRecord
2
PERIMETER
70
0
62
5
6
CONTINUOUS
0
ENDTAB
0
TABLE
2
STYLE
5
3
100
AcDbSymbolTable
70
1
0
STYLE
5
11
100
AcDbSymbolTableRecord
100
AcDbTextStyleTableRecord
2
STANDARD
70
0
0
ENDTAB
0
TABLE
2
VIEW
5
6
100
AcDbSymbolTable
0
ENDTAB
0
TABLE
2
UCS
5
7
100
AcDbSymbolTable
0
ENDTAB
0
TABLE
2
APPID
5
9
100
AcDbSymbolTable
70
1
0
APPID
5
12
100
AcDbSymbolTableRecord
100
AcDbRegAppTableRecord
2
ACAD
70
0
0
ENDTAB
0
TABLE
2
DIMSTYLE
5
A
100
AcDbSymbolTable
0
ENDTAB
0
TABLE
2
BLOCK_RECORD
5
1
100
AcDbSymbolTable
70
2
0
BLOCK_RECORD
5
1F
100
AcDbSymbolTableRecord
100
AcDbBlockTableRecord
2
*MODEL_SPACE
0
BLOCK_RECORD
5
1B
100
AcDbSymbolTableRecord
100
AcDbBlockTableRecord
2
*PAPER_SPACE
0
ENDTAB
0
ENDSEC
0
SECTION
2
BLOCKS
0
BLOCK
5
20
100
AcDbEntity
100
AcDbBlockBegin
2
*MODEL_SPACE
0
ENDBLK
5
21
100
AcDbEntity
100
AcDbBlockEnd
0
BLOCK
5
1C
100
AcDbEntity
100
AcDbBlockBegin
2
*PAPER_SPACE
0
ENDBLK
5
1D
100
AcDbEntity
100
AcDbBlockEnd
0
ENDSEC
0
SECTION
2
ENTITIES
0
LINE
5
100
100
AcDbEntity
8
CUTOUTS
100
AcDbLine
10
-18.928756278010788
20
-92.972260059909999
30
0
11
-14.39655666487921
21
-92.972260059909999
31
0
0
LINE
5
101
100
AcDbEntity
8
CUTOUTS
100
AcDbLine
10
-14.39655666487921
20
-92.972260059909999
30
0
11
-12.130456858308492
21
-96.897260059909939
31
0
0
LINE
5
102
100
AcDbEntity
8
CUTOUTS
100
AcDbLine
10
-12.130456858308492
20
-96.897260059909939
30
0
11
-14.396556664879157
21
-100.82226005990002
31
0
0
LINE
5
103
100
AcDbEntity
8
CUTOUTS
100
AcDbLine
10
-14.396556664879157
20
-100.82226005990002
30
0
11
-18.928756278010844
21
-100.82226005990002
31
0
0
LINE
5
104
100
AcDbEntity
8
CUTOUTS
100
AcDbLine
10
-18.928756278010844
20
-100.82226005990002
30
0
11
-21.194856084581517
21
-96.897260059909939
31
0
0
LINE
5
105
100
AcDbEntity
8
CUTOUTS
100
AcDbLine
10
-21.194856084581517
20
-96.897260059909939
30
0
11
-18.928756278010788
21
-92.972260059909999
31
0
0
LINE
5
106
100
AcDbEntity
8
CUTOUTS
100
AcDbLine
10
-0.35732770658976842
20
-92.972260059909999
30
0
11
4.1748719065487849
21
-92.972260059909999
31
0
0
LINE
5
107
100
AcDbEntity
8
CUTOUTS
100
AcDbLine
10
4.1748719065487849
20
-92.972260059909999
30
0
11
6.4409717131185218
21
-96.897260059909939
31
0
0
LINE
5
108
100
AcDbEntity
8
CUTOUTS
100
AcDbLine
10
6.4409717131185218
20
-96.897260059909939
30
0
11
4.1748719065488391
21
-100.82226005990002
31
0
0
LINE
5
109
100
AcDbEntity
8
CUTOUTS
100
AcDbLine
10
4.1748719065488391
20
-100.82226005990002
30
0
11
-0.35732770658982171
21
-100.82226005990002
31
0
0
LINE
5
10A
100
AcDbEntity
8
CUTOUTS
100
AcDbLine
10
-0.35732770658982171
20
-100.82226005990002
30
0
11
-2.623427513158529
21
-96.897260059909939
31
0
0
LINE
5
10B
100
AcDbEntity
8
CUTOUTS
100
AcDbLine
10
-2.623427513158529
20
-96.897260059909939
30
0
11
-0.35732770658976842
21
-92.972260059909999
31
0
0
LINE
5
10C
100
AcDbEntity
8
CUTOUTS
100
AcDbLine
10
15.948001058270474
20
-96.897260059909939
30
0
11
18.214100864839232
21
-92.972260059909999
31
0
0
LINE
5
10D
100
AcDbEntity
8
CUTOUTS
100
AcDbLine
10
18.214100864839232
20
-92.972260059909999
30
0
11
22.74630047797779
21
-92.972260059909999
31
0
0
LINE
5
10E
100
AcDbEntity
8
CUTOUTS
100
AcDbLine
10
22.74630047797779
20
-92.972260059909999
30
0
11
25.012400284547525
21
-96.897260059909939
31
0
0
LINE
5
10F
100
AcDbEntity
8
CUTOUTS
100
AcDbLine
10
25.012400284547525
20
-96.897260059909939
30
0
11
22.74630047797784
21
-100.82226005990002
31
0
0
LINE
5
110
100
AcDbEntity
8
CUTOUTS
100
AcDbLine
10
22.74630047797784
20
-100.82226005990002
30
0
11
18.214100864839178
21
-100.82226005990002
31
0
0
LINE
5
111
100
AcDbEntity
8
CUTOUTS
100
AcDbLine
10
18.214100864839178
20
-100.82226005990002
30
0
11
15.948001058270474
21
-96.897260059909939
31
0
0
LINE
5
112
100
AcDbEntity
8
CUTOUTS
100
AcDbLine
10
-14.39655666487921
20
-74.222260059909999
30
0
11
-12.13045685830846
21
-78.147260059909996
31
0
0
LINE
5
113
100
AcDbEntity
8
CUTOUTS
100
AcDbLine
10
-12.13045685830846
20
-78.147260059909996
30
0
11
-14.396556664879212
21
-82.072260059910008
31
0
0
LINE
5
114
100
AcDbEntity
8
CUTOUTS
100
AcDbLine
10
-14.396556664879212
20
-82.072260059910008
30
0
11
-18.928756278010791
21
-82.072260059910008
31
0
0
LINE
5
115
100
AcDbEntity
8
CUTOUTS
100
AcDbLine
10
-18.928756278010791
20
-82.072260059910008
30
0
11
-21.194856084581538
21
-78.147260059909996
31
0
0
LINE
5
116
100
AcDbEntity
8
CUTOUTS
100
AcDbLine
10
-21.194856084581538
20
-78.147260059909996
30
0
11
-18.928756278010788
21
-74.222260059909999
31
0
0
LINE
5
117
100
AcDbEntity
8
CUTOUTS
100
AcDbLine
10
-18.928756278010788
20
-74.222260059909999
30
0
11
-14.39655666487921
21
-74.222260059909999
31
0
0
LINE
5
118
100
AcDbEntity
8
CUTOUTS
100
AcDbLine
10
4.1748719065487796
20
-74.222260059909999
30
0
11
6.4409717131185467
21
-78.147260059909996
31
0
0
LINE
5
119
100
AcDbEntity
8
CUTOUTS
100
AcDbLine
10
6.4409717131185467
20
-78.147260059909996
30
0
11
4.1748719065487796
21
-82.072260059910008
31
0
0
LINE
5
11A
100
AcDbEntity
8
CUTOUTS
100
AcDbLine
10
4.1748719065487796
20
-82.072260059910008
30
0
11
-0.35732770658976842
21
-82.072260059910008
31
0
0
LINE
5
11B
100
AcDbEntity
8
CUTOUTS
100
AcDbLine
10
-0.3573277065897682
20
-82.072260059910008
30
0
11
-2.6234275131585543
21
-78.147260059909996
31
0
0
LINE
5
11C
100
AcDbEntity
8
CUTOUTS
100
AcDbLine
10
-2.6234275131585543
20
-78.147260059909996
30
0
11
-0.35732770658977314
21
-74.222260059909999
31
0
0
LINE
5
11D
100
AcDbEntity
8
CUTOUTS
100
AcDbLine
10
-0.35732770658977314
20
-74.222260059909999
30
0
11
4.1748719065487796
21
-74.222260059909999
31
0
0
LINE
5
11E
100
AcDbEntity
8
CUTOUTS
100
AcDbLine
10
-14.39655666487921
20
-55.472260059910006
30
0
11
-12.13045685830846
21
-59.39726005991001
31
0
0
LINE
5
11F
100
AcDbEntity
8
CUTOUTS
100
AcDbLine
10
-12.13045685830846
20
-59.39726005991001
30
0
11
-14.39655666487921
21
-63.322260059910001
31
0
0
LINE
5
120
100
AcDbEntity
8
CUTOUTS
100
AcDbLine
10
-14.39655666487921
20
-63.322260059910001
30
0
11
-18.928756278010791
21
-63.322260059910001
31
0
0
LINE
5
121
100
AcDbEntity
8
CUTOUTS
100
AcDbLine
10
-18.928756278010791
20
-63.322260059910001
30
0
11
-21.194856084581538
21
-59.39726005991001
31
0
0
LINE
5
122
100
AcDbEntity
8
CUTOUTS
100
AcDbLine
10
-21.194856084581538
20
-59.39726005991001
30
0
11
-18.928756278010788
21
-55.472260059910006
31
0
0
LINE
5
123
100
AcDbEntity
8
CUTOUTS
100
AcDbLine
10
-18.928756278010788
20
-55.472260059910006
30
0
11
-14.39655666487921
21
-55.472260059910006
31
0
0
LINE
5
124
100
AcDbEntity
8
CUTOUTS
100
AcDbLine
10
4.1748719065487796
20
-55.472260059910006
30
0
11
6.4409717131185467
21
-59.39726005991001
31
0
0
LINE
5
125
100
AcDbEntity
8
CUTOUTS
100
AcDbLine
10
6.4409717131185467
20
-59.39726005991001
30
0
11
4.1748719065487796
21
-63.322260059910001
31
0
0
LINE
5
126
100
AcDbEntity
8
CUTOUTS
100
AcDbLine
10
4.1748719065487796
20
-63.322260059910001
30
0
11
-0.35732770658977342
21
-63.322260059910001
31
0
0
LINE
5
127
100
AcDbEntity
8
CUTOUTS
100
AcDbLine
10
-0.35732770658977336
20
-63.322260059910001
30
0
11
-2.6234275131585583
21
-59.39726005991001
31
0
0
LINE
5
128
100
AcDbEntity
8
CUTOUTS
100
AcDbLine
10
-2.6234275131585583
20
-59.39726005991001
30
0
11
-0.35732770658977314
21
-55.472260059910006
31
0
0
LINE
5
129
100
AcDbEntity
8
CUTOUTS
100
AcDbLine
10
-0.35732770658977314
20
-55.472260059910006
30
0
11
4.1748719065487796
21
-55.472260059910006
31
0
0
LINE
5
12A
100
AcDbEntity
8
CUTOUTS
100
AcDbLine
10
22.746300477977783
20
-74.222260059909999
30
0
11
25.012400284547546
21
-78.147260059909996
31
0
0
LINE
5
12B
100
AcDbEntity
8
CUTOUTS
100
AcDbLine
10
25.012400284547546
20
-78.147260059909996
30
0
11
22.746300477977783
21
-82.072260059910008
31
0
0
LINE
5
12C
100
AcDbEntity
8
CUTOUTS
100
AcDbLine
10
22.746300477977783
20
-82.072260059910008
30
0
11
18.214100864839232
21
-82.072260059910008
31
0
0
LINE
5
12D
100
AcDbEntity
8
CUTOUTS
100
AcDbLine
10
18.214100864839232
20
-82.072260059910008
30
0
11
15.948001058270449
21
-78.147260059909996
31
0
0
LINE
5
12E
100
AcDbEntity
8
CUTOUTS
100
AcDbLine
10
15.948001058270449
20
-78.147260059909996
30
0
11
18.214100864839228
21
-74.222260059909999
31
0
0
LINE
5
12F
100
AcDbEntity
8
CUTOUTS
100
AcDbLine
10
18.214100864839228
20
-74.222260059909999
30
0
11
22.746300477977783
21
-74.222260059909999
31
0
0
LINE
5
130
100
AcDbEntity
8
CUTOUTS
100
AcDbLine
10
15.948001058270442
20
-59.39726005991001
30
0
11
18.214100864839228
21
-55.472260059910006
31
0
0
LINE
5
131
100
AcDbEntity
8
CUTOUTS
100
AcDbLine
10
18.214100864839228
20
-55.472260059910006
30
0
11
22.746300477977783
21
-55.472260059910006
31
0
0
LINE
5
132
100
AcDbEntity
8
CUTOUTS
100
AcDbLine
10
22.746300477977783
20
-55.472260059910006
30
0
11
25.012400284547546
21
-59.39726005991001
31
0
0
LINE
5
133
100
AcDbEntity
8
CUTOUTS
100
AcDbLine
10
25.012400284547546
20
-59.39726005991001
30
0
11
22.746300477977783
21
-63.322260059910001
31
0
0
LINE
5
134
100
AcDbEntity
8
CUTOUTS
100
AcDbLine
10
22.746300477977783
20
-63.322260059910001
30
0
11
18.214100864839228
21
-63.322260059910001
31
0
0
LINE
5
135
100
AcDbEntity
8
CUTOUTS
100
AcDbLine
10
18.214100864839228
20
-63.322260059910001
30
0
11
15.948001058270442
21
-59.39726005991001
31
0
0
LINE
5
136
100
AcDbEntity
8
CUTOUTS
100
AcDbLine
10
41.317729049406758
20
-92.972260059909999
30
0
11
43.583828855975526
21
-96.897260059909968
31
0
0
LINE
5
137
100
AcDbEntity
8
CUTOUTS
100
AcDbLine
10
43.583828855975526
20
-96.897260059909968
30
0
11
41.317729049406822
21
-100.82226005990002
31
0
0
LINE
5
138
100
AcDbEntity
8
CUTOUTS
100
AcDbLine
10
41.317729049406822
20
-100.82226005990002
30
0
11
36.785529436268163
21
-100.82226005990002
31
0
0
LINE
5
139
100
AcDbEntity
8
CUTOUTS
100
AcDbLine
10
36.785529436268163
20
-100.82226005990002
30
0
11
34.519429629698472
21
-96.897260059909939
31
0
0
LINE
5
13A
100
AcDbEntity
8
CUTOUTS
100
AcDbLine
10
34.519429629698472
20
-96.897260059909939
30
0
11
36.785529436268213
21
-92.972260059909999
31
0
0
LINE
5
13B
100
AcDbEntity
8
CUTOUTS
100
AcDbLine
10
36.785529436268213
20
-92.972260059909999
30
0
11
41.317729049406758
21
-92.972260059909999
31
0
0
LINE
5
13C
100
AcDbEntity
8
CUTOUTS
100
AcDbLine
10
59.889157620834787
20
-92.972260059909999
30
0
11
62.155257427404528
21
-96.897260059909968
31
0
0
LINE
5
13D
100
AcDbEntity
8
CUTOUTS
100
AcDbLine
10
62.155257427404528
20
-96.897260059909968
30
0
11
59.889157620834851
21
-100.82226005990002
31
0
0
LINE
5
13E
100
AcDbEntity
8
CUTOUTS
100
AcDbLine
10
59.889157620834851
20
-100.82226005990002
30
0
11
55.356958007696178
21
-100.82226005990002
31
0
0
LINE
5
13F
100
AcDbEntity
8
CUTOUTS
100
AcDbLine
10
55.356958007696178
20
-100.82226005990002
30
0
11
53.090858201127482
21
-96.897260059909968
31
0
0
LINE
5
140
100
AcDbEntity
8
CUTOUTS
100
AcDbLine
10
53.090858201127482
20
-96.897260059909968
30
0
11
55.356958007696242
21
-92.972260059909999
31
0
0
LINE
5
141
100
AcDbEntity
8
CUTOUTS
100
AcDbLine
10
55.356958007696242
20
-92.972260059909999
30
0
11
59.889157620834787
21
-92.972260059909999
31
0
0
LINE
5
142
100
AcDbEntity
8
CUTOUTS
100
AcDbLine
10
71.662286772555476
20
-96.897260059909939
30
0
11
73.928386579125217
21
-92.972260059909999
31
0
0
LINE
5
143
100
AcDbEntity
8
CUTOUTS
100
AcDbLine
10
73.928386579125217
20
-92.972260059909999
30
0
11
78.460586192263762
21
-92.972260059909999
31
0
0
LINE
5
144
100
AcDbEntity
8
CUTOUTS
100
AcDbLine
10
78.460586192263762
20
-92.972260059909999
30
0
11
80.726685998832522
21
-96.897260059909968
31
0
0
LINE
5
145
100
AcDbEntity
8
CUTOUTS
100
AcDbLine
10
80.726685998832522
20
-96.897260059909968
30
0
11
78.460586192263818
21
-100.82226005990002
31
0
0
LINE
5
146
100
AcDbEntity
8
CUTOUTS
100
AcDbLine
10
78.460586192263818
20
-100.82226005990002
30
0
11
73.92838657912516
21
-100.82226005990002
31
0
0
LINE
5
147
100
AcDbEntity
8
CUTOUTS
100
AcDbLine
10
73.92838657912516
20
-100.82226005990002
30
0
11
71.662286772555476
21
-96.897260059909939
31
0
0
LINE
5
148
100
AcDbEntity
8
CUTOUTS
100
AcDbLine
10
97.032014763691791
20
-92.972260059909999
30
0
11
99.298114570261532
21
-96.897260059909939
31
0
0
LINE
5
149
100
AcDbEntity
8
CUTOUTS
100
AcDbLine
10
99.298114570261532
20
-96.897260059909939
30
0
11
97.032014763691848
21
-100.82226005990002
31
0
0
LINE
5
14A
100
AcDbEntity
8
CUTOUTS
100
AcDbLine
10
97.032014763691848
20
-100.82226005990002
30
0
11
92.499815150553175
21
-100.82226005990002
31
0
0
LINE
5
14B
100
AcDbEntity
8
CUTOUTS
100
AcDbLine
10
92.499815150553175
20
-100.82226005990002
30
0
11
90.233715343984485
21
-96.897260059909939
31
0
0
LINE
5
14C
100
AcDbEntity
8
CUTOUTS
100
AcDbLine
10
90.233715343984485
20
-96.897260059909939
30
0
11
92.499815150553232
21
-92.972260059909999
31
0
0
LINE
5
14D
100
AcDbEntity
8
CUTOUTS
100
AcDbLine
10
92.499815150553232
20
-92.972260059909999
30
0
11
97.032014763691791
21
-92.972260059909999
31
0
0
LINE
5
14E
100
AcDbEntity
8
CUTOUTS
100
AcDbLine
10
36.78552943626822
20
-82.072260059910008
30
0
11
34.51942962969845
21
-78.147260059909996
31
0
0
LINE
5
14F
100
AcDbEntity
8
CUTOUTS
100
AcDbLine
10
34.51942962969845
20
-78.147260059909996
30
0
11
36.78552943626822
21
-74.222260059909999
31
0
0
LINE
5
150
100
AcDbEntity
8
CUTOUTS
100
AcDbLine
10
36.78552943626822
20
-74.222260059909999
30
0
11
41.317729049406765
21
-74.222260059909999
31
0
0
LINE
5
151
100
AcDbEntity
8
CUTOUTS
100
AcDbLine
10
41.317729049406765
20
-74.222260059909999
30
0
11
43.583828855975561
21
-78.147260059909996
31
0
0
LINE
5
152
100
AcDbEntity
8
CUTOUTS
100
AcDbLine
10
43.583828855975561
20
-78.147260059909996
30
0
11
41.317729049406765
21
-82.072260059910008
31
0
0
LINE
5
153
100
AcDbEntity
8
CUTOUTS
100
AcDbLine
10
41.317729049406765
20
-82.072260059910008
30
0
11
36.78552943626822
21
-82.072260059910008
31
0
0
LINE
5
154
100
AcDbEntity
8
CUTOUTS
100
AcDbLine
10
59.889157620834787
20
-74.222260059909999
30
0
11
62.155257427404543
21
-78.147260059909996
31
0
0
LINE
5
155
100
AcDbEntity
8
CUTOUTS
100
AcDbLine
10
62.155257427404543
20
-78.147260059909996
30
0
11
59.88915762083478
21
-82.072260059910008
31
0
0
LINE
5
156
100
AcDbEntity
8
CUTOUTS
100
AcDbLine
10
59.88915762083478
20
-82.072260059910008
30
0
11
55.356958007696242
21
-82.072260059910008
31
0
0
LINE
5
157
100
AcDbEntity
8
CUTOUTS
100
AcDbLine
10
55.356958007696242
20
-82.072260059910008
30
0
11
53.090858201127453
21
-78.147260059909996
31
0
0
LINE
5
158
100
AcDbEntity
8
CUTOUTS
100
AcDbLine
10
53.090858201127453
20
-78.147260059909996
30
0
11
55.356958007696235
21
-74.222260059909999
31
0
0
LINE
5
159
100
AcDbEntity
8
CUTOUTS
100
AcDbLine
10
55.356958007696235
20
-74.222260059909999
30
0
11
59.889157620834787
21
-74.222260059909999
31
0
0
LINE
5
15A
100
AcDbEntity
8
CUTOUTS
100
AcDbLine
10
43.583828855975561
20
-59.39726005991001
30
0
11
41.317729049406765
21
-63.322260059910001
31
0
0
LINE
5
15B
100
AcDbEntity
8
CUTOUTS
100
AcDbLine
10
41.317729049406765
20
-63.322260059910001
30
0
11
36.78552943626822
21
-63.322260059910001
31
0
0
LINE
5
15C
100
AcDbEntity
8
CUTOUTS
100
AcDbLine
10
36.78552943626822
20
-63.322260059910001
30
0
11
34.519429629698458
21
-59.39726005991001
31
0
0
LINE
5
15D
100
AcDbEntity
8
CUTOUTS
100
AcDbLine
10
34.519429629698458
20
-59.39726005991001
30
0
11
36.78552943626822
21
-55.472260059910006
31
0
0
LINE
5
15E
100
AcDbEntity
8
CUTOUTS
100
AcDbLine
10
36.78552943626822
20
-55.472260059910006
30
0
11
41.317729049406765
21
-55.472260059910006
31
0
0
LINE
5
15F
100
AcDbEntity
8
CUTOUTS
100
AcDbLine
10
41.317729049406765
20
-55.472260059910006
30
0
11
43.583828855975561
21
-59.39726005991001
31
0
0
LINE
5
160
100
AcDbEntity
8
CUTOUTS
100
AcDbLine
10
59.889157620834787
20
-63.322260059910001
30
0
11
55.356958007696235
21
-63.322260059910001
31
0
0
LINE
5
161
100
AcDbEntity
8
CUTOUTS
100
AcDbLine
10
55.356958007696235
20
-63.322260059910001
30
0
11
53.090858201127453
21
-59.39726005991001
31
0
0
LINE
5
162
100
AcDbEntity
8
CUTOUTS
100
AcDbLine
10
53.090858201127453
20
-59.39726005991001
30
0
11
55.356958007696235
21
-55.472260059910006
31
0
0
LINE
5
163
100
AcDbEntity
8
CUTOUTS
100
AcDbLine
10
55.356958007696235
20
-55.472260059910006
30
0
11
59.889157620834787
21
-55.472260059910006
31
0
0
LINE
5
164
100
AcDbEntity
8
CUTOUTS
100
AcDbLine
10
59.889157620834787
20
-55.472260059910006
30
0
11
62.155257427404543
21
-59.39726005991001
31
0
0
LINE
5
165
100
AcDbEntity
8
CUTOUTS
100
AcDbLine
10
62.155257427404543
20
-59.39726005991001
30
0
11
59.889157620834787
21
-63.322260059910001
31
0
0
LINE
5
166
100
AcDbEntity
8
CUTOUTS
100
AcDbLine
10
78.460586192263776
20
-74.222260059909999
30
0
11
80.726685998832565
21
-78.14726005991001
31
0
0
LINE
5
167
100
AcDbEntity
8
CUTOUTS
100
AcDbLine
10
80.726685998832565
20
-78.14726005991001
30
0
11
78.460586192263776
21
-82.072260059910008
31
0
0
LINE
5
168
100
AcDbEntity
8
CUTOUTS
100
AcDbLine
10
78.460586192263776
20
-82.072260059910008
30
0
11
73.928386579125217
21
-82.072260059910008
31
0
0
LINE
5
169
100
AcDbEntity
8
CUTOUTS
100
AcDbLine
10
73.928386579125217
20
-82.072260059910008
30
0
11
71.662286772555447
21
-78.147260059909996
31
0
0
LINE
5
16A
100
AcDbEntity
8
CUTOUTS
100
AcDbLine
10
71.662286772555447
20
-78.147260059909996
30
0
11
73.928386579125217
21
-74.222260059909999
31
0
0
LINE
5
16B
100
AcDbEntity
8
CUTOUTS
100
AcDbLine
10
73.928386579125217
20
-74.222260059909999
30
0
11
78.460586192263776
21
-74.222260059909999
31
0
0
LINE
5
16C
100
AcDbEntity
8
CUTOUTS
100
AcDbLine
10
97.032014763691762
20
-74.222260059909999
30
0
11
99.298114570261546
21
-78.147260059909996
31
0
0
LINE
5
16D
100
AcDbEntity
8
CUTOUTS
100
AcDbLine
10
99.298114570261546
20
-78.147260059909996
30
0
11
97.032014763691762
21
-82.072260059910008
31
0
0
LINE
5
16E
100
AcDbEntity
8
CUTOUTS
100
AcDbLine
10
97.032014763691762
20
-82.072260059910008
30
0
11
92.499815150553232
21
-82.072260059910008
31
0
0
LINE
5
16F
100
AcDbEntity
8
CUTOUTS
100
AcDbLine
10
92.499815150553232
20
-82.072260059910008
30
0
11
90.233715343984443
21
-78.147260059909996
31
0
0
LINE
5
170
100
AcDbEntity
8
CUTOUTS
100
AcDbLine
10
90.233715343984443
20
-78.147260059909996
30
0
11
92.499815150553232
21
-74.222260059909999
31
0
0
LINE
5
171
100
AcDbEntity
8
CUTOUTS
100
AcDbLine
10
92.499815150553232
20
-74.222260059909999
30
0
11
97.032014763691762
21
-74.222260059909999
31
0
0
LINE
5
172
100
AcDbEntity
8
CUTOUTS
100
AcDbLine
10
73.928386579125217
20
-55.472260059910006
30
0
11
78.460586192263776
21
-55.472260059910006
31
0
0
LINE
5
173
100
AcDbEntity
8
CUTOUTS
100
AcDbLine
10
78.460586192263776
20
-55.472260059910006
30
0
11
80.726685998832565
21
-59.397260059910018
31
0
0
LINE
5
174
100
AcDbEntity
8
CUTOUTS
100
AcDbLine
10
80.726685998832565
20
-59.397260059910018
30
0
11
78.460586192263776
21
-63.322260059910001
31
0
0
LINE
5
175
100
AcDbEntity
8
CUTOUTS
100
AcDbLine
10
78.460586192263776
20
-63.322260059910001
30
0
11
73.928386579125217
21
-63.322260059910001
31
0
0
LINE
5
176
100
AcDbEntity
8
CUTOUTS
100
AcDbLine
10
73.928386579125217
20
-63.322260059910001
30
0
11
71.662286772555461
21
-59.39726005991001
31
0
0
LINE
5
177
100
AcDbEntity
8
CUTOUTS
100
AcDbLine
10
71.662286772555461
20
-59.39726005991001
30
0
11
73.928386579125217
21
-55.472260059910006
31
0
0
LINE
5
178
100
AcDbEntity
8
CUTOUTS
100
AcDbLine
10
97.032014763691791
20
-63.322260059909993
30
0
11
92.499815150553232
21
-63.322260059910001
31
0
0
LINE
5
179
100
AcDbEntity
8
CUTOUTS
100
AcDbLine
10
92.499815150553232
20
-63.322260059910001
30
0
11
90.233715343984443
21
-59.39726005991001
31
0
0
LINE
5
17A
100
AcDbEntity
8
CUTOUTS
100
AcDbLine
10
90.233715343984443
20
-59.39726005991001
30
0
11
92.499815150553232
21
-55.472260059910006
31
0
0
LINE
5
17B
100
AcDbEntity
8
CUTOUTS
100
AcDbLine
10
92.499815150553232
20
-55.472260059910006
30
0
11
97.032014763691762
21
-55.472260059910006
31
0
0
LINE
5
17C
100
AcDbEntity
8
CUTOUTS
100
AcDbLine
10
97.032014763691762
20
-55.472260059910006
30
0
11
99.298114570261546
21
-59.397260059910018
31
0
0
LINE
5
17D
100
AcDbEntity
8
CUTOUTS
100
AcDbLine
10
99.298114570261546
20
-59.397260059910018
30
0
11
97.032014763691791
21
-63.322260059909993
31
0
0
LINE
5
17E
100
AcDbEntity
8
CUTOUTS
100
AcDbLine
10
-14.39655666487921
20
-36.722260059910006
30
0
11
-12.13045685830846
21
-40.64726005991001
31
0
0
LINE
5
17F
100
AcDbEntity
8
CUTOUTS
100
AcDbLine
10
-12.13045685830846
20
-40.64726005991001
30
0
11
-14.39655666487921
21
-44.572260059910001
31
0
0
LINE
5
180
100
AcDbEntity
8
CUTOUTS
100
AcDbLine
10
-14.39655666487921
20
-44.572260059910001
30
0
11
-18.928756278010791
21
-44.572260059910001
31
0
0
LINE
5
181
100
AcDbEntity
8
CUTOUTS
100
AcDbLine
10
-18.928756278010791
20
-44.572260059910001
30
0
11
-21.194856084581538
21
-40.64726005991001
31
0
0
LINE
5
182
100
AcDbEntity
8
CUTOUTS
100
AcDbLine
10
-21.194856084581538
20
-40.64726005991001
30
0
11
-18.928756278010788
21
-36.722260059910006
31
0
0
LINE
5
183
100
AcDbEntity
8
CUTOUTS
100
AcDbLine
10
-18.928756278010788
20
-36.722260059910006
30
0
11
-14.39655666487921
21
-36.722260059910006
31
0
0
LINE
5
184
100
AcDbEntity
8
CUTOUTS
100
AcDbLine
10
4.1748719065487823
20
-36.722260059910006
30
0
11
6.4409717131185484
21
-40.64726005991001
31
0
0
LINE
5
185
100
AcDbEntity
8
CUTOUTS
100
AcDbLine
10
6.4409717131185484
20
-40.64726005991001
30
0
11
4.1748719065487796
21
-44.572260059910001
31
0
0
LINE
5
186
100
AcDbEntity
8
CUTOUTS
100
AcDbLine
10
4.1748719065487796
20
-44.572260059910001
30
0
11
-0.35732770658977342
21
-44.572260059910001
31
0
0
LINE
5
187
100
AcDbEntity
8
CUTOUTS
100
AcDbLine
10
-0.35732770658977336
20
-44.572260059910001
30
0
11
-2.6234275131585583
21
-40.64726005991001
31
0
0
LINE
5
188
100
AcDbEntity
8
CUTOUTS
100
AcDbLine
10
-2.6234275131585583
20
-40.64726005991001
30
0
11
-0.35732770658977314
21
-36.722260059910006
31
0
0
LINE
5
189
100
AcDbEntity
8
CUTOUTS
100
AcDbLine
10
-0.35732770658977314
20
-36.722260059910006
30
0
11
4.1748719065487823
21
-36.722260059910006
31
0
0
LINE
5
18A
100
AcDbEntity
8
CUTOUTS
100
AcDbLine
10
22.746300477977787
20
-36.722260059910006
30
0
11
25.012400284547553
21
-40.64726005991001
31
0
0
LINE
5
18B
100
AcDbEntity
8
CUTOUTS
100
AcDbLine
10
25.012400284547553
20
-40.64726005991001
30
0
11
22.746300477977787
21
-44.572260059910001
31
0
0
LINE
5
18C
100
AcDbEntity
8
CUTOUTS
100
AcDbLine
10
22.746300477977787
20
-44.572260059910001
30
0
11
18.214100864839228
21
-44.572260059910001
31
0
0
LINE
5
18D
100
AcDbEntity
8
CUTOUTS
100
AcDbLine
10
18.214100864839228
20
-44.572260059910001
30
0
11
15.948001058270442
21
-40.64726005991001
31
0
0
LINE
5
18E
100
AcDbEntity
8
CUTOUTS
100
AcDbLine
10
15.948001058270442
20
-40.64726005991001
30
0
11
18.214100864839228
21
-36.722260059910006
31
0
0
LINE
5
18F
100
AcDbEntity
8
CUTOUTS
100
AcDbLine
10
18.214100864839228
20
-36.722260059910006
30
0
11
22.746300477977787
21
-36.722260059910006
31
0
0
LINE
5
190
100
AcDbEntity
8
CUTOUTS
100
AcDbLine
10
-14.39655666487921
20
-25.822260059910004
30
0
11
-18.928756278010791
21
-25.822260059910004
31
0
0
LINE
5
191
100
AcDbEntity
8
CUTOUTS
100
AcDbLine
10
-18.928756278010791
20
-25.822260059910004
30
0
11
-21.194856084581541
21
-21.89726005991
31
0
0
LINE
5
192
100
AcDbEntity
8
CUTOUTS
100
AcDbLine
10
-21.194856084581541
20
-21.89726005991
30
0
11
-18.928756278010791
21
-17.972260059909999
31
0
0
LINE
5
193
100
AcDbEntity
8
CUTOUTS
100
AcDbLine
10
-18.928756278010791
20
-17.972260059909999
30
0
11
-14.396556664879208
21
-17.972260059909999
31
0
0
LINE
5
194
100
AcDbEntity
8
CUTOUTS
100
AcDbLine
10
-14.396556664879208
20
-17.972260059909999
30
0
11
-12.130456858308456
21
-21.89726005991
31
0
0
LINE
5
195
100
AcDbEntity
8
CUTOUTS
100
AcDbLine
10
-12.130456858308456
20
-21.89726005991
30
0
11
-14.39655666487921
21
-25.822260059910004
31
0
0
LINE
5
196
100
AcDbEntity
8
CUTOUTS
100
AcDbLine
10
4.174871906548784
20
-17.972260059909999
30
0
11
6.4409717131185529
21
-21.89726005991
31
0
0
LINE
5
197
100
AcDbEntity
8
CUTOUTS
100
AcDbLine
10
6.4409717131185529
20
-21.89726005991
30
0
11
4.174871906548784
21
-25.822260059910004
31
0
0
LINE
5
198
100
AcDbEntity
8
CUTOUTS
100
AcDbLine
10
4.174871906548784
20
-25.822260059910004
30
0
11
-0.35732770658977453
21
-25.822260059910004
31
0
0
LINE
5
199
100
AcDbEntity
8
CUTOUTS
100
AcDbLine
10
-0.35732770658977453
20
-25.822260059910004
30
0
11
-2.6234275131585627
21
-21.89726005991
31
0
0
LINE
5
19A
100
AcDbEntity
8
CUTOUTS
100
AcDbLine
10
-2.6234275131585627
20
-21.89726005991
30
0
11
-0.35732770658977425
21
-17.972260059909999
31
0
0
LINE
5
19B
100
AcDbEntity
8
CUTOUTS
100
AcDbLine
10
-0.35732770658977425
20
-17.972260059909999
30
0
11
4.174871906548784
21
-17.972260059909999
31
0
0
LINE
5
19C
100
AcDbEntity
8
CUTOUTS
100
AcDbLine
10
18.214100864839224
20
-25.822260059910004
30
0
11
15.948001058270439
21
-21.89726005991
31
0
0
LINE
5
19D
100
AcDbEntity
8
CUTOUTS
100
AcDbLine
10
15.948001058270439
20
-21.89726005991
30
0
11
18.214100864839224
21
-17.972260059909999
31
0
0
LINE
5
19E
100
AcDbEntity
8
CUTOUTS
100
AcDbLine
10
18.214100864839224
20
-17.972260059909999
30
0
11
22.746300477977783
21
-17.972260059909999
31
0
0
LINE
5
19F
100
AcDbEntity
8
CUTOUTS
100
AcDbLine
10
22.746300477977783
20
-17.972260059909999
30
0
11
25.012400284547553
21
-21.89726005991
31
0
0
LINE
5
1A0
100
AcDbEntity
8
CUTOUTS
100
AcDbLine
10
25.012400284547553
20
-21.89726005991
30
0
11
22.746300477977783
21
-25.822260059910004
31
0
0
LINE
5
1A1
100
AcDbEntity
8
CUTOUTS
100
AcDbLine
10
22.746300477977783
20
-25.822260059910004
30
0
11
18.214100864839224
21
-25.822260059910004
31
0
0
LINE
5
1A2
100
AcDbEntity
8
CUTOUTS
100
AcDbLine
10
36.78552943626822
20
-44.572260059910001
30
0
11
34.519429629698458
21
-40.64726005991001
31
0
0
LINE
5
1A3
100
AcDbEntity
8
CUTOUTS
100
AcDbLine
10
34.519429629698458
20
-40.64726005991001
30
0
11
36.78552943626822
21
-36.722260059910006
31
0
0
LINE
5
1A4
100
AcDbEntity
8
CUTOUTS
100
AcDbLine
10
36.78552943626822
20
-36.722260059910006
30
0
11
41.317729049406765
21
-36.722260059910006
31
0
0
LINE
5
1A5
100
AcDbEntity
8
CUTOUTS
100
AcDbLine
10
41.317729049406765
20
-36.722260059910006
30
0
11
43.583828855975554
21
-40.64726005991001
31
0
0
LINE
5
1A6
100
AcDbEntity
8
CUTOUTS
100
AcDbLine
10
43.583828855975554
20
-40.64726005991001
30
0
11
41.317729049406765
21
-44.572260059910001
31
0
0
LINE
5
1A7
100
AcDbEntity
8
CUTOUTS
100
AcDbLine
10
41.317729049406765
20
-44.572260059910001
30
0
11
36.78552943626822
21
-44.572260059910001
31
0
0
LINE
5
1A8
100
AcDbEntity
8
CUTOUTS
100
AcDbLine
10
59.889157620834787
20
-36.722260059910006
30
0
11
62.155257427404543
21
-40.64726005991001
31
0
0
LINE
5
1A9
100
AcDbEntity
8
CUTOUTS
100
AcDbLine
10
62.155257427404543
20
-40.64726005991001
30
0
11
59.889157620834787
21
-44.572260059910001
31
0
0
LINE
5
1AA
100
AcDbEntity
8
CUTOUTS
100
AcDbLine
10
59.889157620834787
20
-44.572260059910001
30
0
11
55.356958007696235
21
-44.572260059910001
31
0
0
LINE
5
1AB
100
AcDbEntity
8
CUTOUTS
100
AcDbLine
10
55.356958007696235
20
-44.572260059910001
30
0
11
53.090858201127453
21
-40.64726005991001
31
0
0
LINE
5
1AC
100
AcDbEntity
8
CUTOUTS
100
AcDbLine
10
53.090858201127453
20
-40.64726005991001
30
0
11
55.356958007696235
21
-36.722260059910006
31
0
0
LINE
5
1AD
100
AcDbEntity
8
CUTOUTS
100
AcDbLine
10
55.356958007696235
20
-36.722260059910006
30
0
11
59.889157620834787
21
-36.722260059910006
31
0
0
LINE
5
1AE
100
AcDbEntity
8
CUTOUTS
100
AcDbLine
10
71.662286772555461
20
-40.64726005991001
30
0
11
73.928386579125217
21
-36.722260059910006
31
0
0
LINE
5
1AF
100
AcDbEntity
8
CUTOUTS
100
AcDbLine
10
73.928386579125217
20
-36.722260059910006
30
0
11
78.460586192263762
21
-36.722260059910006
31
0
0
LINE
5
1B0
100
AcDbEntity
8
CUTOUTS
100
AcDbLine
10
78.460586192263762
20
-36.722260059910006
30
0
11
80.726685998832565
21
-40.647260059910018
31
0
0
LINE
5
1B1
100
AcDbEntity
8
CUTOUTS
100
AcDbLine
10
80.726685998832565
20
-40.647260059910018
30
0
11
78.460586192263776
21
-44.572260059910001
31
0
0
LINE
5
1B2
100
AcDbEntity
8
CUTOUTS
100
AcDbLine
10
78.460586192263776
20
-44.572260059910001
30
0
11
73.928386579125217
21
-44.572260059910001
31
0
0
LINE
5
1B3
100
AcDbEntity
8
CUTOUTS
100
AcDbLine
10
73.928386579125217
20
-44.572260059910001
30
0
11
71.662286772555461
21
-40.64726005991001
31
0
0
LINE
5
1B4
100
AcDbEntity
8
CUTOUTS
100
AcDbLine
10
90.233715343984443
20
-40.64726005991001
30
0
11
92.499815150553232
21
-36.722260059910006
31
0
0
LINE
5
1B5
100
AcDbEntity
8
CUTOUTS
100
AcDbLine
10
92.499815150553232
20
-36.722260059910006
30
0
11
97.032014763691762
21
-36.722260059910006
31
0
0
LINE
5
1B6
100
AcDbEntity
8
CUTOUTS
100
AcDbLine
10
97.032014763691762
20
-36.722260059910006
30
0
11
99.298114570261546
21
-40.64726005991001
31
0
0
LINE
5
1B7
100
AcDbEntity
8
CUTOUTS
100
AcDbLine
10
99.298114570261546
20
-40.64726005991001
30
0
11
97.032014763691762
21
-44.572260059910001
31
0
0
LINE
5
1B8
100
AcDbEntity
8
CUTOUTS
100
AcDbLine
10
97.032014763691762
20
-44.572260059910001
30
0
11
92.499815150553232
21
-44.572260059910001
31
0
0
LINE
5
1B9
100
AcDbEntity
8
CUTOUTS
100
AcDbLine
10
92.499815150553232
20
-44.572260059910001
30
0
11
90.233715343984443
21
-40.64726005991001
31
0
0
LINE
5
1BA
100
AcDbEntity
8
CUTOUTS
100
AcDbLine
10
36.78552943626822
20
-25.822260059910004
30
0
11
34.51942962969845
21
-21.89726005991
31
0
0
LINE
5
1BB
100
AcDbEntity
8
CUTOUTS
100
AcDbLine
10
34.51942962969845
20
-21.89726005991
30
0
11
36.78552943626822
21
-17.972260059909999
31
0
0
LINE
5
1BC
100
AcDbEntity
8
CUTOUTS
100
AcDbLine
10
36.78552943626822
20
-17.972260059909999
30
0
11
41.317729049406779
21
-17.972260059909999
31
0
0
LINE
5
1BD
100
AcDbEntity
8
CUTOUTS
100
AcDbLine
10
41.317729049406779
20
-17.972260059909999
30
0
11
43.583828855975568
21
-21.89726005991
31
0
0
LINE
5
1BE
100
AcDbEntity
8
CUTOUTS
100
AcDbLine
10
43.583828855975568
20
-21.89726005991
30
0
11
41.317729049406779
21
-25.822260059910001
31
0
0
LINE
5
1BF
100
AcDbEntity
8
CUTOUTS
100
AcDbLine
10
41.317729049406779
20
-25.822260059910001
30
0
11
36.78552943626822
21
-25.822260059910004
31
0
0
LINE
5
1C0
100
AcDbEntity
8
CUTOUTS
100
AcDbLine
10
55.356958007696235
20
-25.822260059910004
30
0
11
53.090858201127446
21
-21.89726005991
31
0
0
LINE
5
1C1
100
AcDbEntity
8
CUTOUTS
100
AcDbLine
10
53.090858201127446
20
-21.89726005991
30
0
11
55.356958007696235
21
-17.972260059909996
31
0
0
LINE
5
1C2
100
AcDbEntity
8
CUTOUTS
100
AcDbLine
10
55.356958007696235
20
-17.972260059909996
30
0
11
59.889157620834794
21
-17.972260059909999
31
0
0
LINE
5
1C3
100
AcDbEntity
8
CUTOUTS
100
AcDbLine
10
59.889157620834794
20
-17.972260059909999
30
0
11
62.155257427404564
21
-21.897260059910003
31
0
0
LINE
5
1C4
100
AcDbEntity
8
CUTOUTS
100
AcDbLine
10
62.155257427404564
20
-21.897260059910003
30
0
11
59.889157620834794
21
-25.822260059910004
31
0
0
LINE
5
1C5
100
AcDbEntity
8
CUTOUTS
100
AcDbLine
10
59.889157620834794
20
-25.822260059910004
30
0
11
55.356958007696235
21
-25.822260059910004
31
0
0
LINE
5
1C6
100
AcDbEntity
8
CUTOUTS
100
AcDbLine
10
78.460586192263776
20
-17.972260059909999
30
0
11
80.726685998832565
21
-21.89726005991
31
0
0
LINE
5
1C7
100
AcDbEntity
8
CUTOUTS
100
AcDbLine
10
80.726685998832565
20
-21.89726005991
30
0
11
78.460586192263776
21
-25.822260059910004
31
0
0
LINE
5
1C8
100
AcDbEntity
8
CUTOUTS
100
AcDbLine
10
78.460586192263776
20
-25.822260059910004
30
0
11
73.928386579125217
21
-25.822260059910004
31
0
0
LINE
5
1C9
100
AcDbEntity
8
CUTOUTS
100
AcDbLine
10
73.928386579125217
20
-25.822260059910004
30
0
11
71.662286772555447
21
-21.89726005991
31
0
0
LINE
5
1CA
100
AcDbEntity
8
CUTOUTS
100
AcDbLine
10
71.662286772555447
20
-21.89726005991
30
0
11
73.928386579125217
21
-17.972260059909996
31
0
0
LINE
5
1CB
100
AcDbEntity
8
CUTOUTS
100
AcDbLine
10
73.928386579125217
20
-17.972260059909996
30
0
11
78.460586192263776
21
-17.972260059909999
31
0
0
LINE
5
1CC
100
AcDbEntity
8
CUTOUTS
100
AcDbLine
10
97.032014763691762
20
-17.972260059909999
30
0
11
99.298114570261546
21
-21.89726005991
31
0
0
LINE
5
1CD
100
AcDbEntity
8
CUTOUTS
100
AcDbLine
10
99.298114570261546
20
-21.89726005991
30
0
11
97.032014763691762
21
-25.822260059910008
31
0
0
LINE
5
1CE
100
AcDbEntity
8
CUTOUTS
100
AcDbLine
10
97.032014763691762
20
-25.822260059910008
30
0
11
92.499815150553232
21
-25.822260059910004
31
0
0
LINE
5
1CF
100
AcDbEntity
8
CUTOUTS
100
AcDbLine
10
92.499815150553232
20
-25.822260059910004
30
0
11
90.233715343984443
21
-21.89726005991
31
0
0
LINE
5
1D0
100
AcDbEntity
8
CUTOUTS
100
AcDbLine
10
90.233715343984443
20
-21.89726005991
30
0
11
92.499815150553232
21
-17.972260059909996
31
0
0
LINE
5
1D1
100
AcDbEntity
8
CUTOUTS
100
AcDbLine
10
92.499815150553232
20
-17.972260059909996
30
0
11
97.032014763691762
21
-17.972260059909999
31
0
0
LINE
5
1D2
100
AcDbEntity
8
PERIMETER
100
AcDbLine
10
105.79354137503002
20
-114.97226005990001
30
0
11
105.79354137503002
21
-14.822260059910004
31
0
0
LINE
5
1D3
100
AcDbEntity
8
PERIMETER
100
AcDbLine
10
105.79354137503002
20
-14.822260059910004
30
0
11
-24.356458624960009
21
-14.822260059910001
31
0
0
LINE
5
1D4
100
AcDbEntity
8
PERIMETER
100
AcDbLine
10
-24.356458624960009
20
-14.822260059910001
30
0
11
-24.356458624960005
21
-114.97226005990001
31
0
0
LINE
5
1D5
100
AcDbEntity
8
PERIMETER
100
AcDbLine
10
-24.356458624960005
20
-114.97226005990001
30
0
11
105.79354137503002
21
-114.97226005990001
31
0
0
ENDSEC
0
SECTION
2
OBJECTS
0
DICTIONARY
5
C
100
AcDbDictionary
3
ACAD_GROUP
350
D
3
ACAD_MLINESTYLE
350
17
0
DICTIONARY
5
D
100
AcDbDictionary
0
DICTIONARY
5
1A
330
C
100
AcDbDictionary
0
DICTIONARY
5
17
100
AcDbDictionary
0
ENDSEC
0
EOF
