0
SECTION
2
HEADER
9
$INSUNITS
70
4
9
$ACADVER
1
AC1014
9
$HANDSEED
5
FFFF
0
ENDSEC
0
SECTION
2
TABLES
0
TABLE
2
VPORT
5
8
100
AcDbSymbolTable
0
ENDTAB
0
TABLE
2
LTYPE
5
5
100
AcDbSymbolTable
70
2
0
LTYPE
5
14
100
AcDbSymbolTableRecord
100
AcDbLinetypeTableRecord
2
BYBLOCK
70
0
0
LTYPE
5
15
100
AcDbSymbolTableRecord
100
AcDbLinetypeTableRecord
2
BYLAYER
70
0
0
ENDTAB
0
TABLE
2
LAYER
5
2
100
AcDbSymbolTable
70
3
0
LAYER
5
50
100
AcDbSymbolTableRecord
100
AcDbLayerTableRecord
2
0
70
0
6
CONTINUOUS
0
LAYER
5
51
100
AcDbSymbolTableRecord
100
AcDbLayerTableRecord
2
CUTOUTS
70
0
62
1
6
CONTINUOUS
0
LAYER
5
52
100
AcDbSymbolTableRecord
100
AcDbLayerTableRecord
2
PERIMETER
70
0
62
5
6
CONTINUOUS
0
ENDTAB
0
TABLE
2
STYLE
5
3
100
AcDbSymbolTable
70
1
0
STYLE
5
11
100
AcDbSymbolTableRecord
100
AcDbTextStyleTableRecord
2
STANDARD
70
0
0
ENDTAB
0
TABLE
2
VIEW
5
6
100
AcDbSymbolTable
0
ENDTAB
0
TABLE
2
UCS
5
7
100
AcDbSymbolTable
0
ENDTAB
0
TABLE
2
APPID
5
9
100
AcDbSymbolTable
70
1
0
APPID
5
12
100
AcDbSymbolTableRecord
100
AcDbRegAppTableRecord
2
ACAD
70
0
0
ENDTAB
0
TABLE
2
DIMSTYLE
5
A
100
AcDbSymbolTable
0
ENDTAB
0
TABLE
2
BLOCK_RECORD
5
1
100
AcDbSymbolTable
70
2
0
BLOCK_RECORD
5
1F
100
AcDbSymbolTableRecord
100
AcDbBlockTableRecord
2
*MODEL_SPACE
0
BLOCK_RECORD
5
1B
100
AcDbSymbolTableRecord
100
AcDbBlockTableRecord
2
*PAPER_SPACE
0
ENDTAB
0
ENDSEC
0
SECTION
2
BLOCKS
0
BLOCK
5
20
100
AcDbEntity
100
AcDbBlockBegin
2
*MODEL_SPACE
0
ENDBLK
5
21
100
AcDbEntity
100
AcDbBlockEnd
0
BLOCK
5
1C
100
AcDbEntity
100
AcDbBlockBegin
2
*PAPER_SPACE
0
ENDBLK
5
1D
100
AcDbEntity
100
AcDbBlockEnd
0
ENDSEC
0
SECTION
2
ENTITIES
0
LINE
5
100
100
AcDbEntity
8
CUTOUTS
100
AcDbLine
10
-14.416763924300842
20
-93.007260059909981
30
0
11
-12.170871377151769
21
-96.897260059909939
31
0
0
LINE
5
101
100
AcDbEntity
8
CUTOUTS
100
AcDbLine
10
-12.170871377151769
20
-96.897260059909939
30
0
11
-14.416763924300753
21
-100.78726005990004
31
0
0
LINE
5
102
100
AcDbEntity
8
CUTOUTS
100
AcDbLine
10
-14.416763924300753
20
-100.78726005990004
30
0
11
-18.908549018589248
21
-100.78726005990004
31
0
0
LINE
5
103
100
AcDbEntity
8
CUTOUTS
100
AcDbLine
10
-18.908549018589248
20
-100.78726005990004
30
0
11
-21.154441565738232
21
-96.897260059909925
31
0
0
LINE
5
104
100
AcDbEntity
8
CUTOUTS
100
AcDbLine
10
-21.154441565738232
20
-96.897260059909925
30
0
11
-18.908549018589159
21
-93.007260059909981
31
0
0
LINE
5
105
100
AcDbEntity
8
CUTOUTS
100
AcDbLine
10
-18.908549018589159
20
-93.007260059909981
30
0
11
-14.416763924300842
21
-93.007260059909981
31
0
0
LINE
5
106
100
AcDbEntity
8
CUTOUTS
100
AcDbLine
10
4.1546646471272357
20
-100.78726005990004
30
0
11
-0.33712044716822098
21
-100.78726005990004
31
0
0
LINE
5
107
100
AcDbEntity
8
CUTOUTS
100
AcDbLine
10
-0.33712044716822087
20
-100.78726005990004
30
0
11
-2.5830129943152622
21
-96.897260059909925
31
0
0
LINE
5
108
100
AcDbEntity
8
CUTOUTS
100
AcDbLine
10
-2.5830129943152622
20
-96.897260059909925
30
0
11
-0.33712044716814354
21
-93.007260059909981
31
0
0
LINE
5
109
100
AcDbEntity
8
CUTOUTS
100
AcDbLine
10
-0.33712044716814354
20
-93.007260059909981
30
0
11
4.1546646471271576
21
-93.007260059909981
31
0
0
LINE
5
10A
100
AcDbEntity
8
CUTOUTS
100
AcDbLine
10
4.1546646471271576
20
-93.007260059909981
30
0
11
6.4005571942752493
21
-96.897260059909925
31
0
0
LINE
5
10B
100
AcDbEntity
8
CUTOUTS
100
AcDbLine
10
6.4005571942752493
20
-96.897260059909925
30
0
11
4.1546646471272357
21
-100.78726005990004
31
0
0
LINE
5
10C
100
AcDbEntity
8
CUTOUTS
100
AcDbLine
10
22.726093218556159
20
-93.007260059909981
30
0
11
24.971985765704247
21
-96.897260059909925
31
0
0
LINE
5
10D
100
AcDbEntity
8
CUTOUTS
100
AcDbLine
10
24.971985765704247
20
-96.897260059909925
30
0
11
22.72609321855624
21
-100.78726005990004
31
0
0
LINE
5
10E
100
AcDbEntity
8
CUTOUTS
100
AcDbLine
10
22.72609321855624
20
-100.78726005990004
30
0
11
18.234308124260778
21
-100.78726005990004
31
0
0
LINE
5
10F
100
AcDbEntity
8
CUTOUTS
100
AcDbLine
10
18.234308124260778
20
-100.78726005990004
30
0
11
15.98841557711374
21
-96.897260059909925
31
0
0
LINE
5
110
100
AcDbEntity
8
CUTOUTS
100
AcDbLine
10
15.98841557711374
20
-96.897260059909925
30
0
11
18.234308124260856
21
-93.007260059909981
31
0
0
LINE
5
111
100
AcDbEntity
8
CUTOUTS
100
AcDbLine
10
18.234308124260856
20
-93.007260059909981
30
0
11
22.726093218556159
21
-93.007260059909981
31
0
0
LINE
5
112
100
AcDbEntity
8
CUTOUTS
100
AcDbLine
10
-14.416763924300835
20
-74.257260059909981
30
0
11
-12.17087137715173
21
-78.147260059909996
31
0
0
LINE
5
113
100
AcDbEntity
8
CUTOUTS
100
AcDbLine
10
-12.17087137715173
20
-78.147260059909996
30
0
11
-14.416763924300835
21
-82.037260059910011
31
0
0
LINE
5
114
100
AcDbEntity
8
CUTOUTS
100
AcDbLine
10
-14.416763924300835
20
-82.037260059910011
30
0
11
-18.908549018589159
21
-82.037260059910011
31
0
0
LINE
5
115
100
AcDbEntity
8
CUTOUTS
100
AcDbLine
10
-18.908549018589159
20
-82.037260059910011
30
0
11
-21.154441565738267
21
-78.147260059909996
31
0
0
LINE
5
116
100
AcDbEntity
8
CUTOUTS
100
AcDbLine
10
-21.154441565738267
20
-78.147260059909996
30
0
11
-18.908549018589166
21
-74.257260059909981
31
0
0
LINE
5
117
100
AcDbEntity
8
CUTOUTS
100
AcDbLine
10
-18.908549018589166
20
-74.257260059909981
30
0
11
-14.416763924300835
21
-74.257260059909981
31
0
0
LINE
5
118
100
AcDbEntity
8
CUTOUTS
100
AcDbLine
10
4.1546646471271522
20
-74.257260059909981
30
0
11
6.4005571942752848
21
-78.147260059909996
31
0
0
LINE
5
119
100
AcDbEntity
8
CUTOUTS
100
AcDbLine
10
6.4005571942752848
20
-78.147260059909996
30
0
11
4.1546646471271522
21
-82.037260059910011
31
0
0
LINE
5
11A
100
AcDbEntity
8
CUTOUTS
100
AcDbLine
10
4.1546646471271522
20
-82.037260059910011
30
0
11
-0.33712044716814382
21
-82.037260059910011
31
0
0
LINE
5
11B
100
AcDbEntity
8
CUTOUTS
100
AcDbLine
10
-0.33712044716814371
20
-82.037260059910011
30
0
11
-2.5830129943152986
21
-78.14726005991001
31
0
0
LINE
5
11C
100
AcDbEntity
8
CUTOUTS
100
AcDbLine
10
-2.5830129943152986
20
-78.14726005991001
30
0
11
-0.33712044716813827
21
-74.257260059909981
31
0
0
LINE
5
11D
100
AcDbEntity
8
CUTOUTS
100
AcDbLine
10
-0.33712044716813827
20
-74.257260059909981
30
0
11
4.1546646471271522
21
-74.257260059909981
31
0
0
LINE
5
11E
100
AcDbEntity
8
CUTOUTS
100
AcDbLine
10
-14.416763924300842
20
-55.50726005991001
30
0
11
-12.170871377151741
21
-59.39726005991001
31
0
0
LINE
5
11F
100
AcDbEntity
8
CUTOUTS
100
AcDbLine
10
-12.170871377151741
20
-59.39726005991001
30
0
11
-14.416763924300842
21
-63.287260059910004
31
0
0
LINE
5
120
100
AcDbEntity
8
CUTOUTS
100
AcDbLine
10
-14.416763924300842
20
-63.287260059910004
30
0
11
-18.908549018589159
21
-63.287260059910004
31
0
0
LINE
5
121
100
AcDbEntity
8
CUTOUTS
100
AcDbLine
10
-18.908549018589159
20
-63.287260059910004
30
0
11
-21.154441565738257
21
-59.39726005991001
31
0
0
LINE
5
122
100
AcDbEntity
8
CUTOUTS
100
AcDbLine
10
-21.154441565738257
20
-59.39726005991001
30
0
11
-18.908549018589159
21
-55.50726005991001
31
0
0
LINE
5
123
100
AcDbEntity
8
CUTOUTS
100
AcDbLine
10
-18.908549018589159
20
-55.50726005991001
30
0
11
-14.416763924300842
21
-55.50726005991001
31
0
0
LINE
5
124
100
AcDbEntity
8
CUTOUTS
100
AcDbLine
10
4.1546646471271496
20
-55.50726005991001
30
0
11
6.4005571942752724
21
-59.397260059909996
31
0
0
LINE
5
125
100
AcDbEntity
8
CUTOUTS
100
AcDbLine
10
6.4005571942752724
20
-59.397260059909996
30
0
11
4.1546646471271451
21
-63.287260059910004
31
0
0
LINE
5
126
100
AcDbEntity
8
CUTOUTS
100
AcDbLine
10
4.1546646471271451
20
-63.287260059910004
30
0
11
-0.33712044716813605
21
-63.287260059910004
31
0
0
LINE
5
127
100
AcDbEntity
8
CUTOUTS
100
AcDbLine
10
-0.33712044716813611
20
-63.287260059910004
30
0
11
-2.5830129943152897
21
-59.39726005991001
31
0
0
LINE
5
128
100
AcDbEntity
8
CUTOUTS
100
AcDbLine
10
-2.5830129943152897
20
-59.39726005991001
30
0
11
-0.33712044716813605
21
-55.50726005991001
31
0
0
LINE
5
129
100
AcDbEntity
8
CUTOUTS
100
AcDbLine
10
-0.33712044716813605
20
-55.50726005991001
30
0
11
4.1546646471271496
21
-55.50726005991001
31
0
0
LINE
5
12A
100
AcDbEntity
8
CUTOUTS
100
AcDbLine
10
22.726093218556155
20
-74.257260059909981
30
0
11
24.971985765704282
21
-78.147260059909996
31
0
0
LINE
5
12B
100
AcDbEntity
8
CUTOUTS
100
AcDbLine
10
24.971985765704282
20
-78.147260059909996
30
0
11
22.726093218556155
21
-82.037260059910011
31
0
0
LINE
5
12C
100
AcDbEntity
8
CUTOUTS
100
AcDbLine
10
22.726093218556155
20
-82.037260059910011
30
0
11
18.234308124260856
21
-82.037260059910011
31
0
0
LINE
5
12D
100
AcDbEntity
8
CUTOUTS
100
AcDbLine
10
18.234308124260856
20
-82.037260059910011
30
0
11
15.988415577113704
21
-78.14726005991001
31
0
0
LINE
5
12E
100
AcDbEntity
8
CUTOUTS
100
AcDbLine
10
15.988415577113704
20
-78.14726005991001
30
0
11
18.23430812426086
21
-74.257260059909981
31
0
0
LINE
5
12F
100
AcDbEntity
8
CUTOUTS
100
AcDbLine
10
18.23430812426086
20
-74.257260059909981
30
0
11
22.726093218556155
21
-74.257260059909981
31
0
0
LINE
5
130
100
AcDbEntity
8
CUTOUTS
100
AcDbLine
10
22.726093218556155
20
-55.50726005991001
30
0
11
24.971985765704279
21
-59.39726005991001
31
0
0
LINE
5
131
100
AcDbEntity
8
CUTOUTS
100
AcDbLine
10
24.971985765704279
20
-59.39726005991001
30
0
11
22.726093218556155
21
-63.287260059910004
31
0
0
LINE
5
132
100
AcDbEntity
8
CUTOUTS
100
AcDbLine
10
22.726093218556155
20
-63.287260059910004
30
0
11
18.234308124260863
21
-63.287260059910004
31
0
0
LINE
5
133
100
AcDbEntity
8
CUTOUTS
100
AcDbLine
10
18.234308124260863
20
-63.287260059910004
30
0
11
15.988415577113713
21
-59.39726005991001
31
0
0
LINE
5
134
100
AcDbEntity
8
CUTOUTS
100
AcDbLine
10
15.988415577113713
20
-59.39726005991001
30
0
11
18.234308124260863
21
-55.50726005991001
31
0
0
LINE
5
135
100
AcDbEntity
8
CUTOUTS
100
AcDbLine
10
18.234308124260863
20
-55.50726005991001
30
0
11
22.726093218556155
21
-55.50726005991001
31
0
0
LINE
5
136
100
AcDbEntity
8
CUTOUTS
100
AcDbLine
10
41.29752178998514
20
-93.007260059909981
30
0
11
43.543414337132262
21
-96.897260059909925
31
0
0
LINE
5
137
100
AcDbEntity
8
CUTOUTS
100
AcDbLine
10
43.543414337132262
20
-96.897260059909925
30
0
11
41.297521789985218
21
-100.78726005990004
31
0
0
LINE
5
138
100
AcDbEntity
8
CUTOUTS
100
AcDbLine
10
41.297521789985218
20
-100.78726005990004
30
0
11
36.805736695689767
21
-100.78726005990004
31
0
0
LINE
5
139
100
AcDbEntity
8
CUTOUTS
100
AcDbLine
10
36.805736695689767
20
-100.78726005990004
30
0
11
34.55984414854175
21
-96.897260059909925
31
0
0
LINE
5
13A
100
AcDbEntity
8
CUTOUTS
100
AcDbLine
10
34.55984414854175
20
-96.897260059909925
30
0
11
36.805736695689845
21
-93.007260059909981
31
0
0
LINE
5
13B
100
AcDbEntity
8
CUTOUTS
100
AcDbLine
10
36.805736695689845
20
-93.007260059909981
30
0
11
41.29752178998514
21
-93.007260059909981
31
0
0
LINE
5
13C
100
AcDbEntity
8
CUTOUTS
100
AcDbLine
10
55.377165267117789
20
-100.78726005990004
30
0
11
53.131272719970745
21
-96.897260059909925
31
0
0
LINE
5
13D
100
AcDbEntity
8
CUTOUTS
100
AcDbLine
10
53.131272719970745
20
-96.897260059909925
30
0
11
55.377165267117867
21
-93.007260059909981
31
0
0
LINE
5
13E
100
AcDbEntity
8
CUTOUTS
100
AcDbLine
10
55.377165267117867
20
-93.007260059909981
30
0
11
59.868950361413162
21
-93.007260059909981
31
0
0
LINE
5
13F
100
AcDbEntity
8
CUTOUTS
100
AcDbLine
10
59.868950361413162
20
-93.007260059909981
30
0
11
62.114842908561258
21
-96.897260059909925
31
0
0
LINE
5
140
100
AcDbEntity
8
CUTOUTS
100
AcDbLine
10
62.114842908561258
20
-96.897260059909925
30
0
11
59.868950361413233
21
-100.78726005990004
31
0
0
LINE
5
141
100
AcDbEntity
8
CUTOUTS
100
AcDbLine
10
59.868950361413233
20
-100.78726005990004
30
0
11
55.377165267117789
21
-100.78726005990004
31
0
0
LINE
5
142
100
AcDbEntity
8
CUTOUTS
100
AcDbLine
10
78.440378932842137
20
-93.007260059909981
30
0
11
80.686271479989259
21
-96.897260059909925
31
0
0
LINE
5
143
100
AcDbEntity
8
CUTOUTS
100
AcDbLine
10
80.686271479989259
20
-96.897260059909925
30
0
11
78.440378932842222
21
-100.78726005990004
31
0
0
LINE
5
144
100
AcDbEntity
8
CUTOUTS
100
AcDbLine
10
78.440378932842222
20
-100.78726005990004
30
0
11
73.94859383854677
21
-100.78726005990004
31
0
0
LINE
5
145
100
AcDbEntity
8
CUTOUTS
100
AcDbLine
10
73.94859383854677
20
-100.78726005990004
30
0
11
71.702701291398753
21
-96.897260059909925
31
0
0
LINE
5
146
100
AcDbEntity
8
CUTOUTS
100
AcDbLine
10
71.702701291398753
20
-96.897260059909925
30
0
11
73.948593838546842
21
-93.007260059909981
31
0
0
LINE
5
147
100
AcDbEntity
8
CUTOUTS
100
AcDbLine
10
73.948593838546842
20
-93.007260059909981
30
0
11
78.440378932842137
21
-93.007260059909981
31
0
0
LINE
5
148
100
AcDbEntity
8
CUTOUTS
100
AcDbLine
10
97.011807504270138
20
-93.007260059909981
30
0
11
99.257700051418254
21
-96.897260059909939
31
0
0
LINE
5
149
100
AcDbEntity
8
CUTOUTS
100
AcDbLine
10
99.257700051418254
20
-96.897260059909939
30
0
11
97.011807504270251
21
-100.78726005990004
31
0
0
LINE
5
14A
100
AcDbEntity
8
CUTOUTS
100
AcDbLine
10
97.011807504270251
20
-100.78726005990004
30
0
11
92.520022409974771
21
-100.78726005990004
31
0
0
LINE
5
14B
100
AcDbEntity
8
CUTOUTS
100
AcDbLine
10
92.520022409974771
20
-100.78726005990004
30
0
11
90.274129862827749
21
-96.897260059909925
31
0
0
LINE
5
14C
100
AcDbEntity
8
CUTOUTS
100
AcDbLine
10
90.274129862827749
20
-96.897260059909925
30
0
11
92.520022409974857
21
-93.007260059909981
31
0
0
LINE
5
14D
100
AcDbEntity
8
CUTOUTS
100
AcDbLine
10
92.520022409974857
20
-93.007260059909981
30
0
11
97.011807504270138
21
-93.007260059909981
31
0
0
LINE
5
14E
100
AcDbEntity
8
CUTOUTS
100
AcDbLine
10
41.29752178998514
20
-74.257260059909981
30
0
11
43.543414337132297
21
-78.147260059909996
31
0
0
LINE
5
14F
100
AcDbEntity
8
CUTOUTS
100
AcDbLine
10
43.543414337132297
20
-78.147260059909996
30
0
11
41.29752178998514
21
-82.037260059910011
31
0
0
LINE
5
150
100
AcDbEntity
8
CUTOUTS
100
AcDbLine
10
41.29752178998514
20
-82.037260059910011
30
0
11
36.805736695689845
21
-82.037260059910011
31
0
0
LINE
5
151
100
AcDbEntity
8
CUTOUTS
100
AcDbLine
10
36.805736695689845
20
-82.037260059910011
30
0
11
34.559844148541714
21
-78.147260059909996
31
0
0
LINE
5
152
100
AcDbEntity
8
CUTOUTS
100
AcDbLine
10
34.559844148541714
20
-78.147260059909996
30
0
11
36.805736695689852
21
-74.257260059909981
31
0
0
LINE
5
153
100
AcDbEntity
8
CUTOUTS
100
AcDbLine
10
36.805736695689852
20
-74.257260059909981
30
0
11
41.29752178998514
21
-74.257260059909981
31
0
0
LINE
5
154
100
AcDbEntity
8
CUTOUTS
100
AcDbLine
10
59.868950361413162
20
-74.257260059909981
30
0
11
62.114842908561286
21
-78.147260059909996
31
0
0
LINE
5
155
100
AcDbEntity
8
CUTOUTS
100
AcDbLine
10
62.114842908561286
20
-78.147260059909996
30
0
11
59.868950361413162
21
-82.037260059910011
31
0
0
LINE
5
156
100
AcDbEntity
8
CUTOUTS
100
AcDbLine
10
59.868950361413162
20
-82.037260059910011
30
0
11
55.377165267117867
21
-82.037260059910011
31
0
0
LINE
5
157
100
AcDbEntity
8
CUTOUTS
100
AcDbLine
10
55.377165267117867
20
-82.037260059910011
30
0
11
53.13127271997071
21
-78.14726005991001
31
0
0
LINE
5
158
100
AcDbEntity
8
CUTOUTS
100
AcDbLine
10
53.13127271997071
20
-78.14726005991001
30
0
11
55.377165267117874
21
-74.257260059909981
31
0
0
LINE
5
159
100
AcDbEntity
8
CUTOUTS
100
AcDbLine
10
55.377165267117874
20
-74.257260059909981
30
0
11
59.868950361413162
21
-74.257260059909981
31
0
0
LINE
5
15A
100
AcDbEntity
8
CUTOUTS
100
AcDbLine
10
41.29752178998514
20
-55.50726005991001
30
0
11
43.543414337132297
21
-59.39726005991001
31
0
0
LINE
5
15B
100
AcDbEntity
8
CUTOUTS
100
AcDbLine
10
43.543414337132297
20
-59.39726005991001
30
0
11
41.29752178998514
21
-63.287260059910004
31
0
0
LINE
5
15C
100
AcDbEntity
8
CUTOUTS
100
AcDbLine
10
41.29752178998514
20
-63.287260059910004
30
0
11
36.805736695689852
21
-63.287260059910004
31
0
0
LINE
5
15D
100
AcDbEntity
8
CUTOUTS
100
AcDbLine
10
36.805736695689852
20
-63.287260059910004
30
0
11
34.559844148541728
21
-59.39726005991001
31
0
0
LINE
5
15E
100
AcDbEntity
8
CUTOUTS
100
AcDbLine
10
34.559844148541728
20
-59.39726005991001
30
0
11
36.805736695689852
21
-55.50726005991001
31
0
0
LINE
5
15F
100
AcDbEntity
8
CUTOUTS
100
AcDbLine
10
36.805736695689852
20
-55.50726005991001
30
0
11
41.29752178998514
21
-55.50726005991001
31
0
0
LINE
5
160
100
AcDbEntity
8
CUTOUTS
100
AcDbLine
10
62.114842908561279
20
-59.39726005991001
30
0
11
59.868950361413155
21
-63.287260059910004
31
0
0
LINE
5
161
100
AcDbEntity
8
CUTOUTS
100
AcDbLine
10
59.868950361413155
20
-63.287260059910004
30
0
11
55.377165267117867
21
-63.287260059910004
31
0
0
LINE
5
162
100
AcDbEntity
8
CUTOUTS
100
AcDbLine
10
55.377165267117867
20
-63.287260059910004
30
0
11
53.13127271997071
21
-59.39726005991001
31
0
0
LINE
5
163
100
AcDbEntity
8
CUTOUTS
100
AcDbLine
10
53.13127271997071
20
-59.39726005991001
30
0
11
55.377165267117867
21
-55.50726005991001
31
0
0
LINE
5
164
100
AcDbEntity
8
CUTOUTS
100
AcDbLine
10
55.377165267117867
20
-55.50726005991001
30
0
11
59.868950361413155
21
-55.50726005991001
31
0
0
LINE
5
165
100
AcDbEntity
8
CUTOUTS
100
AcDbLine
10
59.868950361413155
20
-55.50726005991001
30
0
11
62.114842908561279
21
-59.39726005991001
31
0
0
LINE
5
166
100
AcDbEntity
8
CUTOUTS
100
AcDbLine
10
71.702701291398711
20
-78.147260059909996
30
0
11
73.948593838546842
21
-74.257260059909981
31
0
0
LINE
5
167
100
AcDbEntity
8
CUTOUTS
100
AcDbLine
10
73.948593838546842
20
-74.257260059909981
30
0
11
78.440378932842123
21
-74.257260059909981
31
0
0
LINE
5
168
100
AcDbEntity
8
CUTOUTS
100
AcDbLine
10
78.440378932842123
20
-74.257260059909981
30
0
11
80.686271479989301
21
-78.14726005991001
31
0
0
LINE
5
169
100
AcDbEntity
8
CUTOUTS
100
AcDbLine
10
80.686271479989301
20
-78.14726005991001
30
0
11
78.440378932842137
21
-82.037260059910011
31
0
0
LINE
5
16A
100
AcDbEntity
8
CUTOUTS
100
AcDbLine
10
78.440378932842137
20
-82.037260059910011
30
0
11
73.948593838546842
21
-82.037260059910011
31
0
0
LINE
5
16B
100
AcDbEntity
8
CUTOUTS
100
AcDbLine
10
73.948593838546842
20
-82.037260059910011
30
0
11
71.702701291398711
21
-78.147260059909996
31
0
0
LINE
5
16C
100
AcDbEntity
8
CUTOUTS
100
AcDbLine
10
97.011807504270138
20
-74.257260059909981
30
0
11
99.257700051418283
21
-78.14726005991001
31
0
0
LINE
5
16D
100
AcDbEntity
8
CUTOUTS
100
AcDbLine
10
99.257700051418283
20
-78.14726005991001
30
0
11
97.011807504270152
21
-82.037260059910011
31
0
0
LINE
5
16E
100
AcDbEntity
8
CUTOUTS
100
AcDbLine
10
97.011807504270152
20
-82.037260059910011
30
0
11
92.520022409974843
21
-82.037260059910011
31
0
0
LINE
5
16F
100
AcDbEntity
8
CUTOUTS
100
AcDbLine
10
92.520022409974843
20
-82.037260059910011
30
0
11
90.274129862827692
21
-78.147260059909996
31
0
0
LINE
5
170
100
AcDbEntity
8
CUTOUTS
100
AcDbLine
10
90.274129862827692
20
-78.147260059909996
30
0
11
92.520022409974857
21
-74.257260059909996
31
0
0
LINE
5
171
100
AcDbEntity
8
CUTOUTS
100
AcDbLine
10
92.520022409974857
20
-74.257260059909996
30
0
11
97.011807504270138
21
-74.257260059909981
31
0
0
LINE
5
172
100
AcDbEntity
8
CUTOUTS
100
AcDbLine
10
78.440378932842137
20
-55.50726005991001
30
0
11
80.686271479989301
21
-59.397260059909996
31
0
0
LINE
5
173
100
AcDbEntity
8
CUTOUTS
100
AcDbLine
10
80.686271479989301
20
-59.397260059909996
30
0
11
78.440378932842123
21
-63.287260059910004
31
0
0
LINE
5
174
100
AcDbEntity
8
CUTOUTS
100
AcDbLine
10
78.440378932842123
20
-63.287260059910004
30
0
11
73.948593838546856
21
-63.287260059910004
31
0
0
LINE
5
175
100
AcDbEntity
8
CUTOUTS
100
AcDbLine
10
73.948593838546856
20
-63.287260059910004
30
0
11
71.702701291398725
21
-59.397260059909996
31
0
0
LINE
5
176
100
AcDbEntity
8
CUTOUTS
100
AcDbLine
10
71.702701291398725
20
-59.397260059909996
30
0
11
73.948593838546842
21
-55.50726005991001
31
0
0
LINE
5
177
100
AcDbEntity
8
CUTOUTS
100
AcDbLine
10
73.948593838546842
20
-55.50726005991001
30
0
11
78.440378932842137
21
-55.50726005991001
31
0
0
LINE
5
178
100
AcDbEntity
8
CUTOUTS
100
AcDbLine
10
92.520022409974857
20
-63.287260059910004
30
0
11
90.274129862827721
21
-59.39726005991001
31
0
0
LINE
5
179
100
AcDbEntity
8
CUTOUTS
100
AcDbLine
10
90.274129862827721
20
-59.39726005991001
30
0
11
92.520022409974871
21
-55.50726005991001
31
0
0
LINE
5
17A
100
AcDbEntity
8
CUTOUTS
100
AcDbLine
10
92.520022409974871
20
-55.50726005991001
30
0
11
97.011807504270138
21
-55.50726005991001
31
0
0
LINE
5
17B
100
AcDbEntity
8
CUTOUTS
100
AcDbLine
10
97.011807504270138
20
-55.50726005991001
30
0
11
99.257700051418283
21
-59.397260059910018
31
0
0
LINE
5
17C
100
AcDbEntity
8
CUTOUTS
100
AcDbLine
10
99.257700051418283
20
-59.397260059910018
30
0
11
97.011807504270152
21
-63.287260059909997
31
0
0
LINE
5
17D
100
AcDbEntity
8
CUTOUTS
100
AcDbLine
10
97.011807504270152
20
-63.287260059909997
30
0
11
92.520022409974857
21
-63.287260059910004
31
0
0
LINE
5
17E
100
AcDbEntity
8
CUTOUTS
100
AcDbLine
10
-14.41676392430084
20
-36.75726005991001
30
0
11
-12.170871377151739
21
-40.64726005991001
31
0
0
LINE
5
17F
100
AcDbEntity
8
CUTOUTS
100
AcDbLine
10
-12.170871377151739
20
-40.64726005991001
30
0
11
-14.416763924300842
21
-44.537260059910004
31
0
0
LINE
5
180
100
AcDbEntity
8
CUTOUTS
100
AcDbLine
10
-14.416763924300842
20
-44.537260059910004
30
0
11
-18.908549018589159
21
-44.537260059910004
31
0
0
LINE
5
181
100
AcDbEntity
8
CUTOUTS
100
AcDbLine
10
-18.908549018589159
20
-44.537260059910004
30
0
11
-21.154441565738257
21
-40.64726005991001
31
0
0
LINE
5
182
100
AcDbEntity
8
CUTOUTS
100
AcDbLine
10
-21.154441565738257
20
-40.64726005991001
30
0
11
-18.908549018589159
21
-36.75726005991001
31
0
0
LINE
5
183
100
AcDbEntity
8
CUTOUTS
100
AcDbLine
10
-18.908549018589159
20
-36.75726005991001
30
0
11
-14.41676392430084
21
-36.75726005991001
31
0
0
LINE
5
184
100
AcDbEntity
8
CUTOUTS
100
AcDbLine
10
-0.33712044716813611
20
-44.537260059910004
30
0
11
-2.5830129943152897
21
-40.64726005991001
31
0
0
LINE
5
185
100
AcDbEntity
8
CUTOUTS
100
AcDbLine
10
-2.5830129943152897
20
-40.64726005991001
30
0
11
-0.33712044716813605
21
-36.75726005991001
31
0
0
LINE
5
186
100
AcDbEntity
8
CUTOUTS
100
AcDbLine
10
-0.33712044716813605
20
-36.75726005991001
30
0
11
4.1546646471271478
21
-36.75726005991001
31
0
0
LINE
5
187
100
AcDbEntity
8
CUTOUTS
100
AcDbLine
10
4.1546646471271478
20
-36.75726005991001
30
0
11
6.4005571942752741
21
-40.64726005991001
31
0
0
LINE
5
188
100
AcDbEntity
8
CUTOUTS
100
AcDbLine
10
6.4005571942752741
20
-40.64726005991001
30
0
11
4.1546646471271451
21
-44.537260059910004
31
0
0
LINE
5
189
100
AcDbEntity
8
CUTOUTS
100
AcDbLine
10
4.1546646471271451
20
-44.537260059910004
30
0
11
-0.33712044716813605
21
-44.537260059910004
31
0
0
LINE
5
18A
100
AcDbEntity
8
CUTOUTS
100
AcDbLine
10
22.726093218556151
20
-36.75726005991001
30
0
11
24.971985765704279
21
-40.64726005991001
31
0
0
LINE
5
18B
100
AcDbEntity
8
CUTOUTS
100
AcDbLine
10
24.971985765704279
20
-40.64726005991001
30
0
11
22.726093218556155
21
-44.537260059910004
31
0
0
LINE
5
18C
100
AcDbEntity
8
CUTOUTS
100
AcDbLine
10
22.726093218556155
20
-44.537260059910004
30
0
11
18.234308124260863
21
-44.537260059910004
31
0
0
LINE
5
18D
100
AcDbEntity
8
CUTOUTS
100
AcDbLine
10
18.234308124260863
20
-44.537260059910004
30
0
11
15.988415577113713
21
-40.64726005991001
31
0
0
LINE
5
18E
100
AcDbEntity
8
CUTOUTS
100
AcDbLine
10
15.988415577113713
20
-40.64726005991001
30
0
11
18.234308124260863
21
-36.75726005991001
31
0
0
LINE
5
18F
100
AcDbEntity
8
CUTOUTS
100
AcDbLine
10
18.234308124260863
20
-36.75726005991001
30
0
11
22.726093218556151
21
-36.75726005991001
31
0
0
LINE
5
190
100
AcDbEntity
8
CUTOUTS
100
AcDbLine
10
-18.908549018589159
20
-18.007260059910003
30
0
11
-14.41676392430084
21
-18.007260059910003
31
0
0
LINE
5
191
100
AcDbEntity
8
CUTOUTS
100
AcDbLine
10
-14.41676392430084
20
-18.007260059910003
30
0
11
-12.170871377151739
21
-21.89726005991
31
0
0
LINE
5
192
100
AcDbEntity
8
CUTOUTS
100
AcDbLine
10
-12.170871377151739
20
-21.89726005991
30
0
11
-14.41676392430084
21
-25.787260059910004
31
0
0
LINE
5
193
100
AcDbEntity
8
CUTOUTS
100
AcDbLine
10
-14.41676392430084
20
-25.787260059910004
30
0
11
-18.908549018589159
21
-25.787260059910004
31
0
0
LINE
5
194
100
AcDbEntity
8
CUTOUTS
100
AcDbLine
10
-18.908549018589159
20
-25.787260059910004
30
0
11
-21.15444156573826
21
-21.89726005991
31
0
0
LINE
5
195
100
AcDbEntity
8
CUTOUTS
100
AcDbLine
10
-21.15444156573826
20
-21.89726005991
30
0
11
-18.908549018589159
21
-18.007260059910003
31
0
0
LINE
5
196
100
AcDbEntity
8
CUTOUTS
100
AcDbLine
10
4.1546646471271478
20
-18.007260059910003
30
0
11
6.4005571942752741
21
-21.89726005991
31
0
0
LINE
5
197
100
AcDbEntity
8
CUTOUTS
100
AcDbLine
10
6.4005571942752741
20
-21.89726005991
30
0
11
4.1546646471271478
21
-25.787260059910004
31
0
0
LINE
5
198
100
AcDbEntity
8
CUTOUTS
100
AcDbLine
10
4.1546646471271478
20
-25.787260059910004
30
0
11
-0.33712044716813327
21
-25.787260059910004
31
0
0
LINE
5
199
100
AcDbEntity
8
CUTOUTS
100
AcDbLine
10
-0.33712044716813339
20
-25.787260059910004
30
0
11
-2.583012994315288
21
-21.89726005991
31
0
0
LINE
5
19A
100
AcDbEntity
8
CUTOUTS
100
AcDbLine
10
-2.583012994315288
20
-21.89726005991
30
0
11
-0.33712044716813327
21
-18.007260059910003
31
0
0
LINE
5
19B
100
AcDbEntity
8
CUTOUTS
100
AcDbLine
10
-0.33712044716813327
20
-18.007260059910003
30
0
11
4.1546646471271478
21
-18.007260059910003
31
0
0
LINE
5
19C
100
AcDbEntity
8
CUTOUTS
100
AcDbLine
10
18.234308124260867
20
-18.007260059910003
30
0
11
22.726093218556151
21
-18.007260059910003
31
0
0
LINE
5
19D
100
AcDbEntity
8
CUTOUTS
100
AcDbLine
10
22.726093218556151
20
-18.007260059910003
30
0
11
24.971985765704275
21
-21.89726005991
31
0
0
LINE
5
19E
100
AcDbEntity
8
CUTOUTS
100
AcDbLine
10
24.971985765704275
20
-21.89726005991
30
0
11
22.726093218556151
21
-25.787260059910004
31
0
0
LINE
5
19F
100
AcDbEntity
8
CUTOUTS
100
AcDbLine
10
22.726093218556151
20
-25.787260059910004
30
0
11
18.234308124260867
21
-25.787260059910004
31
0
0
LINE
5
1A0
100
AcDbEntity
8
CUTOUTS
100
AcDbLine
10
18.234308124260867
20
-25.787260059910004
30
0
11
15.988415577113715
21
-21.89726005991
31
0
0
LINE
5
1A1
100
AcDbEntity
8
CUTOUTS
100
AcDbLine
10
15.988415577113715
20
-21.89726005991
30
0
11
18.234308124260867
21
-18.007260059910003
31
0
0
LINE
5
1A2
100
AcDbEntity
8
CUTOUTS
100
AcDbLine
10
36.805736695689852
20
-44.537260059910004
30
0
11
34.559844148541728
21
-40.64726005991001
31
0
0
LINE
5
1A3
100
AcDbEntity
8
CUTOUTS
100
AcDbLine
10
34.559844148541728
20
-40.64726005991001
30
0
11
36.805736695689852
21
-36.75726005991001
31
0
0
LINE
5
1A4
100
AcDbEntity
8
CUTOUTS
100
AcDbLine
10
36.805736695689852
20
-36.75726005991001
30
0
11
41.29752178998514
21
-36.75726005991001
31
0
0
LINE
5
1A5
100
AcDbEntity
8
CUTOUTS
100
AcDbLine
10
41.29752178998514
20
-36.75726005991001
30
0
11
43.543414337132297
21
-40.64726005991001
31
0
0
LINE
5
1A6
100
AcDbEntity
8
CUTOUTS
100
AcDbLine
10
43.543414337132297
20
-40.64726005991001
30
0
11
41.29752178998514
21
-44.537260059910004
31
0
0
LINE
5
1A7
100
AcDbEntity
8
CUTOUTS
100
AcDbLine
10
41.29752178998514
20
-44.537260059910004
30
0
11
36.805736695689852
21
-44.537260059910004
31
0
0
LINE
5
1A8
100
AcDbEntity
8
CUTOUTS
100
AcDbLine
10
59.868950361413155
20
-36.75726005991001
30
0
11
62.114842908561279
21
-40.64726005991001
31
0
0
LINE
5
1A9
100
AcDbEntity
8
CUTOUTS
100
AcDbLine
10
62.114842908561279
20
-40.64726005991001
30
0
11
59.868950361413155
21
-44.537260059910004
31
0
0
LINE
5
1AA
100
AcDbEntity
8
CUTOUTS
100
AcDbLine
10
59.868950361413155
20
-44.537260059910004
30
0
11
55.377165267117867
21
-44.537260059910004
31
0
0
LINE
5
1AB
100
AcDbEntity
8
CUTOUTS
100
AcDbLine
10
55.377165267117867
20
-44.537260059910004
30
0
11
53.13127271997071
21
-40.64726005991001
31
0
0
LINE
5
1AC
100
AcDbEntity
8
CUTOUTS
100
AcDbLine
10
53.13127271997071
20
-40.64726005991001
30
0
11
55.377165267117867
21
-36.75726005991001
31
0
0
LINE
5
1AD
100
AcDbEntity
8
CUTOUTS
100
AcDbLine
10
55.377165267117867
20
-36.75726005991001
30
0
11
59.868950361413155
21
-36.75726005991001
31
0
0
LINE
5
1AE
100
AcDbEntity
8
CUTOUTS
100
AcDbLine
10
78.440378932842137
20
-36.75726005991001
30
0
11
80.686271479989301
21
-40.647260059909996
31
0
0
LINE
5
1AF
100
AcDbEntity
8
CUTOUTS
100
AcDbLine
10
80.686271479989301
20
-40.647260059909996
30
0
11
78.440378932842123
21
-44.537260059910004
31
0
0
LINE
5
1B0
100
AcDbEntity
8
CUTOUTS
100
AcDbLine
10
78.440378932842123
20
-44.537260059910004
30
0
11
73.948593838546856
21
-44.537260059910004
31
0
0
LINE
5
1B1
100
AcDbEntity
8
CUTOUTS
100
AcDbLine
10
73.948593838546856
20
-44.537260059910004
30
0
11
71.702701291398725
21
-40.647260059909996
31
0
0
LINE
5
1B2
100
AcDbEntity
8
CUTOUTS
100
AcDbLine
10
71.702701291398725
20
-40.647260059909996
30
0
11
73.948593838546842
21
-36.75726005991001
31
0
0
LINE
5
1B3
100
AcDbEntity
8
CUTOUTS
100
AcDbLine
10
73.948593838546842
20
-36.75726005991001
30
0
11
78.440378932842137
21
-36.75726005991001
31
0
0
LINE
5
1B4
100
AcDbEntity
8
CUTOUTS
100
AcDbLine
10
90.274129862827721
20
-40.64726005991001
30
0
11
92.520022409974871
21
-36.757260059910003
31
0
0
LINE
5
1B5
100
AcDbEntity
8
CUTOUTS
100
AcDbLine
10
92.520022409974871
20
-36.757260059910003
30
0
11
97.011807504270152
21
-36.75726005991001
31
0
0
LINE
5
1B6
100
AcDbEntity
8
CUTOUTS
100
AcDbLine
10
97.011807504270152
20
-36.75726005991001
30
0
11
99.257700051418283
21
-40.647260059909996
31
0
0
LINE
5
1B7
100
AcDbEntity
8
CUTOUTS
100
AcDbLine
10
99.257700051418283
20
-40.647260059909996
30
0
11
97.011807504270138
21
-44.537260059910004
31
0
0
LINE
5
1B8
100
AcDbEntity
8
CUTOUTS
100
AcDbLine
10
97.011807504270138
20
-44.537260059910004
30
0
11
92.520022409974857
21
-44.537260059910004
31
0
0
LINE
5
1B9
100
AcDbEntity
8
CUTOUTS
100
AcDbLine
10
92.520022409974857
20
-44.537260059910004
30
0
11
90.274129862827721
21
-40.64726005991001
31
0
0
LINE
5
1BA
100
AcDbEntity
8
CUTOUTS
100
AcDbLine
10
34.559844148541728
20
-21.89726005991
30
0
11
36.805736695689852
21
-18.007260059910003
31
0
0
LINE
5
1BB
100
AcDbEntity
8
CUTOUTS
100
AcDbLine
10
36.805736695689852
20
-18.007260059910003
30
0
11
41.29752178998514
21
-18.007260059910003
31
0
0
LINE
5
1BC
100
AcDbEntity
8
CUTOUTS
100
AcDbLine
10
41.29752178998514
20
-18.007260059910003
30
0
11
43.54341433713229
21
-21.89726005991
31
0
0
LINE
5
1BD
100
AcDbEntity
8
CUTOUTS
100
AcDbLine
10
43.54341433713229
20
-21.89726005991
30
0
11
41.29752178998514
21
-25.787260059910004
31
0
0
LINE
5
1BE
100
AcDbEntity
8
CUTOUTS
100
AcDbLine
10
41.29752178998514
20
-25.787260059910004
30
0
11
36.805736695689852
21
-25.787260059910004
31
0
0
LINE
5
1BF
100
AcDbEntity
8
CUTOUTS
100
AcDbLine
10
36.805736695689852
20
-25.787260059910004
30
0
11
34.559844148541728
21
-21.89726005991
31
0
0
LINE
5
1C0
100
AcDbEntity
8
CUTOUTS
100
AcDbLine
10
59.868950361413155
20
-18.007260059910003
30
0
11
62.114842908561279
21
-21.89726005991
31
0
0
LINE
5
1C1
100
AcDbEntity
8
CUTOUTS
100
AcDbLine
10
62.114842908561279
20
-21.89726005991
30
0
11
59.868950361413155
21
-25.787260059910004
31
0
0
LINE
5
1C2
100
AcDbEntity
8
CUTOUTS
100
AcDbLine
10
59.868950361413155
20
-25.787260059910004
30
0
11
55.377165267117867
21
-25.787260059910004
31
0
0
LINE
5
1C3
100
AcDbEntity
8
CUTOUTS
100
AcDbLine
10
55.377165267117867
20
-25.787260059910004
30
0
11
53.131272719970717
21
-21.89726005991
31
0
0
LINE
5
1C4
100
AcDbEntity
8
CUTOUTS
100
AcDbLine
10
53.131272719970717
20
-21.89726005991
30
0
11
55.377165267117867
21
-18.007260059909999
31
0
0
LINE
5
1C5
100
AcDbEntity
8
CUTOUTS
100
AcDbLine
10
55.377165267117867
20
-18.007260059909999
30
0
11
59.868950361413155
21
-18.007260059910003
31
0
0
LINE
5
1C6
100
AcDbEntity
8
CUTOUTS
100
AcDbLine
10
80.686271479989301
20
-21.897260059909996
30
0
11
78.440378932842123
21
-25.787260059910004
31
0
0
LINE
5
1C7
100
AcDbEntity
8
CUTOUTS
100
AcDbLine
10
78.440378932842123
20
-25.787260059910004
30
0
11
73.948593838546856
21
-25.787260059910004
31
0
0
LINE
5
1C8
100
AcDbEntity
8
CUTOUTS
100
AcDbLine
10
73.948593838546856
20
-25.787260059910004
30
0
11
71.702701291398725
21
-21.89726005991
31
0
0
LINE
5
1C9
100
AcDbEntity
8
CUTOUTS
100
AcDbLine
10
71.702701291398725
20
-21.89726005991
30
0
11
73.948593838546856
21
-18.007260059910003
31
0
0
LINE
5
1CA
100
AcDbEntity
8
CUTOUTS
100
AcDbLine
10
73.948593838546856
20
-18.007260059910003
30
0
11
78.440378932842137
21
-18.007260059910003
31
0
0
LINE
5
1CB
100
AcDbEntity
8
CUTOUTS
100
AcDbLine
10
78.440378932842137
20
-18.007260059910003
30
0
11
80.686271479989301
21
-21.897260059909996
31
0
0
LINE
5
1CC
100
AcDbEntity
8
CUTOUTS
100
AcDbLine
10
97.011807504270152
20
-18.007260059910003
30
0
11
99.257700051418283
21
-21.89726005991
31
0
0
LINE
5
1CD
100
AcDbEntity
8
CUTOUTS
100
AcDbLine
10
99.257700051418283
20
-21.89726005991
30
0
11
97.011807504270152
21
-25.787260059909997
31
0
0
LINE
5
1CE
100
AcDbEntity
8
CUTOUTS
100
AcDbLine
10
97.011807504270152
20
-25.787260059909997
30
0
11
92.520022409974871
21
-25.787260059910007
31
0
0
LINE
5
1CF
100
AcDbEntity
8
CUTOUTS
100
AcDbLine
10
92.520022409974871
20
-25.787260059910007
30
0
11
90.274129862827721
21
-21.89726005991
31
0
0
LINE
5
1D0
100
AcDbEntity
8
CUTOUTS
100
AcDbLine
10
90.274129862827721
20
-21.89726005991
30
0
11
92.520022409974871
21
-18.007260059909996
31
0
0
LINE
5
1D1
100
AcDbEntity
8
CUTOUTS
100
AcDbLine
10
92.520022409974871
20
-18.007260059909996
30
0
11
97.011807504270152
21
-18.007260059910003
31
0
0
LINE
5
1D2
100
AcDbEntity
8
PERIMETER
100
AcDbLine
10
-24.391458624960002
20
-115.00726005990001
30
0
11
105.82854137503
21
-115.00726005990001
31
0
0
LINE
5
1D3
100
AcDbEntity
8
PERIMETER
100
AcDbLine
10
105.82854137503
20
-115.00726005990001
30
0
11
105.82854137503
21
-14.787260059909997
31
0
0
LINE
5
1D4
100
AcDbEntity
8
PERIMETER
100
AcDbLine
10
105.82854137503
20
-14.787260059909997
30
0
11
-24.391458624959999
21
-14.78726005991
31
0
0
LINE
5
1D5
100
AcDbEntity
8
PERIMETER
100
AcDbLine
10
-24.391458624960009
20
-14.78726005991
30
0
11
-24.391458624960002
21
-115.00726005990001
31
0
0
ENDSEC
0
SECTION
2
OBJECTS
0
DICTIONARY
5
C
100
AcDbDictionary
3
ACAD_GROUP
350
D
3
ACAD_MLINESTYLE
350
17
0
DICTIONARY
5
D
100
AcDbDictionary
0
DICTIONARY
5
1A
330
C
100
AcDbDictionary
0
DICTIONARY
5
17
100
AcDbDictionary
0
ENDSEC
0
EOF
