0
SECTION
2
HEADER
9
$INSUNITS
70
4
9
$ACADVER
1
AC1014
9
$HANDSEED
5
FFFF
0
ENDSEC
0
SECTION
2
TABLES
0
TABLE
2
VPORT
5
8
100
AcDbSymbolTable
0
ENDTAB
0
TABLE
2
LTYPE
5
5
100
AcDbSymbolTable
70
2
0
LTYPE
5
14
100
AcDbSymbolTableRecord
100
AcDbLinetypeTableRecord
2
BYBLOCK
70
0
0
LTYPE
5
15
100
AcDbSymbolTableRecord
100
AcDbLinetypeTableRecord
2
BYLAYER
70
0
0
ENDTAB
0
TABLE
2
LAYER
5
2
100
AcDbSymbolTable
70
3
0
LAYER
5
50
100
AcDbSymbolTableRecord
100
AcDbLayerTableRecord
2
0
70
0
6
CONTINUOUS
0
LAYER
5
51
100
AcDbSymbolTableRecord
100
AcDbLayerTableRecord
2
CUTOUTS
70
0
62
1
6
CONTINUOUS
0
LAYER
5
52
100
AcDbSymbolTableRecord
100
AcDbLayerTableRecord
2
PERIMETER
70
0
62
5
6
CONTINUOUS
0
ENDTAB
0
TABLE
2
STYLE
5
3
100
AcDbSymbolTable
70
1
0
STYLE
5
11
100
AcDbSymbolTableRecord
100
AcDbTextStyleTableRecord
2
STANDARD
70
0
0
ENDTAB
0
TABLE
2
VIEW
5
6
100
AcDbSymbolTable
0
ENDTAB
0
TABLE
2
UCS
5
7
100
AcDbSymbolTable
0
ENDTAB
0
TABLE
2
APPID
5
9
100
AcDbSymbolTable
70
1
0
APPID
5
12
100
AcDbSymbolTableRecord
100
AcDbRegAppTableRecord
2
ACAD
70
0
0
ENDTAB
0
TABLE
2
DIMSTYLE
5
A
100
AcDbSymbolTable
0
ENDTAB
0
TABLE
2
BLOCK_RECORD
5
1
100
AcDbSymbolTable
70
2
0
BLOCK_RECORD
5
1F
100
AcDbSymbolTableRecord
100
AcDbBlockTableRecord
2
*MODEL_SPACE
0
BLOCK_RECORD
5
1B
100
AcDbSymbolTableRecord
100
AcDbBlockTableRecord
2
*PAPER_SPACE
0
ENDTAB
0
ENDSEC
0
SECTION
2
BLOCKS
0
BLOCK
5
20
100
AcDbEntity
100
AcDbBlockBegin
2
*MODEL_SPACE
0
ENDBLK
5
21
100
AcDbEntity
100
AcDbBlockEnd
0
BLOCK
5
1C
100
AcDbEntity
100
AcDbBlockBegin
2
*PAPER_SPACE
0
ENDBLK
5
1D
100
AcDbEntity
100
AcDbBlockEnd
0
ENDSEC
0
SECTION
2
ENTITIES
0
CIRCLE
5
100
100
AcDbEntity
8
CUTOUTS
100
AcDbCircle
10
-119.245605
20
46.520144000000002
30
0
40
3.9000000000000057
210
0
220
0
230
1
0
LINE
5
101
100
AcDbEntity
8
CUTOUTS
100
AcDbLine
10
-100.14811287848153
20
49.824999999999989
30
0
11
-97.451887121438887
21
49.824999999999989
31
0
0
LINE
5
102
100
AcDbEntity
8
CUTOUTS
100
AcDbLine
10
-97.451887121438887
20
49.824999999999989
30
0
11
-96.103774242877989
21
47.490000000000009
31
0
0
LINE
5
103
100
AcDbEntity
8
CUTOUTS
100
AcDbLine
10
-96.103774242877989
20
47.490000000000009
30
0
11
-97.451887121438887
21
45.155000000000015
31
0
0
LINE
5
104
100
AcDbEntity
8
CUTOUTS
100
AcDbLine
10
-97.451887121438887
20
45.155000000000015
30
0
11
-100.14811287848153
21
45.155000000000015
31
0
0
LINE
5
105
100
AcDbEntity
8
CUTOUTS
100
AcDbLine
10
-100.14811287848153
20
45.155000000000015
30
0
11
-101.49622575706161
21
47.490000000000009
31
0
0
LINE
5
106
100
AcDbEntity
8
CUTOUTS
100
AcDbLine
10
-101.49622575706161
20
47.490000000000009
30
0
11
-100.14811287848153
21
49.824999999999989
31
0
0
CIRCLE
5
107
100
AcDbEntity
8
CUTOUTS
100
AcDbCircle
10
-82.659999999999997
20
44.5
30
0
40
2.6500000000000057
210
0
220
0
230
1
0
CIRCLE
5
108
100
AcDbEntity
8
CUTOUTS
100
AcDbCircle
10
-42.659999999999997
20
44.5
30
0
40
2.6499999999999968
210
0
220
0
230
1
0
CIRCLE
5
109
100
AcDbEntity
8
CUTOUTS
100
AcDbCircle
10
-2.6600000000000001
20
44.5
30
0
40
2.6500000000000004
210
0
220
0
230
1
0
LINE
5
10A
100
AcDbEntity
8
CUTOUTS
100
AcDbLine
10
-101.49622575706161
20
56.990000000000009
30
0
11
-100.14811287848153
21
59.324999999999989
31
0
0
LINE
5
10B
100
AcDbEntity
8
CUTOUTS
100
AcDbLine
10
-100.14811287848153
20
59.324999999999989
30
0
11
-97.451887121438887
21
59.324999999999989
31
0
0
LINE
5
10C
100
AcDbEntity
8
CUTOUTS
100
AcDbLine
10
-97.451887121438887
20
59.324999999999989
30
0
11
-96.103774242877989
21
56.990000000000009
31
0
0
LINE
5
10D
100
AcDbEntity
8
CUTOUTS
100
AcDbLine
10
-96.103774242877989
20
56.990000000000009
30
0
11
-97.451887121438887
21
54.655000000000015
31
0
0
LINE
5
10E
100
AcDbEntity
8
CUTOUTS
100
AcDbLine
10
-97.451887121438887
20
54.655000000000015
30
0
11
-100.14811287848153
21
54.655000000000015
31
0
0
LINE
5
10F
100
AcDbEntity
8
CUTOUTS
100
AcDbLine
10
-100.14811287848153
20
54.655000000000015
30
0
11
-101.49622575706161
21
56.990000000000009
31
0
0
LINE
5
110
100
AcDbEntity
8
CUTOUTS
100
AcDbLine
10
45.441000000000003
20
55.460000000000001
30
0
11
-91.522000000000006
21
55.460000000000001
31
0
0
LINE
5
111
100
AcDbEntity
8
CUTOUTS
100
AcDbLine
10
-91.522000000000006
20
55.460000000000001
30
0
11
-91.522000000000006
21
66.472000000000008
31
0
0
LINE
5
112
100
AcDbEntity
8
CUTOUTS
100
AcDbLine
10
-91.522000000000006
20
66.472000000000008
30
0
11
45.441000000000003
21
66.472000000000008
31
0
0
LINE
5
113
100
AcDbEntity
8
CUTOUTS
100
AcDbLine
10
45.441000000000003
20
66.472000000000008
30
0
11
45.441000000000003
21
55.460000000000001
31
0
0
CIRCLE
5
114
100
AcDbEntity
8
CUTOUTS
100
AcDbCircle
10
37.340000000000003
20
44.5
30
0
40
2.6500000000000012
210
0
220
0
230
1
0
LINE
5
115
100
AcDbEntity
8
CUTOUTS
100
AcDbLine
10
50.003774242884916
20
47.490000000000009
30
0
11
51.351887121441983
21
49.824999999999989
31
0
0
LINE
5
116
100
AcDbEntity
8
CUTOUTS
100
AcDbLine
10
51.351887121441983
20
49.824999999999989
30
0
11
54.04811287855803
21
49.824999999999989
31
0
0
LINE
5
117
100
AcDbEntity
8
CUTOUTS
100
AcDbLine
10
54.04811287855803
20
49.824999999999989
30
0
11
55.39622575711509
21
47.490000000000009
31
0
0
LINE
5
118
100
AcDbEntity
8
CUTOUTS
100
AcDbLine
10
55.39622575711509
20
47.490000000000009
30
0
11
54.04811287855803
21
45.155000000000015
31
0
0
LINE
5
119
100
AcDbEntity
8
CUTOUTS
100
AcDbLine
10
54.04811287855803
20
45.155000000000015
30
0
11
51.351887121441983
21
45.155000000000015
31
0
0
LINE
5
11A
100
AcDbEntity
8
CUTOUTS
100
AcDbLine
10
51.351887121441983
20
45.155000000000015
30
0
11
50.003774242884916
21
47.490000000000009
31
0
0
CIRCLE
5
11B
100
AcDbEntity
8
CUTOUTS
100
AcDbCircle
10
185
20
46.520144000000002
30
0
40
3.9000000000000057
210
0
220
0
230
1
0
LINE
5
11C
100
AcDbEntity
8
CUTOUTS
100
AcDbLine
10
127.72907958943802
20
50.420000000000002
30
0
11
129.24173729471892
21
53.039999999999992
31
0
0
LINE
5
11D
100
AcDbEntity
8
CUTOUTS
100
AcDbLine
10
129.24173729471892
20
53.039999999999992
30
0
11
132.26705270527111
21
53.039999999999992
31
0
0
LINE
5
11E
100
AcDbEntity
8
CUTOUTS
100
AcDbLine
10
132.26705270527111
20
53.039999999999992
30
0
11
133.77971041055201
21
50.420000000000009
31
0
0
LINE
5
11F
100
AcDbEntity
8
CUTOUTS
100
AcDbLine
10
133.77971041055201
20
50.420000000000009
30
0
11
132.26705270527111
21
47.800000000000011
31
0
0
LINE
5
120
100
AcDbEntity
8
CUTOUTS
100
AcDbLine
10
132.26705270527111
20
47.800000000000011
30
0
11
129.24173729471889
21
47.800000000000011
31
0
0
LINE
5
121
100
AcDbEntity
8
CUTOUTS
100
AcDbLine
10
129.24173729471889
20
47.800000000000011
30
0
11
127.72907958943802
21
50.420000000000002
31
0
0
LINE
5
122
100
AcDbEntity
8
CUTOUTS
100
AcDbLine
10
158.72907958943802
20
50.420000000000002
30
0
11
160.24173729471886
21
53.039999999999992
31
0
0
LINE
5
123
100
AcDbEntity
8
CUTOUTS
100
AcDbLine
10
160.24173729471886
20
53.039999999999992
30
0
11
163.26705270527114
21
53.039999999999992
31
0
0
LINE
5
124
100
AcDbEntity
8
CUTOUTS
100
AcDbLine
10
163.26705270527114
20
53.039999999999992
30
0
11
164.77971041055198
21
50.420000000000009
31
0
0
LINE
5
125
100
AcDbEntity
8
CUTOUTS
100
AcDbLine
10
164.77971041055198
20
50.420000000000009
30
0
11
163.26705270527114
21
47.800000000000011
31
0
0
LINE
5
126
100
AcDbEntity
8
CUTOUTS
100
AcDbLine
10
163.26705270527114
20
47.800000000000011
30
0
11
160.24173729471886
21
47.800000000000011
31
0
0
LINE
5
127
100
AcDbEntity
8
CUTOUTS
100
AcDbLine
10
160.24173729471886
20
47.800000000000011
30
0
11
158.72907958943802
21
50.420000000000002
31
0
0
LINE
5
128
100
AcDbEntity
8
CUTOUTS
100
AcDbLine
10
51.35188712144199
20
54.655000000000001
30
0
11
50.003774242884916
21
56.990000000000009
31
0
0
LINE
5
129
100
AcDbEntity
8
CUTOUTS
100
AcDbLine
10
50.003774242884916
20
56.990000000000009
30
0
11
51.35188712144199
21
59.325000000000003
31
0
0
LINE
5
12A
100
AcDbEntity
8
CUTOUTS
100
AcDbLine
10
51.35188712144199
20
59.325000000000003
30
0
11
54.048112878558015
21
59.325000000000003
31
0
0
LINE
5
12B
100
AcDbEntity
8
CUTOUTS
100
AcDbLine
10
54.048112878558015
20
59.325000000000003
30
0
11
55.39622575711509
21
56.990000000000009
31
0
0
LINE
5
12C
100
AcDbEntity
8
CUTOUTS
100
AcDbLine
10
55.39622575711509
20
56.990000000000009
30
0
11
54.048112878558015
21
54.655000000000001
31
0
0
LINE
5
12D
100
AcDbEntity
8
CUTOUTS
100
AcDbLine
10
54.048112878558015
20
54.655000000000001
30
0
11
51.35188712144199
21
54.655000000000001
31
0
0
LINE
5
12E
100
AcDbEntity
8
CUTOUTS
100
AcDbLine
10
-107.74647802828073
20
62.100999999999999
30
0
11
-109.95195605656238
21
65.921000000000006
31
0
0
LINE
5
12F
100
AcDbEntity
8
CUTOUTS
100
AcDbLine
10
-109.95195605656238
20
65.921000000000006
30
0
11
-107.74647802828073
21
69.741
31
0
0
LINE
5
130
100
AcDbEntity
8
CUTOUTS
100
AcDbLine
10
-107.74647802828073
20
69.741
30
0
11
-103.33552197161927
21
69.741
31
0
0
LINE
5
131
100
AcDbEntity
8
CUTOUTS
100
AcDbLine
10
-103.33552197161927
20
69.741
30
0
11
-101.13004394333764
21
65.921000000000006
31
0
0
LINE
5
132
100
AcDbEntity
8
CUTOUTS
100
AcDbLine
10
-101.13004394333764
20
65.921000000000006
30
0
11
-103.33552197161927
21
62.100999999999999
31
0
0
LINE
5
133
100
AcDbEntity
8
CUTOUTS
100
AcDbLine
10
-103.33552197161927
20
62.100999999999999
30
0
11
-107.74647802828073
21
62.100999999999999
31
0
0
CIRCLE
5
134
100
AcDbEntity
8
CUTOUTS
100
AcDbCircle
10
-119.245605
20
85
30
0
40
3.9000000000000057
210
0
220
0
230
1
0
CIRCLE
5
135
100
AcDbEntity
8
CUTOUTS
100
AcDbCircle
10
146.25439499999999
20
65.920000000000002
30
0
40
10.899999999999999
210
0
220
0
230
1
0
LINE
5
136
100
AcDbEntity
8
CUTOUTS
100
AcDbLine
10
129.24173729471889
20
78.799999999999983
30
0
11
127.72907958943799
21
81.420000000000016
31
0
0
LINE
5
137
100
AcDbEntity
8
CUTOUTS
100
AcDbLine
10
127.72907958943799
20
81.420000000000016
30
0
11
129.24173729471889
21
84.04000000000002
31
0
0
LINE
5
138
100
AcDbEntity
8
CUTOUTS
100
AcDbLine
10
129.24173729471889
20
84.04000000000002
30
0
11
132.26705270527111
21
84.04000000000002
31
0
0
LINE
5
139
100
AcDbEntity
8
CUTOUTS
100
AcDbLine
10
132.26705270527111
20
84.04000000000002
30
0
11
133.77971041055201
21
81.420000000000016
31
0
0
LINE
5
13A
100
AcDbEntity
8
CUTOUTS
100
AcDbLine
10
133.77971041055201
20
81.420000000000016
30
0
11
132.26705270527111
21
78.799999999999983
31
0
0
LINE
5
13B
100
AcDbEntity
8
CUTOUTS
100
AcDbLine
10
132.26705270527111
20
78.799999999999983
30
0
11
129.24173729471889
21
78.799999999999983
31
0
0
LINE
5
13C
100
AcDbEntity
8
CUTOUTS
100
AcDbLine
10
163.26705270527114
20
84.039999999999992
30
0
11
164.77971041055198
21
81.420000000000016
31
0
0
LINE
5
13D
100
AcDbEntity
8
CUTOUTS
100
AcDbLine
10
164.77971041055198
20
81.420000000000016
30
0
11
163.26705270527114
21
78.800000000000011
31
0
0
LINE
5
13E
100
AcDbEntity
8
CUTOUTS
100
AcDbLine
10
163.26705270527114
20
78.800000000000011
30
0
11
160.24173729471886
21
78.800000000000011
31
0
0
LINE
5
13F
100
AcDbEntity
8
CUTOUTS
100
AcDbLine
10
160.24173729471886
20
78.800000000000011
30
0
11
158.72907958943802
21
81.420000000000016
31
0
0
LINE
5
140
100
AcDbEntity
8
CUTOUTS
100
AcDbLine
10
158.72907958943802
20
81.420000000000016
30
0
11
160.24173729471886
21
84.039999999999992
31
0
0
LINE
5
141
100
AcDbEntity
8
CUTOUTS
100
AcDbLine
10
160.24173729471886
20
84.039999999999992
30
0
11
163.26705270527114
21
84.039999999999992
31
0
0
CIRCLE
5
142
100
AcDbEntity
8
CUTOUTS
100
AcDbCircle
10
185
20
85
30
0
40
3.9000000000000057
210
0
220
0
230
1
0
LINE
5
143
100
AcDbEntity
8
PERIMETER
100
AcDbLine
10
153.40000000000001
20
97.100000000000009
30
0
11
-87.645605000000032
21
97.100000000000009
31
0
0
LINE
5
144
100
AcDbEntity
8
PERIMETER
100
AcDbLine
10
-87.645605000000032
20
97.100000000000009
30
0
11
-87.645605000000003
21
100.09999999999999
31
0
0
LINE
5
145
100
AcDbEntity
8
PERIMETER
100
AcDbLine
10
-87.645605000000003
20
100.09999999999999
30
0
11
-134.34560500000001
21
100.09999999999999
31
0
0
LINE
5
146
100
AcDbEntity
8
PERIMETER
100
AcDbLine
10
-134.34560500000001
20
100.09999999999999
30
0
11
-134.34560500000001
21
31.420144000000008
31
0
0
LINE
5
147
100
AcDbEntity
8
PERIMETER
100
AcDbLine
10
-134.34560500000001
20
31.420144000000008
30
0
11
200.09999999999997
21
31.420144000000004
31
0
0
LINE
5
148
100
AcDbEntity
8
PERIMETER
100
AcDbLine
10
200.09999999999997
20
31.420144000000004
30
0
11
200.10000000000002
21
100.09999999999999
31
0
0
LINE
5
149
100
AcDbEntity
8
PERIMETER
100
AcDbLine
10
200.10000000000002
20
100.09999999999999
30
0
11
153.40000000000001
21
100.09999999999999
31
0
0
LINE
5
14A
100
AcDbEntity
8
PERIMETER
100
AcDbLine
10
153.40000000000001
20
100.09999999999999
30
0
11
153.40000000000001
21
97.100000000000009
31
0
0
ENDSEC
0
SECTION
2
OBJECTS
0
DICTIONARY
5
C
100
AcDbDictionary
3
ACAD_GROUP
350
D
3
ACAD_MLINESTYLE
350
17
0
DICTIONARY
5
D
100
AcDbDictionary
0
DICTIONARY
5
1A
330
C
100
AcDbDictionary
0
DICTIONARY
5
17
100
AcDbDictionary
0
ENDSEC
0
EOF
